<?xml version="1.0" encoding="UTF-8"?> <!-- Generator: Adobe Illustrator 23.0.3, SVG Export Plug-In . SVG Version: 6.00 Build 0) --> <svg xmlns="http://www.w3.org/2000/svg" xmlns:xlink="http://www.w3.org/1999/xlink" version="1.1" id="Layer_1" x="0px" y="0px" viewBox="0 0 501 438" style="enable-background:new 0 0 501 438;" xml:space="preserve"> <style type="text/css"> .st0{fill-rule:evenodd;clip-rule:evenodd;fill:#FFD740;} .st1{fill:#163560;} .st2{fill:#E49963;} .st3{fill:#2067CE;} .st4{fill:#A6C7F9;} .st5{fill:#E27C29;} .st6{fill:#FE912A;} .st7{fill:#1C468A;} .st8{fill:#2176FF;} .st9{fill:#D68D5D;} .st10{fill:#2B478B;} .st11{fill:#4A75CB;} .st12{fill:#D2E4FF;} .st13{fill:#F3F9FF;} .st14{fill:#82B378;} .st15{fill:#FFFFFF;} </style> <path id="XMLID_664_" class="st0" d="M8.83,206.67C27.18,103.93,119.87,0.91,304.35,32.39C488.83,63.87,495.98,266.26,490.58,326.3 c-5.4,60.04-59.44,84.29-129.55,55.59c-70.11-28.7-104.09-34.77-167.51-7.73C130.11,401.21-12.7,327.11,8.83,206.67z"></path> <g> <path class="st1" d="M122.31,404.98c0,0,0.61,9.83,2.51,9.97c0.25,0.02,9.64,0.02,9.64,0.02l11.99-0.07c0,0-0.08-2.89-3.58-3.5 c-3.5-0.61-9.37-3.07-11.49-7.7C129.14,398.82,122.31,404.98,122.31,404.98z"></path> <path class="st2" d="M117.99,290.28c0,0,5.22,1.34,8.54,0.34c3.32-1,9.03,0.64,9.95,1.85c0.92,1.21,0.58,1.69-1.06,2.11 c-1.64,0.42-7.46,2.9-11.28,1.46s-8.81-1.49-8.81-1.49L117.99,290.28z"></path> <path class="st3" d="M72.85,244.92c0,0,5.87,41.7,15.58,45.43c4.79,1.84,25.98,6.02,32.24,6.44c0,0,1.54-1.25,1.16-6.31 c0,0-22.2-8.15-25.35-12.58c-4.69-6.6,2.91-26.94-2.98-33.14C87.63,238.56,77.71,235.9,72.85,244.92z"></path> <path class="st4" d="M73.6,405.58v-9.09H59.29c-0.39,0-0.7-0.32-0.7-0.7v-1.46c0-0.39,0.32-0.7,0.7-0.7H73.6v-51.75 c0-1.45,1.19-2.64,2.64-2.64h2.83c1.45,0,2.64,1.19,2.64,2.64v51.75h14.31c0.39,0,0.7,0.32,0.7,0.7v1.46c0,0.39-0.32,0.7-0.7,0.7 H81.72v9.09c10.36,0.78,18.65,4.51,20.98,9.33H52.62C54.95,410.09,63.25,406.36,73.6,405.58z"></path> <path class="st5" d="M74.83,332.77c1.71,2.9,3.69,5.62,5.73,8.2c6.31,7.96,13.17,14.52,14.37,20.73c0.24,1.24,0.62,2.57,1.11,3.97 c0.5,1.42,1.12,2.92,1.83,4.46c2.68,5.81,6.68,12.33,10.67,18.25c6.91,10.23,13.4,18.77,13.4,18.77l11.91-0.51 c-0.48-1.19-5.67-15.32-12.62-32.59c-2.82-7.01-5.82-14.47-8.72-21.66c-0.39-0.96-0.77-1.92-1.15-2.86 c-0.89-2.2-1.76-4.37-2.61-6.48c-6.53-16.21-11.72-29.13-11.72-29.13s-26.08-9.88-28.79-3.48 C66.01,315.72,67.83,320.89,74.83,332.77z"></path> <path class="st1" d="M94.73,376.9c0,0-8.28,5.32-7.48,7.05c0.11,0.23,4.69,8.43,4.69,8.43l5.9,10.43c0,0,2.48-1.48,1.31-4.83 c-1.18-3.36-1.88-9.68,1.12-13.79C103.44,379.87,94.73,376.9,94.73,376.9z"></path> <path class="st6" d="M105.94,309.23c0,0,32.73,20.39,36.39,34.09c3.65,13.7-43.54,42.94-43.54,42.94s-5.18-4.57-6.09-7.92 c0,0,21.33-25.56,25.96-31.29c2.84-3.52-42.02-12.18-47.51-20.71c-5.48-8.53-3.52-15.7-3.52-15.7L105.94,309.23z"></path> <path class="st7" d="M44.16,335.41h66.99c1.34,0,2.44,1.1,2.44,2.44v13.4c0,1.34-1.1,2.44-2.44,2.44H44.16 c-1.34,0-2.44-1.1-2.44-2.44v-13.4C41.72,336.51,42.82,335.41,44.16,335.41z"></path> <path class="st2" d="M90.8,237.77c3.22,1.99,4.99,4.52,4.99,4.52c-7.84,2.03-20.84-5.24-20.84-5.24s5.05-3.39,6.92-10.84 c0.09-0.38,0.18-0.76,0.26-1.16c0.25-1.26,0.4-2.61,0.42-4.08l3.6,3.23l5.99,5.37c0,0-0.14,2.23-0.89,6.06 C91.12,236.29,90.97,237,90.8,237.77z"></path> <path class="st8" d="M66.68,274.76c1.12,15.11-0.77,38.08,0.51,42.06c1.1,3.43,14.04,1.4,19.04,0.25c1.85-0.42,4.09-1.03,6.41-1.75 c6.46-2,13.5-4.86,14.25-6.98c0.03-0.08,0.05-0.16,0.07-0.24c0.07-0.31,0.05-0.6-0.01-0.89c-0.25-1.08-1.22-2.25-1.34-4.93 c-0.13-2.99-0.11-6.51-0.22-10.29c-0.01-0.43-0.01-0.89-0.06-1.31l0-0.15c0-0.08,0-0.16-0.01-0.24c-0.11-4.22-0.33-8.66-0.58-13.06 c-0.16-2.76-0.35-5.5-0.57-8.12c-0.56-6.77-1.32-12.79-2.33-16.59c-1.64-6.2-5.26-10.25-8.56-13.21l-2.38-2.04 c-2.66,0.58-5.81,0.2-8.65-1.15c-3.08-1.46-4.14-2.51-4.68-2.11C70.47,239.48,65.35,256.29,66.68,274.76z"></path> <path class="st3" d="M92.6,315.36c6.46-2,13.5-4.86,14.25-6.98c0.03-0.08,0.05-0.16,0.07-0.24c0-0.3-0.01-0.59-0.01-0.89 c-0.25-1.08-1.22-2.25-1.34-4.93c-0.13-2.99-0.11-6.51-0.22-10.29c-0.01-0.43-0.01-0.89-0.06-1.31l0-0.15c0-0.08,0-0.16-0.01-0.24 l-24.4-11.07C80.89,279.25,79.48,298.92,92.6,315.36z"></path> <path class="st9" d="M92.14,229.56c0,0-0.14,2.23-0.89,6.06c-5.85-1.89-8.5-7.17-9.39-9.41c-0.25-0.63-0.36-1.02-0.36-1.02 s0.23-0.05,0.62-0.13c0.82-0.17,2.37-0.5,4.03-0.85L92.14,229.56z"></path> <path class="st2" d="M94.51,229.5c0,0-12.85,1.45-13.63-6.57c-0.78-8.02-2.96-13.23,5.21-14.49c8.17-1.26,10.07,1.64,10.98,4.25 C97.97,215.31,97.83,228.92,94.51,229.5z"></path> <path class="st10" d="M80.93,223.49c0,0,0.81-10.64,12.51-11.74c8.01-0.75,3.55-7.65,2.69-8.75c0,0-6.14,0.84-12.43,1.88 C70.5,207.06,79.63,221.83,80.93,223.49z"></path> <g> <rect x="147.89" y="270.7" transform="matrix(-0.9511 -0.309 0.309 -0.9511 201.2607 604.2531)" class="st11" width="1.18" height="30.97"></rect> <rect x="111.79" y="298.81" transform="matrix(-0.9998 -0.0214 0.0214 -0.9998 249.6408 602.2242)" class="st11" width="32.5" height="1.94"></rect> </g> <path class="st2" d="M115.3,296.69c0,0,5.04,1.91,8.45,1.28c3.41-0.63,8.91,1.63,9.69,2.94c0.78,1.3,0.39,1.75-1.29,1.98 c-1.68,0.23-7.73,2.06-11.38,0.21c-3.64-1.85-8.59-2.45-8.59-2.45L115.3,296.69z"></path> <path class="st8" d="M75.44,246.63c0,0,1.23,42.09,10.48,46.87c4.56,2.36,25.16,8.85,31.34,9.96c0,0,1.66-1.07,1.85-6.15 c0,0-21.16-10.55-23.81-15.3c-3.94-7.07,5.87-26.46,0.7-33.26C90.83,241.94,81.26,238.2,75.44,246.63z"></path> <path class="st12" d="M193.23,347.16h167.68c11.7,0,21.19-9.49,21.19-21.19V96.69c0-11.7-9.49-21.19-21.19-21.19H193.23 c-11.7,0-21.19,9.49-21.19,21.19v229.27C172.04,337.67,181.53,347.16,193.23,347.16z"></path> <rect x="192.68" y="103.98" transform="matrix(-1 -1.224647e-16 1.224647e-16 -1 554.488 423.634)" class="st13" width="169.12" height="215.68"></rect> <g> <path class="st6" d="M337.82,310.19L337.82,310.19c-4.93,0-8.92-4-8.92-8.92V177.89c0-4.93,4-8.92,8.92-8.92l0,0 c4.93,0,8.92,4,8.92,8.92v123.37C346.75,306.2,342.75,310.19,337.82,310.19z"></path> <path class="st6" d="M308.59,310.19L308.59,310.19c-4.93,0-8.92-4-8.92-8.92V138.53c0-4.93,4-8.92,8.92-8.92l0,0 c4.93,0,8.92,4,8.92,8.92v162.74C317.51,306.2,313.51,310.19,308.59,310.19z"></path> <path class="st6" d="M276.68,310.19L276.68,310.19c-4.93,0-8.92-4-8.92-8.92v-89.22c0-4.93,4-8.92,8.92-8.92l0,0 c4.93,0,8.92,4,8.92,8.92v89.22C285.61,306.2,281.61,310.19,276.68,310.19z"></path> <path class="st6" d="M245.64,310.19L245.64,310.19c-4.93,0-8.92-4-8.92-8.92V162.64c0-4.93,4-8.92,8.92-8.92l0,0 c4.93,0,8.92,4,8.92,8.92v138.63C254.56,306.2,250.57,310.19,245.64,310.19z"></path> <path class="st6" d="M223.36,233v68.27c0,4.93-4,8.92-8.92,8.92l0,0c-4.93,0-8.92-4-8.92-8.92V233c0-4.93,4-8.92,8.92-8.92l0,0 C219.36,224.08,223.36,228.07,223.36,233z"></path> </g> <g> <path class="st4" d="M237.56,142.66h15.11c0.86,0,1.56,0.7,1.56,1.56s-0.7,1.56-1.56,1.56h-15.11c-0.86,0-1.56-0.7-1.56-1.56 S236.7,142.66,237.56,142.66z"></path> <path class="st4" d="M249.23,148.35h3.44c0.86,0,1.56,0.7,1.56,1.56s-0.7,1.56-1.56,1.56h-3.44c-0.86,0-1.56-0.7-1.56-1.56 S248.37,148.35,249.23,148.35z"></path> <path class="st4" d="M299.84,118.67h15.11c0.86,0,1.56,0.7,1.56,1.56c0,0.86-0.7,1.56-1.56,1.56h-15.11 c-0.86,0-1.56-0.7-1.56-1.56C298.28,119.37,298.98,118.67,299.84,118.67z"></path> <path class="st4" d="M311.51,124.36h3.44c0.86,0,1.56,0.7,1.56,1.56l0,0c0,0.86-0.7,1.56-1.56,1.56h-3.44 c-0.86,0-1.56-0.7-1.56-1.56l0,0C309.95,125.06,310.65,124.36,311.51,124.36z"></path> <path class="st4" d="M330.07,158h15.11c0.86,0,1.56,0.7,1.56,1.56s-0.7,1.56-1.56,1.56h-15.11c-0.86,0-1.56-0.7-1.56-1.56 S329.21,158,330.07,158z"></path> <path class="st4" d="M341.74,163.69h3.44c0.86,0,1.56,0.7,1.56,1.56l0,0c0,0.86-0.7,1.56-1.56,1.56h-3.44 c-0.86,0-1.56-0.7-1.56-1.56l0,0C340.18,164.4,340.88,163.69,341.74,163.69z"></path> <path class="st4" d="M269.13,192.17h15.11c0.86,0,1.56,0.7,1.56,1.56s-0.7,1.56-1.56,1.56h-15.11c-0.86,0-1.56-0.7-1.56-1.56 S268.27,192.17,269.13,192.17z"></path> <path class="st4" d="M280.8,197.86h3.44c0.86,0,1.56,0.7,1.56,1.56l0,0c0,0.86-0.7,1.56-1.56,1.56h-3.44 c-0.86,0-1.56-0.7-1.56-1.56l0,0C279.23,198.56,279.94,197.86,280.8,197.86z"></path> <path class="st4" d="M206.88,213.06h15.11c0.86,0,1.56,0.7,1.56,1.56c0,0.86-0.7,1.56-1.56,1.56h-15.11 c-0.86,0-1.56-0.7-1.56-1.56C205.31,213.77,206.02,213.06,206.88,213.06z"></path> <path class="st4" d="M218.55,218.75h3.44c0.86,0,1.56,0.7,1.56,1.56c0,0.86-0.7,1.56-1.56,1.56h-3.44c-0.86,0-1.56-0.7-1.56-1.56 C216.98,219.46,217.69,218.75,218.55,218.75z"></path> </g> <g> <path class="st10" d="M214.43,208.62c-3.06,0-5.55-2.49-5.55-5.55c0-3.06,2.49-5.55,5.55-5.55c3.06,0,5.55,2.49,5.55,5.55 C219.99,206.13,217.5,208.62,214.43,208.62z M214.43,199.66c-1.88,0-3.4,1.53-3.4,3.4c0,1.88,1.53,3.4,3.4,3.4 c1.88,0,3.4-1.53,3.4-3.4C217.84,201.19,216.31,199.66,214.43,199.66z"></path> <path class="st10" d="M212.07,199.66c-0.28,0-0.55-0.1-0.76-0.31l-16.69-16.69H59.02c-0.59,0-1.07-0.48-1.07-1.07 s0.48-1.07,1.07-1.07h136.48l17.32,17.32c0.42,0.42,0.42,1.1,0,1.52C212.62,199.55,212.34,199.66,212.07,199.66z"></path> </g> <g> <path class="st10" d="M246.37,325.73c-3.06,0-5.55-2.49-5.55-5.55c0-3.06,2.49-5.55,5.55-5.55c3.06,0,5.55,2.49,5.55,5.55 C251.93,323.23,249.43,325.73,246.37,325.73z M246.37,316.77c-1.88,0-3.4,1.53-3.4,3.4s1.53,3.4,3.4,3.4c1.88,0,3.4-1.53,3.4-3.4 S248.25,316.77,246.37,316.77z"></path> <path class="st10" d="M399.63,342.73H265.3l-17.32-17.32c-0.42-0.42-0.42-1.1,0-1.52c0.42-0.42,1.1-0.42,1.52,0l16.69,16.69 h133.44c0.59,0,1.07,0.48,1.07,1.07S400.22,342.73,399.63,342.73z"></path> </g> <g> <path class="st10" d="M307.81,114.37c-3.06,0-5.55-2.49-5.55-5.55c0-3.06,2.49-5.55,5.55-5.55c3.06,0,5.55,2.49,5.55,5.55 C313.36,111.88,310.87,114.37,307.81,114.37z M307.81,105.41c-1.88,0-3.4,1.53-3.4,3.4c0,1.88,1.53,3.4,3.4,3.4s3.4-1.53,3.4-3.4 C311.21,106.94,309.68,105.41,307.81,105.41z"></path> <path class="st10" d="M305.44,105.41c-0.28,0-0.55-0.1-0.76-0.31l-16.69-16.69H152.4c-0.59,0-1.07-0.48-1.07-1.07 c0-0.59,0.48-1.07,1.07-1.07h136.48l17.32,17.32c0.42,0.42,0.42,1.1,0,1.52C305.99,105.31,305.72,105.41,305.44,105.41z"></path> </g> <path class="st8" d="M149.64,178.02H60.57c-1.5,0-2.72-1.22-2.72-2.72l0,0c0-1.5,1.22-2.72,2.72-2.72h89.08 c1.5,0,2.72,1.22,2.72,2.72l0,0C152.37,176.8,151.15,178.02,149.64,178.02z"></path> <path class="st8" d="M149.64,169.42H94.96c-1.5,0-2.72-1.22-2.72-2.72l0,0c0-1.5,1.22-2.72,2.72-2.72h54.68 c1.5,0,2.72,1.22,2.72,2.72l0,0C152.37,168.2,151.15,169.42,149.64,169.42z"></path> <path class="st8" d="M149.64,160.82H94.96c-1.5,0-2.72-1.22-2.72-2.72l0,0c0-1.5,1.22-2.72,2.72-2.72h54.68 c1.5,0,2.72,1.22,2.72,2.72l0,0C152.37,159.6,151.15,160.82,149.64,160.82z"></path> <path class="st8" d="M242.4,83.21h-89.08c-1.5,0-2.72-1.22-2.72-2.72l0,0c0-1.5,1.22-2.72,2.72-2.72h89.08 c1.5,0,2.72,1.22,2.72,2.72l0,0C245.12,81.99,243.9,83.21,242.4,83.21z"></path> <g> <g> <circle class="st14" cx="308.33" cy="369.64" r="19.38"></circle> <path class="st15" d="M308.33,353.25c9.05,0,16.39,7.34,16.39,16.39c0,4.48-1.8,8.54-4.71,11.49l-11.68-11.49l-15.31,5.84 c-0.69-1.82-1.07-3.78-1.07-5.84C291.95,360.59,299.28,353.25,308.33,353.25z"></path> <g> <path class="st14" d="M310.73,361.32h6.98c0.27,0,0.5,0.22,0.5,0.5l0,0c0,0.27-0.22,0.5-0.5,0.5h-6.98c-0.27,0-0.5-0.22-0.5-0.5 l0,0C310.23,361.54,310.45,361.32,310.73,361.32z"></path> <path class="st14" d="M310.73,362.9h6.98c0.27,0,0.5,0.22,0.5,0.5c0,0.27-0.22,0.5-0.5,0.5h-6.98c-0.27,0-0.5-0.22-0.5-0.5 C310.23,363.12,310.45,362.9,310.73,362.9z"></path> <path class="st14" d="M314.82,364.48h2.88c0.27,0,0.5,0.22,0.5,0.5c0,0.27-0.22,0.5-0.5,0.5h-2.88c-0.27,0-0.5-0.22-0.5-0.5 C314.32,364.7,314.55,364.48,314.82,364.48z"></path> </g> </g> <polygon class="st14" points="291.36,360.54 299.03,352.87 291.36,352.87 "></polygon> </g> <g> <g> <ellipse transform="matrix(0.0498 -0.9988 0.9988 0.0498 -14.0046 724.5579)" class="st14" cx="373.8" cy="369.64" rx="19.38" ry="19.38"></ellipse> <path class="st15" d="M357.41,369.64c0-9.05,7.34-16.39,16.39-16.39c9.05,0,16.39,7.34,16.39,16.39 c0,9.05-7.34,16.39-16.39,16.39c-3.74,0-7.18-1.25-9.94-3.36l9.94-13.03l-15.31,5.84C357.79,373.67,357.41,371.7,357.41,369.64z"></path> <g> <path class="st14" d="M376.32,361.32h6.98c0.27,0,0.5,0.22,0.5,0.5l0,0c0,0.27-0.22,0.5-0.5,0.5h-6.98c-0.27,0-0.5-0.22-0.5-0.5 l0,0C375.83,361.54,376.05,361.32,376.32,361.32z"></path> <path class="st14" d="M376.32,362.9h6.98c0.27,0,0.5,0.22,0.5,0.5c0,0.27-0.22,0.5-0.5,0.5h-6.98c-0.27,0-0.5-0.22-0.5-0.5 C375.83,363.12,376.05,362.9,376.32,362.9z"></path> <path class="st14" d="M380.42,364.48h2.88c0.27,0,0.5,0.22,0.5,0.5c0,0.27-0.22,0.5-0.5,0.5h-2.88c-0.27,0-0.5-0.22-0.5-0.5 C379.92,364.7,380.15,364.48,380.42,364.48z"></path> </g> </g> <polygon class="st14" points="356.93,360.54 364.6,352.87 356.93,352.87 "></polygon> </g> </g> </svg> 