<?xml version="1.0" encoding="UTF-8"?> <!-- Generator: Adobe Illustrator 23.0.3, SVG Export Plug-In . SVG Version: 6.00 Build 0) --> <svg xmlns="http://www.w3.org/2000/svg" xmlns:xlink="http://www.w3.org/1999/xlink" version="1.1" id="Layer_1" x="0px" y="0px" viewBox="0 0 501 438" style="enable-background:new 0 0 501 438;" xml:space="preserve"> <style type="text/css"> .st0{fill:#EF4335;} .st1{fill:#2176FF;} .st2{fill:#73ACFF;} .st3{fill:#91B3FA;} .st4{fill:#7D97F4;} .st5{fill:#FFFFFF;} .st6{opacity:0.7;fill:url(#SVGID_1_);} .st7{opacity:0.7;fill:url(#SVGID_2_);} .st8{opacity:0.7;fill:url(#SVGID_3_);} .st9{opacity:0.7;fill:url(#SVGID_4_);} .st10{opacity:0.64;} .st11{fill:url(#SVGID_5_);} .st12{fill:url(#SVGID_6_);} .st13{fill:url(#SVGID_7_);} .st14{fill:url(#SVGID_8_);} .st15{fill:url(#SVGID_9_);} .st16{fill:url(#SVGID_10_);} .st17{fill:url(#SVGID_11_);} .st18{fill:url(#SVGID_12_);} .st19{fill:url(#SVGID_13_);} .st20{fill:url(#SVGID_14_);} .st21{fill:url(#SVGID_15_);} .st22{fill:url(#SVGID_16_);} .st23{fill:#FFFDFF;} .st24{fill:url(#SVGID_17_);} .st25{fill:url(#SVGID_18_);} .st26{fill:url(#SVGID_19_);} .st27{fill:url(#SVGID_20_);} .st28{fill:url(#SVGID_21_);} .st29{fill:url(#SVGID_22_);} .st30{fill:url(#SVGID_23_);} .st31{fill:url(#SVGID_24_);} .st32{fill:url(#SVGID_25_);} .st33{fill:url(#SVGID_26_);} .st34{fill:url(#SVGID_27_);} .st35{fill:url(#SVGID_28_);} .st36{fill:url(#SVGID_29_);} .st37{fill:url(#SVGID_30_);} .st38{fill:url(#SVGID_31_);} .st39{fill:url(#SVGID_32_);} .st40{fill:url(#SVGID_33_);} .st41{fill:url(#SVGID_34_);} .st42{fill:url(#SVGID_35_);} .st43{fill:#C1C1C1;} .st44{fill:url(#SVGID_36_);} .st45{fill:url(#SVGID_37_);} .st46{fill:url(#SVGID_38_);} .st47{fill:url(#SVGID_39_);} .st48{fill:url(#SVGID_40_);} .st49{fill:url(#SVGID_41_);} .st50{fill:url(#SVGID_42_);} .st51{fill:url(#SVGID_43_);} .st52{fill:url(#SVGID_44_);} .st53{fill:url(#SVGID_45_);} .st54{fill:url(#SVGID_46_);} .st55{fill:url(#SVGID_47_);} .st56{fill:url(#SVGID_48_);} .st57{fill:url(#SVGID_49_);} .st58{fill:url(#SVGID_50_);} .st59{fill:url(#SVGID_51_);} .st60{fill:url(#SVGID_52_);} .st61{fill:url(#SVGID_53_);} .st62{fill:url(#SVGID_54_);} .st63{fill:url(#SVGID_55_);} .st64{fill:url(#SVGID_56_);} .st65{fill:url(#SVGID_57_);} .st66{fill:url(#SVGID_58_);} .st67{fill:url(#SVGID_59_);} .st68{fill:#FFFFFD;} .st69{fill:url(#SVGID_60_);} .st70{fill:url(#SVGID_61_);} .st71{fill:url(#SVGID_62_);} .st72{fill:url(#SVGID_63_);} .st73{fill:url(#SVGID_64_);} .st74{fill:url(#SVGID_65_);} .st75{fill:#BDD0FB;} .st76{fill:url(#SVGID_66_);} .st77{opacity:0.3;} .st78{fill:url(#SVGID_67_);} .st79{fill:url(#SVGID_68_);} .st80{fill:url(#SVGID_69_);} .st81{fill:url(#SVGID_70_);} </style> <path class="st0" d="M262.58,1.75c2.76,0,5.52,0,8.28,0c2.19,0.31,4.38,0.57,6.56,0.93c30.29,4.97,56.25,18.05,77.13,40.86 c24.55,26.81,46.69,55.56,68.35,84.69c21.49,28.9,41.09,59,56.37,91.73c8.05,17.24,14.41,35.04,17.25,53.96 c0.7,4.67,1.64,9.31,2.47,13.96c0,3.4,0,6.8,0,10.2c-0.48,2.04-1.13,4.06-1.42,6.13c-3.21,22.63-14.25,40.5-32.61,53.98 c-10.23,7.51-21.38,13.34-33.12,18.1c-19.77,8.01-40.63,11.55-61.46,15.37c-25.34,4.64-49.72,12.24-72.45,24.68 c-4.9,2.68-10.01,5.28-15.34,6.86c-21.87,6.49-44.2,10.74-66.99,12.44c-5.59,0.42-11.18,0.91-16.76,1.37c-5.74,0-11.47,0-17.21,0 c-1.34-0.23-2.67-0.52-4.02-0.67c-13.25-1.54-26.61-2.38-39.71-4.74c-20.17-3.63-38.85-11.31-55.07-24.16 c-19.44-15.41-28.3-35.79-26.31-60.34c1.46-18.15,4.43-36.17,6.41-54.28c1.5-13.65,1.86-27.37-1.43-40.83 c-5.1-20.87-10.49-41.67-15.84-62.48c-1.46-5.7-3.23-11.31-4.86-16.97c0-2.97,0-5.95,0-8.92c0.8-3.04,1.59-6.09,2.4-9.13 c4.54-17.05,15.29-29.55,29.26-39.57c9.82-7.04,19.81-13.86,29.83-20.61c39.37-26.54,81.29-49.17,119.11-78.1 c7.95-6.08,17.31-9.82,27.14-12C253.18,3.17,257.9,2.55,262.58,1.75z"></path> <g> <path class="st1" d="M28.17,168.16L53.61,196c-15.92,12.01-25.9,35.57,0.74,63.59l-35.82,17.36 C-6.58,232.99-3.03,198.25,28.17,168.16z"></path> <path class="st2" d="M13.19,266.86l24.68,0.4l4.43-24.31c13.56,27.84,45.59,39.48,82.25,27.6l18.51,34.41 C90.16,329.07,36.6,316.7,13.19,266.86z"></path> <path class="st1" d="M220.18,230.07c20.01-39.55,72.81-54.13,110.78-32.48l38.49-12.74c-44.95-59.97-126.64-48.59-177.39,11.34 L220.18,230.07z"></path> <path class="st3" d="M308.97,271.93l16.33,38.15c59.59-24.82,77.62-108.86,23.82-145.89l0.39,24.72l-25.32,5.27 C361.48,211.87,344.86,262,308.97,271.93z"></path> <path class="st2" d="M202.6,282.73c56.45,40.6,105.85,45.89,145.23,13.63l-27.72-9.85l7.72-24.69 c-34.57,23.99-66.69,16.18-97.53-8.38L202.6,282.73z"></path> <path class="st2" d="M28.17,168.16l0,26.74l25.44,1.1c16.5-10.7,40.38-9.84,70.45-0.22l17.47-38.74 C95.85,137.48,58.39,142.15,28.17,168.16z"></path> <path class="st1" d="M124.07,195.79l-14.29-29.77l31.76-8.97c20.63,10.76,37.25,23.94,50.52,39.14 c14.61,32.17,34.66,59.63,59.73,71.35l-32.91,0.35l5.07,28.7c-12.89-7.72-25.34-16.39-36.28-25.84l-24.71-43.93 C154.34,213.73,142.32,203.08,124.07,195.79z"></path> <path class="st3" d="M192.06,196.19c-9.67,10.34-15.99,25.57-25.08,36.4c-14.49,17.27-32.55,39.58-65.15,42.48l26.62,13.77 l-15.84,25.98c53.17-10.57,90.37-45.25,107.57-84.75v-38.02L192.06,196.19z"></path> <g> <path class="st4" d="M201.09,85.61l129.41-0.57c1.24-0.01,2.24,0.99,2.24,2.23l-0.28,45.3c-0.01,1.25-1.04,2.24-2.28,2.2 c-11.41-0.34-128.37-1.84-130.6-1.75c-2.21,0.09-1.01-35.68-0.68-45.28C198.93,86.56,199.9,85.62,201.09,85.61z"></path> <path class="st5" d="M330.24,133.02l-0.02,0c-7.29-0.22-77.18-1.09-110.77-1.51c-9.82-0.12-16.79-0.21-18.65-0.24l-0.17,0 l-0.03-0.17c-0.79-4.48-0.78-19.45,0.04-43.29c0.01-0.25,0.21-0.45,0.46-0.45l129.41-0.57c0.13,0,0.25,0.05,0.33,0.14 c0.09,0.09,0.14,0.2,0.14,0.33l-0.28,45.3C330.7,132.81,330.49,133.02,330.24,133.02z M200.99,130.86 c2.09,0.03,8.94,0.11,18.48,0.23c33.59,0.42,103.48,1.29,110.78,1.51l0.01,0c0.01,0,0.03-0.02,0.03-0.05l0.28-45.3L330.51,87 l0,0.21l-129.41,0.57c-0.02,0-0.04,0.02-0.04,0.04C200.25,111.34,200.23,126.2,200.99,130.86z"></path> <linearGradient id="SVGID_1_" gradientUnits="userSpaceOnUse" x1="206.6245" y1="97.3036" x2="258.0191" y2="97.3036"> <stop offset="0" style="stop-color:#DAE3FE"></stop> <stop offset="1" style="stop-color:#E9EFFD"></stop> </linearGradient> <path class="st6" d="M206.62,97.3L206.62,97.3c0,1.22,0.41,2.22,0.91,2.22h49.57c0.5,0,0.91-0.99,0.91-2.22l0,0 c0-1.22-0.41-2.22-0.91-2.22h-49.57C207.03,95.09,206.62,96.08,206.62,97.3z"></path> <linearGradient id="SVGID_2_" gradientUnits="userSpaceOnUse" x1="206.6245" y1="104.8644" x2="258.0191" y2="104.8644"> <stop offset="0" style="stop-color:#DAE3FE"></stop> <stop offset="1" style="stop-color:#E9EFFD"></stop> </linearGradient> <path class="st7" d="M206.62,104.86L206.62,104.86c0,1.22,0.41,2.22,0.91,2.22h49.57c0.5,0,0.91-0.99,0.91-2.22l0,0 c0-1.22-0.41-2.22-0.91-2.22h-49.57C207.03,102.65,206.62,103.64,206.62,104.86z"></path> <linearGradient id="SVGID_3_" gradientUnits="userSpaceOnUse" x1="206.6245" y1="112.4253" x2="258.0191" y2="112.4253"> <stop offset="0" style="stop-color:#DAE3FE"></stop> <stop offset="1" style="stop-color:#E9EFFD"></stop> </linearGradient> <path class="st8" d="M206.62,112.43L206.62,112.43c0,1.22,0.41,2.22,0.91,2.22h49.57c0.5,0,0.91-0.99,0.91-2.22l0,0 c0-1.22-0.41-2.22-0.91-2.22h-49.57C207.03,110.21,206.62,111.2,206.62,112.43z"></path> <linearGradient id="SVGID_4_" gradientUnits="userSpaceOnUse" x1="206.6245" y1="119.986" x2="258.0191" y2="119.986"> <stop offset="0" style="stop-color:#DAE3FE"></stop> <stop offset="1" style="stop-color:#E9EFFD"></stop> </linearGradient> <path class="st9" d="M206.62,119.99L206.62,119.99c0,1.22,0.41,2.22,0.91,2.22h49.57c0.5,0,0.91-0.99,0.91-2.22l0,0 c0-1.22-0.41-2.22-0.91-2.22h-49.57C207.03,117.77,206.62,118.76,206.62,119.99z"></path> <g> <circle class="st5" cx="270.58" cy="98.87" r="8.62"></circle> <circle class="st5" cx="292.01" cy="98.87" r="8.62"></circle> <circle class="st5" cx="313.44" cy="99.15" r="8.62"></circle> <g> <path class="st4" d="M275.7,97.04c0.27,0.65,0.42,1.36,0.42,2.1c0,3.06-2.48,5.54-5.54,5.54c-3.06,0-5.54-2.48-5.54-5.54 s2.48-5.54,5.54-5.54c0.09,0,0.19,0,0.28,0.01v-1.4c-0.09,0-0.19-0.01-0.28-0.01c-3.83,0-6.94,3.11-6.94,6.94 c0,3.83,3.11,6.94,6.94,6.94c3.83,0,6.94-3.11,6.94-6.94c0-0.94-0.19-1.84-0.53-2.66L275.7,97.04z"></path> <path class="st4" d="M294.86,103.83c-0.85,0.54-1.87,0.85-2.95,0.85c-3.06,0-5.54-2.48-5.54-5.54s2.48-5.54,5.54-5.54 c0.09,0,0.19,0,0.28,0.01v-1.4c-0.09,0-0.19-0.01-0.28-0.01c-3.83,0-6.94,3.11-6.94,6.94c0,3.83,3.11,6.94,6.94,6.94 c1.34,0,2.59-0.38,3.65-1.03L294.86,103.83z"></path> <path class="st4" d="M318.06,102.26c-1,1.46-2.68,2.42-4.58,2.42c-3.06,0-5.54-2.48-5.54-5.54s2.48-5.54,5.54-5.54 c0.09,0,0.19,0,0.28,0.01v-1.4c-0.09,0-0.19-0.01-0.28-0.01c-3.83,0-6.94,3.11-6.94,6.94c0,3.83,3.11,6.94,6.94,6.94 c2.37,0,4.47-1.19,5.72-3L318.06,102.26z"></path> </g> <g class="st10"> <linearGradient id="SVGID_5_" gradientUnits="userSpaceOnUse" x1="261.9553" y1="112.7382" x2="279.2005" y2="112.7382"> <stop offset="0" style="stop-color:#DAE3FE"></stop> <stop offset="1" style="stop-color:#E9EFFD"></stop> </linearGradient> <path class="st11" d="M277.6,111.14h-14.05c-0.88,0-1.6,0.71-1.6,1.6s0.71,1.6,1.6,1.6h14.05c0.88,0,1.6-0.71,1.6-1.6 S278.49,111.14,277.6,111.14z"></path> <linearGradient id="SVGID_6_" gradientUnits="userSpaceOnUse" x1="283.385" y1="112.7382" x2="300.6302" y2="112.7382"> <stop offset="0" style="stop-color:#DAE3FE"></stop> <stop offset="1" style="stop-color:#E9EFFD"></stop> </linearGradient> <path class="st12" d="M299.03,111.14h-14.05c-0.88,0-1.6,0.71-1.6,1.6s0.71,1.6,1.6,1.6h14.05c0.88,0,1.6-0.71,1.6-1.6 S299.92,111.14,299.03,111.14z"></path> <linearGradient id="SVGID_7_" gradientUnits="userSpaceOnUse" x1="304.8147" y1="112.7382" x2="322.0598" y2="112.7382"> <stop offset="0" style="stop-color:#DAE3FE"></stop> <stop offset="1" style="stop-color:#E9EFFD"></stop> </linearGradient> <path class="st13" d="M306.41,114.34h14.05c0.88,0,1.6-0.71,1.6-1.6s-0.71-1.6-1.6-1.6h-14.05c-0.88,0-1.6,0.71-1.6,1.6 S305.53,114.34,306.41,114.34z"></path> <linearGradient id="SVGID_8_" gradientUnits="userSpaceOnUse" x1="261.9553" y1="122.4085" x2="279.2005" y2="122.4085"> <stop offset="0" style="stop-color:#DAE3FE"></stop> <stop offset="1" style="stop-color:#E9EFFD"></stop> </linearGradient> <path class="st14" d="M277.6,116.11h-14.05c-0.88,0-1.6,0.71-1.6,1.6v9.4c0,0.88,0.71,1.6,1.6,1.6h14.05 c0.88,0,1.6-0.71,1.6-1.6v-9.4C279.2,116.82,278.49,116.11,277.6,116.11z"></path> <linearGradient id="SVGID_9_" gradientUnits="userSpaceOnUse" x1="283.385" y1="122.4085" x2="300.6302" y2="122.4085"> <stop offset="0" style="stop-color:#DAE3FE"></stop> <stop offset="1" style="stop-color:#E9EFFD"></stop> </linearGradient> <path class="st15" d="M299.03,116.11h-14.05c-0.88,0-1.6,0.71-1.6,1.6v9.4c0,0.88,0.71,1.6,1.6,1.6h14.05 c0.88,0,1.6-0.71,1.6-1.6v-9.4C300.63,116.82,299.92,116.11,299.03,116.11z"></path> <linearGradient id="SVGID_10_" gradientUnits="userSpaceOnUse" x1="304.8147" y1="122.4085" x2="322.0598" y2="122.4085"> <stop offset="0" style="stop-color:#DAE3FE"></stop> <stop offset="1" style="stop-color:#E9EFFD"></stop> </linearGradient> <path class="st16" d="M320.46,116.11h-14.05c-0.88,0-1.6,0.71-1.6,1.6v9.4c0,0.88,0.71,1.6,1.6,1.6h14.05 c0.88,0,1.6-0.71,1.6-1.6v-9.4C322.06,116.82,321.34,116.11,320.46,116.11z"></path> </g> </g> </g> <linearGradient id="SVGID_11_" gradientUnits="userSpaceOnUse" x1="5158.9351" y1="399.0449" x2="5094.3276" y2="469.3198" gradientTransform="matrix(1 9.500000e-03 -9.500000e-03 1 -4989.4927 -48.2272)"> <stop offset="0" style="stop-color:#09005D"></stop> <stop offset="1" style="stop-color:#1A0F91"></stop> </linearGradient> <path class="st17" d="M145.18,404.87c0,0-0.71,3.78-1.07,7.53c-0.14,1.46,0.98,2.75,2.44,2.82c4.99,0.26,15.67,0.76,19.5,0.63 c0.58-0.02,0.96-0.61,0.75-1.14l0,0c-0.17-0.45-0.52-0.82-0.95-1.02l-17.57-8.28L145.18,404.87z"></path> <linearGradient id="SVGID_12_" gradientUnits="userSpaceOnUse" x1="5137.9644" y1="404.2636" x2="5143.7031" y2="404.2636" gradientTransform="matrix(1 9.500000e-03 -9.500000e-03 1 -4989.4927 -48.2272)"> <stop offset="0" style="stop-color:#FEBBBA"></stop> <stop offset="1" style="stop-color:#FF928E"></stop> </linearGradient> <path class="st18" d="M144.65,402.64l0.49,4.54c0,0,3.08,1.47,5.2-0.13l-1.23-5.06L144.65,402.64z"></path> <linearGradient id="SVGID_13_" gradientUnits="userSpaceOnUse" x1="5164.0259" y1="319.5662" x2="5109.0474" y2="394.0825" gradientTransform="matrix(1 9.500000e-03 -9.500000e-03 1 -4989.4927 -48.2272)"> <stop offset="0" style="stop-color:#09005D"></stop> <stop offset="1" style="stop-color:#1A0F91"></stop> </linearGradient> <path class="st19" d="M145.87,317.46c-0.24,1.18-1.81,59.03,4.13,85.02c0.1,0.42-0.12,0.86-0.53,1.02 c-0.95,0.38-2.82,0.92-5.05,0.98c-0.69,0.02-1.3-0.44-1.49-1.1c-1.71-6.03-9.89-36.26-10.73-65.06c-0.93-32.19,0.01-1.1,0.01-1.1 l0.91-19.88L145.87,317.46z"></path> <linearGradient id="SVGID_14_" gradientUnits="userSpaceOnUse" x1="5144.4414" y1="385.7178" x2="5079.8311" y2="455.9956" gradientTransform="matrix(1 9.500000e-03 -9.500000e-03 1 -4989.4927 -48.2272)"> <stop offset="0" style="stop-color:#09005D"></stop> <stop offset="1" style="stop-color:#1A0F91"></stop> </linearGradient> <path class="st20" d="M124.86,406.65c0,0-1.08,1.9-2.16,6.97c-0.2,0.92,0.44,1.8,1.37,1.9c1.65,0.18,4.18,0.41,6.22,0.42 c0.94,0,1.68-0.81,1.57-1.74c-0.21-1.86-0.88-4.91-3.03-7.3L124.86,406.65z"></path> <linearGradient id="SVGID_15_" gradientUnits="userSpaceOnUse" x1="5117.2813" y1="403.9685" x2="5122.2363" y2="403.9685" gradientTransform="matrix(1 9.500000e-03 -9.500000e-03 1 -4989.4927 -48.2272)"> <stop offset="0" style="stop-color:#FEBBBA"></stop> <stop offset="1" style="stop-color:#FF928E"></stop> </linearGradient> <path class="st21" d="M123.98,400.81l1.19,6.86c0,0,1.23,0.94,3.7,0.29l-0.53-7.38L123.98,400.81z"></path> <linearGradient id="SVGID_16_" gradientUnits="userSpaceOnUse" x1="5154.2271" y1="312.3368" x2="5099.249" y2="386.8523" gradientTransform="matrix(1 9.500000e-03 -9.500000e-03 1 -4989.4927 -48.2272)"> <stop offset="0" style="stop-color:#09005D"></stop> <stop offset="1" style="stop-color:#1A0F91"></stop> </linearGradient> <path class="st22" d="M121.37,319c-5.35,30.48,0.38,75.46,2.37,84.28c0.12,0.54,0.55,0.96,1.1,1.05c0.93,0.16,2.45,0.3,3.96-0.12 c0.52-0.15,0.89-0.61,0.91-1.15c0.35-7.11,0.26-50.75,5.14-67.96c0.25-0.87,0.79-1.63,1.53-2.15l9.21-6.42l0.8-10.51L121.37,319z"></path> <g> <g> <path class="st23" d="M154.16,261.46c-15.16-0.4-31.92,3.68-31.92,3.68c-4.77,26.32-1.33,56.77-1.33,56.77 c11.71,3.19,24.99-1.64,24.99-1.64c2.06-11,11.45-41.93,11.45-41.93c7.42-0.85,13.54-2.93,18.59-5.7 c-3.79-4.48-5.54-10.15-6.3-13.5C164.26,260.75,158.83,261.58,154.16,261.46z"></path> <path class="st23" d="M199.15,239.56c-1.47-1.81-3.36-0.98-3.36-0.98c-2.32,9.4-14.09,16.93-26.14,20.55 c0.75,3.35,2.51,9.02,6.3,13.5C195.99,261.61,199.15,239.56,199.15,239.56z"></path> </g> </g> <g> <linearGradient id="SVGID_17_" gradientUnits="userSpaceOnUse" x1="197.787" y1="249.5891" x2="201.1431" y2="227.3167"> <stop offset="0" style="stop-color:#FEBBBA"></stop> <stop offset="1" style="stop-color:#FF928E"></stop> </linearGradient> <path class="st24" d="M198.78,240.01c0.15,0.5-1.66,1.23-2.7-0.8c-0.03-0.97-0.58-5.14,0.01-5.92c3.13-4.18,9.17-9.41,9.17-9.41 c1,1.01,0.16,1.98,0.16,1.98l-2.94,3c0.6,1.1,1.33,2.04,1.67,3.37c0.25,1.01,0.08,2.08-0.43,2.99c-0.52,0.91-1.23,2.1-1.89,3.03 C200.56,240.02,198.78,240.01,198.78,240.01z"></path> <linearGradient id="SVGID_18_" gradientUnits="userSpaceOnUse" x1="5190.7656" y1="234.7206" x2="5198.9751" y2="222.0987" gradientTransform="matrix(1 9.500000e-03 -9.500000e-03 1 -4989.4927 -48.2272)"> <stop offset="0" style="stop-color:#FEBBBA"></stop> <stop offset="1" style="stop-color:#FF928E"></stop> </linearGradient> <path class="st25" d="M201.19,230.82l-2.67,2.22l-0.85,2.23l2.34,2.64c0,0,0.84-4.43,1.44-5.38 C202.04,231.57,201.74,231.1,201.19,230.82z"></path> </g> <path class="st23" d="M127.91,279.87l-5.67-14.73c0,0-14.25,9.49-16.7,21.66c2.67,0.22,7.54,0.96,12.28,3.42 C118.92,284.47,127.91,279.87,127.91,279.87z"></path> <linearGradient id="SVGID_19_" gradientUnits="userSpaceOnUse" x1="5097.4277" y1="296.0695" x2="5134.5317" y2="296.0695" gradientTransform="matrix(1 9.500000e-03 -9.500000e-03 1 -4989.4927 -48.2272)"> <stop offset="0" style="stop-color:#FEBBBA"></stop> <stop offset="1" style="stop-color:#FF928E"></stop> </linearGradient> <path class="st26" d="M140.15,293.8c0,0-15.98,8.83-21.27,1.11c-1.1-1.6-1.35-3.19-1.06-4.7c-4.74-2.45-9.6-3.19-12.28-3.42 c-0.74,3.67-0.4,7.59,1.72,11.56c9.23,17.28,34.96-0.62,34.96-0.62L140.15,293.8z"></path> <linearGradient id="SVGID_20_" gradientUnits="userSpaceOnUse" x1="5125.9199" y1="256.4041" x2="5140.5898" y2="256.4041" gradientTransform="matrix(1 9.500000e-03 -9.500000e-03 1 -4989.4927 -48.2272)"> <stop offset="0" style="stop-color:#FEBBBA"></stop> <stop offset="1" style="stop-color:#FF928E"></stop> </linearGradient> <path class="st27" d="M138.92,249.01l-4.96,13.9c-0.08,0.23,0.01,0.49,0.22,0.61c1.31,0.74,6.02,2.89,11.77-0.68 c0.6-0.37,1.01-0.98,1.11-1.68l1.68-12.06L138.92,249.01z"></path> <g> <linearGradient id="SVGID_21_" gradientUnits="userSpaceOnUse" x1="-2182.9934" y1="1449.324" x2="-2188.4756" y2="1431.243" gradientTransform="matrix(0.7523 -0.6588 0.6588 0.7523 839.6904 -2280.7693)"> <stop offset="0" style="stop-color:#FEBBBA"></stop> <stop offset="1" style="stop-color:#FF928E"></stop> </linearGradient> <path class="st28" d="M149.54,236.19c0,0,5.2,10.02,4.48,14.04c-0.72,4.02-7.28,3.67-12.98,0.34l-3.9-10.8L149.54,236.19z"></path> <linearGradient id="SVGID_22_" gradientUnits="userSpaceOnUse" x1="-2187.939" y1="1417.8204" x2="-2183.3533" y2="1443.9755" gradientTransform="matrix(0.7523 -0.6588 0.6588 0.7523 839.6904 -2280.7693)"> <stop offset="0" style="stop-color:#09005D"></stop> <stop offset="1" style="stop-color:#1A0F91"></stop> </linearGradient> <path class="st29" d="M141.34,245.29c0.23-0.1,0.32-0.39,0.19-0.6c-0.42-0.65-1.2-1.98-1.44-3.14c0,0-0.95-0.62,2.44-1.39 c3.38-0.78,8.43-1.98,9.52-4.85c1.06-2.79-1.59-9.86-5.96-4.29c-0.17,0.21-0.49,0.21-0.65,0c-0.7-0.93-2.55-2.86-5.14-1.73 c-2.43,1.06-2.72,2.84-2.7,3.73c0.01,0.26-0.23,0.47-0.49,0.41c-1.22-0.25-4.16-0.47-5.56,2.53c-1.15,2.47-0.43,3.88,0.23,4.58 c0.21,0.22,0.12,0.59-0.18,0.68c-0.81,0.24-1.85,0.91-1.77,2.8c0.12,2.61,3.03,2.41,3.87,2.29c0.14-0.02,0.27,0.03,0.36,0.13 c0.7,0.79,3.88,4.17,7.34,4.6c0.3,0.04,0.54-0.26,0.44-0.54l-1.46-4.38c-0.07-0.2,0.03-0.42,0.23-0.51L141.34,245.29z"></path> <linearGradient id="SVGID_23_" gradientUnits="userSpaceOnUse" x1="-2188.5974" y1="1449.2396" x2="-2193.5295" y2="1432.9718" gradientTransform="matrix(0.7523 -0.6588 0.6588 0.7523 839.6904 -2280.7693)"> <stop offset="0" style="stop-color:#FEBBBA"></stop> <stop offset="1" style="stop-color:#FF928E"></stop> </linearGradient> <path class="st30" d="M141.94,245.92c0,0-3.75-2.62-4.04-0.45c-0.3,2.18,3.37,3.19,5.19,2.39L141.94,245.92z"></path> </g> <g> <g> <linearGradient id="SVGID_24_" gradientUnits="userSpaceOnUse" x1="4857.8374" y1="272.692" x2="4878.311" y2="357.9996" gradientTransform="matrix(1 0 0 1 -4705.6621 0)"> <stop offset="0" style="stop-color:#09005D"></stop> <stop offset="1" style="stop-color:#1A0F91"></stop> </linearGradient> <path class="st31" d="M136.88,307.76l8.71-30.41c0.1-0.35,0.39-0.6,0.75-0.64c1.58-0.18,6.15-0.7,11.43-1.15 c6.36-0.54,13.74-0.97,18.15-0.6c0.63,0.05,1.01,0.72,0.73,1.28c-2.51,5.08-12.83,25.72-18,32.49c-0.17,0.22-0.44,0.36-0.72,0.35 l-20.2-0.19C137.14,308.89,136.72,308.33,136.88,307.76z"></path> <linearGradient id="SVGID_25_" gradientUnits="userSpaceOnUse" x1="4843.8081" y1="295.2604" x2="4855.4082" y2="295.2604" gradientTransform="matrix(1 0 0 1 -4705.6621 0)"> <stop offset="0" style="stop-color:#FEBBBA"></stop> <stop offset="1" style="stop-color:#FF928E"></stop> </linearGradient> <path class="st32" d="M138.99,300.42c0,0-1.21-4.99-0.72-6.76c0.49-1.77,1.44-4.04,4.6-3.54c3.16,0.51,6.89,1.84,6.89,1.84 s-0.19,2.3-2.59,1.56l1.49,1.15c0,0-0.21,1.85-2.24,0.86l1.39,1.53c0,0-0.87,1.52-2.36,0.54 C143.93,296.63,143.22,301.02,138.99,300.42z"></path> </g> <path class="st3" d="M157.19,284.65c0,1.41,1.14,2.56,2.56,2.56c1.41,0,2.56-1.14,2.56-2.56c0-1.41-1.14-2.56-2.56-2.56 C158.33,282.09,157.19,283.23,157.19,284.65z"></path> <linearGradient id="SVGID_26_" gradientUnits="userSpaceOnUse" x1="145.9228" y1="281.5577" x2="170.8139" y2="281.5577"> <stop offset="0" style="stop-color:#DAE3FE"></stop> <stop offset="1" style="stop-color:#E9EFFD"></stop> </linearGradient> <path class="st33" d="M146.57,286.33l-0.65-0.19l1.77-6.01c0.29-0.98,1.08-1.72,2.06-1.92c5.62-1.17,20.42-1.41,21.05-1.42 l0.01,0.68c-0.15,0-15.36,0.25-20.92,1.41c-0.74,0.15-1.33,0.71-1.55,1.45L146.57,286.33z"></path> </g> <g> <path class="st4" d="M43.53,371.43c-0.93,1.37-4.62,32.47-5.19,43.95c-0.04,0.78,0.58,1.42,1.36,1.42l0,0 c0.67,0,1.24-0.49,1.34-1.15l6.75-43.24L43.53,371.43z"></path> <path class="st4" d="M73.19,371.43c0.93,1.37,4.62,32.47,5.19,43.95c0.04,0.78-0.58,1.42-1.36,1.42l0,0 c-0.67,0-1.24-0.49-1.34-1.15l-6.75-43.24L73.19,371.43z"></path> <path class="st4" d="M37.95,369l0,0.34c-0.02,2.44,2.08,4.44,4.71,4.49l31.19,0.53c2.59,0.04,4.76-1.83,4.88-4.23l0.02-0.31 c0.13-2.5-2-4.61-4.7-4.66l-31.2-0.56C40.17,364.54,37.97,366.52,37.95,369z"></path> </g> <g> <linearGradient id="SVGID_27_" gradientUnits="userSpaceOnUse" x1="94.5511" y1="414.1558" x2="117.1653" y2="414.1558"> <stop offset="0" style="stop-color:#09005D"></stop> <stop offset="1" style="stop-color:#1A0F91"></stop> </linearGradient> <path class="st34" d="M103.64,414.25c-5.54,0-8-0.48-9.09-0.91c0.21,0.91,1.02,1.63,2.05,1.63h19.61c0.66,0,1.08-0.63,0.92-1.2 C114.9,413.95,110.15,414.25,103.64,414.25z"></path> <linearGradient id="SVGID_28_" gradientUnits="userSpaceOnUse" x1="111.9744" y1="370.6718" x2="105.7956" y2="413.3614"> <stop offset="0" style="stop-color:#09005D"></stop> <stop offset="1" style="stop-color:#1A0F91"></stop> </linearGradient> <path class="st35" d="M117.13,413.77c-0.03-0.12-0.08-0.23-0.16-0.33c-1.49-1.91-4.5-4.9-8.58-4.85 c-5.98,0.08-8.07,0.73-12.71,0.04l-1.1,3.63c-0.11,0.37-0.11,0.74-0.03,1.08c1.1,0.43,3.55,0.91,9.09,0.91 C110.15,414.25,114.9,413.95,117.13,413.77z"></path> </g> <linearGradient id="SVGID_29_" gradientUnits="userSpaceOnUse" x1="95.6807" y1="407.341" x2="101.7994" y2="407.341"> <stop offset="0" style="stop-color:#FEBBBA"></stop> <stop offset="1" style="stop-color:#FF928E"></stop> </linearGradient> <path class="st36" d="M97.03,404.71l-1.35,4.58c0,0,2.98,1.36,5.6,0.27l0.51-3.97L97.03,404.71z"></path> <g> <linearGradient id="SVGID_30_" gradientUnits="userSpaceOnUse" x1="130.0203" y1="409.6743" x2="148.2786" y2="409.6743"> <stop offset="0" style="stop-color:#09005D"></stop> <stop offset="1" style="stop-color:#1A0F91"></stop> </linearGradient> <path class="st37" d="M137.68,411.37c-4.32,3.47-6.53,4.64-7.66,4.99c0.73,0.57,1.81,0.62,2.61-0.02l15.29-12.28 c0.51-0.41,0.45-1.17-0.03-1.51C146.26,404.08,142.75,407.29,137.68,411.37z"></path> <linearGradient id="SVGID_31_" gradientUnits="userSpaceOnUse" x1="142.5792" y1="375.1011" x2="136.4004" y2="417.791"> <stop offset="0" style="stop-color:#09005D"></stop> <stop offset="1" style="stop-color:#1A0F91"></stop> </linearGradient> <path class="st38" d="M147.89,402.54c-0.1-0.07-0.2-0.13-0.33-0.16c-2.35-0.54-6.56-0.99-9.71,1.61 c-4.61,3.81-5.83,5.62-9.89,7.99l1.41,3.51c0.14,0.36,0.37,0.65,0.65,0.86c1.13-0.35,3.33-1.52,7.66-4.99 C142.75,407.29,146.26,404.08,147.89,402.54z"></path> </g> <linearGradient id="SVGID_32_" gradientUnits="userSpaceOnUse" x1="165.4076" y1="320.419" x2="96.7629" y2="371.216"> <stop offset="0" style="stop-color:#09005D"></stop> <stop offset="1" style="stop-color:#1A0F91"></stop> </linearGradient> <path class="st39" d="M68.24,352.56c0,0,33.19,2.71,40,5.92c6.81,3.21-5.56,48.13-5.56,48.13s-1.85,0.89-5.98-0.39 c0,0,4.23-33.15,1.08-40.34l-35.94-5.88L68.24,352.56z"></path> <linearGradient id="SVGID_33_" gradientUnits="userSpaceOnUse" x1="124.6618" y1="407.856" x2="131.9666" y2="407.856"> <stop offset="0" style="stop-color:#FEBBBA"></stop> <stop offset="1" style="stop-color:#FF928E"></stop> </linearGradient> <path class="st40" d="M124.66,405.68c0.31,0.28,3.3,6.31,3.3,6.31s3.33-0.72,4.01-2.83l-2.99-5.44L124.66,405.68z"></path> <linearGradient id="SVGID_34_" gradientUnits="userSpaceOnUse" x1="97.3519" y1="372.8903" x2="184.3062" y2="312.9377"> <stop offset="0" style="stop-color:#09005D"></stop> <stop offset="1" style="stop-color:#1A0F91"></stop> </linearGradient> <path class="st41" d="M48.25,352.28c0,0-1.08,2.6-1.04,6.06c0.06,4.78,3.91,8.66,8.68,8.9l39.24,1.79 c0.83,0.04,1.53,0.61,1.74,1.41c0.92,3.57,5.43,14.52,27.46,36.37c0.59,0.58,1.5,0.68,2.2,0.24l3.14-1.98 c0.33-0.21,0.43-0.64,0.24-0.98l-22.85-39.01c-1.2-1.98-3.13-3.41-5.37-3.98l-33.44-8.55L48.25,352.28z"></path> <linearGradient id="SVGID_35_" gradientUnits="userSpaceOnUse" x1="84.0858" y1="304.9188" x2="87.6872" y2="295.837"> <stop offset="0" style="stop-color:#FEBBBA"></stop> <stop offset="1" style="stop-color:#FF928E"></stop> </linearGradient> <path class="st42" d="M86.91,291.34c0,0-4.2,7.43-8.49,11.03l8.86,4.94c0,0,2-7.87,6.56-10.17L86.91,291.34z"></path> <path class="st23" d="M47.53,352.56c0,0,10.59,2.58,20.7,0c0,0,14.15-19.02,19.62-24.2c0,0,8.73,13.78,28.16,15.73l1.08-2.42 c0,0-15.47-7.13-20.23-18.09c-4.76-10.96-6.68-15.63-11.01-18.49c-2.7-1.78-4.31-3-5.15-3.66c-0.46-0.36-1.09-0.4-1.59-0.1 C74.53,304.13,52.89,318.95,47.53,352.56z"></path> <path class="st43" d="M87.28,328.1c-0.2,0-0.41-0.09-0.54-0.27c-3.37-4.4-5.25-9.25-5.33-9.45c-0.13-0.35,0.04-0.74,0.39-0.88 c0.35-0.13,0.74,0.04,0.88,0.39c0.02,0.05,1.89,4.87,5.14,9.11c0.23,0.3,0.17,0.72-0.13,0.95C87.57,328.05,87.43,328.1,87.28,328.1 z"></path> <linearGradient id="SVGID_36_" gradientUnits="userSpaceOnUse" x1="114.8539" y1="340.2383" x2="131.7272" y2="340.2383"> <stop offset="0" style="stop-color:#FEBBBA"></stop> <stop offset="1" style="stop-color:#FF928E"></stop> </linearGradient> <path class="st44" d="M114.85,340.41l2.19-0.58l6.64-1.54c0.8-0.19,1.64-0.04,2.33,0.39l5.71,3.59l-15.77-0.03L114.85,340.41z"></path> <g> <linearGradient id="SVGID_37_" gradientUnits="userSpaceOnUse" x1="2001.7109" y1="840.1628" x2="1983.6287" y2="853.9985" gradientTransform="matrix(0.9914 -0.1306 0.1306 0.9914 -1999.1401 -285.0649)"> <stop offset="0" style="stop-color:#FEBBBA"></stop> <stop offset="1" style="stop-color:#FF928E"></stop> </linearGradient> <path class="st45" d="M93.59,280.19c0,0,4.08,6.79,4.79,10.54c0.71,3.75,1.85,6.1-2.42,7.44c-4.27,1.34-8.24-0.36-10.73-3.86 c0,0-3.89-5.39-3.5-7.86C82.11,283.99,93.59,280.19,93.59,280.19z"></path> <linearGradient id="SVGID_38_" gradientUnits="userSpaceOnUse" x1="1989.0073" y1="829.241" x2="2005.3813" y2="850.3224" gradientTransform="matrix(0.9914 -0.1306 0.1306 0.9914 -1999.1401 -285.0649)"> <stop offset="0" style="stop-color:#09005D"></stop> <stop offset="1" style="stop-color:#1A0F91"></stop> </linearGradient> <path class="st46" d="M86.36,291.41l0.55-0.07c0,0-2.89-4.37-1-5.45c1.89-1.08,9.61-3.74,10.94-6.78 c1.29-2.93-0.64-6.24-2.97-6.93c-0.15-0.04-0.3,0.04-0.36,0.19l-0.14,0.37c-0.09,0.25-0.45,0.26-0.56,0.02l0,0 c-0.1-0.23-0.44-0.24-0.54-0.01c-0.41,0.91-1.65,2.46-5.36,3.67c-5.26,1.71-8.54,4.36-8.14,8.1c0.03,0.24-0.21,0.4-0.43,0.3 c-0.43-0.19-1.08-0.22-1.84,0.61c-1.32,1.44-0.29,4.59,3.31,6.82c0.17,0.11,0.2,0.35,0.05,0.48c-0.54,0.46-1.3,1.49,1.14,2.4 c2.49,0.94,3.85,0.62,4.35,0.42c0.14-0.05,0.21-0.19,0.18-0.34l-0.64-3.28c-0.03-0.17,0.08-0.33,0.25-0.35L86.36,291.41z"></path> <linearGradient id="SVGID_39_" gradientUnits="userSpaceOnUse" x1="1999.4679" y1="837.2317" x2="1981.3859" y2="851.0673" gradientTransform="matrix(0.9914 -0.1306 0.1306 0.9914 -1999.1401 -285.0649)"> <stop offset="0" style="stop-color:#FEBBBA"></stop> <stop offset="1" style="stop-color:#FF928E"></stop> </linearGradient> <path class="st47" d="M86.59,292.08c0,0-1.8-4.44-3.7-2.88c-1.89,1.56,1.75,5.01,3.43,4.97L86.59,292.08z"></path> </g> <g> <g> <linearGradient id="SVGID_40_" gradientUnits="userSpaceOnUse" x1="-3566.4861" y1="-2680.9124" x2="-3611.6128" y2="-2637.2837" gradientTransform="matrix(-1.388 -0.0686 -0.0685 1.3855 -8634.9795 -50.0421)"> <stop offset="0" style="stop-color:#09005D"></stop> <stop offset="1" style="stop-color:#1A0F91"></stop> </linearGradient> <path class="st48" d="M108.76,345.36c0.03,0,0.05,0,0.08,0l33.69-0.03c0.83,0,1.51-0.68,1.51-1.51c0-0.83-0.68-1.52-1.51-1.5 l-33.69,0.03c-0.83,0-1.51,0.68-1.51,1.51C107.33,344.67,107.96,345.33,108.76,345.36z"></path> </g> <g> <linearGradient id="SVGID_41_" gradientUnits="userSpaceOnUse" x1="-5950.4731" y1="-2307.1584" x2="-5995.5981" y2="-2263.5315" gradientTransform="matrix(0.6475 -1.2297 -1.2274 -0.6463 6202.1816 -10139.2168)"> <stop offset="0" style="stop-color:#09005D"></stop> <stop offset="1" style="stop-color:#1A0F91"></stop> </linearGradient> <path class="st49" d="M155.57,312.37c-0.01,0.02-0.02,0.05-0.03,0.07L141.37,343c-0.35,0.76-0.02,1.65,0.73,2 c0.75,0.35,1.66,0.02,2-0.73l14.18-30.56c0.35-0.76,0.02-1.65-0.73-2C156.81,311.37,155.95,311.67,155.57,312.37z"></path> </g> </g> <g> <rect x="240.24" y="376.08" class="st4" width="3.56" height="38.45"></rect> <path class="st4" d="M257.59,415.27h-31.14l0,0c0-1.28,1.04-2.31,2.31-2.31h26.51C256.55,412.96,257.59,413.99,257.59,415.27 L257.59,415.27z"></path> <path class="st4" d="M262.21,374.74c0,2.1-1.72,3.82-3.82,3.82h-31.51c-2.1,0-3.82-1.72-3.82-3.82v-3.46 c0-2.1,1.72-3.82,3.82-3.82h31.51c2.1,0,3.82,1.72,3.82,3.82V374.74z"></path> </g> <linearGradient id="SVGID_42_" gradientUnits="userSpaceOnUse" x1="203.2114" y1="381.9859" x2="228.4938" y2="381.9859"> <stop offset="0" style="stop-color:#FEBBBA"></stop> <stop offset="1" style="stop-color:#FF928E"></stop> </linearGradient> <path class="st50" d="M215.77,350.44c0,0-5.28,0.82-11.22,4.79c-0.93,0.62-1.45,1.71-1.31,2.83c0.71,5.63,3.64,23.87,13.28,41.68 c0.51,0.94,0.65,2.03,0.43,3.08l-1.68,7.8l-3.11,2.91h8l5.33-14.42l-2.28-0.72c-1.77-0.56-2.98-2.18-3.01-4.04l-0.27-15.47 c0.23-6.89-4.23-11.65-4.23-11.65l12.78-0.62L215.77,350.44z"></path> <linearGradient id="SVGID_43_" gradientUnits="userSpaceOnUse" x1="218.6807" y1="398.4599" x2="214.9621" y2="455.4788"> <stop offset="0" style="stop-color:#09005D"></stop> <stop offset="1" style="stop-color:#1A0F91"></stop> </linearGradient> <path class="st51" d="M209.04,414.94c-0.73,0.95,7.85,2.21,12.18,0.13c0,0,6-10.45,6-15.83c0,0-0.48-1.1-4-0.85 c0,0-2.02,12.37-4.15,13.76c-2.13,1.39-5.96,0.14-5.96,0.14S210.11,413.53,209.04,414.94z"></path> <linearGradient id="SVGID_44_" gradientUnits="userSpaceOnUse" x1="173.5258" y1="383.7129" x2="226.8766" y2="383.7129"> <stop offset="0" style="stop-color:#FEBBBA"></stop> <stop offset="1" style="stop-color:#FF928E"></stop> </linearGradient> <path class="st52" d="M226.88,367.46c-0.07-0.12-13.76-1.65-13.76-1.65s0.45,4.16-0.95,9.9c-1.4,5.73-21.51,30.56-21.51,30.56 l2.11,6.68c-6.52,2.27-12.93,2.63-19.24,1.16l13.06-7.84c0,0,12.23-41.67,19.72-49.1l13.73-4.75L226.88,367.46z"></path> <linearGradient id="SVGID_45_" gradientUnits="userSpaceOnUse" x1="206.4451" y1="355.8817" x2="266.2133" y2="355.8817"> <stop offset="0" style="stop-color:#09005D"></stop> <stop offset="1" style="stop-color:#1A0F91"></stop> </linearGradient> <path class="st53" d="M257.59,343.22c0,0,7.89,11.73,8.54,17.09c0.65,5.35-2.16,7.53-10.44,7.89c-8.28,0.36-30.38,0.35-30.38,0.35 l-18.86-16.12c0,0,13.75-4.9,17.32-6.29C227.34,344.75,257.59,343.22,257.59,343.22z"></path> <linearGradient id="SVGID_46_" gradientUnits="userSpaceOnUse" x1="182.7964" y1="396.1196" x2="179.0777" y2="453.1385"> <stop offset="0" style="stop-color:#09005D"></stop> <stop offset="1" style="stop-color:#1A0F91"></stop> </linearGradient> <path class="st54" d="M191.97,410.71c0,0,2.27,2.2,0.74,4.64c0,0-17.98,3.19-22.86,1.74c0,0,1.01-2.31,6.51-4.95l-0.41,0.31 c-0.51,0.39-0.21,1.21,0.43,1.18C180,413.43,187.5,412.77,191.97,410.71z"></path> <linearGradient id="SVGID_47_" gradientUnits="userSpaceOnUse" x1="248.5455" y1="256.055" x2="239.7448" y2="302.2902"> <stop offset="0" style="stop-color:#09005D"></stop> <stop offset="1" style="stop-color:#1A0F91"></stop> </linearGradient> <path class="st55" d="M223.41,268.8c16.13-2.74,23.72,10.41,23.17,13.18c-0.07,0.37,0.27,0.68,0.63,0.58 c1.85-0.5,5.94-1.13,8.48,2.05c2.24,2.81,0.57,5.45-0.8,6.91c-0.33,0.35-0.05,0.92,0.43,0.86c3.4-0.43,10.8-0.53,12.01,6.4 c1.13,6.46-3.37,8.28-6.04,8.8c-0.45,0.09-0.56,0.68-0.17,0.93c1.33,0.84,2.87,2.59,2.25,6.03c-0.98,5.4-11.56,4.95-12.79,4.88 c-0.08,0-0.15-0.03-0.22-0.07l-16.94-9.66c-0.13-0.08-0.22-0.21-0.25-0.36l-3.42-19.76c-0.03-0.16,0.02-0.32,0.13-0.44 l-11.05-15.59C214.82,272.94,223.22,268.83,223.41,268.8z"></path> <path class="st23" d="M236.25,341.66c0,0-9.19-8.75-13.71-14.54c-2.44-3.13-3.21-7.26-2.08-11.06c2.06-6.96,5.73-14.16,6.07-15.28 c0.51-1.72,10.81-1.65,10.81-1.65s20.27,13.16,28.24,35.44l-8.94,2.78c0,0-5.29-8.88-10.52-14.53c0,0,9.05,11.95,9.37,16.85 L236.25,341.66z"></path> <linearGradient id="SVGID_48_" gradientUnits="userSpaceOnUse" x1="233.9814" y1="313.9007" x2="230.3801" y2="290.7923"> <stop offset="0" style="stop-color:#FEBBBA"></stop> <stop offset="1" style="stop-color:#FF928E"></stop> </linearGradient> <path class="st56" d="M225.28,291.17c0.11,0.36,2.8,9.27,3.01,9.46c0.21,0.18,5.9,0.49,8.57-1.34l-6.64-12.99L225.28,291.17z"></path> <g> <linearGradient id="SVGID_49_" gradientUnits="userSpaceOnUse" x1="-1956.3125" y1="4022.9751" x2="-1932.7401" y2="4038.9863" gradientTransform="matrix(0.6042 -0.7968 0.7968 0.6042 -1809.1012 -3700.0664)"> <stop offset="0" style="stop-color:#FEBBBA"></stop> <stop offset="1" style="stop-color:#FF928E"></stop> </linearGradient> <path class="st57" d="M214.5,279.72c0,0-1.3,5.11,2.3,11.97c3.6,6.87,7.66,6.86,9.89,4.66c2.22-2.2,4.97-5.93,4.32-12.57 C230.35,277.14,216.38,273.22,214.5,279.72z"></path> <linearGradient id="SVGID_50_" gradientUnits="userSpaceOnUse" x1="-1940.588" y1="4003.8237" x2="-1949.3889" y2="4050.0593" gradientTransform="matrix(0.6042 -0.7968 0.7968 0.6042 -1809.1012 -3700.0664)"> <stop offset="0" style="stop-color:#09005D"></stop> <stop offset="1" style="stop-color:#1A0F91"></stop> </linearGradient> <path class="st58" d="M226.03,284.14c0,0-5.96-9.12-11.56-1.94l-0.1,2.61c0,0-6.55-0.78-5.4-6.78c1.15-6.01,6.81-9.76,14.1-7.16 c7.29,2.6,11.47,5.27,11.94,10.5c0.47,5.22-3.69,4.08-3.69,4.08s-1.36-3.68-3.28-4.06c-1.93-0.38-1.43,2.49-1.43,2.49 L226.03,284.14z"></path> <linearGradient id="SVGID_51_" gradientUnits="userSpaceOnUse" x1="-1954.8994" y1="4020.8948" x2="-1931.3273" y2="4036.906" gradientTransform="matrix(0.6042 -0.7968 0.7968 0.6042 -1809.1012 -3700.0664)"> <stop offset="0" style="stop-color:#FEBBBA"></stop> <stop offset="1" style="stop-color:#FF928E"></stop> </linearGradient> <path class="st59" d="M227.56,284.02c0,0-3.09-4.67,0.08-5.37c3.17-0.7,2.68,4.55,2.34,6.49L227.56,284.02z"></path> </g> <linearGradient id="SVGID_52_" gradientUnits="userSpaceOnUse" x1="248.7697" y1="340.1387" x2="298.8864" y2="340.1387"> <stop offset="0" style="stop-color:#FEBBBA"></stop> <stop offset="1" style="stop-color:#FF928E"></stop> </linearGradient> <path class="st60" d="M217.53,342.31l6.75-6.51l9.34,3.94c0,0,9.29,1.44,14.61,0c5.32-1.44,5.32-1.44,5.32-1.44l12.02-3.74 l1.89,5.34c0.48,1.35,0,2.86-1.17,3.69c-1.04,0.74-2.26,1.55-3.04,1.89c-1.58,0.69-39.03-0.48-39.03-0.48L217.53,342.31z"></path> <g> <linearGradient id="SVGID_53_" gradientUnits="userSpaceOnUse" x1="188.7552" y1="481.1624" x2="157.2065" y2="489.8092" gradientTransform="matrix(0.9988 -0.0494 0.0494 0.9988 37.4234 -136.283)"> <stop offset="0" style="stop-color:#09005D"></stop> <stop offset="1" style="stop-color:#1A0F91"></stop> </linearGradient> <path class="st61" d="M243.08,345.38c-0.03,0-0.06,0-0.09,0l-39.16-0.04c-0.97,0-1.75-0.79-1.75-1.75c0-0.97,0.79-1.77,1.75-1.75 l39.16,0.04c0.97,0,1.75,0.79,1.75,1.75C244.74,344.57,244,345.34,243.08,345.38z"></path> <linearGradient id="SVGID_54_" gradientUnits="userSpaceOnUse" x1="207.0218" y1="314.5967" x2="184.6365" y2="338.2566"> <stop offset="0" style="stop-color:#09005D"></stop> <stop offset="1" style="stop-color:#1A0F91"></stop> </linearGradient> <path class="st62" d="M168.63,309.83h32.61c2.41,0,4.6,1.39,5.62,3.56l15.08,31.97h-40.53c-1.55,0-2.94-0.95-3.51-2.39 l-11.69-29.58C165.53,311.68,166.79,309.83,168.63,309.83z"></path> <path class="st3" d="M191.61,326.22c0.71,2.2,0.18,4.33-1.17,4.76c-1.35,0.43-3.02-0.99-3.73-3.19c-0.71-2.2-0.18-4.33,1.17-4.76 C189.23,322.6,190.9,324.02,191.61,326.22z"></path> </g> <g> <linearGradient id="SVGID_55_" gradientUnits="userSpaceOnUse" x1="-10206.3691" y1="451.749" x2="-10206.0391" y2="486.7868" gradientTransform="matrix(-1 0 0 1 -9929.2793 0)"> <stop offset="0" style="stop-color:#09005D"></stop> <stop offset="1" style="stop-color:#1A0F91"></stop> </linearGradient> <path class="st63" d="M287.72,410.43c0,0,0.41,2.28,0.57,4.99c0.07,1.15-0.79,2.16-1.94,2.27c-4.01,0.39-13.13,1.11-18.96,0.27 c-0.82-0.12-1.14-1.12-0.54-1.68c2.4-2.24,8.2-6.59,17.75-7.54L287.72,410.43z"></path> <linearGradient id="SVGID_56_" gradientUnits="userSpaceOnUse" x1="-10214.8154" y1="412.6205" x2="-10216.6328" y2="398.4071" gradientTransform="matrix(-1 0 0 1 -9929.2793 0)"> <stop offset="0" style="stop-color:#FEBBBA"></stop> <stop offset="1" style="stop-color:#FF928E"></stop> </linearGradient> <path class="st64" d="M289.71,405.28l-2.03,4.97c-0.28,0.68-0.97,1.1-1.7,1.03c-0.5-0.05-1.08-0.15-1.66-0.32 c-1.14-0.35-1.79-1.56-1.45-2.7l1.53-5.12L289.71,405.28z"></path> <linearGradient id="SVGID_57_" gradientUnits="userSpaceOnUse" x1="-10253.708" y1="452.1953" x2="-10253.377" y2="487.233" gradientTransform="matrix(-1 0 0 1 -9929.2793 0)"> <stop offset="0" style="stop-color:#09005D"></stop> <stop offset="1" style="stop-color:#1A0F91"></stop> </linearGradient> <path class="st65" d="M324.36,414.38c0,0-4.06,3.4-5.64,7.75c-0.43,1.2,0.48,2.46,1.76,2.46h8.35c1.22,0,2.16-1.1,1.95-2.3 C330.24,419.28,328.71,414.39,324.36,414.38z"></path> <linearGradient id="SVGID_58_" gradientUnits="userSpaceOnUse" x1="-10254.5498" y1="417.4919" x2="-10256.3213" y2="403.6413" gradientTransform="matrix(-1 0 0 1 -9929.2793 0)"> <stop offset="0" style="stop-color:#FEBBBA"></stop> <stop offset="1" style="stop-color:#FF928E"></stop> </linearGradient> <path class="st66" d="M329.38,409.96c0,0-0.82,3.63-1.45,6.03c-0.11,0.44-0.58,0.67-1,0.52c-1.26-0.45-2.29-0.65-3.04-0.55 c-0.35,0.05-0.65-0.24-0.65-0.59l-0.08-6.03L329.38,409.96z"></path> <linearGradient id="SVGID_59_" gradientUnits="userSpaceOnUse" x1="-10266.9307" y1="364.862" x2="-10212.4014" y2="364.862" gradientTransform="matrix(-1 0 0 1 -9929.2793 0)"> <stop offset="0" style="stop-color:#09005D"></stop> <stop offset="1" style="stop-color:#1A0F91"></stop> </linearGradient> <path class="st67" d="M307.8,328.33l-24.68,75.3c0,0,4.73,3.1,6.99,2.97l29.32-60.51c0,0,5.13,37.29,2.64,64.05l8.4,0.64 c0,0,13.65-68.41,3.31-91.84L307.8,328.33z"></path> <path class="st3" d="M319.27,345.43c0.01,0,0.02,0,0.03,0c0.13-0.02,0.22-0.14,0.21-0.27l-0.96-7.6 c-0.02-0.13-0.13-0.22-0.27-0.21c-0.13,0.02-0.22,0.14-0.21,0.27l0.96,7.6C319.05,345.35,319.15,345.43,319.27,345.43z"></path> </g> <path class="st68" d="M303.18,262.07c0,0,20,1.78,17.17,16.02c0,0,11.05,20.8,16.22,45.31c0.17,0.8-0.37,1.58-1.17,1.71l-33.3,5.7 c-0.92,0.16-1.8-0.42-2.04-1.32l-7.96-30.75l-3.1,14.3l-9.85-2.57l8.29-42.01C287.44,268.47,288.6,262.34,303.18,262.07z"></path> <path class="st43" d="M291.93,297.37c0.02,0,0.04,0,0.05-0.01c0.13-0.03,0.22-0.16,0.19-0.3l-2.78-12.75 c-0.03-0.13-0.16-0.22-0.3-0.19c-0.13,0.03-0.22,0.16-0.19,0.3l2.78,12.75C291.71,297.29,291.82,297.37,291.93,297.37z"></path> <linearGradient id="SVGID_60_" gradientUnits="userSpaceOnUse" x1="328.3149" y1="301.3568" x2="287.8147" y2="344.6028"> <stop offset="0" style="stop-color:#FEBBBA"></stop> <stop offset="1" style="stop-color:#FF928E"></stop> </linearGradient> <path class="st69" d="M293.94,335.3c1.05-0.58,2.28-0.74,3.44-0.45l2.32,0.58c0.49,0.12,0.98-0.22,1.04-0.72l2.4-21.34 c3,1.42,7.32,1.25,8.75,1.15l-5.52,25.16h-19.31L293.94,335.3z"></path> <linearGradient id="SVGID_61_" gradientUnits="userSpaceOnUse" x1="-10218.2793" y1="295.3975" x2="-10171.9102" y2="295.3975" gradientTransform="matrix(-1 0 0 1 -9929.2793 0)"> <stop offset="0" style="stop-color:#FEBBBA"></stop> <stop offset="1" style="stop-color:#FF928E"></stop> </linearGradient> <path class="st70" d="M242.63,289.01l0.58-1.94c0.34-1.12,1.16-2.02,2.24-2.45l10.56-4.25c0,0,0.16-1.35-2.23-2.27 c-2.39-0.92-1.83-3.6-1.83-3.6s3.27,1.49,8.04,3.85c2.73,1.35,4.27,3.74,5.08,5.53L289,313.05l-2.81,1.93 c-3.69,2.54-8.77,1.29-10.87-2.67l-12.96-24.85C255.85,289.41,249.27,289.79,242.63,289.01z"></path> <g> <linearGradient id="SVGID_62_" gradientUnits="userSpaceOnUse" x1="-10234.9727" y1="269.3911" x2="-10218.835" y2="252.8347" gradientTransform="matrix(-1 0 0 1 -9929.2793 0)"> <stop offset="0" style="stop-color:#FEBBBA"></stop> <stop offset="1" style="stop-color:#FF928E"></stop> </linearGradient> <path class="st71" d="M296.7,248.47l6.15,17.21c0,0-5.45,4.26-9.42,2.82l-3.1-9.87C290.33,258.63,292.69,246.57,296.7,248.47z"></path> <g> <linearGradient id="SVGID_63_" gradientUnits="userSpaceOnUse" x1="-10211.5693" y1="242.4032" x2="-10231.6885" y2="269.0192" gradientTransform="matrix(-1 0 0 1 -9929.2793 0)"> <stop offset="0" style="stop-color:#FEBBBA"></stop> <stop offset="1" style="stop-color:#FF928E"></stop> </linearGradient> <path class="st72" d="M278.34,242.29c0,0.27,5.92,16.77,5.92,16.77l9.35-3.58L290.33,239C290.33,239,278.34,237.85,278.34,242.29 z"></path> <linearGradient id="SVGID_64_" gradientUnits="userSpaceOnUse" x1="-10226.9346" y1="248.8236" x2="-10202.9014" y2="248.8236" gradientTransform="matrix(-1 0 0 1 -9929.2793 0)"> <stop offset="0" style="stop-color:#09005D"></stop> <stop offset="1" style="stop-color:#1A0F91"></stop> </linearGradient> <path class="st73" d="M288.69,243.01l2.41,8.54c0.03,0.11,0.05,0.22,0.05,0.33c0,0.7-0.17,3.09-2.61,2.77 c-2.21-0.3-4.24-0.53-5.53,0.07c-0.58,0.27-0.86,0.94-0.64,1.54c0.54,1.5,1.82,4.86,3.37,7.6c0.32,0.56,1.01,0.77,1.59,0.51 c1.76-0.8,5.41-2.59,8.02-4.72c0.35-0.29,0.52-0.74,0.44-1.19c-0.41-2.18-1.63-8.83-1.68-10.73c-0.05-1.79,1.95-3.15,2.84-3.66 c0.29-0.17,0.5-0.45,0.57-0.77c0.28-1.15,0.51-3.75-2.81-4.33c-0.7-0.12-1.15-0.79-1.01-1.48c0.28-1.38,0.19-3.4-2.42-4.15 c-2.66-0.76-4.33,0.84-5.18,2.07c-0.34,0.5-0.99,0.66-1.54,0.41c-0.31-0.14-0.69-0.15-1.1,0.2c-0.55,0.46-1.38,0.32-1.79-0.27 c-0.77-1.14-2.18-2.28-4.56-1.51c-4.23,1.37-4.02,6.24-2.47,8.89c1.55,2.65,6.05,0.91,8.17-0.85c1.62-1.33,4.08-0.54,5.17-0.08 C288.33,242.36,288.59,242.65,288.69,243.01z"></path> <linearGradient id="SVGID_65_" gradientUnits="userSpaceOnUse" x1="-10241.0361" y1="263.481" x2="-10224.8984" y2="246.9246" gradientTransform="matrix(-1 0 0 1 -9929.2793 0)"> <stop offset="0" style="stop-color:#FEBBBA"></stop> <stop offset="1" style="stop-color:#FF928E"></stop> </linearGradient> <path class="st74" d="M294.94,250.86c0,0-2.5-4.73-0.85-6.22c1.65-1.49,4.46-1.24,4.38,2.46 C298.38,251.7,294.94,250.86,294.94,250.86z"></path> </g> </g> <path class="st43" d="M309.94,314.84c1.36,0,2.34-0.1,2.44-0.12l0.18-0.02l7.28-33.95c0.03-0.13-0.06-0.27-0.19-0.29 c-0.14-0.03-0.27,0.06-0.29,0.19l-7.21,33.6c-1.08,0.1-6.87,0.48-9.93-1.68l6.31-29.49l-1.32-2.48c-0.06-0.12-0.21-0.17-0.34-0.1 c-0.12,0.06-0.17,0.21-0.1,0.34l1.23,2.32l-6.34,29.63l0.13,0.1C304.01,314.52,307.57,314.84,309.94,314.84z"></path> <g> <path class="st3" d="M91.65,418.34c-0.17,0-0.34-0.04-0.5-0.11c-0.64-0.3-0.94-1.12-0.66-1.82l26.61-67.51 c0.28-0.7,1.02-1.03,1.67-0.72c0.64,0.3,0.94,1.12,0.66,1.82l-26.61,67.51C92.61,418.03,92.14,418.34,91.65,418.34z"></path> <path class="st3" d="M121.63,418.34c-0.49,0-0.96-0.31-1.17-0.84l-26.61-67.51c-0.28-0.7,0.02-1.52,0.66-1.82 c0.64-0.3,1.39,0.02,1.67,0.72l26.61,67.51c0.28,0.7-0.02,1.52-0.66,1.82C121.96,418.31,121.79,418.34,121.63,418.34z"></path> <path class="st3" d="M272.23,418.34c-0.17,0-0.34-0.04-0.5-0.11c-0.64-0.3-0.94-1.12-0.66-1.82l26.61-67.51 c0.28-0.7,1.02-1.03,1.67-0.72c0.64,0.3,0.94,1.12,0.66,1.82l-26.61,67.51C273.19,418.03,272.72,418.34,272.23,418.34z"></path> <path class="st3" d="M302.2,418.34c-0.49,0-0.96-0.31-1.17-0.84l-26.61-67.51c-0.28-0.7,0.02-1.52,0.66-1.82 c0.64-0.3,1.39,0.02,1.67,0.72l26.61,67.51c0.28,0.7-0.02,1.52-0.66,1.82C302.54,418.31,302.37,418.34,302.2,418.34z"></path> </g> <g> <path class="st75" d="M268.37,344.13l38.54,0v-3.98h-38.54C269.19,340.15,269.19,344.13,268.37,344.13z"></path> <linearGradient id="SVGID_66_" gradientUnits="userSpaceOnUse" x1="-9302.293" y1="-1885.4093" x2="-9335.9395" y2="-1803.5669" gradientTransform="matrix(-1 0 0 1 -9929.2793 0)"> <stop offset="0" style="stop-color:#4F52FF"></stop> <stop offset="1" style="stop-color:#4042E2"></stop> </linearGradient> <path class="st76" d="M306.45,344.13c0.25,0,0.46-0.21,0.46-0.46v-3.06c0-0.25-0.21-0.46-0.46-0.46h-38.8 c-0.25,0-0.46-0.2-0.46-0.45s0.21-0.45,0.46-0.45h41.46c0.92,0,1.66,0.75,1.66,1.66v2.54c0,0.87-0.7,1.57-1.57,1.57h-41.56 c-0.25,0-0.46-0.2-0.46-0.45c0-0.25,0.21-0.45,0.46-0.45H306.45z"></path> </g> <path class="st3" d="M312.49,346.81c0.13-0.44-0.05-0.9-0.48-1.25c-0.43-0.35-1.08-0.55-1.76-0.55H79.34c-0.9,0-1.73,0.3-2.21,0.8 c-0.48,0.5-0.55,1.13-0.17,1.67l2.5,3.59c0.57,0.82,1.81,1.35,3.18,1.35h226.03c1.27,0,2.36-0.6,2.6-1.43L312.49,346.81z"></path> <g> <g> <g class="st77"> <path class="st75" d="M186.47,111.22c-0.73-0.15-1.2-0.87-1.05-1.6c0.3-1.42,0.53-2.87,0.71-4.32c0.09-0.73,0.75-1.26,1.48-1.18 c0.01,0,0.02,0,0.03,0c0.74,0.09,1.27,0.76,1.18,1.5c-0.18,1.52-0.43,3.05-0.75,4.55c-0.14,0.68-0.78,1.14-1.46,1.07 C186.56,111.24,186.51,111.23,186.47,111.22z M186.49,98.2c-0.02-1.46-0.11-2.93-0.26-4.37c-0.08-0.74,0.46-1.41,1.21-1.48 c0.75-0.07,1.41,0.46,1.48,1.21c0.16,1.52,0.25,3.07,0.27,4.6c0.01,0.75-0.58,1.36-1.33,1.37c-0.05,0-0.11,0-0.16-0.01 C187.03,99.45,186.5,98.89,186.49,98.2z M185.02,86.82c-0.35-1.41-0.76-2.82-1.23-4.2c-0.24-0.71,0.14-1.47,0.85-1.71 c0.71-0.24,1.47,0.14,1.71,0.85c0.49,1.45,0.93,2.94,1.29,4.42c0.18,0.72-0.26,1.46-0.99,1.64c-0.15,0.04-0.31,0.05-0.46,0.03 C185.64,87.79,185.16,87.39,185.02,86.82z M181.04,76.06c-0.65-1.3-1.37-2.59-2.14-3.82c-0.39-0.64-0.19-1.47,0.44-1.86 c0.64-0.39,1.47-0.19,1.86,0.44c0.8,1.3,1.56,2.66,2.25,4.02c0.34,0.67,0.07,1.48-0.6,1.82c-0.24,0.12-0.5,0.16-0.74,0.14 C181.67,76.75,181.26,76.49,181.04,76.06z M174.76,66.45c-0.92-1.12-1.91-2.21-2.93-3.25c-0.52-0.53-0.51-1.39,0.02-1.91 c0.53-0.52,1.39-0.51,1.91,0.02c1.07,1.09,2.11,2.25,3.08,3.42c0.48,0.58,0.39,1.43-0.18,1.9c-0.29,0.24-0.65,0.34-1,0.3 C175.33,66.9,175,66.74,174.76,66.45z M166.52,58.48c-1.15-0.89-2.35-1.74-3.58-2.53c-0.63-0.4-0.81-1.24-0.4-1.87 c0.4-0.63,1.24-0.81,1.87-0.4c1.29,0.83,2.55,1.72,3.76,2.66c0.59,0.46,0.7,1.3,0.24,1.9c-0.3,0.38-0.76,0.56-1.21,0.52 C166.96,58.73,166.72,58.64,166.52,58.48z M117.11,49.65c-0.24-0.71,0.14-1.47,0.85-1.71c1.45-0.49,2.94-0.92,4.43-1.29 c0.73-0.18,1.46,0.27,1.63,0.99c0.18,0.72-0.27,1.46-0.99,1.63c-1.41,0.35-2.83,0.76-4.2,1.22c-0.19,0.06-0.38,0.08-0.57,0.06 C117.74,50.51,117.28,50.17,117.11,49.65z M156.71,52.53c-1.32-0.61-2.68-1.17-4.05-1.66c-0.7-0.25-1.07-1.03-0.81-1.73 c0.25-0.7,1.03-1.06,1.73-0.81c1.44,0.52,2.87,1.11,4.26,1.75c0.68,0.31,0.97,1.12,0.66,1.79c-0.25,0.54-0.81,0.83-1.36,0.78 C157,52.63,156.85,52.59,156.71,52.53z M128.55,46.87c-0.07-0.74,0.47-1.41,1.21-1.48c1.52-0.15,3.07-0.24,4.6-0.26 c0.75-0.01,1.36,0.59,1.37,1.33c0.01,0.75-0.58,1.36-1.33,1.37c-1.46,0.02-2.93,0.11-4.37,0.25c-0.09,0.01-0.18,0.01-0.27,0 C129.13,48.01,128.62,47.52,128.55,46.87z M145.83,48.92c-1.42-0.3-2.87-0.54-4.32-0.72c-0.74-0.09-1.27-0.76-1.18-1.51 c0.09-0.73,0.75-1.25,1.48-1.18c0.01,0,0.02,0,0.03,0c1.52,0.19,3.05,0.44,4.55,0.75c0.73,0.15,1.2,0.87,1.04,1.6 c-0.14,0.68-0.78,1.14-1.46,1.07C145.93,48.94,145.88,48.93,145.83,48.92z"></path> <path class="st75" d="M109.57,54.4c0.26,0.03,0.54-0.02,0.79-0.16c0.61-0.34,1.24-0.67,1.86-0.98c0.67-0.34,0.94-1.15,0.6-1.81 c-0.34-0.67-1.15-0.94-1.82-0.6c-0.66,0.33-1.32,0.68-1.96,1.04c-0.65,0.36-0.89,1.19-0.53,1.84 C108.75,54.11,109.14,54.36,109.57,54.4z"></path> </g> <g class="st77"> <path class="st75" d="M84.21,86.88c0.65,0.07,1.27-0.35,1.44-1c0.18-0.67,0.37-1.35,0.58-2.02c0.22-0.71-0.18-1.47-0.89-1.69 c-0.72-0.22-1.47,0.18-1.69,0.89c-0.22,0.7-0.43,1.42-0.61,2.13c-0.19,0.72,0.24,1.46,0.96,1.65 C84.07,86.86,84.14,86.88,84.21,86.88z"></path> <path class="st75" d="M127.08,152.48c-0.74-0.11-1.25-0.8-1.13-1.54c0.11-0.74,0.8-1.24,1.54-1.13 c1.41,0.21,2.84,0.37,4.28,0.46c0.74,0.05,1.31,0.69,1.26,1.44c-0.05,0.74-0.69,1.31-1.44,1.26c-0.63-0.04-1.25-0.09-1.87-0.16 C128.84,152.73,127.95,152.61,127.08,152.48z M137.52,151.71c-0.05-0.74,0.51-1.39,1.26-1.44c1.43-0.1,2.87-0.26,4.28-0.47 c0.74-0.12,1.43,0.39,1.54,1.13c0.11,0.74-0.39,1.43-1.13,1.54c-1.49,0.23-3,0.4-4.51,0.5c-0.08,0.01-0.16,0-0.23,0 C138.08,152.9,137.56,152.38,137.52,151.71z M119.89,150.89c-1.44-0.43-2.89-0.92-4.29-1.47c-0.7-0.27-1.04-1.05-0.77-1.75 c0.27-0.7,1.05-1.04,1.75-0.77c1.33,0.52,2.71,0.99,4.08,1.39c0.72,0.21,1.13,0.96,0.91,1.68c-0.19,0.63-0.8,1.03-1.43,0.96 C120.06,150.93,119.98,150.91,119.89,150.89z M148.97,149.94c-0.21-0.72,0.19-1.47,0.91-1.68c1.37-0.41,2.74-0.88,4.07-1.4 c0.7-0.27,1.48,0.07,1.75,0.76c0.27,0.69-0.07,1.48-0.76,1.75c-1.4,0.55-2.84,1.05-4.29,1.48c-0.17,0.05-0.35,0.07-0.52,0.05 C149.61,150.85,149.14,150.48,148.97,149.94z M108.94,146.28c-1.31-0.73-2.61-1.53-3.86-2.37c-0.62-0.42-0.78-1.26-0.37-1.88 c0.42-0.62,1.26-0.78,1.88-0.37c1.19,0.8,2.42,1.56,3.67,2.25c0.65,0.36,0.89,1.19,0.52,1.84c-0.27,0.49-0.8,0.74-1.32,0.69 C109.29,146.43,109.11,146.37,108.94,146.28z M99.27,139.39c-1.12-1-2.22-2.07-3.25-3.16c-0.51-0.54-0.49-1.4,0.05-1.91 c0.54-0.51,1.4-0.49,1.91,0.05c0.98,1.04,2.02,2.05,3.09,3c0.56,0.5,0.6,1.35,0.11,1.91c-0.3,0.34-0.73,0.49-1.15,0.44 C99.76,139.7,99.49,139.59,99.27,139.39z M91.33,130.55c-0.88-1.23-1.72-2.5-2.49-3.79c-0.38-0.64-0.17-1.47,0.47-1.85 c0.64-0.38,1.47-0.17,1.85,0.47c0.73,1.23,1.53,2.44,2.36,3.6c0.44,0.61,0.3,1.45-0.31,1.89c-0.28,0.2-0.61,0.28-0.92,0.25 C91.92,131.07,91.56,130.88,91.33,130.55z M85.5,120.19c-0.59-1.39-1.13-2.82-1.6-4.25c-0.23-0.71,0.15-1.47,0.86-1.71 c0.71-0.23,1.47,0.15,1.71,0.86c0.45,1.36,0.96,2.71,1.52,4.03c0.29,0.69-0.03,1.48-0.72,1.77c-0.22,0.09-0.44,0.12-0.66,0.1 C86.14,120.96,85.7,120.66,85.5,120.19z M82.09,108.79c-0.27-1.48-0.48-2.99-0.62-4.49c-0.07-0.74,0.47-1.4,1.22-1.47 c0.74-0.07,1.4,0.47,1.47,1.22c0.14,1.43,0.33,2.86,0.59,4.27c0.13,0.73-0.35,1.44-1.09,1.57c-0.13,0.02-0.25,0.03-0.38,0.02 C82.7,109.84,82.2,109.4,82.09,108.79z M81.27,96.94c0.04-1.11,0.12-2.23,0.23-3.33c0.04-0.4,0.09-0.8,0.13-1.19 c0.09-0.74,0.76-1.28,1.51-1.18c0.74,0.09,1.27,0.77,1.18,1.51c-0.05,0.38-0.09,0.75-0.13,1.13c-0.11,1.05-0.18,2.11-0.22,3.16 c-0.03,0.75-0.66,1.33-1.4,1.3c-0.03,0-0.06,0-0.08-0.01C81.78,98.27,81.24,97.66,81.27,96.94z"></path> <path class="st75" d="M160.83,146.36c0.27,0.03,0.55-0.02,0.8-0.17c0.64-0.36,1.28-0.74,1.91-1.13 c0.64-0.39,0.83-1.22,0.44-1.86c-0.39-0.64-1.22-0.83-1.86-0.44c-0.6,0.37-1.21,0.73-1.81,1.07c-0.65,0.37-0.88,1.19-0.52,1.84 C160.01,146.08,160.41,146.32,160.83,146.36z"></path> </g> <g> <path class="st75" d="M167.12,124.06c0.19-0.19,0.24-0.48,0.12-0.72l-3.37-6.91c1.89-3.05,3.31-6.43,4.16-10.02l7.26-2.51 c0.25-0.09,0.43-0.33,0.43-0.6l0-9.22c0-0.27-0.17-0.51-0.43-0.6l-7.26-2.5c-0.84-3.6-2.26-6.97-4.16-10.02l3.37-6.91 c0.12-0.24,0.07-0.53-0.12-0.72l-6.52-6.52c-0.19-0.19-0.48-0.24-0.72-0.12l-6.91,3.37c-3.05-1.89-6.43-3.31-10.02-4.16 l-2.51-7.26c-0.09-0.25-0.33-0.43-0.6-0.43l-9.22,0c-0.27,0-0.51,0.17-0.6,0.43l-2.5,7.26c-3.6,0.84-6.97,2.26-10.02,4.16 l-6.91-3.37c-0.24-0.12-0.53-0.07-0.72,0.12l-6.52,6.52c-0.19,0.19-0.24,0.48-0.12,0.72l3.37,6.91 c-1.89,3.05-3.31,6.43-4.16,10.02l-7.26,2.51c-0.25,0.09-0.43,0.33-0.43,0.6l0,9.22c0,0.27,0.17,0.51,0.43,0.6l7.26,2.5 c0.84,3.6,2.26,6.97,4.16,10.02l-3.37,6.91c-0.12,0.24-0.07,0.53,0.12,0.72l6.52,6.52c0.19,0.19,0.48,0.24,0.72,0.12l6.91-3.37 c3.05,1.89,6.43,3.31,10.02,4.16l2.51,7.26c0.09,0.25,0.33,0.43,0.6,0.43l9.22,0c0.27,0,0.51-0.17,0.6-0.43l2.5-7.26 c3.6-0.84,6.97-2.26,10.02-4.16l6.91,3.37c0.24,0.12,0.53,0.07,0.72-0.12L167.12,124.06z"></path> <linearGradient id="SVGID_67_" gradientUnits="userSpaceOnUse" x1="125.95" y1="98.6862" x2="144.4935" y2="98.6862"> <stop offset="0" style="stop-color:#DAE3FE"></stop> <stop offset="1" style="stop-color:#E9EFFD"></stop> </linearGradient> <path class="st78" d="M132.95,107.68c-4.96-1.25-7.97-6.3-6.72-11.26c0.61-2.4,2.11-4.42,4.24-5.69 c2.13-1.27,4.62-1.64,7.02-1.03c4.96,1.25,7.97,6.3,6.72,11.26c-1.14,4.51-5.42,7.41-9.92,6.96 C133.85,107.87,133.4,107.79,132.95,107.68z M131.58,92.58c-1.63,0.97-2.78,2.52-3.25,4.36c-0.96,3.8,1.35,7.67,5.15,8.63 c3.8,0.96,7.67-1.35,8.63-5.15c0.96-3.8-1.35-7.67-5.15-8.63c-0.34-0.09-0.69-0.15-1.04-0.18 C134.41,91.46,132.9,91.79,131.58,92.58z"></path> <linearGradient id="SVGID_68_" gradientUnits="userSpaceOnUse" x1="112.2993" y1="98.538" x2="157.8905" y2="98.538"> <stop offset="0" style="stop-color:#DAE3FE"></stop> <stop offset="1" style="stop-color:#E9EFFD"></stop> </linearGradient> <path class="st79" d="M132.76,121.22c0.77,0.08,1.55,0.12,2.34,0.12l0,0c0.25,0,0.5,0,0.74-0.01c1.22-0.04,2.44-0.18,3.63-0.41 c0.02,0,0.03-0.01,0.05-0.01c0.05-0.01,0.09-0.02,0.14-0.03c0.09-0.02,0.18-0.04,0.27-0.06c0.23-0.05,0.4-0.25,0.42-0.47 c0.01-0.06,0-0.11-0.01-0.17c-0.06-0.29-0.35-0.48-0.64-0.41c-1.5,0.32-3.05,0.49-4.6,0.49c-7.69,0-14.47-4.02-18.32-10.07 c-2.15-3.37-3.39-7.36-3.39-11.64c0-0.75,0.04-1.5,0.11-2.23c0.5-4.96,2.68-9.55,6.25-13.12c4.1-4.1,9.55-6.36,15.35-6.36 c11.98,0,21.72,9.74,21.72,21.71c0,0.74-0.04,1.47-0.11,2.2c-0.32,3.16-1.33,6.22-2.96,8.95c-0.04,0.07-0.07,0.15-0.07,0.22 c-0.02,0.2,0.07,0.41,0.26,0.52c0.26,0.15,0.59,0.07,0.74-0.19c1.72-2.86,2.78-6.07,3.11-9.39c0.08-0.77,0.12-1.54,0.12-2.31 c0-12.57-10.23-22.79-22.8-22.79c-6.09,0-11.81,2.37-16.12,6.68c-3.75,3.75-6.03,8.57-6.56,13.78 c-0.08,0.77-0.12,1.56-0.12,2.34c0,6.09,2.37,11.81,6.68,16.12C122.73,118.41,127.55,120.69,132.76,121.22z"></path> </g> </g> <g> <g class="st77"> <path class="st75" d="M228.91,151.33c0.36,0.04,0.71-0.16,0.86-0.52c0.27-0.66,0.52-1.33,0.75-2c0.15-0.44-0.09-0.91-0.52-1.06 c-0.44-0.15-0.91,0.09-1.06,0.52c-0.22,0.64-0.46,1.28-0.71,1.91c-0.17,0.43,0.03,0.91,0.46,1.09 C228.76,151.3,228.84,151.32,228.91,151.33z"></path> <path class="st75" d="M230.69,145.17c-0.45-0.09-0.74-0.53-0.65-0.99c0.23-1.14,0.41-2.31,0.53-3.46 c0.02-0.24,0.05-0.49,0.07-0.74c0.04-0.46,0.44-0.8,0.9-0.77c0.43,0.05,0.8,0.44,0.77,0.9c-0.02,0.26-0.04,0.51-0.07,0.77 c-0.12,1.21-0.31,2.44-0.56,3.63c-0.09,0.42-0.48,0.71-0.9,0.66C230.75,145.18,230.72,145.17,230.69,145.17z M230.72,135.74 c-0.06-1.41-0.21-2.83-0.44-4.22c-0.08-0.46,0.23-0.88,0.69-0.96c0.45-0.07,0.89,0.23,0.96,0.69c0.24,1.45,0.4,2.94,0.46,4.42 c0.02,0.46-0.34,0.85-0.8,0.87c-0.04,0-0.08,0-0.12,0C231.06,136.5,230.74,136.16,230.72,135.74z M229.33,127.4 c-0.4-1.35-0.89-2.69-1.46-3.98c-0.19-0.42,0.01-0.91,0.43-1.1c0.42-0.19,0.91,0.01,1.1,0.43c0.59,1.35,1.11,2.76,1.53,4.17 c0.13,0.44-0.12,0.91-0.56,1.04c-0.11,0.03-0.22,0.04-0.32,0.03C229.72,127.96,229.43,127.73,229.33,127.4z M225.92,119.65 c-0.72-1.21-1.53-2.39-2.39-3.5c-0.28-0.36-0.22-0.89,0.15-1.17c0.36-0.28,0.89-0.22,1.17,0.15c0.91,1.17,1.75,2.4,2.51,3.67 c0.24,0.4,0.11,0.91-0.29,1.14c-0.16,0.09-0.34,0.13-0.51,0.11C226.3,120.03,226.06,119.88,225.92,119.65z M220.73,112.96 c-0.99-1-2.06-1.95-3.17-2.82c-0.36-0.28-0.43-0.81-0.14-1.17c0.28-0.36,0.81-0.43,1.17-0.14c1.16,0.91,2.28,1.9,3.32,2.95 c0.32,0.33,0.32,0.86,0,1.18c-0.18,0.18-0.43,0.26-0.67,0.24C221.05,113.19,220.87,113.11,220.73,112.96z M214.08,107.74 c-1.21-0.73-2.47-1.38-3.76-1.96c-0.42-0.19-0.61-0.68-0.42-1.1c0.19-0.42,0.68-0.61,1.1-0.42c1.35,0.6,2.67,1.29,3.94,2.05 c0.39,0.24,0.52,0.75,0.28,1.15c-0.17,0.29-0.49,0.43-0.8,0.4C214.3,107.84,214.19,107.81,214.08,107.74z M206.35,104.31 c-1.34-0.41-2.73-0.74-4.12-0.97c-0.45-0.08-0.76-0.51-0.68-0.96c0.08-0.45,0.51-0.75,0.96-0.68c1.46,0.25,2.92,0.6,4.32,1.02 c0.44,0.13,0.69,0.6,0.56,1.04c-0.12,0.39-0.49,0.63-0.88,0.59C206.45,104.33,206.4,104.32,206.35,104.31z M192.87,102.16 c-0.03-0.46,0.31-0.86,0.77-0.89c1.27-0.1,2.57-0.12,3.86-0.08c0.2,0.01,0.39,0.01,0.59,0.02c0.46,0.01,0.82,0.41,0.79,0.88 c-0.02,0.46-0.41,0.82-0.87,0.79c-0.18-0.01-0.37-0.02-0.55-0.02c-1.23-0.04-2.47-0.01-3.69,0.08c-0.05,0-0.1,0-0.15,0 C193.23,102.89,192.91,102.57,192.87,102.16z"></path> </g> <g class="st77"> <path class="st75" d="M192.23,173.04c-1.45-0.17-2.89-0.42-4.3-0.76c-0.45-0.11-0.72-0.56-0.62-1.01 c0.11-0.45,0.56-0.72,1.01-0.62c1.34,0.32,2.73,0.57,4.11,0.72c0.46,0.05,0.79,0.47,0.73,0.92c-0.05,0.45-0.46,0.78-0.91,0.74 C192.24,173.04,192.23,173.04,192.23,173.04z M195.76,172.45c0-0.46,0.37-0.84,0.83-0.84c1.39-0.01,2.79-0.1,4.16-0.28 c0.45-0.06,0.88,0.27,0.93,0.72c0.06,0.46-0.27,0.87-0.72,0.93c-1.44,0.18-2.91,0.28-4.36,0.29c-0.03,0-0.06,0-0.09,0 C196.09,173.23,195.76,172.88,195.76,172.45z M183.74,171.01c-1.36-0.51-2.71-1.11-3.99-1.78c-0.41-0.21-0.57-0.72-0.36-1.13 c0.21-0.41,0.71-0.57,1.13-0.36c1.23,0.64,2.51,1.21,3.81,1.7c0.43,0.16,0.65,0.64,0.49,1.07c-0.14,0.36-0.5,0.58-0.87,0.54 C183.88,171.05,183.81,171.04,183.74,171.01z M204.24,171.57c-0.11-0.45,0.16-0.9,0.6-1.01c1.34-0.34,2.68-0.77,3.97-1.27 c0.43-0.17,0.91,0.05,1.08,0.47c0.17,0.43-0.05,0.91-0.48,1.08c-1.35,0.53-2.76,0.98-4.17,1.33c-0.1,0.02-0.2,0.03-0.29,0.02 C204.63,172.16,204.33,171.92,204.24,171.57z M176,166.99c-1.2-0.82-2.36-1.72-3.45-2.68c-0.35-0.3-0.38-0.83-0.07-1.18 c0.3-0.35,0.83-0.38,1.18-0.07c1.04,0.92,2.15,1.78,3.29,2.56c0.38,0.26,0.48,0.78,0.22,1.16c-0.18,0.26-0.48,0.39-0.77,0.36 C176.26,167.11,176.12,167.07,176,166.99z M169.45,161.22c-0.97-1.09-1.88-2.24-2.71-3.43c-0.26-0.38-0.17-0.9,0.21-1.16 c0.38-0.26,0.9-0.17,1.16,0.21c0.79,1.14,1.66,2.24,2.58,3.27c0.31,0.34,0.28,0.87-0.07,1.18c-0.18,0.16-0.41,0.23-0.64,0.21 C169.79,161.48,169.6,161.38,169.45,161.22z M164.47,154.05c-0.68-1.29-1.29-2.63-1.81-3.98c-0.16-0.43,0.05-0.91,0.48-1.08 c0.43-0.16,0.91,0.05,1.08,0.48c0.49,1.29,1.07,2.57,1.72,3.8c0.22,0.41,0.06,0.91-0.35,1.13c-0.15,0.08-0.32,0.11-0.47,0.09 C164.85,154.47,164.6,154.31,164.47,154.05z"></path> <path class="st75" d="M212.95,169.09c0.16,0.02,0.33-0.01,0.48-0.1c0.63-0.34,1.25-0.7,1.85-1.07c0.39-0.24,0.51-0.76,0.27-1.15 c-0.24-0.39-0.76-0.51-1.15-0.27c-0.57,0.35-1.16,0.69-1.76,1.02c-0.41,0.22-0.56,0.73-0.34,1.13 C212.44,168.9,212.68,169.06,212.95,169.09z"></path> </g> <g> <path class="st75" d="M217.71,153.92c0.13-0.13,0.16-0.32,0.08-0.48l-2.25-4.63c1.27-2.04,2.22-4.3,2.78-6.71l4.86-1.68 c0.17-0.06,0.28-0.22,0.28-0.4l0-6.17c0-0.18-0.11-0.34-0.28-0.4l-4.86-1.68c-0.56-2.41-1.51-4.67-2.78-6.71l2.25-4.63 c0.08-0.16,0.05-0.36-0.08-0.48l-4.36-4.36c-0.13-0.13-0.32-0.16-0.48-0.08l-4.63,2.25c-2.04-1.27-4.3-2.22-6.71-2.78 l-1.68-4.86c-0.06-0.17-0.22-0.28-0.4-0.28l-6.17,0c-0.18,0-0.34,0.11-0.4,0.28l-1.68,4.86c-2.41,0.56-4.67,1.51-6.71,2.78 l-4.63-2.25c-0.16-0.08-0.36-0.05-0.48,0.08l-4.36,4.36c-0.13,0.13-0.16,0.32-0.08,0.48l2.25,4.63 c-1.27,2.04-2.22,4.3-2.78,6.71l-4.86,1.68c-0.17,0.06-0.28,0.22-0.28,0.4l0,6.17c0,0.18,0.11,0.34,0.28,0.4l4.86,1.68 c0.56,2.41,1.51,4.67,2.78,6.71l-2.25,4.63c-0.08,0.16-0.05,0.36,0.08,0.48l4.36,4.36c0.13,0.13,0.32,0.16,0.48,0.08l4.63-2.25 c2.04,1.27,4.3,2.22,6.71,2.78l1.68,4.86c0.06,0.17,0.22,0.28,0.4,0.28l6.17,0c0.18,0,0.34-0.11,0.4-0.28l1.68-4.86 c2.41-0.56,4.67-1.51,6.71-2.78l4.63,2.25c0.16,0.08,0.36,0.05,0.48-0.08L217.71,153.92z"></path> <linearGradient id="SVGID_69_" gradientUnits="userSpaceOnUse" x1="190.0485" y1="136.945" x2="202.6818" y2="136.945"> <stop offset="0" style="stop-color:#DAE3FE"></stop> <stop offset="1" style="stop-color:#E9EFFD"></stop> </linearGradient> <path class="st80" d="M194.82,143.07c-1.64-0.41-3.01-1.44-3.88-2.89c-0.86-1.45-1.11-3.15-0.7-4.78 c0.85-3.38,4.29-5.43,7.67-4.58c3.38,0.85,5.43,4.29,4.58,7.67c-0.41,1.64-1.44,3.01-2.89,3.88c-1.18,0.7-2.52,1-3.86,0.86 C195.44,143.2,195.13,143.14,194.82,143.07z M191.86,135.81c-0.3,1.2-0.12,2.45,0.52,3.52c0.64,1.06,1.65,1.82,2.85,2.12l0,0 c1.2,0.3,2.45,0.12,3.52-0.52c1.07-0.64,1.82-1.65,2.12-2.85c0.63-2.48-0.88-5.01-3.37-5.64c-0.22-0.06-0.45-0.1-0.67-0.12 C194.58,132.09,192.43,133.55,191.86,135.81z"></path> <linearGradient id="SVGID_70_" gradientUnits="userSpaceOnUse" x1="180.5544" y1="136.8434" x2="212.0085" y2="136.8434"> <stop offset="0" style="stop-color:#DAE3FE"></stop> <stop offset="1" style="stop-color:#E9EFFD"></stop> </linearGradient> <path class="st81" d="M194.69,152.49c0.53,0.05,1.06,0.08,1.6,0.08c1.07,0,2.14-0.11,3.19-0.32c0.05-0.01,0.09-0.02,0.14-0.03 c0.36-0.08,0.62-0.38,0.65-0.73c0.01-0.09,0-0.17-0.01-0.26c-0.1-0.45-0.54-0.74-0.99-0.64c-0.97,0.21-1.98,0.32-2.98,0.32l0,0 c-0.05,0-0.11,0-0.16,0c-2.37-0.02-4.64-0.63-6.66-1.76c-1.09-0.61-2.11-1.37-3.03-2.27c-0.01-0.01-0.01-0.01-0.02-0.02 c-0.02-0.02-0.05-0.04-0.07-0.07c-2.66-2.66-4.12-6.18-4.12-9.94c0-0.49,0.02-0.97,0.07-1.44c0.33-3.21,1.73-6.18,4.04-8.5 c2.66-2.66,6.18-4.12,9.94-4.12c3.75,0,7.28,1.46,9.94,4.12c2.66,2.65,4.12,6.18,4.12,9.94c0,0.48-0.02,0.95-0.07,1.43 c-0.21,2.05-0.86,4.03-1.92,5.79c-0.07,0.11-0.1,0.23-0.11,0.34c-0.03,0.31,0.11,0.63,0.4,0.8c0.4,0.24,0.91,0.11,1.15-0.29 c1.18-1.98,1.92-4.19,2.15-6.48c0.05-0.53,0.08-1.06,0.08-1.6c0-4.2-1.64-8.15-4.61-11.12c-2.97-2.97-6.92-4.61-11.12-4.6 c-4.2,0-8.15,1.64-11.12,4.61c-2.59,2.59-4.16,5.91-4.52,9.5c-0.05,0.53-0.08,1.07-0.08,1.62 C180.56,144.98,186.76,151.69,194.69,152.49z"></path> </g> </g> </g> </g> </svg> 