<?xml version="1.0" encoding="UTF-8"?> <!-- Generator: Adobe Illustrator 25.1.0, SVG Export Plug-In . SVG Version: 6.00 Build 0) --> <svg xmlns="http://www.w3.org/2000/svg" xmlns:xlink="http://www.w3.org/1999/xlink" version="1.1" id="Layer_1" x="0px" y="0px" viewBox="0 0 48 48" style="enable-background:new 0 0 48 48;" xml:space="preserve"> <style type="text/css"> .st0{fill:#15BA83;} </style> <g> <path class="st0" d="M18.4,0.4c-5,0-9.1,4.1-9.1,9.1s4.1,9.1,9.1,9.1s9.1-4.1,9.1-9.1C27.5,4.5,23.4,0.4,18.4,0.4z M18.4,3.3 c3.4,0,6.2,2.8,6.2,6.2s-2.8,6.2-6.2,6.2s-6.2-2.8-6.2-6.2S14.9,3.3,18.4,3.3z M18.4,20.9c-6.9,0-12.3,5.6-12.3,12.3v7 c0,0.9,0.7,1.5,1.5,1.5l0,0h13.6c1.9,3.5,5.6,5.9,9.8,5.9c6.2,0,11-5,11-11s-5-11.1-11.1-11.1c-0.9,0-1.9,0.1-2.8,0.3 C25.9,22.8,22.4,20.9,18.4,20.9z M18.4,23.9c2.8,0,5.3,1.2,7,3.1c-0.1,0-0.1,0.1-0.3,0.1c-0.1,0.1-0.4,0.3-0.6,0.4 c-0.1,0.1-0.3,0.3-0.6,0.4c-0.1,0.1-0.3,0.3-0.4,0.4c-0.3,0.3-0.6,0.6-0.9,0.9c-0.1,0.1-0.3,0.3-0.4,0.4c-0.1,0.1-0.3,0.3-0.3,0.4 c-0.1,0.1-0.3,0.4-0.4,0.6c-0.1,0.1-0.1,0.3-0.3,0.4c-0.1,0.3-0.4,0.7-0.6,1c0,0.1,0,0.1-0.1,0.3c-0.1,0.3-0.3,0.6-0.3,1 c0,0.1,0,0.3-0.1,0.4c0,0.3-0.1,0.6-0.1,0.9c0,0.1,0,0.3-0.1,0.4c0,0.3,0,0.7,0,1v0.1l0,0c0,0.4,0,0.9,0.1,1.3 c0,0.3,0.1,0.6,0.1,0.9H8.9v-5.6C8.9,28.1,13.1,23.9,18.4,23.9L18.4,23.9z M30.9,28.4c4.5,0,8.1,3.7,8.1,8.1s-3.7,8.1-8.1,8.1 c-3.4,0-6.2-2.1-7.5-4.8v-0.1c-0.3-0.7-0.6-1.5-0.6-2.3c0-0.3,0-0.6,0-0.9l0,0c0-0.4,0-0.7,0.1-1.2c0-0.1,0-0.1,0-0.3 c0.1-0.7,0.4-1.5,0.7-2.2l0,0c0.9-1.8,2.5-3.2,4.4-4C29,28.5,29.8,28.4,30.9,28.4z M31.2,30.7c-1.8-0.1-3.5,0.9-4.3,2.6 c-0.3,0.7,0,1.6,0.7,1.9c0.7,0.3,1.6,0,1.9-0.7l0,0c0.3-0.6,0.9-0.9,1.5-0.7c0.6,0.1,1,0.7,0.9,1.5c-0.1,0.6-0.6,1-1.2,1h-0.1 c-0.9,0-1.5,0.7-1.5,1.5V41c0,0.9,0.6,1.5,1.5,1.5c0.9,0,1.5-0.6,1.5-1.5l0,0V39c1.5-0.6,2.5-1.8,2.8-3.4c0.3-2.1-1-4.1-3.1-4.7 C31.6,30.7,31.3,30.7,31.2,30.7z"></path> </g> </svg> 