<?xml version="1.0" encoding="UTF-8"?> <!-- Generator: Adobe Illustrator 23.0.3, SVG Export Plug-In . SVG Version: 6.00 Build 0) --> <svg xmlns="http://www.w3.org/2000/svg" xmlns:xlink="http://www.w3.org/1999/xlink" version="1.1" id="Layer_1" x="0px" y="0px" viewBox="0 0 48 48" style="enable-background:new 0 0 48 48;" xml:space="preserve"> <g> <path d="M0.34,36.32c1.27-3.91,3.48-7.35,5.3-10.99c0.48-0.97,0.64-1.01,1.55-0.42c3.66,2.35,6.38,5.58,8.68,9.21 c0.59,0.92,1.25,1.8,1.79,2.75c1.22,2.11,3.16,2.41,5.33,2.28c1.64-0.1,2.82-0.83,3.67-2.22c0.87-1.41,1.8-2.77,2.66-4.19 c3.58-5.87,8.72-9.5,15.48-10.8c0.49-0.09,0.99-0.12,1.48-0.18c1.03-0.13,1.61,0.21,1.69,0.99c0.09,0.91-0.31,1.33-1.37,1.5 c-1.2,0.18-2.41,0.3-3.57,0.62c-1.24,0.35-2.43,0.9-3.75,1.41c1.17,2.29,2.25,4.42,3.34,6.55c0.64,1.25,1.31,2.46,1.26,3.95 c-0.08,2.31-1.66,4.39-3.93,4.68c-1.54,0.2-3.13,0.15-4.68-0.01c-2.24-0.23-3.58-1.73-4.5-3.67c-0.22-0.47-0.42-0.95-0.71-1.62 c-1.87,3.07-3.84,5.47-7.86,5.46c-4-0.01-6.05-2.26-7.79-5.47c-0.54,1.02-0.94,1.85-1.4,2.65c-1.09,1.87-2.76,2.72-4.9,2.73 c-0.88,0-1.76-0.07-2.63,0.01c-2.22,0.21-4.73-1.75-4.94-4.07c-0.01-0.14-0.14-0.27-0.21-0.4C0.34,36.82,0.34,36.57,0.34,36.32z M7.19,27.61c-1.43,2.75-2.9,5.39-4.17,8.12c-0.7,1.51,0.28,3.05,1.94,3.34c0.73,0.13,1.49,0.08,2.24,0.08 c2.69,0,3.51-0.57,4.46-3.08c0.11-0.29,0.21-0.6,0.38-0.85c0.74-1.03,0.61-1.9-0.2-2.9C10.47,30.63,9.12,28.93,7.19,27.61z M37.21,27.69c-2.16,1.58-3.94,3.35-5.28,5.52c-0.11,0.17-0.1,0.49-0.02,0.7c0.39,1.08,0.78,2.17,1.26,3.22 c0.51,1.11,1.32,1.88,2.64,1.92c1,0.03,1.99,0.13,2.99,0.11c2.23-0.04,3.4-1.87,2.4-3.88C39.96,32.77,38.6,30.31,37.21,27.69z"></path> <path d="M33.78,15.55c2.53-0.87,4.9-1.83,7.35-2.48c1.82-0.48,3.74-0.6,5.62-0.81c0.81-0.09,1.24,0.38,1.25,1.16 c0.01,0.81-0.43,1.15-1.39,1.28c-1.85,0.23-3.73,0.36-5.52,0.84c-7.72,2.1-13.44,6.78-17.28,13.78c-0.36,0.65-0.68,1.27-1.53,1.32 c-0.92,0.06-1.3-0.6-1.7-1.25c-2.71-4.42-5.92-8.36-10.43-11.09c-0.24-0.14-0.51-0.68-0.42-0.86c1.52-3,2.94-6.07,4.71-8.92 c1.81-2.91,4.83-3.59,8.08-3.57c4.04,0.03,6.88,1.87,8.66,5.45C32.05,12.16,32.95,13.9,33.78,15.55z M26.39,21.42 c0.18-0.09,0.27-0.11,0.34-0.17c1.55-1.3,3.11-2.6,4.64-3.94c0.17-0.15,0.28-0.61,0.18-0.82c-0.88-1.83-1.78-3.64-2.73-5.43 c-1.09-2.05-2.73-3.4-5.11-3.64c-3.52-0.35-6.41,0.23-8.27,3.85c-0.85,1.66-1.68,3.34-2.54,5c-0.26,0.5-0.2,0.77,0.27,1.16 c1.44,1.19,2.81,2.47,4.21,3.72c0.15,0.14,0.33,0.25,0.55,0.42c0.87-1.74,1.72-3.4,2.54-5.08c0.32-0.66,0.79-0.94,1.54-0.98 c1.02-0.06,1.62,0.31,2.05,1.24C24.78,18.33,25.61,19.86,26.39,21.42z M22.14,27.25c0.83-1.2,1.61-2.28,2.35-3.4 c0.12-0.17,0.16-0.5,0.08-0.68c-0.73-1.57-1.5-3.13-2.37-4.92c-0.91,1.88-1.72,3.54-2.51,5.22c-0.06,0.13,0.01,0.37,0.11,0.51 C20.54,25.04,21.31,26.09,22.14,27.25z"></path> </g> </svg> 