<?xml version="1.0" encoding="UTF-8"?> <svg xmlns="http://www.w3.org/2000/svg" xmlns:xlink="http://www.w3.org/1999/xlink" width="60pt" height="60pt" viewBox="0 0 60 60" version="1.1"><g id="surface1"><path style=" stroke:none;fill-rule:nonzero;fill:rgb(0%,0%,0%);fill-opacity:1;" d="M 0.300781 1.25 L 59.550781 1.25 L 59.550781 58.875 L 0.300781 58.875 Z M 0.300781 1.25 "></path><path style=" stroke:none;fill-rule:nonzero;fill:rgb(100%,100%,100%);fill-opacity:1;" d="M 44.550781 25.023438 C 44.148438 24.835938 43.636719 24.75 42.988281 24.75 C 39.601562 24.75 37.335938 27.363281 37.335938 31.699219 C 37.335938 36.648438 39.648438 38.648438 42.675781 38.648438 C 43.324219 38.648438 44.023438 38.574219 44.539062 38.351562 L 44.539062 25.023438 Z M 32.488281 31.925781 C 32.488281 25.648438 36.523438 20.75 43.148438 20.75 C 43.710938 20.75 44.011719 20.75 44.550781 20.800781 L 44.550781 13.800781 C 44.550781 13.636719 44.6875 13.523438 44.824219 13.523438 L 49.164062 13.523438 C 49.375 13.523438 49.4375 13.601562 49.4375 13.738281 L 49.4375 38.351562 C 49.4375 39.074219 49.4375 39.988281 49.574219 40.988281 C 49.574219 41.175781 49.574219 41.199219 49.414062 41.289062 C 47.148438 42.363281 44.773438 42.851562 42.511719 42.851562 C 36.664062 42.851562 32.488281 39.25 32.488281 31.925781 Z M 23.300781 27.5625 L 30.835938 42.1875 C 30.976562 42.398438 30.886719 42.613281 30.675781 42.613281 L 26 42.613281 C 25.699219 42.613281 25.574219 42.539062 25.4375 42.261719 C 23.710938 38.710938 21.960938 35.011719 20.164062 31.199219 L 20.113281 31.199219 C 18.5 34.8125 16.726562 38.738281 15 42.300781 C 14.863281 42.511719 14.726562 42.601562 14.511719 42.601562 L 10.023438 42.601562 C 9.75 42.601562 9.726562 42.386719 9.863281 42.226562 L 17.238281 28.039062 L 10.101562 13.914062 C 9.9375 13.699219 10.101562 13.511719 10.289062 13.511719 L 14.925781 13.511719 C 15.199219 13.511719 15.324219 13.5625 15.414062 13.8125 C 17.113281 17.398438 18.835938 20.925781 20.449219 24.523438 L 20.5 24.523438 C 22.0625 20.976562 23.789062 17.386719 25.425781 13.863281 C 25.5625 13.648438 25.636719 13.511719 25.914062 13.511719 L 30.25 13.511719 C 30.460938 13.511719 30.550781 13.675781 30.414062 13.914062 Z M 23.300781 27.5625 "></path></g></svg> 