<?xml version="1.0" encoding="UTF-8"?> <svg xmlns="http://www.w3.org/2000/svg" xmlns:xlink="http://www.w3.org/1999/xlink" width="60pt" height="60pt" viewBox="0 0 60 60" version="1.1"><g id="surface1"><path style=" stroke:none;fill-rule:nonzero;fill:rgb(0%,0%,0%);fill-opacity:1;" d="M 9.0625 19.4375 C 8.023438 19.4375 7.148438 19.800781 6.425781 20.523438 C 5.699219 21.25 5.335938 22.113281 5.335938 23.125 L 5.335938 38.625 C 5.335938 39.664062 5.699219 40.539062 6.425781 41.261719 C 7.148438 41.988281 8.023438 42.351562 9.0625 42.351562 C 10.101562 42.351562 10.960938 41.988281 11.675781 41.261719 C 12.386719 40.539062 12.738281 39.664062 12.738281 38.625 L 12.738281 23.125 C 12.738281 22.113281 12.375 21.25 11.648438 20.523438 C 10.9375 19.800781 10.074219 19.4375 9.0625 19.4375 Z M 38.914062 5.511719 L 41.476562 0.789062 C 41.636719 0.476562 41.585938 0.238281 41.300781 0.0625 C 40.988281 -0.0742188 40.75 0 40.574219 0.289062 L 37.976562 5.050781 C 35.6875 4.039062 33.273438 3.539062 30.726562 3.539062 C 28.175781 3.539062 25.761719 4.039062 23.476562 5.050781 L 20.875 0.289062 C 20.726562 0 20.476562 -0.0742188 20.175781 0.0742188 C 19.886719 0.25 19.824219 0.488281 20 0.800781 L 22.5625 5.523438 C 19.960938 6.851562 17.898438 8.6875 16.363281 11.0625 C 14.824219 13.4375 14.050781 16.023438 14.050781 18.835938 L 47.398438 18.835938 C 47.398438 16.023438 46.625 13.4375 45.085938 11.0625 C 43.550781 8.6875 41.488281 6.835938 38.914062 5.511719 Z M 24.113281 12.386719 C 23.835938 12.664062 23.5 12.800781 23.125 12.800781 C 22.738281 12.800781 22.414062 12.664062 22.148438 12.386719 C 21.886719 12.113281 21.75 11.789062 21.75 11.398438 C 21.75 11.011719 21.886719 10.6875 22.148438 10.414062 C 22.414062 10.136719 22.738281 10 23.125 10 C 23.511719 10 23.835938 10.136719 24.113281 10.414062 C 24.386719 10.6875 24.523438 11.023438 24.523438 11.398438 C 24.523438 11.773438 24.386719 12.113281 24.113281 12.386719 Z M 39.3125 12.386719 C 39.050781 12.664062 38.726562 12.800781 38.335938 12.800781 C 37.949219 12.800781 37.625 12.664062 37.351562 12.386719 C 37.074219 12.113281 36.9375 11.789062 36.9375 11.398438 C 36.9375 11.011719 37.074219 10.6875 37.351562 10.414062 C 37.625 10.136719 37.960938 10 38.335938 10 C 38.726562 10 39.050781 10.136719 39.3125 10.414062 C 39.574219 10.6875 39.710938 11.023438 39.710938 11.398438 C 39.710938 11.773438 39.574219 12.113281 39.3125 12.386719 Z M 14.1875 44.136719 C 14.1875 45.25 14.574219 46.175781 15.335938 46.949219 C 16.113281 47.726562 17.050781 48.101562 18.148438 48.101562 L 20.8125 48.101562 L 20.851562 56.289062 C 20.851562 57.324219 21.210938 58.199219 21.9375 58.925781 C 22.664062 59.648438 23.523438 60.011719 24.539062 60.011719 C 25.574219 60.011719 26.449219 59.648438 27.175781 58.925781 C 27.898438 58.199219 28.261719 57.324219 28.261719 56.289062 L 28.261719 48.101562 L 33.238281 48.101562 L 33.238281 56.289062 C 33.238281 57.324219 33.601562 58.199219 34.324219 58.925781 C 35.050781 59.648438 35.898438 60 36.9375 60 C 37.976562 60 38.851562 59.636719 39.574219 58.914062 C 40.300781 58.1875 40.664062 57.3125 40.664062 56.273438 L 40.664062 48.085938 L 43.363281 48.085938 C 44.449219 48.085938 45.375 47.699219 46.136719 46.9375 C 46.914062 46.164062 47.289062 45.238281 47.289062 44.125 L 47.289062 20.125 L 14.1875 20.125 Z M 52.398438 19.4375 C 51.386719 19.4375 50.523438 19.789062 49.800781 20.5 C 49.074219 21.210938 48.710938 22.085938 48.710938 23.113281 L 48.710938 38.613281 C 48.710938 39.648438 49.074219 40.523438 49.800781 41.25 C 50.523438 41.976562 51.386719 42.335938 52.398438 42.335938 C 53.4375 42.335938 54.3125 41.976562 55.039062 41.25 C 55.761719 40.523438 56.125 39.648438 56.125 38.613281 L 56.125 23.113281 C 56.125 22.074219 55.761719 21.210938 55.039062 20.5 C 54.3125 19.789062 53.4375 19.4375 52.398438 19.4375 Z M 52.398438 19.4375 "></path></g></svg> 