<?xml version="1.0" encoding="UTF-8"?> <svg xmlns="http://www.w3.org/2000/svg" xmlns:xlink="http://www.w3.org/1999/xlink" width="60pt" height="60pt" viewBox="0 0 60 60" version="1.1"><g id="surface1"><path style=" stroke:none;fill-rule:nonzero;fill:rgb(0%,0%,0%);fill-opacity:1;" d="M 60 30 C 60 46.574219 46.574219 60 30 60 C 13.4375 60 0 46.574219 0 30 C 0 13.4375 13.4375 0 30 0 C 46.574219 0 60 13.4375 60 30 "></path><path style=" stroke:none;fill-rule:nonzero;fill:rgb(100%,100%,100%);fill-opacity:1;" d="M 30.5 18.324219 L 38.261719 37.488281 L 26.539062 28.25 Z M 44.300781 41.898438 L 32.363281 13.164062 C 32.023438 12.335938 31.335938 11.898438 30.511719 11.898438 C 29.6875 11.898438 28.949219 12.335938 28.613281 13.164062 L 15.5 44.6875 L 19.988281 44.6875 L 25.175781 31.6875 L 40.664062 44.199219 C 41.289062 44.699219 41.738281 44.9375 42.3125 44.9375 C 43.488281 44.9375 44.5 44.0625 44.5 42.800781 C 44.5 42.574219 44.425781 42.25 44.300781 41.898438 Z M 44.300781 41.898438 "></path></g></svg> 