<?xml version="1.0" encoding="UTF-8"?> <!-- Generator: Adobe Illustrator 23.0.3, SVG Export Plug-In . SVG Version: 6.00 Build 0) --> <svg xmlns="http://www.w3.org/2000/svg" xmlns:xlink="http://www.w3.org/1999/xlink" version="1.1" id="Layer_1" x="0px" y="0px" viewBox="0 0 48 48" style="enable-background:new 0 0 48 48;" xml:space="preserve"> <g> <path d="M0,23.97c5.52-5.49,11.07-11.01,16.55-16.46c5.49,5.45,11.04,10.97,16.58,16.47c-5.54,5.5-11.1,11.01-16.59,16.47 C11.09,35.02,5.55,29.5,0,23.97z"></path> <path d="M41.06,24.09c-4.55-4.51-8.89-8.82-13.21-13.1c1.25-1.25,2.41-2.41,3.48-3.48c5.53,5.5,11.1,11.03,16.67,16.57 c-5.47,5.43-11.03,10.94-16.53,16.41c-1.09-1.1-2.24-2.26-3.46-3.49C32.24,32.81,36.6,28.5,41.06,24.09z"></path> </g> </svg> 