<?xml version="1.0" encoding="UTF-8"?> <!-- Generator: Adobe Illustrator 23.0.3, SVG Export Plug-In . SVG Version: 6.00 Build 0) --> <svg xmlns="http://www.w3.org/2000/svg" xmlns:xlink="http://www.w3.org/1999/xlink" version="1.1" id="Layer_1" x="0px" y="0px" viewBox="0 0 48 48" style="enable-background:new 0 0 48 48;" xml:space="preserve"> <path d="M47.96,23.22c0,0.97,0,1.93,0,2.9c-0.26,0.55-0.49,1.12-0.78,1.64c-3.02,5.41-6.05,10.81-9.09,16.21 c-0.86,1.53-2.16,2.46-3.88,2.82c-0.19,0.04-0.36,0.16-0.54,0.24c-6.42,0-12.84,0-19.26,0c-0.22-0.08-0.43-0.2-0.66-0.24 c-1.65-0.32-2.9-1.2-3.72-2.68C6.98,38.68,3.9,33.26,0.89,27.8c-1.14-2.07-1.13-4.25,0.01-6.32c2.98-5.44,6.01-10.84,9.01-16.26 c0.76-1.37,1.9-2.25,3.35-2.74c0.38-0.13,0.77-0.25,1.15-0.38c6.28,0,12.56,0,18.84,0c0.26,0.09,0.51,0.2,0.77,0.25 c1.52,0.33,2.76,1.08,3.53,2.45C41.04,10.94,44.5,17.08,47.96,23.22z M19.18,29.53c-2.17-0.88-4.09-1.67-6.25-2.55 c2.59-0.85,4.93-1.64,7.27-2.38c0.55-0.18,0.83-0.41,0.93-1.04c0.37-2.43,0.82-4.85,1.28-7.48c1.17,1.97,2.27,3.75,3.29,5.57 c0.4,0.72,0.8,0.98,1.63,0.68c1.03-0.37,2.11-0.6,3.18-0.88c1.17-0.31,2.34-0.6,3.81-0.97c-1.42,1.7-2.5,3.29-3.87,4.58 c-1.55,1.47-1.64,2.77-0.47,4.5c0.92,1.37,1.55,2.95,2.39,4.61c-2.08-0.54-3.95-1.02-5.99-1.55c0.22,1.42,0.36,2.64,0.62,3.84 c0.07,0.34,0.43,0.78,0.75,0.89c1.69,0.58,3.39,1.12,5.12,1.59c1.5,0.41,2.99,0.33,4.06-1c1.02-1.27,0.55-2.59-0.11-3.86 c-1.04-2.02-2.05-4.06-3.11-6.07c-0.28-0.53-0.24-0.87,0.17-1.34c2.02-2.32,4-4.66,5.94-7.04c0.89-1.09,1.02-2.27,0.42-3.04 c-0.77-0.99-1.81-0.97-2.91-0.66c-2.61,0.73-5.25,1.39-7.85,2.17c-0.83,0.25-1.22,0.04-1.63-0.68c-1.11-1.95-2.23-3.89-3.48-5.75 c-1.38-2.05-3.52-1.83-4.62,0.39c-0.2,0.4-0.35,0.83-0.43,1.26c-0.49,2.53-0.99,5.06-1.41,7.6c-0.1,0.6-0.3,0.87-0.89,1.05 c-2.04,0.62-4.06,1.31-6.08,1.98c-0.75,0.25-1.52,0.46-2.22,0.81c-1.85,0.93-2.26,2.65-1,4.27c0.39,0.5,0.92,0.96,1.48,1.25 c1.5,0.77,3.05,1.44,4.59,2.12c0.29,0.13,0.74,0.23,0.96,0.09C16.18,31.59,17.56,30.62,19.18,29.53z"></path> </svg> 