<?xml version="1.0" encoding="UTF-8"?> <!-- Generator: Adobe Illustrator 23.0.3, SVG Export Plug-In . SVG Version: 6.00 Build 0) --> <svg xmlns="http://www.w3.org/2000/svg" xmlns:xlink="http://www.w3.org/1999/xlink" version="1.1" id="Layer_1" x="0px" y="0px" viewBox="0 0 48 48" style="enable-background:new 0 0 48 48;" xml:space="preserve"> <path d="M37.56,25.12c-5.77,0-10.44,4.67-10.44,10.44C27.12,41.33,31.8,46,37.56,46C43.33,46,48,41.33,48,35.56 S43.33,25.12,37.56,25.12L37.56,25.12z M10.44,25.12C4.67,25.12,0,29.79,0,35.56S4.67,46,10.44,46s10.44-4.67,10.44-10.44 S16.2,25.12,10.44,25.12L10.44,25.12L10.44,25.12z M34.44,12.07c0,5.77-4.67,10.44-10.44,10.44s-10.44-4.68-10.44-10.44 S18.23,1.63,24,1.63S34.44,6.31,34.44,12.07L34.44,12.07L34.44,12.07z"></path> </svg> 