<?xml version="1.0" encoding="UTF-8"?> <!-- Generator: Adobe Illustrator 23.0.3, SVG Export Plug-In . SVG Version: 6.00 Build 0) --> <svg xmlns="http://www.w3.org/2000/svg" xmlns:xlink="http://www.w3.org/1999/xlink" version="1.1" id="Layer_1" x="0px" y="0px" viewBox="0 0 48 48" style="enable-background:new 0 0 48 48;" xml:space="preserve"> <style type="text/css"> .st0{fill:#FFFFFF;} </style> <g> <path d="M48,17.65V6.92C47.8,4.23,44.55,0.23,41.3,0H6.7C3.45,0.23,0.2,4.23,0,6.92v23.15l0,0V40.8c0.2,2.69,3.45,6.69,6.7,6.91 h34.6c3.25-0.23,6.5-4.23,6.7-6.91V17.65"></path> <path class="st0" d="M14.62,30.92l8.4-16.85l5.6,10.37C21.5,25.69,14.62,30.92,14.62,30.92z M36.08,28.69l3.88-0.35 c0,0,0.83-4.31,0.13-4.45c-0.7-0.14-6.42,0.32-6.42,0.32L24.25,6.77H21.9L5.3,40.94h5.59c6.4-9.21,20.24-11.63,20.24-11.63 l6.28,11.63h5.29L36.08,28.69"></path> </g> </svg> 