<?xml version="1.0" encoding="UTF-8"?> <svg xmlns="http://www.w3.org/2000/svg" xmlns:xlink="http://www.w3.org/1999/xlink" width="60pt" height="60pt" viewBox="0 0 60 60" version="1.1"><g id="surface1"><path style=" stroke:none;fill-rule:nonzero;fill:rgb(0%,0%,0%);fill-opacity:1;" d="M 48.613281 46.960938 C 36.125 46.960938 23.625 46.960938 11.136719 46.960938 C 11.074219 46.949219 11 46.914062 10.9375 46.914062 C 8.335938 46.675781 6 45.75 3.960938 44.113281 C 2.125 42.636719 0.789062 40.8125 0.226562 38.488281 C 0.113281 38.101562 0.0742188 37.6875 0 37.289062 C 0 36.625 0 35.960938 0 35.300781 C 0.0234375 35.101562 0.0625 34.914062 0.0859375 34.710938 C 0.425781 32.460938 1.386719 30.5 2.800781 28.738281 C 3.925781 27.335938 5.261719 26.226562 6.9375 25.523438 C 7.199219 25.414062 7.476562 25.324219 7.738281 25.226562 C 7.5 18.101562 12.210938 11.875 18.710938 9.976562 C 21.800781 9.074219 24.875 9.125 27.898438 10.1875 C 32.074219 11.648438 35.039062 14.476562 36.925781 18.449219 C 39.488281 16.863281 42.136719 16.585938 44.824219 17.976562 C 47.5 19.363281 48.824219 21.675781 49.050781 24.664062 C 49.210938 24.675781 49.363281 24.699219 49.511719 24.710938 C 49.664062 24.738281 49.8125 24.75 49.960938 24.789062 C 54.664062 25.863281 57.699219 28.773438 59.324219 33.25 C 59.539062 33.851562 59.613281 34.488281 59.75 35.113281 C 59.75 35.875 59.75 36.636719 59.75 37.398438 C 59.738281 37.476562 59.699219 37.550781 59.699219 37.625 C 59.574219 38.75 59.226562 39.800781 58.664062 40.761719 C 56.8125 43.949219 53.988281 45.824219 50.449219 46.664062 C 49.835938 46.800781 49.210938 46.863281 48.613281 46.960938 Z M 22.386719 25.988281 C 22.398438 26.039062 22.398438 26.085938 22.398438 26.125 C 23 29.1875 23.585938 32.261719 24.1875 35.324219 C 24.476562 36.800781 24.761719 38.273438 25.0625 39.75 C 25.074219 39.835938 25.1875 39.976562 25.25 39.976562 C 26.0625 39.988281 26.875 39.988281 27.699219 39.988281 C 28.300781 36.488281 28.898438 33 29.5 29.511719 C 29.585938 29.664062 29.613281 29.8125 29.636719 29.949219 C 30.199219 33.210938 30.761719 36.488281 31.324219 39.75 C 31.351562 39.925781 31.425781 40 31.613281 40 C 32.300781 39.988281 33 39.988281 33.6875 40 C 33.914062 40 33.988281 39.9375 34.039062 39.710938 C 34.648438 36.613281 35.273438 33.523438 35.898438 30.4375 C 36.199219 28.960938 36.488281 27.5 36.800781 26.011719 C 36.050781 26.011719 35.324219 26.011719 34.5625 26.011719 C 33.949219 29.625 33.351562 33.238281 32.738281 36.851562 C 32.710938 36.851562 32.6875 36.851562 32.675781 36.835938 C 32.050781 33.226562 31.425781 29.625 30.789062 26.011719 C 29.976562 26.011719 29.1875 26.011719 28.398438 26.011719 C 27.789062 29.613281 27.175781 33.199219 26.5625 36.773438 C 26.539062 36.773438 26.511719 36.773438 26.488281 36.773438 C 25.875 33.1875 25.261719 29.601562 24.648438 26.011719 C 23.898438 25.988281 23.148438 25.988281 22.386719 25.988281 Z M 22.613281 39.976562 C 22.585938 39.851562 22.574219 39.75 22.550781 39.664062 C 21.863281 37.074219 21.175781 34.476562 20.476562 31.886719 C 19.976562 30.011719 19.476562 28.136719 18.976562 26.261719 C 18.949219 26.148438 18.824219 25.988281 18.75 25.988281 C 17.835938 25.960938 16.925781 25.976562 16 25.976562 C 14.664062 30.636719 13.324219 35.289062 11.976562 39.976562 C 12.699219 39.976562 13.375 39.960938 14.039062 39.988281 C 14.273438 40 14.363281 39.898438 14.414062 39.6875 C 14.648438 38.726562 14.925781 37.773438 15.164062 36.8125 C 15.210938 36.613281 15.300781 36.539062 15.511719 36.550781 C 16.699219 36.5625 17.898438 36.5625 19.085938 36.550781 C 19.324219 36.550781 19.414062 36.636719 19.460938 36.851562 C 19.699219 37.8125 19.9375 38.773438 20.199219 39.726562 C 20.226562 39.824219 20.335938 39.976562 20.414062 39.976562 C 21.148438 39.988281 21.875 39.976562 22.613281 39.976562 Z M 46.5625 29.6875 C 46.5625 29.363281 46.574219 29.0625 46.5625 28.761719 C 46.460938 27.25 45.601562 26.210938 44.125 25.863281 C 43.113281 25.625 42.101562 25.613281 41.085938 25.863281 C 39.710938 26.210938 38.710938 27 38.363281 28.414062 C 38.226562 28.988281 38.1875 29.601562 38.226562 30.199219 C 38.289062 31.375 38.851562 32.273438 39.875 32.875 C 40.324219 33.136719 40.824219 33.351562 41.3125 33.550781 C 41.976562 33.8125 42.664062 34 43.3125 34.261719 C 44.460938 34.738281 44.863281 35.75 44.664062 36.914062 C 44.476562 38 43.636719 38.574219 42.414062 38.539062 C 41.226562 38.5 40.476562 37.863281 40.3125 36.726562 C 40.261719 36.375 40.25 36.011719 40.226562 35.625 C 39.851562 35.625 39.488281 35.625 39.113281 35.625 C 38.75 35.625 38.375 35.625 38.023438 35.625 C 38.023438 36 38.011719 36.3125 38.023438 36.636719 C 38.148438 38.4375 39.199219 39.710938 40.886719 40.085938 C 42.039062 40.335938 43.1875 40.300781 44.3125 39.960938 C 45.5625 39.601562 46.449219 38.800781 46.761719 37.511719 C 46.914062 36.914062 46.960938 36.289062 46.949219 35.675781 C 46.925781 34.238281 46.175781 33.25 44.898438 32.648438 C 44.601562 32.511719 44.289062 32.398438 43.988281 32.273438 C 43.238281 31.976562 42.460938 31.726562 41.738281 31.375 C 40.613281 30.8125 40.226562 29.851562 40.5625 28.636719 C 40.761719 27.925781 41.25 27.523438 41.976562 27.414062 C 42.25 27.375 42.539062 27.375 42.8125 27.414062 C 43.648438 27.5 44.175781 28.011719 44.300781 28.851562 C 44.335938 29.125 44.351562 29.398438 44.375 29.6875 C 45.101562 29.6875 45.8125 29.6875 46.5625 29.6875 Z M 46.5625 29.6875 "></path><path style=" stroke:none;fill-rule:nonzero;fill:rgb(0%,0%,0%);fill-opacity:1;" d="M 15.6875 34.75 C 16.25 32.460938 16.800781 30.199219 17.351562 27.9375 C 17.375 27.9375 17.398438 27.9375 17.425781 27.9375 C 17.960938 30.199219 18.488281 32.476562 19.023438 34.75 C 17.898438 34.75 16.8125 34.75 15.6875 34.75 Z M 15.6875 34.75 "></path></g></svg> 