<?xml version="1.0" encoding="UTF-8"?> <svg xmlns="http://www.w3.org/2000/svg" xmlns:xlink="http://www.w3.org/1999/xlink" width="60pt" height="60pt" viewBox="0 0 60 60" version="1.1"><g id="surface1"><path style=" stroke:none;fill-rule:evenodd;fill:rgb(0%,0%,0%);fill-opacity:1;" d="M 54.550781 22.976562 C 52.113281 22.976562 50.738281 23.449219 49.949219 24.550781 C 49.125 25.699219 48.960938 27.523438 48.960938 30.085938 C 48.960938 35.113281 49.738281 37.210938 54.5625 37.210938 C 55.136719 37.210938 57.125 37.199219 58.273438 37.0625 C 58.726562 36.988281 58.925781 36.648438 58.925781 36.335938 L 58.925781 35.789062 C 58.925781 35.351562 58.601562 35.023438 58.164062 35.023438 L 54.5625 35.023438 C 51.835938 35.023438 51.351562 34.386719 51.289062 30.738281 L 51.289062 29.5625 C 51.3125 25.835938 51.800781 25.175781 54.5625 25.175781 C 57.113281 25.175781 57.601562 25.761719 57.6875 29.039062 L 53.625 29.039062 L 53.625 31.25 L 58.949219 31.25 C 60 31.25 60 30.511719 60 30.273438 L 60 29.5625 C 59.925781 24.449219 58.699219 22.976562 54.550781 22.976562 M 47.523438 23.175781 L 47.460938 23.164062 C 46.960938 23.0625 45.613281 22.988281 44.9375 22.988281 C 42.5625 22.988281 41.300781 23.988281 41.300781 25.875 L 41.300781 36.375 C 41.300781 36.8125 41.601562 37.113281 42.039062 37.113281 L 42.886719 37.113281 C 43.324219 37.113281 43.625 36.8125 43.625 36.375 L 43.625 26.074219 C 43.625 25.613281 43.738281 25.1875 45.164062 25.1875 L 47.261719 25.1875 C 47.460938 25.210938 47.664062 25.148438 47.8125 25.023438 C 47.976562 24.886719 48.0625 24.6875 48.0625 24.449219 L 48.0625 23.925781 C 48.074219 23.550781 47.875 23.289062 47.523438 23.175781 M 37.363281 23.148438 L 36.511719 23.148438 C 36.074219 23.148438 35.773438 23.449219 35.773438 23.886719 L 35.773438 35.023438 L 32.25 35.023438 C 30.074219 35.023438 29.1875 34.886719 29.1875 31.414062 L 29.1875 23.875 C 29.1875 23.4375 28.886719 23.136719 28.449219 23.136719 L 27.625 23.136719 C 27.1875 23.136719 26.863281 23.449219 26.863281 23.875 L 26.863281 31.398438 C 26.863281 36.335938 28.648438 37.199219 32.414062 37.199219 C 33.761719 37.199219 35.613281 37.199219 37.386719 36.949219 L 37.425781 36.9375 C 37.863281 36.824219 38.085938 36.574219 38.085938 36.199219 L 38.085938 23.875 C 38.101562 23.449219 37.800781 23.148438 37.363281 23.148438 "></path><path style=" stroke:none;fill-rule:evenodd;fill:rgb(0%,0%,0%);fill-opacity:1;" d="M 24.261719 23.488281 C 24.148438 23.261719 23.925781 23.113281 23.636719 23.113281 L 22.550781 23.113281 C 22.238281 23.113281 22 23.238281 21.875 23.476562 L 20.261719 25.835938 L 21.675781 27.761719 L 24.136719 24.226562 C 24.414062 23.898438 24.324219 23.601562 24.261719 23.488281 "></path><path style=" stroke:none;fill-rule:evenodd;fill:rgb(0%,0%,0%);fill-opacity:1;" d="M 15.761719 23.449219 C 15.511719 23.125 15.1875 23.125 15.074219 23.125 L 14.011719 23.125 C 13.738281 23.125 13.511719 23.25 13.398438 23.460938 C 13.273438 23.6875 13.300781 23.949219 13.476562 24.199219 L 17.414062 29.664062 L 12.875 35.988281 C 12.710938 36.226562 12.699219 36.488281 12.8125 36.710938 C 12.925781 36.925781 13.148438 37.050781 13.425781 37.050781 L 14.511719 37.050781 C 14.789062 37.050781 15.039062 36.898438 15.164062 36.675781 L 20.238281 29.675781 Z M 15.761719 23.449219 "></path><path style=" stroke:none;fill-rule:evenodd;fill:rgb(0%,0%,0%);fill-opacity:1;" d="M 24.8125 36.050781 L 21.648438 31.710938 L 20.25 33.625 L 22.75 36.960938 L 22.8125 36.988281 C 22.914062 37.039062 23.023438 37.050781 23.125 37.0625 L 24.1875 37.0625 C 24.449219 37.0625 24.664062 36.949219 24.789062 36.75 C 24.925781 36.550781 24.925781 36.289062 24.8125 36.050781 "></path><path style=" stroke:none;fill-rule:evenodd;fill:rgb(0%,0%,0%);fill-opacity:1;" d="M 8.699219 31.148438 L 8.699219 34.835938 C 7.625 35 5.976562 35.039062 5.425781 35.039062 C 2.949219 35.039062 2.675781 34.363281 2.675781 32.925781 C 2.675781 31.574219 3.175781 31.148438 4.75 31.148438 Z M 5.300781 22.976562 C 4.539062 22.976562 3.488281 23 2.1875 23.148438 L 2.125 23.164062 C 1.75 23.273438 1.550781 23.511719 1.550781 23.898438 L 1.550781 24.425781 C 1.550781 24.875 1.835938 25.164062 2.289062 25.164062 L 5.289062 25.164062 C 7.699219 25.164062 8.6875 25.8125 8.6875 27.425781 L 8.6875 28.988281 L 4.738281 28.988281 C 1.648438 28.988281 0.324219 30.164062 0.324219 32.925781 C 0.324219 36 1.6875 37.210938 5.199219 37.210938 C 6.625 37.210938 9.238281 37.101562 10.199219 36.8125 C 11.011719 36.585938 11.011719 35.960938 11.011719 35.761719 L 11.011719 27.289062 C 11.011719 24.386719 9.148438 22.976562 5.300781 22.976562 Z M 5.300781 22.976562 "></path></g></svg> 