<?xml version="1.0" encoding="UTF-8"?> <svg xmlns="http://www.w3.org/2000/svg" xmlns:xlink="http://www.w3.org/1999/xlink" width="60pt" height="60pt" viewBox="0 0 60 60" version="1.1"><g id="surface1"><path style=" stroke:none;fill-rule:nonzero;fill:rgb(0%,0%,0%);fill-opacity:1;" d="M 1.550781 28.25 C 2.574219 28.875 4.761719 29.550781 7.8125 29.550781 C 9.289062 29.550781 10.710938 29.386719 11.925781 29.085938 C 12.0625 29.050781 12.164062 28.9375 12.175781 28.800781 C 12.363281 26.488281 13 24.25 14.050781 22.1875 C 14.136719 22.023438 14.0625 21.824219 13.898438 21.75 C 13.898438 21.75 13.886719 21.75 13.886719 21.75 C 12.6875 21.199219 11.449219 20.460938 10.3125 19.636719 C 8.5625 18.363281 7.074219 16.914062 6.011719 15.460938 C 5.898438 15.3125 5.699219 15.289062 5.550781 15.386719 C 5.488281 15.4375 5.4375 15.511719 5.425781 15.585938 C 5.039062 17.585938 4.488281 19.664062 3.800781 21.773438 C 3.101562 23.925781 2.300781 25.976562 1.414062 27.851562 C 1.351562 27.988281 1.398438 28.164062 1.550781 28.25 Z M 14.6875 39.773438 C 14.773438 39.664062 14.789062 39.511719 14.710938 39.386719 C 13.5 37.414062 12.699219 35.226562 12.335938 32.9375 C 12.3125 32.761719 12.136719 32.636719 11.960938 32.664062 C 11.960938 32.664062 11.949219 32.664062 11.949219 32.664062 C 10.664062 32.914062 9.238281 33.050781 7.8125 33.050781 C 5.636719 33.050781 3.585938 32.75 1.875 32.199219 C 1.800781 32.039062 1.601562 31.960938 1.4375 32.039062 C 1.273438 32.113281 1.199219 32.3125 1.273438 32.476562 C 1.3125 32.550781 1.386719 32.613281 1.460938 32.648438 C 2.324219 34.5 3.101562 36.5 3.789062 38.613281 C 4.488281 40.761719 5.039062 42.886719 5.4375 44.925781 C 5.476562 45.085938 5.625 45.199219 5.789062 45.1875 C 7 45.085938 9.164062 44.351562 11.613281 42.5625 C 12.824219 41.699219 13.875 40.738281 14.6875 39.773438 Z M 32.585938 4 C 32.488281 3.773438 32.289062 3.601562 32.039062 3.550781 L 16.351562 0.300781 C 16.039062 0.238281 15.710938 0.375 15.539062 0.636719 C 15.363281 0.914062 15.375 1.25 15.5625 1.511719 L 17.925781 4.726562 C 16.574219 5.925781 15.175781 7.050781 13.710938 8.113281 C 11.886719 9.4375 10.039062 10.625 8.226562 11.625 C 8.074219 11.699219 8.011719 11.886719 8.074219 12.039062 C 8.539062 13.148438 9.914062 14.988281 12.375 16.773438 C 13.574219 17.648438 14.824219 18.351562 15.976562 18.8125 C 16.011719 18.824219 16.050781 18.835938 16.101562 18.835938 C 16.199219 18.835938 16.289062 18.800781 16.351562 18.726562 C 17.949219 16.851562 19.9375 15.335938 22.164062 14.273438 L 22.960938 18.273438 C 23.050781 18.699219 23.449219 18.960938 23.875 18.886719 C 24.085938 18.851562 24.273438 18.710938 24.386719 18.523438 L 32.550781 4.726562 C 32.675781 4.488281 32.6875 4.226562 32.585938 4 Z M 23.074219 46.511719 C 20.914062 45.625 18.9375 44.3125 17.273438 42.664062 C 17.148438 42.539062 16.9375 42.539062 16.8125 42.664062 C 16.8125 42.664062 16.800781 42.675781 16.800781 42.675781 C 15.898438 43.636719 14.824219 44.585938 13.6875 45.425781 C 11.9375 46.699219 10.101562 47.664062 8.386719 48.226562 C 8.261719 48.261719 8.175781 48.375 8.164062 48.5 C 8.148438 48.625 8.210938 48.75 8.324219 48.824219 C 10.101562 49.8125 11.914062 50.976562 13.710938 52.289062 C 15.574219 53.636719 17.289062 55.050781 18.824219 56.488281 C 18.949219 56.601562 19.136719 56.613281 19.261719 56.5 C 20.199219 55.6875 21.523438 53.789062 22.449219 50.914062 C 22.898438 49.511719 23.1875 48.113281 23.273438 46.851562 C 23.289062 46.6875 23.210938 46.5625 23.074219 46.511719 Z M 58.136719 32.039062 C 57.101562 31.414062 54.914062 30.738281 51.875 30.738281 C 50.398438 30.738281 48.976562 30.898438 47.761719 31.199219 C 47.625 31.238281 47.523438 31.351562 47.511719 31.488281 C 47.324219 33.761719 46.6875 36.050781 45.636719 38.101562 C 45.550781 38.261719 45.613281 38.449219 45.773438 38.539062 C 45.773438 38.539062 45.789062 38.539062 45.789062 38.550781 C 46.988281 39.101562 48.226562 39.835938 49.363281 40.664062 C 51.113281 41.9375 52.601562 43.386719 53.664062 44.835938 C 53.773438 44.988281 53.976562 45.011719 54.125 44.914062 C 54.1875 44.863281 54.238281 44.789062 54.25 44.710938 C 54.636719 42.710938 55.1875 40.636719 55.875 38.523438 C 56.574219 36.375 57.375 34.324219 58.261719 32.449219 C 58.335938 32.300781 58.273438 32.125 58.136719 32.039062 Z M 45 20.511719 C 44.914062 20.625 44.898438 20.773438 44.976562 20.898438 C 46.1875 22.875 46.988281 25.0625 47.351562 27.351562 C 47.363281 27.4375 47.414062 27.511719 47.488281 27.574219 C 47.5625 27.625 47.648438 27.648438 47.738281 27.625 C 49.023438 27.375 50.449219 27.238281 51.875 27.238281 C 54.050781 27.238281 56.101562 27.539062 57.8125 28.085938 C 57.851562 28.101562 57.875 28.101562 57.914062 28.101562 C 58.101562 28.113281 58.25 27.949219 58.25 27.773438 C 58.25 27.699219 58.226562 27.636719 58.1875 27.574219 C 57.335938 25.75 56.5625 23.761719 55.886719 21.675781 C 55.1875 19.523438 54.636719 17.398438 54.238281 15.363281 C 54.199219 15.199219 54.050781 15.085938 53.886719 15.101562 C 52.6875 15.199219 50.511719 15.9375 48.0625 17.726562 C 46.863281 18.574219 45.800781 19.550781 45 20.511719 Z M 36.613281 13.875 C 38.761719 14.761719 40.773438 16.085938 42.414062 17.726562 C 42.476562 17.789062 42.5625 17.824219 42.648438 17.824219 L 42.664062 17.824219 C 42.75 17.824219 42.835938 17.789062 42.898438 17.726562 C 43.800781 16.761719 44.875 15.8125 46.011719 14.976562 C 47.773438 13.699219 49.601562 12.726562 51.3125 12.175781 C 51.488281 12.113281 51.574219 11.925781 51.523438 11.761719 C 51.5 11.6875 51.449219 11.625 51.375 11.574219 C 49.601562 10.585938 47.789062 9.425781 45.988281 8.125 C 44.125 6.773438 42.414062 5.363281 40.875 3.925781 C 40.75 3.8125 40.5625 3.800781 40.4375 3.914062 C 39.5 4.726562 38.175781 6.625 37.25 9.5 C 36.800781 10.898438 36.511719 12.300781 36.425781 13.5625 C 36.386719 13.6875 36.476562 13.8125 36.613281 13.875 Z M 47.3125 43.511719 C 46.113281 42.636719 44.863281 41.9375 43.710938 41.476562 C 43.585938 41.425781 43.4375 41.460938 43.335938 41.5625 C 41.738281 43.4375 39.75 44.949219 37.523438 46.011719 L 36.726562 42.011719 C 36.636719 41.585938 36.238281 41.324219 35.8125 41.398438 C 35.601562 41.4375 35.414062 41.574219 35.300781 41.761719 L 27.136719 55.5625 C 26.925781 55.925781 27.039062 56.398438 27.414062 56.625 C 27.488281 56.664062 27.5625 56.699219 27.648438 56.710938 L 43.335938 59.976562 C 43.386719 60 43.4375 60 43.5 60 C 43.925781 60.011719 44.289062 59.648438 44.289062 59.226562 C 44.289062 59.011719 44.199219 58.824219 44.074219 58.6875 L 41.773438 55.550781 C 43.125 54.351562 44.523438 53.226562 45.988281 52.164062 C 47.824219 50.835938 49.664062 49.648438 51.488281 48.648438 C 51.636719 48.5625 51.699219 48.386719 51.636719 48.238281 C 51.148438 47.125 49.773438 45.300781 47.3125 43.511719 Z M 47.3125 43.511719 "></path></g></svg> 