<?xml version="1.0" encoding="UTF-8"?> <!-- Generator: Adobe Illustrator 23.0.3, SVG Export Plug-In . SVG Version: 6.00 Build 0) --> <svg xmlns="http://www.w3.org/2000/svg" xmlns:xlink="http://www.w3.org/1999/xlink" version="1.1" id="Layer_1" x="0px" y="0px" viewBox="0 0 48 48" style="enable-background:new 0 0 48 48;" xml:space="preserve"> <path d="M48,34.87c0,0.49,0,0.98,0,1.47c-0.29,1.03-0.96,1.79-1.77,2.43c-0.68,0.54-1.4,1.05-2.14,1.5 c-2.3,1.38-4.78,2.34-7.34,3.11c-3.59,1.08-7.25,1.71-10.99,1.87c-2.64,0.11-5.27-0.03-7.88-0.42c-3.09-0.45-6.11-1.19-9.04-2.27 c-2.2-0.81-4.33-1.78-6.25-3.15C1.46,38.6,0.41,37.73,0,36.34c0-0.49,0-0.98,0-1.47c0.01-0.1,0.04-0.21,0.04-0.31 c0.1-2.19,0.43-4.35,0.97-6.47c1.56-6.16,4.38-11.67,8.6-16.43c2.16-2.44,4.64-4.49,7.57-5.96c1.86-0.93,3.83-1.53,5.91-1.68 c2.28-0.16,4.46,0.28,6.57,1.15c2.78,1.15,5.17,2.9,7.31,4.99c3.63,3.57,6.3,7.78,8.24,12.47c1.49,3.6,2.43,7.34,2.71,11.24 C47.94,34.2,47.97,34.53,48,34.87z M24.06,39.17c1.35-0.08,2.71-0.13,4.06-0.23c1.95-0.15,3.87-0.48,5.74-1.03 c1.95-0.58,3.8-1.38,5.4-2.67c0.77-0.62,1.44-1.33,1.9-2.21c0.15-0.29,0.23-0.58,0.19-0.92c-0.13-1.04-0.5-2.01-0.93-2.95 c-1.19-2.67-2.73-5.14-4.41-7.52c-1.32-1.88-2.72-3.72-4.4-5.3c-0.44-0.42-0.95-0.77-1.45-1.11c-0.49-0.33-1.02-0.29-1.48,0.08 c-0.38,0.31-0.78,0.64-1.06,1.04c-0.8,1.11-1.56,2.25-2.3,3.4c-0.83,1.29-1.6,2.62-2.59,3.8c-0.46,0.55-0.94,1.06-1.58,1.41 c-0.62,0.34-1.24,0.35-1.83-0.05c-0.37-0.26-0.74-0.54-1.05-0.87c-0.71-0.75-1.38-1.55-2.1-2.3c-0.35-0.37-0.76-0.69-1.18-0.98 c-0.46-0.31-0.96-0.3-1.42,0.02c-0.38,0.28-0.77,0.56-1.1,0.89c-1.48,1.47-2.63,3.19-3.67,4.99c-0.73,1.27-1.34,2.59-1.79,3.98 c-0.42,1.3-0.2,2.41,0.69,3.43c0.67,0.77,1.44,1.42,2.3,1.96c1.73,1.09,3.63,1.76,5.61,2.23C18.4,38.9,21.22,39.11,24.06,39.17z"></path> </svg> 