<?xml version="1.0" encoding="UTF-8"?> <!-- Generator: Adobe Illustrator 25.1.0, SVG Export Plug-In . SVG Version: 6.00 Build 0) --> <svg xmlns="http://www.w3.org/2000/svg" xmlns:xlink="http://www.w3.org/1999/xlink" version="1.1" id="Layer_1" x="0px" y="0px" viewBox="0 0 48 48" style="enable-background:new 0 0 48 48;" xml:space="preserve"> <style type="text/css"> .st0{fill:#26C7DD;} </style> <g> <path class="st0" d="M24,48c8.8,0,17.8-2.1,17.8-6.2V29.9V17.8V5.9l0,0C41.4,2,32.7,0,24,0S6.7,2,6.3,5.9l0,0v11.8v12.1v11.8 C6.3,45.8,15.2,48,24,48z M24,2.4c10,0,15.4,2.5,15.4,3.9S34,10.1,24,10.1S8.6,7.5,8.6,6.2S14.1,2.4,24,2.4z M8.6,17.8V9.5 c3.2,1.9,9.3,3,15.4,3s12.2-1,15.4-3v8.3v0.3C39.4,19.4,34,22,24,22S8.6,19.4,8.6,18.1V17.8z M8.6,21.3c3.2,1.9,9.3,3,15.4,3 s12.2-1,15.4-3v8.6c0,1.3-5.4,3.9-15.4,3.9S8.6,31.2,8.6,29.9V21.3z M8.6,33.2c3.2,1.9,9.3,3,15.4,3s12.2-1,15.4-3v8.6 c0,1.3-5.4,3.9-15.4,3.9S8.6,43.1,8.6,41.8V33.2z"></path> <path class="st0" d="M35.9,17.2c1,0,1.8-0.8,1.8-1.8s-0.8-1.8-1.8-1.8s-1.8,0.8-1.8,1.8C34.1,16.4,34.9,17.2,35.9,17.2z"></path> <path class="st0" d="M36,29c1,0,1.8-0.8,1.8-1.8S37,25.4,36,25.4s-1.8,0.8-1.8,1.8S35,29,36,29z"></path> <path class="st0" d="M36,40.9c1,0,1.8-0.8,1.8-1.8S37,37.3,36,37.3s-1.8,0.8-1.8,1.8C34.2,40.1,35,40.9,36,40.9z"></path> </g> </svg> 