<?xml version="1.0" encoding="UTF-8"?> <!-- Generator: Adobe Illustrator 23.0.3, SVG Export Plug-In . SVG Version: 6.00 Build 0) --> <svg xmlns="http://www.w3.org/2000/svg" xmlns:xlink="http://www.w3.org/1999/xlink" version="1.1" id="Layer_1" x="0px" y="0px" viewBox="0 0 432 367" style="enable-background:new 0 0 432 367;" xml:space="preserve"> <style type="text/css"> .st0{fill:#FED94B;} .st1{fill:#2B89A3;} .st2{fill:#40C4FF;} .st3{fill:#39ABD3;} .st4{fill:url(#SVGID_1_);} .st5{fill:url(#SVGID_2_);} .st6{fill:url(#SVGID_3_);} .st7{fill:url(#SVGID_4_);} .st8{fill:url(#SVGID_5_);} .st9{fill:url(#SVGID_6_);} .st10{fill:url(#SVGID_7_);} .st11{fill:url(#SVGID_8_);} .st12{fill:url(#SVGID_9_);} .st13{fill:url(#SVGID_10_);} .st14{fill:#EF4335;} .st15{fill:url(#SVGID_11_);} .st16{fill:url(#SVGID_12_);} .st17{fill:url(#SVGID_13_);} .st18{fill:url(#SVGID_14_);} .st19{fill:url(#SVGID_15_);} .st20{fill:url(#SVGID_16_);} .st21{fill:url(#SVGID_17_);} .st22{fill:url(#SVGID_18_);} .st23{fill:url(#SVGID_19_);} .st24{fill:url(#SVGID_20_);} .st25{fill:#7D97F4;} .st26{fill:#2275EF;} .st27{fill:#2176FF;} .st28{fill:url(#SVGID_21_);} .st29{fill:url(#SVGID_22_);} .st30{fill:url(#SVGID_23_);} .st31{fill:#BDD0FB;} .st32{fill:#91B3FA;} .st33{fill:url(#SVGID_24_);} .st34{fill:url(#SVGID_25_);} .st35{fill:url(#SVGID_26_);} .st36{fill:url(#SVGID_27_);} .st37{fill:url(#SVGID_28_);} .st38{fill:url(#SVGID_29_);} .st39{fill:url(#SVGID_30_);} .st40{fill:url(#SVGID_31_);} .st41{fill:url(#SVGID_32_);} .st42{fill:url(#SVGID_33_);} .st43{fill:url(#SVGID_34_);} .st44{fill:url(#SVGID_35_);} .st45{fill:url(#SVGID_36_);} .st46{fill:url(#SVGID_37_);} .st47{fill:url(#SVGID_38_);} .st48{fill:url(#SVGID_39_);} .st49{fill:url(#SVGID_40_);} .st50{opacity:0.31;fill:url(#SVGID_41_);} .st51{fill:url(#SVGID_42_);} .st52{fill:url(#SVGID_43_);} .st53{fill:url(#SVGID_44_);} .st54{fill:url(#SVGID_45_);} .st55{fill:url(#SVGID_46_);} .st56{fill:url(#SVGID_47_);} </style> <path class="st0" d="M181.3,367c-4.5,0-9.1,0-13.6,0c-4.2-0.3-8.5-0.8-12.7-1c-15.4-1-30.5-3.6-45.4-7.9 c-27.4-7.7-51.1-21.2-69.7-43.2c-15-17.8-23.9-38.1-26.3-61.3c-0.3-3.3-0.7-6.5-1-9.8c0-2.6,0-5.2,0-7.8c0.2-1.4,0.4-2.8,0.6-4.3 c0.5-5.2,0.8-10.5,1.6-15.6c3-18.7,8.8-36.6,16.6-53.9c20.7-45.5,50-84.8,86.8-118.5c12-11,24.6-21.1,39.2-28.5 c12.6-6.4,25.7-11.7,39.7-14c3.2-0.5,6.5-0.9,9.8-1.3c2.1,0,4.2,0,6.3,0c0.9,0.2,1.9,0.5,2.8,0.6c12.4,1,23.4,5.3,32.9,13.3 c13.5,11.3,21.6,26.1,26.2,42.9c2.5,9.1,6.9,17,13.6,23.6c9.8,9.7,21.6,15.8,34.7,19.5c8.6,2.4,17.5,3.6,26.2,5.6 c40.5,9.3,60.6,37.9,66.6,70.9c1.8,9.9,2.7,19.9,4.1,29.9c2.6,18.3,4.6,36.7,3.2,55.2c-0.6,7.9-1.9,15.5-6.8,22.1 c-3.8,5.1-8.1,9.6-13.8,12.7c-41.8,23-85,42.7-131,55.8c-28.7,8.2-57.9,13.6-87.8,14.5C183.2,366.6,182.3,366.8,181.3,367z"></path> <g> <rect x="69.9" y="162.3" class="st1" width="218.8" height="183.6"></rect> <path class="st2" d="M297,138.5L62,140c-3.2,0-5.8,2.4-5.8,5.2v35.1c0,2.8,2.5,5,5.5,5l235.2,1.5c3.5,0,6.3-2.3,6.3-5.3v-37.7 C303.3,140.9,300.5,138.5,297,138.5z"></path> <g> <path class="st3" d="M297,138.5L61.8,140c-3.1,0-5.6,2.3-5.6,5l247.1-1.2C303.3,140.9,300.5,138.5,297,138.5z"></path> <path class="st3" d="M61.8,185.3l235.2,1.5c3.5,0,6.3-2.3,6.3-5.3l-247.1-1.2C56.2,183,58.7,185.3,61.8,185.3z"></path> </g> <path class="st2" d="M297.2,197L62,196.5c-3.3,0-6,2.4-6,5.3L55.5,238c0,2.8,2.5,5.2,5.7,5.2l235.9,2.1c3.4,0,6.2-2.3,6.2-5.3 v-37.7C303.3,199.4,300.6,197,297.2,197z"></path> <g> <path class="st3" d="M297.2,197l-235.4-0.5c-3.2,0-5.8,2.3-5.8,5.1l247.3,0.7C303.3,199.4,300.5,197,297.2,197z"></path> <path class="st3" d="M61.2,243.2l235.9,2.1c3.4,0,6.1-2.3,6.1-5.3l-247.8-2C55.5,240.9,58,243.2,61.2,243.2z"></path> </g> <path class="st2" d="M297.4,255.5h-235c-3.4,0-6.1,2.6-6.1,5.6v37.5c0,2.9,2.6,5.3,5.9,5.3h235.2c3.3,0,5.9-2.4,5.9-5.3V261 C303.3,258,300.6,255.5,297.4,255.5z"></path> <g> <path class="st3" d="M297.4,255.5H62.1c-3.3,0-5.9,2.6-5.9,5.4h247.1C303.3,258.1,300.6,255.5,297.4,255.5z"></path> <path class="st3" d="M62.1,304h235.2c3.3,0,5.9-2.4,5.9-5.4H56.2C56.2,301.6,58.9,304,62.1,304z"></path> </g> <path class="st2" d="M297.6,315.2l-235.1-0.9c-3.5,0-6.3,2.5-6.3,5.5v37.5c0,2.9,2.7,5.3,6,5.3l235.2,0.1c3.2,0,5.8-2.3,5.8-5.2 l0.1-37C303.4,317.5,300.8,315.2,297.6,315.2z"></path> <g> <path class="st3" d="M297.6,315.2l-235.4-0.9c-3.3,0-6,2.4-6,5.3l247.2,0.9C303.4,317.5,300.8,315.2,297.6,315.2z"></path> <path class="st3" d="M62.2,362.6l235.3,0.1c3.2,0,5.8-2.3,5.8-5.2l-247.1-0.2C56.2,360.2,58.9,362.6,62.2,362.6z"></path> </g> <g> <linearGradient id="SVGID_1_" gradientUnits="userSpaceOnUse" x1="136.6634" y1="102.6224" x2="149.6242" y2="102.6224"> <stop offset="0" style="stop-color:#4042E2"></stop> <stop offset="1" style="stop-color:#4F52FF"></stop> </linearGradient> <path class="st4" d="M149.6,106.1c0-0.1,0-0.2,0-0.3c0-0.3-0.1-0.5-0.3-0.7c-1.2-1.1-5.6-4.7-11.9-5.8c-0.3-0.1-0.6,0.1-0.8,0.3 c0.5,0.1,1.2,0.2,2.2,0.4C141.9,100.8,146.4,102.9,149.6,106.1z"></path> <linearGradient id="SVGID_2_" gradientUnits="userSpaceOnUse" x1="136.5229" y1="104.949" x2="149.6127" y2="104.949"> <stop offset="0" style="stop-color:#09005D"></stop> <stop offset="1" style="stop-color:#1A0F91"></stop> </linearGradient> <path class="st5" d="M138.8,100c-0.9-0.2-1.6-0.4-2.2-0.4c-0.2,0.2-0.2,0.6,0,0.9c0.1,0.2,0.2,0.3,0.4,0.5c1,1.2,8.9,9.3,8.9,9.3 s2.5,0.3,3.3-0.1c0.2-0.1,0.4-2.8,0.4-4.1C146.4,102.9,141.9,100.8,138.8,100z"></path> </g> <linearGradient id="SVGID_3_" gradientUnits="userSpaceOnUse" x1="146.2032" y1="105.2172" x2="149.6213" y2="128.6042"> <stop offset="0" style="stop-color:#FF928E"></stop> <stop offset="1" style="stop-color:#FEB3B1"></stop> </linearGradient> <path class="st6" d="M149.3,114.5v-4.8c0-0.4-0.3-0.8-0.6-0.9c-0.6-0.2-1.5-0.4-2.4-0.1c-0.5,0.2-0.8,0.7-0.9,1.2l-0.4,4.5 L149.3,114.5z"></path> <g> <linearGradient id="SVGID_4_" gradientUnits="userSpaceOnUse" x1="115.4513" y1="113.4264" x2="130.8896" y2="113.4264"> <stop offset="0" style="stop-color:#09005D"></stop> <stop offset="1" style="stop-color:#1A0F91"></stop> </linearGradient> <path class="st7" d="M130.1,110.2c-0.1-0.2-0.2-0.3-0.3-0.5c-1,0.2-3.1,0.8-7.5,2.3c-5,1.8-6.5,3.3-6.9,4.1 c2.2,0.6,7,1.6,14.1,0.2l1.4-0.6C130.9,115.8,130.8,112.4,130.1,110.2z"></path> <linearGradient id="SVGID_5_" gradientUnits="userSpaceOnUse" x1="114.7943" y1="112.8519" x2="129.8233" y2="112.8519"> <stop offset="0" style="stop-color:#4042E2"></stop> <stop offset="1" style="stop-color:#4F52FF"></stop> </linearGradient> <path class="st8" d="M122.4,112c4.3-1.5,6.4-2.1,7.5-2.3c-0.2-0.2-0.5-0.3-0.8-0.2c-2.5,0.5-10,2.3-14,5.5 c-0.4,0.3-0.3,0.9,0.2,1.1c0.1,0,0.1,0,0.2,0.1C115.9,115.4,117.3,113.8,122.4,112z"></path> </g> <linearGradient id="SVGID_6_" gradientUnits="userSpaceOnUse" x1="128.9817" y1="107.7341" x2="132.3998" y2="131.1212"> <stop offset="0" style="stop-color:#FF928E"></stop> <stop offset="1" style="stop-color:#FEB3B1"></stop> </linearGradient> <path class="st9" d="M133.5,118.7l-3-3.5c-0.3-0.3-0.8-0.5-1.2-0.3c-0.5,0.2-1.1,0.5-1.7,1.1c-0.3,0.3-0.3,0.8-0.1,1.1l2.1,4.2 L133.5,118.7z"></path> <linearGradient id="SVGID_7_" gradientUnits="userSpaceOnUse" x1="153.5121" y1="94.0546" x2="143.9774" y2="147.6649"> <stop offset="0" style="stop-color:#09005D"></stop> <stop offset="1" style="stop-color:#1A0F91"></stop> </linearGradient> <path class="st10" d="M144.4,112.8c0,0,3.6-0.7,5.6,0c0,0,2.6,15.8,2.2,20.9l-7.8,1.6C144.4,135.3,144.2,117.5,144.4,112.8z"></path> <linearGradient id="SVGID_8_" gradientUnits="userSpaceOnUse" x1="161.8654" y1="91.3638" x2="156.0795" y2="115.7932"> <stop offset="0" style="stop-color:#09005D"></stop> <stop offset="1" style="stop-color:#1A0F91"></stop> </linearGradient> <path class="st11" d="M176.4,140.5c0,0-25.4,1.4-35.8,0.7c-1-0.1-1.9-0.7-2.4-1.6c-2.2-4.4-8.8-17.7-9.4-19c0,0,2.7-2.3,4.7-2.6 c0,0,9.4,10.5,9.8,15.8c0,0,21.8-6.3,24-6.2c2.2,0.1,8.8,3,8.8,3L176.4,140.5z"></path> <linearGradient id="SVGID_9_" gradientUnits="userSpaceOnUse" x1="209.8144" y1="116.2315" x2="215.4114" y2="116.2315"> <stop offset="0" style="stop-color:#FF928E"></stop> <stop offset="1" style="stop-color:#FEB3B1"></stop> </linearGradient> <path class="st12" d="M210.3,120.7c0,0-0.9-1.9-0.1-3c0.8-1,3.7-4.2,3.7-4.2l0.3-2.2l1.2,3.6l-2.6,5.4 C212.8,120.3,211.3,121.9,210.3,120.7z"></path> <linearGradient id="SVGID_10_" gradientUnits="userSpaceOnUse" x1="210.2686" y1="125.1949" x2="216.805" y2="125.1949"> <stop offset="0" style="stop-color:#FF928E"></stop> <stop offset="1" style="stop-color:#FEB3B1"></stop> </linearGradient> <path class="st13" d="M216.8,129.7c-0.9-3.3-2.2-6.5-4-9.4l-2.6,0.4l1.3,8.9C212.5,129.9,215.2,130.5,216.8,129.7z"></path> <path class="st14" d="M218.5,138.4c-0.3-3-0.9-5.9-1.7-8.7c-1.7,0.8-4.3,0.2-5.3-0.1l0.4,2.6l-1-3.4c-1.2-4.2-3.7-7.9-7.2-10.5 l-2.4-1.8c-2.4-1.8-6.2-1.2-8.6,0.6c-5.4,3.8-13.4,10.3-16.1,12.5c-0.6,0.5-1.4,0.6-2.1,0.3l-0.5-0.2c-0.4-0.2-0.9,0.2-0.9,0.6 l1.2,10.6l18.5-0.2c2.2,0,8.6-0.2,9.7-2.2l1.7-4.2c4,3.4,9.1,5.7,11.9,6.4C217.4,140.9,218.6,139.7,218.5,138.4z"></path> <linearGradient id="SVGID_11_" gradientUnits="userSpaceOnUse" x1="209.3933" y1="111.4873" x2="196.3214" y2="124.5592"> <stop offset="0" style="stop-color:#FF928E"></stop> <stop offset="1" style="stop-color:#FEB3B1"></stop> </linearGradient> <path class="st15" d="M205.5,110.7l-5.7,5.5c-0.4,0.4-0.4,1-0.1,1.4c1.8,2.1,3.3,3.2,4.5,3.3c0.5,0,1-0.2,1.3-0.7l3-4.8 L205.5,110.7z"></path> <linearGradient id="SVGID_12_" gradientUnits="userSpaceOnUse" x1="228.6194" y1="133.8956" x2="204.2652" y2="154.1345"> <stop offset="0" style="stop-color:#FF928E"></stop> <stop offset="1" style="stop-color:#FEB3B1"></stop> </linearGradient> <polygon class="st16" points="217,137.9 221.8,136 227.5,140.5 217.4,140.5 "></polygon> <g> <linearGradient id="SVGID_13_" gradientUnits="userSpaceOnUse" x1="211.4847" y1="99.7655" x2="208.9132" y2="117.1234"> <stop offset="0" style="stop-color:#FF928E"></stop> <stop offset="1" style="stop-color:#FEB3B1"></stop> </linearGradient> <path class="st17" d="M215,109.4c0,0-0.8,5.5-2.9,7.1c-2.1,1.7-6.2,0.4-7.6-3.7l2.7-7L215,109.4z"></path> <linearGradient id="SVGID_14_" gradientUnits="userSpaceOnUse" x1="208.1136" y1="95.5763" x2="211.1261" y2="112.7586"> <stop offset="0" style="stop-color:#09005D"></stop> <stop offset="1" style="stop-color:#1A0F91"></stop> </linearGradient> <path class="st18" d="M207,110.4c0.2,0.1,0.3-0.1,0.4-0.2c0.1-0.5,0.3-1.5,0.6-2.2c0,0-0.2-0.7,1.8,0.4c2,1.1,5,2.7,6.8,1.7 c1.7-0.9,3.5-5.6-1.1-4.7c-0.2,0-0.3-0.1-0.3-0.3c0.1-0.8,0-2.5-1.8-3.1c-1.7-0.5-2.6,0.2-2.9,0.7c-0.1,0.1-0.3,0.1-0.4,0 c-0.5-0.7-1.9-2-3.8-1.2c-1.6,0.7-1.9,1.7-1.9,2.4c0,0.2-0.2,0.3-0.4,0.3c-0.5-0.2-1.3-0.4-2.1,0.6c-1.1,1.3,0.5,2.5,0.9,2.8 c0.1,0,0.1,0.1,0.1,0.2c0,0.7,0.1,3.7,1.6,5.5c0.1,0.1,0.4,0.1,0.5-0.1l1.2-2.8c0.1-0.1,0.2-0.2,0.3-0.2L207,110.4z"></path> <linearGradient id="SVGID_15_" gradientUnits="userSpaceOnUse" x1="207.6033" y1="99.1906" x2="205.0318" y2="116.5483"> <stop offset="0" style="stop-color:#FF928E"></stop> <stop offset="1" style="stop-color:#FEB3B1"></stop> </linearGradient> <path class="st19" d="M207.1,110.9c0,0-0.7-2.9-1.8-2c-1.1,0.9,0.3,3,1.5,3.4L207.1,110.9z"></path> </g> <path class="st14" d="M198.9,123.2c0,0,0.2-6.8-2.6-6.9c-3.4-0.2-9,2.3-5.7,12.2c1.8,5.5,4.6,9.5,12.1,11.2 c0.4-2.8,1.6-4.7,2.6-5.8C202.2,131.9,199.6,128.5,198.9,123.2z"></path> <linearGradient id="SVGID_16_" gradientUnits="userSpaceOnUse" x1="198.115" y1="80.5459" x2="199.7871" y2="157.1295"> <stop offset="0" style="stop-color:#E1473D"></stop> <stop offset="1" style="stop-color:#E9605A"></stop> </linearGradient> <path class="st20" d="M204.9,134c-0.1,0-0.1,0-0.2,0c-3.5-2.5-5.5-5.9-6.2-10.7c0,0,0,0,0,0c0.1-1.8-0.2-6.5-2.3-6.6 c-1,0-2,0.1-2.9,0.5c-0.1,0.1-0.3,0-0.4-0.1c-0.1-0.1,0-0.3,0.1-0.4c1-0.4,2.1-0.6,3.2-0.6c2.9,0.1,2.8,6.6,2.8,7.1 c0.7,4.7,2.6,7.9,5.9,10.3c0.1,0.1,0.2,0.3,0.1,0.4C205.1,134,205,134,204.9,134z"></path> <linearGradient id="SVGID_17_" gradientUnits="userSpaceOnUse" x1="193.9787" y1="80.6364" x2="195.6509" y2="157.2197"> <stop offset="0" style="stop-color:#E1473D"></stop> <stop offset="1" style="stop-color:#E9605A"></stop> </linearGradient> <path class="st21" d="M200.3,139.4C200.3,139.4,200.3,139.4,200.3,139.4c-6.3-2.2-8.5-6.4-10-10.7c-0.3-1-0.6-1.9-0.7-2.8 c0-0.1,0.1-0.3,0.2-0.3c0.1,0,0.3,0.1,0.3,0.2c0.2,0.9,0.4,1.8,0.7,2.7c1.4,4.2,3.5,8.3,9.5,10.4c0.1,0,0.2,0.2,0.2,0.3 C200.5,139.3,200.4,139.4,200.3,139.4z"></path> <linearGradient id="SVGID_18_" gradientUnits="userSpaceOnUse" x1="223.4075" y1="127.6241" x2="199.0535" y2="147.8629"> <stop offset="0" style="stop-color:#FF928E"></stop> <stop offset="1" style="stop-color:#FEB3B1"></stop> </linearGradient> <path class="st22" d="M218.3,140.5l0-2.6c0,0-7.3,0.2-13.1-3.9c-0.9,1.1-2.2,3-2.6,5.8C206.5,140.7,211.6,141,218.3,140.5z"></path> <g> <linearGradient id="SVGID_19_" gradientUnits="userSpaceOnUse" x1="-9345.8154" y1="-188.6381" x2="-9364.623" y2="-183.4832" gradientTransform="matrix(-0.9988 -4.940000e-02 -4.940000e-02 0.9988 -9138.9482 -138.0552)"> <stop offset="0" style="stop-color:#09005D"></stop> <stop offset="1" style="stop-color:#1A0F91"></stop> </linearGradient> <path class="st23" d="M208.9,141.4C208.9,141.4,209,141.4,208.9,141.4l23.4,0c0.6,0,1-0.5,1-1c0-0.6-0.5-1.1-1-1l-23.3,0 c-0.6,0-1,0.5-1,1C207.9,140.9,208.4,141.4,208.9,141.4z"></path> <linearGradient id="SVGID_20_" gradientUnits="userSpaceOnUse" x1="-9330.2148" y1="123.066" x2="-9343.5605" y2="137.1712" gradientTransform="matrix(-1 0 0 1 -9099.7891 0)"> <stop offset="0" style="stop-color:#09005D"></stop> <stop offset="1" style="stop-color:#1A0F91"></stop> </linearGradient> <path class="st24" d="M253.3,120.2h-19.4c-1.4,0-2.7,0.8-3.4,2.1l-9,19.1h24.2c0.9,0,1.8-0.6,2.1-1.4l7-17.6 C255.2,121.3,254.4,120.2,253.3,120.2z"></path> <path class="st25" d="M239.6,130c-0.4,1.3-0.1,2.6,0.7,2.8c0.8,0.3,1.8-0.6,2.2-1.9c0.4-1.3,0.1-2.6-0.7-2.8 C241,127.8,240,128.7,239.6,130z"></path> </g> <path class="st26" d="M255.5,345.3l56.1-107.4h-11.5c-2.1,0-3.3-2.5-1.9-4.1L358,161c2.6-3.2,7.7-1.2,7.5,2.9l-4.2,71.2 c-0.2,4.1-3.9,7.1-7.9,6.7l-8-0.9l-55.6,120.5c-1.4,3.1-4.6,5.1-8,5.1h-19.3L255.5,345.3z"></path> <path class="st27" d="M209.2,270l39.6,87.9c2.3,5.2,7.5,8.6,13.2,8.6h20.4c2.7,0,5.2-1.5,6.5-3.8l0.7-1.3l0,0 c-2.2,0-4.2-1.2-5.2-3.2l-52.7-103.3L209.2,270z"></path> <path class="st26" d="M237,265.2L237,265.2c-4-3.1-9.8-2.2-12.6,2l-58.2,87.4c-4.7,7-12.5,11.2-20.9,11.2h-8.2l-6.7-19.2 c0,0,54.1-83,68.1-95.5c0,0,13.9-12.5,27.6-3.1c3.6,2.5,6.4,6.1,8,10.1L237,265.2z"></path> <path class="st27" d="M67.2,295.1c0,0,9.7-12.2,28.6-14.1c0,0,9,3.1,26.8,35.1c17.9,32,29.7,46.6,43.6,38.6l-1.2,1.9 c-3.8,6.3-10.6,10.2-18,10.2h-7.7c-8.5,0-16.4-4.1-21.4-11C104.2,336.5,75.7,298.1,67.2,295.1z"></path> <g> <g> <g> <linearGradient id="SVGID_21_" gradientUnits="userSpaceOnUse" x1="119.6052" y1="175.4883" x2="120.6267" y2="175.4883"> <stop offset="0" style="stop-color:#DAE3FE"></stop> <stop offset="1" style="stop-color:#E9EFFD"></stop> </linearGradient> <path class="st28" d="M119.8,176c-0.1,0-0.1,0-0.2-0.1c-0.1-0.1-0.1-0.2,0-0.3c0.2-0.2,0.4-0.4,0.6-0.6c0.1-0.1,0.2-0.1,0.3,0 c0.1,0.1,0.1,0.2,0,0.3c-0.2,0.2-0.4,0.4-0.6,0.6C119.9,176,119.9,176,119.8,176z"></path> <linearGradient id="SVGID_22_" gradientUnits="userSpaceOnUse" x1="62.2987" y1="169.6999" x2="117.9623" y2="169.6999"> <stop offset="0" style="stop-color:#DAE3FE"></stop> <stop offset="1" style="stop-color:#E9EFFD"></stop> </linearGradient> <path class="st29" d="M96,186c-0.3,0-0.6,0-1,0c-0.1,0-0.2-0.1-0.2-0.2c0-0.1,0.1-0.2,0.2-0.2c0.6,0,1.2,0,1.7,0 c0.1,0,0.2,0.1,0.2,0.2c0,0.1-0.1,0.2-0.2,0.2C96.5,186,96.3,186,96,186z M99.6,185.8c-0.1,0-0.2-0.1-0.2-0.2 c0-0.1,0.1-0.2,0.2-0.2c0.6-0.1,1.1-0.1,1.7-0.2c0.1,0,0.2,0.1,0.2,0.2c0,0.1-0.1,0.2-0.2,0.2 C100.8,185.7,100.2,185.7,99.6,185.8C99.6,185.8,99.6,185.8,99.6,185.8z M92.2,185.8C92.2,185.8,92.2,185.8,92.2,185.8 c-0.6-0.1-1.2-0.1-1.8-0.2c-0.1,0-0.2-0.1-0.2-0.2c0-0.1,0.1-0.2,0.2-0.2c0.6,0.1,1.1,0.2,1.7,0.2c0.1,0,0.2,0.1,0.2,0.2 C92.4,185.7,92.3,185.8,92.2,185.8z M104.1,185c-0.1,0-0.2-0.1-0.2-0.2c0-0.1,0-0.2,0.2-0.3c0.6-0.1,1.1-0.3,1.7-0.5 c0.1,0,0.2,0,0.3,0.1c0,0.1,0,0.2-0.1,0.3C105.3,184.7,104.7,184.9,104.1,185C104.2,185,104.1,185,104.1,185z M87.7,185 C87.7,185,87.7,185,87.7,185c-0.6-0.2-1.2-0.3-1.7-0.5c-0.1,0-0.2-0.2-0.1-0.3c0-0.1,0.2-0.2,0.3-0.1c0.5,0.2,1.1,0.3,1.7,0.5 c0.1,0,0.2,0.1,0.2,0.3C87.9,184.9,87.8,185,87.7,185z M108.5,183.6c-0.1,0-0.2-0.1-0.2-0.1c0-0.1,0-0.2,0.1-0.3 c0.5-0.2,1.1-0.4,1.6-0.7c0.1,0,0.2,0,0.3,0.1c0,0.1,0,0.2-0.1,0.3C109.6,183.1,109.1,183.3,108.5,183.6 C108.5,183.6,108.5,183.6,108.5,183.6z M83.4,183.5C83.3,183.5,83.3,183.5,83.4,183.5c-0.6-0.2-1.2-0.5-1.7-0.7 c-0.1-0.1-0.2-0.2-0.1-0.3c0.1-0.1,0.2-0.2,0.3-0.1c0.5,0.2,1.1,0.5,1.6,0.7c0.1,0,0.2,0.2,0.1,0.3 C83.5,183.5,83.4,183.5,83.4,183.5z M112.6,181.6c-0.1,0-0.1,0-0.2-0.1c-0.1-0.1,0-0.2,0.1-0.3c0.5-0.3,1-0.6,1.5-0.9 c0.1-0.1,0.2,0,0.3,0.1c0.1,0.1,0,0.2-0.1,0.3c-0.5,0.3-1,0.6-1.5,0.9C112.7,181.6,112.6,181.6,112.6,181.6z M79.2,181.5 c0,0-0.1,0-0.1,0c-0.5-0.3-1-0.6-1.5-0.9c-0.1-0.1-0.1-0.2-0.1-0.3c0.1-0.1,0.2-0.1,0.3-0.1c0.5,0.3,1,0.6,1.5,0.9 c0.1,0.1,0.1,0.2,0.1,0.3C79.4,181.5,79.3,181.5,79.2,181.5z M116.4,179c-0.1,0-0.1,0-0.2-0.1c-0.1-0.1-0.1-0.2,0-0.3 c0.5-0.4,0.9-0.7,1.3-1.1c0.1-0.1,0.2-0.1,0.3,0c0.1,0.1,0.1,0.2,0,0.3c-0.4,0.4-0.9,0.8-1.4,1.1C116.5,179,116.4,179,116.4,179 z M75.4,179c0,0-0.1,0-0.1,0c-0.5-0.4-0.9-0.7-1.4-1.1c-0.1-0.1-0.1-0.2,0-0.3c0.1-0.1,0.2-0.1,0.3,0c0.4,0.4,0.9,0.7,1.3,1.1 c0.1,0.1,0.1,0.2,0,0.3C75.6,179,75.5,179,75.4,179z M72,175.9c-0.1,0-0.1,0-0.2-0.1c-0.4-0.4-0.8-0.8-1.2-1.3 c-0.1-0.1-0.1-0.2,0-0.3c0.1-0.1,0.2-0.1,0.3,0c0.4,0.4,0.8,0.9,1.2,1.3c0.1,0.1,0.1,0.2,0,0.3C72.1,175.9,72.1,175.9,72,175.9z M69.1,172.5c-0.1,0-0.1,0-0.2-0.1c-0.3-0.5-0.7-1-1-1.4c-0.1-0.1,0-0.2,0.1-0.3c0.1-0.1,0.2,0,0.3,0.1c0.3,0.5,0.7,1,1,1.4 c0.1,0.1,0.1,0.2,0,0.3C69.2,172.5,69.1,172.5,69.1,172.5z M66.6,168.6c-0.1,0-0.1,0-0.2-0.1c-0.2-0.4-0.4-0.7-0.6-1.1 c-0.1-0.2-0.2-0.3-0.2-0.5c-0.1-0.1,0-0.2,0.1-0.3c0.1-0.1,0.2,0,0.3,0.1c0.1,0.2,0.2,0.3,0.2,0.5c0.2,0.4,0.4,0.7,0.6,1.1 c0.1,0.1,0,0.2-0.1,0.3C66.7,168.6,66.6,168.6,66.6,168.6z M64.7,164.5c-0.1,0-0.2-0.1-0.2-0.1c-0.2-0.5-0.4-1.1-0.6-1.7 c0-0.1,0-0.2,0.1-0.3c0.1,0,0.2,0,0.3,0.1c0.2,0.5,0.4,1.1,0.6,1.6C64.9,164.3,64.9,164.4,64.7,164.5 C64.7,164.5,64.7,164.5,64.7,164.5z M63.3,160.1c-0.1,0-0.2-0.1-0.2-0.2c-0.1-0.6-0.2-1.1-0.4-1.7c0-0.1,0.1-0.2,0.2-0.2 c0.1,0,0.2,0.1,0.2,0.2c0.1,0.6,0.2,1.1,0.3,1.7C63.6,159.9,63.5,160,63.3,160.1C63.4,160.1,63.4,160.1,63.3,160.1z M62.6,155.6 c-0.1,0-0.2-0.1-0.2-0.2c-0.1-0.6-0.1-1.2-0.1-1.8c0-0.1,0.1-0.2,0.2-0.2c0.1,0,0.2,0.1,0.2,0.2c0,0.6,0.1,1.2,0.1,1.7 C62.8,155.4,62.8,155.5,62.6,155.6C62.6,155.6,62.6,155.6,62.6,155.6z"></path> <linearGradient id="SVGID_23_" gradientUnits="userSpaceOnUse" x1="62.3141" y1="150.3225" x2="62.7949" y2="150.3225"> <stop offset="0" style="stop-color:#DAE3FE"></stop> <stop offset="1" style="stop-color:#E9EFFD"></stop> </linearGradient> <path class="st30" d="M62.5,151C62.5,151,62.5,151,62.5,151c-0.1,0-0.2-0.1-0.2-0.2c0-0.3,0-0.6,0.1-0.9c0-0.1,0.1-0.2,0.2-0.2 c0.1,0,0.2,0.1,0.2,0.2c0,0.3,0,0.6-0.1,0.8C62.7,150.9,62.6,151,62.5,151z"></path> </g> <g> <path class="st31" d="M73.5,127.7c-0.1,0-0.1,0-0.2-0.1c-0.1-0.1-0.1-0.2,0-0.3c0.2-0.2,0.4-0.4,0.6-0.6c0.1-0.1,0.2-0.1,0.3,0 c0.1,0.1,0.1,0.2,0,0.3c-0.2,0.2-0.4,0.4-0.6,0.6C73.6,127.7,73.6,127.7,73.5,127.7z"></path> <path class="st31" d="M129.4,152.9C129.4,152.9,129.4,152.9,129.4,152.9c-0.1,0-0.2-0.1-0.2-0.2c0-0.1,0-0.2,0-0.3 c0-0.5,0-0.9,0-1.4c0-0.1,0.1-0.2,0.2-0.2c0.1,0,0.2,0.1,0.2,0.2c0,0.5,0,0.9,0,1.4c0,0.1,0,0.2,0,0.4 C129.6,152.8,129.5,152.9,129.4,152.9z M129.2,148.4c-0.1,0-0.2-0.1-0.2-0.2c-0.1-0.6-0.2-1.1-0.3-1.7c0-0.1,0.1-0.2,0.2-0.2 c0.1,0,0.2,0.1,0.2,0.2c0.1,0.6,0.2,1.1,0.3,1.7C129.4,148.2,129.3,148.4,129.2,148.4C129.2,148.4,129.2,148.4,129.2,148.4z M128.3,144c-0.1,0-0.2-0.1-0.2-0.2c-0.1-0.5-0.3-1.1-0.5-1.6c0-0.1,0-0.2,0.1-0.3c0.1,0,0.2,0,0.3,0.1c0.2,0.5,0.3,1.1,0.5,1.7 C128.5,143.8,128.5,143.9,128.3,144C128.3,143.9,128.3,144,128.3,144z M126.8,139.7c-0.1,0-0.2,0-0.2-0.1 c-0.2-0.5-0.5-1-0.7-1.6c-0.1-0.1,0-0.2,0.1-0.3c0.1-0.1,0.2,0,0.3,0.1c0.2,0.5,0.5,1,0.7,1.6 C127.1,139.5,127,139.6,126.8,139.7C126.9,139.7,126.9,139.7,126.8,139.7z M124.8,135.7c-0.1,0-0.1,0-0.2-0.1 c-0.3-0.5-0.6-1-0.9-1.5c-0.1-0.1,0-0.2,0.1-0.3c0.1-0.1,0.2,0,0.3,0.1c0.3,0.5,0.6,1,0.9,1.5c0.1,0.1,0,0.2-0.1,0.3 C124.9,135.6,124.9,135.7,124.8,135.7z M122.3,131.9c-0.1,0-0.1,0-0.2-0.1c-0.3-0.4-0.7-0.9-1.1-1.3c-0.1-0.1-0.1-0.2,0-0.3 c0.1-0.1,0.2-0.1,0.3,0c0.4,0.4,0.7,0.9,1.1,1.3c0.1,0.1,0.1,0.2,0,0.3C122.4,131.9,122.4,131.9,122.3,131.9z M119.3,128.6 c-0.1,0-0.1,0-0.1-0.1c-0.4-0.4-0.8-0.8-1.3-1.2c-0.1-0.1-0.1-0.2,0-0.3c0.1-0.1,0.2-0.1,0.3,0c0.4,0.4,0.9,0.8,1.3,1.2 c0.1,0.1,0.1,0.2,0,0.3C119.4,128.6,119.4,128.6,119.3,128.6z M115.9,125.7c0,0-0.1,0-0.1,0c-0.5-0.3-0.9-0.7-1.4-1 c-0.1-0.1-0.1-0.2-0.1-0.3c0.1-0.1,0.2-0.1,0.3-0.1c0.5,0.3,1,0.6,1.4,1c0.1,0.1,0.1,0.2,0,0.3 C116,125.6,115.9,125.7,115.9,125.7z M76.4,125.4c-0.1,0-0.1,0-0.2-0.1c-0.1-0.1,0-0.2,0-0.3c0.5-0.3,0.9-0.7,1.4-1 c0.1-0.1,0.2,0,0.3,0.1c0.1,0.1,0,0.2-0.1,0.3c-0.5,0.3-1,0.6-1.4,1C76.4,125.4,76.4,125.4,76.4,125.4z M112.1,123.2 c0,0-0.1,0-0.1,0c-0.5-0.3-1-0.5-1.5-0.8c-0.1-0.1-0.2-0.2-0.1-0.3c0.1-0.1,0.2-0.2,0.3-0.1c0.5,0.2,1,0.5,1.5,0.8 c0.1,0.1,0.1,0.2,0.1,0.3C112.2,123.2,112.2,123.2,112.1,123.2z M80.2,123c-0.1,0-0.2,0-0.2-0.1c-0.1-0.1,0-0.2,0.1-0.3 c0.3-0.1,0.5-0.3,0.8-0.4c0.3-0.1,0.5-0.3,0.8-0.4c0.1-0.1,0.2,0,0.3,0.1c0.1,0.1,0,0.2-0.1,0.3c-0.3,0.1-0.5,0.2-0.8,0.4 c-0.3,0.1-0.5,0.3-0.8,0.4C80.2,123,80.2,123,80.2,123z M108,121.3C108,121.3,108,121.3,108,121.3c-0.6-0.2-1.1-0.4-1.7-0.6 c-0.1,0-0.2-0.2-0.1-0.3c0-0.1,0.2-0.2,0.3-0.1c0.5,0.2,1.1,0.4,1.6,0.6c0.1,0,0.2,0.2,0.1,0.3 C108.2,121.3,108.1,121.3,108,121.3z M84.3,121.2c-0.1,0-0.2-0.1-0.2-0.1c0-0.1,0-0.2,0.1-0.3c0.5-0.2,1.1-0.4,1.6-0.6 c0.1,0,0.2,0,0.3,0.1c0,0.1,0,0.2-0.1,0.3C85.4,120.8,84.9,121,84.3,121.2C84.3,121.2,84.3,121.2,84.3,121.2z M103.7,120 C103.7,120,103.7,120,103.7,120c-0.6-0.1-1.2-0.3-1.7-0.4c-0.1,0-0.2-0.1-0.2-0.2c0-0.1,0.1-0.2,0.2-0.2 c0.6,0.1,1.1,0.2,1.7,0.4c0.1,0,0.2,0.1,0.2,0.3C103.9,119.9,103.8,120,103.7,120z M88.6,119.9c-0.1,0-0.2-0.1-0.2-0.2 c0-0.1,0-0.2,0.2-0.3c0.6-0.1,1.1-0.2,1.7-0.3c0.1,0,0.2,0.1,0.2,0.2c0,0.1-0.1,0.2-0.2,0.2C89.8,119.7,89.2,119.8,88.6,119.9 C88.6,119.9,88.6,119.9,88.6,119.9z M99.3,119.2C99.3,119.2,99.3,119.2,99.3,119.2c-0.6-0.1-1.2-0.1-1.7-0.1 c-0.1,0-0.2-0.1-0.2-0.2c0-0.1,0.1-0.2,0.2-0.2c0.6,0,1.2,0.1,1.7,0.1c0.1,0,0.2,0.1,0.2,0.2C99.5,119.2,99.4,119.2,99.3,119.2z M93.1,119.2c-0.1,0-0.2-0.1-0.2-0.2c0-0.1,0.1-0.2,0.2-0.2c0.6,0,1.2-0.1,1.7-0.1c0.1,0,0.2,0.1,0.2,0.2c0,0.1-0.1,0.2-0.2,0.2 C94.2,119.1,93.6,119.2,93.1,119.2C93.1,119.2,93.1,119.2,93.1,119.2z"></path> <path class="st31" d="M129.2,156.5C129.2,156.5,129.2,156.5,129.2,156.5c-0.1,0-0.2-0.1-0.2-0.2c0-0.3,0.1-0.6,0.1-0.8 c0-0.1,0.1-0.2,0.2-0.2c0.1,0,0.2,0.1,0.2,0.2c0,0.3-0.1,0.6-0.1,0.9C129.4,156.4,129.3,156.5,129.2,156.5z"></path> </g> <g> <g> <path class="st32" d="M120.9,158.6c0.1-0.2,0-0.3-0.1-0.4L117,155c0.3-2.3,0.2-4.6-0.3-6.9l3.5-3.4c0.1-0.1,0.2-0.3,0.1-0.5 l-2.5-5.3c-0.1-0.2-0.2-0.2-0.4-0.2l-4.9,0.5c-1.4-1.9-3.2-3.4-5.1-4.7l0.1-4.9c0-0.2-0.1-0.3-0.3-0.4l-5.5-2 c-0.2-0.1-0.3,0-0.4,0.1l-3.1,3.8c-2.3-0.3-4.6-0.2-6.9,0.3l-3.4-3.5c-0.1-0.1-0.3-0.2-0.5-0.1l-5.3,2.5 c-0.2,0.1-0.2,0.2-0.2,0.4l0.5,4.9c-1.9,1.4-3.4,3.2-4.7,5.1l-4.9-0.1c-0.2,0-0.3,0.1-0.4,0.3l-2,5.5c-0.1,0.2,0,0.3,0.1,0.4 l3.8,3.1c-0.3,2.3-0.2,4.6,0.3,6.9l-3.5,3.4c-0.1,0.1-0.2,0.3-0.1,0.5l2.5,5.3c0.1,0.2,0.2,0.2,0.4,0.2l4.9-0.5 c1.4,1.9,3.2,3.4,5.1,4.7l-0.1,4.9c0,0.2,0.1,0.3,0.3,0.4l5.5,2c0.2,0.1,0.3,0,0.4-0.1l3.1-3.8c2.3,0.3,4.6,0.2,6.9-0.3 l3.4,3.5c0.1,0.1,0.3,0.2,0.5,0.1l5.3-2.5c0.2-0.1,0.2-0.2,0.2-0.4l-0.5-4.9c1.9-1.4,3.4-3.2,4.7-5.1l4.9,0.1 c0.2,0,0.3-0.1,0.4-0.3L120.9,158.6z"></path> </g> <g> <path class="st31" d="M95.7,158c-1.6,0-3.2-0.7-4.3-2c-1.9-2.4-1.5-5.9,0.8-7.8c1.1-0.9,2.6-1.4,4.1-1.2c1.5,0.2,2.8,0.9,3.7,2 l0,0c1.9,2.4,1.5,5.9-0.8,7.8C98.2,157.6,96.9,158,95.7,158z M95.7,147.6c-1.1,0-2.2,0.4-3.1,1.1c-2.1,1.7-2.4,4.8-0.7,6.9 c1.7,2.1,4.8,2.4,6.9,0.7c2.1-1.7,2.4-4.8,0.7-6.9l0,0c-0.8-1-2-1.6-3.3-1.8C96.1,147.6,95.9,147.6,95.7,147.6z"></path> </g> <path class="st31" d="M95.6,166.9c-5.5,0-10.7-3.1-13.2-8.4c-0.9-2-1.3-4-1.3-6c0-5.5,3.1-10.7,8.4-13.2 c7.2-3.3,15.9-0.2,19.2,7.1l0,0c0.4,0.8,0.7,1.6,0.9,2.5c0,0.2,0.1,0.3,0.1,0.5l-0.6,0.1c-0.2-1-0.5-1.9-0.9-2.8h0 c-0.7-1.4-1.5-2.7-2.6-3.7c0,0,0,0,0,0c0,0,0,0,0,0c0,0,0,0,0,0c0,0,0,0,0,0c-3-3.1-7.3-4.6-11.6-4.1c-1.2,0.1-2.5,0.5-3.7,1 c-0.2,0.1-0.3,0.1-0.5,0.2c-5,2.3-8,7.3-8,12.6c0,1.9,0.4,3.9,1.3,5.8c3.2,6.9,11.4,9.9,18.4,6.7c2.3-1.1,4.2-2.7,5.6-4.8 l0.5,0.4c-1.5,2.2-3.5,3.9-5.9,5C99.7,166.5,97.6,166.9,95.6,166.9z"></path> </g> </g> <g> <path class="st32" d="M69.1,137.7l-2.3-1.6c0.1-1.3-0.1-2.6-0.5-3.8l1.8-2c0.1-0.1,0.1-0.2,0-0.3l-1.6-2.9c0-0.1-0.1-0.1-0.2-0.1 l-2.7,0.5c-0.9-1-1.9-1.8-3-2.4l-0.2-2.7c0-0.1-0.1-0.2-0.2-0.2l-3.2-0.9c-0.1,0-0.2,0-0.2,0.1l-1.6,2.3 c-1.3-0.1-2.6,0.1-3.8,0.5l-2-1.8c-0.1-0.1-0.2-0.1-0.3,0l-2.9,1.6c-0.1,0-0.1,0.1-0.1,0.2l0.5,2.7c-1,0.9-1.8,1.9-2.4,3 l-2.7,0.2c-0.1,0-0.2,0.1-0.2,0.2l-0.9,3.2c0,0.1,0,0.2,0.1,0.2l2.3,1.6c-0.1,1.3,0.1,2.6,0.5,3.8l-1.8,2c-0.1,0.1-0.1,0.2,0,0.3 l1.6,2.9c0,0.1,0.1,0.1,0.2,0.1l2.7-0.5c0.9,1,1.9,1.8,3,2.4l0.2,2.7c0,0.1,0.1,0.2,0.2,0.2l3.2,0.9c0.1,0,0.2,0,0.2-0.1l1.6-2.3 c1.3,0.1,2.6-0.1,3.8-0.5l2,1.8c0.1,0.1,0.2,0.1,0.3,0l2.9-1.6c0.1,0,0.1-0.1,0.1-0.2l-0.5-2.7c1-0.9,1.8-1.9,2.4-3l2.7-0.2 c0.1,0,0.2-0.1,0.2-0.2l0.9-3.2C69.3,137.9,69.2,137.8,69.1,137.7z"></path> </g> <g> <path class="st31" d="M54.9,138.9c-0.9,0-1.7-0.3-2.3-1c-0.6-0.6-0.9-1.4-0.9-2.3c0-0.9,0.4-1.7,1-2.3c0.6-0.6,1.4-0.9,2.3-0.9 c0.9,0,1.7,0.4,2.3,1l0,0c0.6,0.6,0.9,1.4,0.9,2.3c0,0.9-0.4,1.7-1,2.3C56.5,138.6,55.7,138.9,54.9,138.9z M54.9,133.1 c-0.7,0-1.3,0.3-1.8,0.7c-0.5,0.5-0.8,1.1-0.8,1.8s0.2,1.4,0.7,1.9c1,1,2.6,1.1,3.7,0.1c1-1,1.1-2.6,0.1-3.7l0,0 C56.3,133.4,55.7,133.1,54.9,133.1C54.9,133.1,54.9,133.1,54.9,133.1z"></path> </g> <g> <linearGradient id="SVGID_24_" gradientUnits="userSpaceOnUse" x1="70.0952" y1="143.8262" x2="70.9203" y2="143.8262"> <stop offset="0" style="stop-color:#DAE3FE"></stop> <stop offset="1" style="stop-color:#E9EFFD"></stop> </linearGradient> <path class="st33" d="M70.3,144.4c0,0-0.1,0-0.1,0c-0.1-0.1-0.1-0.2-0.1-0.3c0.1-0.2,0.3-0.5,0.4-0.8c0.1-0.1,0.2-0.2,0.3-0.1 c0.1,0.1,0.2,0.2,0.1,0.3c-0.1,0.3-0.3,0.5-0.4,0.8C70.5,144.4,70.4,144.4,70.3,144.4z"></path> <linearGradient id="SVGID_25_" gradientUnits="userSpaceOnUse" x1="38.6225" y1="148.0786" x2="69.0508" y2="148.0786"> <stop offset="0" style="stop-color:#DAE3FE"></stop> <stop offset="1" style="stop-color:#E9EFFD"></stop> </linearGradient> <path class="st34" d="M53.7,153.5C53.7,153.5,53.6,153.5,53.7,153.5c-0.6,0-1.1-0.1-1.7-0.2c-0.1,0-0.2-0.1-0.2-0.2 c0-0.1,0.1-0.2,0.2-0.2c0.5,0.1,1.1,0.2,1.6,0.2c0.1,0,0.2,0.1,0.2,0.2C53.9,153.4,53.8,153.5,53.7,153.5z M56.3,153.4 c-0.1,0-0.2-0.1-0.2-0.2c0-0.1,0.1-0.2,0.2-0.2c0.5,0,1.1-0.1,1.6-0.2c0.1,0,0.2,0.1,0.2,0.2c0,0.1-0.1,0.2-0.2,0.2 C57.5,153.3,56.9,153.4,56.3,153.4C56.3,153.4,56.3,153.4,56.3,153.4z M49.4,152.6C49.4,152.6,49.4,152.6,49.4,152.6 c-0.6-0.2-1.1-0.4-1.6-0.6c-0.1,0-0.2-0.2-0.1-0.3c0-0.1,0.2-0.2,0.3-0.1c0.5,0.2,1,0.4,1.5,0.6c0.1,0,0.2,0.2,0.1,0.3 C49.6,152.6,49.5,152.6,49.4,152.6z M60.6,152.6c-0.1,0-0.2-0.1-0.2-0.1c0-0.1,0-0.2,0.1-0.3c0.5-0.2,1-0.4,1.5-0.6 c0.1,0,0.2,0,0.3,0.1c0,0.1,0,0.2-0.1,0.3C61.7,152.2,61.2,152.4,60.6,152.6C60.6,152.6,60.6,152.6,60.6,152.6z M45.5,150.8 c0,0-0.1,0-0.1,0c-0.5-0.3-0.9-0.6-1.4-1c-0.1-0.1-0.1-0.2,0-0.3c0.1-0.1,0.2-0.1,0.3,0c0.4,0.3,0.9,0.6,1.3,0.9 c0.1,0.1,0.1,0.2,0.1,0.3C45.6,150.8,45.6,150.8,45.5,150.8z M64.5,150.7c-0.1,0-0.1,0-0.2-0.1c-0.1-0.1,0-0.2,0.1-0.3 c0.5-0.3,0.9-0.6,1.3-0.9c0.1-0.1,0.2-0.1,0.3,0c0.1,0.1,0.1,0.2,0,0.3c-0.4,0.3-0.9,0.7-1.4,1C64.5,150.7,64.5,150.7,64.5,150.7 z M42.2,148.1c-0.1,0-0.1,0-0.2-0.1l0,0c-0.4-0.4-0.7-0.8-1.1-1.2c-0.1-0.1-0.1-0.2,0-0.3c0.1-0.1,0.2-0.1,0.3,0 c0.3,0.4,0.7,0.8,1,1.2l0,0c0.1,0.1,0.1,0.2,0,0.3C42.3,148,42.2,148.1,42.2,148.1z M67.8,147.9c-0.1,0-0.1,0-0.1-0.1 c-0.1-0.1-0.1-0.2,0-0.3c0.4-0.4,0.7-0.8,1.1-1.2c0.1-0.1,0.2-0.1,0.3,0c0.1,0.1,0.1,0.2,0,0.3c-0.3,0.4-0.7,0.9-1.1,1.3 C67.9,147.9,67.8,147.9,67.8,147.9z M39.6,144.6c-0.1,0-0.1,0-0.2-0.1c-0.3-0.5-0.5-1-0.8-1.5c0-0.1,0-0.2,0.1-0.3 c0.1,0,0.2,0,0.3,0.1c0.2,0.5,0.5,1,0.7,1.5c0.1,0.1,0,0.2-0.1,0.3C39.7,144.6,39.6,144.6,39.6,144.6z"></path> <linearGradient id="SVGID_26_" gradientUnits="userSpaceOnUse" x1="37.5023" y1="139.9701" x2="38.1391" y2="139.9701"> <stop offset="0" style="stop-color:#DAE3FE"></stop> <stop offset="1" style="stop-color:#E9EFFD"></stop> </linearGradient> <path class="st35" d="M37.9,140.6c-0.1,0-0.2-0.1-0.2-0.2c-0.1-0.3-0.1-0.6-0.2-0.8c0-0.1,0-0.2,0.2-0.3c0.1,0,0.2,0,0.3,0.2 c0.1,0.3,0.1,0.6,0.2,0.8C38.2,140.4,38.1,140.6,37.9,140.6C38,140.6,37.9,140.6,37.9,140.6z"></path> </g> <g> <linearGradient id="SVGID_27_" gradientUnits="userSpaceOnUse" x1="39.587" y1="126.2409" x2="40.4754" y2="126.2409"> <stop offset="0" style="stop-color:#DAE3FE"></stop> <stop offset="1" style="stop-color:#E9EFFD"></stop> </linearGradient> <path class="st36" d="M39.8,126.8c0,0-0.1,0-0.1,0c-0.1-0.1-0.1-0.2-0.1-0.3c0.1-0.2,0.3-0.5,0.5-0.7c0.1-0.1,0.2-0.1,0.3-0.1 c0.1,0.1,0.1,0.2,0.1,0.3c-0.2,0.2-0.3,0.5-0.5,0.7C39.9,126.8,39.9,126.8,39.8,126.8z"></path> <linearGradient id="SVGID_28_" gradientUnits="userSpaceOnUse" x1="41.675" y1="123.6532" x2="71.5053" y2="123.6532"> <stop offset="0" style="stop-color:#DAE3FE"></stop> <stop offset="1" style="stop-color:#E9EFFD"></stop> </linearGradient> <path class="st37" d="M71.3,129.5c-0.1,0-0.2-0.1-0.2-0.1c-0.2-0.5-0.4-1-0.7-1.5c-0.1-0.1,0-0.2,0.1-0.3c0.1-0.1,0.2,0,0.3,0.1 c0.2,0.5,0.5,1,0.7,1.5C71.5,129.3,71.5,129.4,71.3,129.5C71.3,129.4,71.3,129.5,71.3,129.5z M69.3,125.7c-0.1,0-0.1,0-0.2-0.1 c-0.3-0.4-0.6-0.9-1-1.3c-0.1-0.1-0.1-0.2,0-0.3c0.1-0.1,0.2-0.1,0.3,0c0.4,0.4,0.7,0.9,1,1.3c0.1,0.1,0,0.2-0.1,0.3 C69.4,125.7,69.3,125.7,69.3,125.7z M41.9,124c-0.1,0-0.1,0-0.1-0.1c-0.1-0.1-0.1-0.2,0-0.3c0.3-0.3,0.6-0.6,0.9-0.9 c0.1-0.1,0.2-0.2,0.3-0.3c0.1-0.1,0.2-0.1,0.3,0c0.1,0.1,0.1,0.2,0,0.3c-0.1,0.1-0.2,0.2-0.3,0.2c-0.3,0.3-0.6,0.6-0.9,0.9 C42,124,41.9,124,41.9,124z M66.4,122.6c0,0-0.1,0-0.1-0.1c-0.4-0.3-0.8-0.7-1.3-1c-0.1-0.1-0.1-0.2,0-0.3c0.1-0.1,0.2-0.1,0.3,0 c0.4,0.3,0.9,0.7,1.3,1c0.1,0.1,0.1,0.2,0,0.3C66.5,122.5,66.5,122.6,66.4,122.6z M45.1,121.2c-0.1,0-0.1,0-0.2-0.1 c-0.1-0.1,0-0.2,0.1-0.3c0.5-0.3,0.9-0.6,1.4-0.9c0.1-0.1,0.2,0,0.3,0.1c0.1,0.1,0,0.2-0.1,0.3c-0.5,0.3-0.9,0.5-1.4,0.8 C45.2,121.2,45.2,121.2,45.1,121.2z M62.9,120.2C62.9,120.2,62.8,120.2,62.9,120.2c-0.6-0.3-1.1-0.5-1.6-0.7 c-0.1,0-0.2-0.2-0.1-0.3c0-0.1,0.2-0.2,0.3-0.1c0.5,0.2,1,0.4,1.5,0.7c0.1,0.1,0.1,0.2,0.1,0.3C63,120.2,63,120.2,62.9,120.2z M48.9,119.3c-0.1,0-0.2-0.1-0.2-0.1c0-0.1,0-0.2,0.1-0.3c0.5-0.2,1-0.3,1.6-0.5c0.1,0,0.2,0,0.3,0.2c0,0.1,0,0.2-0.2,0.3 C50,119,49.5,119.1,48.9,119.3C49,119.3,48.9,119.3,48.9,119.3z M58.9,118.7C58.9,118.7,58.9,118.7,58.9,118.7 c-0.6-0.1-1.1-0.2-1.6-0.3c-0.1,0-0.2-0.1-0.2-0.2c0-0.1,0.1-0.2,0.2-0.2c0.5,0.1,1.1,0.2,1.6,0.3c0.1,0,0.2,0.1,0.2,0.3 C59.1,118.7,59,118.7,58.9,118.7z M53,118.4c-0.1,0-0.2-0.1-0.2-0.2c0-0.1,0.1-0.2,0.2-0.2c0.5-0.1,1.1-0.1,1.6-0.1 c0.1,0,0.2,0.1,0.2,0.2c0,0.1-0.1,0.2-0.2,0.2C54.1,118.3,53.6,118.3,53,118.4C53.1,118.4,53.1,118.4,53,118.4z"></path> <linearGradient id="SVGID_29_" gradientUnits="userSpaceOnUse" x1="71.8542" y1="132.1826" x2="72.4522" y2="132.1826"> <stop offset="0" style="stop-color:#DAE3FE"></stop> <stop offset="1" style="stop-color:#E9EFFD"></stop> </linearGradient> <path class="st38" d="M72.2,132.8c-0.1,0-0.2-0.1-0.2-0.2c0-0.3-0.1-0.6-0.2-0.8c0-0.1,0-0.2,0.2-0.3c0.1,0,0.2,0,0.3,0.2 c0.1,0.3,0.1,0.6,0.2,0.8C72.5,132.7,72.4,132.8,72.2,132.8C72.3,132.8,72.2,132.8,72.2,132.8z"></path> </g> <path class="st31" d="M54.8,143.9c-2.9,0-5.7-1.5-7.2-4.2c-0.7-1.3-1.1-2.7-1.1-4c0-2.9,1.5-5.7,4.2-7.2c1.9-1.1,4.1-1.3,6.3-0.8 c2.1,0.6,3.9,2,5,3.9c0.2,0.4,0.4,0.9,0.6,1.3c0,0,0,0,0,0c0,0,0,0,0,0.1c0,0,0,0,0,0.1c0,0,0,0.1,0,0.1l-0.6,0.2 c-0.2-0.5-0.4-1-0.6-1.5c-0.9-1.6-2.3-2.8-3.9-3.4c0,0-0.1,0-0.1,0c-0.2-0.1-0.4-0.1-0.5-0.2c-2-0.5-4-0.3-5.8,0.7 c-2.5,1.4-3.9,4-3.9,6.6c0,1.3,0.3,2.5,1,3.7c2.1,3.7,6.7,5,10.4,2.9c1.2-0.7,2.2-1.7,2.9-2.9l0.6,0.3c-0.7,1.3-1.8,2.4-3.1,3.1 C57.6,143.6,56.2,143.9,54.8,143.9z"></path> </g> <g> <path class="st25" d="M149.9,222.2l0.4-0.5c0,0,0.1-0.1,0.2,0c0,0,0.1,0.1,0,0.2l0,0l-0.4,0.5c0,0-0.1,0.1-0.2,0 C149.9,222.4,149.9,222.3,149.9,222.2z"></path> <path class="st25" d="M151.2,220.5l0.4-0.5c0,0,0.1-0.1,0.2,0c0,0,0.1,0.1,0,0.2l0,0l-0.4,0.5c0,0-0.1,0.1-0.2,0 C151.1,220.6,151.1,220.6,151.2,220.5z"></path> <path class="st25" d="M152.5,218.9l0.4-0.5c0,0,0.1-0.1,0.2,0c0,0,0.1,0.1,0,0.2l0,0l-0.4,0.5c0,0-0.1,0.1-0.2,0 C152.5,219,152.5,218.9,152.5,218.9z"></path> <path class="st25" d="M154,217.3l0.5-0.5c0,0,0.1,0,0.2,0c0,0,0,0.1,0,0.2l0,0l-0.5,0.5c0,0-0.1,0-0.2,0 C154,217.4,154,217.4,154,217.3z"></path> <path class="st25" d="M155.6,215.8l0.5-0.4c0.1,0,0.1,0,0.2,0s0,0.1,0,0.2l0,0l-0.5,0.4c-0.1,0-0.1,0-0.2,0 C155.5,215.9,155.5,215.9,155.6,215.8z"></path> <path class="st25" d="M157.2,214.4l0.5-0.4c0.1,0,0.1,0,0.2,0c0,0.1,0,0.1,0,0.2l0,0l-0.5,0.4c-0.1,0-0.1,0-0.2,0 C157.1,214.5,157.1,214.5,157.2,214.4z"></path> <path class="st25" d="M158.9,213.1l0.5-0.4c0.1,0,0.1,0,0.2,0c0,0.1,0,0.1,0,0.2l0,0l-0.5,0.4c-0.1,0-0.1,0-0.2,0 C158.8,213.2,158.8,213.2,158.9,213.1z"></path> <path class="st25" d="M160.7,211.9l0.5-0.3c0.1,0,0.1,0,0.2,0c0,0.1,0,0.1,0,0.2l0,0l-0.5,0.3c-0.1,0-0.1,0-0.2,0 C160.6,212,160.6,211.9,160.7,211.9z"></path> <path class="st25" d="M162.5,210.7l0.6-0.3c0.1,0,0.1,0,0.2,0c0,0.1,0,0.1,0,0.2l0,0l-0.6,0.3c-0.1,0-0.1,0-0.2,0 C162.4,210.9,162.4,210.8,162.5,210.7z"></path> <path class="st25" d="M164.4,209.7l0.6-0.3c0.1,0,0.2,0,0.2,0.1c0,0.1,0,0.2-0.1,0.2l0,0l-0.6,0.3c-0.1,0-0.2,0-0.2-0.1 C164.3,209.8,164.3,209.7,164.4,209.7z"></path> <path class="st25" d="M166.3,208.7l0.6-0.3c0.1,0,0.2,0,0.2,0.1c0,0.1,0,0.2-0.1,0.2l0,0l-0.6,0.3c-0.1,0-0.2,0-0.2-0.1 C166.2,208.9,166.2,208.8,166.3,208.7z"></path> <path class="st25" d="M168.3,207.9l0.6-0.2c0.1,0,0.2,0,0.2,0.1c0,0.1,0,0.2-0.1,0.2l0,0l-0.6,0.2c-0.1,0-0.2,0-0.2-0.1 C168.1,208,168.2,207.9,168.3,207.9z"></path> <path class="st25" d="M170.3,207.1l0.6-0.2c0.1,0,0.2,0,0.2,0.1c0,0.1,0,0.2-0.1,0.2l0,0l-0.6,0.2c-0.1,0-0.2,0-0.2-0.1 C170.1,207.2,170.2,207.1,170.3,207.1z"></path> <path class="st25" d="M172.3,206.4l0.6-0.2c0.1,0,0.2,0,0.2,0.1c0,0.1,0,0.2-0.1,0.2l0,0l-0.6,0.2c-0.1,0-0.2,0-0.2-0.1 C172.2,206.5,172.2,206.4,172.3,206.4z"></path> <path class="st25" d="M174.3,205.7l0.6-0.2c0.1,0,0.2,0,0.2,0.1c0,0.1,0,0.2-0.1,0.2l0,0l-0.6,0.2c-0.1,0-0.2,0-0.2-0.1 C174.2,205.8,174.3,205.8,174.3,205.7z"></path> <path class="st25" d="M176.4,205.2l0.6-0.1c0.1,0,0.2,0,0.2,0.1c0,0.1,0,0.2-0.1,0.2l0,0l-0.6,0.1c-0.1,0-0.2,0-0.2-0.1 S176.3,205.2,176.4,205.2z"></path> <path class="st25" d="M178.5,204.8l0.6-0.1c0.1,0,0.2,0,0.2,0.1c0,0.1,0,0.2-0.1,0.2l0,0l-0.6,0.1c-0.1,0-0.2,0-0.2-0.1 C178.4,204.9,178.4,204.8,178.5,204.8z"></path> <path class="st25" d="M180.6,204.4l0.6-0.1c0.1,0,0.2,0,0.2,0.1c0,0.1,0,0.2-0.1,0.2l0,0l-0.6,0.1c-0.1,0-0.2,0-0.2-0.1 C180.5,204.5,180.6,204.4,180.6,204.4z"></path> <path class="st25" d="M182.8,204.1l0.6-0.1c0.1,0,0.2,0.1,0.2,0.1s-0.1,0.2-0.1,0.2l0,0l-0.6,0.1c-0.1,0-0.2-0.1-0.2-0.1 C182.6,204.2,182.7,204.1,182.8,204.1z"></path> <path class="st25" d="M184.9,203.9l0.6-0.1c0.1,0,0.2,0.1,0.2,0.2c0,0.1-0.1,0.2-0.2,0.2l0,0l-0.6,0c-0.1,0-0.2-0.1-0.2-0.2 C184.7,204,184.8,203.9,184.9,203.9z"></path> <path class="st25" d="M187.1,203.7l0.6,0c0.1,0,0.2,0.1,0.2,0.2c0,0.1-0.1,0.2-0.2,0.2l0,0l-0.6,0c-0.1,0-0.2-0.1-0.2-0.2 S187,203.8,187.1,203.7z"></path> <path class="st25" d="M189.2,203.7l0.6,0c0.1,0,0.2,0.1,0.2,0.2c0,0.1-0.1,0.2-0.2,0.2h0l-0.6,0c-0.1,0-0.2-0.1-0.2-0.2 C189,203.8,189.1,203.7,189.2,203.7z"></path> <path class="st25" d="M191.3,203.7l0.6,0c0.1,0,0.2,0.1,0.2,0.2c0,0.1-0.1,0.2-0.2,0.2l0,0l-0.6,0c-0.1,0-0.2-0.1-0.2-0.2 S191.2,203.7,191.3,203.7z"></path> <path class="st25" d="M193.5,203.7l0.6,0c0.1,0,0.2,0.1,0.2,0.2c0,0.1-0.1,0.2-0.2,0.2l0,0l-0.6,0c-0.1,0-0.2-0.1-0.2-0.2 C193.3,203.8,193.4,203.7,193.5,203.7z"></path> <path class="st25" d="M195.6,203.8l0.6,0c0.1,0,0.2,0.1,0.2,0.2c0,0.1-0.1,0.2-0.2,0.2l0,0l-0.6,0c-0.1,0-0.2-0.1-0.2-0.2 C195.4,203.9,195.5,203.8,195.6,203.8z"></path> <path class="st25" d="M197.8,204l0.6,0.1c0.1,0,0.2,0.1,0.2,0.2c0,0.1-0.1,0.2-0.2,0.2l0,0l-0.6-0.1c-0.1,0-0.2-0.1-0.2-0.2 C197.6,204.1,197.7,204,197.8,204z"></path> <path class="st25" d="M199.9,204.2l0.6,0.1c0.1,0,0.2,0.1,0.2,0.2c0,0.1-0.1,0.2-0.2,0.2l0,0l-0.6-0.1c-0.1,0-0.2-0.1-0.2-0.2 C199.7,204.3,199.8,204.2,199.9,204.2z"></path> <path class="st25" d="M202,204.5l0.6,0.1c0.1,0,0.2,0.1,0.2,0.2c0,0.1-0.1,0.2-0.2,0.2l0,0l-0.6-0.1c-0.1,0-0.2-0.1-0.2-0.2 S201.9,204.5,202,204.5z"></path> <path class="st25" d="M204.2,204.8l0.6,0.1c0.1,0,0.2,0.1,0.2,0.2c0,0.1-0.1,0.2-0.2,0.2l0,0l-0.6-0.1c-0.1,0-0.2-0.1-0.2-0.2 S204.1,204.8,204.2,204.8z"></path> <path class="st25" d="M206.3,205.2l0.6,0.1c0.1,0,0.2,0.1,0.2,0.2c0,0.1-0.1,0.2-0.2,0.2l0,0l-0.6-0.1c-0.1,0-0.2-0.1-0.2-0.2 C206.1,205.3,206.2,205.2,206.3,205.2z"></path> <path class="st25" d="M208.4,205.6l0.6,0.1c0.1,0,0.2,0.1,0.2,0.2c0,0.1-0.1,0.2-0.2,0.2l0,0l-0.6-0.1c-0.1,0-0.2-0.1-0.2-0.2 C208.2,205.7,208.3,205.6,208.4,205.6z"></path> <path class="st25" d="M210.5,206.1l0.6,0.1c0.1,0,0.2,0.1,0.2,0.2c0,0.1-0.1,0.2-0.2,0.2l0,0l-0.6-0.1c-0.1,0-0.2-0.1-0.2-0.2 S210.4,206.1,210.5,206.1z"></path> <path class="st25" d="M212.6,206.6l0.6,0.2c0.1,0,0.2,0.1,0.2,0.3c0,0.1-0.1,0.2-0.3,0.2l0,0l-0.6-0.2c-0.1,0-0.2-0.1-0.2-0.3 C212.4,206.6,212.5,206.6,212.6,206.6z"></path> <path class="st25" d="M214.7,207.1l0.6,0.2c0.1,0,0.2,0.1,0.1,0.3c0,0.1-0.1,0.2-0.3,0.1l0,0l-0.6-0.2c-0.1,0-0.2-0.1-0.1-0.3 C214.4,207.2,214.5,207.1,214.7,207.1z"></path> <path class="st25" d="M216.7,207.7l0.6,0.2c0.1,0,0.2,0.1,0.1,0.3c0,0.1-0.1,0.2-0.3,0.1l0,0l-0.6-0.2c-0.1,0-0.2-0.1-0.1-0.3 C216.5,207.7,216.6,207.6,216.7,207.7z"></path> <path class="st25" d="M218.8,208.3l0.6,0.2c0.1,0,0.2,0.2,0.1,0.3c0,0.1-0.2,0.2-0.3,0.1l0,0l-0.6-0.2c-0.1,0-0.2-0.2-0.1-0.3 C218.6,208.3,218.7,208.2,218.8,208.3z"></path> <path class="st25" d="M220.8,208.9l0.6,0.2c0.1,0,0.2,0.2,0.1,0.3c0,0.1-0.2,0.2-0.3,0.1l0,0l-0.6-0.2c-0.1,0-0.2-0.2-0.1-0.3 C220.6,208.9,220.7,208.9,220.8,208.9z"></path> <path class="st25" d="M222.9,209.6l0.6,0.2c0.1,0,0.2,0.2,0.1,0.3s-0.2,0.2-0.3,0.1l0,0l-0.6-0.2c-0.1,0-0.2-0.2-0.1-0.3 C222.6,209.6,222.8,209.5,222.9,209.6z"></path> <path class="st25" d="M224.9,210.2l0.6,0.2c0.1,0,0.2,0.2,0.1,0.3c0,0.1-0.2,0.2-0.3,0.1l0,0l-0.6-0.2c-0.1,0-0.2-0.2-0.1-0.3 S224.8,210.2,224.9,210.2z"></path> <path class="st25" d="M226.9,211l0.6,0.2c0.1,0,0.2,0.2,0.1,0.3c0,0.1-0.2,0.2-0.3,0.1l0,0l-0.6-0.2c-0.1,0-0.2-0.2-0.1-0.3 C226.7,211,226.8,210.9,226.9,211z"></path> <path class="st25" d="M229,211.7l0.6,0.2c0.1,0,0.2,0.2,0.1,0.3c0,0.1-0.2,0.2-0.3,0.1l0,0l-0.6-0.2c-0.1,0-0.2-0.2-0.1-0.3 C228.7,211.7,228.8,211.7,229,211.7z"></path> <path class="st25" d="M231,212.5l0.6,0.2c0.1,0,0.2,0.2,0.1,0.3c0,0.1-0.2,0.2-0.3,0.1l0,0l-0.6-0.2c-0.1,0-0.2-0.2-0.1-0.3 C230.7,212.5,230.8,212.4,231,212.5z"></path> <path class="st25" d="M233,213.2l0.6,0.2c0.1,0,0.2,0.2,0.1,0.3s-0.2,0.2-0.3,0.1l0,0l-0.6-0.2c-0.1,0-0.2-0.2-0.1-0.3 C232.7,213.2,232.8,213.2,233,213.2z"></path> <path class="st25" d="M234.9,214l0.6,0.2c0.1,0,0.2,0.2,0.1,0.3c0,0.1-0.2,0.2-0.3,0.1l0,0l-0.6-0.2c-0.1,0-0.2-0.2-0.1-0.3 C234.7,214.1,234.8,214,234.9,214z"></path> <path class="st25" d="M236.9,214.9l0.6,0.2c0.1,0,0.2,0.2,0.1,0.3c0,0.1-0.2,0.2-0.3,0.1l0,0l-0.6-0.2c-0.1,0-0.2-0.2-0.1-0.3 C236.7,214.9,236.8,214.8,236.9,214.9z"></path> <path class="st25" d="M238.9,215.7l0.6,0.3c0.1,0,0.2,0.2,0.1,0.3s-0.2,0.2-0.3,0.1l0,0l-0.6-0.3c-0.1,0-0.2-0.2-0.1-0.3 C238.7,215.7,238.8,215.7,238.9,215.7z"></path> <path class="st25" d="M240.9,216.6l0.6,0.3c0.1,0.1,0.2,0.2,0.1,0.3c-0.1,0.1-0.2,0.2-0.3,0.1l0,0l-0.6-0.3 c-0.1-0.1-0.2-0.2-0.1-0.3C240.6,216.6,240.8,216.5,240.9,216.6z"></path> <path class="st25" d="M242.8,217.4l0.6,0.3c0.1,0.1,0.2,0.2,0.1,0.3c-0.1,0.1-0.2,0.2-0.3,0.1l0,0l-0.6-0.3 c-0.1-0.1-0.2-0.2-0.1-0.3C242.6,217.4,242.7,217.4,242.8,217.4z"></path> <path class="st25" d="M244.8,218.3l0.6,0.3c0.1,0.1,0.2,0.2,0.1,0.3c-0.1,0.1-0.2,0.2-0.3,0.1l0,0l-0.6-0.3 c-0.1-0.1-0.2-0.2-0.1-0.3C244.5,218.3,244.7,218.3,244.8,218.3z"></path> <path class="st25" d="M246.7,219.2l0.6,0.3c0.1,0.1,0.2,0.2,0.1,0.3c-0.1,0.1-0.2,0.2-0.3,0.1l0,0l-0.6-0.3 c-0.1-0.1-0.2-0.2-0.1-0.3C246.5,219.2,246.6,219.2,246.7,219.2z"></path> <path class="st25" d="M248.7,220.1l0.6,0.3c0.1,0.1,0.2,0.2,0.1,0.3c-0.1,0.1-0.2,0.2-0.3,0.1l0,0l-0.6-0.3 c-0.1-0.1-0.2-0.2-0.1-0.3C248.4,220.1,248.6,220.1,248.7,220.1z"></path> <path class="st25" d="M250.6,221l0.6,0.3c0.1,0.1,0.2,0.2,0.1,0.3c-0.1,0.1-0.2,0.2-0.3,0.1l0,0l-0.6-0.3 c-0.1-0.1-0.2-0.2-0.1-0.3C250.4,221,250.5,221,250.6,221z"></path> <path class="st25" d="M252.5,222l0.6,0.3c0.1,0.1,0.2,0.2,0.1,0.3c-0.1,0.1-0.2,0.2-0.3,0.1l0,0l-0.6-0.3 c-0.1-0.1-0.2-0.2-0.1-0.3C252.3,221.9,252.4,221.9,252.5,222z"></path> <path class="st25" d="M254.5,222.9l0.6,0.3c0.1,0.1,0.2,0.2,0.1,0.3c-0.1,0.1-0.2,0.2-0.3,0.1l0,0l-0.6-0.3 c-0.1-0.1-0.2-0.2-0.1-0.3C254.2,222.9,254.4,222.8,254.5,222.9z"></path> <path class="st25" d="M256.4,223.8l0.6,0.3c0.1,0.1,0.2,0.2,0.1,0.3c-0.1,0.1-0.2,0.2-0.3,0.1l0,0l-0.6-0.3 c-0.1-0.1-0.2-0.2-0.1-0.3S256.3,223.8,256.4,223.8z"></path> <path class="st25" d="M258.3,224.8l0.6,0.3c0.1,0.1,0.2,0.2,0.1,0.3c-0.1,0.1-0.2,0.2-0.3,0.1l0,0l-0.6-0.3 c-0.1-0.1-0.2-0.2-0.1-0.3C258.1,224.7,258.2,224.7,258.3,224.8z"></path> <path class="st25" d="M260.3,225.7l0.6,0.3c0.1,0.1,0.2,0.2,0.1,0.3c-0.1,0.1-0.2,0.2-0.3,0.1l0,0l-0.6-0.3 c-0.1-0.1-0.2-0.2-0.1-0.3S260.1,225.6,260.3,225.7z"></path> <path class="st25" d="M262.2,226.6l0.6,0.3c0.1,0.1,0.2,0.2,0.1,0.3c-0.1,0.1-0.2,0.2-0.3,0.1l0,0l-0.6-0.3 c-0.1-0.1-0.2-0.2-0.1-0.3C261.9,226.6,262.1,226.6,262.2,226.6z"></path> <path class="st25" d="M264.1,227.6l0.6,0.3c0.1,0.1,0.2,0.2,0.1,0.3s-0.2,0.2-0.3,0.1l0,0l-0.6-0.3c-0.1-0.1-0.2-0.2-0.1-0.3 C263.8,227.6,264,227.5,264.1,227.6z"></path> <path class="st25" d="M266,228.5l0.6,0.3c0.1,0.1,0.2,0.2,0.1,0.3c-0.1,0.1-0.2,0.2-0.3,0.1l0,0l-0.6-0.3 c-0.1-0.1-0.2-0.2-0.1-0.3C265.8,228.5,265.9,228.5,266,228.5z"></path> <path class="st25" d="M268,229.5l0.6,0.3c0.1,0.1,0.2,0.2,0.1,0.3c-0.1,0.1-0.2,0.2-0.3,0.1l0,0l-0.6-0.3 c-0.1-0.1-0.2-0.2-0.1-0.3C267.7,229.5,267.8,229.4,268,229.5z"></path> <path class="st25" d="M269.9,230.4l0.6,0.3c0.1,0.1,0.2,0.2,0.1,0.3c-0.1,0.1-0.2,0.2-0.3,0.1l0,0l-0.6-0.3 c-0.1-0.1-0.2-0.2-0.1-0.3C269.6,230.4,269.8,230.4,269.9,230.4z"></path> <path class="st25" d="M271.8,231.4l0.6,0.3c0.1,0.1,0.2,0.2,0.1,0.3c-0.1,0.1-0.2,0.2-0.3,0.1l0,0l-0.6-0.3 c-0.1-0.1-0.2-0.2-0.1-0.3C271.5,231.3,271.7,231.3,271.8,231.4z"></path> <path class="st25" d="M273.7,232.3l0.6,0.3c0.1,0.1,0.2,0.2,0.1,0.3c-0.1,0.1-0.2,0.2-0.3,0.1l0,0l-0.6-0.3 c-0.1-0.1-0.2-0.2-0.1-0.3C273.5,232.3,273.6,232.2,273.7,232.3z"></path> <path class="st25" d="M275.7,233.2l0.6,0.3c0.1,0.1,0.2,0.2,0.1,0.3c-0.1,0.1-0.2,0.2-0.3,0.1l0,0l-0.6-0.3 c-0.1-0.1-0.2-0.2-0.1-0.3C275.4,233.2,275.6,233.1,275.7,233.2z"></path> <path class="st25" d="M277.6,234.1l0.6,0.3c0.1,0.1,0.2,0.2,0.1,0.3c-0.1,0.1-0.2,0.2-0.3,0.1l0,0l-0.6-0.3 c-0.1-0.1-0.2-0.2-0.1-0.3S277.5,234.1,277.6,234.1z"></path> <path class="st25" d="M279.6,235l0.6,0.3c0.1,0.1,0.2,0.2,0.1,0.3c-0.1,0.1-0.2,0.2-0.3,0.1l0,0l-0.6-0.3 c-0.1-0.1-0.2-0.2-0.1-0.3C279.3,235,279.4,235,279.6,235z"></path> <path class="st25" d="M281.5,235.9l0.6,0.3c0.1,0.1,0.2,0.2,0.1,0.3c-0.1,0.1-0.2,0.2-0.3,0.1l0,0l-0.6-0.3 c-0.1-0.1-0.2-0.2-0.1-0.3C281.2,235.9,281.4,235.8,281.5,235.9z"></path> <path class="st25" d="M283.5,236.8l0.6,0.3c0.1,0.1,0.2,0.2,0.1,0.3c-0.1,0.1-0.2,0.2-0.3,0.1l0,0l-0.6-0.3 c-0.1-0.1-0.2-0.2-0.1-0.3C283.2,236.8,283.3,236.7,283.5,236.8z"></path> <path class="st25" d="M285.4,237.6l0.6,0.3c0.1,0.1,0.2,0.2,0.1,0.3c-0.1,0.1-0.2,0.2-0.3,0.1l0,0l-0.6-0.3 c-0.1-0.1-0.2-0.2-0.1-0.3C285.1,237.6,285.3,237.6,285.4,237.6z"></path> <path class="st25" d="M287.4,238.5l0.6,0.3c0.1,0.1,0.2,0.2,0.1,0.3c-0.1,0.1-0.2,0.2-0.3,0.1l0,0l-0.6-0.3 c-0.1-0.1-0.2-0.2-0.1-0.3S287.3,238.4,287.4,238.5z"></path> <path class="st25" d="M289.4,239.3l0.6,0.2c0.1,0.1,0.2,0.2,0.1,0.3c-0.1,0.1-0.2,0.2-0.3,0.1l0,0l-0.6-0.2 c-0.1-0.1-0.2-0.2-0.1-0.3C289.1,239.3,289.2,239.3,289.4,239.3z"></path> <path class="st25" d="M291.3,240.1l0.6,0.2c0.1,0.1,0.2,0.2,0.1,0.3c-0.1,0.1-0.2,0.2-0.3,0.1l0,0l-0.6-0.2 c-0.1-0.1-0.2-0.2-0.1-0.3S291.2,240.1,291.3,240.1z"></path> <path class="st25" d="M293.3,240.9l0.6,0.2c0.1,0.1,0.2,0.2,0.1,0.3c-0.1,0.1-0.2,0.2-0.3,0.1l0,0l-0.6-0.2 c-0.1-0.1-0.2-0.2-0.1-0.3C293,240.9,293.2,240.9,293.3,240.9z"></path> <path class="st25" d="M295.3,241.7l0.6,0.2c0.1,0.1,0.2,0.2,0.2,0.3c-0.1,0.1-0.2,0.2-0.3,0.2l0,0l-0.6-0.2 c-0.1-0.1-0.2-0.2-0.2-0.3C295,241.7,295.2,241.6,295.3,241.7z"></path> <path class="st25" d="M297.3,242.4l0.6,0.2c0.1,0.1,0.2,0.2,0.2,0.3c-0.1,0.1-0.2,0.2-0.3,0.2l0,0l-0.6-0.2 c-0.1-0.1-0.2-0.2-0.2-0.3C297,242.5,297.2,242.4,297.3,242.4z"></path> <path class="st25" d="M299.3,243.2l0.6,0.2c0.1,0,0.2,0.2,0.2,0.3c0,0.1-0.2,0.2-0.3,0.2l0,0l-0.6-0.2c-0.1,0-0.2-0.2-0.2-0.3 C299.1,243.2,299.2,243.1,299.3,243.2z"></path> <path class="st25" d="M301.4,243.9l0.6,0.2c0.1,0,0.2,0.2,0.2,0.3c0,0.1-0.2,0.2-0.3,0.2l0,0l-0.6-0.2c-0.1,0-0.2-0.2-0.2-0.3 C301.1,243.9,301.2,243.8,301.4,243.9z"></path> <path class="st25" d="M303.4,244.5l0.6,0.2c0.1,0,0.2,0.2,0.2,0.3c0,0.1-0.2,0.2-0.3,0.2l0,0l-0.6-0.2c-0.1,0-0.2-0.2-0.2-0.3 C303.1,244.6,303.3,244.5,303.4,244.5z"></path> <path class="st25" d="M305.4,245.2l0.6,0.2c0.1,0,0.2,0.2,0.2,0.3c0,0.1-0.2,0.2-0.3,0.2l0,0l-0.6-0.2c-0.1,0-0.2-0.2-0.2-0.3 C305.1,245.2,305.3,245.1,305.4,245.2z"></path> <path class="st25" d="M307.5,245.8l0.6,0.2c0.1,0,0.2,0.2,0.2,0.3c0,0.1-0.2,0.2-0.3,0.2l0,0l-0.6-0.2c-0.1,0-0.2-0.2-0.2-0.3 C307.2,245.8,307.3,245.8,307.5,245.8z"></path> <path class="st25" d="M309.5,246.4l0.6,0.2c0.1,0,0.2,0.2,0.2,0.3c0,0.1-0.2,0.2-0.3,0.2l0,0l-0.6-0.2c-0.1,0-0.2-0.2-0.2-0.3 C309.2,246.4,309.4,246.3,309.5,246.4z"></path> <path class="st25" d="M311.6,246.9l0.6,0.2c0.1,0,0.2,0.2,0.2,0.3c0,0.1-0.2,0.2-0.3,0.2l0,0l-0.6-0.2c-0.1,0-0.2-0.2-0.2-0.3 C311.3,247,311.5,246.9,311.6,246.9z"></path> <path class="st25" d="M313.7,247.5l0.6,0.1c0.1,0,0.2,0.2,0.2,0.3c0,0.1-0.2,0.2-0.3,0.2l0,0l-0.6-0.1c-0.1,0-0.2-0.2-0.2-0.3 C313.4,247.5,313.5,247.4,313.7,247.5z"></path> <path class="st25" d="M315.8,247.9l0.6,0.1c0.1,0,0.2,0.2,0.2,0.3c0,0.1-0.2,0.2-0.3,0.2l0,0l-0.6-0.1c-0.1,0-0.2-0.2-0.2-0.3 C315.5,248,315.6,247.9,315.8,247.9z"></path> <path class="st25" d="M317.9,248.4l0.6,0.1c0.2,0,0.2,0.2,0.2,0.3c0,0.2-0.2,0.2-0.3,0.2l0,0l-0.6-0.1c-0.1,0-0.2-0.2-0.2-0.3 C317.6,248.4,317.7,248.3,317.9,248.4z"></path> <path class="st25" d="M319.9,248.8l0.6,0.1c0.2,0,0.3,0.2,0.2,0.3c0,0.2-0.2,0.3-0.3,0.2l0,0l-0.6-0.1c-0.2,0-0.3-0.2-0.2-0.3 C319.7,248.9,319.8,248.8,319.9,248.8z"></path> <path class="st25" d="M322.1,249.1l0.6,0.1c0.2,0,0.3,0.2,0.2,0.3c0,0.2-0.2,0.3-0.3,0.2l0,0l-0.6-0.1c-0.2,0-0.3-0.2-0.2-0.3 C321.8,249.2,321.9,249.1,322.1,249.1z"></path> <path class="st25" d="M324.2,249.5l0.6,0.1c0.2,0,0.3,0.2,0.2,0.3c0,0.2-0.2,0.3-0.3,0.2l0,0l-0.6-0.1c-0.2,0-0.3-0.2-0.2-0.3 C323.9,249.5,324,249.4,324.2,249.5z"></path> <path class="st25" d="M326.3,249.7l0.6,0.1c0.2,0,0.3,0.2,0.2,0.3c0,0.2-0.2,0.3-0.3,0.2l0,0l-0.6-0.1c-0.2,0-0.3-0.2-0.2-0.3 C326,249.8,326.1,249.7,326.3,249.7z"></path> <path class="st25" d="M328.4,249.9l0.6,0.1c0.2,0,0.3,0.2,0.3,0.3c0,0.2-0.2,0.3-0.3,0.3l0,0l-0.6-0.1c-0.2,0-0.3-0.2-0.3-0.3 C328.1,250,328.3,249.9,328.4,249.9z"></path> <path class="st25" d="M330.5,250.1l0.6,0c0.2,0,0.3,0.1,0.3,0.3c0,0.2-0.1,0.3-0.3,0.3l0,0l-0.6,0c-0.2,0-0.3-0.1-0.3-0.3 C330.3,250.2,330.4,250.1,330.5,250.1z"></path> <path class="st25" d="M332.7,250.2l0.6,0c0.2,0,0.3,0.1,0.3,0.3c0,0.2-0.1,0.3-0.3,0.3h0l-0.6,0c-0.2,0-0.3-0.1-0.3-0.3 C332.4,250.4,332.5,250.2,332.7,250.2z"></path> <path class="st25" d="M334.8,250.3l0.6,0c0.2,0,0.3,0.1,0.3,0.3c0,0.2-0.1,0.3-0.3,0.3h0l-0.6,0c-0.2,0-0.3-0.1-0.3-0.3 C334.5,250.4,334.7,250.3,334.8,250.3z"></path> <path class="st25" d="M336.9,250.3l0.6,0c0.2,0,0.3,0.1,0.3,0.3c0,0.2-0.1,0.3-0.3,0.3h0l-0.6,0c-0.2,0-0.3-0.1-0.3-0.3 C336.7,250.5,336.8,250.3,336.9,250.3z"></path> <path class="st25" d="M339.1,250.3l0.6,0c0.2,0,0.3,0.1,0.3,0.3c0,0.2-0.1,0.3-0.3,0.3h0l-0.6,0c-0.2,0-0.3-0.1-0.3-0.3 C338.8,250.5,338.9,250.3,339.1,250.3z"></path> <path class="st25" d="M341.2,250.2l0.6,0c0.2,0,0.3,0.1,0.3,0.3c0,0.2-0.1,0.3-0.3,0.3l0,0l-0.6,0c-0.2,0-0.3-0.1-0.3-0.3 C340.9,250.4,341.1,250.3,341.2,250.2z"></path> <path class="st25" d="M343.3,250.1l0.6-0.1c0.2,0,0.3,0.1,0.3,0.3c0,0.2-0.1,0.3-0.3,0.3l0,0l-0.6,0c-0.2,0-0.3-0.1-0.3-0.3 C343.1,250.3,343.2,250.1,343.3,250.1z"></path> <path class="st25" d="M345.5,249.9l0.6-0.1c0.2,0,0.3,0.1,0.3,0.3c0,0.2-0.1,0.3-0.3,0.3l0,0l-0.6,0.1c-0.2,0-0.3-0.1-0.3-0.3 C345.2,250.1,345.3,249.9,345.5,249.9z"></path> <path class="st25" d="M347.6,249.7l0.6-0.1c0.2,0,0.3,0.1,0.3,0.3c0,0.2-0.1,0.3-0.3,0.3l0,0l-0.6,0.1c-0.2,0-0.3-0.1-0.3-0.3 C347.3,249.9,347.4,249.7,347.6,249.7z"></path> <path class="st25" d="M349.7,249.4l0.6-0.1c0.2,0,0.3,0.1,0.3,0.2c0,0.2-0.1,0.3-0.2,0.3l0,0l-0.6,0.1c-0.2,0-0.3-0.1-0.3-0.2 C349.4,249.6,349.5,249.4,349.7,249.4z"></path> <path class="st25" d="M351.8,249l0.6-0.1c0.2,0,0.3,0.1,0.3,0.2c0,0.2-0.1,0.3-0.2,0.3l0,0l-0.6,0.1c-0.2,0-0.3-0.1-0.3-0.2 C351.5,249.2,351.7,249.1,351.8,249z"></path> <path class="st25" d="M353.9,248.6l0.6-0.1c0.2,0,0.3,0.1,0.4,0.2c0,0.2-0.1,0.3-0.2,0.4l0,0l-0.6,0.1c-0.2,0-0.3-0.1-0.4-0.2 C353.6,248.8,353.7,248.6,353.9,248.6z"></path> <path class="st25" d="M356,248.1l0.6-0.2c0.2,0,0.3,0.1,0.4,0.2c0,0.2-0.1,0.3-0.2,0.4l0,0l-0.6,0.2c-0.2,0-0.3-0.1-0.4-0.2 C355.7,248.3,355.8,248.2,356,248.1z"></path> <path class="st25" d="M358.1,247.6l0.6-0.2c0.2,0,0.3,0,0.4,0.2c0,0.2,0,0.3-0.2,0.4l0,0l-0.6,0.2c-0.2,0-0.3,0-0.4-0.2 C357.8,247.8,357.9,247.6,358.1,247.6z"></path> <path class="st25" d="M360.1,247l0.6-0.2c0.2-0.1,0.3,0,0.4,0.2c0.1,0.2,0,0.3-0.2,0.4l0,0l-0.6,0.2c-0.2,0.1-0.3,0-0.4-0.2 C359.8,247.2,359.9,247,360.1,247z"></path> <path class="st25" d="M362.1,246.3l0.6-0.2c0.2-0.1,0.3,0,0.4,0.2c0.1,0.2,0,0.3-0.2,0.4l0,0l-0.6,0.2c-0.2,0.1-0.3,0-0.4-0.2 C361.9,246.5,362,246.4,362.1,246.3z"></path> <path class="st25" d="M364.1,245.6l0.6-0.2c0.2-0.1,0.3,0,0.4,0.2c0.1,0.2,0,0.3-0.2,0.4l0,0l-0.6,0.2c-0.2,0.1-0.3,0-0.4-0.2 C363.9,245.8,364,245.6,364.1,245.6z"></path> <path class="st25" d="M366.1,244.8l0.6-0.3c0.2-0.1,0.3,0,0.4,0.2s0,0.3-0.2,0.4l0,0l-0.6,0.3c-0.2,0.1-0.3,0-0.4-0.2 C365.9,245,365.9,244.8,366.1,244.8z"></path> <path class="st25" d="M368,243.9l0.6-0.3c0.2-0.1,0.3,0,0.4,0.1c0.1,0.2,0,0.3-0.1,0.4l0,0l-0.6,0.3c-0.2,0.1-0.3,0-0.4-0.1 C367.8,244.2,367.9,244,368,243.9z"></path> <path class="st25" d="M370,243l0.6-0.3c0.2-0.1,0.3,0,0.4,0.1c0.1,0.2,0,0.3-0.1,0.4l0,0l-0.6,0.3c-0.2,0.1-0.3,0-0.4-0.1 C369.7,243.2,369.8,243,370,243z"></path> <path class="st25" d="M371.8,242l0.6-0.3c0.1-0.1,0.3,0,0.4,0.1c0.1,0.1,0,0.3-0.1,0.4l0,0l-0.6,0.3c-0.1,0.1-0.3,0-0.4-0.1 C371.6,242.2,371.7,242,371.8,242z"></path> <path class="st25" d="M373.7,240.9l0.5-0.3c0.1-0.1,0.3,0,0.4,0.1c0.1,0.1,0,0.3-0.1,0.4l0,0l-0.5,0.3c-0.1,0.1-0.3,0-0.4-0.1 C373.5,241.2,373.5,241,373.7,240.9z"></path> <path class="st25" d="M375.5,239.7l0.5-0.4c0.1-0.1,0.3-0.1,0.4,0.1c0.1,0.1,0.1,0.3-0.1,0.4l0,0l-0.5,0.4 c-0.1,0.1-0.3,0.1-0.4-0.1C375.3,240,375.3,239.8,375.5,239.7z"></path> <path class="st25" d="M377.2,238.5l0.5-0.4c0.1-0.1,0.3-0.1,0.4,0.1c0.1,0.1,0.1,0.3-0.1,0.4l0,0l-0.5,0.4 c-0.1,0.1-0.3,0.1-0.4-0.1C377.1,238.8,377.1,238.6,377.2,238.5z"></path> <path class="st25" d="M378.9,237.2l0.5-0.4c0.1-0.1,0.3-0.1,0.4,0.1c0.1,0.1,0.1,0.3-0.1,0.4l0,0l-0.5,0.4 c-0.1,0.1-0.3,0.1-0.4-0.1C378.8,237.5,378.8,237.3,378.9,237.2z"></path> <path class="st25" d="M380.6,235.9l0.5-0.4c0.1-0.1,0.3-0.1,0.4,0c0.1,0.1,0.1,0.3,0,0.4l0,0l-0.5,0.4c-0.1,0.1-0.3,0.1-0.4,0 C380.4,236.2,380.4,236,380.6,235.9z"></path> <path class="st25" d="M382.2,234.5l0.5-0.4c0.1-0.1,0.3-0.1,0.4,0c0.1,0.1,0.1,0.3,0,0.4l0,0l-0.5,0.4c-0.1,0.1-0.3,0.1-0.4,0 C382,234.8,382.1,234.6,382.2,234.5z"></path> <path class="st25" d="M383.7,233l0.5-0.5c0.1-0.1,0.3-0.1,0.5,0c0.1,0.1,0.1,0.3,0,0.5l0,0l-0.5,0.5c-0.1,0.1-0.3,0.1-0.5,0 C383.6,233.4,383.6,233.1,383.7,233z"></path> <path class="st25" d="M385.2,231.5l0.4-0.5c0.1-0.1,0.3-0.1,0.5,0c0.1,0.1,0.1,0.3,0,0.5l0,0l-0.4,0.5c-0.1,0.1-0.3,0.1-0.5,0 C385.1,231.8,385.1,231.6,385.2,231.5z"></path> <path class="st25" d="M386.7,229.9l0.4-0.5c0.1-0.1,0.3-0.1,0.5,0c0.1,0.1,0.1,0.3,0,0.5l-0.4,0.5c-0.1,0.1-0.3,0.1-0.5,0 C386.6,230.3,386.5,230.1,386.7,229.9L386.7,229.9z"></path> <path class="st25" d="M388,228.3l0.4-0.5c0.1-0.1,0.3-0.2,0.4,0c0.1,0.1,0.2,0.3,0,0.4l-0.4,0.5c-0.1,0.1-0.3,0.2-0.4,0 C387.9,228.6,387.9,228.4,388,228.3L388,228.3z"></path> <path class="st25" d="M389.4,226.6l0.4-0.5c0.1-0.1,0.3-0.2,0.4-0.1c0.1,0.1,0.2,0.3,0.1,0.4l-0.4,0.5c-0.1,0.1-0.3,0.2-0.4,0.1 C389.3,227,389.3,226.8,389.4,226.6L389.4,226.6z"></path> <path class="st25" d="M390.6,224.9l0.4-0.5c0.1-0.1,0.3-0.2,0.4-0.1c0.1,0.1,0.2,0.3,0.1,0.4l-0.4,0.5c-0.1,0.1-0.3,0.2-0.4,0.1 C390.6,225.3,390.5,225.1,390.6,224.9L390.6,224.9z"></path> <path class="st25" d="M391.8,223.2l0.4-0.5c0.1-0.1,0.3-0.2,0.4-0.1c0.1,0.1,0.2,0.3,0.1,0.4l-0.4,0.5c-0.1,0.1-0.3,0.2-0.4,0.1 C391.8,223.5,391.7,223.3,391.8,223.2L391.8,223.2z"></path> <path class="st25" d="M393,221.4l0.3-0.5c0.1-0.1,0.3-0.2,0.4-0.1c0.1,0.1,0.2,0.3,0.1,0.4l-0.3,0.5c-0.1,0.1-0.3,0.2-0.4,0.1 C392.9,221.7,392.9,221.5,393,221.4L393,221.4z"></path> <path class="st25" d="M394.1,219.5l0.3-0.6c0.1-0.1,0.3-0.2,0.4-0.1c0.1,0.1,0.2,0.3,0.1,0.4l-0.3,0.6c-0.1,0.1-0.3,0.2-0.4,0.1 S394,219.7,394.1,219.5L394.1,219.5z"></path> <path class="st25" d="M395.1,217.7l0.3-0.6c0.1-0.1,0.3-0.2,0.4-0.1s0.2,0.3,0.1,0.4l-0.3,0.6c-0.1,0.1-0.3,0.2-0.4,0.1 C395.1,218,395,217.8,395.1,217.7L395.1,217.7z"></path> <path class="st25" d="M396.1,215.8l0.3-0.6c0.1-0.1,0.3-0.2,0.4-0.1s0.2,0.3,0.1,0.4l-0.3,0.6c-0.1,0.1-0.3,0.2-0.4,0.1 C396.1,216.1,396,215.9,396.1,215.8L396.1,215.8z"></path> <path class="st25" d="M397,213.8l0.3-0.6c0.1-0.1,0.2-0.2,0.4-0.1c0.1,0.1,0.2,0.2,0.1,0.4l-0.3,0.6c-0.1,0.1-0.2,0.2-0.4,0.1 C397,214.2,396.9,214,397,213.8L397,213.8z"></path> <path class="st25" d="M397.9,211.9l0.2-0.6c0.1-0.1,0.2-0.2,0.4-0.2c0.1,0.1,0.2,0.2,0.2,0.4l-0.2,0.6c-0.1,0.1-0.2,0.2-0.4,0.2 C397.9,212.2,397.8,212,397.9,211.9L397.9,211.9z"></path> <path class="st25" d="M398.7,209.9l0.2-0.6c0.1-0.1,0.2-0.2,0.4-0.2c0.1,0.1,0.2,0.2,0.2,0.4l-0.2,0.6c-0.1,0.1-0.2,0.2-0.4,0.2 C398.7,210.2,398.6,210.1,398.7,209.9L398.7,209.9z"></path> <path class="st25" d="M399.4,207.9l0.2-0.6c0-0.1,0.2-0.2,0.3-0.2c0.1,0,0.2,0.2,0.2,0.3l-0.2,0.6c0,0.1-0.2,0.2-0.3,0.2 C399.4,208.2,399.3,208.1,399.4,207.9L399.4,207.9z"></path> <path class="st25" d="M400.1,205.9l0.2-0.6c0-0.1,0.2-0.2,0.3-0.2c0.1,0,0.2,0.2,0.2,0.3l-0.2,0.6c0,0.1-0.2,0.2-0.3,0.2 C400.1,206.2,400,206,400.1,205.9L400.1,205.9z"></path> <path class="st25" d="M400.7,203.8l0.2-0.6c0-0.1,0.2-0.2,0.3-0.2c0.1,0,0.2,0.2,0.2,0.3l-0.2,0.6c0,0.1-0.2,0.2-0.3,0.2 C400.7,204.1,400.7,204,400.7,203.8L400.7,203.8z"></path> <path class="st25" d="M401.3,201.8l0.2-0.6c0-0.1,0.2-0.2,0.3-0.2c0.1,0,0.2,0.2,0.2,0.3l-0.2,0.6c0,0.1-0.2,0.2-0.3,0.2 C401.3,202.1,401.2,201.9,401.3,201.8L401.3,201.8z"></path> <path class="st25" d="M401.8,199.7l0.1-0.6c0-0.1,0.2-0.2,0.3-0.2c0.1,0,0.2,0.2,0.2,0.3l-0.1,0.6c0,0.1-0.2,0.2-0.3,0.2 C401.8,200,401.7,199.8,401.8,199.7L401.8,199.7z"></path> <path class="st25" d="M402.2,197.6l0.1-0.6c0-0.1,0.1-0.2,0.3-0.2c0.1,0,0.2,0.1,0.2,0.3l-0.1,0.6c0,0.1-0.1,0.2-0.3,0.2 C402.3,197.9,402.2,197.7,402.2,197.6L402.2,197.6z"></path> <path class="st25" d="M402.6,195.5l0.1-0.6c0-0.1,0.1-0.2,0.3-0.2c0.1,0,0.2,0.1,0.2,0.3l-0.1,0.6c0,0.1-0.1,0.2-0.3,0.2 C402.7,195.8,402.6,195.6,402.6,195.5L402.6,195.5z"></path> <path class="st25" d="M402.9,193.4l0.1-0.6c0-0.1,0.1-0.2,0.2-0.2c0.1,0,0.2,0.1,0.2,0.2l-0.1,0.6c0,0.1-0.1,0.2-0.2,0.2 C403,193.6,402.9,193.5,402.9,193.4L402.9,193.4z"></path> <path class="st25" d="M403.2,191.3l0.1-0.6c0-0.1,0.1-0.2,0.2-0.2c0.1,0,0.2,0.1,0.2,0.2l-0.1,0.6c0,0.1-0.1,0.2-0.2,0.2 S403.2,191.4,403.2,191.3L403.2,191.3z"></path> <path class="st25" d="M403.4,189.2l0-0.6c0-0.1,0.1-0.2,0.2-0.2c0.1,0,0.2,0.1,0.2,0.2l0,0.6c0,0.1-0.1,0.2-0.2,0.2 C403.5,189.4,403.4,189.3,403.4,189.2L403.4,189.2z"></path> <path class="st25" d="M403.5,187l0-0.6c0-0.1,0.1-0.2,0.2-0.2c0.1,0,0.2,0.1,0.2,0.2l0,0.6c0,0.1-0.1,0.2-0.2,0.2 C403.6,187.2,403.5,187.1,403.5,187L403.5,187z"></path> <path class="st25" d="M403.6,184.9l0-0.6c0-0.1,0.1-0.2,0.2-0.2c0.1,0,0.2,0.1,0.2,0.2l0,0.6c0,0.1-0.1,0.2-0.2,0.2 S403.6,185,403.6,184.9L403.6,184.9z"></path> <path class="st25" d="M403.6,182.7l0-0.6c0-0.1,0.1-0.2,0.2-0.2c0.1,0,0.2,0.1,0.2,0.2l0,0.6c0,0.1-0.1,0.2-0.2,0.2 C403.7,182.9,403.6,182.8,403.6,182.7L403.6,182.7z"></path> <path class="st25" d="M403.6,180.6l0-0.6c0-0.1,0.1-0.2,0.2-0.2c0.1,0,0.2,0.1,0.2,0.2l0,0.6c0,0.1-0.1,0.2-0.2,0.2 C403.7,180.8,403.6,180.7,403.6,180.6L403.6,180.6z"></path> <path class="st25" d="M403.5,178.5l0-0.6c0-0.1,0.1-0.2,0.2-0.2c0.1,0,0.2,0.1,0.2,0.2l0,0.6c0,0.1-0.1,0.2-0.2,0.2 S403.5,178.6,403.5,178.5L403.5,178.5z"></path> <path class="st25" d="M403.4,176.3l-0.1-0.6c0-0.1,0.1-0.2,0.2-0.2c0.1,0,0.2,0.1,0.2,0.2l0.1,0.6c0,0.1-0.1,0.2-0.2,0.2 S403.4,176.4,403.4,176.3L403.4,176.3z"></path> <path class="st25" d="M403.2,174.2l-0.1-0.6c0-0.1,0.1-0.2,0.1-0.2c0.1,0,0.2,0.1,0.2,0.1l0.1,0.6c0,0.1-0.1,0.2-0.1,0.2 C403.3,174.4,403.2,174.3,403.2,174.2L403.2,174.2z"></path> <path class="st25" d="M402.9,172.1l-0.1-0.6c0-0.1,0.1-0.2,0.1-0.2s0.2,0.1,0.2,0.1l0.1,0.6c0,0.1-0.1,0.2-0.1,0.2 C403,172.2,402.9,172.2,402.9,172.1L402.9,172.1z"></path> <path class="st25" d="M402.6,170l-0.1-0.6c0-0.1,0-0.2,0.1-0.2c0.1,0,0.2,0,0.2,0.1l0.1,0.6c0,0.1,0,0.2-0.1,0.2 C402.7,170.1,402.6,170.1,402.6,170L402.6,170z"></path> <path class="st25" d="M402.3,167.9l-0.1-0.6c0-0.1,0-0.2,0.1-0.2c0.1,0,0.2,0,0.2,0.1l0.1,0.6c0,0.1,0,0.2-0.1,0.2 C402.3,168,402.3,167.9,402.3,167.9L402.3,167.9z"></path> <path class="st25" d="M401.8,165.8l-0.1-0.6c0-0.1,0-0.2,0.1-0.2c0.1,0,0.2,0,0.2,0.1l0.1,0.6c0,0.1,0,0.2-0.1,0.2 C401.9,165.9,401.9,165.8,401.8,165.8L401.8,165.8z"></path> <path class="st25" d="M401.4,163.7l-0.1-0.6c0-0.1,0-0.2,0.1-0.2c0.1,0,0.2,0,0.2,0.1l0.1,0.6c0,0.1,0,0.2-0.1,0.2 C401.5,163.8,401.4,163.7,401.4,163.7L401.4,163.7z"></path> <path class="st25" d="M400.9,161.6l-0.2-0.6c0-0.1,0-0.2,0.1-0.2s0.2,0,0.2,0.1l0.2,0.6c0,0.1,0,0.2-0.1,0.2 S400.9,161.7,400.9,161.6L400.9,161.6z"></path> <path class="st25" d="M400.4,159.5l-0.2-0.6c0-0.1,0-0.2,0.1-0.2c0.1,0,0.2,0,0.2,0.1l0.2,0.6c0,0.1,0,0.2-0.1,0.2 C400.5,159.6,400.4,159.6,400.4,159.5L400.4,159.5z"></path> <path class="st25" d="M399.8,157.5l-0.2-0.6c0-0.1,0-0.2,0.1-0.2c0.1,0,0.2,0,0.2,0.1l0.2,0.6c0,0.1,0,0.2-0.1,0.2 C399.9,157.6,399.8,157.5,399.8,157.5L399.8,157.5z"></path> <path class="st25" d="M399.1,155.4l-0.2-0.6c0-0.1,0-0.2,0.1-0.2s0.2,0,0.2,0.1l0.2,0.6c0,0.1,0,0.2-0.1,0.2 C399.3,155.5,399.2,155.5,399.1,155.4L399.1,155.4z"></path> <path class="st25" d="M398.5,153.4l-0.2-0.6c0-0.1,0-0.2,0.1-0.2c0.1,0,0.2,0,0.2,0.1l0.2,0.6c0,0.1,0,0.2-0.1,0.2 C398.6,153.5,398.5,153.5,398.5,153.4L398.5,153.4z"></path> <path class="st25" d="M397.8,151.4l-0.2-0.6c0-0.1,0-0.2,0.1-0.2c0.1,0,0.2,0,0.2,0.1l0.2,0.6c0,0.1,0,0.2-0.1,0.2 S397.8,151.4,397.8,151.4L397.8,151.4z"></path> <path class="st25" d="M397,149.4l-0.2-0.6c0-0.1,0-0.2,0.1-0.2c0.1,0,0.2,0,0.2,0.1l0.2,0.6c0,0.1,0,0.2-0.1,0.2 C397.1,149.5,397,149.4,397,149.4L397,149.4z"></path> <path class="st25" d="M396.2,147.4l-0.2-0.6c0-0.1,0-0.2,0.1-0.2c0.1,0,0.2,0,0.2,0.1l0.2,0.6c0,0.1,0,0.2-0.1,0.2 C396.3,147.5,396.3,147.4,396.2,147.4L396.2,147.4z"></path> <path class="st25" d="M395.4,145.4l-0.3-0.6c0-0.1,0-0.2,0.1-0.2c0.1,0,0.2,0,0.2,0.1l0.3,0.6c0,0.1,0,0.2-0.1,0.2 C395.5,145.5,395.4,145.5,395.4,145.4L395.4,145.4z"></path> <path class="st25" d="M394.5,143.4l-0.3-0.6c0-0.1,0-0.2,0.1-0.2c0.1,0,0.2,0,0.2,0.1l0.3,0.6c0,0.1,0,0.2-0.1,0.2 C394.7,143.5,394.6,143.5,394.5,143.4L394.5,143.4z"></path> <path class="st25" d="M393.6,141.5l-0.3-0.6c0-0.1,0-0.2,0.1-0.2s0.2,0,0.2,0.1l0.3,0.6c0,0.1,0,0.2-0.1,0.2 C393.8,141.6,393.7,141.6,393.6,141.5L393.6,141.5z"></path> <path class="st25" d="M392.7,139.6l-0.3-0.6c0-0.1,0-0.2,0.1-0.2c0.1,0,0.2,0,0.2,0.1l0.3,0.6c0,0.1,0,0.2-0.1,0.2 C392.8,139.7,392.7,139.6,392.7,139.6L392.7,139.6z"></path> <path class="st25" d="M391.7,137.7l-0.3-0.6c0-0.1,0-0.2,0.1-0.2c0.1,0,0.2,0,0.2,0.1l0.3,0.6c0,0.1,0,0.2-0.1,0.2 C391.9,137.8,391.8,137.7,391.7,137.7L391.7,137.7z"></path> <path class="st25" d="M390.7,135.8l-0.3-0.6c0-0.1,0-0.2,0.1-0.2c0.1,0,0.2,0,0.2,0.1l0.3,0.6c0,0.1,0,0.2-0.1,0.2 C390.9,135.9,390.8,135.8,390.7,135.8L390.7,135.8z"></path> <path class="st25" d="M389.7,133.9l-0.3-0.6c0-0.1,0-0.2,0.1-0.2c0.1,0,0.2,0,0.2,0.1l0.3,0.6c0,0.1,0,0.2-0.1,0.2 C389.8,134,389.8,134,389.7,133.9L389.7,133.9z"></path> <path class="st25" d="M388.7,132l-0.3-0.6c0-0.1,0-0.2,0.1-0.2s0.2,0,0.2,0.1l0.3,0.6c0,0.1,0,0.2-0.1,0.2 C388.8,132.1,388.7,132.1,388.7,132L388.7,132z"></path> <path class="st25" d="M387.6,130.2l-0.3-0.6c0-0.1,0-0.2,0.1-0.2s0.2,0,0.2,0.1l0.3,0.6c0,0.1,0,0.2-0.1,0.2 C387.7,130.3,387.6,130.2,387.6,130.2L387.6,130.2z"></path> <path class="st25" d="M386.4,128.4l-0.3-0.5c0-0.1,0-0.2,0-0.2c0.1,0,0.2,0,0.2,0l0.3,0.5c0,0.1,0,0.2,0,0.2 C386.6,128.4,386.5,128.4,386.4,128.4L386.4,128.4z"></path> <path class="st25" d="M385.3,126.5l-0.3-0.5c0-0.1,0-0.2,0-0.2c0.1,0,0.2,0,0.2,0l0.4,0.5c0,0.1,0,0.2,0,0.2 C385.4,126.6,385.3,126.6,385.3,126.5L385.3,126.5z"></path> <path class="st25" d="M384.1,124.8l-0.4-0.5c0-0.1,0-0.2,0-0.2c0.1,0,0.2,0,0.2,0l0.4,0.5c0,0.1,0,0.2,0,0.2 C384.3,124.8,384.2,124.8,384.1,124.8L384.1,124.8z"></path> <path class="st25" d="M382.9,123l-0.4-0.5c0-0.1,0-0.2,0-0.2c0.1,0,0.2,0,0.2,0l0.4,0.5c0,0.1,0,0.2,0,0.2 C383.1,123.1,383,123,382.9,123L382.9,123z"></path> <path class="st25" d="M381.7,121.2l-0.4-0.5c0-0.1,0-0.2,0-0.2c0.1,0,0.2,0,0.2,0l0.4,0.5c0,0.1,0,0.2,0,0.2 C381.8,121.3,381.7,121.3,381.7,121.2L381.7,121.2z"></path> <path class="st25" d="M380.4,119.5L380,119c0-0.1,0-0.2,0-0.2c0.1,0,0.2,0,0.2,0l0.4,0.5c0,0.1,0,0.2,0,0.2 C380.6,119.6,380.5,119.6,380.4,119.5L380.4,119.5z"></path> <path class="st25" d="M379.1,117.8l-0.4-0.5c0-0.1,0-0.2,0-0.2c0.1,0,0.2,0,0.2,0l0.4,0.5c0,0.1,0,0.2,0,0.2 C379.3,117.9,379.2,117.8,379.1,117.8L379.1,117.8z"></path> <path class="st25" d="M377.8,116.1l-0.4-0.5c-0.1-0.1,0-0.2,0-0.2s0.2,0,0.2,0l0.4,0.5c0.1,0.1,0,0.2,0,0.2 C378,116.2,377.9,116.2,377.8,116.1L377.8,116.1z"></path> <path class="st25" d="M376.5,114.4l-0.4-0.5c-0.1-0.1,0-0.2,0-0.2c0.1-0.1,0.2,0,0.2,0l0.4,0.5c0.1,0.1,0,0.2,0,0.2 C376.6,114.5,376.5,114.5,376.5,114.4L376.5,114.4z"></path> <path class="st25" d="M375.1,112.8l-0.4-0.5c-0.1-0.1,0-0.2,0-0.2c0.1-0.1,0.2,0,0.2,0l0.4,0.5c0.1,0.1,0,0.2,0,0.2 C375.3,112.9,375.2,112.9,375.1,112.8L375.1,112.8z"></path> <path class="st25" d="M373.7,111.2l-0.4-0.5c-0.1-0.1,0-0.2,0-0.2c0.1-0.1,0.2,0,0.2,0l0.4,0.5c0.1,0.1,0,0.2,0,0.2 C373.9,111.2,373.8,111.2,373.7,111.2L373.7,111.2z"></path> <path class="st25" d="M372.3,109.6l-0.4-0.5c-0.1-0.1-0.1-0.2,0-0.2s0.2-0.1,0.2,0l0.4,0.5c0.1,0.1,0.1,0.2,0,0.2 C372.4,109.6,372.3,109.6,372.3,109.6L372.3,109.6z"></path> <path class="st25" d="M370.8,108l-0.4-0.5c-0.1-0.1-0.1-0.1,0-0.2c0.1-0.1,0.1-0.1,0.2,0l0.4,0.5c0.1,0.1,0.1,0.1,0,0.2 C371,108.1,370.9,108.1,370.8,108L370.8,108z"></path> <path class="st25" d="M369.3,106.5l-0.5-0.5c-0.1-0.1-0.1-0.1,0-0.2c0.1-0.1,0.1-0.1,0.2,0l0.5,0.5c0.1,0.1,0.1,0.1,0,0.2 C369.5,106.5,369.4,106.5,369.3,106.5L369.3,106.5z"></path> <path class="st25" d="M367.8,105l-0.5-0.4c-0.1-0.1-0.1-0.1,0-0.2c0.1-0.1,0.1-0.1,0.2,0l0.5,0.4c0.1,0.1,0.1,0.1,0,0.2 C367.9,105,367.8,105,367.8,105L367.8,105z"></path> <path class="st25" d="M366.2,103.5l-0.5-0.4c-0.1-0.1-0.1-0.1,0-0.2c0.1-0.1,0.1-0.1,0.2,0l0.5,0.4c0.1,0.1,0.1,0.1,0,0.2 C366.4,103.6,366.3,103.6,366.2,103.5L366.2,103.5z"></path> <path class="st25" d="M364.6,102.1l-0.5-0.4c-0.1-0.1-0.1-0.1,0-0.2c0.1-0.1,0.1-0.1,0.2,0l0.5,0.4c0.1,0.1,0.1,0.1,0,0.2 S364.7,102.1,364.6,102.1L364.6,102.1z"></path> <path class="st25" d="M363,100.7l-0.5-0.4c-0.1-0.1-0.1-0.1,0-0.2s0.1-0.1,0.2,0l0.5,0.4c0.1,0.1,0.1,0.1,0,0.2 C363.2,100.7,363.1,100.7,363,100.7L363,100.7z"></path> <path class="st25" d="M361.4,99.3l-0.5-0.4c-0.1,0-0.1-0.1,0-0.2c0-0.1,0.1-0.1,0.2,0l0.5,0.4c0.1,0,0.1,0.1,0,0.2 C361.5,99.4,361.4,99.4,361.4,99.3L361.4,99.3z"></path> <path class="st25" d="M359.7,98l-0.5-0.4c-0.1,0-0.1-0.1,0-0.2c0-0.1,0.1-0.1,0.2,0l0.5,0.4c0.1,0,0.1,0.1,0,0.2 C359.8,98,359.8,98.1,359.7,98L359.7,98z"></path> <path class="st25" d="M358,96.7l-0.5-0.4c-0.1,0-0.1-0.1,0-0.2c0-0.1,0.1-0.1,0.2,0l0.5,0.4c0.1,0,0.1,0.1,0,0.2 C358.1,96.8,358,96.8,358,96.7L358,96.7z"></path> <path class="st25" d="M356.2,95.5l-0.5-0.4c-0.1,0-0.1-0.1,0-0.2c0-0.1,0.1-0.1,0.2,0l0.5,0.4c0.1,0,0.1,0.1,0,0.2 C356.4,95.5,356.3,95.5,356.2,95.5L356.2,95.5z"></path> <path class="st25" d="M354.5,94.3l-0.5-0.3c-0.1,0-0.1-0.1,0-0.2c0-0.1,0.1-0.1,0.2,0l0.5,0.3c0.1,0,0.1,0.1,0,0.2 C354.6,94.3,354.5,94.3,354.5,94.3L354.5,94.3z"></path> <path class="st25" d="M352.7,93.2l-0.5-0.3c-0.1,0-0.1-0.1,0-0.2c0-0.1,0.1-0.1,0.2,0l0.5,0.3c0.1,0,0.1,0.1,0,0.2 C352.8,93.2,352.7,93.2,352.7,93.2L352.7,93.2z"></path> <path class="st25" d="M350.8,92.1l-0.6-0.3c-0.1,0-0.1-0.1-0.1-0.2c0-0.1,0.1-0.1,0.2-0.1l0.6,0.3c0.1,0,0.1,0.1,0.1,0.2 C351,92.1,350.9,92.1,350.8,92.1L350.8,92.1z"></path> <path class="st25" d="M349,91l-0.6-0.3c-0.1,0-0.1-0.1-0.1-0.2c0-0.1,0.1-0.1,0.2-0.1l0.6,0.3c0.1,0,0.1,0.1,0.1,0.2 C349.1,91,349,91,349,91L349,91z"></path> <path class="st25" d="M347.1,90l-0.6-0.3c-0.1,0-0.1-0.1-0.1-0.2c0-0.1,0.1-0.1,0.2-0.1l0.6,0.3c0.1,0,0.1,0.1,0.1,0.2 C347.2,90,347.1,90.1,347.1,90L347.1,90z"></path> <path class="st25" d="M345.1,89.1l-0.6-0.3c-0.1,0-0.1-0.1-0.1-0.2c0-0.1,0.1-0.1,0.2-0.1l0.6,0.3c0.1,0,0.1,0.1,0.1,0.2 C345.3,89.1,345.2,89.1,345.1,89.1L345.1,89.1z"></path> <path class="st25" d="M343.2,88.2l-0.6-0.3c-0.1,0-0.1-0.1-0.1-0.2c0-0.1,0.1-0.1,0.2-0.1l0.6,0.3c0.1,0,0.1,0.1,0.1,0.2 C343.3,88.2,343.3,88.2,343.2,88.2L343.2,88.2z"></path> <path class="st25" d="M341.2,87.4l-0.6-0.2c-0.1,0-0.1-0.1-0.1-0.2c0-0.1,0.1-0.1,0.2-0.1l0.6,0.2c0.1,0,0.1,0.1,0.1,0.2 C341.4,87.4,341.3,87.4,341.2,87.4L341.2,87.4z"></path> <path class="st25" d="M339.2,86.6l-0.6-0.2c-0.1,0-0.1-0.1-0.1-0.2s0.1-0.1,0.2-0.1l0.6,0.2c0.1,0,0.1,0.1,0.1,0.2 C339.4,86.6,339.3,86.6,339.2,86.6L339.2,86.6z"></path> <path class="st25" d="M337.2,85.9l-0.6-0.2c-0.1,0-0.1-0.1-0.1-0.2c0-0.1,0.1-0.1,0.2-0.1l0.6,0.2c0.1,0,0.1,0.1,0.1,0.2 C337.3,85.9,337.3,85.9,337.2,85.9L337.2,85.9z"></path> <path class="st25" d="M335.2,85.3l-0.6-0.2c-0.1,0-0.1-0.1-0.1-0.2c0-0.1,0.1-0.1,0.2-0.1l0.6,0.2c0.1,0,0.1,0.1,0.1,0.2 C335.3,85.3,335.2,85.3,335.2,85.3L335.2,85.3z"></path> <path class="st25" d="M333.1,84.7l-0.6-0.2c-0.1,0-0.1-0.1-0.1-0.2c0-0.1,0.1-0.1,0.2-0.1l0.6,0.2c0.1,0,0.1,0.1,0.1,0.2 C333.2,84.7,333.2,84.7,333.1,84.7L333.1,84.7z"></path> <path class="st25" d="M331,84.2l-0.6-0.1c-0.1,0-0.1-0.1-0.1-0.2s0.1-0.1,0.2-0.1l0.6,0.1c0.1,0,0.1,0.1,0.1,0.2 C331.2,84.2,331.1,84.2,331,84.2L331,84.2z"></path> <path class="st25" d="M328.9,83.8l-0.6-0.1c-0.1,0-0.1-0.1-0.1-0.2c0-0.1,0.1-0.1,0.2-0.1l0.6,0.1c0.1,0,0.1,0.1,0.1,0.2 S329,83.8,328.9,83.8L328.9,83.8z"></path> <path class="st25" d="M326.8,83.4l-0.6-0.1c-0.1,0-0.1-0.1-0.1-0.2c0-0.1,0.1-0.1,0.2-0.1l0.6,0.1c0.1,0,0.1,0.1,0.1,0.2 S326.9,83.4,326.8,83.4L326.8,83.4z"></path> <path class="st25" d="M324.7,83.1l-0.6-0.1c-0.1,0-0.1-0.1-0.1-0.2c0-0.1,0.1-0.1,0.2-0.1l0.6,0.1c0.1,0,0.1,0.1,0.1,0.2 C324.8,83,324.8,83.1,324.7,83.1L324.7,83.1z"></path> <path class="st25" d="M322.6,82.8l-0.6-0.1c-0.1,0-0.1-0.1-0.1-0.1c0-0.1,0.1-0.1,0.1-0.1l0.6,0.1c0.1,0,0.1,0.1,0.1,0.1 C322.7,82.8,322.7,82.8,322.6,82.8L322.6,82.8z"></path> <path class="st25" d="M320.4,82.7l-0.6,0c-0.1,0-0.1-0.1-0.1-0.1s0.1-0.1,0.1-0.1l0.6,0c0.1,0,0.1,0.1,0.1,0.1 C320.6,82.6,320.5,82.7,320.4,82.7L320.4,82.7z"></path> <path class="st25" d="M318.3,82.5l-0.6,0c-0.1,0-0.1-0.1-0.1-0.1c0-0.1,0.1-0.1,0.1-0.1l0.6,0c0.1,0,0.1,0.1,0.1,0.1 C318.5,82.5,318.4,82.5,318.3,82.5L318.3,82.5z"></path> <path class="st25" d="M316.2,82.5l-0.6,0c-0.1,0-0.1-0.1-0.1-0.1c0-0.1,0.1-0.1,0.1-0.1l0.6,0c0.1,0,0.1,0.1,0.1,0.1 C316.3,82.4,316.2,82.5,316.2,82.5L316.2,82.5z"></path> <path class="st25" d="M314,82.5l-0.6,0c-0.1,0-0.1-0.1-0.1-0.1c0-0.1,0.1-0.1,0.1-0.1l0.6,0c0.1,0,0.1,0.1,0.1,0.1 C314.2,82.4,314.1,82.5,314,82.5L314,82.5z"></path> <path class="st25" d="M311.9,82.5l-0.6,0c-0.1,0-0.1-0.1-0.1-0.1c0-0.1,0.1-0.1,0.1-0.1l0.6,0c0.1,0,0.1,0.1,0.1,0.1 C312,82.5,312,82.5,311.9,82.5L311.9,82.5z"></path> <path class="st25" d="M309.8,82.6l-0.6,0c-0.1,0-0.1-0.1-0.1-0.1c0-0.1,0.1-0.1,0.1-0.1l0.6,0c0.1,0,0.1,0.1,0.1,0.1 C309.9,82.6,309.8,82.6,309.8,82.6L309.8,82.6z"></path> <path class="st25" d="M307.6,82.8l-0.6,0.1c-0.1,0-0.1,0-0.1-0.1c0-0.1,0-0.1,0.1-0.1l0.6-0.1c0.1,0,0.1,0,0.1,0.1 C307.8,82.8,307.7,82.8,307.6,82.8L307.6,82.8z"></path> <path class="st25" d="M305.5,83.1l-0.6,0.1c-0.1,0-0.1,0-0.2-0.1c0-0.1,0-0.1,0.1-0.2l0,0l0.6-0.1c0.1,0,0.1,0,0.2,0.1 C305.6,83,305.6,83.1,305.5,83.1z"></path> <path class="st25" d="M303.4,83.4l-0.6,0.1c-0.1,0-0.1,0-0.2-0.1c0-0.1,0-0.1,0.1-0.2l0,0l0.6-0.1c0.1,0,0.1,0,0.2,0.1 C303.5,83.3,303.5,83.4,303.4,83.4z"></path> <path class="st25" d="M301.3,83.7l-0.6,0.1c-0.1,0-0.1,0-0.2-0.1c0-0.1,0-0.1,0.1-0.2l0,0l0.6-0.1c0.1,0,0.1,0,0.2,0.1 S301.3,83.7,301.3,83.7z"></path> <path class="st25" d="M299.2,84.2l-0.6,0.1c-0.1,0-0.2,0-0.2-0.1c0-0.1,0-0.2,0.1-0.2l0,0l0.6-0.1c0.1,0,0.2,0,0.2,0.1 C299.3,84.1,299.3,84.1,299.2,84.2z"></path> <path class="st25" d="M297.1,84.6l-0.6,0.2c-0.1,0-0.2,0-0.2-0.1c0-0.1,0-0.2,0.1-0.2l0,0l0.6-0.2c0.1,0,0.2,0,0.2,0.1 C297.2,84.5,297.2,84.6,297.1,84.6z"></path> <path class="st25" d="M295,85.2l-0.6,0.2c-0.1,0-0.2,0-0.2-0.1c0-0.1,0-0.2,0.1-0.2l0,0l0.6-0.2c0.1,0,0.2,0,0.2,0.1 C295.1,85.1,295.1,85.1,295,85.2z"></path> <path class="st25" d="M293,85.8l-0.6,0.2c-0.1,0-0.2,0-0.2-0.1s0-0.2,0.1-0.2l0,0l0.6-0.2c0.1,0,0.2,0,0.2,0.1 C293.1,85.7,293,85.7,293,85.8z"></path> <path class="st25" d="M290.9,86.4l-0.6,0.2c-0.1,0-0.2,0-0.2-0.1c0-0.1,0-0.2,0.1-0.2l0,0l0.6-0.2c0.1,0,0.2,0,0.2,0.1 C291,86.3,291,86.4,290.9,86.4z"></path> <path class="st25" d="M288.9,87.1l-0.6,0.2c-0.1,0-0.2,0-0.2-0.1s0-0.2,0.1-0.2l0,0l0.6-0.2c0.1,0,0.2,0,0.2,0.1 S289,87.1,288.9,87.1z"></path> <path class="st25" d="M286.9,87.9l-0.6,0.2c-0.1,0-0.2,0-0.2-0.1c0-0.1,0-0.2,0.1-0.2l0,0l0.6-0.2c0.1,0,0.2,0,0.2,0.1 C287,87.8,287,87.9,286.9,87.9z"></path> <path class="st25" d="M284.9,88.7l-0.6,0.3c-0.1,0-0.2,0-0.2-0.1c0-0.1,0-0.2,0.1-0.2l0,0l0.6-0.3c0.1,0,0.2,0,0.2,0.1 C285,88.6,285,88.7,284.9,88.7z"></path> <path class="st25" d="M283,89.6l-0.6,0.3c-0.1,0-0.2,0-0.2-0.1c0-0.1,0-0.2,0.1-0.2l0,0l0.6-0.3c0.1,0,0.2,0,0.2,0.1 C283.1,89.5,283.1,89.6,283,89.6z"></path> <path class="st25" d="M281.1,90.5l-0.6,0.3c-0.1,0-0.2,0-0.2-0.1c0-0.1,0-0.2,0.1-0.2l0,0l0.6-0.3c0.1,0,0.2,0,0.2,0.1 C281.2,90.4,281.1,90.5,281.1,90.5z"></path> <path class="st25" d="M279.2,91.5l-0.6,0.3c-0.1,0-0.2,0-0.2-0.1c0-0.1,0-0.2,0.1-0.2l0,0l0.6-0.3c0.1,0,0.2,0,0.2,0.1 C279.3,91.4,279.2,91.5,279.2,91.5z"></path> <path class="st25" d="M277.3,92.6l-0.6,0.3c-0.1,0-0.2,0-0.2-0.1c0-0.1,0-0.2,0.1-0.2l0,0l0.6-0.3c0.1,0,0.2,0,0.2,0.1 C277.4,92.4,277.4,92.5,277.3,92.6z"></path> <path class="st25" d="M275.5,93.7l-0.5,0.3c-0.1,0-0.2,0-0.2,0c0-0.1,0-0.2,0-0.2l0,0l0.5-0.3c0.1,0,0.2,0,0.2,0.1 C275.6,93.5,275.6,93.6,275.5,93.7z"></path> <path class="st25" d="M273.7,94.8l-0.5,0.4c-0.1,0-0.2,0-0.2,0c0-0.1,0-0.2,0-0.2l0,0l0.5-0.4c0.1,0,0.2,0,0.2,0 C273.8,94.7,273.8,94.8,273.7,94.8z"></path> <path class="st25" d="M271.9,96l-0.5,0.4c-0.1,0.1-0.2,0-0.2,0c-0.1-0.1,0-0.2,0-0.2l0,0l0.5-0.4c0.1-0.1,0.2,0,0.2,0 C272,95.9,272,96,271.9,96z"></path> <path class="st25" d="M270.2,97.3l-0.5,0.4c-0.1,0.1-0.2,0-0.2,0c-0.1-0.1,0-0.2,0-0.2l0,0l0.5-0.4c0.1-0.1,0.2,0,0.2,0 C270.3,97.2,270.3,97.3,270.2,97.3z"></path> <path class="st25" d="M268.5,98.6L268,99c-0.1,0.1-0.2,0-0.2,0c-0.1-0.1,0-0.2,0-0.2l0,0l0.5-0.4c0.1-0.1,0.2,0,0.2,0 C268.6,98.5,268.6,98.6,268.5,98.6z"></path> <path class="st25" d="M266.9,100l-0.5,0.4c-0.1,0.1-0.2,0.1-0.2,0c-0.1-0.1-0.1-0.2,0-0.2l0,0l0.5-0.4c0.1-0.1,0.2-0.1,0.2,0 C267,99.8,267,99.9,266.9,100z"></path> <path class="st25" d="M265.3,101.4l-0.5,0.4c-0.1,0.1-0.2,0.1-0.2,0c-0.1-0.1-0.1-0.2,0-0.2l0,0l0.5-0.4c0.1-0.1,0.2-0.1,0.2,0 C265.4,101.3,265.4,101.4,265.3,101.4z"></path> </g> <g> <polygon class="st25" points="259.1,99.5 261.6,105.3 256.5,104.5 "></polygon> <path class="st32" d="M231.5,107.3l21.6,7.1c0.4,0.1,0.9,0.1,1.2-0.1c0.4-0.2,0.7-0.6,0.8-1l6.3-22c0.1-0.3,0-0.5-0.2-0.7 c-0.2-0.2-0.5-0.2-0.7-0.1L231.5,107.3z"></path> <polygon class="st25" points="259.1,99.5 231.5,107.3 258.1,103 258.8,104.6 "></polygon> <polygon class="st25" points="257.5,105.1 261.6,105.3 258.1,103 "></polygon> </g> <g> <linearGradient id="SVGID_30_" gradientUnits="userSpaceOnUse" x1="1168.5181" y1="414.2864" x2="1175.9469" y2="376.9994" gradientTransform="matrix(1 0 0 1 -1140.7335 0)"> <stop offset="0" style="stop-color:#4042E2"></stop> <stop offset="1" style="stop-color:#4F52FF"></stop> </linearGradient> <path class="st39" d="M45.2,361.3c-2.5,0.2-6.9,0.6-10.4,0.7c-2.1,0.1-3.3-0.1-4-0.4c0,0.1,0,0.2,0,0.2c0,0.4,0.3,0.7,0.7,0.7 c6.6,0.4,11.8,0.1,13.6,0c0.4,0,0.6-0.4,0.4-0.8C45.5,361.6,45.3,361.4,45.2,361.3z"></path> <linearGradient id="SVGID_31_" gradientUnits="userSpaceOnUse" x1="1171.5746" y1="359.0693" x2="1185.9508" y2="359.0693" gradientTransform="matrix(1 0 0 1 -1140.7335 0)"> <stop offset="0" style="stop-color:#09005D"></stop> <stop offset="1" style="stop-color:#1A0F91"></stop> </linearGradient> <path class="st40" d="M34.8,362c3.5-0.2,7.9-0.5,10.4-0.7c-2.5-3.1-10.4-5.1-10.4-5.1h-2.2c-1.5,2.2-1.8,4.3-1.7,5.5 C31.5,361.9,32.7,362.1,34.8,362z"></path> <linearGradient id="SVGID_32_" gradientUnits="userSpaceOnUse" x1="1172.9413" y1="355.0215" x2="1177.1082" y2="355.0215" gradientTransform="matrix(1 0 0 1 -1140.7335 0)"> <stop offset="0" style="stop-color:#FF928E"></stop> <stop offset="1" style="stop-color:#FEB3B1"></stop> </linearGradient> <path class="st41" d="M32.2,352.5l0.2,4.1c0,0.4,0.4,0.8,0.8,0.9c0.4,0.1,1,0.1,1.7-0.1c0.4-0.1,0.7-0.5,0.8-0.9l0.7-4H32.2z"></path> </g> <g> <g> <linearGradient id="SVGID_33_" gradientUnits="userSpaceOnUse" x1="1135.662" y1="407.7401" x2="1143.0908" y2="370.4531" gradientTransform="matrix(1 0 0 1 -1140.7335 0)"> <stop offset="0" style="stop-color:#4042E2"></stop> <stop offset="1" style="stop-color:#4F52FF"></stop> </linearGradient> <path class="st42" d="M3.2,361.9c-1.1-0.2-1.6-0.7-1.8-1.3c0,0,0,0,0,0c-0.2,0.6,0.2,1.3,1,1.6c0.9,0.4,1.9,0.4,2.7,0.4 c0.8,0,1.6-0.4,2-0.9l0,0C6.2,362.2,5,362.2,3.2,361.9z"></path> <linearGradient id="SVGID_34_" gradientUnits="userSpaceOnUse" x1="1142.1254" y1="357.2846" x2="1150.4463" y2="357.2846" gradientTransform="matrix(1 0 0 1 -1140.7335 0)"> <stop offset="0" style="stop-color:#09005D"></stop> <stop offset="1" style="stop-color:#1A0F91"></stop> </linearGradient> <path class="st43" d="M8.4,352.5H6.5c-2.8-0.1-4.6,5.9-5.1,8.2c0.2,0.6,0.7,1.2,1.8,1.3c1.8,0.3,3,0.2,3.8-0.2 c1.5-2,2.3-4.9,2.6-6.6C10.1,353.2,8.4,352.5,8.4,352.5z"></path> </g> <linearGradient id="SVGID_35_" gradientUnits="userSpaceOnUse" x1="1146.4504" y1="351.5478" x2="1151.4304" y2="351.5478" gradientTransform="matrix(1 0 0 1 -1140.7335 0)"> <stop offset="0" style="stop-color:#FF928E"></stop> <stop offset="1" style="stop-color:#FEB3B1"></stop> </linearGradient> <path class="st44" d="M6.8,348.6l-1,4.1c-0.1,0.5,0.1,1,0.6,1.3c0.6,0.3,1.4,0.6,2.1,0.5c0.3,0,0.6-0.3,0.8-0.6l1.5-4.3L6.8,348.6 z"></path> </g> <linearGradient id="SVGID_36_" gradientUnits="userSpaceOnUse" x1="22.156" y1="346.6461" x2="59.7624" y2="255.6832"> <stop offset="0" style="stop-color:#4042E2"></stop> <stop offset="1" style="stop-color:#4F52FF"></stop> </linearGradient> <path class="st45" d="M5.6,349.8c1.3,1.1,5.4,1.3,5.4,1.3c14.9-35.8,21-40.9,21-40.9c-2.2,13.5-0.3,43.4-0.3,43.4 c2.5,1.1,5.6,0,5.6,0c0.2-22.1,3.6-41.4,7.6-56.6c-10.1-0.2-15.4-3.7-17.2-5.1C19.3,305.5,5.6,349.8,5.6,349.8z"></path> <path class="st14" d="M30.2,250.8c-1.9,9.5-1.2,26.5-0.8,34.3c0.1,2.2-1.4,5.2-2.6,7.3c-0.2,0.3-0.1,0.7,0.3,0.9 c2.1,1.1,9,4.3,17.1,4.8c0.5,0,1-0.3,1.2-0.9c6-22.4,13-36.8,13-36.8C50.7,248.1,30.2,250.8,30.2,250.8z"></path> <path class="st25" d="M33,309.4c-0.1,0-0.2,0-0.2-0.1c-0.2-0.1-0.3-0.4-0.2-0.7c0.1-0.1,2-3.2,5.9-5.1c0.2-0.1,0.5,0,0.6,0.2 c0.1,0.2,0,0.5-0.2,0.6c-3.6,1.8-5.5,4.7-5.5,4.8C33.3,309.3,33.2,309.4,33,309.4z"></path> <linearGradient id="SVGID_37_" gradientUnits="userSpaceOnUse" x1="1053.7098" y1="407.3938" x2="1067.4246" y2="391.9647" gradientTransform="matrix(1 0 0 1 -1140.7335 0)"> <stop offset="0" style="stop-color:#FF928E"></stop> <stop offset="1" style="stop-color:#FEB3B1"></stop> </linearGradient> <path class="st46" d="M18.3,278.1c0.6,4.4,2.4,9.3,6,14.4l1.4-1.1c0,0-1.6-6.4-0.7-13.8C22.8,277.2,20.1,277.6,18.3,278.1z"></path> <path class="st14" d="M32.4,262.5l-2.1-11.7c0,0-14.2,10.9-12,27.3c1.9-0.5,4.5-0.9,6.7-0.5C25.7,272.4,27.6,266.6,32.4,262.5z"></path> <path class="st14" d="M58.4,260.4l-5.5,11.8c0.9,7.1,4.7,10.2,8.9,11.4c0.3-3.3,1.1-5.9,1.8-7.7C58.3,270.5,58.4,260.4,58.4,260.4z "></path> <linearGradient id="SVGID_38_" gradientUnits="userSpaceOnUse" x1="1202.4979" y1="280.4444" x2="1216.4591" y2="280.4444" gradientTransform="matrix(1 0 0 1 -1140.7335 0)"> <stop offset="0" style="stop-color:#FF928E"></stop> <stop offset="1" style="stop-color:#FEB3B1"></stop> </linearGradient> <path class="st47" d="M63.6,276c-0.8,1.8-1.6,4.5-1.8,7.7c11,4.3,14-4,14-4l-2-0.4C69.1,279.8,65.9,278.3,63.6,276z"></path> <linearGradient id="SVGID_39_" gradientUnits="userSpaceOnUse" x1="1188.9274" y1="243.1351" x2="1188.7749" y2="269.2066" gradientTransform="matrix(1 0 0 1 -1140.7335 0)"> <stop offset="0" style="stop-color:#FF928E"></stop> <stop offset="1" style="stop-color:#FEB3B1"></stop> </linearGradient> <path class="st48" d="M53.3,245.8l-2.7,9.8c-0.3,1.1-1.5,1.7-2.5,1.3c-1.1-0.5-2.6-1.1-3.8-1.7c-1.3-0.7-1.7-2.4-0.9-3.7l5.5-8.2 L53.3,245.8z"></path> <linearGradient id="SVGID_40_" gradientUnits="userSpaceOnUse" x1="1150.1224" y1="290.6716" x2="1223.231" y2="290.6716" gradientTransform="matrix(1 0 0 1 -1140.7335 0)"> <stop offset="0" style="stop-color:#09005D"></stop> <stop offset="1" style="stop-color:#1A0F91"></stop> </linearGradient> <path class="st49" d="M80.8,273.1l-68,24.7c-2.9,1-4.2,4.3-3,7l0.2,0.5c1.1,2.4,4,3.5,6.4,2.4l66-30.5L80.8,273.1z"></path> <linearGradient id="SVGID_41_" gradientUnits="userSpaceOnUse" x1="1219.2078" y1="258.2539" x2="1286.3146" y2="258.2539" gradientTransform="matrix(1 0 0 1 -1140.7335 0)"> <stop offset="0" style="stop-color:#DAE3FE"></stop> <stop offset="1" style="stop-color:#E9EFFD"></stop> </linearGradient> <ellipse class="st50" cx="112" cy="258.3" rx="33.6" ry="32.9"></ellipse> <linearGradient id="SVGID_42_" gradientUnits="userSpaceOnUse" x1="1215.4252" y1="258.2539" x2="1290.0972" y2="258.2539" gradientTransform="matrix(1 0 0 1 -1140.7335 0)"> <stop offset="0" style="stop-color:#09005D"></stop> <stop offset="1" style="stop-color:#1A0F91"></stop> </linearGradient> <path class="st51" d="M112,221.6c-20.6,0-37.3,16.4-37.3,36.7c0,20.2,16.7,36.7,37.3,36.7c20.6,0,37.3-16.4,37.3-36.7 C149.4,238,132.6,221.6,112,221.6z M112,289.5c-17.6,0-31.9-14-31.9-31.3C80.2,241,94.4,227,112,227c17.6,0,31.9,14,31.9,31.3 C143.9,275.5,129.6,289.5,112,289.5z"></path> <g> <path class="st32" d="M77.5,262.7c-0.1,0-0.1,0-0.1-0.1c-0.1-0.9-0.2-1.7-0.2-2.6c0-0.1,0-0.1,0.1-0.1c0.1,0,0.1,0,0.1,0.1 c0,0.9,0.1,1.7,0.2,2.6C77.6,262.6,77.6,262.6,77.5,262.7C77.5,262.7,77.5,262.7,77.5,262.7z M77.8,252.4 C77.8,252.4,77.8,252.4,77.8,252.4c-0.1,0-0.1-0.1-0.1-0.1c0.4-2.3,1.1-4.7,2-6.9c0,0,0,0,0,0c2.6-6.2,6.9-11.6,12.6-15.4 c5.8-3.9,12.6-6,19.7-6c6.7,0,13.1,1.9,18.7,5.4c0.1,0,0.1,0.1,0,0.1c0,0.1-0.1,0.1-0.1,0c-5.6-3.5-12-5.3-18.6-5.3 c-14.2,0-26.8,8.4-32.1,21.3c0,0,0,0,0,0c-0.9,2.2-1.6,4.5-2,6.8C77.9,252.4,77.8,252.4,77.8,252.4z"></path> </g> <g> <linearGradient id="SVGID_43_" gradientUnits="userSpaceOnUse" x1="821.6885" y1="2110.2749" x2="808.855" y2="2127.2527" gradientTransform="matrix(0.9897 -0.1428 0.1428 0.9897 -1057.9186 -1732.3538)"> <stop offset="0" style="stop-color:#FF928E"></stop> <stop offset="1" style="stop-color:#FEB3B1"></stop> </linearGradient> <path class="st52" d="M59.1,238.4c0,0.2-2.2,11.1-2.2,11.1l-6.2-1.4l0.6-10.7C51.3,237.4,58.7,235.6,59.1,238.4z"></path> <linearGradient id="SVGID_44_" gradientUnits="userSpaceOnUse" x1="44.9533" y1="241.6422" x2="89.48" y2="247.272"> <stop offset="0" style="stop-color:#09005D"></stop> <stop offset="1" style="stop-color:#1A0F91"></stop> </linearGradient> <path class="st53" d="M52.7,239.8l-0.7,5.6c0,0.1,0,0.1,0,0.2c0.1,0.4,0.4,1.9,1.9,1.5c1.4-0.4,2.6-0.7,3.5-0.5 c0.4,0.1,0.6,0.5,0.5,0.9c-0.2,1-0.7,3.2-1.4,5.1c-0.1,0.4-0.6,0.6-1,0.5c-1.2-0.3-3.7-1.1-5.5-2.2c-0.2-0.1-0.4-0.4-0.4-0.7 c0.1-1.4,0.2-5.7,0.1-6.9c-0.1-1.1-1.5-1.8-2.1-2.1c-0.2-0.1-0.4-0.2-0.4-0.4c-0.3-0.7-0.7-2.3,1.4-3c0.4-0.1,0.7-0.6,0.5-1 c-0.3-0.8-0.4-2.1,1.2-2.8c1.6-0.7,2.8,0.1,3.5,0.8c0.3,0.3,0.7,0.3,1,0.1c0.2-0.1,0.4-0.2,0.7,0c0.4,0.2,0.9,0.1,1.1-0.3 c0.4-0.8,1.2-1.6,2.7-1.4c2.8,0.5,3.1,3.6,2.4,5.4c-0.7,1.8-3.7,1.1-5.2,0.2c-1.1-0.7-2.6,0-3.3,0.4 C52.8,239.4,52.7,239.6,52.7,239.8z"></path> <linearGradient id="SVGID_45_" gradientUnits="userSpaceOnUse" x1="802.8924" y1="2123.72" x2="813.186" y2="2113.1589" gradientTransform="matrix(0.9897 -0.1428 0.1428 0.9897 -1057.9186 -1732.3538)"> <stop offset="0" style="stop-color:#FF928E"></stop> <stop offset="1" style="stop-color:#FEB3B1"></stop> </linearGradient> <path class="st54" d="M49.4,245.3c0,0,1.1-3.2,0-4c-1.2-0.8-2.9-0.4-2.5,2C47.3,246.2,49.4,245.3,49.4,245.3z"></path> </g> <linearGradient id="SVGID_46_" gradientUnits="userSpaceOnUse" x1="1061.5563" y1="414.3688" x2="1075.271" y2="398.9397" gradientTransform="matrix(1 0 0 1 -1140.7335 0)"> <stop offset="0" style="stop-color:#FF928E"></stop> <stop offset="1" style="stop-color:#FEB3B1"></stop> </linearGradient> <path class="st55" d="M25.1,291.2l6.4-0.5l2.8,2.6c0,0-0.7,0.9-2.7,0.4c-2.1-0.5-4.9-0.7-4.9-0.7s-2.8,1.3-2.9-1.1L25.1,291.2z"></path> <linearGradient id="SVGID_47_" gradientUnits="userSpaceOnUse" x1="1214.9758" y1="278.8048" x2="1219.9755" y2="278.8048" gradientTransform="matrix(1 0 0 1 -1140.7335 0)"> <stop offset="0" style="stop-color:#FF928E"></stop> <stop offset="1" style="stop-color:#FEB3B1"></stop> </linearGradient> <path class="st56" d="M74.9,281.2c0.6,0.4,2.5-0.5,3.6-1.1c0.6-0.3,0.8-1,0.6-1.6c-0.3-0.9-0.7-2-1.3-2.2 C76.9,276.1,72.6,279.4,74.9,281.2z"></path> <path class="st32" d="M14.2,306.7C14.1,306.7,14.1,306.7,14.2,306.7c-2.1-0.7-3.2-1.9-3.3-3.5c-0.1-1.6,1-3.1,2.5-3.8l8.2-3.2 c0.1,0,0.1,0,0.1,0.1c0,0.1,0,0.1-0.1,0.1l-8.2,3.2c-1.5,0.6-2.5,2-2.4,3.5c0.1,1.5,1.1,2.6,3.1,3.3c0.1,0,0.1,0.1,0.1,0.1 C14.2,306.6,14.2,306.7,14.2,306.7z"></path> <path class="st32" d="M24.2,295.4C24.1,295.4,24.1,295.4,24.2,295.4c-0.1-0.1-0.1-0.2,0-0.2l1.1-0.4c0.1,0,0.1,0,0.1,0.1 c0,0.1,0,0.1-0.1,0.1L24.2,295.4C24.2,295.4,24.2,295.4,24.2,295.4z"></path> </g> </svg> 