<?xml version="1.0" encoding="UTF-8"?> <!-- Generator: Adobe Illustrator 25.1.0, SVG Export Plug-In . SVG Version: 6.00 Build 0) --> <svg xmlns="http://www.w3.org/2000/svg" xmlns:xlink="http://www.w3.org/1999/xlink" version="1.1" id="Layer_1" x="0px" y="0px" viewBox="0 0 48 48" style="enable-background:new 0 0 48 48;" xml:space="preserve"> <style type="text/css"> .st0{fill:#F46721;} </style> <g> <g> <g> <path class="st0" d="M17.5,33.5H8.3c-0.7,0-1.2-0.6-1.2-1.2C7,31.5,7.6,31,8.3,31h9.3c0.7,0,1.2,0.6,1.2,1.2 C18.8,32.9,18.1,33.5,17.5,33.5z"></path> <path class="st0" d="M17.5,38.7H8.3c-0.7,0-1.2-0.6-1.2-1.2c0-0.7,0.6-1.2,1.2-1.2h9.3c0.7,0,1.2,0.6,1.2,1.2 C18.6,38.2,18.1,38.7,17.5,38.7z"></path> </g> <g> <path class="st0" d="M17.5,27.8H8.4c-0.7,0-1.2-0.6-1.2-1.2v-7.5c0-0.7,0.6-1.2,1.2-1.2h9.1c0.7,0,1.2,0.6,1.2,1.2v7.5 C18.6,27.3,18.1,27.8,17.5,27.8z M9.5,25.3h6.8v-5H9.5C9.5,20.3,9.5,25.3,9.5,25.3z"></path> <g> <path class="st0" d="M28.4,27H23c-0.7,0-1.2-0.6-1.2-1.2c0-0.7,0.6-1.2,1.2-1.2h5.4c0.7,0,1.2,0.6,1.2,1.2 C29.7,26.4,29.1,27,28.4,27z"></path> <path class="st0" d="M33.8,21.5H23.2c-0.7,0-1.2-0.6-1.2-1.2s0.6-1.2,1.2-1.2h10.6c0.7,0,1.2,0.6,1.2,1.2S34.5,21.5,33.8,21.5z"></path> </g> </g> </g> <g> <path class="st0" d="M39.9,14.3c0.7,0,1.2-0.6,1.2-1.2V5c0-0.7-0.6-1.2-1.2-1.2H1.8C1.1,3.8,0.5,4.3,0.5,5v38.4 c0,0.7,0.6,1.2,1.2,1.2h38.1c0.7,0,1.2-0.6,1.2-1.2v-6.2c0-0.7-0.6-1.2-1.2-1.2c-0.7,0-1.2,0.6-1.2,1.2v5H3V14.3H39.9z M3,6.3 h35.6v5.5H3V6.3z"></path> <path class="st0" d="M46.8,16.8L46.8,16.8l-2.3-1.7c-1.2-1-3.2-0.7-4.1,0.7L28.6,32.1c-0.1,0.1-0.3,0.4-0.3,0.6l-0.4,6.1 c-0.1,0.8,0.8,1.5,1.7,1.2l5.5-2.3c0.3-0.1,0.4-0.3,0.6-0.4l5.4-7.3c0.4-0.6,0.3-1.2-0.3-1.7s-1.2-0.3-1.7,0.3l-2.9,4L33,30.2 l7-9.7l4.1,3c0.6,0.4,1.4,0.3,1.7-0.3l1.7-2.2C48.3,19.7,48,17.7,46.8,16.8z M42.2,17.2c0.3-0.3,0.4-0.3,0.7-0.1l2.3,1.7 c0.3,0.1,0.3,0.4,0.1,0.7l-1,1.2l-3.2-2.3L42.2,17.2z M30.4,36.9l0.3-3.7l0.8-1.1l3.2,2.3l-0.8,1.1L30.4,36.9z"></path> </g> <circle class="st0" cx="42.2" cy="25.7" r="1.4"></circle> <g> <rect x="30.4" y="8.1" class="st0" width="2.1" height="2.1"></rect> <rect x="26.5" y="8.1" class="st0" width="1.8" height="2.1"></rect> <rect x="34.4" y="8.1" class="st0" width="2.1" height="2.1"></rect> </g> </g> </svg> 