<?xml version="1.0" encoding="UTF-8"?> <svg xmlns="http://www.w3.org/2000/svg" xmlns:xlink="http://www.w3.org/1999/xlink" width="60pt" height="60pt" viewBox="0 0 60 60" version="1.1"><g id="surface1"><path style=" stroke:none;fill-rule:nonzero;fill:rgb(0%,0%,0%);fill-opacity:1;" d="M 30.8125 59.675781 C 30.238281 59.675781 29.664062 59.675781 29.085938 59.675781 C 28.3125 59.324219 27.488281 59.074219 26.738281 58.675781 C 20.0625 54.949219 13.414062 51.136719 6.710938 47.476562 C 4.824219 46.4375 3.363281 45.1875 2.726562 43.0625 C 2.726562 34.386719 2.726562 25.675781 2.726562 16.988281 C 3.550781 15.8125 4.125 14.210938 5.25 13.550781 C 13.050781 9.050781 20.9375 4.75 28.8125 0.375 C 29.386719 0.375 29.960938 0.375 30.539062 0.375 C 31.398438 0.75 32.3125 1.0625 33.148438 1.523438 C 39.738281 5.226562 46.300781 8.976562 52.949219 12.585938 C 54.835938 13.625 56.300781 14.875 56.9375 17 C 56.9375 25.675781 56.9375 34.386719 56.9375 43.074219 C 56.113281 44.25 55.539062 45.851562 54.414062 46.511719 C 46.574219 51 38.664062 55.289062 30.8125 59.675781 Z M 42.136719 20.710938 C 38.273438 15.238281 30.914062 13.148438 24.375 15.5 C 18.125 17.761719 13.773438 24.324219 14.289062 30.738281 C 14.863281 38.101562 19.960938 44 26.863281 45.289062 C 32.761719 46.375 39.925781 43.5625 42.011719 39.273438 C 40.636719 38.476562 39.199219 37.699219 37.863281 36.835938 C 36.976562 36.261719 36.375 36.210938 35.425781 36.976562 C 31.324219 40.324219 25.511719 39.4375 22.5 35.175781 C 20.414062 32.226562 20.324219 28.300781 22.273438 25.238281 C 24.199219 22.199219 27.886719 20.488281 31.386719 21.335938 C 33.25 21.800781 34.960938 22.851562 37 23.75 C 38.4375 22.835938 40.238281 21.800781 42.136719 20.710938 Z M 50.585938 26.074219 C 50.523438 25.1875 50.5 24.4375 50.476562 23.636719 C 49.523438 23.636719 48.699219 23.636719 47.8125 23.636719 C 47.789062 24.5 47.726562 25.273438 47.699219 26.011719 C 46.835938 26.011719 46.148438 26.011719 45.4375 26.011719 C 45.375 25.148438 45.351562 24.414062 45.324219 23.636719 C 44.414062 23.636719 43.574219 23.636719 42.664062 23.636719 C 42.636719 24.5 42.574219 25.273438 42.550781 26.074219 C 41.664062 26.136719 40.914062 26.164062 40.113281 26.1875 C 40.113281 27.074219 40.113281 27.851562 40.113281 28.675781 C 40.976562 28.699219 41.773438 28.761719 42.488281 28.789062 C 42.488281 29.699219 42.488281 30.449219 42.488281 31.226562 C 41.625 31.25 40.886719 31.3125 40.113281 31.335938 C 40.113281 32.199219 40.113281 33 40.113281 33.824219 C 40.976562 33.886719 41.773438 33.914062 42.550781 33.960938 C 42.574219 34.851562 42.636719 35.601562 42.664062 36.375 C 43.613281 36.375 44.4375 36.375 45.324219 36.375 C 45.351562 35.511719 45.414062 34.738281 45.4375 34 C 46.300781 34 46.988281 34 47.699219 34 C 47.761719 34.863281 47.789062 35.601562 47.8125 36.375 C 48.726562 36.375 49.5625 36.375 50.476562 36.375 C 50.5 35.511719 50.5625 34.738281 50.585938 33.9375 C 51.476562 33.875 52.226562 33.851562 53.023438 33.824219 C 53.023438 32.9375 53.023438 32.164062 53.023438 31.335938 C 52.164062 31.3125 51.363281 31.25 50.648438 31.226562 C 50.648438 30.3125 50.648438 29.5625 50.648438 28.789062 C 51.511719 28.761719 52.226562 28.699219 53.023438 28.675781 C 53.023438 27.8125 53.023438 27.011719 53.023438 26.1875 C 52.1875 26.148438 51.4375 26.101562 50.585938 26.074219 Z M 50.585938 26.074219 "></path><path style=" stroke:none;fill-rule:nonzero;fill:rgb(0%,0%,0%);fill-opacity:1;" d="M 47.6875 28.851562 C 47.6875 29.675781 47.6875 30.398438 47.6875 31.226562 C 46.914062 31.226562 46.226562 31.226562 45.449219 31.226562 C 45.449219 30.425781 45.449219 29.710938 45.449219 28.851562 C 46.175781 28.851562 46.863281 28.851562 47.6875 28.851562 Z M 47.6875 28.851562 "></path></g></svg> 