<?xml version="1.0" encoding="UTF-8"?> <!-- Generator: Adobe Illustrator 25.1.0, SVG Export Plug-In . SVG Version: 6.00 Build 0) --> <svg xmlns="http://www.w3.org/2000/svg" xmlns:xlink="http://www.w3.org/1999/xlink" version="1.1" id="Layer_1" x="0px" y="0px" viewBox="0 0 48 48" style="enable-background:new 0 0 48 48;" xml:space="preserve"> <style type="text/css"> .st0{fill:#AF27E2;stroke:#FFFFFF;stroke-miterlimit:10;} </style> <g> <path class="st0" d="M44.8,2H35c-1.3,0-2.5,1.2-2.5,2.5v7.3h-7.3c-1.3,0-2.5,1.2-2.5,2.5v7.3h-7.3c-1.3,0-2.5,1.2-2.5,2.5v7.3H5.8 c-1.3,0-2.5,1.2-2.5,2.5v9.8c0,1.3,1.2,2.5,2.5,2.5H45c1.3,0,2.5-1.2,2.5-2.5v-39C47.1,3.2,46.1,2,44.8,2z M42.3,41.2H8.1v-5h7.3 c1.3,0,2.5-1.2,2.5-2.5v-7.3h7.3c1.3,0,2.5-1.2,2.5-2.5v-7.3h7.3c1.3,0,2.5-1.2,2.5-2.5V7h5C42.3,7,42.3,41.2,42.3,41.2z"></path> <path class="st0" d="M4.9,20.8l10.5-10.5v1.5c0,1.3,1.2,2.5,2.5,2.5c1.3,0,2.5-1.2,2.5-2.5V4.5c0-0.3,0-0.6-0.1-0.9 c0-0.1,0-0.1,0-0.3c-0.1-0.1-0.1-0.4-0.3-0.6h-0.3c-0.1-0.1-0.4-0.3-0.7-0.4l0,0C18.6,2.2,18.2,2,17.7,2h-7.3C9.1,2,8,3.2,8,4.5 S9.1,7,10.4,7h1.5L1.4,17.4c-1,1-1,2.5,0,3.5l0,0C2.4,21.8,4,21.8,4.9,20.8L4.9,20.8z"></path> </g> </svg> 