<?xml version="1.0" encoding="UTF-8"?> <svg xmlns="http://www.w3.org/2000/svg" xmlns:xlink="http://www.w3.org/1999/xlink" width="60pt" height="60pt" viewBox="0 0 60 60" version="1.1"><g id="surface1"><path style=" stroke:none;fill-rule:nonzero;fill:rgb(0%,0%,0%);fill-opacity:1;" d="M 30.113281 43.585938 C 22.699219 43.585938 16.664062 37.550781 16.664062 30.136719 C 16.664062 22.726562 22.699219 16.6875 30.113281 16.6875 C 36.238281 16.6875 41.398438 20.800781 43.023438 26.398438 L 48.226562 26.398438 C 46.5 18 39.039062 11.648438 30.113281 11.648438 C 19.914062 11.648438 11.613281 19.949219 11.613281 30.148438 C 11.613281 40.351562 19.914062 48.648438 30.113281 48.648438 C 39.039062 48.648438 46.5 42.300781 48.226562 33.886719 L 43.023438 33.886719 C 41.398438 39.476562 36.238281 43.585938 30.113281 43.585938 "></path><path style=" stroke:none;fill-rule:nonzero;fill:rgb(0%,0%,0%);fill-opacity:1;" d="M 21.050781 39.210938 C 23.375 41.539062 26.574219 42.976562 30.113281 42.976562 L 30.113281 37.613281 C 28.136719 37.613281 26.238281 36.824219 24.835938 35.425781 Z M 21.050781 39.210938 "></path><path style=" stroke:none;fill-rule:nonzero;fill:rgb(22.745098%,22.745098%,22.745098%);fill-opacity:1;" d="M 17.289062 30.148438 C 17.289062 31.988281 17.675781 33.726562 18.375 35.3125 L 23.273438 33.148438 C 22.863281 32.199219 22.636719 31.175781 22.636719 30.148438 C 22.636719 26.023438 25.976562 22.6875 30.101562 22.6875 L 30.101562 17.324219 C 23.039062 17.324219 17.289062 23.074219 17.289062 30.148438 "></path><path style=" stroke:none;fill-rule:nonzero;fill:rgb(0%,0%,0%);fill-opacity:1;" d="M 34.761719 18.199219 L 32.8125 23.199219 C 34.386719 23.8125 35.710938 24.949219 36.574219 26.425781 L 42.386719 26.425781 C 41.238281 22.648438 38.398438 19.613281 34.761719 18.199219 "></path><path style=" stroke:none;fill-rule:nonzero;fill:rgb(22.745098%,22.745098%,22.745098%);fill-opacity:1;" d="M 32.8125 37.101562 L 34.75 42.101562 C 38.386719 40.675781 41.226562 37.648438 42.375 33.875 L 36.5625 33.875 C 35.726562 35.351562 34.398438 36.476562 32.8125 37.101562 "></path><path style=" stroke:none;fill-rule:nonzero;fill:rgb(0%,0%,0%);fill-opacity:1;" d="M 6.386719 37.3125 C 6.300781 37.039062 6.226562 36.75 6.148438 36.460938 L 6.136719 36.414062 C 6.0625 36.148438 6 35.886719 5.9375 35.613281 C 5.875 35.324219 5.8125 35.050781 5.761719 34.761719 C 5.738281 34.664062 5.726562 34.5625 5.710938 34.449219 C 5.675781 34.261719 5.648438 34.085938 5.613281 33.898438 C 5.585938 33.75 5.5625 33.601562 5.550781 33.4375 C 5.398438 32.351562 5.324219 31.25 5.324219 30.148438 L 0.261719 30.148438 C 0.261719 31.363281 0.335938 32.5625 0.476562 33.75 C 0.476562 33.773438 0.488281 33.800781 0.488281 33.824219 C 0.523438 34.148438 0.574219 34.460938 0.625 34.789062 C 0.636719 34.875 0.648438 34.960938 0.675781 35.050781 C 0.726562 35.3125 0.761719 35.574219 0.8125 35.835938 C 0.835938 35.976562 0.863281 36.113281 0.898438 36.25 C 0.9375 36.460938 0.988281 36.664062 1.039062 36.875 C 1.074219 37.050781 1.125 37.238281 1.175781 37.414062 C 1.210938 37.574219 1.25 37.738281 1.300781 37.898438 C 1.363281 38.113281 1.425781 38.324219 1.476562 38.539062 C 1.5 38.625 1.523438 38.710938 1.550781 38.800781 C 1.898438 39.949219 2.3125 41.074219 2.800781 42.175781 L 7.4375 40.136719 C 7.023438 39.210938 6.675781 38.273438 6.386719 37.3125 Z M 6.386719 37.3125 "></path><path style=" stroke:none;fill-rule:nonzero;fill:rgb(22.745098%,22.745098%,22.745098%);fill-opacity:1;" d="M 30.113281 54.9375 C 23.273438 54.9375 17.085938 52.148438 12.601562 47.664062 L 9 51.25 C 14.398438 56.648438 21.863281 60 30.101562 60 C 45.324219 60 57.886719 48.601562 59.726562 33.875 L 54.625 33.875 C 52.8125 45.789062 42.511719 54.9375 30.113281 54.9375 M 30.113281 5.351562 C 35.664062 5.351562 40.800781 7.1875 44.9375 10.273438 L 47.976562 6.210938 C 42.988281 2.5 36.8125 0.289062 30.113281 0.289062 C 17.449219 0.289062 6.625 8.1875 2.289062 19.3125 L 7.011719 21.148438 C 10.613281 11.914062 19.613281 5.351562 30.113281 5.351562 "></path><path style=" stroke:none;fill-rule:nonzero;fill:rgb(0%,0%,0%);fill-opacity:1;" d="M 54.625 26.414062 L 59.738281 26.414062 C 59.199219 22.125 57.738281 18 55.449219 14.335938 L 51.148438 17.023438 C 52.925781 19.886719 54.113281 23.074219 54.625 26.414062 "></path><path style=" stroke:none;fill-rule:nonzero;fill:rgb(22.745098%,22.745098%,22.745098%);fill-opacity:1;" d="M 48.863281 26.414062 L 53.988281 26.414062 C 52.648438 17.8125 46.761719 10.699219 38.875 7.625 L 37.039062 12.335938 C 43.050781 14.675781 47.585938 19.960938 48.863281 26.414062 "></path><path style=" stroke:none;fill-rule:nonzero;fill:rgb(0%,0%,0%);fill-opacity:1;" d="M 30.113281 11.023438 L 30.113281 5.976562 C 19.875 5.976562 11.113281 12.375 7.585938 21.375 L 12.289062 23.210938 C 15.074219 16.085938 22.011719 11.023438 30.113281 11.023438 "></path><path style=" stroke:none;fill-rule:nonzero;fill:rgb(22.745098%,22.745098%,22.745098%);fill-opacity:1;" d="M 11 30.148438 L 5.949219 30.148438 C 5.949219 40.300781 12.25 49.011719 21.148438 52.585938 L 23.023438 47.898438 C 15.976562 45.0625 11 38.175781 11 30.148438 "></path><path style=" stroke:none;fill-rule:nonzero;fill:rgb(0%,0%,0%);fill-opacity:1;" d="M 30.113281 49.261719 L 30.113281 54.3125 C 42.175781 54.3125 52.1875 45.4375 53.988281 33.875 L 48.863281 33.875 C 47.125 42.636719 39.375 49.261719 30.113281 49.261719 "></path></g></svg> 