<?xml version="1.0" encoding="UTF-8"?> <svg xmlns="http://www.w3.org/2000/svg" xmlns:xlink="http://www.w3.org/1999/xlink" width="60pt" height="60pt" viewBox="0 0 60 60" version="1.1"><g id="surface1"><path style=" stroke:none;fill-rule:nonzero;fill:rgb(0%,0%,0%);fill-opacity:1;" d="M 30.675781 0.0117188 C 30.675781 19.976562 30.675781 39.886719 30.675781 60 C 21.238281 59.75 13.425781 56.199219 7.4375 48.925781 C -0.414062 39.375 -1.511719 26.273438 4.335938 15.550781 C 10.324219 4.5625 21.699219 -0.300781 30.675781 0.0117188 Z M 30.675781 0.0117188 "></path><path style=" stroke:none;fill-rule:nonzero;fill:rgb(0%,0%,0%);fill-opacity:1;" d="M 59.375 0 C 59.375 6.835938 59.375 13.625 59.375 20.414062 C 48.914062 20.988281 38.511719 11.398438 38.925781 0 C 45.710938 0 52.5 0 59.375 0 Z M 59.375 0 "></path><path style=" stroke:none;fill-rule:nonzero;fill:rgb(0%,0%,0%);fill-opacity:1;" d="M 59.375 39.4375 C 59.375 46.261719 59.375 53.039062 59.375 59.886719 C 52.574219 59.886719 45.789062 59.886719 38.988281 59.886719 C 38.175781 51.011719 46.5625 39.226562 59.375 39.4375 Z M 59.375 39.4375 "></path></g></svg> 