<?xml version="1.0" encoding="UTF-8"?> <!-- Generator: Adobe Illustrator 25.1.0, SVG Export Plug-In . SVG Version: 6.00 Build 0) --> <svg xmlns="http://www.w3.org/2000/svg" xmlns:xlink="http://www.w3.org/1999/xlink" version="1.1" id="Layer_1" x="0px" y="0px" viewBox="0 0 315.1 181.8" style="enable-background:new 0 0 315.1 181.8;" xml:space="preserve"> <style type="text/css"> .st0{fill:#FFFFFF;} .st1{fill:#40C4FF;} .st2{fill:#FF4081;} .st3{fill:#FE912A;} .st4{enable-background:new ;} .st5{fill:#F9F9F9;} .st6{fill:none;stroke:url(#SVGID_1_);stroke-width:2;stroke-miterlimit:10;} .st7{fill:url(#SVGID_2_);} .st8{fill:none;stroke:url(#SVGID_3_);stroke-width:2;stroke-miterlimit:10;} .st9{fill:url(#SVGID_4_);} .st10{fill:#FF4081;stroke:url(#SVGID_5_);stroke-width:2;stroke-miterlimit:10;} </style> <path class="st0" d="M89.9,124.5c0,0-2.2-0.4-2.8-2.7C87.1,121.8,86.8,124.7,89.9,124.5z"></path> <g> <g> <path class="st0" d="M61.6,156.5c0,0.6,0,1.3,0,1.8h4.1h39.4h4.3c0-0.6-0.1-1.2-0.1-1.8c0-21.6,17.5-39,39-39s39,17.5,39,39 c0,0.6,0,1.2-0.1,1.8h4.3h39.4h4.1c0-0.6,0-1.3,0-1.8c0-47.9-38.8-86.7-86.7-86.7S61.6,108.7,61.6,156.5z"></path> </g> </g> <g> <g> <path class="st0" d="M113.5,130.8c-0.9,1.2-4.9,8.5-4.9,8.5c-2,4.8-3.3,10-3.6,15.4H65.7c0.6-29.5,16.7-55.2,40.5-69.3l19.7,34.1 C121,122.4,116.8,126.3,113.5,130.8z"></path> </g> </g> <g> <g> <path class="st1" d="M183.1,130.8c-3.4-4.5-7.5-8.4-12.3-11.3l19.7-34.1c23.8,14.1,39.8,39.8,40.5,69.3h-39.4 c-0.2-5.5-1.5-10.6-3.6-15.4C188,139.3,184.1,131.6,183.1,130.8z"></path> </g> </g> <g> <g> <path class="st2" d="M143.4,113.5c-5.1,0.6-9.9,2-14.3,4.2l-19.7-34.1c11.6-6.2,24.9-9.7,38.9-9.7c14.1,0,27.3,3.5,38.9,9.7 l-19.7,34.1c-4.4-2.2-9.2-3.6-14.3-4.2C149.3,112.4,143.4,113.5,143.4,113.5z"></path> </g> </g> <path class="st3" d="M65.7,154.7h39.4c0.2-5.5,1.5-10.6,3.6-15.4c0,0,4-7.3,4.9-8.5c3.4-4.5,7.5-8.4,12.3-11.3l-19.7-34.1 C82.4,99.5,66.3,125.2,65.7,154.7z"></path> <g> <g> <g class="st4"> <path class="st5" d="M83.6,130.5c0,0.2,0,0.3-0.1,0.5s-0.1,0.3-0.2,0.5c-0.1,0.1-0.2,0.2-0.3,0.3c-0.1,0.1-0.3,0.1-0.5,0.2v-0.7 c0.1,0,0.2-0.1,0.3-0.1c0.1-0.1,0.1-0.2,0.2-0.2c0.1-0.1,0.1-0.2,0.1-0.3c0-0.1,0-0.2-0.1-0.3c-0.1-0.1-0.1-0.2-0.1-0.2 c-0.1-0.1-0.1-0.1-0.2-0.1c-0.1,0-0.2,0-0.2,0.1c-0.1,0.1-0.1,0.1-0.1,0.2c-0.1,0.1-0.1,0.2-0.1,0.3l-0.1,0.6 c-0.1,0.2-0.2,0.5-0.3,0.6c-0.2,0.2-0.3,0.2-0.6,0.2c-0.2,0-0.4-0.1-0.6-0.2c-0.2-0.1-0.3-0.3-0.3-0.5c-0.1-0.2-0.1-0.4-0.1-0.7 s0.1-0.5,0.1-0.7c0.1-0.2,0.2-0.3,0.3-0.5c0.2-0.1,0.3-0.2,0.5-0.2v0.7c-0.1,0-0.2,0.1-0.3,0.1s-0.1,0.1-0.2,0.2 s-0.1,0.2-0.1,0.3c0,0.1,0,0.2,0.1,0.2s0.1,0.1,0.1,0.2c0,0.1,0.1,0.1,0.1,0.1c0.1,0,0.1,0.1,0.2,0.1c0.1,0,0.2-0.1,0.2-0.1 c0.1-0.1,0.1-0.2,0.2-0.3l0.1-0.6c0.1-0.2,0.1-0.4,0.2-0.5c0.1-0.1,0.2-0.2,0.3-0.3c0.1-0.1,0.2-0.1,0.3-0.1 c0.1,0,0.2-0.1,0.3-0.1c0.2,0,0.3,0.1,0.5,0.2c0.2,0.1,0.3,0.3,0.3,0.5C83.5,129.9,83.6,130.2,83.6,130.5z"></path> <path class="st5" d="M80.8,128.8h-0.6v-2.7h0.6v1h2.7v0.7h-2.7V128.8z"></path> <path class="st5" d="M83.5,125.6h-3.4v-2.3h0.6v1.7h0.8v-1.4h0.6v1.4H83v-1.7h0.6V125.6z"></path> <path class="st5" d="M83.5,122.7h-3.4v-1.3c0-0.2,0.1-0.5,0.1-0.7s0.2-0.3,0.4-0.5c0.2-0.1,0.3-0.2,0.6-0.2 c0.2,0,0.4,0.1,0.6,0.2c0.2,0.1,0.3,0.2,0.3,0.4c0.1,0.2,0.1,0.4,0.1,0.6v0.6h1.2L83.5,122.7L83.5,122.7z M81.8,122v-0.6 c0-0.2-0.1-0.3-0.2-0.4c-0.1-0.1-0.2-0.2-0.4-0.2s-0.3,0.1-0.4,0.2c-0.1,0.1-0.2,0.2-0.2,0.4v0.6H81.8z"></path> </g> </g> <g> <g class="st4"> <path class="st5" d="M91.6,118.1c1.7,0,3,0.6,4,1.9c1,1.3,1.4,3,1.4,5.4c0,2.3-0.5,4.1-1.4,5.3c-1,1.3-2.3,1.9-4,1.9 c-1.7,0-3-0.6-4-1.9s-1.4-3-1.4-5.3c0-1.5,0.2-2.9,0.7-4c0.5-1.1,1.1-1.9,1.9-2.4C89.5,118.4,90.4,118.1,91.6,118.1z M91.6,130.3 c0.9,0,1.4-0.4,1.8-1.1s0.6-2,0.6-3.8c0-1.8-0.2-3.1-0.6-3.9c-0.4-0.8-1-1.1-1.8-1.1c-0.9,0-1.4,0.4-1.9,1.2 c-0.4,0.8-0.6,2-0.6,3.9c0,1.8,0.2,3,0.6,3.8C90.1,129.9,90.7,130.3,91.6,130.3z"></path> <path class="st5" d="M101.1,132.4v-10.5h-2.5v-1.6c0.8,0,1.5-0.1,1.9-0.2c0.5-0.2,0.9-0.4,1.1-0.7c0.2-0.3,0.4-0.6,0.5-1h1.9 v14.1H101.1z"></path> </g> </g> </g> <g> <g> <g class="st4"> <path class="st5" d="M137.4,97.2c0,0.2,0,0.3-0.1,0.5c-0.1,0.2-0.1,0.3-0.2,0.5c-0.1,0.1-0.2,0.2-0.3,0.3 c-0.1,0.1-0.3,0.1-0.5,0.2V98c0.1,0,0.2-0.1,0.3-0.1c0.1-0.1,0.1-0.2,0.2-0.2c0.1-0.1,0.1-0.2,0.1-0.3s0-0.2-0.1-0.3 c-0.1-0.1-0.1-0.2-0.1-0.2c-0.1-0.1-0.1-0.1-0.2-0.1c-0.1,0-0.2,0-0.2,0.1c-0.1,0.1-0.1,0.1-0.1,0.2c-0.1,0.1-0.1,0.2-0.1,0.3 l-0.1,0.6c-0.1,0.2-0.2,0.5-0.3,0.6c-0.2,0.2-0.3,0.2-0.6,0.2c-0.2,0-0.4-0.1-0.6-0.2c-0.2-0.1-0.3-0.3-0.3-0.5 c-0.1-0.2-0.1-0.4-0.1-0.7c0-0.3,0.1-0.5,0.1-0.7c0.1-0.2,0.2-0.3,0.3-0.5c0.2-0.1,0.3-0.2,0.5-0.2v0.7c-0.1,0-0.2,0.1-0.3,0.1 c-0.1,0.1-0.1,0.1-0.2,0.2c-0.1,0.1-0.1,0.2-0.1,0.3c0,0.1,0,0.2,0.1,0.2c0.1,0.1,0.1,0.1,0.1,0.2s0.1,0.1,0.1,0.1 s0.1,0.1,0.2,0.1c0.1,0,0.2-0.1,0.2-0.1c0.1-0.1,0.1-0.2,0.2-0.3l0.1-0.6c0.1-0.2,0.1-0.4,0.2-0.5c0.1-0.1,0.2-0.2,0.3-0.3 c0.1-0.1,0.2-0.1,0.3-0.1c0.1,0,0.2-0.1,0.3-0.1c0.2,0,0.3,0.1,0.5,0.2c0.2,0.1,0.3,0.3,0.3,0.5S137.4,96.9,137.4,97.2z"></path> <path class="st5" d="M134.6,95.5H134v-2.7h0.6v1h2.7v0.7h-2.7V95.5z"></path> <path class="st5" d="M137.3,92.3H134v-2.3h0.6v1.7h0.8v-1.4h0.6v1.4h0.9v-1.7h0.6V92.3z"></path> <path class="st5" d="M137.3,89.4H134v-1.3c0-0.2,0.1-0.5,0.1-0.7c0.1-0.2,0.2-0.3,0.4-0.5c0.2-0.1,0.3-0.2,0.6-0.2 c0.2,0,0.4,0.1,0.6,0.2c0.2,0.1,0.3,0.2,0.3,0.4c0.1,0.2,0.1,0.4,0.1,0.6v0.6h1.2L137.3,89.4L137.3,89.4z M135.6,88.7v-0.6 c0-0.2-0.1-0.3-0.2-0.4c-0.1-0.1-0.2-0.2-0.4-0.2c-0.2,0-0.3,0.1-0.4,0.2c-0.1,0.1-0.2,0.2-0.2,0.4v0.6H135.6z"></path> </g> </g> <g> <g class="st4"> <path class="st5" d="M145.3,84.9c1.7,0,3,0.6,4,1.9c1,1.3,1.4,3,1.4,5.4c0,2.3-0.5,4.1-1.4,5.3c-1,1.3-2.3,1.9-4,1.9 c-1.7,0-3-0.6-4-1.9c-1-1.3-1.4-3-1.4-5.3c0-1.5,0.2-2.9,0.7-4c0.5-1.1,1.1-1.9,1.9-2.4C143.2,85.2,144.2,84.9,145.3,84.9z M145.3,97c0.9,0,1.4-0.4,1.8-1.1c0.4-0.7,0.6-2,0.6-3.8c0-1.8-0.2-3.1-0.6-3.9c-0.4-0.8-1-1.1-1.8-1.1c-0.9,0-1.4,0.4-1.9,1.2 s-0.6,2-0.6,3.9c0,1.8,0.2,3,0.6,3.8C143.9,96.7,144.5,97,145.3,97z"></path> <path class="st5" d="M152.7,99.1v-1.4v-0.7c0-0.7,0.1-1.3,0.4-1.9s0.6-1,1.1-1.4s0.9-0.7,1.4-1c0.5-0.3,1-0.6,1.6-0.9 c0.6-0.3,1-0.5,1.4-0.8c0.5-0.3,0.8-0.6,1.1-0.9c0.3-0.3,0.4-0.7,0.4-1.1c0-0.6-0.2-1-0.6-1.4c-0.4-0.3-0.9-0.5-1.6-0.5 s-1.3,0.2-1.8,0.6c-0.5,0.4-0.8,1-0.9,1.8h-2.7c0-0.9,0.2-1.7,0.6-2.4s1-1.3,1.8-1.8c0.8-0.5,1.8-0.6,3.1-0.6 c1,0,1.9,0.2,2.7,0.5c0.7,0.3,1.4,0.9,1.8,1.5c0.4,0.6,0.6,1.4,0.6,2.2c0,0.7-0.1,1.3-0.4,1.8s-0.6,1-1,1.3 c-0.5,0.3-0.9,0.7-1.4,1c-0.5,0.3-1,0.5-1.5,0.7c-0.5,0.2-1,0.5-1.4,0.7s-0.8,0.5-1,0.8c-0.2,0.3-0.4,0.7-0.4,1.1v0.1h7.2v2.4 h-10.4V99.1z"></path> </g> </g> </g> <g> <g> <g class="st4"> <path class="st5" d="M193.2,129.8c0,0.2,0,0.3-0.1,0.5c-0.1,0.2-0.1,0.3-0.2,0.5c-0.1,0.1-0.2,0.2-0.3,0.3 c-0.1,0.1-0.3,0.1-0.5,0.2v-0.7c0.1,0,0.2-0.1,0.3-0.1c0.1-0.1,0.1-0.2,0.2-0.2c0.1-0.1,0.1-0.2,0.1-0.3c0-0.1,0-0.2-0.1-0.3 c-0.1-0.1-0.1-0.2-0.1-0.2s-0.1-0.1-0.2-0.1c-0.1,0-0.2,0-0.2,0.1c-0.1,0.1-0.1,0.1-0.1,0.2c-0.1,0.1-0.1,0.2-0.1,0.3l-0.1,0.6 c-0.1,0.2-0.2,0.5-0.3,0.6c-0.2,0.2-0.3,0.2-0.6,0.2c-0.2,0-0.4-0.1-0.6-0.2c-0.2-0.1-0.3-0.3-0.3-0.5c-0.1-0.2-0.1-0.4-0.1-0.7 s0.1-0.5,0.1-0.7c0.1-0.2,0.2-0.3,0.3-0.5c0.2-0.1,0.3-0.2,0.5-0.2v0.7c-0.1,0-0.2,0.1-0.3,0.1c-0.1,0.1-0.1,0.1-0.2,0.2 c-0.1,0.1-0.1,0.2-0.1,0.3c0,0.1,0,0.2,0.1,0.2c0,0.1,0.1,0.1,0.1,0.2c0,0.1,0.1,0.1,0.1,0.1c0.1,0,0.1,0.1,0.2,0.1 c0.1,0,0.2-0.1,0.2-0.1c0.1-0.1,0.1-0.2,0.2-0.3l0.1-0.6c0.1-0.2,0.1-0.4,0.2-0.5c0.1-0.1,0.2-0.2,0.3-0.3 c0.1-0.1,0.2-0.1,0.3-0.1c0.1,0,0.2-0.1,0.3-0.1c0.2,0,0.3,0.1,0.5,0.2c0.2,0.1,0.3,0.3,0.3,0.5 C193.1,129.3,193.2,129.5,193.2,129.8z"></path> <path class="st5" d="M190.4,128.1h-0.6v-2.7h0.6v1h2.7v0.7h-2.7V128.1z"></path> <path class="st5" d="M193.1,125h-3.4v-2.3h0.6v1.7h0.8v-1.4h0.6v1.4h0.9v-1.7h0.6V125z"></path> <path class="st5" d="M193.1,122h-3.4v-1.3c0-0.2,0.1-0.5,0.1-0.7c0.1-0.2,0.2-0.3,0.4-0.5c0.2-0.1,0.3-0.2,0.6-0.2 c0.2,0,0.4,0.1,0.6,0.2c0.2,0.1,0.3,0.2,0.3,0.4c0.1,0.2,0.1,0.4,0.1,0.6v0.6h1.2L193.1,122L193.1,122z M191.4,121.4v-0.6 c0-0.2-0.1-0.3-0.2-0.4c-0.1-0.1-0.2-0.2-0.4-0.2c-0.2,0-0.3,0.1-0.4,0.2c-0.1,0.1-0.2,0.2-0.2,0.4v0.6H191.4z"></path> </g> </g> <g> <g class="st4"> <path class="st5" d="M201.2,117.5c1.7,0,3,0.6,4,1.9c1,1.3,1.4,3,1.4,5.4c0,2.3-0.5,4.1-1.4,5.3c-1,1.3-2.3,1.9-4,1.9 c-1.7,0-3-0.6-4-1.9c-1-1.3-1.4-3-1.4-5.3c0-1.5,0.2-2.9,0.7-4c0.5-1.1,1.1-1.9,1.9-2.4C199.1,117.8,200,117.5,201.2,117.5z M201.2,129.7c0.9,0,1.4-0.4,1.8-1.1c0.4-0.7,0.6-2,0.6-3.8c0-1.8-0.2-3.1-0.6-3.9c-0.4-0.8-1-1.1-1.8-1.1 c-0.9,0-1.4,0.4-1.9,1.2c-0.4,0.8-0.6,2-0.6,3.9c0,1.8,0.2,3,0.6,3.8C199.7,129.3,200.3,129.7,201.2,129.7z"></path> <path class="st5" d="M208.4,122c0-1,0.2-1.8,0.7-2.5c0.5-0.7,1.1-1.2,1.9-1.5c0.8-0.3,1.7-0.5,2.7-0.5c1,0,2,0.1,2.8,0.4 c0.8,0.3,1.5,0.7,1.9,1.3s0.7,1.3,0.7,2.1c0,0.7-0.2,1.3-0.6,1.8s-1.1,1-2,1.3c0.5,0.2,1,0.3,1.4,0.6c0.5,0.3,0.8,0.7,1.1,1.1 c0.3,0.5,0.4,1,0.4,1.7c0,0.7-0.2,1.3-0.5,1.8c-0.3,0.5-0.7,1-1.3,1.3c-0.5,0.3-1.1,0.6-1.9,0.8c-0.7,0.2-1.5,0.3-2.3,0.3 c-1.1,0-2.1-0.2-2.9-0.6c-0.8-0.3-1.4-0.9-1.8-1.6s-0.6-1.5-0.7-2.4h2.7c0.1,0.8,0.5,1.4,0.9,1.7c0.5,0.3,1.1,0.5,1.7,0.5 c0.6,0,1.1-0.1,1.5-0.2c0.4-0.2,0.7-0.4,1-0.7s0.3-0.6,0.3-1c0-0.4-0.1-0.7-0.3-1c-0.2-0.3-0.6-0.5-1-0.7 c-0.4-0.2-0.9-0.2-1.4-0.3l-1.4-0.1v-2.3l1.2-0.1c0.5,0,1-0.1,1.3-0.3c0.3-0.2,0.7-0.4,0.9-0.7c0.2-0.3,0.3-0.6,0.3-1 c0-0.3-0.1-0.6-0.3-0.9c-0.2-0.3-0.5-0.5-0.9-0.6c-0.4-0.1-0.8-0.2-1.3-0.2c-0.5,0-0.9,0.1-1.3,0.2c-0.4,0.2-0.7,0.4-0.9,0.7 c-0.2,0.3-0.4,0.8-0.4,1.4h-2.4V122z"></path> </g> </g> </g> <g> <linearGradient id="SVGID_1_" gradientUnits="userSpaceOnUse" x1="-470.4718" y1="864.5559" x2="-432.8918" y2="864.5559" gradientTransform="matrix(0 -1 1 0 -796.4626 -381.1328)"> <stop offset="5.586590e-03" style="stop-color:#E58F22"></stop> <stop offset="1" style="stop-color:#EDBC56"></stop> </linearGradient> <polyline class="st6" points="77.5,88.6 59,70.2 59,51.8 "></polyline> <linearGradient id="SVGID_2_" gradientUnits="userSpaceOnUse" x1="-435.775" y1="855.4841" x2="-431.4796" y2="855.4841" gradientTransform="matrix(0 -1 1 0 -796.4626 -381.1328)"> <stop offset="5.586590e-03" style="stop-color:#E58F22"></stop> <stop offset="1" style="stop-color:#EDBC56"></stop> </linearGradient> <path class="st7" d="M59,50.3c1.2,0,2.2,1,2.2,2.2c0,1.2-1,2.2-2.2,2.2s-2.2-1-2.2-2.2C56.9,51.3,57.8,50.3,59,50.3z"></path> </g> <g> <linearGradient id="SVGID_3_" gradientUnits="userSpaceOnUse" x1="-470.4718" y1="1026.3958" x2="-432.8918" y2="1026.3958" gradientTransform="matrix(0 -1 1 0 -796.4626 -381.1328)"> <stop offset="0" style="stop-color:#477DD6"></stop> <stop offset="1" style="stop-color:#73CAF8"></stop> </linearGradient> <polyline class="st8" points="220.6,88.6 239,70.2 239,51.8 "></polyline> <linearGradient id="SVGID_4_" gradientUnits="userSpaceOnUse" x1="-435.775" y1="-110.2587" x2="-431.4796" y2="-110.2587" gradientTransform="matrix(0 -1 -1 0 128.7462 -381.1328)"> <stop offset="0" style="stop-color:#477DD6"></stop> <stop offset="1" style="stop-color:#73CAF8"></stop> </linearGradient> <path class="st9" d="M239,50.3c-1.2,0-2.2,1-2.2,2.2c0,1.2,1,2.2,2.2,2.2c1.2,0,2.2-1,2.2-2.2C241.2,51.3,240.2,50.3,239,50.3z"></path> </g> <g> <linearGradient id="SVGID_5_" gradientUnits="userSpaceOnUse" x1="-441.3134" y1="945.0491" x2="-404.4404" y2="945.0491" gradientTransform="matrix(0 -1 1 0 -796.4626 -381.1328)"> <stop offset="5.586590e-03" style="stop-color:#D1184A"></stop> <stop offset="1" style="stop-color:#D65B7D"></stop> </linearGradient> <polyline class="st10" points="148.6,60.2 148.6,41.7 148.6,23.3 "></polyline> <circle class="st2" cx="148.6" cy="24" r="2.2"></circle> </g> <g> <g class="st4"> <path d="M6.6,57.5c-0.3,0-0.6-0.1-1-0.1c-0.3-0.1-0.6-0.2-0.9-0.3c-0.3-0.2-0.5-0.3-0.6-0.6c-0.2-0.2-0.3-0.5-0.3-0.9h1.4 c0.1,0.2,0.1,0.3,0.3,0.5c0.2,0.2,0.3,0.2,0.5,0.3c0.2,0.1,0.4,0.1,0.6,0.1c0.2,0,0.5-0.1,0.7-0.1c0.2-0.1,0.3-0.2,0.5-0.3 c0.1-0.1,0.2-0.3,0.2-0.5c0-0.2-0.1-0.3-0.2-0.4c-0.1-0.1-0.2-0.2-0.4-0.3c-0.2-0.1-0.3-0.1-0.6-0.2l-1.1-0.2 c-0.5-0.1-0.9-0.3-1.2-0.6C4.2,53.8,4,53.4,4,52.8c0-0.4,0.1-0.8,0.3-1.1c0.2-0.3,0.5-0.5,0.9-0.7c0.4-0.2,0.8-0.2,1.3-0.2 c0.6,0,1,0.1,1.4,0.3c0.4,0.2,0.7,0.4,0.9,0.7c0.2,0.3,0.3,0.6,0.3,1H7.9c0-0.2-0.1-0.4-0.2-0.6c-0.1-0.1-0.3-0.2-0.5-0.3 C7,52,6.8,51.9,6.6,51.9c-0.2,0-0.3,0-0.5,0.1c-0.2,0.1-0.3,0.1-0.3,0.2c-0.1,0.1-0.2,0.2-0.2,0.2c-0.1,0.1-0.1,0.2-0.1,0.3 c0,0.2,0.1,0.3,0.2,0.5c0.1,0.1,0.3,0.2,0.7,0.3l1.1,0.2c0.4,0.1,0.7,0.2,1,0.3c0.2,0.2,0.4,0.3,0.5,0.5c0.1,0.2,0.2,0.4,0.2,0.6 c0.1,0.2,0.1,0.4,0.1,0.6c0,0.3-0.1,0.7-0.3,1c-0.2,0.3-0.5,0.5-0.9,0.7C7.6,57.4,7.1,57.5,6.6,57.5z"></path> <path d="M13.2,53.6h-1v2.5c0,0.1,0,0.2,0.1,0.3c0.1,0.1,0.1,0.1,0.1,0.1c0.1,0,0.1,0,0.2,0h0.6v0.8c-0.1,0-0.2,0.1-0.3,0.1 s-0.3,0.1-0.5,0.1c-0.4,0-0.7-0.1-1-0.2c-0.2-0.1-0.4-0.2-0.5-0.5c-0.1-0.2-0.1-0.4-0.1-0.7v-2.5h-0.7v-0.9h0.8l0.3-1.4h1v1.4h1 L13.2,53.6L13.2,53.6z"></path> <path d="M14.1,57.4v-4.7h1.3v1.1c0.1-0.2,0.2-0.5,0.3-0.6c0.2-0.2,0.3-0.3,0.5-0.4c0.2-0.1,0.4-0.2,0.7-0.2c0.1,0,0.1,0,0.1,0 c0.1,0,0.1,0,0.1,0v1.3c0,0-0.1,0-0.1,0s-0.1,0-0.1,0c-0.3,0-0.5,0-0.7,0C16,53.9,15.8,54,15.7,54c-0.1,0.1-0.2,0.2-0.2,0.3 c-0.1,0.1-0.1,0.3-0.1,0.5v2.6H14.1z"></path> <path d="M19.2,57.5c-0.3,0-0.6-0.1-0.8-0.2s-0.5-0.3-0.6-0.5s-0.2-0.5-0.2-0.8c0-0.5,0.2-0.9,0.6-1.2c0.4-0.3,1-0.4,1.8-0.4h0.6 v-0.2c0-0.2-0.1-0.4-0.2-0.5c-0.1-0.1-0.3-0.2-0.6-0.2c-0.2,0-0.4,0.1-0.6,0.1c-0.2,0.1-0.3,0.2-0.3,0.5h-1.1 c0-0.3,0.1-0.6,0.3-0.9s0.4-0.4,0.7-0.5c0.3-0.1,0.7-0.2,1-0.2c0.5,0,0.9,0.1,1.1,0.2c0.3,0.1,0.5,0.3,0.6,0.5 c0.1,0.2,0.2,0.5,0.2,0.8v3.3h-1.1l-0.1-0.8c-0.2,0.3-0.3,0.6-0.6,0.7C19.8,57.4,19.5,57.5,19.2,57.5z M19.6,56.7 c0.1,0,0.2,0,0.3-0.1c0.1-0.1,0.2-0.1,0.3-0.2s0.2-0.2,0.2-0.2c0.1-0.1,0.1-0.2,0.1-0.3v-0.7h-0.5c-0.2,0-0.5,0.1-0.6,0.1 s-0.3,0.1-0.5,0.2c-0.1,0.1-0.2,0.3-0.2,0.5c0,0.2,0.1,0.4,0.2,0.5C19.2,56.6,19.4,56.7,19.6,56.7z"></path> <path d="M25.9,53.6h-1v2.5c0,0.1,0,0.2,0.1,0.3c0.1,0.1,0.1,0.1,0.1,0.1s0.1,0,0.2,0h0.6v0.8c-0.1,0-0.2,0.1-0.3,0.1 s-0.3,0.1-0.5,0.1c-0.4,0-0.7-0.1-1-0.2c-0.2-0.1-0.4-0.2-0.5-0.5c-0.1-0.2-0.1-0.4-0.1-0.7v-2.5h-0.7v-0.9h0.8l0.3-1.4h0.9v1.4h1 V53.6z"></path> <path d="M28,55.3c0,0.2,0.1,0.5,0.1,0.6s0.2,0.3,0.3,0.4c0.2,0.1,0.3,0.2,0.6,0.2s0.5-0.1,0.6-0.2c0.2-0.1,0.3-0.3,0.3-0.5h1.1 c-0.1,0.3-0.2,0.6-0.4,0.9s-0.5,0.4-0.8,0.6c-0.3,0.2-0.6,0.2-1,0.2c-0.5,0-0.9-0.1-1.3-0.3c-0.3-0.2-0.6-0.5-0.9-0.9 c-0.2-0.3-0.3-0.8-0.3-1.3c0-0.5,0.1-0.9,0.3-1.3c0.2-0.4,0.5-0.7,0.8-0.9s0.7-0.3,1.3-0.3c0.5,0,0.9,0.1,1.2,0.3 c0.3,0.2,0.6,0.5,0.7,0.9c0.2,0.3,0.2,0.8,0.2,1.3v0.3H28z M28,54.5h1.9c0-0.2-0.1-0.3-0.1-0.5c-0.1-0.2-0.2-0.3-0.3-0.4 c-0.1-0.1-0.3-0.1-0.5-0.1c-0.2,0-0.4,0.1-0.5,0.2c-0.2,0.1-0.2,0.2-0.3,0.4C28,54.3,28,54.4,28,54.5z"></path> <path d="M34.3,59c-0.9,0-1.5-0.1-1.9-0.3c-0.5-0.2-0.6-0.5-0.6-0.9c0-0.2,0.1-0.3,0.1-0.4s0.2-0.2,0.3-0.3 c0.1-0.1,0.2-0.1,0.3-0.2s0.2-0.1,0.2-0.1c-0.1,0-0.1-0.1-0.2-0.1c-0.1-0.1-0.2-0.1-0.2-0.2c-0.1-0.1-0.1-0.2-0.1-0.3 c0-0.2,0.1-0.3,0.2-0.5c0.2-0.1,0.4-0.2,0.7-0.3c-0.3-0.2-0.6-0.3-0.7-0.6s-0.2-0.5-0.2-0.7c0-0.3,0.1-0.6,0.3-0.8 c0.2-0.2,0.5-0.4,0.8-0.5c0.3-0.1,0.7-0.2,1.1-0.2c0.3,0,0.6,0.1,0.8,0.1c0.2,0.1,0.4,0.2,0.6,0.3c0.1,0,0.2-0.1,0.3-0.1 c0.1-0.1,0.2-0.1,0.4-0.2c0.1-0.1,0.3-0.1,0.4-0.2s0.2-0.1,0.3-0.2v1l-0.8,0.1c0.1,0.1,0.1,0.2,0.1,0.3s0,0.2,0,0.2 c0,0.3-0.1,0.5-0.2,0.7c-0.2,0.2-0.4,0.5-0.7,0.6s-0.7,0.2-1.2,0.2c-0.1,0-0.1,0-0.2,0c-0.1,0-0.2,0-0.2,0c-0.2,0-0.3,0.1-0.3,0.1 c-0.1,0.1-0.1,0.1-0.1,0.1c0,0.1,0.1,0.1,0.2,0.2c0.1,0,0.3,0.1,0.6,0.1c0.1,0,0.2,0,0.4,0s0.3,0,0.6,0.1c0.6,0.1,1,0.2,1.3,0.4 c0.3,0.2,0.4,0.6,0.4,0.9c0,0.5-0.2,0.8-0.6,1.1C35.7,58.8,35.1,59,34.3,59z M34.4,58.2c0.4,0,0.6-0.1,0.8-0.1 c0.2-0.1,0.2-0.2,0.2-0.4c0-0.2-0.1-0.3-0.2-0.3c-0.1-0.1-0.3-0.1-0.5-0.2l-1.1-0.1c-0.1,0-0.3,0-0.4,0.1 c-0.1,0.1-0.2,0.1-0.2,0.2C33,57.6,33,57.6,33,57.7c0,0.2,0.1,0.3,0.3,0.5C33.6,58.2,34,58.2,34.4,58.2z M34.2,54.9 c0.2,0,0.5-0.1,0.6-0.2c0.2-0.1,0.2-0.3,0.2-0.6s-0.1-0.5-0.2-0.6c-0.2-0.2-0.3-0.2-0.6-0.2c-0.2,0-0.5,0.1-0.6,0.2 c-0.2,0.2-0.2,0.3-0.2,0.6s0.1,0.4,0.2,0.6C33.8,54.9,33.9,54.9,34.2,54.9z"></path> <path d="M39.2,50.8V52h-1.3v-1.2H39.2z M39.1,52.7v4.7h-1.3v-4.7H39.1z"></path> <path d="M40,57.4v-0.7l2.3-3h-2.2v-0.9h3.8v0.7l-2.3,3h2.3v0.9H40z"></path> <path d="M45.9,55.3c0,0.2,0.1,0.5,0.1,0.6c0.1,0.2,0.2,0.3,0.3,0.4c0.2,0.1,0.3,0.2,0.6,0.2s0.5-0.1,0.6-0.2 c0.2-0.1,0.3-0.3,0.3-0.5h1.2c-0.1,0.3-0.2,0.6-0.4,0.9s-0.5,0.4-0.8,0.6c-0.3,0.2-0.6,0.2-1,0.2c-0.5,0-0.9-0.1-1.3-0.3 c-0.3-0.2-0.6-0.5-0.9-0.9c-0.2-0.3-0.3-0.8-0.3-1.3c0-0.5,0.1-0.9,0.3-1.3c0.2-0.4,0.5-0.7,0.8-0.9s0.7-0.3,1.3-0.3 c0.5,0,0.9,0.1,1.2,0.3c0.3,0.2,0.6,0.5,0.7,0.9c0.2,0.3,0.2,0.8,0.2,1.3v0.3H45.9z M45.9,54.5h1.9c0-0.2-0.1-0.3-0.1-0.5 c-0.1-0.2-0.2-0.3-0.3-0.4c-0.1-0.1-0.3-0.1-0.5-0.1c-0.2,0-0.4,0.1-0.5,0.2c-0.2,0.1-0.2,0.2-0.3,0.4 C45.9,54.3,45.9,54.4,45.9,54.5z"></path> </g> </g> <g> <g class="st4"> <path d="M127.1,11.5c-0.3,0-0.6-0.1-1-0.1c-0.3-0.1-0.6-0.2-0.9-0.3c-0.3-0.2-0.5-0.3-0.6-0.6c-0.2-0.2-0.3-0.5-0.3-0.9h1.4 c0.1,0.2,0.1,0.3,0.3,0.5c0.2,0.2,0.3,0.2,0.5,0.3s0.4,0.1,0.6,0.1s0.5-0.1,0.7-0.1c0.2-0.1,0.3-0.2,0.5-0.3 c0.1-0.1,0.2-0.3,0.2-0.5s-0.1-0.3-0.2-0.4c-0.1-0.1-0.2-0.2-0.4-0.3c-0.2-0.1-0.3-0.1-0.6-0.2l-1.1-0.2c-0.5-0.1-0.9-0.3-1.2-0.6 c-0.3-0.3-0.5-0.7-0.5-1.2c0-0.4,0.1-0.8,0.3-1.1c0.2-0.3,0.5-0.5,0.9-0.7c0.4-0.2,0.8-0.2,1.3-0.2c0.6,0,1,0.1,1.4,0.3 c0.4,0.2,0.7,0.4,0.9,0.7c0.2,0.3,0.3,0.6,0.3,1h-1.3c0-0.2-0.1-0.4-0.2-0.6c-0.1-0.1-0.3-0.2-0.5-0.3S127.4,6,127.1,6 c-0.2,0-0.3,0-0.5,0.1c-0.2,0.1-0.3,0.1-0.3,0.2c-0.1,0.1-0.2,0.2-0.2,0.2c-0.1,0.1-0.1,0.2-0.1,0.3c0,0.2,0.1,0.3,0.2,0.5 c0.1,0.1,0.3,0.2,0.7,0.3l1.1,0.2c0.4,0.1,0.7,0.2,1,0.3c0.2,0.2,0.4,0.3,0.5,0.5c0.1,0.2,0.2,0.4,0.2,0.6 c0.1,0.2,0.1,0.4,0.1,0.6c0,0.3-0.1,0.7-0.3,1c-0.2,0.3-0.5,0.5-0.9,0.7C128.2,11.5,127.7,11.5,127.1,11.5z"></path> <path d="M132.8,6.6c0.4,0,0.7,0.1,1,0.2c0.3,0.2,0.5,0.4,0.7,0.6c0.2,0.3,0.3,0.6,0.3,0.9h-1.1c0-0.1-0.1-0.2-0.1-0.4 c-0.1-0.2-0.2-0.2-0.3-0.3c-0.1-0.1-0.3-0.1-0.5-0.1c-0.3,0-0.6,0.1-0.7,0.3c-0.2,0.2-0.3,0.6-0.3,1.1c0,0.5,0.1,0.8,0.3,1.1 c0.2,0.3,0.5,0.4,0.8,0.4c0.2,0,0.3-0.1,0.5-0.1c0.1-0.1,0.2-0.2,0.3-0.3c0.1-0.1,0.1-0.2,0.1-0.3h1.1c0,0.3-0.1,0.6-0.3,0.9 c-0.2,0.3-0.4,0.5-0.7,0.6c-0.3,0.2-0.6,0.2-1,0.2c-0.5,0-0.9-0.1-1.2-0.3c-0.3-0.2-0.6-0.5-0.8-0.9c-0.2-0.3-0.3-0.8-0.3-1.3 c0-0.5,0.1-0.9,0.3-1.3s0.5-0.7,0.8-0.9C132,6.7,132.4,6.6,132.8,6.6z"></path> <path d="M135.7,11.4V6.7h1.3v1.1c0.1-0.2,0.2-0.5,0.3-0.6c0.2-0.2,0.3-0.3,0.5-0.4c0.2-0.1,0.4-0.2,0.7-0.2c0.1,0,0.1,0,0.1,0 c0.1,0,0.1,0,0.1,0v1.3c0,0-0.1,0-0.1,0c-0.1,0-0.1,0-0.1,0c-0.3,0-0.5,0-0.7,0c-0.2,0.1-0.3,0.1-0.5,0.2 c-0.1,0.1-0.2,0.2-0.2,0.3C137,8.5,137,8.7,137,8.9v2.6H135.7z"></path> <path d="M140.8,11.5c-0.3,0-0.6-0.1-0.8-0.2c-0.2-0.1-0.5-0.3-0.6-0.5c-0.1-0.2-0.2-0.5-0.2-0.8c0-0.5,0.2-0.9,0.6-1.2 c0.4-0.3,1-0.4,1.8-0.4h0.6V8.2c0-0.2-0.1-0.4-0.2-0.5c-0.1-0.1-0.3-0.2-0.6-0.2c-0.2,0-0.4,0.1-0.6,0.1c-0.2,0.1-0.3,0.2-0.3,0.5 h-1.1c0-0.3,0.1-0.6,0.3-0.9c0.2-0.2,0.4-0.4,0.7-0.5c0.3-0.1,0.7-0.2,1-0.2c0.5,0,0.9,0.1,1.1,0.2s0.5,0.3,0.6,0.5 c0.1,0.2,0.2,0.5,0.2,0.8v3.3h-1.1l-0.1-0.8c-0.2,0.3-0.3,0.6-0.6,0.7C141.4,11.5,141.1,11.5,140.8,11.5z M141.2,10.7 c0.1,0,0.2,0,0.3-0.1s0.2-0.1,0.3-0.2c0.1-0.1,0.2-0.2,0.2-0.2c0.1-0.1,0.1-0.2,0.1-0.3V9.3h-0.5c-0.2,0-0.5,0.1-0.6,0.1 c-0.2,0-0.3,0.1-0.5,0.2s-0.2,0.3-0.2,0.5c0,0.2,0.1,0.4,0.2,0.5S141,10.7,141.2,10.7z"></path> <path d="M144.7,12.9V6.7h1.3v0.7c0.1-0.1,0.2-0.2,0.3-0.3c0.1-0.1,0.2-0.2,0.3-0.2c0.1-0.1,0.3-0.1,0.4-0.2 c0.2-0.1,0.3-0.1,0.5-0.1c0.3,0,0.7,0.1,0.9,0.3c0.3,0.2,0.5,0.5,0.6,0.8c0.2,0.3,0.2,0.8,0.2,1.4c0,0.6-0.1,1-0.2,1.4 c-0.2,0.3-0.4,0.6-0.7,0.8c-0.3,0.2-0.6,0.3-1,0.3c-0.2,0-0.3,0-0.5-0.1c-0.1-0.1-0.3-0.1-0.4-0.2s-0.2-0.2-0.3-0.2 c-0.1-0.1-0.2-0.2-0.2-0.3v2.2h-1.3V12.9z M147,10.6c0.3,0,0.5-0.1,0.7-0.3c0.2-0.2,0.3-0.6,0.3-1.1c0-0.5-0.1-0.8-0.3-1.1 c-0.2-0.3-0.5-0.4-0.7-0.4c-0.3,0-0.6,0.1-0.7,0.4c-0.2,0.3-0.2,0.6-0.2,1c0,0.3,0.1,0.5,0.1,0.7c0.1,0.2,0.2,0.4,0.3,0.6 C146.7,10.5,146.8,10.6,147,10.6z"></path> <path d="M152.3,4.9c0.1,0,0.1,0,0.3,0s0.3,0,0.6,0c0.2,0,0.4,0,0.6,0c0.2,0,0.4,0,0.5,0c0.8,0,1.4,0.2,1.9,0.5 c0.5,0.3,0.9,0.6,1.1,1.1c0.2,0.5,0.3,1,0.3,1.7c0,0.7-0.1,1.3-0.4,1.8c-0.2,0.5-0.6,0.9-1.1,1.1s-1.1,0.4-1.9,0.4h-1.9L152.3,4.9 L152.3,4.9z M153.6,6v4.4h0.6c0.4,0,0.7-0.1,1-0.2c0.3-0.2,0.6-0.4,0.7-0.7s0.3-0.8,0.3-1.3c0-0.5-0.1-0.9-0.2-1.3 s-0.4-0.6-0.7-0.7C155.1,6,154.7,6,154.3,6C154.3,6,153.6,6,153.6,6z"></path> <path d="M160,11.5c-0.3,0-0.6-0.1-0.8-0.2c-0.2-0.1-0.5-0.3-0.6-0.5s-0.2-0.5-0.2-0.8c0-0.5,0.2-0.9,0.6-1.2 c0.4-0.3,1-0.4,1.8-0.4h0.6V8.2c0-0.2-0.1-0.4-0.2-0.5s-0.3-0.2-0.6-0.2c-0.2,0-0.4,0.1-0.6,0.1c-0.2,0.1-0.3,0.2-0.3,0.5h-1.1 c0-0.3,0.1-0.6,0.3-0.9c0.2-0.2,0.4-0.4,0.7-0.5c0.3-0.1,0.7-0.2,1-0.2c0.5,0,0.9,0.1,1.1,0.2s0.5,0.3,0.6,0.5 c0.1,0.2,0.2,0.5,0.2,0.8v3.3h-1.1l-0.1-0.8c-0.2,0.3-0.3,0.6-0.6,0.7C160.6,11.5,160.4,11.5,160,11.5z M160.5,10.7 c0.1,0,0.2,0,0.3-0.1c0.1-0.1,0.2-0.1,0.3-0.2c0.1-0.1,0.2-0.2,0.2-0.2c0.1-0.1,0.1-0.2,0.1-0.3V9.3h-0.5c-0.2,0-0.5,0.1-0.6,0.1 s-0.3,0.1-0.5,0.2c-0.1,0.1-0.2,0.3-0.2,0.5c0,0.2,0.1,0.4,0.2,0.5C160.1,10.6,160.3,10.7,160.5,10.7z"></path> <path d="M166.7,7.7h-1v2.5c0,0.1,0,0.2,0.1,0.3c0.1,0.1,0.1,0.1,0.1,0.1c0.1,0,0.1,0,0.2,0h0.6v0.8c-0.1,0-0.2,0.1-0.3,0.1 s-0.3,0.1-0.5,0.1c-0.4,0-0.7-0.1-1-0.2c-0.2-0.1-0.4-0.2-0.5-0.5c-0.1-0.2-0.1-0.4-0.1-0.7V7.6h-0.7V6.7h0.8l0.3-1.4h1v1.4h1 L166.7,7.7L166.7,7.7z"></path> <path d="M169.1,11.5c-0.3,0-0.6-0.1-0.8-0.2c-0.2-0.1-0.5-0.3-0.6-0.5s-0.2-0.5-0.2-0.8c0-0.5,0.2-0.9,0.6-1.2 c0.4-0.3,1-0.4,1.8-0.4h0.6V8.2c0-0.2-0.1-0.4-0.2-0.5s-0.3-0.2-0.6-0.2c-0.2,0-0.4,0.1-0.6,0.1c-0.2,0.1-0.3,0.2-0.3,0.5h-1.1 c0-0.3,0.1-0.6,0.3-0.9c0.2-0.2,0.4-0.4,0.7-0.5c0.3-0.1,0.7-0.2,1-0.2c0.5,0,0.9,0.1,1.1,0.2s0.5,0.3,0.6,0.5 c0.1,0.2,0.2,0.5,0.2,0.8v3.3h-1.1l-0.1-0.8c-0.2,0.3-0.3,0.6-0.6,0.7C169.7,11.5,169.4,11.5,169.1,11.5z M169.5,10.7 c0.1,0,0.2,0,0.3-0.1s0.2-0.1,0.3-0.2c0.1-0.1,0.2-0.2,0.2-0.2c0.1-0.1,0.1-0.2,0.1-0.3V9.3H170c-0.2,0-0.5,0.1-0.6,0.1 c-0.2,0-0.3,0.1-0.5,0.2s-0.2,0.3-0.2,0.5c0,0.2,0.1,0.4,0.2,0.5S169.3,10.7,169.5,10.7z"></path> </g> </g> <g> <g class="st4"> <path d="M252.4,56.9c-0.6,0-1.1-0.1-1.6-0.4c-0.5-0.3-0.8-0.7-1-1.1c-0.2-0.5-0.4-1.1-0.4-1.8c0-0.7,0.1-1.3,0.4-1.8 c0.2-0.5,0.6-0.9,1.1-1.2c0.5-0.3,1-0.4,1.6-0.4c0.6,0,1.1,0.1,1.6,0.4c0.5,0.3,0.8,0.7,1,1.2c0.2,0.5,0.4,1.1,0.4,1.8 s-0.1,1.3-0.3,1.8c-0.2,0.5-0.6,0.9-1,1.1C253.6,56.7,253.1,56.9,252.4,56.9z M252.4,55.8c0.3,0,0.6-0.1,0.9-0.2 c0.2-0.2,0.4-0.4,0.6-0.7c0.1-0.3,0.2-0.7,0.2-1.3s-0.1-1-0.2-1.3c-0.1-0.3-0.3-0.6-0.6-0.7c-0.2-0.2-0.5-0.2-0.9-0.2 c-0.3,0-0.6,0.1-0.9,0.2c-0.2,0.2-0.4,0.4-0.6,0.7c-0.1,0.3-0.2,0.8-0.2,1.3s0.1,1,0.2,1.3c0.1,0.3,0.3,0.6,0.6,0.7 C251.8,55.7,252.1,55.8,252.4,55.8z"></path> <path d="M256.4,56.8V52h1.3v1.1c0.1-0.2,0.2-0.5,0.3-0.6c0.1-0.2,0.3-0.3,0.5-0.4c0.2-0.1,0.4-0.2,0.7-0.2c0.1,0,0.1,0,0.1,0 c0.1,0,0.1,0,0.1,0v1.3c0,0-0.1,0-0.1,0s-0.1,0-0.1,0c-0.3,0-0.5,0-0.7,0c-0.2,0.1-0.3,0.1-0.5,0.2c-0.1,0.1-0.2,0.2-0.2,0.3 c-0.1,0.1-0.1,0.3-0.1,0.5v2.6H256.4z"></path> <path d="M262.3,58.4c-0.9,0-1.5-0.1-1.9-0.3c-0.5-0.2-0.6-0.5-0.6-0.9c0-0.2,0.1-0.3,0.1-0.4s0.2-0.2,0.3-0.3 c0.1-0.1,0.2-0.1,0.3-0.2c0.1-0.1,0.2-0.1,0.2-0.1c-0.1,0-0.1-0.1-0.2-0.1c-0.1-0.1-0.2-0.1-0.2-0.2c-0.1-0.1-0.1-0.2-0.1-0.3 c0-0.2,0.1-0.3,0.2-0.5c0.2-0.1,0.4-0.2,0.7-0.3c-0.3-0.2-0.6-0.3-0.7-0.6c-0.1-0.2-0.2-0.5-0.2-0.7c0-0.3,0.1-0.6,0.3-0.8 c0.2-0.2,0.5-0.4,0.8-0.5c0.3-0.1,0.7-0.2,1.1-0.2c0.3,0,0.6,0.1,0.8,0.1c0.2,0.1,0.4,0.2,0.6,0.3c0.1,0,0.2-0.1,0.3-0.1 c0.1-0.1,0.2-0.1,0.4-0.2c0.1-0.1,0.3-0.1,0.4-0.2c0.1-0.1,0.2-0.1,0.3-0.2v1l-0.8,0.1c0.1,0.1,0.1,0.2,0.1,0.3s0,0.2,0,0.2 c0,0.3-0.1,0.5-0.2,0.7c-0.2,0.2-0.4,0.5-0.7,0.6c-0.3,0.2-0.7,0.2-1.2,0.2c-0.1,0-0.1,0-0.2,0s-0.2,0-0.2,0 c-0.2,0-0.3,0.1-0.3,0.1c-0.1,0.1-0.1,0.1-0.1,0.1c0,0.1,0.1,0.1,0.2,0.2c0.2,0.1,0.3,0.1,0.6,0.1c0.1,0,0.2,0,0.4,0 c0.2,0,0.3,0,0.6,0.1c0.6,0.1,1,0.2,1.3,0.4c0.3,0.2,0.4,0.6,0.4,0.9c0,0.5-0.2,0.8-0.6,1.1C263.8,58.2,263.1,58.4,262.3,58.4z M262.5,57.6c0.4,0,0.6-0.1,0.8-0.1c0.2-0.1,0.2-0.2,0.2-0.4s-0.1-0.3-0.2-0.3c-0.1-0.1-0.3-0.1-0.5-0.2l-1.1-0.1 c-0.1,0-0.3,0-0.4,0.1c-0.1,0.1-0.2,0.1-0.2,0.2c-0.1,0.1-0.1,0.2-0.1,0.3c0,0.2,0.1,0.3,0.3,0.5 C261.7,57.6,262.1,57.6,262.5,57.6z M262.3,54.3c0.2,0,0.5-0.1,0.6-0.2c0.2-0.1,0.2-0.3,0.2-0.6s-0.1-0.5-0.2-0.6 c-0.2-0.2-0.3-0.2-0.6-0.2c-0.2,0-0.5,0.1-0.6,0.2c-0.2,0.2-0.2,0.3-0.2,0.6s0.1,0.4,0.2,0.6C261.8,54.2,262,54.3,262.3,54.3z"></path> <path d="M267.2,56.9c-0.3,0-0.6-0.1-0.8-0.2c-0.2-0.1-0.5-0.3-0.6-0.5c-0.1-0.2-0.2-0.5-0.2-0.8c0-0.5,0.2-0.9,0.6-1.2 c0.4-0.3,1-0.4,1.8-0.4h0.6v-0.3c0-0.2-0.1-0.4-0.2-0.5c-0.1-0.1-0.3-0.2-0.6-0.2c-0.2,0-0.4,0.1-0.6,0.1 c-0.2,0.1-0.3,0.2-0.3,0.5h-1.1c0-0.3,0.1-0.6,0.3-0.9c0.2-0.2,0.4-0.4,0.7-0.5c0.3-0.1,0.7-0.2,1-0.2c0.5,0,0.9,0.1,1.1,0.2 c0.3,0.1,0.5,0.3,0.6,0.5c0.1,0.2,0.2,0.5,0.2,0.8v3.3h-1.1l-0.1-0.8c-0.2,0.3-0.3,0.6-0.6,0.7C267.9,56.8,267.6,56.9,267.2,56.9z M267.7,56c0.1,0,0.2,0,0.3-0.1c0.1-0.1,0.2-0.1,0.3-0.2c0.1-0.1,0.2-0.2,0.2-0.2c0.1-0.1,0.1-0.2,0.1-0.3v-0.7h-0.5 c-0.2,0-0.5,0.1-0.6,0.1s-0.3,0.1-0.5,0.2c-0.1,0.1-0.2,0.3-0.2,0.5c0,0.2,0.1,0.4,0.2,0.5C267.3,55.9,267.5,56,267.7,56z"></path> <path d="M271.1,56.8V52h1.3v0.7c0.1-0.1,0.2-0.2,0.3-0.3c0.1-0.1,0.3-0.2,0.5-0.3c0.2-0.1,0.4-0.1,0.6-0.1c0.3,0,0.6,0.1,0.8,0.2 c0.2,0.1,0.5,0.3,0.6,0.5c0.2,0.2,0.2,0.6,0.2,1v3.1h-1.3v-3c0-0.2-0.1-0.5-0.2-0.6c-0.2-0.1-0.3-0.2-0.6-0.2 c-0.2,0-0.3,0-0.4,0.1c-0.1,0.1-0.2,0.1-0.3,0.2c-0.1,0.1-0.1,0.2-0.1,0.4v3H271.1z"></path> <path d="M277.8,50.2v1.2h-1.3v-1.2H277.8z M277.8,52.1v4.7h-1.3v-4.7H277.8z"></path> <path d="M278.7,56.8V56l2.3-3h-2.2v-0.9h3.8v0.7l-2.3,3h2.3v0.9H278.7z"></path> <path d="M284.6,54.7c0,0.2,0.1,0.5,0.1,0.6c0.1,0.2,0.2,0.3,0.3,0.4c0.2,0.1,0.3,0.2,0.6,0.2c0.2,0,0.5-0.1,0.6-0.2 c0.2-0.1,0.3-0.3,0.3-0.5h1.2c-0.1,0.3-0.2,0.6-0.4,0.9s-0.5,0.4-0.8,0.6c-0.3,0.2-0.6,0.2-1,0.2c-0.5,0-0.9-0.1-1.3-0.3 c-0.3-0.2-0.6-0.5-0.9-0.9c-0.2-0.3-0.3-0.8-0.3-1.3c0-0.5,0.1-0.9,0.3-1.3c0.2-0.4,0.5-0.7,0.8-0.9s0.7-0.3,1.3-0.3 c0.5,0,0.9,0.1,1.2,0.3c0.3,0.2,0.6,0.5,0.7,0.9c0.2,0.4,0.2,0.8,0.2,1.3v0.3H284.6z M284.6,53.9h1.9c0-0.2-0.1-0.3-0.1-0.5 c-0.1-0.2-0.2-0.3-0.3-0.4c-0.1-0.1-0.3-0.1-0.5-0.1c-0.2,0-0.4,0.1-0.5,0.2c-0.2,0.1-0.2,0.2-0.3,0.4 C284.6,53.6,284.6,53.8,284.6,53.9z"></path> <path d="M290.8,50.2c0.1,0,0.1,0,0.3,0c0.2,0,0.3,0,0.6,0c0.2,0,0.4,0,0.6,0c0.2,0,0.4,0,0.5,0c0.8,0,1.4,0.2,1.9,0.5 c0.5,0.3,0.9,0.6,1.1,1.1c0.2,0.5,0.3,1,0.3,1.7s-0.1,1.3-0.4,1.8c-0.2,0.5-0.6,0.9-1.1,1.1c-0.5,0.3-1.1,0.4-1.9,0.4h-1.9 L290.8,50.2L290.8,50.2z M292.1,51.2v4.4h0.6c0.4,0,0.7-0.1,1-0.2c0.3-0.2,0.6-0.4,0.7-0.7c0.2-0.3,0.3-0.8,0.3-1.3 s-0.1-0.9-0.2-1.3c-0.2-0.3-0.4-0.6-0.7-0.7c-0.3-0.2-0.7-0.2-1.1-0.2H292.1z"></path> <path d="M298.5,56.9c-0.3,0-0.6-0.1-0.8-0.2c-0.2-0.1-0.5-0.3-0.6-0.5c-0.1-0.2-0.2-0.5-0.2-0.8c0-0.5,0.2-0.9,0.6-1.2 s1-0.4,1.8-0.4h0.6v-0.3c0-0.2-0.1-0.4-0.2-0.5c-0.1-0.1-0.3-0.2-0.6-0.2c-0.2,0-0.4,0.1-0.6,0.1c-0.2,0.1-0.3,0.2-0.3,0.5h-1.1 c0-0.3,0.1-0.6,0.3-0.9c0.2-0.2,0.4-0.4,0.7-0.5c0.3-0.1,0.7-0.2,1-0.2c0.5,0,0.9,0.1,1.1,0.2c0.3,0.1,0.5,0.3,0.6,0.5 c0.1,0.2,0.2,0.5,0.2,0.8v3.3H300l-0.1-0.8c-0.2,0.3-0.3,0.6-0.6,0.7C299.2,56.8,298.9,56.9,298.5,56.9z M299,56 c0.1,0,0.2,0,0.3-0.1c0.1-0.1,0.2-0.1,0.3-0.2s0.2-0.2,0.2-0.2c0.1-0.1,0.1-0.2,0.1-0.3v-0.7h-0.5c-0.2,0-0.5,0.1-0.6,0.1 c-0.2,0-0.3,0.1-0.5,0.2c-0.1,0.1-0.2,0.3-0.2,0.5c0,0.2,0.1,0.4,0.2,0.5C298.6,55.9,298.8,56,299,56z"></path> <path d="M305.2,53h-1v2.5c0,0.1,0,0.2,0.1,0.3c0.1,0.1,0.1,0.1,0.1,0.1s0.1,0,0.2,0h0.6v0.8c-0.1,0-0.2,0.1-0.3,0.1 c-0.1,0-0.3,0.1-0.5,0.1c-0.4,0-0.7-0.1-1-0.2c-0.2-0.1-0.4-0.2-0.5-0.5c-0.1-0.2-0.1-0.4-0.1-0.7V53h-0.7V52h0.8l0.3-1.4h1V52h1 L305.2,53L305.2,53z"></path> <path d="M307.6,56.9c-0.3,0-0.6-0.1-0.8-0.2c-0.2-0.1-0.5-0.3-0.6-0.5s-0.2-0.5-0.2-0.8c0-0.5,0.2-0.9,0.6-1.2s1-0.4,1.8-0.4h0.6 v-0.3c0-0.2-0.1-0.4-0.2-0.5c-0.1-0.1-0.3-0.2-0.6-0.2c-0.2,0-0.4,0.1-0.6,0.1c-0.2,0.1-0.3,0.2-0.3,0.5h-1.1 c0-0.3,0.1-0.6,0.3-0.9s0.4-0.4,0.7-0.5c0.3-0.1,0.7-0.2,1-0.2c0.5,0,0.9,0.1,1.1,0.2c0.3,0.1,0.5,0.3,0.6,0.5 c0.1,0.2,0.2,0.5,0.2,0.8v3.3h-1.1l-0.1-0.8c-0.2,0.3-0.3,0.6-0.6,0.7C308.2,56.8,307.9,56.9,307.6,56.9z M308,56 c0.1,0,0.2,0,0.3-0.1c0.1-0.1,0.2-0.1,0.3-0.2s0.2-0.2,0.2-0.2c0.1-0.1,0.1-0.2,0.1-0.3v-0.7h-0.5c-0.2,0-0.5,0.1-0.6,0.1 c-0.2,0-0.3,0.1-0.5,0.2c-0.1,0.1-0.2,0.3-0.2,0.5c0,0.2,0.1,0.4,0.2,0.5C307.6,55.9,307.9,56,308,56z"></path> </g> </g> </svg> 