<?xml version="1.0" encoding="UTF-8"?> <svg xmlns="http://www.w3.org/2000/svg" xmlns:xlink="http://www.w3.org/1999/xlink" width="29pt" height="29pt" viewBox="0 0 29 29" version="1.1"><g id="surface1"><path style=" stroke:none;fill-rule:nonzero;fill:rgb(99.607843%,85.098039%,29.411765%);fill-opacity:1;" d="M 2.601562 4.414062 C 2.304688 4.414062 2.007812 4.710938 2.007812 5.085938 L 2.007812 22.1875 L 0.667969 22.1875 C 0.667969 22.1875 0.59375 22.1875 0.59375 22.1875 C 0.222656 22.1875 -0.0742188 22.558594 0 22.855469 C 0.0742188 23.152344 0.371094 23.527344 0.667969 23.453125 L 28.332031 23.453125 C 28.703125 23.453125 29 23.152344 29 22.78125 C 29 22.410156 28.703125 22.113281 28.332031 22.113281 L 27.363281 22.113281 L 27.363281 12.890625 C 27.363281 12.519531 27.066406 12.222656 26.695312 12.222656 L 23.71875 12.222656 C 23.71875 12.222656 23.644531 12.222656 23.644531 12.222656 C 23.347656 12.222656 23.050781 12.519531 23.050781 12.890625 L 23.050781 22.113281 L 22.085938 22.113281 L 22.085938 14.898438 C 22.085938 14.527344 21.789062 14.230469 21.414062 14.230469 L 18.441406 14.230469 C 18.441406 14.230469 18.367188 14.230469 18.367188 14.230469 C 18.070312 14.230469 17.773438 14.527344 17.773438 14.898438 L 17.773438 22.113281 L 16.804688 22.113281 L 16.804688 10.957031 C 16.804688 10.585938 16.507812 10.289062 16.136719 10.289062 L 13.160156 10.289062 C 13.160156 10.289062 13.085938 10.289062 13.085938 10.289062 C 12.789062 10.289062 12.492188 10.585938 12.492188 10.957031 L 12.492188 22.113281 L 11.527344 22.113281 L 11.527344 14.898438 C 11.527344 14.527344 11.226562 14.230469 10.855469 14.230469 L 7.882812 14.230469 C 7.882812 14.230469 7.808594 14.230469 7.808594 14.230469 C 7.511719 14.230469 7.210938 14.527344 7.210938 14.898438 L 7.210938 22.113281 L 6.320312 22.113281 L 6.320312 5.011719 C 6.320312 4.636719 6.023438 4.339844 5.652344 4.339844 L 2.601562 4.339844 C 2.675781 4.414062 2.601562 4.414062 2.601562 4.414062 Z M 21.789062 4.414062 C 19.554688 4.414062 17.546875 5.53125 16.285156 7.316406 C 16.136719 7.539062 16.136719 7.835938 16.285156 8.058594 C 17.546875 9.84375 19.480469 10.957031 21.789062 10.957031 C 24.09375 10.957031 26.027344 9.769531 27.289062 8.058594 C 27.4375 7.835938 27.4375 7.539062 27.289062 7.316406 C 26.027344 5.605469 24.019531 4.414062 21.789062 4.414062 Z M 3.347656 5.753906 L 4.980469 5.753906 L 4.980469 22.1875 L 3.347656 22.1875 Z M 21.789062 5.753906 C 23.421875 5.753906 24.835938 6.496094 25.875 7.761719 C 24.835938 8.953125 23.421875 9.769531 21.789062 9.769531 C 20.152344 9.769531 18.738281 9.027344 17.699219 7.761719 C 18.664062 6.496094 20.152344 5.753906 21.789062 5.753906 Z M 21.789062 6.421875 C 21.042969 6.421875 20.449219 7.019531 20.449219 7.761719 C 20.449219 8.503906 21.042969 9.101562 21.789062 9.101562 C 22.53125 9.101562 23.125 8.503906 23.125 7.761719 C 23.125 7.019531 22.457031 6.421875 21.789062 6.421875 Z M 13.832031 11.703125 L 15.464844 11.703125 L 15.464844 22.261719 L 13.832031 22.261719 Z M 24.390625 13.636719 L 26.027344 13.636719 L 26.027344 22.1875 L 24.390625 22.1875 Z M 8.550781 15.644531 L 10.1875 15.644531 L 10.1875 22.261719 L 8.550781 22.261719 Z M 19.109375 15.644531 L 20.746094 15.644531 L 20.746094 22.261719 L 19.109375 22.261719 Z M 19.109375 15.644531 "></path></g></svg> 