<?xml version="1.0" encoding="UTF-8"?> <svg xmlns="http://www.w3.org/2000/svg" xmlns:xlink="http://www.w3.org/1999/xlink" width="29pt" height="29pt" viewBox="0 0 29 29" version="1.1"><g id="surface1"><path style=" stroke:none;fill-rule:nonzero;fill:rgb(25.098039%,76.862745%,100%);fill-opacity:1;" d="M 7.289062 1.414062 C 2.75 4.238281 1.339844 10.1875 4.089844 14.722656 C 4.089844 17.546875 5.28125 20.152344 7.4375 22.011719 L 7.4375 26.175781 C 7.4375 26.472656 7.585938 26.695312 7.882812 26.769531 L 17.25 28.925781 L 17.398438 28.925781 C 17.625 28.925781 17.847656 28.777344 17.921875 28.628906 L 18.515625 27.4375 L 20.449219 27.4375 C 21.5625 27.4375 22.457031 26.546875 22.457031 25.429688 L 22.457031 24.539062 L 23.050781 23.570312 C 23.199219 23.347656 23.125 22.976562 22.902344 22.828125 L 22.53125 22.53125 L 22.902344 22.234375 C 23.050781 22.085938 23.125 21.9375 23.125 21.789062 L 23.050781 20.300781 L 25.207031 20.300781 C 25.28125 20.300781 25.355469 20.300781 25.429688 20.226562 C 25.726562 20.078125 25.875 19.78125 25.726562 19.480469 L 23.570312 14.574219 C 23.570312 12.789062 23.050781 11.078125 22.085938 9.59375 C 22.011719 4.3125 17.699219 0 12.34375 0 C 10.558594 0 8.773438 0.519531 7.289062 1.414062 Z M 5.503906 16.507812 C 6.839844 17.847656 8.550781 18.8125 10.410156 19.183594 C 15.617188 20.300781 20.746094 17.027344 21.863281 11.75 C 22.234375 12.714844 22.382812 13.683594 22.382812 14.722656 C 22.382812 14.796875 22.382812 14.871094 22.457031 14.945312 L 24.316406 19.109375 L 22.457031 19.109375 C 22.308594 19.109375 22.160156 19.183594 22.011719 19.257812 C 21.9375 19.40625 21.863281 19.554688 21.863281 19.707031 L 21.9375 21.414062 L 21.265625 22.011719 C 21.117188 22.085938 21.042969 22.308594 21.042969 22.457031 C 21.042969 22.605469 21.117188 22.828125 21.265625 22.902344 L 21.789062 23.347656 L 21.339844 24.019531 C 21.265625 24.09375 21.265625 24.242188 21.265625 24.316406 L 21.265625 25.355469 C 21.265625 25.800781 20.894531 26.175781 20.449219 26.175781 L 18.144531 26.175781 C 17.921875 26.175781 17.699219 26.324219 17.625 26.472656 L 17.101562 27.660156 L 8.625 25.726562 L 8.625 21.710938 C 8.625 21.5625 8.550781 21.339844 8.402344 21.265625 C 6.914062 20.078125 5.875 18.367188 5.503906 16.507812 Z M 3.867188 10.261719 L 5.054688 10.261719 L 5.054688 9.070312 L 3.867188 9.070312 C 4.015625 7.210938 4.757812 5.503906 5.949219 4.089844 L 6.839844 4.90625 L 7.660156 4.089844 L 6.839844 3.273438 C 8.253906 2.082031 9.964844 1.339844 11.824219 1.191406 L 11.824219 2.378906 L 13.011719 2.378906 L 13.011719 1.191406 C 14.871094 1.339844 16.65625 2.007812 17.996094 3.273438 L 17.101562 4.089844 L 17.921875 4.90625 L 18.8125 4.089844 C 20.003906 5.503906 20.746094 7.210938 20.894531 9.070312 L 19.707031 9.070312 L 19.707031 10.261719 L 20.894531 10.261719 C 20.746094 12.121094 20.078125 13.90625 18.8125 15.242188 L 17.996094 14.351562 L 17.175781 15.167969 L 17.996094 15.988281 C 16.582031 17.25 14.796875 17.921875 12.9375 18.070312 L 12.9375 16.878906 L 11.75 16.878906 L 11.75 18.070312 C 9.890625 17.921875 8.105469 17.25 6.765625 15.988281 L 7.585938 15.167969 L 6.765625 14.351562 L 5.949219 15.242188 C 4.757812 13.90625 4.015625 12.121094 3.867188 10.261719 Z M 3.867188 10.261719 "></path><path style=" stroke:none;fill-rule:nonzero;fill:rgb(25.098039%,76.862745%,100%);fill-opacity:1;" d="M 6.320312 9.667969 C 6.320312 13.011719 9.070312 15.765625 12.417969 15.765625 C 15.765625 15.765625 18.515625 13.011719 18.515625 9.667969 C 18.515625 6.320312 15.765625 3.570312 12.417969 3.570312 C 8.996094 3.570312 6.320312 6.320312 6.320312 9.667969 Z M 7.4375 9.667969 C 7.4375 6.914062 9.667969 4.757812 12.34375 4.757812 C 15.019531 4.757812 17.25 6.988281 17.25 9.667969 C 17.25 12.34375 15.019531 14.574219 12.34375 14.574219 C 9.667969 14.574219 7.4375 12.417969 7.4375 9.667969 Z M 7.4375 9.667969 "></path><path style=" stroke:none;fill-rule:nonzero;fill:rgb(25.098039%,76.862745%,100%);fill-opacity:1;" d="M 10.484375 10.1875 C 10.410156 10.410156 10.410156 10.558594 10.410156 10.78125 C 10.410156 11.226562 10.558594 11.75 10.929688 12.046875 C 11.226562 12.417969 11.75 12.640625 12.195312 12.640625 L 12.195312 13.382812 L 12.640625 13.382812 L 12.640625 12.640625 C 12.9375 12.640625 13.234375 12.492188 13.535156 12.417969 C 13.757812 12.269531 13.980469 12.046875 14.128906 11.824219 C 14.277344 11.527344 14.425781 11.152344 14.425781 10.855469 L 13.683594 10.707031 C 13.683594 11.003906 13.535156 11.375 13.382812 11.601562 C 13.234375 11.824219 12.9375 12.046875 12.640625 12.046875 L 12.640625 9.667969 C 12.9375 9.59375 13.308594 9.445312 13.609375 9.292969 C 13.832031 9.144531 14.054688 8.996094 14.128906 8.773438 C 14.277344 8.550781 14.351562 8.253906 14.351562 7.957031 C 14.351562 7.4375 14.128906 6.988281 13.757812 6.691406 C 13.457031 6.46875 13.011719 6.320312 12.640625 6.320312 L 12.640625 5.949219 L 12.195312 5.949219 L 12.195312 6.320312 C 11.824219 6.320312 11.453125 6.46875 11.152344 6.691406 C 10.855469 6.988281 10.632812 7.363281 10.558594 7.808594 L 11.300781 7.957031 C 11.300781 7.734375 11.453125 7.4375 11.601562 7.289062 C 11.75 7.136719 11.972656 6.988281 12.195312 6.988281 L 12.195312 9.144531 C 11.972656 9.21875 11.675781 9.292969 11.453125 9.371094 C 11.226562 9.445312 11.003906 9.59375 10.855469 9.742188 C 10.632812 9.816406 10.558594 9.964844 10.484375 10.1875 Z M 12.566406 6.914062 C 12.863281 6.914062 13.085938 7.0625 13.234375 7.289062 C 13.382812 7.511719 13.457031 7.734375 13.457031 7.957031 C 13.457031 8.179688 13.382812 8.402344 13.234375 8.625 C 13.011719 8.847656 12.789062 8.996094 12.492188 9.070312 Z M 11.453125 11.675781 C 11.226562 11.453125 11.152344 11.152344 11.152344 10.855469 C 11.152344 10.632812 11.226562 10.410156 11.375 10.1875 C 11.601562 9.964844 11.898438 9.816406 12.195312 9.742188 L 12.195312 12.046875 C 11.824219 12.046875 11.601562 11.898438 11.453125 11.675781 Z M 11.453125 11.675781 "></path><path style=" stroke:none;fill-rule:nonzero;fill:rgb(25.098039%,76.862745%,100%);fill-opacity:1;" d="M 14.648438 24.09375 L 11.152344 23.347656 C 10.855469 23.273438 10.558594 23.496094 10.484375 23.792969 C 10.410156 24.09375 10.632812 24.390625 10.929688 24.464844 L 14.425781 25.28125 L 14.574219 25.28125 C 14.871094 25.28125 15.09375 25.132812 15.167969 24.835938 C 15.167969 24.464844 14.945312 24.167969 14.648438 24.09375 Z M 14.648438 24.09375 "></path></g></svg> 