<?xml version="1.0" encoding="UTF-8"?> <svg xmlns="http://www.w3.org/2000/svg" xmlns:xlink="http://www.w3.org/1999/xlink" width="29pt" height="29pt" viewBox="0 0 29 29" version="1.1"><g id="surface1"><path style=" stroke:none;fill-rule:nonzero;fill:rgb(100%,25.098039%,50.588235%);fill-opacity:1;" d="M 14.945312 7.0625 C 14.945312 6.988281 14.945312 6.988281 14.945312 6.914062 C 14.945312 6.542969 15.242188 6.171875 15.691406 6.171875 C 16.0625 6.171875 16.433594 6.46875 16.433594 6.914062 L 19.480469 9.742188 L 19.554688 9.742188 L 21.042969 8.105469 L 19.78125 8.105469 C 19.480469 8.105469 19.332031 7.882812 19.332031 7.660156 C 19.332031 7.511719 19.40625 7.363281 19.554688 7.289062 C 19.628906 7.210938 19.707031 7.210938 19.855469 7.210938 L 22.234375 7.210938 C 22.53125 7.210938 22.679688 7.4375 22.679688 7.660156 L 22.679688 10.039062 C 22.679688 10.261719 22.53125 10.410156 22.382812 10.484375 C 22.308594 10.484375 22.308594 10.484375 22.234375 10.484375 C 21.9375 10.484375 21.789062 10.261719 21.789062 10.039062 L 21.789062 8.847656 L 20.300781 10.410156 C 20.300781 10.410156 20.300781 10.484375 20.300781 10.484375 C 20.300781 10.855469 20.003906 11.226562 19.554688 11.226562 C 19.109375 11.226562 18.8125 10.929688 18.8125 10.484375 L 15.765625 7.660156 L 12.566406 11.675781 C 12.566406 11.675781 12.566406 11.75 12.566406 11.75 C 12.566406 12.121094 12.269531 12.492188 11.824219 12.492188 C 11.75 12.492188 11.675781 12.492188 11.601562 12.492188 L 8.625 13.90625 C 8.550781 14.277344 8.105469 14.5 7.734375 14.351562 C 7.363281 14.277344 7.136719 13.832031 7.289062 13.457031 C 7.363281 13.160156 7.660156 12.9375 7.957031 12.9375 C 8.03125 12.9375 8.105469 12.9375 8.253906 13.011719 L 11.078125 11.675781 C 11.152344 11.375 11.453125 11.078125 11.75 11.078125 Z M 29.074219 12.34375 L 29.074219 16.65625 C 29.074219 16.953125 28.851562 17.101562 28.628906 17.101562 L 26.546875 17.101562 C 26.25 18.515625 25.652344 19.855469 24.910156 21.117188 L 26.398438 22.605469 C 26.472656 22.679688 26.546875 22.828125 26.546875 22.976562 C 26.546875 23.125 26.472656 23.199219 26.398438 23.347656 L 23.347656 26.398438 C 23.199219 26.546875 22.902344 26.621094 22.679688 26.398438 L 21.191406 24.910156 C 20.003906 25.726562 18.589844 26.25 17.175781 26.546875 L 17.175781 28.628906 C 17.175781 28.925781 16.953125 29.074219 16.730469 29.074219 L 12.417969 29.074219 C 12.121094 29.074219 11.972656 28.851562 11.972656 28.628906 L 11.972656 26.546875 C 10.558594 26.25 9.21875 25.652344 7.957031 24.910156 L 6.46875 26.398438 C 6.320312 26.546875 6.023438 26.621094 5.800781 26.398438 L 2.75 23.347656 C 2.601562 23.199219 2.527344 22.902344 2.75 22.679688 L 4.238281 21.191406 C 3.421875 20.003906 2.898438 18.589844 2.601562 17.175781 L 0.519531 17.175781 C 0.222656 17.175781 0.0742188 16.953125 0.0742188 16.730469 L 0.0742188 12.417969 C 0.0742188 12.121094 0.296875 11.972656 0.519531 11.972656 L 2.601562 11.972656 C 2.898438 10.558594 3.496094 9.21875 4.238281 7.957031 L 2.75 6.46875 C 2.675781 6.320312 2.601562 6.246094 2.601562 6.097656 C 2.601562 5.949219 2.675781 5.875 2.75 5.726562 L 5.800781 2.675781 C 5.949219 2.527344 6.246094 2.453125 6.46875 2.675781 L 7.957031 4.164062 C 9.144531 3.347656 10.558594 2.824219 11.972656 2.527344 L 11.972656 0.445312 C 11.898438 0.222656 12.121094 0 12.417969 0 L 16.730469 0 C 17.027344 0 17.175781 0.222656 17.175781 0.445312 L 17.175781 2.527344 C 18.589844 2.824219 19.929688 3.421875 21.117188 4.164062 L 22.605469 2.675781 C 22.753906 2.527344 23.050781 2.453125 23.273438 2.675781 L 26.324219 5.726562 C 26.472656 5.875 26.546875 6.171875 26.324219 6.394531 L 24.835938 7.882812 C 25.652344 9.070312 26.175781 10.484375 26.472656 11.898438 L 28.554688 11.898438 C 28.851562 11.898438 29.074219 12.046875 29.074219 12.34375 Z M 28.109375 12.789062 L 26.175781 12.789062 C 25.953125 12.789062 25.726562 12.640625 25.726562 12.417969 C 25.429688 10.855469 24.835938 9.371094 23.945312 8.105469 C 23.792969 7.882812 23.871094 7.660156 24.019531 7.511719 L 25.28125 6.097656 L 22.976562 3.71875 L 21.5625 5.128906 C 21.414062 5.28125 21.117188 5.28125 20.96875 5.207031 C 19.628906 4.3125 18.21875 3.71875 16.65625 3.421875 C 16.433594 3.347656 16.285156 3.199219 16.285156 2.972656 L 16.285156 0.890625 L 12.9375 0.890625 L 12.9375 2.824219 C 12.9375 3.046875 12.789062 3.273438 12.566406 3.273438 C 11.003906 3.570312 9.519531 4.164062 8.253906 5.054688 C 8.03125 5.207031 7.808594 5.128906 7.660156 4.980469 L 6.097656 3.71875 L 3.792969 6.023438 L 5.128906 7.4375 C 5.28125 7.585938 5.28125 7.882812 5.207031 8.03125 C 4.3125 9.371094 3.71875 10.78125 3.421875 12.34375 C 3.347656 12.566406 3.199219 12.714844 2.972656 12.714844 L 0.964844 12.714844 L 0.964844 16.0625 L 2.972656 16.0625 C 3.199219 16.0625 3.421875 16.210938 3.421875 16.433594 C 3.71875 18.070312 4.3125 19.554688 5.207031 20.894531 C 5.355469 21.117188 5.28125 21.339844 5.128906 21.488281 L 3.71875 22.902344 L 6.097656 25.28125 L 7.511719 23.871094 C 7.660156 23.71875 7.957031 23.71875 8.105469 23.792969 C 9.445312 24.6875 10.855469 25.28125 12.417969 25.578125 C 12.640625 25.652344 12.789062 25.800781 12.789062 26.027344 L 12.789062 27.957031 L 16.136719 27.957031 L 16.136719 26.027344 C 16.136719 25.800781 16.285156 25.578125 16.507812 25.578125 C 18.070312 25.28125 19.554688 24.6875 20.820312 23.792969 C 21.042969 23.644531 21.265625 23.71875 21.414062 23.871094 L 22.828125 25.28125 L 25.207031 22.902344 L 23.792969 21.488281 C 23.644531 21.339844 23.644531 21.042969 23.71875 20.894531 C 24.613281 19.554688 25.207031 18.144531 25.503906 16.582031 C 25.578125 16.359375 25.726562 16.210938 25.953125 16.210938 L 27.882812 16.210938 Z M 17.546875 7.289062 C 17.847656 7.4375 18.144531 7.585938 18.367188 7.734375 C 18.515625 7.4375 18.738281 7.210938 18.960938 6.988281 L 18.8125 6.914062 C 18.367188 6.691406 17.921875 6.46875 17.472656 6.246094 C 17.625 6.617188 17.625 6.988281 17.546875 7.289062 Z M 22.976562 12.195312 C 23.570312 14.425781 23.273438 16.804688 22.085938 18.8125 C 21.789062 19.332031 21.414062 19.78125 21.042969 20.226562 C 20.746094 20.523438 20.449219 20.894531 20.078125 21.117188 C 19.707031 21.414062 19.257812 21.710938 18.8125 22.011719 L 18.738281 22.011719 C 18.441406 22.160156 18.144531 22.308594 17.773438 22.457031 C 17.546875 22.53125 17.324219 22.605469 17.175781 22.679688 C 17.027344 22.753906 16.878906 22.753906 16.730469 22.828125 C 15.988281 23.050781 15.242188 23.125 14.5 23.125 C 14.425781 23.125 14.351562 23.125 14.277344 23.125 C 13.980469 23.125 13.609375 23.125 13.308594 23.050781 C 12.9375 22.976562 12.566406 22.902344 12.269531 22.828125 C 11.601562 22.605469 10.929688 22.382812 10.261719 22.011719 L 10.1875 21.9375 C 9.964844 21.863281 9.816406 21.710938 9.667969 21.5625 C 9.371094 21.339844 8.996094 21.117188 8.699219 20.820312 C 8.179688 20.375 7.808594 19.929688 7.4375 19.332031 C 7.289062 19.109375 7.136719 18.886719 7.0625 18.664062 C 6.839844 18.292969 6.691406 17.996094 6.542969 17.625 C 6.394531 17.324219 6.320312 16.953125 6.171875 16.65625 C 4.90625 12.046875 7.660156 7.210938 12.269531 5.949219 C 12.863281 5.800781 13.457031 5.726562 14.054688 5.652344 C 13.832031 5.949219 13.757812 6.246094 13.757812 6.617188 C 12.640625 6.691406 11.601562 7.0625 10.707031 7.585938 C 9.519531 8.253906 8.550781 9.292969 7.808594 10.484375 C 7.4375 11.078125 7.210938 11.675781 7.0625 12.34375 C 6.914062 13.011719 6.765625 13.683594 6.765625 14.351562 C 6.765625 14.796875 6.839844 15.316406 6.914062 15.765625 L 9.21875 15.765625 C 9.519531 15.765625 9.667969 15.988281 9.667969 16.210938 L 9.667969 20.375 C 9.890625 20.523438 10.113281 20.671875 10.261719 20.820312 L 10.261719 14.128906 C 10.261719 13.832031 10.484375 13.683594 10.707031 13.683594 L 12.9375 13.683594 C 13.234375 13.683594 13.382812 13.90625 13.382812 14.128906 L 13.382812 22.011719 C 13.609375 22.011719 13.832031 22.085938 13.980469 22.085938 L 13.980469 10.558594 C 13.980469 10.261719 14.203125 10.113281 14.425781 10.113281 L 16.65625 10.113281 C 16.953125 10.113281 17.101562 10.335938 17.101562 10.558594 L 17.101562 21.789062 C 17.324219 21.710938 17.546875 21.636719 17.699219 21.5625 L 17.699219 12.417969 C 17.699219 12.121094 17.921875 11.972656 18.144531 11.972656 L 20.375 11.972656 C 20.671875 11.972656 20.820312 12.195312 20.820312 12.417969 L 20.820312 18.738281 C 20.894531 18.589844 20.96875 18.515625 21.042969 18.367188 C 21.414062 17.773438 21.636719 17.175781 21.789062 16.507812 C 21.9375 15.839844 22.085938 15.167969 22.085938 14.425781 C 22.085938 13.757812 22.011719 13.085938 21.789062 12.417969 C 21.710938 12.121094 21.5625 11.824219 21.488281 11.527344 C 21.789062 11.375 22.085938 11.226562 22.308594 11.003906 C 22.753906 11.375 22.828125 11.824219 22.976562 12.195312 Z M 8.699219 19.628906 L 8.699219 16.878906 L 7.4375 16.878906 L 7.4375 17.625 C 7.585938 17.921875 7.660156 18.144531 7.808594 18.441406 C 8.03125 18.8125 8.328125 19.257812 8.699219 19.628906 Z M 12.492188 22.011719 L 12.492188 14.796875 L 11.226562 14.796875 L 11.226562 21.5625 C 11.601562 21.710938 12.046875 21.863281 12.492188 22.011719 Z M 16.359375 22.085938 L 16.359375 11.003906 L 15.019531 11.003906 L 15.019531 22.234375 C 15.464844 22.234375 15.914062 22.160156 16.359375 22.085938 Z M 20.152344 19.929688 L 20.152344 12.9375 L 18.886719 12.9375 L 18.886719 21.042969 C 19.332031 20.671875 19.78125 20.300781 20.152344 19.929688 Z M 20.152344 19.929688 "></path></g></svg> 