<?xml version="1.0" encoding="UTF-8"?> <svg xmlns="http://www.w3.org/2000/svg" xmlns:xlink="http://www.w3.org/1999/xlink" width="29pt" height="29pt" viewBox="0 0 29 29" version="1.1"><g id="surface1"><path style=" stroke:none;fill-rule:nonzero;fill:rgb(93.72549%,26.27451%,20.784314%);fill-opacity:1;" d="M 28.851562 25.800781 L 24.390625 22.605469 L 24.390625 23.945312 L 18.144531 23.945312 C 21.042969 22.53125 22.976562 19.554688 22.976562 16.136719 C 22.976562 14.648438 22.605469 13.234375 21.9375 11.972656 C 22.160156 11.972656 22.308594 11.972656 22.53125 11.972656 C 25.800781 11.972656 28.480469 9.292969 28.480469 6.023438 C 28.480469 2.75 25.800781 0.0742188 22.53125 0.0742188 C 19.40625 0.0742188 16.804688 2.527344 16.582031 5.578125 L 10.113281 5.578125 C 9.59375 5.578125 9.21875 6.023438 9.21875 6.46875 L 9.21875 8.996094 C 8.402344 9.59375 7.734375 10.261719 7.136719 11.078125 L 5.054688 11.078125 C 2.75 11.078125 0.890625 9.21875 0.890625 6.914062 C 0.890625 4.609375 2.75 2.75 5.054688 2.75 L 12.195312 2.75 L 11.152344 3.941406 L 11.824219 4.609375 L 13.980469 2.453125 L 11.824219 0.296875 L 11.152344 0.890625 L 12.195312 1.933594 L 5.054688 1.933594 C 2.304688 1.933594 0 4.238281 0 6.988281 C 0 9.742188 2.230469 12.046875 5.054688 12.046875 L 6.542969 12.046875 C 5.875 13.308594 5.503906 14.722656 5.503906 16.210938 C 5.503906 17.921875 6.023438 19.554688 6.914062 20.96875 L 5.503906 22.382812 L 10.261719 23.71875 L 8.921875 18.960938 L 7.585938 20.300781 C 6.839844 19.035156 6.394531 17.625 6.394531 16.136719 C 6.394531 13.832031 7.4375 11.675781 9.144531 10.1875 L 9.144531 18.441406 C 9.144531 18.960938 9.59375 19.332031 10.039062 19.332031 L 18.292969 19.332031 C 18.8125 19.332031 19.183594 18.886719 19.183594 18.441406 L 19.183594 11.078125 C 19.628906 11.375 20.078125 11.601562 20.523438 11.75 C 21.414062 13.085938 21.9375 14.574219 21.9375 16.136719 C 21.9375 20.449219 18.441406 23.945312 14.128906 23.945312 L 0 23.945312 L 0 27.585938 L 24.316406 27.585938 L 24.316406 29 Z M 8.550781 20.746094 L 8.996094 22.382812 L 7.363281 21.9375 Z M 17.472656 5.578125 C 17.546875 4.535156 17.996094 3.570312 18.589844 2.824219 L 19.40625 3.644531 L 20.078125 2.972656 L 19.332031 2.15625 C 20.078125 1.488281 21.042969 1.117188 22.085938 1.042969 L 22.085938 1.933594 L 22.976562 1.933594 L 22.976562 1.042969 C 24.019531 1.117188 24.984375 1.5625 25.726562 2.15625 L 24.984375 2.972656 L 25.652344 3.644531 L 26.472656 2.824219 C 27.140625 3.570312 27.511719 4.535156 27.585938 5.578125 L 26.695312 5.578125 L 26.695312 6.46875 L 27.585938 6.46875 C 27.585938 6.765625 27.511719 7.0625 27.4375 7.363281 L 23.792969 7.363281 C 23.644531 6.988281 23.347656 6.691406 22.976562 6.542969 L 22.976562 3.792969 L 22.085938 3.792969 L 22.085938 6.617188 C 21.710938 6.765625 21.414062 7.0625 21.265625 7.4375 L 17.699219 7.4375 C 17.625 7.136719 17.546875 6.839844 17.546875 6.542969 L 18.441406 6.542969 L 18.441406 5.578125 Z M 22.976562 7.882812 C 22.976562 8.105469 22.753906 8.328125 22.53125 8.328125 C 22.308594 8.328125 22.085938 8.105469 22.085938 7.882812 C 22.085938 7.660156 22.308594 7.4375 22.53125 7.4375 C 22.753906 7.4375 22.976562 7.660156 22.976562 7.882812 Z M 18.367188 18.441406 L 10.113281 18.441406 L 10.113281 6.542969 L 16.582031 6.542969 C 16.730469 8.03125 17.398438 9.371094 18.367188 10.410156 Z M 18.070312 8.328125 L 21.265625 8.328125 C 21.488281 8.847656 21.9375 9.21875 22.53125 9.21875 C 23.125 9.21875 23.644531 8.847656 23.792969 8.328125 L 26.992188 8.328125 C 26.175781 9.964844 24.464844 11.078125 22.53125 11.078125 C 20.597656 11.078125 18.886719 9.964844 18.070312 8.328125 Z M 0.964844 26.695312 L 0.964844 24.835938 L 25.28125 24.835938 L 25.28125 24.316406 L 27.214844 25.726562 L 25.28125 27.214844 L 25.28125 26.695312 Z M 0.964844 26.695312 "></path><path style=" stroke:none;fill-rule:nonzero;fill:rgb(93.72549%,26.27451%,20.784314%);fill-opacity:1;" d="M 11.078125 11.078125 L 17.472656 11.078125 L 17.472656 11.972656 L 11.078125 11.972656 Z M 11.078125 11.078125 "></path><path style=" stroke:none;fill-rule:nonzero;fill:rgb(93.72549%,26.27451%,20.784314%);fill-opacity:1;" d="M 11.078125 9.292969 L 16.582031 9.292969 L 16.582031 10.1875 L 11.078125 10.1875 Z M 11.078125 9.292969 "></path><path style=" stroke:none;fill-rule:nonzero;fill:rgb(93.72549%,26.27451%,20.784314%);fill-opacity:1;" d="M 16.582031 13.90625 L 15.617188 13.90625 L 15.617188 16.65625 L 14.722656 16.65625 L 14.722656 12.9375 L 13.832031 12.9375 L 13.832031 16.65625 L 12.863281 16.65625 L 12.863281 14.796875 L 11.972656 14.796875 L 11.972656 16.65625 L 11.078125 16.65625 L 11.078125 17.546875 L 17.472656 17.546875 L 17.472656 16.65625 L 16.582031 16.65625 Z M 16.582031 13.90625 "></path><path style=" stroke:none;fill-rule:nonzero;fill:rgb(93.72549%,26.27451%,20.784314%);fill-opacity:1;" d="M 13.832031 21.191406 L 14.722656 21.191406 L 14.722656 22.085938 L 13.832031 22.085938 Z M 13.832031 21.191406 "></path><path style=" stroke:none;fill-rule:nonzero;fill:rgb(93.72549%,26.27451%,20.784314%);fill-opacity:1;" d="M 15.617188 21.191406 L 16.507812 21.191406 L 16.507812 22.085938 L 15.617188 22.085938 Z M 15.617188 21.191406 "></path><path style=" stroke:none;fill-rule:nonzero;fill:rgb(93.72549%,26.27451%,20.784314%);fill-opacity:1;" d="M 11.972656 21.191406 L 12.863281 21.191406 L 12.863281 22.085938 L 11.972656 22.085938 Z M 11.972656 21.191406 "></path><path style=" stroke:none;fill-rule:nonzero;fill:rgb(93.72549%,26.27451%,20.784314%);fill-opacity:1;" d="M 11.078125 7.4375 L 15.691406 7.4375 L 15.691406 8.328125 L 11.078125 8.328125 Z M 11.078125 7.4375 "></path></g></svg> 