<?xml version="1.0" encoding="UTF-8"?> <svg xmlns="http://www.w3.org/2000/svg" xmlns:xlink="http://www.w3.org/1999/xlink" width="29pt" height="29pt" viewBox="0 0 29 29" version="1.1"><g id="surface1"><path style=" stroke:none;fill-rule:nonzero;fill:rgb(100%,25.098039%,50.588235%);fill-opacity:1;" d="M 15.242188 13.308594 L 1.339844 13.308594 C 0.59375 13.308594 0 13.90625 0 14.648438 L 0 16.507812 C 0 17.25 0.59375 17.847656 1.339844 17.847656 L 15.242188 17.847656 C 15.988281 17.847656 16.582031 17.25 16.582031 16.507812 L 16.582031 14.648438 C 16.582031 13.90625 15.988281 13.308594 15.242188 13.308594 Z M 15.691406 16.433594 C 15.691406 16.65625 15.542969 16.878906 15.242188 16.878906 L 1.339844 16.878906 C 1.117188 16.878906 0.890625 16.730469 0.890625 16.433594 L 0.890625 14.574219 C 0.890625 14.351562 1.042969 14.128906 1.339844 14.128906 L 15.242188 14.128906 C 15.464844 14.128906 15.691406 14.277344 15.691406 14.574219 C 15.691406 14.574219 15.691406 16.433594 15.691406 16.433594 Z M 15.691406 16.433594 "></path><path style=" stroke:none;fill-rule:nonzero;fill:rgb(100%,25.098039%,50.588235%);fill-opacity:1;" d="M 2.007812 15.167969 C 1.859375 15.316406 1.859375 15.617188 2.007812 15.839844 C 2.15625 16.0625 2.453125 15.988281 2.675781 15.839844 C 2.898438 15.691406 2.824219 15.390625 2.675781 15.167969 C 2.453125 15.019531 2.15625 15.019531 2.007812 15.167969 Z M 2.007812 15.167969 "></path><path style=" stroke:none;fill-rule:nonzero;fill:rgb(100%,25.098039%,50.588235%);fill-opacity:1;" d="M 4.089844 15.167969 C 3.941406 15.316406 3.941406 15.617188 4.089844 15.839844 C 4.238281 15.988281 4.535156 15.988281 4.757812 15.839844 C 4.90625 15.691406 4.90625 15.390625 4.757812 15.167969 C 4.535156 15.019531 4.238281 15.019531 4.089844 15.167969 Z M 4.089844 15.167969 "></path><path style=" stroke:none;fill-rule:nonzero;fill:rgb(100%,25.098039%,50.588235%);fill-opacity:1;" d="M 6.246094 15.167969 C 6.097656 15.316406 6.097656 15.617188 6.246094 15.839844 C 6.394531 15.988281 6.691406 15.988281 6.914062 15.839844 C 7.0625 15.691406 7.0625 15.390625 6.914062 15.167969 C 6.691406 15.019531 6.394531 15.019531 6.246094 15.167969 Z M 6.246094 15.167969 "></path><path style=" stroke:none;fill-rule:nonzero;fill:rgb(100%,25.098039%,50.588235%);fill-opacity:1;" d="M 14.277344 15.019531 L 8.773438 15.019531 C 8.550781 15.019531 8.328125 15.167969 8.328125 15.464844 C 8.328125 15.765625 8.476562 15.914062 8.773438 15.914062 L 14.277344 15.914062 C 14.5 15.914062 14.722656 15.765625 14.722656 15.464844 C 14.722656 15.242188 14.5 15.019531 14.277344 15.019531 Z M 14.277344 15.019531 "></path><path style=" stroke:none;fill-rule:nonzero;fill:rgb(100%,25.098039%,50.588235%);fill-opacity:1;" d="M 15.242188 18.886719 L 1.339844 18.886719 C 0.59375 18.886719 0 19.480469 0 20.226562 L 0 22.085938 C 0 22.828125 0.59375 23.421875 1.339844 23.421875 L 15.242188 23.421875 C 15.988281 23.421875 16.582031 22.828125 16.582031 22.085938 L 16.582031 20.226562 C 16.582031 19.480469 15.988281 18.886719 15.242188 18.886719 Z M 15.691406 22.085938 C 15.691406 22.308594 15.542969 22.53125 15.242188 22.53125 L 1.339844 22.53125 C 1.117188 22.53125 0.890625 22.382812 0.890625 22.085938 L 0.890625 20.226562 C 0.890625 20.003906 1.042969 19.78125 1.339844 19.78125 L 15.242188 19.78125 C 15.464844 19.78125 15.691406 19.929688 15.691406 20.226562 C 15.691406 20.226562 15.691406 22.085938 15.691406 22.085938 Z M 15.691406 22.085938 "></path><path style=" stroke:none;fill-rule:nonzero;fill:rgb(100%,25.098039%,50.588235%);fill-opacity:1;" d="M 2.007812 20.820312 C 1.859375 20.96875 1.859375 21.265625 2.007812 21.488281 C 2.15625 21.710938 2.453125 21.636719 2.675781 21.488281 C 2.898438 21.339844 2.824219 21.042969 2.675781 20.820312 C 2.453125 20.671875 2.15625 20.671875 2.007812 20.820312 Z M 2.007812 20.820312 "></path><path style=" stroke:none;fill-rule:nonzero;fill:rgb(100%,25.098039%,50.588235%);fill-opacity:1;" d="M 4.089844 20.820312 C 3.941406 20.96875 3.941406 21.265625 4.089844 21.488281 C 4.238281 21.636719 4.535156 21.636719 4.757812 21.488281 C 4.90625 21.339844 4.90625 21.042969 4.757812 20.820312 C 4.535156 20.671875 4.238281 20.671875 4.089844 20.820312 Z M 4.089844 20.820312 "></path><path style=" stroke:none;fill-rule:nonzero;fill:rgb(100%,25.098039%,50.588235%);fill-opacity:1;" d="M 6.246094 20.820312 C 6.097656 20.96875 6.097656 21.265625 6.246094 21.488281 C 6.394531 21.636719 6.691406 21.636719 6.914062 21.488281 C 7.0625 21.339844 7.0625 21.042969 6.914062 20.820312 C 6.691406 20.671875 6.394531 20.671875 6.246094 20.820312 Z M 6.246094 20.820312 "></path><path style=" stroke:none;fill-rule:nonzero;fill:rgb(100%,25.098039%,50.588235%);fill-opacity:1;" d="M 14.277344 20.671875 L 8.773438 20.671875 C 8.550781 20.671875 8.328125 20.820312 8.328125 21.117188 C 8.328125 21.414062 8.476562 21.5625 8.773438 21.5625 L 14.277344 21.5625 C 14.5 21.5625 14.722656 21.414062 14.722656 21.117188 C 14.722656 20.820312 14.5 20.671875 14.277344 20.671875 Z M 14.277344 20.671875 "></path><path style=" stroke:none;fill-rule:nonzero;fill:rgb(100%,25.098039%,50.588235%);fill-opacity:1;" d="M 15.242188 24.539062 L 1.339844 24.539062 C 0.59375 24.539062 0 25.132812 0 25.875 L 0 27.734375 C 0 28.480469 0.59375 29.074219 1.339844 29.074219 L 15.242188 29.074219 C 15.988281 29.074219 16.582031 28.480469 16.582031 27.734375 L 16.582031 25.875 C 16.582031 25.132812 15.988281 24.539062 15.242188 24.539062 Z M 15.691406 27.660156 C 15.691406 27.882812 15.542969 28.109375 15.242188 28.109375 L 1.339844 28.109375 C 1.117188 28.109375 0.890625 27.957031 0.890625 27.660156 L 0.890625 25.800781 C 0.890625 25.578125 1.042969 25.355469 1.339844 25.355469 L 15.242188 25.355469 C 15.464844 25.355469 15.691406 25.503906 15.691406 25.800781 C 15.691406 25.800781 15.691406 27.660156 15.691406 27.660156 Z M 15.691406 27.660156 "></path><path style=" stroke:none;fill-rule:nonzero;fill:rgb(100%,25.098039%,50.588235%);fill-opacity:1;" d="M 2.007812 26.472656 C 1.859375 26.621094 1.859375 26.917969 2.007812 27.140625 C 2.15625 27.289062 2.453125 27.289062 2.675781 27.140625 C 2.824219 26.992188 2.824219 26.695312 2.675781 26.472656 C 2.453125 26.25 2.15625 26.25 2.007812 26.472656 Z M 2.007812 26.472656 "></path><path style=" stroke:none;fill-rule:nonzero;fill:rgb(100%,25.098039%,50.588235%);fill-opacity:1;" d="M 4.089844 26.472656 C 3.941406 26.621094 3.941406 26.917969 4.089844 27.140625 C 4.238281 27.289062 4.535156 27.289062 4.757812 27.140625 C 4.90625 26.992188 4.90625 26.695312 4.757812 26.472656 C 4.535156 26.25 4.238281 26.25 4.089844 26.472656 Z M 4.089844 26.472656 "></path><path style=" stroke:none;fill-rule:nonzero;fill:rgb(100%,25.098039%,50.588235%);fill-opacity:1;" d="M 6.246094 26.472656 C 6.097656 26.621094 6.097656 26.917969 6.246094 27.140625 C 6.394531 27.289062 6.691406 27.289062 6.914062 27.140625 C 7.0625 26.992188 7.0625 26.695312 6.914062 26.472656 C 6.691406 26.25 6.394531 26.25 6.246094 26.472656 Z M 6.246094 26.472656 "></path><path style=" stroke:none;fill-rule:nonzero;fill:rgb(100%,25.098039%,50.588235%);fill-opacity:1;" d="M 14.277344 26.324219 L 8.773438 26.324219 C 8.550781 26.324219 8.328125 26.472656 8.328125 26.769531 C 8.328125 27.066406 8.476562 27.214844 8.773438 27.214844 L 14.277344 27.214844 C 14.5 27.214844 14.722656 27.066406 14.722656 26.769531 C 14.722656 26.472656 14.5 26.324219 14.277344 26.324219 Z M 14.277344 26.324219 "></path><path style=" stroke:none;fill-rule:nonzero;fill:rgb(100%,25.098039%,50.588235%);fill-opacity:1;" d="M 28.851562 3.792969 L 25.207031 0.148438 C 25.132812 0.0742188 24.984375 0 24.910156 0 L 18.8125 0 C 18.070312 0 17.472656 0.59375 17.472656 1.339844 L 17.472656 13.382812 C 17.472656 14.128906 18.070312 14.722656 18.8125 14.722656 L 27.660156 14.722656 C 28.40625 14.722656 29 14.054688 29 13.382812 L 29 4.164062 C 29 4.089844 28.925781 3.941406 28.851562 3.792969 Z M 27.511719 3.71875 L 25.800781 3.71875 C 25.503906 3.71875 25.28125 3.496094 25.28125 3.199219 L 25.28125 1.488281 Z M 27.660156 13.980469 L 18.738281 13.980469 C 18.441406 13.980469 18.21875 13.757812 18.21875 13.457031 L 18.21875 1.414062 C 18.21875 1.117188 18.441406 0.890625 18.738281 0.890625 L 24.390625 0.890625 L 24.390625 3.199219 C 24.390625 3.941406 24.984375 4.535156 25.726562 4.535156 L 28.035156 4.535156 L 28.035156 13.382812 C 28.109375 13.757812 27.882812 13.980469 27.660156 13.980469 Z M 27.660156 13.980469 "></path><path style=" stroke:none;fill-rule:nonzero;fill:rgb(100%,25.098039%,50.588235%);fill-opacity:1;" d="M 26.398438 6.988281 L 20.078125 6.988281 C 19.855469 6.988281 19.628906 7.136719 19.628906 7.4375 C 19.628906 7.734375 19.78125 7.882812 20.078125 7.882812 L 26.398438 7.882812 C 26.621094 7.882812 26.84375 7.734375 26.84375 7.4375 C 26.84375 7.136719 26.621094 6.988281 26.398438 6.988281 Z M 26.398438 6.988281 "></path><path style=" stroke:none;fill-rule:nonzero;fill:rgb(100%,25.098039%,50.588235%);fill-opacity:1;" d="M 20.003906 5.503906 L 22.605469 5.503906 C 22.828125 5.503906 23.050781 5.355469 23.050781 5.054688 C 23.050781 4.832031 22.902344 4.609375 22.605469 4.609375 L 20.003906 4.609375 C 19.78125 4.609375 19.554688 4.757812 19.554688 5.054688 C 19.554688 5.28125 19.78125 5.503906 20.003906 5.503906 Z M 20.003906 5.503906 "></path><path style=" stroke:none;fill-rule:nonzero;fill:rgb(100%,25.098039%,50.588235%);fill-opacity:1;" d="M 26.398438 9.371094 L 20.078125 9.371094 C 19.855469 9.371094 19.628906 9.519531 19.628906 9.816406 C 19.628906 10.039062 19.78125 10.261719 20.078125 10.261719 L 26.398438 10.261719 C 26.621094 10.261719 26.84375 10.113281 26.84375 9.816406 C 26.84375 9.519531 26.621094 9.371094 26.398438 9.371094 Z M 26.398438 9.371094 "></path><path style=" stroke:none;fill-rule:nonzero;fill:rgb(100%,25.098039%,50.588235%);fill-opacity:1;" d="M 26.398438 11.75 L 20.078125 11.75 C 19.855469 11.75 19.628906 11.898438 19.628906 12.195312 C 19.628906 12.417969 19.78125 12.640625 20.078125 12.640625 L 26.398438 12.640625 C 26.621094 12.640625 26.84375 12.492188 26.84375 12.195312 C 26.84375 11.972656 26.621094 11.75 26.398438 11.75 Z M 26.398438 11.75 "></path><path style=" stroke:none;fill-rule:nonzero;fill:rgb(100%,25.098039%,50.588235%);fill-opacity:1;" d="M 20.003906 3.125 L 22.605469 3.125 C 22.828125 3.125 23.050781 2.972656 23.050781 2.675781 C 23.050781 2.378906 22.902344 2.230469 22.679688 2.230469 L 20.078125 2.230469 C 19.855469 2.230469 19.628906 2.378906 19.628906 2.675781 C 19.628906 2.972656 19.78125 3.125 20.003906 3.125 Z M 20.003906 3.125 "></path><path style=" stroke:none;fill-rule:nonzero;fill:rgb(100%,25.098039%,50.588235%);fill-opacity:1;" d="M 22.53125 16.210938 C 20.894531 16.359375 19.554688 17.398438 19.035156 18.960938 C 18.441406 20.523438 18.738281 22.160156 19.78125 23.421875 C 20.671875 24.390625 20.96875 25.355469 21.042969 26.621094 L 21.042969 28.628906 C 21.042969 28.851562 21.191406 29.074219 21.488281 29.074219 L 24.6875 29.074219 C 24.910156 29.074219 25.132812 28.925781 25.132812 28.628906 L 25.132812 26.621094 C 25.207031 25.28125 25.652344 24.464844 26.546875 23.347656 C 27.660156 21.9375 27.734375 20.078125 26.917969 18.515625 C 25.953125 16.878906 24.316406 15.988281 22.53125 16.210938 Z M 24.167969 28.109375 L 21.863281 28.109375 L 21.863281 26.992188 L 24.167969 26.992188 Z M 25.800781 22.679688 C 24.910156 23.792969 24.390625 24.761719 24.242188 26.101562 L 23.496094 26.101562 L 23.496094 22.234375 L 24.464844 21.265625 C 24.613281 21.117188 24.613281 20.820312 24.464844 20.597656 C 24.316406 20.449219 24.019531 20.449219 23.792969 20.597656 L 23.050781 21.339844 L 22.308594 20.597656 C 22.160156 20.449219 21.863281 20.449219 21.636719 20.597656 C 21.488281 20.746094 21.488281 21.042969 21.636719 21.265625 L 22.605469 22.234375 L 22.605469 26.027344 L 21.863281 26.027344 C 21.710938 24.835938 21.265625 23.792969 20.449219 22.753906 C 18.664062 20.597656 19.929688 17.398438 22.679688 17.027344 C 25.726562 16.730469 27.660156 20.300781 25.800781 22.679688 Z M 25.800781 22.679688 "></path><path style=" stroke:none;fill-rule:nonzero;fill:rgb(100%,25.098039%,50.588235%);fill-opacity:1;" d="M 14.574219 2.675781 L 13.234375 1.339844 C 13.085938 1.191406 12.789062 1.191406 12.566406 1.339844 C 12.417969 1.488281 12.417969 1.785156 12.566406 2.007812 L 13.160156 2.601562 L 10.1875 2.601562 C 7.660156 2.601562 5.652344 4.609375 5.652344 7.136719 L 5.652344 10.632812 C 5.652344 10.855469 5.800781 11.078125 6.097656 11.078125 C 6.394531 11.078125 6.542969 10.929688 6.542969 10.632812 L 6.542969 7.0625 C 6.542969 5.054688 8.179688 3.421875 10.1875 3.421875 L 13.160156 3.421875 L 12.640625 4.015625 C 12.492188 4.164062 12.492188 4.460938 12.640625 4.683594 C 12.789062 4.832031 13.085938 4.832031 13.308594 4.683594 L 14.648438 3.347656 C 14.796875 3.125 14.796875 2.824219 14.574219 2.675781 Z M 14.574219 2.675781 "></path></g></svg> 