<?xml version="1.0" encoding="UTF-8"?> <!-- Generator: Adobe Illustrator 25.1.0, SVG Export Plug-In . SVG Version: 6.00 Build 0) --> <svg xmlns="http://www.w3.org/2000/svg" xmlns:xlink="http://www.w3.org/1999/xlink" version="1.1" id="Layer_1" x="0px" y="0px" viewBox="0 0 48 48" style="enable-background:new 0 0 48 48;" xml:space="preserve"> <style type="text/css"> .st0{fill:#289FDB;} </style> <g> <path class="st0" d="M36.5,35.9h-8.8c-0.6,0-1,0.4-1,1c0,0.6,0.4,1,1,1h7.8v1.6c-1.6,0.4-2.8,1.9-2.8,3.7c0,2.1,1.8,3.8,3.8,3.8 s3.8-1.8,3.8-3.8c0-1.6-1-3.1-2.5-3.5v-2.8C37.6,36.4,37.1,35.9,36.5,35.9z M36.4,44.9c-0.9,0-1.6-0.7-1.6-1.6s0.7-1.6,1.6-1.6 s1.6,0.7,1.6,1.6C38,44.2,37.3,44.9,36.4,44.9z"></path> <path class="st0" d="M27.6,43.3c0-1.6-1.2-3.1-2.6-3.5v-6c0-0.1,0-0.1,0-0.3h4.1c1.9,0,3.4-1.5,3.4-3.4v-8.6c0-0.3-0.1-0.6-0.3-0.7 l-6.3-6c-0.1-0.1-0.4-0.3-0.7-0.3h-8.5c-0.6,0-1,0.4-1,1v17c0,0.6,0.4,1,1,1h6.3c0,0.1,0,0.1,0,0.3v2.1H11.3c-0.6,0-1,0.4-1,1v2.9 c-1.6,0.4-2.6,1.9-2.6,3.7c0,2.1,1.8,3.8,3.8,3.8s3.8-1.8,3.8-3.8c0-1.8-1.2-3.1-2.6-3.7v-1.8h10.4v1.8c-1.6,0.4-2.8,1.9-2.8,3.7 c0,2.1,1.8,3.8,3.8,3.8C26,47.1,27.6,45.4,27.6,43.3z M28.6,20.3h-1.5c-0.4,0-0.9-0.4-0.9-0.9V18L28.6,20.3z M17.6,16.5h6.4v2.9 c0,1.8,1.3,3.1,3.1,3.1h3.2v7.6c0,0.7-0.6,1.2-1.2,1.2H17.8V16.5H17.6z M13,43.3c0,0.9-0.7,1.6-1.6,1.6c-0.9,0-1.6-0.7-1.6-1.6 s0.7-1.6,1.6-1.6C12.2,41.7,13,42.4,13,43.3z M22.3,43.3c0-0.9,0.7-1.6,1.6-1.6c0.9,0,1.6,0.7,1.6,1.6s-0.7,1.6-1.6,1.6 C22.9,44.9,22.3,44.2,22.3,43.3z"></path> <path class="st0" d="M20.6,25.9h4.3c0.6,0,1-0.4,1-1s-0.6-1.2-1.2-1.2h-4.3c-0.6,0-1,0.4-1,1C19.4,25.4,19.8,25.9,20.6,25.9z"></path> <path class="st0" d="M22.9,26.9h-2.3c-0.6,0-1,0.4-1,1c0,0.6,0.4,1,1,1h2.3c0.6,0,1-0.4,1-1C23.9,27.5,23.5,26.9,22.9,26.9z"></path> <path class="st0" d="M27.3,26.9h-1.5c-0.6,0-1,0.4-1,1c0,0.6,0.4,1,1,1h1.5c0.6,0,1-0.4,1-1C28.3,27.5,27.9,26.9,27.3,26.9z"></path> <path class="st0" d="M37.3,12.3c-0.3-3.4-1.8-6.6-4.1-8.9c-2.2-2.1-5-3.1-7.8-3.1c-4.3,0.1-8.1,2.8-10,6.9c-1-0.3-1.9-0.6-2.9-0.4 c-4.7,0.1-8.5,4.5-8.4,10c0,2.8,1.2,5.4,3.1,7.2c1.6,1.5,3.5,2.3,5.6,2.3H13h0.7c0.6,0,1-0.4,1-1c0-0.6-0.4-1-1-1h-0.9 c-1.5,0-3.1-0.6-4.3-1.8c-1.5-1.5-2.3-3.5-2.3-5.6C6.1,12.7,9,9.2,12.5,9c1,0,1.9,0.3,2.9,0.7l0,0l0,0c1.3,0.7,2.1,2.3,2.2,3.2 c0.1,0.6,0.6,0.9,1,0.9h0.1c0.6-0.1,1-0.6,0.9-1.2c-0.1-1.2-0.9-3.1-2.5-4.4c1.6-3.5,4.7-5.7,8.1-5.9c2.3,0,4.5,0.9,6.3,2.5 c1.9,1.8,3.1,4.3,3.4,7c-0.4,0-0.9,0-1.3,0c-0.6,0-1,0.6-1,1.2c0,0.6,0.6,1,1.2,1c0.9-0.1,1.8,0,2.2,0c2.1,0.1,3.7,2.2,3.8,4.7 c0,2.6-1.8,4.8-4,5h-1.6c-0.6,0-1,0.4-1,1c0,0.6,0.4,1,1,1h1.6c3.5-0.1,6.2-3.4,6.2-7.2C42,15.6,39.9,13,37.3,12.3z"></path> </g> </svg> 