<?xml version="1.0" encoding="UTF-8"?> <svg xmlns="http://www.w3.org/2000/svg" xmlns:xlink="http://www.w3.org/1999/xlink" width="29pt" height="29pt" viewBox="0 0 29 29" version="1.1"><g id="surface1"><path style=" stroke:none;fill-rule:nonzero;fill:rgb(22.352941%,58.039216%,22.352941%);fill-opacity:1;" d="M 10.558594 11.601562 L 18.515625 11.601562 C 20.894531 11.601562 22.902344 9.816406 22.902344 7.585938 C 22.902344 5.800781 21.636719 4.3125 19.855469 3.71875 C 19.109375 1.785156 17.101562 0.519531 14.871094 0.519531 C 12.640625 0.519531 10.632812 1.859375 9.890625 3.71875 C 7.882812 4.015625 6.320312 5.652344 6.320312 7.585938 C 6.320312 9.816406 8.179688 11.601562 10.558594 11.601562 Z M 10.410156 5.128906 C 10.707031 5.128906 11.003906 4.90625 11.078125 4.609375 C 11.527344 3.046875 13.085938 1.933594 14.871094 1.933594 C 16.65625 1.933594 18.144531 2.972656 18.664062 4.535156 C 18.738281 4.757812 18.960938 4.980469 19.183594 5.054688 C 20.523438 5.355469 21.488281 6.394531 21.488281 7.585938 C 21.488281 8.996094 20.152344 10.1875 18.515625 10.1875 L 10.558594 10.1875 C 8.996094 10.1875 7.734375 9.070312 7.734375 7.660156 C 7.734375 6.320312 8.921875 5.207031 10.410156 5.128906 Z M 10.410156 5.128906 "></path><path style=" stroke:none;fill-rule:nonzero;fill:rgb(22.352941%,58.039216%,22.352941%);fill-opacity:1;" d="M 11.601562 19.554688 L 7.0625 19.554688 L 7.0625 17.546875 L 11.078125 17.546875 C 11.453125 17.546875 11.824219 17.25 11.824219 16.804688 L 11.824219 12.863281 C 11.824219 12.492188 11.527344 12.121094 11.078125 12.121094 C 10.707031 12.121094 10.335938 12.417969 10.335938 12.863281 L 10.335938 16.136719 L 6.320312 16.136719 C 5.949219 16.136719 5.578125 16.433594 5.578125 16.878906 L 5.578125 19.554688 L 1.042969 19.554688 C 0.667969 19.554688 0.296875 19.855469 0.296875 20.300781 L 0.296875 27.734375 C 0.296875 28.109375 0.59375 28.480469 1.042969 28.480469 L 11.675781 28.480469 C 12.046875 28.480469 12.417969 28.183594 12.417969 27.734375 L 12.417969 20.300781 C 12.34375 19.855469 12.046875 19.554688 11.601562 19.554688 Z M 10.929688 20.96875 L 10.929688 22.234375 L 1.710938 22.234375 L 1.710938 20.96875 Z M 1.710938 26.992188 L 1.710938 23.644531 L 10.855469 23.644531 L 10.855469 26.992188 C 10.929688 26.992188 1.710938 26.992188 1.710938 26.992188 Z M 1.710938 26.992188 "></path><path style=" stroke:none;fill-rule:nonzero;fill:rgb(22.352941%,58.039216%,22.352941%);fill-opacity:1;" d="M 28.183594 19.480469 L 23.570312 19.480469 L 23.570312 16.804688 C 23.570312 16.433594 23.273438 16.0625 22.828125 16.0625 L 18.8125 16.0625 L 18.8125 12.789062 C 18.8125 12.417969 18.515625 12.046875 18.070312 12.046875 C 17.625 12.046875 17.324219 12.34375 17.324219 12.789062 L 17.324219 16.730469 C 17.324219 17.101562 17.625 17.472656 18.070312 17.472656 L 22.085938 17.472656 L 22.085938 19.480469 L 17.472656 19.480469 C 17.101562 19.480469 16.730469 19.78125 16.730469 20.226562 L 16.730469 27.660156 C 16.730469 28.035156 17.027344 28.40625 17.472656 28.40625 L 28.109375 28.40625 C 28.480469 28.40625 28.851562 28.109375 28.851562 27.660156 L 28.851562 20.226562 C 28.851562 19.855469 28.554688 19.480469 28.183594 19.480469 Z M 27.4375 20.894531 L 27.4375 22.160156 L 18.292969 22.160156 L 18.292969 20.894531 Z M 18.292969 26.992188 L 18.292969 23.644531 L 27.4375 23.644531 L 27.4375 26.992188 Z M 18.292969 26.992188 "></path></g></svg> 