<?xml version="1.0" encoding="UTF-8"?> <!-- Generator: Adobe Illustrator 25.1.0, SVG Export Plug-In . SVG Version: 6.00 Build 0) --> <svg xmlns="http://www.w3.org/2000/svg" xmlns:xlink="http://www.w3.org/1999/xlink" version="1.1" id="Layer_1" x="0px" y="0px" viewBox="0 0 48 48" style="enable-background:new 0 0 48 48;" xml:space="preserve"> <style type="text/css"> .st0{fill:#007C70;} </style> <g> <path class="st0" d="M45.5,21.1c-1.1,0-2.1,0.7-2.5,1.7h-4.1c-0.2-2.6-1-5-2.3-7l3.1-3.1c0.3,0.2,0.7,0.2,1.1,0.2 c0.7,0,1.4-0.3,1.9-0.8c1.1-1.1,1.1-2.8,0-3.8l0,0c-1.1-1.1-2.8-1.1-3.8,0c-0.8,0.8-1,2-0.5,3l-2.9,2.9C32.8,11.1,28.8,9,24.4,9 c-4.5,0-8.6,2.1-11.3,5.4L10,11.3c0.5-1,0.3-2.2-0.5-3c-1.1-1.1-2.8-1.1-3.8,0s-1.1,2.8,0,3.8C6,12.7,6.7,13,7.4,13 c0.4,0,0.8-0.1,1.1-0.2l3.3,3.3c-1.3,2-2,4.3-2.2,6.8H5.2c-0.4-1-1.4-1.7-2.5-1.7c-1.5,0-2.7,1.2-2.7,2.7s1.2,2.7,2.7,2.7 c1.1,0,2.1-0.7,2.5-1.7h4.4c0.2,2.5,1,4.9,2.2,6.9c-0.2,0-0.3,0.1-0.4,0.2L8,35.4c-1-0.5-2.2-0.3-3,0.5c-1,1-1,2.7,0,3.8 c0.5,0.5,1.2,0.8,1.9,0.8s1.4-0.3,1.9-0.8c0.8-0.8,1-2,0.5-3l3.4-3.4c0,0,0.1-0.1,0.1-0.2c2.7,3.3,6.8,5.4,11.3,5.4s8.5-2,11.1-5.2 l3.3,3.3c-0.5,1-0.3,2.2,0.5,3c0.5,0.5,1.2,0.8,1.9,0.8s1.4-0.3,1.9-0.8l0,0c1.1-1.1,1.1-2.8,0-3.8c-0.8-0.8-2-1-3-0.5l-3.4-3.4 l-0.1-0.1c1.3-2,2.2-4.4,2.4-7.1h4.1c0.4,1,1.4,1.7,2.5,1.7c1.5,0,2.7-1.2,2.7-2.7C48.1,22.3,47,21.1,45.5,21.1z M40.3,9.7 c0.2-0.2,0.4-0.2,0.6-0.2s0.4,0.1,0.6,0.2c0.3,0.3,0.3,0.8,0,1.1s-0.8,0.3-1.1,0C40,10.5,40,10,40.3,9.7z M6.8,10.8 c-0.3-0.3-0.3-0.8,0-1.1C7,9.5,7.2,9.5,7.4,9.5c0.2,0,0.4,0.1,0.6,0.2c0.3,0.3,0.3,0.8,0,1.1C7.6,11.1,7.1,11.1,6.8,10.8z M7.5,38.4c-0.3,0.3-0.8,0.3-1.1,0c-0.3-0.3-0.3-0.8,0-1.1C6.5,37.1,6.7,37,6.9,37c0.2,0,0.4,0.1,0.6,0.2 C7.8,37.5,7.8,38.1,7.5,38.4z M41.8,37.2c0.3,0.3,0.3,0.8,0,1.1s-0.8,0.3-1.1,0s-0.3-0.8,0-1.1c0.2-0.2,0.4-0.2,0.6-0.2 S41.7,37.1,41.8,37.2z M2.7,24.6c-0.5,0-0.8-0.4-0.8-0.8S2.3,23,2.7,23s0.8,0.4,0.8,0.8C3.5,24.3,3.1,24.6,2.7,24.6z M24.3,36.6 c-7.1,0-12.8-5.7-12.8-12.8S17.2,11,24.3,11s12.8,5.7,12.8,12.8S31.3,36.6,24.3,36.6z M45.5,24.6c-0.5,0-0.8-0.4-0.8-0.8 s0.4-0.8,0.8-0.8c0.4,0,0.8,0.4,0.8,0.8C46.3,24.3,45.9,24.6,45.5,24.6z"></path> <path class="st0" d="M32,20.4c0.9-0.9,0.9-2.5,0-3.4c-0.1-0.1-0.2-0.2-0.3-0.2l-6-2.7c-0.9-0.8-2.2-0.8-3.1,0l-6,2.7 c-0.1,0-0.2,0.1-0.3,0.2c-0.9,0.9-0.9,2.5,0,3.4c0.1,0.1,0.2,0.1,0.2,0.2l0.7,0.3l-0.8,0.5c-0.1,0-0.1,0.1-0.2,0.1 c-0.9,0.9-0.9,2.5,0,3.4c0.1,0.1,0.2,0.1,0.2,0.2l0.7,0.3L16.4,26c-0.1,0-0.1,0.1-0.2,0.1c-0.9,0.9-0.9,2.5,0,3.4 c0.1,0.1,0.2,0.1,0.2,0.2l6,3c0.5,0.4,1,0.6,1.6,0.6s1.1-0.2,1.6-0.6l6.1-3c0.1,0,0.2-0.1,0.2-0.2c0.9-0.9,0.9-2.5,0-3.4 c0,0-0.1-0.1-0.2-0.1L31,25.5l0.7-0.3c0.1,0,0.2-0.1,0.2-0.2c0.9-0.9,0.9-2.5,0-3.4c0,0-0.1-0.1-0.2-0.1L31,21l0.7-0.3 C31.8,20.6,31.9,20.5,32,20.4z M17.5,18.5l5.9-2.6c0.1,0,0.2-0.1,0.3-0.2c0.2-0.2,0.5-0.2,0.8,0c0.1,0.1,0.2,0.2,0.3,0.2l5.9,2.6 c0,0.1,0.1,0.2,0.1,0.3s0,0.2-0.1,0.3l-6,3c-0.1,0-0.2,0.1-0.2,0.2c-0.2,0.2-0.5,0.2-0.8,0c-0.1-0.1-0.2-0.1-0.2-0.2l-6-3 C17.4,18.8,17.4,18.6,17.5,18.5z M29.3,26.6l1.4,0.9c0.1,0.1,0.1,0.2,0.1,0.3s0,0.2-0.1,0.3l-6,3c-0.1,0-0.2,0.1-0.2,0.2 c-0.2,0.2-0.5,0.2-0.8,0c-0.1-0.1-0.2-0.1-0.2-0.2l-6-3c-0.1-0.2-0.1-0.4,0-0.6l1.4-0.9c0.1,0,0.2-0.1,0.2-0.2l3.4,1.7 c0.5,0.4,1,0.6,1.6,0.6s1.1-0.2,1.6-0.6l3.4-1.7C29.2,26.5,29.2,26.6,29.3,26.6z M29.3,22.1l1.4,0.9c0.1,0.1,0.1,0.2,0.1,0.3 s0,0.2-0.1,0.3l-6,3c-0.1,0-0.2,0.1-0.2,0.2c-0.2,0.2-0.5,0.2-0.8,0c-0.1-0.1-0.2-0.1-0.2-0.2l-6-3c-0.1-0.2-0.1-0.4,0-0.6l1.4-0.9 c0.1,0,0.2-0.1,0.2-0.2l3.4,1.7c0.5,0.4,1,0.6,1.6,0.6s1.1-0.2,1.6-0.6l3.4-1.7C29.2,22,29.2,22.1,29.3,22.1z"></path> </g> </svg> 