<?xml version="1.0" encoding="UTF-8"?> <svg xmlns="http://www.w3.org/2000/svg" xmlns:xlink="http://www.w3.org/1999/xlink" width="87pt" height="60pt" viewBox="0 0 87 60" version="1.1"><g id="surface1"><path style=" stroke:none;fill-rule:nonzero;fill:rgb(0%,0%,0%);fill-opacity:1;" d="M 41.984375 59.515625 C 25.597656 59.191406 12.589844 46.261719 12.640625 29.535156 C 12.703125 13.21875 25.671875 -0.0820312 42.199219 0 C 58.464844 0.0820312 71.554688 13.21875 71.453125 29.949219 C 71.371094 46.242188 58.484375 59.265625 41.984375 59.515625 Z M 44.441406 11.691406 C 42.464844 11.691406 40.542969 11.699219 38.636719 11.679688 C 38.15625 11.667969 38.042969 11.84375 38.042969 12.300781 C 38.054688 15.113281 38.054688 17.925781 38.054688 20.730469 C 38.054688 20.96875 38.054688 21.195312 38.054688 21.464844 C 36.121094 21.0625 34.269531 21.0625 32.414062 21.476562 C 29.179688 22.210938 26.714844 23.949219 25.351562 27.074219 C 24.246094 29.605469 24.113281 32.277344 24.675781 34.984375 C 25.1875 37.375 26.40625 39.28125 28.484375 40.582031 C 29.9375 41.492188 31.554688 41.925781 33.222656 42.1875 C 35.976562 42.601562 38.730469 42.394531 41.464844 42.011719 C 42.457031 41.867188 43.4375 41.691406 44.421875 41.523438 C 44.441406 31.542969 44.441406 21.660156 44.441406 11.691406 Z M 41.921875 48.195312 C 43.941406 49.160156 45.824219 50.058594 47.71875 50.949219 C 47.839844 51.011719 48.023438 50.957031 48.15625 50.898438 C 50.746094 49.65625 52.710938 47.792969 53.675781 44.988281 C 54.453125 42.714844 54.585938 40.34375 54.605469 37.976562 C 54.636719 32.773438 54.617188 27.578125 54.617188 22.375 C 54.617188 22.160156 54.617188 21.941406 54.617188 21.691406 C 52.445312 21.691406 50.359375 21.691406 48.199219 21.691406 C 48.199219 21.972656 48.199219 22.210938 48.199219 22.4375 C 48.199219 26.390625 48.21875 30.332031 48.1875 34.273438 C 48.175781 36.164062 48.105469 38.046875 47.972656 39.941406 C 47.738281 43.53125 46.152344 46.230469 42.804688 47.730469 C 42.539062 47.835938 42.300781 47.988281 41.921875 48.195312 Z M 48.230469 18.351562 C 50.386719 18.351562 52.464844 18.351562 54.574219 18.351562 C 54.574219 16.148438 54.574219 13.996094 54.574219 11.792969 C 52.445312 11.792969 50.347656 11.792969 48.230469 11.792969 C 48.230469 14.007812 48.230469 16.167969 48.230469 18.351562 Z M 48.230469 18.351562 "></path><path style=" stroke:none;fill-rule:nonzero;fill:rgb(0%,0%,0%);fill-opacity:1;" d="M 38.066406 31.882812 C 38.066406 33.414062 38.054688 34.945312 38.074219 36.476562 C 38.074219 36.847656 37.984375 37.023438 37.59375 37.023438 C 36.703125 37.023438 35.824219 37.160156 34.941406 37.035156 C 32.515625 36.703125 31.175781 35.277344 30.992188 32.804688 C 30.921875 31.871094 30.972656 30.878906 31.195312 29.96875 C 31.738281 27.703125 33.253906 26.523438 35.578125 26.429688 C 36.203125 26.410156 36.835938 26.515625 37.460938 26.574219 C 37.933594 26.605469 38.117188 26.835938 38.097656 27.351562 C 38.035156 28.863281 38.066406 30.371094 38.066406 31.882812 Z M 38.066406 31.882812 "></path></g></svg> 