<?xml version="1.0" encoding="UTF-8"?> <svg xmlns="http://www.w3.org/2000/svg" xmlns:xlink="http://www.w3.org/1999/xlink" width="60pt" height="60pt" viewBox="0 0 60 60" version="1.1"><g id="surface1"><path style=" stroke:none;fill-rule:nonzero;fill:rgb(0%,0%,0%);fill-opacity:1;" d="M 160.664062 46.011719 C 160.800781 45.988281 160.886719 45.875 160.886719 45.738281 C 160.886719 45.625 160.863281 45.539062 160.773438 45.488281 C 160.664062 45.4375 160.523438 45.398438 160.386719 45.398438 C 160.25 45.398438 160.085938 45.398438 159.9375 45.425781 L 159.9375 46.5625 L 160.1875 46.5625 L 160.1875 46.125 L 160.300781 46.125 C 160.4375 46.125 160.523438 46.175781 160.550781 46.289062 C 160.574219 46.375 160.601562 46.488281 160.636719 46.5625 L 160.914062 46.5625 C 160.863281 46.476562 160.824219 46.363281 160.824219 46.289062 C 160.863281 46.1875 160.773438 46.074219 160.664062 46.011719 M 160.324219 45.9375 L 160.1875 45.9375 L 160.1875 45.601562 L 160.324219 45.601562 C 160.488281 45.601562 160.574219 45.6875 160.574219 45.761719 C 160.613281 45.875 160.460938 45.960938 160.324219 45.9375 M 59.238281 25.710938 C 59.074219 25.574219 57.574219 24.4375 54.351562 24.4375 C 53.511719 24.4375 52.664062 24.523438 51.824219 24.664062 C 51.210938 20.414062 47.6875 18.363281 47.550781 18.25 L 46.6875 17.75 L 46.136719 18.550781 C 45.449219 19.636719 44.914062 20.851562 44.613281 22.101562 C 44.023438 24.511719 44.386719 26.789062 45.613281 28.726562 C 44.136719 29.5625 41.75 29.75 41.261719 29.773438 L 1.863281 29.773438 C 0.835938 29.789062 0 30.625 0 31.648438 C -0.0507812 35.085938 0.523438 38.523438 1.726562 41.773438 C 3.085938 45.324219 5.113281 47.960938 7.710938 49.574219 C 10.648438 51.375 15.449219 52.398438 20.863281 52.398438 C 23.300781 52.398438 25.75 52.175781 28.164062 51.738281 C 31.523438 51.125 34.738281 49.960938 37.699219 48.273438 C 40.136719 46.863281 42.335938 45.0625 44.1875 42.949219 C 47.324219 39.425781 49.175781 35.488281 50.539062 31.988281 L 51.085938 31.988281 C 54.5 31.988281 56.613281 30.625 57.773438 29.460938 C 58.550781 28.738281 59.136719 27.851562 59.550781 26.851562 L 59.800781 26.125 Z M 59.238281 25.710938 "></path><path style=" stroke:none;fill-rule:nonzero;fill:rgb(0%,0%,0%);fill-opacity:1;" d="M 5.523438 28.648438 L 10.800781 28.648438 C 11.050781 28.648438 11.273438 28.449219 11.273438 28.175781 L 11.273438 23.460938 C 11.273438 23.210938 11.074219 22.988281 10.800781 22.988281 L 5.523438 22.988281 C 5.273438 22.988281 5.050781 23.1875 5.050781 23.460938 L 5.050781 28.175781 C 5.074219 28.449219 5.273438 28.648438 5.523438 28.648438 Z M 12.789062 28.648438 L 18.0625 28.648438 C 18.3125 28.648438 18.539062 28.449219 18.539062 28.175781 L 18.539062 23.460938 C 18.539062 23.210938 18.335938 22.988281 18.0625 22.988281 L 12.789062 22.988281 C 12.539062 22.988281 12.3125 23.1875 12.3125 23.460938 L 12.3125 28.175781 C 12.351562 28.449219 12.539062 28.648438 12.789062 28.648438 M 20.199219 28.648438 L 25.476562 28.648438 C 25.726562 28.648438 25.949219 28.449219 25.949219 28.175781 L 25.949219 23.460938 C 25.949219 23.210938 25.75 22.988281 25.476562 22.988281 L 20.199219 22.988281 C 19.949219 22.988281 19.726562 23.1875 19.726562 23.460938 L 19.726562 28.175781 C 19.726562 28.449219 19.925781 28.648438 20.199219 28.648438 Z M 27.5 28.648438 L 32.773438 28.648438 C 33.023438 28.648438 33.25 28.449219 33.25 28.175781 L 33.25 23.460938 C 33.25 23.210938 33.050781 22.988281 32.773438 22.988281 L 27.5 22.988281 C 27.25 22.988281 27.023438 23.1875 27.023438 23.460938 L 27.023438 28.175781 C 27.023438 28.449219 27.25 28.648438 27.5 28.648438 Z M 12.789062 21.914062 L 18.0625 21.914062 C 18.3125 21.914062 18.539062 21.6875 18.539062 21.4375 L 18.539062 16.726562 C 18.539062 16.476562 18.335938 16.25 18.0625 16.25 L 12.789062 16.25 C 12.539062 16.25 12.3125 16.449219 12.3125 16.726562 L 12.3125 21.4375 C 12.351562 21.6875 12.539062 21.914062 12.789062 21.914062 M 20.199219 21.914062 L 25.476562 21.914062 C 25.726562 21.914062 25.949219 21.6875 25.949219 21.4375 L 25.949219 16.726562 C 25.949219 16.476562 25.75 16.25 25.476562 16.25 L 20.199219 16.25 C 19.949219 16.25 19.726562 16.449219 19.726562 16.726562 L 19.726562 21.4375 C 19.726562 21.6875 19.925781 21.914062 20.199219 21.914062 M 27.5 21.914062 L 32.773438 21.914062 C 33.023438 21.914062 33.25 21.6875 33.25 21.4375 L 33.25 16.726562 C 33.25 16.476562 33.023438 16.25 32.773438 16.25 L 27.5 16.25 C 27.25 16.25 27.023438 16.449219 27.023438 16.726562 L 27.023438 21.4375 C 27.023438 21.6875 27.25 21.914062 27.5 21.914062 M 27.5 15.136719 L 32.773438 15.136719 C 33.023438 15.136719 33.25 14.9375 33.25 14.664062 L 33.25 9.949219 C 33.25 9.699219 33.023438 9.476562 32.773438 9.476562 L 27.5 9.476562 C 27.25 9.476562 27.023438 9.675781 27.023438 9.949219 L 27.023438 14.664062 C 27.023438 14.914062 27.25 15.136719 27.5 15.136719 M 34.851562 28.648438 L 40.125 28.648438 C 40.375 28.648438 40.601562 28.449219 40.601562 28.175781 L 40.601562 23.460938 C 40.601562 23.210938 40.398438 22.988281 40.125 22.988281 L 34.851562 22.988281 C 34.601562 22.988281 34.375 23.1875 34.375 23.460938 L 34.375 28.175781 C 34.398438 28.449219 34.601562 28.648438 34.851562 28.648438 "></path></g></svg> 