<?xml version="1.0" encoding="UTF-8"?> <svg xmlns="http://www.w3.org/2000/svg" xmlns:xlink="http://www.w3.org/1999/xlink" width="60pt" height="60pt" viewBox="0 0 60 60" version="1.1"><g id="surface1"><path style=" stroke:none;fill-rule:nonzero;fill:rgb(0%,0%,0%);fill-opacity:1;" d="M 31.425781 51.085938 L 59.851562 42.824219 L 59.851562 11.238281 L 0.363281 11.238281 L 0.363281 42.835938 L 28.789062 51.101562 C 29.449219 51.289062 30.761719 51.289062 31.425781 51.085938 Z M 40.6875 21.8125 L 51.925781 21.8125 L 51.925781 24.460938 L 47.960938 24.460938 L 47.960938 37.6875 L 44.664062 37.6875 L 44.664062 24.449219 L 40.699219 24.449219 L 40.699219 21.8125 Z M 29.449219 21.8125 L 39.363281 21.8125 L 39.363281 24.460938 L 32.75 24.460938 L 32.75 27.761719 L 38.039062 27.761719 L 38.039062 31.0625 L 32.75 31.0625 L 32.75 34.363281 L 39.363281 34.363281 L 39.363281 37.664062 L 29.449219 37.664062 Z M 10.011719 37.675781 C 8.824219 37.675781 7.960938 36.75 7.960938 35.5 C 7.960938 34.25 8.824219 33.25 10.011719 33.25 C 11.199219 33.25 12.0625 34.175781 12.0625 35.5 C 12.125 36.75 11.273438 37.675781 10.011719 37.675781 Z M 26.800781 37.675781 L 23.101562 37.675781 L 19.136719 29.875 L 17.613281 26.4375 L 17.550781 26.4375 C 17.6875 27.761719 18.273438 30.011719 18.273438 31.863281 L 18.273438 37.675781 L 14.976562 37.675781 L 14.976562 21.8125 L 18.273438 21.8125 L 22.238281 29.613281 L 23.761719 33.050781 L 23.824219 33.050781 C 23.6875 31.0625 23.5625 29.148438 23.5625 27.300781 L 23.5625 21.8125 L 26.863281 21.8125 Z M 26.800781 37.675781 "></path><path style=" stroke:none;fill-rule:nonzero;fill:rgb(0%,0%,0%);fill-opacity:1;" d="M 32.148438 53.675781 C 31.550781 53.875 30.824219 53.9375 30.101562 53.9375 C 29.375 53.9375 28.648438 53.875 28.050781 53.675781 L 0.363281 45.601562 L 0.363281 49.960938 C 0.363281 50.824219 1.085938 51.75 1.949219 52.011719 L 28.585938 59.085938 C 29.449219 59.289062 30.835938 59.289062 31.699219 59.085938 L 58.335938 52.011719 C 59.199219 51.8125 59.925781 50.886719 59.925781 49.960938 L 59.925781 45.601562 Z M 32.148438 53.675781 "></path><path style=" stroke:none;fill-rule:nonzero;fill:rgb(0%,0%,0%);fill-opacity:1;" d="M 59.851562 8.585938 L 59.851562 1.585938 C 59.851562 0.726562 59.125 0 58.261719 0 L 31.6875 0 C 30.824219 0 29.3125 0 28.449219 0 L 1.949219 0 C 1.085938 0 0.363281 0.726562 0.363281 1.585938 L 0.363281 8.585938 Z M 59.851562 8.585938 "></path></g></svg> 