<?xml version="1.0" encoding="utf-8"?>
<!-- Generator: Adobe Illustrator 25.1.0, SVG Export Plug-In . SVG Version: 6.00 Build 0)  -->
<svg version="1.1" id="Layer_1" xmlns="http://www.w3.org/2000/svg" xmlns:xlink="http://www.w3.org/1999/xlink" x="0px" y="0px"
	 viewBox="0 0 66 58.7" style="enable-background:new 0 0 66 58.7;" xml:space="preserve">
<style type="text/css">
	.st0{fill:#2176FF;}
	.st1{fill:#FFFFFF;}
</style>
<path class="st0" d="M66,31.1c0,0.4,0,0.8,0,1.2c0,0.1,0,0.2-0.1,0.3c-0.1,0.6-0.1,1.1-0.3,1.7c-0.7,2.7-2.5,4.5-4.8,5.8
	c-0.1,0-0.1,0-0.2,0.1c-2,0.5-4.1,1-6.1,1.6c-5.3,1.6-10.4,3.5-15.3,6.1c-2.8,1.5-5.5,3.1-7.8,5.2c-1.4,1.2-2.9,2.3-4.6,3.2
	c-2.5,1.3-5.1,2.2-7.9,2.4c-2.9,0.2-5.5-0.5-8-2.1c-1.1-0.7-2.1-1.5-2.9-2.5c-2-2.5-3.6-5.4-4.9-8.3c-1.6-3.6-2.7-7.4-3.1-11.4
	c-0.2-2.4-0.2-4.8,0.2-7.2c0.5-3.3,1.6-6.4,3.3-9.3c2.8-5,6.8-9,11.4-12.3C19.8,2.2,25.1,0.3,31,0c2.6-0.1,5.2,0.2,7.8,0.8
	c3.8,1,7.2,2.6,10.4,4.8c1,0.7,2,1.4,2.9,2.3c2,2,3.9,4.1,5.6,6.3c2.3,2.9,4.3,5.9,5.9,9.2c0.9,1.9,1.7,3.9,2.1,6
	C65.9,30,65.9,30.6,66,31.1z"/>
<path class="st1" d="M30.2,16.2c0.3,0,0.5,0,0.8,0c0.1,0,0.1,0,0.2,0c0.5,0.1,1,0.1,1.5,0.2c4.4,0.9,7.6,4.7,7.7,9.2
	c0.1,1.5-0.2,2.9-0.8,4.2c-1.6,3.5-4.3,5.4-8.1,5.8c-1.1,0.1-2.1,0-3.1-0.2c-5-1.2-8.3-6.2-7.2-11.4c0.6-2.7,2-4.7,4.3-6.2
	c1.3-0.8,2.7-1.3,4.3-1.5C29.8,16.2,30,16.2,30.2,16.2z M27.7,25.9c0,1.5,0,3.1,0,4.6c0,0.2,0.1,0.4,0.3,0.6c0.2,0.1,0.4,0,0.6-0.1
	c2.1-1.5,4.2-3.1,6.4-4.6c0.4-0.3,0.4-0.7,0-1c-2.1-1.5-4.2-3.1-6.4-4.6c-0.2-0.1-0.4-0.2-0.6-0.1c-0.2,0.1-0.3,0.3-0.3,0.6
	C27.7,22.8,27.7,24.4,27.7,25.9z"/>
</svg>
