<?xml version="1.0" encoding="utf-8"?>
<!-- Generator: Adobe Illustrator 25.1.0, SVG Export Plug-In . SVG Version: 6.00 Build 0)  -->
<svg version="1.1" id="Layer_1" xmlns="http://www.w3.org/2000/svg" xmlns:xlink="http://www.w3.org/1999/xlink" x="0px" y="0px"
	 viewBox="0 0 960 670.7" style="enable-background:new 0 0 960 670.7;" xml:space="preserve">
<style type="text/css">
	.st0{fill:#F8F8F8;}
</style>
<path class="st0" d="M0,613.4c0-195,0-390,0-585.2c6.1,1.2,12.1,2.5,18.1,3.5c13.6,2.2,27.2,4.5,40.8,6.4
	c23.2,3.1,46.5,3.6,69.8,2.9c15-0.5,30-1.9,45-3.3c30-2.9,58.9-11,87.7-19.7c18.8-5.7,37.9-9.5,57.3-12.5c26-4,52.1-6.1,78.3-5.4
	c47,1.3,92.1,10.4,133.9,33c26.4,14.3,52.5,29,79,43c34.7,18.3,69.9,35.3,106.5,49.6c17.9,7,35.9,14,54.8,17.9
	c9.2,1.9,18.7,3.2,28.1,3.7c14.3,0.9,28.6,1.5,42.9,1.1c27.5-0.9,54.6-4.2,80.5-14.3c13.5-5.2,25.8-12.2,35.9-22.8
	c0.2-0.2,0.5-0.5,0.8-0.6c0.1-0.1,0.3,0,0.6,0c0,186.4,0,372.7,0,559.3c-9-1.6-18-3.3-26.9-4.8c-12.2-2.2-24.5-4.3-36.8-6.5
	c-16.7-3-33.3-6.3-50.1-8.8c-12.5-1.9-25.1-3-37.6-4.2c-22.1-2.2-44.2-2.4-66.4-1.9c-14.4,0.3-28.8,1.1-43.2,1.9
	c-11.5,0.6-23.1,1.2-34.6,2.1c-12.5,1-25,2.1-37.5,3.4c-12.8,1.3-25.6,2.7-38.4,4.1c-6.8,0.8-13.5,1.6-20.3,2.6
	c-12.7,1.8-25.4,3.7-38.1,5.4c-12.1,1.7-24.2,3.3-36.3,4.8c-11.5,1.5-22.9,2.8-34.4,4.2c-10.4,1.2-20.8,2.4-31.2,3.3
	c-9.8,0.9-19.6,1.6-29.4,2.1c-18.2,0.9-36.4,1.8-54.6,2.2c-17.3,0.4-34.6,0.2-52,0c-11.2-0.1-22.5-0.6-33.7-1.2
	c-10.4-0.6-20.7-1.5-31.1-2.3c-9.8-0.8-19.6-1.5-29.3-2.7c-15.9-2-31.8-4-47.6-6.7c-13.5-2.4-27.1-5.1-40.3-8.8
	c-37-10.4-73.1-23.4-106.6-42.5C2.5,614.8,1.3,614.1,0,613.4z"/>
</svg>
