<?xml version="1.0" encoding="utf-8"?>
<!-- Generator: Adobe Illustrator 25.2.3, SVG Export Plug-In . SVG Version: 6.00 Build 0)  -->
<svg version="1.1" id="Layer_1" xmlns="http://www.w3.org/2000/svg" xmlns:xlink="http://www.w3.org/1999/xlink" x="0px" y="0px"
	 viewBox="0 0 1080 55" style="enable-background:new 0 0 1080 55;" xml:space="preserve">
<style type="text/css">
	.st0{fill:url(#SVGID_1_);}
	.st1{fill:url(#SVGID_2_);}
	.st2{fill:#FFFFFF;}
	.st3{fill:#2176FF;}
	.st4{font-family:'Raleway-Black';}
	.st5{font-size:21.2355px;}
</style>
<linearGradient id="SVGID_1_" gradientUnits="userSpaceOnUse" x1="413.2852" y1="27.4721" x2="1086.9268" y2="27.4721">
	<stop  offset="0.1761" style="stop-color:#EB3DF7"/>
	<stop  offset="0.2338" style="stop-color:#E73DF5"/>
	<stop  offset="0.2929" style="stop-color:#DB3BF0"/>
	<stop  offset="0.3526" style="stop-color:#C639E7"/>
	<stop  offset="0.4128" style="stop-color:#A936DB"/>
	<stop  offset="0.4733" style="stop-color:#8431CB"/>
	<stop  offset="0.5333" style="stop-color:#582CB8"/>
	<stop  offset="0.5683" style="stop-color:#3A29AB"/>
	<stop  offset="0.6144" style="stop-color:#3C2FAD"/>
	<stop  offset="0.6753" style="stop-color:#4040B4"/>
	<stop  offset="0.7447" style="stop-color:#485BBF"/>
	<stop  offset="0.8203" style="stop-color:#5282CE"/>
	<stop  offset="0.9009" style="stop-color:#60B3E1"/>
	<stop  offset="0.9845" style="stop-color:#70EEF8"/>
	<stop  offset="1" style="stop-color:#73FAFD"/>
</linearGradient>
<rect x="413.29" y="-12.58" class="st0" width="673.64" height="80.11"/>
<linearGradient id="SVGID_2_" gradientUnits="userSpaceOnUse" x1="-12.3874" y1="27.4397" x2="673.4924" y2="27.4397">
	<stop  offset="0.6562" style="stop-color:#FFFFFF"/>
	<stop  offset="0.7444" style="stop-color:#2176FF;stop-opacity:0"/>
</linearGradient>
<rect x="-12.39" y="-12.62" class="st1" width="685.88" height="80.11"/>
<g>
	<g>
		<polygon class="st2" points="457.23,14.4 453.89,17.73 453.89,39.4 454.81,39.4 453.33,40.88 456.56,40.88 462.63,34.81 
			459.4,34.81 460.89,33.33 460.82,33.33 460.82,14.4 		"/>
		<polygon class="st2" points="452.76,13.7 452.76,17.03 456.1,13.7 		"/>
		<path class="st2" d="M501.58,12.64l-1.62,1.62h-20.32v20.32v0.69l4.3,4.3h16.2V33.6h-13.6v-4.01h12.15v-5.53h-8.36l5.45-5.45h5.79
			V12.64z M486.55,20.22h7.27l-3.83,3.83h-3.44V20.22z"/>
		<polygon class="st2" points="534.92,29.02 531.04,29.02 524.8,14.24 518.12,14.24 509.67,34.22 509.67,39.42 514.72,39.42 
			518.62,29.6 518.58,29.6 521.4,22.5 521.42,22.54 521.44,22.5 524,29.02 527.88,29.02 530.2,34.94 526.32,34.94 528.08,39.42 
			533.57,39.42 533.57,35.01 533.54,34.94 537.42,34.94 		"/>
		<path class="st2" d="M565.22,26.86c0.33-0.68,0.54-1.44,0.67-2.25h2.29c0.08-0.52,0.14-1.07,0.14-1.64v-0.07
			c0-0.48-0.04-0.94-0.1-1.39h-2.29c-0.11-0.83-0.32-1.61-0.63-2.32c-0.49-1.1-1.18-2.02-2.09-2.77c-0.91-0.75-2-1.32-3.29-1.71
			c-1.29-0.39-2.71-0.59-4.29-0.59h-6.48l-4.23,4.23v3.16h2.29v3.11h-2.29v14.5h2.64l4.29-4.29v-2.86h3.43
			c1.55,0,2.98-0.19,4.3-0.57s2.46-0.95,3.41-1.71C563.94,28.91,564.68,27.97,565.22,26.86 M558.83,24.6
			c-0.18,0.4-0.44,0.75-0.79,1.05c-0.7,0.59-1.67,0.88-2.91,0.88h-3.29V24.6h2.29V21.5h-2.29v-1.61h3.25c1.26,0,2.24,0.28,2.95,0.84
			c0.27,0.21,0.47,0.48,0.63,0.76h2.29c0.27,0.47,0.42,1.03,0.42,1.7v0.07c0,0.5-0.09,0.94-0.26,1.34H558.83z"/>
		<polygon class="st2" points="470.53,39.4 472.93,37 472.93,33.33 464.11,33.33 458.04,39.4 		"/>
	</g>
	<text transform="matrix(1 0 0 1 189.2297 35.4682)" class="st3 st4 st5">We will be exhibiting at</text>
	<text transform="matrix(1 0 0 1 584.1039 35.4682)" class="st2 st4 st5">Riyadh, KSA   |   1-3 Feb, 2022 </text>
</g>
</svg>
