<?xml version="1.0" encoding="UTF-8"?> <svg xmlns="http://www.w3.org/2000/svg" xmlns:xlink="http://www.w3.org/1999/xlink" width="60pt" height="60pt" viewBox="0 0 60 60" version="1.1"><g id="surface1"><path style=" stroke:none;fill-rule:nonzero;fill:rgb(0%,0%,0%);fill-opacity:1;" d="M 41.976562 10.976562 C 39 9.101562 36.136719 8.363281 33.289062 6.476562 C 31.539062 5.300781 29.085938 2.449219 27.050781 -0.0117188 C 26.6875 3.925781 25.511719 5.511719 24.101562 6.625 C 21.238281 8.914062 19.425781 9.601562 16.925781 10.960938 C 14.800781 12.074219 3.398438 19.925781 3.398438 34.550781 C 3.386719 49.226562 15.710938 60 29.398438 60 C 43.050781 60 54.925781 50.074219 54.925781 35.039062 C 54.925781 19.960938 43.789062 12.085938 41.976562 10.976562 Z M 42.3125 54.675781 C 39.613281 57.375 30.226562 58.523438 26.648438 55.238281 C 26 54.585938 26.6875 53.625 27.523438 53.625 C 27.523438 53.625 29.8125 55.414062 34.4375 55.414062 C 38.0625 55.414062 40.613281 54.375 41.75 53.539062 C 42.5625 52.914062 42.875 54.113281 42.3125 54.675781 Z M 35 47.613281 C 36.164062 47.125 38.886719 47.101562 39.9375 47.789062 C 40.488281 48.164062 42.101562 50.3125 40.773438 50.960938 C 39.648438 51.523438 40.613281 48.851562 37.210938 48.851562 C 35.238281 48.851562 34.601562 49.550781 33.625 50.324219 C 32.6875 51.125 32.3125 51.398438 31.988281 50.949219 C 31.1875 49.863281 34.125 47.976562 35 47.613281 Z M 47.414062 49.9375 C 45.375 49.800781 41.3125 43.386719 38.6875 43.300781 C 34.539062 43.175781 24.710938 54.125 17.039062 48.9375 C 11.824219 45.363281 15.074219 34.875 23.988281 34.824219 C 30.625 34.761719 35.238281 41.398438 38.550781 41.335938 C 41.414062 41.300781 46.835938 35.726562 49.523438 35.726562 C 56.0625 35.710938 52.648438 50.375 47.414062 49.9375 Z M 47.414062 49.9375 "></path></g></svg> 