<?xml version="1.0" encoding="UTF-8"?> <!-- Generator: Adobe Illustrator 25.3.0, SVG Export Plug-In . SVG Version: 6.00 Build 0) --> <svg xmlns="http://www.w3.org/2000/svg" xmlns:xlink="http://www.w3.org/1999/xlink" version="1.1" id="Layer_1" x="0px" y="0px" viewBox="0 0 48 48" style="enable-background:new 0 0 48 48;" xml:space="preserve"> <style type="text/css"> .st0{fill:#66B033;} </style> <g> </g> <g> <path class="st0" d="M32.4,18.8c-0.2,0-0.3,0-0.5-0.1l-3.2-1.7l-3.2,1.7c-0.3,0.2-0.7,0.2-1,0c-0.3-0.2-0.5-0.5-0.5-0.8V5.5 c0-0.5,0.4-0.9,1-0.9h7.4c0.6,0,1,0.4,1,0.9v12.5c0,0.3-0.2,0.6-0.5,0.8C32.8,18.8,32.6,18.8,32.4,18.8z M28.7,15.1 c0.2,0,0.3,0,0.5,0.1l2.2,1.2v-10H26v10l2.2-1.2C28.4,15.2,28.5,15.1,28.7,15.1z"></path> <ellipse class="st0" cx="24" cy="42.3" rx="1.5" ry="1.4"></ellipse> <path class="st0" d="M24,44.3c-1.2,0-2.3-0.9-2.3-2c0-1.1,1-2,2.3-2c1.2,0,2.3,0.9,2.3,2C26.3,43.4,25.2,44.3,24,44.3z M24,41.6 c-0.4,0-0.8,0.3-0.8,0.7c0,0.4,0.3,0.7,0.8,0.7c0.4,0,0.8-0.3,0.8-0.7C24.8,41.9,24.4,41.6,24,41.6z"></path> <path class="st0" d="M38.9,47.5H9.1c-1.9,0-3.5-1.4-3.5-3.2V3.7c0-1.7,1.6-3.2,3.5-3.2h29.8c1.9,0,3.5,1.4,3.5,3.2v40.7 C42.4,46.1,40.8,47.5,38.9,47.5z M9.1,3C8.7,3,8.3,3.3,8.3,3.7v40.7c0,0.4,0.3,0.7,0.8,0.7h29.8c0.4,0,0.8-0.3,0.8-0.7V3.7 c0-0.4-0.3-0.7-0.8-0.7H9.1z"></path> <path class="st0" d="M36.2,39.4H11.8c-1.1,0-1.9-0.8-1.9-1.7V5.9c0-0.9,0.9-1.7,1.9-1.7h24.5c1.1,0,1.9,0.8,1.9,1.7v31.7 C38.1,38.6,37.3,39.4,36.2,39.4z M12.6,36.9h22.8V6.7H12.6V36.9z"></path> <g> <path class="st0" d="M31.6,23.1H16.3c-0.6,0-1-0.4-1-0.9c0-0.5,0.4-0.9,1-0.9h15.3c0.6,0,1,0.4,1,0.9 C32.6,22.7,32.1,23.1,31.6,23.1z"></path> </g> <g> <path class="st0" d="M31.6,27H16.3c-0.6,0-1-0.4-1-0.9c0-0.5,0.4-0.9,1-0.9h15.3c0.6,0,1,0.4,1,0.9C32.6,26.6,32.1,27,31.6,27z"></path> </g> <g> <path class="st0" d="M31.6,30.8H16.3c-0.6,0-1-0.4-1-0.9c0-0.5,0.4-0.9,1-0.9h15.3c0.6,0,1,0.4,1,0.9 C32.6,30.4,32.1,30.8,31.6,30.8z"></path> </g> <g> <path class="st0" d="M31.6,34.6H16.3c-0.6,0-1-0.4-1-0.9s0.4-0.9,1-0.9h15.3c0.6,0,1,0.4,1,0.9S32.1,34.6,31.6,34.6z"></path> </g> </g> </svg> 