<?xml version="1.0" encoding="UTF-8"?> <!-- Generator: Adobe Illustrator 25.1.0, SVG Export Plug-In . SVG Version: 6.00 Build 0) --> <svg xmlns="http://www.w3.org/2000/svg" xmlns:xlink="http://www.w3.org/1999/xlink" version="1.1" id="Layer_1" x="0px" y="0px" viewBox="0 0 48 48" style="enable-background:new 0 0 48 48;" xml:space="preserve"> <style type="text/css"> .st0{fill:#FF6315;} </style> <g> <circle class="st0" cx="23.9" cy="29.8" r="1.2"></circle> <path class="st0" d="M43.7,5H4.1C1.9,5,0,6.8,0,9.1v20.6c0,2.3,1.8,4.1,4.1,4.1h14v4.9h-6.6c-0.5,0-0.8,0.4-0.8,0.8v3.3 c0,0.5,0.4,0.8,0.8,0.8h24.7c0.5,0,0.8-0.4,0.8-0.8v-3.3c0-0.5-0.4-0.8-0.8-0.8h-6.6v-4.9h14c2.3,0,4.1-1.8,4.1-4.1V9.1 C47.9,6.8,46,5,43.7,5z M1.7,9.1c0-1.4,1.1-2.5,2.5-2.5h39.6c1.4,0,2.5,1.1,2.5,2.5v16.5H1.7V9.1z M35.5,42.1H12.4v-1.6h23.1V42.1z M28.1,38.8h-8.2v-4.9h8.2C28.1,33.9,28.1,38.8,28.1,38.8z M43.7,32.2H4.1c-1.4,0-2.5-1.1-2.5-2.5v-2.5h44.5v2.5 C46.2,31.1,45.1,32.2,43.7,32.2z"></path> <path class="st0" d="M18.2,14h-5l-4.3-3.9l-1.1,1.2l3,2.7H7.4c-0.5,0-0.8,0.4-0.8,0.8v0.1l0.8,5.8c0.1,0.4,0.4,0.7,0.8,0.7h9.1 c0.4,0,0.8-0.3,0.8-0.7L19,15c0.1-0.5-0.3-0.9-0.7-0.9C18.2,14,18.2,14,18.2,14z M16.6,19.8H9l-0.6-4.1h8.8L16.6,19.8z"></path> <rect x="24.8" y="9.1" class="st0" width="14.8" height="1.6"></rect> <rect x="24.8" y="13.2" class="st0" width="11.5" height="1.6"></rect> <rect x="24.8" y="17.3" class="st0" width="14.8" height="1.6"></rect> <rect x="24.8" y="21.5" class="st0" width="11.5" height="1.6"></rect> </g> </svg> 