<?xml version="1.0" encoding="UTF-8"?> <!-- Generator: Adobe Illustrator 25.1.0, SVG Export Plug-In . SVG Version: 6.00 Build 0) --> <svg xmlns="http://www.w3.org/2000/svg" xmlns:xlink="http://www.w3.org/1999/xlink" version="1.1" id="Layer_1" x="0px" y="0px" viewBox="0 0 48 48" style="enable-background:new 0 0 48 48;" xml:space="preserve"> <style type="text/css"> .st0{fill:#CC2619;} </style> <g> <path class="st0" d="M46.4,5.4h-8.3L25.2,0.2c-0.1-0.1-0.3-0.1-0.4-0.1s-0.3,0-0.4,0.1L11.1,5.5c-0.2,0.1-0.3,0.2-0.4,0.3l0,0 c0,0,0,0-0.1,0.1c0,0,0,0,0,0.1c-0.1,0.2-0.2,0.4-0.2,0.6c0,0.5,0.3,0.9,0.7,1l0,0h0.1l0,0L14,8.8v5.3c0,0.5,0.2,0.9,0.6,1.2 c3,2.4,6.6,3.6,10.2,3.6S32,17.7,35,15.3c0.4-0.3,0.6-0.8,0.6-1.2V8.7l2.7-1.1h0.1c0,0.1,0.1,0.2,0.1,0.3V11 c-0.7,0.3-1.2,1-1.2,1.8c0,0.7,0.4,1.4,1,1.7l-0.9,3.3c-0.1,0.4,0.1,0.9,0.6,1c0.4,0.1,0.9-0.1,1-0.6l0.1-0.2l0.3-1l0.3,1l0.1,0.2 c0.1,0.4,0.4,0.6,0.8,0.6c0.1,0,0.1,0,0.2,0c0.4-0.1,0.7-0.6,0.6-1l-0.9-3.3c0.6-0.3,1-1,1-1.7c0-0.8-0.5-1.5-1.2-1.8V7.9 c0-0.1,0-0.2,0-0.3h5.1v23.9h-42V7.6H10C9.8,7.3,9.6,7,9.6,6.6S9.7,5.8,10,5.4H2.1C1.5,5.4,1,5.9,1,6.5v31.9c0,0.6,0.5,1.1,1.1,1.1 H17v6.2h-4c-0.6,0-1.1,0.5-1.1,1.1s0.5,1.1,1.1,1.1h22.6c0.6,0,1.1-0.5,1.1-1.1s-0.5-1.1-1.1-1.1h-4.2v-6.2h15 c0.6,0,1.1-0.5,1.1-1.1V6.5C47.5,5.9,47,5.4,46.4,5.4z M33.4,13.7c-5.1,3.9-12.1,3.9-17.2,0v-4l8.1,3.3c0.1,0.1,0.3,0.1,0.4,0.1 l0,0c0.1,0,0.3,0,0.4-0.1l8.2-3.3L33.4,13.7L33.4,13.7z M24.8,10.7L14.5,6.6l10.3-4.2L35,6.6L24.8,10.7z M39.3,13.2 c-0.2,0-0.4-0.2-0.4-0.4s0.2-0.4,0.4-0.4s0.4,0.2,0.4,0.4S39.5,13.2,39.3,13.2z M29.1,45.8h-9.8v-6.2h9.8 C29.1,39.6,29.1,45.8,29.1,45.8z M45.3,37.3h-42v-3.5h42V37.3z"></path> <path class="st0" d="M21.4,23.6H39c0.4,0,0.8-0.4,0.8-0.8S39.5,22,39,22H21.4c-0.4,0-0.8,0.4-0.8,0.8S21,23.6,21.4,23.6z"></path> <path class="st0" d="M21.4,27.8H39c0.4,0,0.8-0.4,0.8-0.8s-0.4-0.8-0.8-0.8H21.4c-0.4,0-0.8,0.4-0.8,0.8S21,27.8,21.4,27.8z"></path> <path class="st0" d="M8.6,22.8V27c0,0.4,0.4,0.8,0.8,0.8h7.2c0.4,0,0.8-0.4,0.8-0.8v-4.2c0-0.4-0.4-0.8-0.8-0.8H9.4 C8.9,22,8.6,22.4,8.6,22.8z M10.1,23.6h5.6v2.6h-5.6V23.6z"></path> <ellipse class="st0" cx="24.8" cy="6.6" rx="1.3" ry="0.8"></ellipse> </g> </svg> 