<?xml version="1.0" encoding="UTF-8"?> <!-- Generator: Adobe Illustrator 23.0.3, SVG Export Plug-In . SVG Version: 6.00 Build 0) --> <svg xmlns="http://www.w3.org/2000/svg" xmlns:xlink="http://www.w3.org/1999/xlink" version="1.1" id="Layer_1" x="0px" y="0px" viewBox="0 0 85 58" style="enable-background:new 0 0 85 58;" xml:space="preserve"> <style type="text/css"> .st0{display:none;} .st1{display:inline;} .st2{fill-rule:evenodd;clip-rule:evenodd;} .st3{fill:#FFFFFF;} .st4{display:inline;fill:#FFFFFF;} </style> <g class="st0"> <path class="st1" d="M43.29,49.46l27.33-7.95V11.13H13.41v30.38l27.33,7.95C41.38,49.65,42.65,49.65,43.29,49.46z M52.19,21.3 h10.81v2.54h-3.81v12.71H56V23.85h-3.81V21.3z M41.38,21.3h9.53v2.54h-6.36v3.18h5.09v3.18h-5.09v3.18h6.36v3.18h-9.53V21.3z M22.69,36.56c-1.14,0-1.97-0.89-1.97-2.1s0.83-2.16,1.97-2.16s1.97,0.89,1.97,2.16C24.73,35.67,23.9,36.56,22.69,36.56z M38.84,36.56h-3.56l-3.81-7.5L30,25.75h-0.06c0.13,1.27,0.7,3.43,0.7,5.21v5.59h-3.18V21.3h3.18l3.81,7.5l1.46,3.31h0.06 c-0.13-1.91-0.25-3.75-0.25-5.53V21.3h3.18v15.26H38.84z"></path> <path class="st1" d="M43.99,51.94c-0.57,0.19-1.27,0.25-1.97,0.25s-1.4-0.06-1.97-0.25l-26.63-7.75v4.2c0,0.83,0.7,1.72,1.53,1.97 l25.62,6.8c0.83,0.19,2.16,0.19,2.99,0l25.62-6.8c0.83-0.19,1.53-1.08,1.53-1.97v-4.2L43.99,51.94z"></path> <path class="st1" d="M70.62,8.59V1.85c0-0.83-0.7-1.53-1.53-1.53H43.54c-0.83,0-2.29,0-3.11,0H14.94c-0.83,0-1.53,0.7-1.53,1.53 v6.74H70.62z"></path> </g> <g id="Page-1" class="st0"> <g id="icon-78-document-file-java" class="st1"> <path id="document-file-java" class="st2" d="M50.58,49.11v4.25c0,2.35-1.9,4.24-4.24,4.24H14.48c-2.35,0-4.24-1.91-4.24-4.26 V4.54c0-2.35,1.91-4.26,4.26-4.26h21.21v12.74c0,2.36,1.91,4.24,4.26,4.24h10.6v4.25H22.99c-3.53,0-6.38,2.85-6.38,6.37v14.87 c0,3.52,2.84,6.37,6.38,6.37H50.58L50.58,49.11L50.58,49.11z M37.84,0.27v12.73c0,1.18,0.96,2.13,2.1,2.13h10.64L37.84,0.27 L37.84,0.27z M23,23.63c-2.35,0-4.26,1.91-4.26,4.23v14.9c0,2.34,1.91,4.23,4.26,4.23h48.8c2.35,0,4.26-1.91,4.26-4.23v-14.9 c0-2.34-1.91-4.23-4.26-4.23H23L23,23.63z M53.76,39.02l3.18-11.15h2.12l-4.25,14.86h-1.06H52.7l-4.25-14.86h2.12L53.76,39.02 L53.76,39.02z M22.98,36.37v2.11c0,2.35,1.9,4.26,4.26,4.26h2.1c2.35,0,4.26-1.88,4.26-4.26v-10.6h-2.12v10.64 c0,1.15-0.95,2.1-2.12,2.1h-2.13c-1.18,0-2.12-0.95-2.12-2.12v-2.12H22.98L22.98,36.37z M44.21,36.37h-6.37v6.37h-2.12v-7.43 v-3.18c0-2.36,1.91-4.25,4.26-4.25h2.1c2.36,0,4.26,1.9,4.26,4.25v4.25v6.37h-2.12V36.37L44.21,36.37z M39.96,30 c-1.17,0-2.12,0.94-2.12,2.12v2.12h6.37v-2.12c0-1.17-0.94-2.12-2.12-2.12H39.96L39.96,30z M69.69,36.37h-6.37v6.37H61.2v-7.43 v-3.18c0-2.36,1.91-4.25,4.26-4.25h2.1c2.36,0,4.26,1.9,4.26,4.25v4.25v6.37h-2.12V36.37L69.69,36.37z M65.44,30 c-1.17,0-2.12,0.94-2.12,2.12v2.12h6.37v-2.12c0-1.17-0.94-2.12-2.12-2.12H65.44L65.44,30z"></path> </g> </g> <g class="st0"> <g class="st1"> <path d="M32.69,2.07c8.82,0,16.41,5.24,19.82,12.75c1.77-1.2,3.91-1.92,6.23-1.92c5.96,0,10.8,4.7,10.98,10.57 c8.57,0.72,15.23,8.96,15.23,15.53v1.43c0,7.07-7.71,14.21-17.18,14.21H17.18C7.69,54.64,0,47.5,0,40.43v-1.43 c0-5.43,4.58-12.92,11.01-14.75c-0.02-0.21-0.03-0.42-0.03-0.63C10.98,11.72,20.7,2.07,32.69,2.07z"></path> </g> <g class="st1"> <path class="st3" d="M21.29,27.3l-5.67,19.82h3.33l1.28-4.86h5.84l1.23,4.86h3.32L25.37,27.3C25.37,27.3,21.29,27.3,21.29,27.3z M20.81,39.74l2.38-9.77h0.05l2.29,9.77H20.81z"></path> <polygon class="st3" points="44.88,42.78 44.82,42.78 42.14,27.3 38.78,27.3 36.16,42.7 36.1,42.7 33.48,27.3 30.26,27.3 34.12,47.12 37.81,47.12 40.35,32.18 40.41,32.18 42.98,47.12 46.67,47.12 50.63,27.3 47.47,27.3 "></polygon> <path class="st3" d="M60.89,36.29l-2.15-0.78c-2.12-0.8-2.99-1.66-2.99-3.35c0-2.11,1.31-2.86,2.68-2.86c1.98,0,2.8,1.05,2.8,2.86 v0.42h3.19v-0.45c0-2.05-0.53-5.22-5.64-5.22c-3.74,0-6.2,2-6.2,5.61c0,2.83,1.25,4.33,4.16,5.43l2.18,0.76 c1.79,0.52,2.85,1.44,2.85,3.52c0,1.47-1.01,2.89-3.02,2.89c-2.2,0-3.27-1.22-3.27-3.64v-0.5h-3.19v0.47 c0,2.78,1.12,6.05,6.06,6.05c4.03,0,6.6-1.75,6.6-5.96C64.95,38.82,63.71,37.29,60.89,36.29z"></path> </g> </g> <g id="comp_x5F_115-erlang" class="st0"> <g class="st1"> <path d="M11.79,1.14H0.29v53.43h13.24C6.98,47.63,3.14,38.04,3.15,26.59C3.14,16.47,6.32,7.77,11.79,1.14z M43.21,2.42 C37.16,2.44,31.99,6.84,31.45,13.4h22.41C53.71,6.84,49.31,2.44,43.21,2.42L43.21,2.42z M73.64,1.16h0.04l-0.01-0.01L73.64,1.16z M73.68,1.16c4.14,5.63,6.42,12.86,6.09,21.46c0.07,0.79,0.07,1.54,0,3.18H30.65c-0.03,14.47,5.13,25.71,18.28,25.76 c9.04-0.04,15.57-6.73,20.04-14l12.72,6.36c-2.3,4.08-4.82,7.62-7.64,10.66h10.66V1.16H73.68z"></path> </g> </g> <g id="comp_x5F_254-phoenix-framework" class="st0"> <g class="st1"> <path d="M28.23,40.71c0.5-0.01,3.02-0.19,3.39-0.29c-0.32-0.34-5.78-0.13-9.02-6.58c-0.57-1.14-0.99-2.33-0.85-3.66 c0.38-3.38,4.36-3.98,6.9-2.45c4.77,2.86,8.39,12.11,15.08,12.93c4.91,0.6,11.22-2.25,14.35-6.02c-0.08-0.01-0.11-0.03-0.13-0.01 c-0.05,0.01-0.11,0.03-0.15,0.04c-4.42,1.6-12.5,1.29-17.86-1.96c-4.99-3.02-7.04-7.78-6.87-9.89c0.24-2.82,3.04-3.08,4.76-2.6 c1.91,0.52,3.24,2.33,5.16,3.63c2.07,1.38,4.36,1.82,6.8,1.37c1.98-0.36,4.56-1.63,4.84-1.92c-0.15-0.01-0.24-0.01-0.33-0.03 c-0.82-0.08-1.64-0.11-2.45-0.23C37.1,20.84,34.76,1.34,18.37,0.08C12.49-0.37,5.18,1.15,0.29,4.72C0.19,4.8,0.09,4.88,0,4.96 C0.01,4.98,0.01,5,0.03,5.02c0.11,0,0.21-0.01,0.32-0.03C1.18,4.86,2,4.89,2.82,5.04c3.16,0.57,6.33,3.06,7.41,10.14 c0.7,4.55-0.09,6.74,1.06,11.42C13.82,36.82,23.37,40.87,28.23,40.71L28.23,40.71z M9.99,3.66C9.87,3.52,9.87,3.5,9.81,3.39 c1.6-0.34,3.21-0.54,4.85-0.64C14.52,4.71,11.72,5.58,9.99,3.66z M36.1,50.14c-5.68,0.16-12.2-3.54-16.38-8.14 c-0.61-0.66-2.23-2.68-2.47-3.1l0.05-0.05c0.88,0.54,3.41,2.47,7.27,3.58c3.21,0.93,6.38,0.84,9.49-0.44 c3.01-1.23,5.44-0.07,5.72,0.38c-2.45,0.5-2.67,0.58-3.18,1.05c-0.68,0.58-0.61,1.55,0.93,2.28c3.47,1.64,8.35-0.37,12.89,3.37 c0.32,0.27,1.07,1.03,1.34,1.42c-0.01,0.03-0.04,0.04-0.05,0.07c-0.64-0.2-2.17-0.99-5.33-1.23C43.1,49.05,40.23,50.02,36.1,50.14 L36.1,50.14z M59.28,16.72c2.17-0.69,5.48-1.78,8.82-0.44c2.14,0.86,3.47,2.48,4.26,4.59c0.46,1.25,0.68,2.61,0.68,3.81 c-0.03,0-0.05,0-0.08,0.01c-0.03-0.05-0.05-0.12-0.07-0.17c-0.66-2.92-3.96-5.81-8.96-3.97c-6.66,2.47-17.29,1.29-23.46-6.37 c-0.09-0.12-0.32-0.23-0.17-0.42c0.01-0.03,0.28,0.08,0.4,0.17c2.4,1.78,5.08,2.9,8,3.47C52.72,18.22,55.92,17.79,59.28,16.72 L59.28,16.72z M72.89,32.3c-4.3,0.03-4.48,6.64-13.74,8.54c-2.41,0.49-5.13,0.61-5.95,0.56v-0.05c0.37-0.2,1.95-0.34,3.94-2.2 c1.05-0.97,2.03-2,3.02-3.04c2.59-2.68,5.49-5.6,10.86-5.17c3.06,0.24,3.89,1.09,4.79,1.68c0.04,0.03,0.05,0.07,0.09,0.12 c-0.07,0-0.09,0.01-0.12,0C74.86,32.38,73.89,32.3,72.89,32.3L72.89,32.3z M71.26,29.1c-0.01,0.03-0.01,0.05-0.03,0.08 c-3.83-0.58-6.37-1.05-9.08,0.53c-2.25,1.31-4.16,2.72-8.22,3.24c-3.59,0.45-5.98,0.32-8.77-1.06c-0.04-0.03-0.08-0.05-0.13-0.08 c0-0.03,0.01-0.04,0.01-0.07c3.3,0.5,4.83,0.68,7.36-0.77c2.96-1.71,5.32-3.53,9.45-4.11C65.79,26.32,68.66,27.2,71.26,29.1z M35.62,7.95c-0.08-0.08-0.15-0.16-0.28-0.3c1.01,0,3.94-0.16,7.08,1.11c2.61,1.06,4.27,2.78,6.66,4.36 c1.47,0.97,3.1,1.23,4.83,1.07c0.57-0.05,1.13-0.16,1.7-0.23c0.05-0.01,0.12,0,0.2,0.04c-0.08,0.05-0.16,0.12-0.24,0.16 c-1.07,0.53-2.21,0.84-3.39,0.94c-3.46,0.34-6.67-0.49-9.73-2.04C39.87,11.76,37.61,10.04,35.62,7.95z M84.87,39.57 c-0.46,0.41-3.01,1.54-5.66,0.7c-1.63-0.52-2.59-1.98-4.19-3.2c-1.33-1.01-2.77-1.05-3.73-1.11c0.08-0.11,0.12-0.16,0.16-0.19 c1.96-1.22,4.04-1.62,6.27-0.86c1.66,0.56,2.55,1.79,4.03,3.21c1.43,1.38,2.78,1.31,3.06,1.39C84.83,39.5,84.84,39.51,84.87,39.57 L84.87,39.57z M56.69,57.73c0.29,0.16,0.21,0.2,0.2,0.27c-2.45-0.19-4.5-1.01-6.21-2.94c-2.89-3.28-5.53-3.7-6.44-3.94 c0.07-0.03,0.11-0.05,0.15-0.05c1.74,0.01,3.46,0.09,5.16,0.52c3.35,0.85,4.64,3.37,5.52,4.68C55.48,56.9,56.03,57.36,56.69,57.73 z"></path> </g> </g> <g class="st0"> <path class="st1" d="M47.45,0c1.31,0.29,2.41,1.04,3.55,1.7c6.2,3.59,12.38,7.2,18.59,10.76c1.92,1.1,2.81,2.65,2.8,4.86 c-0.03,7.78-0.03,15.57,0,23.35c0.01,2.17-0.87,3.71-2.75,4.79c-6.79,3.88-13.56,7.81-20.33,11.72c-0.92,0.53-1.87,0.93-2.96,0.78 c-0.24-0.03-0.5-0.06-0.7-0.17c-2.32-1.3-4.62-2.62-6.93-3.94c-0.67-0.38-1.32-0.78-2.05-1.21c1.03-0.49,2.01-0.95,2.99-1.41 c0.01-0.01,0.03-0.01,0.04-0.02c0.78-0.51,1.49-0.4,2.26,0.1c1.33,0.86,2.72,1.62,4.06,2.46c0.55,0.34,1.03,0.34,1.59,0.02 c6.7-3.88,13.41-7.76,20.12-11.63c0.61-0.35,0.9-0.81,0.9-1.53c-0.01-7.77-0.01-15.54,0-23.31c0-0.71-0.29-1.18-0.89-1.53 C61.05,11.95,54.37,8.08,47.71,4.2c-0.61-0.36-1.16-0.36-1.77,0c-6.67,3.88-13.34,7.75-20.02,11.61C25.24,16.2,25,16.76,25,17.53 c0.01,7.37,0.01,14.74,0.01,22.11c0,0.37,0,0.74,0,1.11c0.01,0.55,0.25,0.98,0.72,1.26c1.75,1.03,3.49,2.06,5.27,3.05 c0.85,0.48,1.78,0.8,2.78,0.67c1.44-0.18,2.39-1.24,2.41-2.74c0.03-1.71,0.02-3.42,0.02-5.12c0-6.12,0-12.25,0-18.37 c0-1.19,0.09-1.29,1.28-1.29c0.62,0,1.23-0.01,1.85,0.02c0.59,0.03,0.72,0.18,0.76,0.76c0.02,0.29,0.02,0.58,0.02,0.88 c-0.01,7.57,0,15.14-0.03,22.71c0,1.02-0.09,2.07-0.34,3.06c-0.57,2.22-2.42,3.68-4.76,3.97c-2.07,0.26-3.98-0.18-5.78-1.16 c-1.91-1.05-3.8-2.15-5.68-3.26c-1.23-0.73-1.99-1.8-2.21-3.24c-0.01-0.07-0.05-0.14-0.08-0.21c0-8.49,0-16.98,0-25.48 c0.31-2.05,1.7-3.16,3.39-4.13C30.6,8.71,36.54,5.23,42.5,1.78C43.67,1.1,44.8,0.31,46.16,0C46.59,0,47.02,0,47.45,0z"></path> <path class="st1" d="M53.04,41.09c-2.49-0.1-4.58-0.33-6.55-1.18c-2.73-1.19-4.18-3.27-4.34-6.25c-0.04-0.76,0.13-0.98,0.9-1.01 c0.74-0.03,1.48-0.03,2.21-0.02c0.53,0.01,0.81,0.24,0.88,0.76c0.33,2.46,1.87,3.38,3.7,3.69c2.34,0.4,4.68,0.47,7.01-0.07 c0.49-0.11,0.98-0.28,1.42-0.51c1.05-0.57,1.64-1.97,1.35-3.13c-0.17-0.66-0.64-1.06-1.26-1.23c-1.29-0.34-2.59-0.68-3.9-0.92 c-2.34-0.44-4.69-0.8-7.04-1.22c-0.4-0.07-0.8-0.22-1.18-0.37c-1.84-0.72-2.97-2.03-3.26-4.01c-0.28-1.93-0.03-3.74,1.3-5.28 c0.84-0.97,1.94-1.54,3.15-1.92c3.63-1.13,7.27-1.32,10.9,0.02c2.96,1.09,4.37,3.33,4.68,6.37c0.05,0.5-0.2,0.81-0.71,0.83 c-0.75,0.03-1.51,0.03-2.26-0.01c-0.51-0.03-0.88-0.32-1.04-0.84c-0.65-2.13-1.85-3.18-4.06-3.34c-1.89-0.14-3.78-0.09-5.66,0.23 c-1.54,0.26-2.37,1.4-2.2,2.95c0.08,0.72,0.51,1.14,1.18,1.3c1.14,0.27,2.28,0.51,3.42,0.74c2.65,0.53,5.31,1.01,7.95,1.59 c1.8,0.4,3.25,1.36,3.86,3.2c0.79,2.39,0.58,5.93-2.75,7.91c-1.71,1.02-3.58,1.44-5.53,1.6C54.38,41.05,53.52,41.06,53.04,41.09z"></path> </g> <g> <path d="M71.28,17.9c-0.24,1.12-0.45,2.25-0.72,3.37c-0.55,2.24-1.65,4.21-3.16,6.01c-0.25-0.24-0.49-0.44-0.72-0.67 c-1.93-1.93-3.86-3.86-5.79-5.79c-0.61-0.61-0.62-0.69-0.24-1.45c1.26-2.54,0.65-5.82-1.44-7.75c-2.17-2-5.37-2.36-7.85-0.81 c-0.8,0.5-1.56,1.09-2.23,1.75c-4.64,4.61-9.25,9.26-13.87,13.89c-0.25,0.25-0.47,0.53-0.66,0.75c-2.37-2.35-4.74-4.69-7.09-7.01 c2.63-2.63,5.27-5.28,7.91-7.92c2.31-2.31,4.63-4.62,6.94-6.94c2.66-2.66,5.79-4.43,9.52-5.09c0.56-0.1,1.13-0.17,1.7-0.25 c0.68,0,1.36,0,2.03,0c0.43,0.06,0.86,0.13,1.3,0.19c6.5,0.86,12.02,5.74,13.67,12.11c0.27,1.05,0.47,2.11,0.7,3.17 C71.28,16.27,71.28,17.09,71.28,17.9z"></path> <path d="M13.3,15.16c0.18-0.8,0.33-1.62,0.55-2.41c1.7-6.15,5.49-10.29,11.7-12.01c5.1-1.41,9.83-0.57,14.12,2.56 c0.18,0.13,0.34,0.27,0.54,0.43c-0.12,0.14-0.21,0.26-0.31,0.37c-1.98,2.14-3.96,4.28-5.93,6.43c-0.24,0.26-0.44,0.31-0.78,0.2 c-0.93-0.29-1.87-0.63-2.83-0.77c-3.46-0.49-6.75,2.09-7.21,5.59c-0.33,2.56,0.73,4.6,2.45,6.35c3.38,3.45,6.81,6.86,10.21,10.29 c1.5,1.51,2.99,3.04,4.47,4.55c-2.31,2.29-4.68,4.64-7.01,6.96c-0.53-0.55-1.13-1.18-1.74-1.79c-4.23-4.26-8.46-8.52-12.7-12.76 c-2.48-2.49-4.31-5.35-5.08-8.81c-0.11-0.51-0.17-1.04-0.27-1.55c-0.04-0.22-0.13-0.44-0.19-0.66C13.3,17.12,13.3,16.14,13.3,15.16 z"></path> <path d="M43.88,54.03c0.18-0.12,0.36-0.21,0.49-0.34c2.02-1.98,4.04-3.96,6.06-5.94c0.57-0.56,0.65-0.57,1.37-0.23 c4.59,2.18,9.68-1.13,9.49-6.19c-0.07-2.02-1.02-3.66-2.39-5.07c-1.26-1.3-2.55-2.58-3.82-3.87c-3.43-3.45-6.87-6.89-10.3-10.34 c-0.27-0.27-0.53-0.56-0.84-0.88c2.26-2.38,4.49-4.74,6.75-7.13c0.24,0.22,0.47,0.41,0.68,0.63c4.76,4.78,9.52,9.56,14.26,14.36 c2.28,2.3,4.06,4.92,4.86,8.09c2.38,9.44-3.47,18.84-13.15,20.65c-1.48,0.28-2.97,0.25-4.45,0.2 C50.21,57.88,45.96,56.02,43.88,54.03z"></path> <path d="M17.22,30.8c2.23,2.28,4.4,4.49,6.58,6.7c0.36,0.37,0.24,0.72,0.06,1.11c-0.88,1.88-0.98,3.79-0.15,5.7 c1.74,3.98,6.92,5.16,10.38,2.37c0.33-0.27,0.64-0.56,0.94-0.86c4.71-4.73,9.42-9.47,14.13-14.2c0.28-0.28,0.52-0.61,0.81-0.95 c2.4,2.3,4.8,4.59,7.2,6.9c-0.13,0.14-0.23,0.26-0.34,0.36c-4.83,4.85-9.67,9.7-14.5,14.55c-2.57,2.58-5.56,4.41-9.16,5.16 c-8.23,1.71-17.01-3.23-19.24-12.22c-1.27-5.1-0.36-9.81,2.81-14.04C16.86,31.23,16.99,31.08,17.22,30.8z"></path> </g> <path class="st0" d="M40.31,23.07c-3.19,0-5.78,2.59-5.78,5.78s2.59,5.78,5.78,5.78s5.78-2.59,5.78-5.78S43.5,23.07,40.31,23.07z M24.11,40.36l-1.28-0.32c-9.51-2.4-14.96-6.48-14.96-11.19s5.45-8.78,14.96-11.19l1.28-0.32l0.36,1.26 c0.96,3.32,2.2,6.55,3.68,9.67l0.27,0.58l-0.27,0.58c-1.49,3.12-2.72,6.35-3.68,9.67C24.47,39.09,24.11,40.36,24.11,40.36z M22.25,20.61c-7.23,2.03-11.66,5.14-11.66,8.23c0,3.09,4.44,6.2,11.66,8.23c0.88-2.81,1.95-5.56,3.19-8.23 C24.2,26.17,23.13,23.42,22.25,20.61z M56.51,40.36l-0.36-1.27c-0.96-3.32-2.2-6.55-3.69-9.67l-0.27-0.58l0.27-0.58 c1.49-3.12,2.72-6.35,3.69-9.67l0.36-1.26l1.28,0.32c9.51,2.4,14.96,6.48,14.96,11.19s-5.45,8.78-14.96,11.19L56.51,40.36z M55.18,28.85c1.3,2.81,2.37,5.57,3.19,8.23c7.23-2.03,11.66-5.14,11.66-8.23c0-3.1-4.44-6.2-11.66-8.23 C57.49,23.42,56.42,26.17,55.18,28.85z M22.23,20.6l-0.36-1.26C19.2,9.91,20.01,3.16,24.09,0.81c4.01-2.31,10.44,0.42,17.19,7.34 l0.92,0.94l-0.92,0.94c-2.4,2.49-4.59,5.17-6.55,8.02l-0.36,0.52l-0.64,0.05c-3.45,0.27-6.87,0.82-10.23,1.65 C23.5,20.28,22.23,20.6,22.23,20.6z M27.35,2.68c-0.72,0-1.36,0.16-1.91,0.47c-2.69,1.55-3.16,6.93-1.31,14.2 c2.88-0.64,5.8-1.09,8.74-1.35c1.7-2.41,3.55-4.71,5.55-6.88C34.2,5.01,30.21,2.68,27.35,2.68z M53.27,57.71 C53.27,57.71,53.27,57.71,53.27,57.71c-3.85,0-8.8-2.9-13.93-8.17l-0.92-0.94l0.92-0.94c2.4-2.49,4.58-5.17,6.54-8.02l0.36-0.52 l0.63-0.05c3.45-0.27,6.87-0.82,10.24-1.65l1.28-0.32l0.36,1.26c2.67,9.42,1.86,16.17-2.23,18.53 C55.53,57.44,54.41,57.73,53.27,57.71z M42.2,48.58c4.22,4.11,8.21,6.44,11.07,6.44h0c0.72,0,1.36-0.16,1.9-0.47 c2.69-1.55,3.17-6.94,1.31-14.2c-2.88,0.64-5.8,1.09-8.74,1.35C46.05,44.11,44.2,46.41,42.2,48.58z M58.39,20.6l-1.28-0.32 c-3.36-0.83-6.78-1.38-10.24-1.65l-0.63-0.05l-0.36-0.52c-1.96-2.85-4.15-5.53-6.54-8.02l-0.92-0.94l0.92-0.94 c6.74-6.92,13.17-9.65,17.19-7.34c4.09,2.36,4.9,9.11,2.23,18.53C58.75,19.33,58.39,20.6,58.39,20.6z M47.74,15.99 c3.09,0.28,6.02,0.74,8.74,1.35c1.85-7.27,1.38-12.65-1.31-14.2C52.5,1.6,47.48,3.97,42.2,9.11C44.2,11.28,46.05,13.58,47.74,15.99z M27.35,57.71c-1.14,0.02-2.27-0.27-3.26-0.83c-4.09-2.35-4.9-9.11-2.22-18.53l0.36-1.26l1.28,0.32c3.12,0.79,6.57,1.34,10.23,1.65 l0.64,0.05l0.36,0.52c1.96,2.85,4.15,5.53,6.55,8.02l0.92,0.94l-0.92,0.94C36.14,54.81,31.2,57.71,27.35,57.71z M24.14,40.34 c-1.85,7.27-1.38,12.65,1.31,14.2c2.67,1.52,7.68-0.82,12.97-5.97c-2-2.17-3.85-4.47-5.55-6.88C29.94,41.44,27.02,40.99,24.14,40.34 z M40.31,42.04c-2.22,0-4.51-0.1-6.8-0.29l-0.64-0.05l-0.36-0.52c-1.29-1.86-2.51-3.77-3.65-5.74c-1.13-1.96-2.18-3.97-3.15-6.02 l-0.27-0.58l0.27-0.58c0.97-2.05,2.02-4.06,3.15-6.02c1.12-1.94,2.35-3.87,3.65-5.74l0.36-0.52l0.64-0.05 c4.53-0.38,9.08-0.38,13.6,0l0.63,0.05l0.36,0.52c2.59,3.72,4.87,7.65,6.8,11.76l0.27,0.58l-0.27,0.58 c-1.93,4.1-4.21,8.04-6.8,11.76l-0.36,0.52l-0.63,0.05C44.82,41.94,42.53,42.04,40.31,42.04z M34.37,39.11c4,0.3,7.88,0.3,11.88,0 c2.23-3.27,4.22-6.7,5.94-10.27c-1.71-3.57-3.7-7-5.94-10.27c-3.95-0.3-7.92-0.3-11.88,0c-2.24,3.26-4.23,6.7-5.94,10.27 C30.15,32.41,32.14,35.84,34.37,39.11z"></path> <path class="st0" d="M56.02,40.39c2.21-0.19,3.92-2.14,3.81-4.46c-0.12-2.32-2.02-4.19-4.34-4.19h-0.16c-2.4,0.08-4.27,2.1-4.19,4.5 c0.08,1.22,0.57,2.21,1.26,2.93c-2.66,5.18-6.66,8.99-12.72,12.19c-4.08,2.13-8.38,2.93-12.57,2.36c-3.5-0.49-6.25-2.06-7.92-4.57 c-2.51-3.81-2.74-7.92-0.65-12.04c1.53-2.97,3.81-5.14,5.34-6.21c-0.38-0.99-0.84-2.66-1.07-3.92 c-11.28,8.08-10.13,19.12-6.71,24.34c2.55,3.81,7.77,6.25,13.49,6.25c1.52,0,3.13-0.11,4.69-0.49c9.91-1.9,17.41-7.85,21.72-16.61 L56.02,40.39z M69.61,30.86c-5.9-6.93-14.59-10.74-24.5-10.74h-1.3c-0.64-1.41-2.13-2.29-3.81-2.29H39.9c-2.4,0-4.27,2.06-4.19,4.46 c0.08,2.28,2.02,4.19,4.34,4.19h0.19c1.72-0.08,3.2-1.14,3.81-2.67h1.41c5.87,0,11.43,1.71,16.5,5.07c3.88,2.55,6.67,5.9,8.23,9.91 c1.37,3.28,1.29,6.48-0.11,9.15c-2.17,4.19-5.83,6.4-10.67,6.4c-3.05,0-6.02-0.95-7.54-1.64c-0.91,0.76-2.44,2.02-3.54,2.78 c3.35,1.52,6.74,2.4,10.02,2.4c7.43,0,12.95-4.19,15.05-8.23c2.28-4.57,2.1-12.27-3.74-18.86C69.65,30.79,69.61,30.86,69.61,30.86z M30.22,41.75c0.07,2.29,2.02,4.19,4.34,4.19h0.15c2.44-0.08,4.3-2.09,4.19-4.5c0-2.29-1.98-4.19-4.3-4.19h-0.16 c-0.15,0-0.38,0-0.57,0.07c-3.16-5.33-4.5-11.05-4-17.22c0.3-4.65,1.83-8.69,4.57-12.04c2.29-2.86,6.59-4.27,9.53-4.34 c8.23-0.16,11.66,10.1,11.92,14.17l3.81,1.14C58.83,6.56,51.06,0,43.63,0c-6.97,0-13.41,5.07-16,12.5 c-3.54,9.91-1.22,19.43,3.13,27.05C30.38,40.04,30.15,40.92,30.22,41.75z"></path> <g id="comp_x5F_21-angular" class="st0"> <g class="st1"> <path d="M36.87,30.58h9.87L41.8,18.72L36.87,30.58L36.87,30.58z M41.8,0L14.89,9.64l4.12,35.71L41.8,58.02L64.6,45.34l4.12-35.71 L41.8,0z M58.66,44.27h-6.29l-3.39-8.47H34.65l-3.39,8.47h-6.31L41.8,6.41L58.66,44.27z"></path> </g> </g> <g id="comp_x5F_367-vuejs" class="st0"> <g class="st1"> <path d="M61.14,0H49.56l-8.44,13.35L33.89,0H7.37l33.75,57.81L74.87,0H61.14z M15.76,4.82h8.11l17.25,29.86L58.36,4.82h8.11 L41.12,48.24L15.76,4.82L15.76,4.82z"></path> </g> </g> <g class="st0"> <path class="st1" d="M45.44,23.56c-3.81-3.81-8.88-5.91-14.26-5.91c-4.47,0-8.72,1.45-12.22,4.12c-0.05,0.04-0.1,0.07-0.15,0.12 c-0.66,0.51-1.3,1.07-1.9,1.67C13.1,27.37,11,32.44,11,37.83c0,5.39,2.1,10.45,5.91,14.26C20.72,55.9,25.78,58,31.17,58 c4.48,0,8.73-1.45,12.23-4.13c0.05-0.04,0.1-0.07,0.15-0.12c0.66-0.51,1.29-1.06,1.89-1.66c2.73-2.73,4.58-6.11,5.41-9.79 c0.06-0.15,0.09-0.31,0.1-0.47c0.26-1.31,0.4-2.65,0.4-4.01C51.35,32.44,49.25,27.37,45.44,23.56z M30.83,20.74 c0.01,0.09,0.01,0.19,0.01,0.28c0,2.7-2.2,4.9-4.9,4.9c-1.74,0-3.31-0.91-4.18-2.35C24.37,21.84,27.49,20.81,30.83,20.74z M42.46,50.65c-0.98-0.91-1.54-2.19-1.54-3.57c0-2.7,2.2-4.9,4.9-4.9c0.62,0,1.23,0.12,1.79,0.34 C46.69,45.7,44.88,48.51,42.46,50.65z M48.19,39.46c-0.76-0.24-1.56-0.36-2.37-0.36c-4.4,0-7.98,3.58-7.98,7.98 c0,2.02,0.78,3.95,2.12,5.41c-2.57,1.55-5.57,2.44-8.78,2.44c-9.43,0-17.09-7.67-17.09-17.09c0-4.84,2.02-9.21,5.27-12.32 c1.46,2.15,3.9,3.5,6.6,3.5c4.4,0,7.98-3.58,7.98-7.98c0-0.02,0-0.04,0-0.06c8.12,1.32,14.35,8.38,14.35,16.87 C48.27,38.38,48.24,38.92,48.19,39.46z"></path> <g class="st1"> <path d="M67.46,16.71c0.39,0,0.79,0.15,1.09,0.45c0.6,0.6,0.6,1.58,0,2.18L56.53,31.36c-0.6,0.6-1.58,0.6-2.18,0 c-0.6-0.6-0.6-1.58,0-2.18l12.02-12.02C66.67,16.86,67.07,16.71,67.46,16.71z"></path> </g> <g class="st1"> <path d="M67.46,0c0.39,0,0.79,0.15,1.09,0.45c0.6,0.6,0.6,1.58,0,2.18L51.02,20.15c-0.6,0.6-1.58,0.6-2.18,0 c-0.6-0.6-0.6-1.58,0-2.18L66.37,0.45C66.67,0.15,67.07,0,67.46,0z"></path> </g> <g class="st1"> <path d="M50.75,0c0.39,0,0.79,0.15,1.09,0.45c0.6,0.6,0.6,1.58,0,2.18L39.82,14.65c-0.6,0.6-1.58,0.6-2.18,0 c-0.6-0.6-0.6-1.58,0-2.18L49.66,0.45C49.96,0.15,50.35,0,50.75,0z"></path> </g> <path class="st1" d="M25.94,36.21c-3.38,0-6.13,2.75-6.13,6.13c0,3.38,2.75,6.13,6.13,6.13c3.38,0,6.13-2.75,6.13-6.13 C32.07,38.96,29.32,36.21,25.94,36.21z M25.94,45.39c-1.68,0-3.05-1.37-3.05-3.05c0-1.68,1.37-3.05,3.05-3.05 c1.68,0,3.05,1.37,3.05,3.05C28.99,44.02,27.63,45.39,25.94,45.39z"></path> </g> <g id="Layer_7" class="st0"> <g class="st1"> <path id="path1948_1_" d="M40.98,0c-2.36,0.01-4.62,0.21-6.6,0.56c-5.84,1.03-6.9,3.19-6.9,7.18v5.26h13.81v1.75H27.48h-5.18 c-4.01,0-7.53,2.41-8.63,7c-1.27,5.26-1.32,8.54,0,14.04c0.98,4.09,3.33,7,7.34,7h4.75v-6.31c0-4.56,3.94-8.58,8.63-8.58h13.79 c3.84,0,6.9-3.16,6.9-7.02V7.74c0-3.74-3.16-6.55-6.9-7.18C45.8,0.17,43.34-0.01,40.98,0z M33.51,4.23c1.43,0,2.59,1.18,2.59,2.64 c0,1.45-1.17,2.62-2.59,2.62c-1.43,0-2.59-1.17-2.59-2.62C30.92,5.42,32.08,4.23,33.51,4.23z"></path> <path id="path1950_1_" d="M56.8,14.76v6.13c0,4.75-4.03,8.76-8.63,8.76H34.38c-3.78,0-6.9,3.23-6.9,7.02v13.15 c0,3.74,3.25,5.94,6.9,7.02c4.37,1.29,8.56,1.52,13.79,0c3.48-1.01,6.9-3.03,6.9-7.02v-5.26H41.28V42.8h13.79h6.9 c4.01,0,5.51-2.8,6.9-7c1.44-4.33,1.38-8.49,0-14.04c-0.99-3.99-2.89-7-6.9-7L56.8,14.76L56.8,14.76z M49.04,48.06 c1.43,0,2.59,1.17,2.59,2.62c0,1.46-1.16,2.64-2.59,2.64c-1.43,0-2.59-1.18-2.59-2.64C46.45,49.23,47.62,48.06,49.04,48.06z"></path> </g> </g> <g class="st0"> <path class="st1" d="M41.02,57.53C25.01,57.22,12.3,44.72,12.35,28.55C12.41,12.78,25.08-0.08,41.23,0 c15.89,0.08,28.68,12.78,28.58,28.95C69.73,44.7,57.14,57.29,41.02,57.53z M43.42,11.3c-1.93,0-3.81,0.01-5.67-0.01 c-0.47-0.01-0.58,0.16-0.58,0.6c0.01,2.72,0.01,5.44,0.01,8.15c0,0.23,0,0.45,0,0.71c-1.89-0.39-3.7-0.39-5.51,0.01 c-3.16,0.71-5.57,2.39-6.9,5.41c-1.08,2.45-1.21,5.03-0.66,7.65c0.5,2.31,1.69,4.15,3.72,5.41c1.42,0.88,3,1.3,4.63,1.55 c2.69,0.4,5.38,0.2,8.05-0.17c0.97-0.14,1.93-0.31,2.89-0.47C43.42,30.49,43.42,20.94,43.42,11.3z M40.96,46.59 c1.97,0.93,3.81,1.8,5.66,2.66c0.12,0.06,0.3,0.01,0.43-0.05c2.53-1.2,4.45-3,5.39-5.71c0.76-2.2,0.89-4.49,0.91-6.78 c0.03-5.03,0.01-10.05,0.01-15.08c0-0.21,0-0.42,0-0.66c-2.12,0-4.16,0-6.27,0c0,0.27,0,0.5,0,0.72c0,3.82,0.02,7.63-0.01,11.44 c-0.01,1.83-0.08,3.65-0.21,5.48c-0.23,3.47-1.78,6.08-5.05,7.53C41.56,46.24,41.33,46.39,40.96,46.59z M47.12,17.74 c2.11,0,4.14,0,6.2,0c0-2.13,0-4.21,0-6.34c-2.08,0-4.13,0-6.2,0C47.12,13.54,47.12,15.63,47.12,17.74z"></path> <path class="st1" d="M37.19,30.82c0,1.48-0.01,2.96,0.01,4.44c0,0.36-0.09,0.53-0.47,0.53c-0.87,0-1.73,0.13-2.59,0.01 c-2.37-0.32-3.68-1.7-3.86-4.09c-0.07-0.9-0.02-1.86,0.2-2.74c0.53-2.19,2.01-3.33,4.28-3.42c0.61-0.02,1.23,0.08,1.84,0.14 c0.46,0.03,0.64,0.25,0.62,0.75C37.16,27.9,37.19,29.36,37.19,30.82z"></path> </g> <g id="Page-1_1_" class="st0"> <g id="icon-86-document-file-php" class="st1"> <path id="document-file-php" class="st2" d="M52.07,49.36v4.3c0,2.37-1.92,4.29-4.29,4.29h-32.2c-2.37,0-4.29-1.93-4.29-4.31V4.31 C11.29,1.93,13.22,0,15.6,0h21.44v12.88c0,2.39,1.93,4.29,4.3,4.29h10.72v4.29h-19.3c-3.56,0-6.45,2.88-6.45,6.44v15.03 c0,3.55,2.87,6.44,6.45,6.44H52.07L52.07,49.36z M39.19,0v12.87c0,1.19,0.97,2.15,2.13,2.15h10.75L39.19,0L39.19,0z M32.74,23.61 c-2.36,0-4.28,1.93-4.28,4.27v15.06c0,2.36,1.94,4.27,4.28,4.27h36.5c2.36,0,4.28-1.93,4.28-4.27V27.88 c0-2.36-1.94-4.27-4.28-4.27H32.74L32.74,23.61z M32.75,32.19v10.73h2.15v-6.44h4.28c2.38,0,4.3-1.91,4.3-4.29 c0-2.37-1.92-4.29-4.3-4.29h-6.43V32.19L32.75,32.19z M34.9,30.04v4.29h4.29c1.18,0,2.14-0.95,2.14-2.15 c0-1.19-0.95-2.15-2.14-2.15H34.9L34.9,30.04z M54.21,34.34V27.9h2.15v15.02h-2.15v-6.44h-6.44v6.44h-2.15V27.9h2.15v6.44H54.21 L54.21,34.34z M58.5,32.19v10.73h2.15v-6.44h4.28c2.38,0,4.3-1.91,4.3-4.29c0-2.37-1.92-4.29-4.3-4.29H58.5V32.19L58.5,32.19z M60.65,30.04v4.29h4.29c1.18,0,2.14-0.95,2.14-2.15c0-1.19-0.95-2.15-2.14-2.15H60.65L60.65,30.04z"></path> </g> </g> <g class="st0"> <circle id="ellipse" class="st1" cx="41.59" cy="29.08" r="28.92"></circle> <path id="logo" class="st4" d="M45.44,42.59c-0.37-0.12-0.61-0.4-0.81-0.72c-0.28-0.47-0.59-0.94-0.86-1.42 c-1.03-1.84-2.06-3.66-3.08-5.5c-0.03-0.05-0.06-0.09-0.09-0.15c-0.17,0.05-0.33,0.09-0.5,0.12c-2.27,0.59-4.52,1.18-6.79,1.75 c-0.27,0.07-0.53,0.15-0.8,0.15c-0.54,0-0.96-0.24-1.24-0.7c-0.07-0.11-0.12-0.23-0.17-0.36c-2.08-4.5-4.17-9-6.24-13.49 c-0.37-0.8-0.75-1.62-1.1-2.41c-0.09-0.2-0.15-0.42-0.23-0.63c-0.01-0.03-0.03-0.06-0.05-0.09c0-0.09,0-0.17,0-0.26 c0.01-0.05,0.05-0.07,0.06-0.11c0.05-0.12,0.12-0.21,0.26-0.27c0.1-0.05,0.2-0.07,0.31-0.07c0.54-0.06,1.08-0.1,1.63-0.15 c0.75-0.06,1.5-0.11,2.24-0.17c0.96-0.07,1.92-0.16,2.88-0.23c0.16-0.01,0.32-0.03,0.45-0.06c0.16,0,0.32,0,0.49,0 c0.03,0.01,0.06,0.01,0.09,0.03c0.23,0.03,0.4,0.15,0.53,0.34c0.11,0.17,0.23,0.34,0.34,0.51c2.82,4.73,5.66,9.46,8.49,14.19 c0.03,0.05,0.06,0.1,0.1,0.16c3.64-0.87,7.28-1.74,10.94-2.62c-0.05-0.06-0.06-0.1-0.09-0.12c-1.18-1.65-2.33-3.3-3.49-4.95 c-0.05-0.06-0.09-0.12-0.11-0.2c-0.09-0.17-0.05-0.32,0.12-0.4c0.12-0.06,0.26-0.11,0.4-0.15c0.67-0.11,1.34-0.23,2-0.34 c0.88-0.15,1.77-0.31,2.64-0.44c0.23-0.05,0.44-0.07,0.67-0.1c0.2-0.03,0.38,0.03,0.55,0.15c0.17,0.12,0.32,0.28,0.45,0.44 c0.9,1.11,1.8,2.23,2.7,3.33c0.47,0.59,0.96,1.18,1.42,1.75c0.05,0.05,0.07,0.1,0.1,0.15c0,0.07,0,0.16,0,0.23 c-0.09,0.15-0.24,0.18-0.38,0.23c-1.58,0.43-3.16,0.84-4.75,1.27c-0.05,0.01-0.1,0.03-0.16,0.05c0.05,0.06,0.06,0.09,0.09,0.12 c0.72,0.97,1.43,1.92,2.17,2.89c0.72,0.97,1.43,1.94,2.16,2.91c0.06,0.09,0.11,0.17,0.16,0.27c0.09,0.17,0.05,0.32-0.11,0.42 c-0.1,0.07-0.2,0.12-0.32,0.16c-0.36,0.15-0.71,0.27-1.07,0.4c-2.94,1.05-5.88,2.11-8.81,3.16c-0.71,0.26-1.42,0.5-2.16,0.75 c-0.18,0.06-0.38,0.1-0.56,0.16C45.74,42.59,45.6,42.59,45.44,42.59z M31.17,18.87c-0.45,0.05-0.92,0.09-1.38,0.11 c-0.49,0.05-0.96,0.09-1.43,0.12c-0.6,0.06-1.21,0.1-1.81,0.16c-0.4,0.03-0.8,0.07-1.2,0.1c-0.1,0.01-0.12,0.05-0.11,0.15 c0.01,0.06,0.03,0.11,0.06,0.16c0.05,0.1,0.09,0.18,0.15,0.28c1.84,3.78,3.68,7.57,5.5,11.35c0.6,1.23,1.19,2.45,1.77,3.68 c0.03,0.07,0.07,0.1,0.15,0.09c0.1-0.01,0.2-0.03,0.28-0.06c1.97-0.47,3.92-0.94,5.89-1.4c0.2-0.05,0.42-0.1,0.61-0.15 c0.15-0.05,0.18-0.11,0.12-0.26c-0.03-0.07-0.06-0.12-0.1-0.18c-2.7-4.65-5.38-9.29-8.07-13.93 C31.44,18.85,31.44,18.85,31.17,18.87z M42.12,34.4c0.03,0.06,0.05,0.09,0.07,0.11c0.8,1.38,1.62,2.78,2.43,4.17 c0.32,0.54,0.64,1.08,0.97,1.63c0.07,0.11,0.16,0.23,0.24,0.33c0.1,0.1,0.23,0.12,0.36,0.07c0.06-0.03,0.11-0.05,0.17-0.06 c2.38-0.81,4.77-1.63,7.14-2.43c1.08-0.37,2.17-0.72,3.25-1.1c0.06-0.01,0.12-0.05,0.18-0.07c0.11-0.06,0.12-0.11,0.06-0.21 c-0.05-0.07-0.1-0.16-0.15-0.23c-0.43-0.6-0.87-1.19-1.3-1.79c-0.71-0.97-1.41-1.94-2.12-2.91c-0.06-0.09-0.11-0.17-0.18-0.26 s-0.16-0.12-0.27-0.09c-0.09,0.03-0.16,0.05-0.24,0.07c-1.15,0.31-2.3,0.6-3.47,0.9c-2.33,0.6-4.65,1.21-6.97,1.81 C42.23,34.35,42.17,34.37,42.12,34.4z M53.46,30.16c0.03,0,0.06-0.01,0.09-0.01c1.37-0.34,2.76-0.67,4.12-1.02 c0.06-0.01,0.11-0.03,0.17-0.06c0.12-0.06,0.16-0.12,0.06-0.24c-0.01-0.01-0.03-0.05-0.05-0.06c-1.02-1.29-2.01-2.56-3.03-3.84 c-0.01-0.03-0.05-0.06-0.06-0.07c-0.1-0.11-0.21-0.15-0.37-0.11c-1.23,0.23-2.45,0.44-3.68,0.67c-0.15,0.03-0.31,0.05-0.44,0.09 c-0.12,0.03-0.15,0.09-0.09,0.18c0.03,0.05,0.06,0.1,0.1,0.15c1.03,1.4,2.05,2.81,3.06,4.2C53.39,30.08,53.42,30.13,53.46,30.16z"></path> </g> <g id="Codeigniter" class="st0"> <path class="st1" d="M52.94,20.82l-0.24-0.14c-0.55-0.37-1.3-0.21-1.67,0.34c-0.16,0.25-0.23,0.54-0.19,0.84 c0.07,0.49-0.08,0.98-0.41,1.35c-0.52,0.55-1.24,0.86-2,0.87c-1.3-0.06-2.35-1.1-2.41-2.41c-0.05-1.31,0.14-2.61,0.55-3.85 c0.49-1.47,0.71-3.02,0.65-4.57c0-4.81-0.58-7.41-6.4-12.9c-0.47-0.47-1.24-0.46-1.7,0.01c-0.28,0.29-0.4,0.7-0.32,1.09 c1.4,6.88-2.82,10.59-8.16,15.09c-1.47,1.35-3.18,2.72-4.72,4.28c-7.27,7.24-8.78,13.62-8.78,17.68c0,7.22,2.67,16.34,15.37,19.25 h0.29c0.66,0.02,1.22-0.51,1.23-1.17c0.01-0.45-0.23-0.87-0.63-1.09c-4.55-4.21-5.44-6.33-5.44-8.57c0.24-2.33,1.25-4.51,2.86-6.21 c-0.04,0.99,0.22,1.97,0.75,2.82c1.16,1.46,2.95,2.27,4.81,2.19c2.84,0,4.81-2.41,4.81-6.02c-0.22-1.83-1.14-3.51-2.57-4.67 c-1.18-0.93-1.98-2.27-2.24-3.75c0.01-0.96,0.2-1.91,0.58-2.79c0.6,1.02,1.42,1.89,2.41,2.55c0.6,0.43,1.49,1.01,2.53,1.66 c3.99,2.41,11.4,7.22,11.4,11.79c0,5.97-2.19,7.8-6.71,11.04c-0.54,0.38-0.68,1.13-0.3,1.68c0.23,0.33,0.6,0.52,1,0.51h0.26 c8.73-1.92,17.78-9.62,17.78-19.25S56.95,23.44,52.94,20.82z"></path> </g> <g class="st0"> <path class="st1" d="M40.59,0c0.81,0,1.61,0,2.42,0c0.11,0.02,0.21,0.04,0.32,0.05c1.58,0.08,3.14,0.29,4.68,0.63 c3.76,0.83,7.22,2.35,10.38,4.56c0.15,0.11,0.24,0.1,0.39,0c0.71-0.52,1.51-0.83,2.39-0.88c2.02-0.13,3.6,0.66,4.62,2.4 c1.01,1.74,0.89,3.51-0.21,5.2c-0.05,0.08-0.11,0.16-0.16,0.23c0.27,0.4,0.53,0.79,0.78,1.18c2.59,4.07,4.09,8.5,4.48,13.3 c0.03,0.36,0.06,0.73,0.1,1.09c0,0.82,0,1.65,0,2.47c-0.01,0.1-0.04,0.19-0.04,0.29c-0.12,2.37-0.51,4.7-1.22,6.97 c-2.2,6.99-6.42,12.42-12.65,16.27c-3.72,2.3-7.78,3.65-12.14,4.08c-0.59,0.06-1.18,0.1-1.76,0.15c-0.79,0-1.58,0-2.37,0 c-0.09-0.01-0.18-0.04-0.26-0.04c-3.13-0.15-6.16-0.77-9.07-1.93c-6.96-2.78-12.13-7.53-15.5-14.22c-1.57-3.11-2.49-6.42-2.83-9.88 c-0.05-0.56-0.1-1.12-0.15-1.68c0-0.82,0-1.65,0-2.47c0.02-0.12,0.04-0.24,0.05-0.37c0.13-2.42,0.54-4.79,1.28-7.09 c2.22-6.88,6.42-12.24,12.56-16.05c3.73-2.31,7.8-3.66,12.16-4.1C39.41,0.09,40,0.05,40.59,0z M63.66,13.58 c-2.03,0.79-3.92,0.57-5.48-0.99c-1.57-1.57-1.8-3.47-1-5.5C46.82-0.36,31.24,0.4,21.62,11.31c-9.36,10.62-8.88,26.92,1.56,36.98 c10.25,9.88,26.54,10.04,36.98,0.16C70.48,38.69,70.86,23.5,63.66,13.58z"></path> <path class="st1" d="M41.78,15.6c7.41,0,13.4,6,13.39,13.42c0,7.39-6.01,13.38-13.42,13.37c-7.41,0-13.39-6.01-13.38-13.46 C28.38,21.59,34.4,15.6,41.78,15.6z"></path> </g> <path class="st0" d="M43.85,0L14.81,29l8.94,8.94l37.9-37.91H43.88L43.85,0z M43.88,26.76L28.24,42.36L43.88,58H61.7L46.08,42.37 L61.7,26.76L43.88,26.76L43.88,26.76z"></path> <g class="st0"> <path class="st1" d="M54.24,58c-9.41,0-18.82,0-28.23,0c-0.1-0.03-0.2-0.07-0.31-0.08c-6.69-0.64-12.06-5.17-13.78-11.66 c-0.25-0.94-0.36-1.92-0.54-2.89c0-9.47,0-18.94,0-28.41c0.06-0.36,0.12-0.72,0.17-1.09c0.9-6.54,5.81-11.83,12.28-13.17 c0.72-0.15,1.45-0.24,2.18-0.36c9.47,0,18.94,0,28.41,0c0.12,0.03,0.23,0.07,0.35,0.08c6.55,0.59,12.06,5.23,13.72,11.6 c0.25,0.96,0.37,1.96,0.55,2.94c0,4.75,0,9.5,0,14.25c0,0.8,0,1.6,0,2.41c0,3.46,0,6.91,0,10.37c-0.02,0.23-0.06,0.45-0.07,0.68 c-0.05,0.71-0.04,1.42-0.14,2.12c-0.9,6.29-5.95,11.6-12.23,12.85C55.83,57.8,55.03,57.88,54.24,58z M36.57,20.84 c-3.85-0.03-6.5,1.92-7.52,5.33c-0.57,1.9-0.59,3.83-0.27,5.77c0.26,1.56,0.86,2.95,1.97,4.1c1.43,1.48,3.23,2.07,5.24,2.21 c3.59,0.25,6.47-1.69,7.54-5.13c0.56-1.79,0.76-3.62,0.39-5.47c-0.2-0.99-0.42-2.01-0.86-2.9C41.69,21.96,39.25,20.92,36.57,20.84z M46.84,33.42c0,0.17-0.01,0.26,0,0.35c0.01,0.11,0.03,0.21,0.05,0.32c0.32,1.68,1.36,2.79,2.86,3.51 c0.89,0.43,1.85,0.57,2.82,0.63c1.58,0.1,3.11-0.11,4.51-0.9c1.89-1.06,2.61-2.74,2.42-4.81c-0.17-1.91-1.37-3.02-3.13-3.6 c-0.1-0.03-0.2-0.07-0.31-0.1c-1.58-0.47-3.16-0.93-4.74-1.4c-0.76-0.23-1.33-0.67-1.44-1.51c-0.12-0.92,0.19-1.66,0.99-2.19 c2.02-1.33,4.64-0.66,5.78,1.49c0.07,0.13,0.18,0.31,0.28,0.32c0.75,0.03,1.5,0.01,2.26,0.01c0-0.17,0.01-0.28,0-0.38 c-0.18-1.43-0.93-2.49-2.1-3.28c-2.16-1.45-5.82-1.41-7.94,0.09c-1.47,1.05-2.07,2.55-1.9,4.31c0.17,1.78,1.19,2.96,2.87,3.56 c0.48,0.17,0.97,0.31,1.45,0.46c1.34,0.41,2.71,0.73,4.01,1.24c1.63,0.65,1.81,2.52,0.41,3.59c-0.17,0.13-0.35,0.25-0.54,0.35 c-2.13,1.13-4.83,0.34-6.03-1.75c-0.08-0.14-0.25-0.31-0.38-0.32C48.33,33.41,47.6,33.42,46.84,33.42z M21.53,25.37 c0,4.19,0,8.31,0,12.43c0.8,0,1.56,0,2.34,0c0-4.14,0-8.25,0-12.38c-0.12-0.02-0.22-0.04-0.33-0.04 C22.88,25.37,22.22,25.37,21.53,25.37z M22.68,23.12c0.9,0,1.6-0.64,1.6-1.49c0.01-0.87-0.7-1.55-1.61-1.54 c-0.91,0.01-1.57,0.65-1.57,1.52C21.1,22.47,21.77,23.11,22.68,23.12z"></path> <path class="st4" d="M69.05,31.62c0-0.8,0-1.6,0-2.41C69.05,30.02,69.05,30.82,69.05,31.62z"></path> <path class="st1" d="M41.48,29.44c0,1.5-0.35,2.78-0.95,4c-1.56,3.15-6.32,3.08-8.04,0.59c-1.05-1.52-1.36-3.21-1.26-5.01 c0.07-1.31,0.35-2.56,1.09-3.68c1.13-1.71,2.78-2.25,4.73-2.04c1.77,0.19,2.98,1.15,3.68,2.77C41.22,27.19,41.49,28.35,41.48,29.44 z"></path> </g> <g id="comp_x5F_332-swift" class="st0"> <g class="st1"> <g id="_x32_3-swift_5_"> <g> <g> <g> <path d="M44.66,0C73.72,19.45,64.3,40.82,64.3,40.82s8.25,9.16,4.94,17.18c0,0-3.42-5.61-9.11-5.61 c-5.5,0-8.75,5.61-19.84,5.61C15.61,58,3.91,37.73,3.91,37.73c22.24,14.42,37.43,4.2,37.43,4.2 C31.3,36.22,10.01,8.88,10.01,8.88C28.57,24.42,36.58,28.5,36.58,28.5C31.76,24.62,18.34,5.62,18.34,5.62 C29.08,16.3,50.43,31.2,50.43,31.2C56.56,14.74,44.66,0,44.66,0L44.66,0z"></path> </g> </g> </g> </g> </g> </g> <g class="st0"> <path class="st1" d="M66.34,58c-3.22,0-6.43,0-9.65,0c0.15-1.96,0.3-3.91,0.45-5.87c0.06-0.76,0.11-1.52,0.17-2.28 c-1.66,0-3.24,0-4.83,0c-0.24,2.74-0.48,5.44-0.71,8.15c-6.69,0-13.39,0-20.08,0c-0.24-2.72-0.49-5.44-0.73-8.17 c-1.62,0-3.2,0-4.82,0c0.06,0.84,0.13,1.64,0.19,2.43c0.15,1.91,0.3,3.82,0.45,5.73c-3.22,0-6.43,0-9.65,0 c-0.3-1.89-0.6-3.79-0.89-5.68c-0.64-4.18-1.28-8.35-1.91-12.53c-0.71-4.66-1.42-9.33-2.13-13.99c-0.15-0.98-0.32-1.96-0.48-2.94 c0-0.26,0-0.53,0-0.79c0.13-0.23,0.25-0.46,0.39-0.68c4.24-6.86,8.49-13.71,12.72-20.58C25.16,0.26,25.58,0,26.25,0 C36.57,0.01,46.88,0.01,57.2,0c0.65,0,1.07,0.23,1.41,0.78c2.12,3.45,4.27,6.88,6.4,10.32c2.26,3.65,4.5,7.31,6.75,10.96 c0,0.23,0,0.46,0,0.69c-0.11,0.64-0.24,1.28-0.33,1.92c-0.68,4.45-1.35,8.91-2.03,13.36c-0.67,4.4-1.34,8.81-2.02,13.21 C67.03,53.5,66.68,55.75,66.34,58z M58.14,44.19c0.04-0.2,0.09-0.37,0.12-0.55c0.23-1.8,0.46-3.61,0.69-5.41 c0.59-4.75,1.15-9.5,1.77-14.25c0.17-1.25,0.03-2.35-0.57-3.49c-1.5-2.88-2.9-5.8-4.31-8.72c-0.28-0.57-0.65-0.78-1.27-0.78 c-2.35,0.03-4.69,0.01-7.04,0.02c-0.29,0-0.58,0.03-0.93,0.05c0.18,1.35,0.35,2.66,0.52,4.01c-3.61,0-7.19,0-10.82,0 c0.18-1.35,0.35-2.67,0.53-4.03c-0.22-0.01-0.38-0.03-0.54-0.03c-2.46,0.01-4.92,0.04-7.38,0.01c-0.69-0.01-1.06,0.29-1.34,0.85 c-1.54,3.13-3.08,6.26-4.64,9.38c-0.28,0.56-0.38,1.15-0.31,1.76c0.27,2.26,0.55,4.52,0.83,6.78c0.47,3.84,0.95,7.68,1.43,11.51 c0.12,0.96,0.25,1.91,0.37,2.87C36.24,44.19,47.16,44.19,58.14,44.19z"></path> <path class="st1" d="M50.5,26.66c0.82,0.46,0.94,1.16,1.06,1.86c0.16,0.94,0.41,1.87,0.45,2.81c0.04,0.83-0.14,1.68-0.26,2.51 c-0.08,0.57-0.25,1.12-0.33,1.68c-0.08,0.53-0.32,0.92-0.79,1.21c-0.39-0.24-0.67-0.56-0.8-1.03c-0.76-2.65-0.76-5.3,0.01-7.94 C49.96,27.37,50.28,27.03,50.5,26.66z"></path> <path class="st1" d="M33.35,27.17c0.45,0.35,0.75,0.76,0.84,1.34c0.15,1.04,0.47,2.06,0.52,3.1c0.05,1-0.17,2.01-0.24,3.02 c-0.07,0.99-0.46,1.83-1.15,2.57c-0.52-0.61-0.96-1.24-0.97-2.1c-0.03-1.78-0.19-3.57-0.13-5.34 C32.24,28.83,32.39,27.8,33.35,27.17z"></path> </g> <path class="st0" d="M55.33,57.68c-8.46,0-16.92,0-25.37,0c-0.05-0.02-0.09-0.06-0.14-0.06c-2.64-0.29-4.4-1.78-5.69-4.03 c-3.57-6.22-7.21-12.4-10.81-18.61c-0.98-1.69-2.1-3.33-2.42-5.33c0-0.54,0-1.09,0-1.63c0.24-1.22,0.65-2.37,1.3-3.44 c0.7-1.16,1.36-2.35,2.04-3.52C17.62,15.27,21,9.48,24.37,3.68c1-1.72,2.4-2.92,4.36-3.43c0.37-0.1,0.75-0.17,1.13-0.26 c8.53,0,17.05,0,25.58,0c0.04,0.02,0.09,0.06,0.13,0.07c2.53,0.31,4.27,1.71,5.52,3.88c3.64,6.32,7.33,12.62,10.99,18.92 c0.97,1.67,2.05,3.28,2.31,5.26c0,0.51,0,1.02,0,1.53c-0.33,2.12-1.54,3.84-2.57,5.64c-1.13,1.97-2.28,3.93-3.42,5.89 c-2.45,4.2-4.91,8.4-7.36,12.61c-1.05,1.81-2.5,3.1-4.57,3.63C56.09,57.52,55.71,57.59,55.33,57.68z M28.95,43.24 c0.33,0,0.53,0,0.73,0c1.1,0.01,2.21-0.03,3.31,0.03c1.55,0.09,2.08-0.18,2.82-1.56c2.19-4.08,4.39-8.15,6.59-12.23 c0.07-0.14,0.16-0.27,0.26-0.44c0.11,0.21,0.2,0.35,0.28,0.5c1.96,3.63,3.92,7.25,5.89,10.87c0.31,0.57,0.64,1.12,1,1.65 c0.36,0.54,0.84,1.02,1.49,1.06c1.45,0.07,2.91,0.06,4.36,0.03c0.41-0.01,0.59-0.32,0.41-0.73c-0.13-0.31-0.27-0.62-0.43-0.92 c-2.04-3.78-4.06-7.56-6.12-11.32c-0.51-0.93-0.51-1.76,0-2.69c2.08-3.81,4.13-7.64,6.2-11.46c0.1-0.18,0.19-0.36,0.26-0.55 c0.25-0.64,0.09-0.98-0.59-1.02c-1.23-0.07-2.47-0.1-3.71-0.06c-0.7,0.02-1.31,0.39-1.71,0.98c-0.41,0.6-0.81,1.22-1.15,1.85 c-1.97,3.62-3.93,7.25-5.9,10.87c-0.08,0.16-0.18,0.31-0.29,0.5c-0.12-0.21-0.22-0.37-0.31-0.53c-1.64-3.05-3.28-6.09-4.92-9.14 c-0.67-1.24-1.35-2.47-2.02-3.71c-0.27-0.51-0.65-0.77-1.26-0.76c-1.61,0.02-3.23,0-4.84,0c-0.08,0-0.15,0.02-0.3,0.04 c0.29,0.67,0.53,1.3,0.84,1.9c1.93,3.6,3.85,7.21,5.83,10.79c0.62,1.13,0.65,2.12,0.02,3.25c-1.96,3.53-3.86,7.09-5.77,10.65 C29.56,41.75,29.3,42.45,28.95,43.24z"></path> <g class="st0"> <path class="st1" d="M43.01,57.56c-1.59,0-3.18,0-4.77,0c-0.3-0.09-0.59-0.2-0.89-0.26c-0.48-0.09-0.98-0.12-1.46-0.22 c-9.45-1.89-16.27-7.2-20.54-15.81c-0.87-1.74-1.47-3.59-1.93-5.48c0-0.18,0-0.36,0-0.54c0.2-0.65,0.7-0.89,1.32-0.95 c0.27-0.02,0.54-0.03,0.81-0.04c2.91-0.01,5.82,0.08,8.72-0.05c1.84-0.08,2.94,0.61,3.81,2.2c3.2,5.87,10.14,8.75,16.54,6.97 c8.91-2.47,13.5-12.53,9.57-20.95c-2.54-5.44-8.3-10.04-16.39-8.4c-4.62,0.94-7.97,3.64-10.13,7.8c-0.53,1.03-1.25,1.49-2.42,1.47 c-2.38-0.05-4.76-0.02-7.15-0.03c-1,0-2.01,0.02-3.01-0.01c-0.69-0.02-1.35-0.14-1.67-0.88c0-0.27,0-0.54,0-0.81 c0.45-1.31,0.83-2.65,1.36-3.93C18.62,8.49,25.45,2.9,35.09,0.7c1.11-0.25,2.22-0.47,3.33-0.7c1.56,0,3.12,0,4.68,0 c0.31,0.06,0.61,0.13,0.92,0.17c3.96,0.54,7.7,1.75,11.11,3.85c7.77,4.8,12.31,11.73,13.62,20.78c0.11,0.75,0.17,1.51,0.26,2.27 c0,0.93,0,1.86,0,2.79c-0.02,0.13-0.05,0.26-0.07,0.39c-0.22,1.6-0.34,3.22-0.67,4.8c-1.59,7.72-5.59,13.81-12.36,17.96 c-3.2,1.96-6.6,3.45-10.34,4.05C44.7,57.2,43.86,57.39,43.01,57.56z"></path> <path class="st1" d="M34.07,28.75c-0.04-3.69,2.94-6.73,6.65-6.79c3.75-0.05,6.72,2.98,6.75,6.87c0.02,3.7-2.98,6.72-6.69,6.75 C37.1,35.6,34.12,32.57,34.07,28.75z"></path> </g> <g class="st0"> <path class="st1" d="M25.2,57.74c0.12-0.11,0.23-0.29,0.37-0.31c3.97-0.72,7.94-1.42,11.91-2.12c6.27-1.11,12.55-2.22,18.82-3.33 c0.66-0.12,1.31-0.24,2.04-0.37c-0.17-0.2-0.29-0.35-0.41-0.5c-5.29-6.16-10.58-12.33-15.88-18.49c-0.86-1-1.72-2.02-1.73-3.41 c0-0.78,0.1-1.6,0.37-2.32c2.71-7.27,5.46-14.53,8.2-21.78c0.19-0.51,0.43-1,0.69-1.6c0.15,0.24,0.26,0.4,0.36,0.57 C60.12,21.66,70.31,39.24,80.5,56.81c0.16,0.28,0.36,0.55,0.54,0.83c-0.11,0.04-0.21,0.1-0.32,0.1c-1.62,0.01-3.24,0-4.87,0 C58.97,57.74,42.09,57.74,25.2,57.74z"></path> <path class="st1" d="M46.25,0.07c-0.05,0.22-0.06,0.45-0.16,0.65c-1.84,3.88-3.68,7.76-5.53,11.64 c-5.9,12.41-11.82,24.82-17.7,37.24c-0.59,1.25-1.48,1.81-2.86,1.8c-4.85-0.04-9.69-0.04-14.54-0.05c-0.23,0-0.45,0-0.81,0 c0.39-0.78,0.71-1.5,1.1-2.17c5.18-8.8,10.37-17.6,15.56-26.4c0.69-1.17,1.33-2.36,2.09-3.49c0.49-0.74,1.06-1.47,1.74-2.03 c6.63-5.53,13.29-11.03,19.94-16.53c0.31-0.26,0.64-0.49,0.96-0.73C46.11,0.02,46.18,0.05,46.25,0.07z"></path> </g> <g class="st0"> <path class="st1" d="M43.04,57.99c-0.63,0-1.27,0-1.9,0c-0.8-0.37-1.63-0.68-2.39-1.11c-6.46-3.58-12.9-7.2-19.35-10.78 c-1.79-0.99-3.27-2.25-3.98-4.25c0-8.57,0-17.15,0-25.72c0.32-0.49,0.67-0.97,0.96-1.49c0.52-0.92,1.21-1.62,2.14-2.14 c7.3-4.05,14.58-8.13,21.87-12.2C40.56,0.22,40.71,0.1,40.86,0c0.63,0,1.27,0,1.9,0c0.97,0.46,1.96,0.86,2.89,1.38 c6.26,3.48,12.51,6.99,18.77,10.46c1.82,1.01,3.34,2.26,4.05,4.29c0,8.57,0,17.15,0,25.72c-0.35,0.55-0.72,1.09-1.06,1.65 c-0.48,0.81-1.09,1.44-1.92,1.9c-7.35,4.09-14.7,8.19-22.04,12.3C43.31,57.79,43.18,57.9,43.04,57.99z M53.89,38.04 c-1.55-0.91-3.06-1.81-4.6-2.68c-0.46-0.26-0.95-0.18-1.4,0.1c-0.24,0.15-0.46,0.33-0.69,0.5c-1.42,1.08-3.03,1.71-4.81,1.8 c-6.29,0.34-10.91-6.03-8.65-11.91c1.63-4.24,6.2-6.57,10.32-5.19c1.4,0.47,2.73,1.15,4.07,1.8c0.58,0.28,1.02,0.3,1.59-0.06 c1.39-0.88,2.83-1.67,4.3-2.52c-0.29-0.36-0.52-0.71-0.81-1.02c-4.43-4.73-9.85-6.08-15.95-4.24C28.21,17.35,22.51,29,30.38,38.79 c3.29,4.09,7.75,5.79,13,5.26c2.98-0.3,5.72-1.29,8.11-3.15C52.48,40.13,53.32,39.22,53.89,38.04z M54.42,32.87 c0.05,0.79,0.09,1.56,0.14,2.31c0.89,0,1.73,0,2.59,0c0.05-0.77,0.09-1.51,0.13-2.25c0.75,0,1.45,0,2.19,0 c0.05,0.77,0.09,1.52,0.14,2.27c0.89,0,1.72,0,2.59,0c0.05-0.79,0.09-1.55,0.14-2.34c0.8-0.05,1.56-0.1,2.33-0.15 c0-0.83,0-1.61,0-2.42c-0.77-0.05-1.52-0.09-2.28-0.14c0-0.8,0-1.55,0-2.34c0.77-0.05,1.52-0.09,2.29-0.14c0-0.82,0-1.6,0-2.41 c-0.79-0.05-1.55-0.09-2.35-0.14c-0.05-0.79-0.09-1.56-0.14-2.32c-0.89,0-1.73,0-2.59,0c-0.04,0.77-0.08,1.5-0.13,2.26 c-0.75,0-1.45,0-2.2,0c-0.05-0.77-0.09-1.52-0.14-2.26c-0.89,0-1.74,0-2.59,0c-0.05,0.79-0.09,1.54-0.13,2.32 c-0.79,0.05-1.56,0.1-2.32,0.14c0,0.84,0,1.63,0,2.43c0.78,0.05,1.51,0.09,2.25,0.13c0,0.8,0,1.57,0,2.35 c-0.77,0.05-1.51,0.09-2.25,0.14c0,0.83,0,1.62,0,2.42C52.88,32.78,53.63,32.83,54.42,32.87z"></path> <path class="st1" d="M57.31,30.14c0-0.76,0-1.5,0-2.27c0.72,0,1.42,0,2.14,0c0,0.76,0,1.5,0,2.27 C58.74,30.14,58.05,30.14,57.31,30.14z"></path> </g> </svg> 