<?xml version="1.0" encoding="UTF-8"?> <svg xmlns="http://www.w3.org/2000/svg" xmlns:xlink="http://www.w3.org/1999/xlink" width="60pt" height="60pt" viewBox="0 0 60 60" version="1.1"><g id="surface1"><path style=" stroke:none;fill-rule:evenodd;fill:rgb(0%,0%,0%);fill-opacity:1;" d="M 0.648438 6.5 C 0.648438 2.898438 3.550781 0 7.148438 0 L 52.25 0 C 55.851562 0 58.75 2.898438 58.75 6.5 L 58.75 19 L 0.648438 19 Z M 0.648438 6.5 "></path><path style=" stroke:none;fill-rule:evenodd;fill:rgb(18.823529%,18.823529%,18.823529%);fill-opacity:1;" d="M 0.648438 41 L 28.449219 41 L 28.449219 60 L 6.949219 60 C 3.449219 60 0.648438 57.101562 0.648438 53.5 Z M 0.648438 41 "></path><path style=" stroke:none;fill-rule:evenodd;fill:rgb(22.745098%,22.745098%,22.745098%);fill-opacity:1;" d="M 30.851562 41 L 58.648438 41 L 58.648438 53.5 C 58.648438 57.101562 55.851562 60 52.351562 60 L 30.851562 60 Z M 30.851562 41 "></path><path style=" stroke:none;fill-rule:evenodd;fill:rgb(11.764706%,11.764706%,11.764706%);fill-opacity:1;" d="M 0.648438 21 L 58.648438 21 L 58.648438 39 L 0.648438 39 Z M 0.648438 21 "></path></g></svg> 