<?xml version="1.0" encoding="UTF-8"?> <!-- Generator: Adobe Illustrator 25.1.0, SVG Export Plug-In . SVG Version: 6.00 Build 0) --> <svg xmlns="http://www.w3.org/2000/svg" xmlns:xlink="http://www.w3.org/1999/xlink" version="1.1" id="Layer_1" x="0px" y="0px" viewBox="0 0 48 48" style="enable-background:new 0 0 48 48;" xml:space="preserve"> <style type="text/css"> .st0{fill:#5555B5;} </style> <g> <g> <g> <path class="st0" d="M15.5,24.5c-1.8,0-3.3,1.5-3.3,3.3s1.5,3.3,3.3,3.3s3.3-1.5,3.3-3.3C18.7,26,17.3,24.5,15.5,24.5z M15.5,29.1c-0.7,0-1.3-0.6-1.3-1.3c0-0.7,0.6-1.3,1.3-1.3c0.7,0,1.3,0.6,1.3,1.3S16.2,29.1,15.5,29.1z"></path> <path class="st0" d="M40.8,17.1h-20c-0.6,0-1,0.5-1,1v1.7c-1.3-0.7-2.8-1.1-4.3-1.1c-5.1-0.1-9.2,4.1-9.2,9.2s4.1,9.2,9.2,9.2 c1.6,0,3-0.4,4.3-1.1v1.7c0,0.6,0.5,1,1,1h20c0.6,0,1-0.5,1-1V18C41.8,17.5,41.3,17.1,40.8,17.1z M15.5,35.1 c-4,0-7.2-3.2-7.2-7.2s3.2-7.2,7.2-7.2c1.6,0,3.1,0.6,4.3,1.5v11.6C18.6,34.5,17.1,35.1,15.5,35.1z M39.8,36.6h-18V19h18V36.6z"></path> <path class="st0" d="M26.3,31c0.2,0.2,0.5,0.3,0.7,0.3c0.3,0,0.5-0.1,0.7-0.3c0.4-0.4,0.4-1,0-1.4l-1.9-1.9l1.9-1.9 c0.4-0.4,0.4-1,0-1.4s-1-0.4-1.4,0L23.7,27c-0.2,0.2-0.3,0.5-0.3,0.7s0.1,0.5,0.3,0.7L26.3,31z"></path> <path class="st0" d="M33.8,31c0.2,0.2,0.5,0.3,0.7,0.3s0.5-0.1,0.7-0.3l2.6-2.6c0.2-0.2,0.3-0.5,0.3-0.7S38,27.2,37.8,27 l-2.6-2.6c-0.4-0.4-1-0.4-1.4,0s-0.4,1,0,1.4l1.9,1.9l-1.9,1.9C33.4,30,33.4,30.6,33.8,31z"></path> <path class="st0" d="M29.7,32.5c0.1,0,0.2,0.1,0.3,0.1c0.5,0,0.9-0.3,1-0.8l1.8-7.4c0.1-0.6-0.2-1.1-0.8-1.2 c-0.6-0.2-1.1,0.2-1.2,0.8L29,31.4C28.8,31.8,29.2,32.4,29.7,32.5z"></path> <circle class="st0" cx="5.7" cy="7.6" r="1.3"></circle> <circle class="st0" cx="9.3" cy="7.6" r="1.3"></circle> <circle class="st0" cx="12.9" cy="7.6" r="1.3"></circle> <path class="st0" d="M46.1,2.1H1.9C0.9,2.1,0,3,0,4v38.6c0,1.1,0.9,1.9,1.9,1.9h44.2c1.1,0,1.9-0.9,1.9-1.9V4 C48,3,47.1,2.1,46.1,2.1z M46,4v7.2H1.9V4.1L46,4z M2,42.5L1.9,13.2H46v29.3H2z"></path> </g> </g> </g> </svg> 