<?xml version="1.0" encoding="UTF-8"?> <!-- Generator: Adobe Illustrator 23.0.3, SVG Export Plug-In . SVG Version: 6.00 Build 0) --> <svg xmlns="http://www.w3.org/2000/svg" xmlns:xlink="http://www.w3.org/1999/xlink" version="1.1" id="Layer_1" x="0px" y="0px" viewBox="0 0 48 48" style="enable-background:new 0 0 48 48;" xml:space="preserve"> <g> <path d="M7,8.4H0v32.4h8c-4-4.2-6.3-10-6.3-17C1.7,17.7,3.7,12.4,7,8.4z"></path> <path d="M22.8,9.2c-3.7,0-6.8,2.7-7.1,6.7h13.6C29.2,11.8,26.5,9.2,22.8,9.2L22.8,9.2z"></path> <polygon points="41.3,8.4 41.3,8.4 41.3,8.4 "></polygon> <path d="M41.3,8.4c2.5,3.4,3.9,7.8,3.7,13c0,0.5,0,0.9,0,1.9H15.2c0,8.8,3.1,15.6,11.1,15.6c5.5,0,9.4-4.1,12.2-8.5l7.7,3.8 c-1.4,2.5-2.9,4.6-4.6,6.5H48V8.4H41.3z"></path> </g> </svg> 