<?xml version="1.0" encoding="UTF-8"?> <!-- Generator: Adobe Illustrator 23.0.3, SVG Export Plug-In . SVG Version: 6.00 Build 0) --> <svg xmlns="http://www.w3.org/2000/svg" xmlns:xlink="http://www.w3.org/1999/xlink" version="1.1" id="Layer_1" x="0px" y="0px" viewBox="0 0 48 48" style="enable-background:new 0 0 48 48;" xml:space="preserve"> <g> <path d="M24,47.9c-13.1,0.3-23.9-11.1-23.8-24C0.2,11.2,11.1,0.1,24.2,0.3c12.8,0.1,23.7,10.9,23.6,24C47.8,37,37,48.2,24,47.9z M9.7,24.8c0.2,0,0.4,0,0.5,0c4.1,0,8.2,0,12.2,0c0.3,0,0.5,0,0.5-0.4c0-2-0.4-4-1.4-5.8c-0.9-1.7-2.2-2.9-4.1-3.5 c-3.8-1.1-8,0.1-9.9,4.3c-1.6,3.4-1.3,6.8,0.3,10.1c0.9,1.8,2.4,2.9,4.3,3.5c1.4,0.4,2.9,0.5,4.3,0.3c3-0.4,5.4-2.4,6.1-5.1 c0-0.1,0.1-0.3,0.1-0.5c-0.1,0-0.1-0.1-0.1-0.1c-0.9,0-1.7,0-2.5,0c-0.1,0-0.3,0.2-0.3,0.3c-0.4,1.3-1.3,2.1-2.5,2.6 c-1.1,0.4-2.3,0.4-3.5,0.1C11,30,9.4,27.7,9.7,24.8z M32.4,25.8c0.1,0.1,0.2,0.2,0.2,0.3c1.6,2.3,3.1,4.6,4.7,7 c0.2,0.2,0.3,0.3,0.6,0.3c1,0,2,0,3.1,0c0.1,0,0.3,0,0.4,0c-0.1-0.2-0.2-0.3-0.3-0.5c-2.2-3-4.4-6.1-6.5-9.1 c-0.2-0.3-0.2-0.4,0-0.7c1.9-2.6,3.9-5.2,5.8-7.8c0.1-0.1,0.2-0.2,0.3-0.4c-0.2,0-0.4,0-0.5,0c-0.9,0-1.8,0-2.7,0 c-0.3,0-0.6,0.1-0.8,0.4c-1.3,1.9-2.7,3.8-4.1,5.7c-0.1,0.1-0.2,0.2-0.3,0.3c-0.1-0.2-0.2-0.3-0.3-0.4c-1.3-1.9-2.6-3.8-3.9-5.7 c-0.1-0.2-0.3-0.3-0.6-0.3c-1,0-2.1,0-3.1,0c-0.1,0-0.2,0-0.4,0c0.1,0.2,0.2,0.3,0.3,0.4c2,2.7,3.9,5.3,5.9,8 c0.2,0.3,0.2,0.5,0,0.8c-2.1,3-4.3,5.9-6.4,8.9c-0.1,0.1-0.2,0.3-0.3,0.5c1.1,0,2.2,0,3.3,0c0.3,0,0.5-0.1,0.7-0.4 c1.5-2.3,3.1-4.6,4.6-6.9C32.2,26,32.3,25.9,32.4,25.8z"></path> <path d="M19.7,22.4c-3.3,0-6.7,0-10.1,0c0.2-1.7,0.8-3.2,2.3-4.1c1.8-1.1,3.7-1.1,5.5,0C18.8,19.1,19.9,21.1,19.7,22.4z"></path> </g> </svg> 