<?xml version="1.0" encoding="UTF-8"?> <svg xmlns="http://www.w3.org/2000/svg" xmlns:xlink="http://www.w3.org/1999/xlink" width="60pt" height="60pt" viewBox="0 0 60 60" version="1.1"><g id="surface1"><path style=" stroke:none;fill-rule:nonzero;fill:rgb(22.745098%,22.745098%,22.745098%);fill-opacity:1;" d="M 20.398438 60 C 25.914062 60 30.386719 55.523438 30.386719 50.011719 L 30.386719 40.023438 L 20.398438 40.023438 C 14.886719 40.023438 10.414062 44.5 10.414062 50.011719 C 10.414062 55.523438 14.886719 60 20.398438 60 Z M 20.398438 60 "></path><path style=" stroke:none;fill-rule:nonzero;fill:rgb(13.72549%,13.72549%,13.72549%);fill-opacity:1;" d="M 10.414062 30.039062 C 10.414062 24.523438 14.886719 20.050781 20.398438 20.050781 L 30.386719 20.050781 L 30.386719 40.023438 L 20.398438 40.023438 C 14.886719 40.023438 10.414062 35.550781 10.414062 30.039062 Z M 10.414062 30.039062 "></path><path style=" stroke:none;fill-rule:nonzero;fill:rgb(0%,0%,0%);fill-opacity:1;" d="M 10.414062 10.0625 C 10.414062 4.550781 14.886719 0.0742188 20.398438 0.0742188 L 30.386719 0.0742188 L 30.386719 20.050781 L 20.398438 20.050781 C 14.886719 20.050781 10.414062 15.574219 10.414062 10.0625 Z M 10.414062 10.0625 "></path><path style=" stroke:none;fill-rule:nonzero;fill:rgb(23.921569%,23.921569%,23.921569%);fill-opacity:1;" d="M 30.386719 0.0742188 L 40.375 0.0742188 C 45.886719 0.0742188 50.363281 4.550781 50.363281 10.0625 C 50.363281 15.574219 45.886719 20.050781 40.375 20.050781 L 30.386719 20.050781 Z M 30.386719 0.0742188 "></path><path style=" stroke:none;fill-rule:nonzero;fill:rgb(11.764706%,11.764706%,11.764706%);fill-opacity:1;" d="M 50.363281 30.039062 C 50.363281 35.550781 45.886719 40.023438 40.375 40.023438 C 34.863281 40.023438 30.386719 35.550781 30.386719 30.039062 C 30.386719 24.523438 34.863281 20.050781 40.375 20.050781 C 45.886719 20.050781 50.363281 24.523438 50.363281 30.039062 Z M 50.363281 30.039062 "></path></g></svg> 