<?xml version="1.0" encoding="UTF-8"?> <!-- Generator: Adobe Illustrator 25.1.0, SVG Export Plug-In . SVG Version: 6.00 Build 0) --> <svg xmlns="http://www.w3.org/2000/svg" xmlns:xlink="http://www.w3.org/1999/xlink" version="1.1" id="Layer_1" x="0px" y="0px" viewBox="0 0 48 48" style="enable-background:new 0 0 48 48;" xml:space="preserve"> <style type="text/css"> .st0{fill:#EDB426;} </style> <g> <rect x="29" y="28.6" class="st0" width="9.5" height="2.4"></rect> <rect x="29" y="24" class="st0" width="11.4" height="2.4"></rect> <rect x="29" y="33" class="st0" width="4.8" height="2.4"></rect> <path class="st0" d="M41.2,6.6H7c-3.8,0-6.8,3.3-6.8,7.5v20.7c0,4.1,3,7.5,6.8,7.5h34.2c3.8,0,6.8-3.4,6.8-7.5V14.1 C47.9,9.9,44.9,6.6,41.2,6.6z M7,9.2h34.2c2.2,0,4.1,2.1,4.1,4.8v1.3H2.9V14C2.9,11.4,4.7,9.2,7,9.2z M41.2,39.7H7 c-2.2,0-4.1-2.1-4.1-4.8V18h42.4v16.8C45.3,37.5,43.4,39.7,41.2,39.7z"></path> <circle class="st0" cx="29" cy="12.2" r="1.7"></circle> <circle class="st0" cx="34.2" cy="12.2" r="1.7"></circle> <circle class="st0" cx="39.6" cy="12.2" r="1.7"></circle> <polygon class="st0" points="16.2,20.4 7.1,25.5 25.1,25.5 "></polygon> <path class="st0" d="M23.7,28.6v-1.5h1.4v-1h-18v1h1.6v1.5h0.4v7H8.7v1.2H7.1v1h18v-1h-1.4v-1.1h-0.4v-7.1H23.7z M9.8,28.9h0.3v6.7 H9.8V28.9z M11,35.6h-0.3V29H11V35.6z M15,35.5h-0.4v1.3h-2.5v-1.2h-0.4v-7h0.4v-1.5h2.5v1.4H15V35.5z M15.7,28.5H16v6.9h-0.3V28.5 z M16.9,35.5h-0.3v-6.9h0.3V35.5z M20.8,35.7h-0.4v1.1H18v-1.3h-0.4v-6.9H18v-1.4h2.4v1.5h0.4V35.7z M21.4,28.6h0.3v7.1h-0.3V28.6z M22.7,35.7h-0.3v-7.1h0.3V35.7z"></path> </g> </svg> 