<?xml version="1.0" encoding="UTF-8"?> <svg xmlns="http://www.w3.org/2000/svg" xmlns:xlink="http://www.w3.org/1999/xlink" width="60pt" height="60pt" viewBox="0 0 60 60" version="1.1"><g id="surface1"><path style=" stroke:none;fill-rule:nonzero;fill:rgb(27.843137%,27.843137%,27.843137%);fill-opacity:1;" d="M 37.199219 21.710938 L 31.199219 27.3125 L 25.625 16.050781 L 28.5 9.574219 C 29.226562 8.289062 30.414062 8.261719 31.148438 9.574219 Z M 37.199219 21.710938 "></path><path style=" stroke:none;fill-rule:nonzero;fill:rgb(13.72549%,13.72549%,13.72549%);fill-opacity:1;" d="M 31.199219 27.300781 L 8.75 48.226562 L 25.625 16.050781 Z M 31.199219 27.300781 "></path><path style=" stroke:none;fill-rule:nonzero;fill:rgb(0%,0%,0%);fill-opacity:1;" d="M 43.789062 13.148438 C 44.863281 12.125 45.976562 12.476562 46.25 13.925781 L 52.085938 47.9375 L 32.726562 59.574219 C 32.050781 59.949219 30.25 60.101562 30.25 60.101562 C 30.25 60.101562 28.613281 59.898438 27.988281 59.550781 L 8.75 48.226562 Z M 43.789062 13.148438 "></path><path style=" stroke:none;fill-rule:nonzero;fill:rgb(27.843137%,27.843137%,27.843137%);fill-opacity:1;" d="M 25.625 16.050781 L 8.75 48.226562 L 16.273438 1.199219 C 16.5625 -0.261719 17.386719 -0.398438 18.125 0.886719 Z M 25.625 16.050781 "></path></g></svg> 