<?xml version="1.0" encoding="UTF-8"?> <!-- Generator: Adobe Illustrator 23.0.3, SVG Export Plug-In . SVG Version: 6.00 Build 0) --> <svg xmlns="http://www.w3.org/2000/svg" xmlns:xlink="http://www.w3.org/1999/xlink" version="1.1" id="Layer_1" x="0px" y="0px" viewBox="0 0 48 48" style="enable-background:new 0 0 48 48;" xml:space="preserve"> <style type="text/css"> .st0{fill:#FFFFFF;} </style> <g> <path d="M23.92,0h18.03c3.32-0.03,6.03,2.64,6.05,5.95c0,0.03,0,0.07,0,0.1v18.03C48,37.29,37.29,48,24.08,48h-0.14 c-6.35,0.01-12.44-2.51-16.93-6.99C2.52,36.52,0,30.43,0,24.09C0,10.83,10.69,0.14,23.92,0L23.92,0z"></path> <path class="st0" d="M23.92,10.69c-6.07,0-10.99,4.92-10.99,10.99l0,0v7.47c0.05,2,1.66,3.61,3.66,3.66h3.11v-8.58h-4.2v-2.4 c0.26-4.52,4-8.05,8.52-8.05s8.28,3.55,8.52,8.05v2.4h-4.25v8.58h2.81v0.14c-0.03,1.86-1.53,3.35-3.38,3.38h-3.36 c-0.27,0-0.57,0.14-0.57,0.41c0.01,0.3,0.26,0.56,0.57,0.57h3.38c2.4-0.02,4.35-1.96,4.36-4.36v-0.27 c1.65-0.38,2.82-1.85,2.81-3.55v-7.31C35.06,15.63,30.15,10.69,23.92,10.69z"></path> </g> </svg> 