<?xml version="1.0" encoding="UTF-8"?> <!-- Generator: Adobe Illustrator 23.0.3, SVG Export Plug-In . SVG Version: 6.00 Build 0) --> <svg xmlns="http://www.w3.org/2000/svg" xmlns:xlink="http://www.w3.org/1999/xlink" version="1.1" id="Layer_1" x="0px" y="0px" viewBox="0 0 48 48" style="enable-background:new 0 0 48 48;" xml:space="preserve"> <path d="M0.01,11.22c-0.08-1.24,1.14-2.21,2.33-2.06c14.43,0,28.85-0.01,43.28,0.01c0.73-0.07,1.39,0.25,1.93,0.71 C43.7,15.57,39,20.94,32.84,24.17c-3.66,1.96-7.98,2.82-12.07,1.94C15.18,25.13,10.29,21,8.4,15.65c-0.3-0.71-0.35-1.51-0.73-2.17 c-0.91-0.07-2-0.02-2.6,0.77c-0.69,0.77-0.51,1.86-0.32,2.78c0.96,5.26,4.23,10.07,8.81,12.84c4.11,2.57,9.17,3.64,13.94,2.7 c4.47-0.83,8.5-3.27,11.8-6.35c3.5-3.22,6.25-7.17,8.67-11.23c0.05,7.42,0.02,14.85,0.03,22.27c0.11,1.16-0.93,2.23-2.1,2.15 c-14.62,0.02-29.22-0.01-43.84-0.03c-1.13,0.07-2.14-0.99-2.05-2.12C0.01,28.59,0,19.9,0.01,11.22"></path> </svg> 