<?xml version="1.0" encoding="UTF-8"?> <svg xmlns="http://www.w3.org/2000/svg" xmlns:xlink="http://www.w3.org/1999/xlink" width="60pt" height="60pt" viewBox="0 0 60 60" version="1.1"><g id="surface1"><path style=" stroke:none;fill-rule:nonzero;fill:rgb(0%,0%,0%);fill-opacity:1;" d="M 58.824219 27.351562 L 32.648438 1.175781 C 31.136719 -0.335938 28.699219 -0.335938 27.1875 1.175781 L 21.75 6.613281 L 28.648438 13.511719 C 30.25 12.976562 32.085938 13.335938 33.363281 14.613281 C 34.648438 15.898438 35.011719 17.75 34.449219 19.363281 L 41.101562 26.011719 C 42.710938 25.460938 44.5625 25.8125 45.851562 27.101562 C 47.648438 28.898438 47.648438 31.800781 45.851562 33.601562 C 44.050781 35.398438 41.148438 35.398438 39.351562 33.601562 C 38 32.25 37.664062 30.261719 38.351562 28.601562 L 32.148438 22.398438 L 32.148438 38.710938 C 32.601562 38.9375 33.011719 39.226562 33.363281 39.585938 C 35.164062 41.386719 35.164062 44.289062 33.363281 46.085938 C 31.5625 47.886719 28.664062 47.886719 26.863281 46.085938 C 25.0625 44.289062 25.0625 41.386719 26.863281 39.585938 C 27.289062 39.164062 27.800781 38.8125 28.363281 38.585938 L 28.363281 22.113281 C 27.800781 21.886719 27.289062 21.539062 26.863281 21.113281 C 25.5 19.75 25.175781 17.761719 25.875 16.085938 L 19.074219 9.289062 L 1.125 27.238281 C -0.386719 28.75 -0.386719 31.1875 1.125 32.699219 L 27.3125 58.875 C 28.824219 60.386719 31.261719 60.386719 32.773438 58.875 L 58.824219 32.824219 C 60.324219 31.3125 60.324219 28.863281 58.824219 27.351562 "></path></g></svg> 