<?xml version="1.0" encoding="UTF-8"?> <svg xmlns="http://www.w3.org/2000/svg" xmlns:xlink="http://www.w3.org/1999/xlink" width="60pt" height="60pt" viewBox="0 0 60 60" version="1.1"><g id="surface1"><path style=" stroke:none;fill-rule:nonzero;fill:rgb(0%,0%,0%);fill-opacity:1;" d="M 38.050781 19.585938 L 39.863281 19.585938 L 45.039062 14.414062 L 45.289062 12.210938 C 35.664062 3.710938 20.976562 4.636719 12.476562 14.261719 C 10.113281 16.9375 8.398438 20.113281 7.460938 23.5625 C 8.039062 23.324219 8.675781 23.289062 9.273438 23.449219 L 19.613281 21.738281 C 19.613281 21.738281 20.136719 20.863281 20.414062 20.925781 C 25.011719 15.875 32.761719 15.289062 38.074219 19.585938 Z M 38.050781 19.585938 "></path><path style=" stroke:none;fill-rule:nonzero;fill:rgb(0%,0%,0%);fill-opacity:1;" d="M 52.398438 23.5625 C 51.210938 19.1875 48.773438 15.25 45.375 12.238281 L 38.125 19.5 C 41.1875 22 42.9375 25.773438 42.863281 29.738281 L 42.863281 31.023438 C 46.425781 31.023438 49.324219 33.914062 49.324219 37.488281 C 49.324219 41.050781 46.4375 43.949219 42.863281 43.949219 L 29.9375 43.949219 L 28.648438 45.261719 L 28.648438 53.011719 L 29.9375 54.300781 L 42.863281 54.300781 C 52.136719 54.375 59.726562 46.914062 59.800781 37.625 C 59.835938 31.988281 57.0625 26.710938 52.398438 23.5625 Z M 52.398438 23.5625 "></path><path style=" stroke:none;fill-rule:nonzero;fill:rgb(0%,0%,0%);fill-opacity:1;" d="M 17 54.210938 L 29.925781 54.210938 L 29.925781 43.875 L 17 43.875 C 16.074219 43.875 15.175781 43.675781 14.335938 43.289062 L 12.523438 43.851562 L 7.3125 49.023438 L 6.863281 50.835938 C 9.773438 53.050781 13.335938 54.238281 17 54.210938 Z M 17 54.210938 "></path><path style=" stroke:none;fill-rule:nonzero;fill:rgb(0%,0%,0%);fill-opacity:1;" d="M 17 20.664062 C 7.710938 20.710938 0.238281 28.289062 0.300781 37.5625 C 0.335938 42.75 2.75 47.625 6.863281 50.789062 L 14.351562 43.300781 C 11.101562 41.835938 9.648438 38 11.125 34.75 C 12.601562 31.5 16.425781 30.050781 19.675781 31.523438 C 21.113281 32.175781 22.25 33.324219 22.898438 34.75 L 30.386719 27.261719 C 27.199219 23.085938 22.25 20.636719 17 20.664062 Z M 17 20.664062 "></path></g></svg> 