<?xml version="1.0" encoding="UTF-8"?> <svg xmlns="http://www.w3.org/2000/svg" xmlns:xlink="http://www.w3.org/1999/xlink" width="60pt" height="60pt" viewBox="0 0 60 60" version="1.1"><defs><clipPath id="clip1"><path d="M 39 0 L 60 0 L 60 60 L 39 60 Z M 39 0 "></path></clipPath><clipPath id="clip2"><path d="M 54.738281 0.351562 L 43.976562 0.351562 C 41.351562 0.351562 39.199219 2.5 39.199219 5.125 L 39.199219 19.136719 L 23.523438 19.136719 C 20.9375 19.136719 18.824219 21.25 18.824219 23.835938 L 18.824219 39.5 L 4.699219 39.5 C 2.113281 39.5 0 41.625 0 44.199219 L 0 55.164062 C 0 57.75 2.113281 59.863281 4.699219 59.863281 L 54.738281 59.863281 C 57.363281 59.863281 59.511719 57.710938 59.511719 55.085938 L 59.511719 5.125 C 59.511719 2.511719 57.351562 0.351562 54.738281 0.351562 Z M 54.738281 0.351562 "></path></clipPath><clipPath id="clip3"><path d="M 0 19 L 40 19 L 40 60 L 0 60 Z M 0 19 "></path></clipPath><clipPath id="clip4"><path d="M 54.738281 0.351562 L 43.976562 0.351562 C 41.351562 0.351562 39.199219 2.5 39.199219 5.125 L 39.199219 19.136719 L 23.523438 19.136719 C 20.9375 19.136719 18.824219 21.25 18.824219 23.835938 L 18.824219 39.5 L 4.699219 39.5 C 2.113281 39.5 0 41.625 0 44.199219 L 0 55.164062 C 0 57.75 2.113281 59.863281 4.699219 59.863281 L 54.738281 59.863281 C 57.363281 59.863281 59.511719 57.710938 59.511719 55.085938 L 59.511719 5.125 C 59.511719 2.511719 57.351562 0.351562 54.738281 0.351562 Z M 54.738281 0.351562 "></path></clipPath></defs><g id="surface1"><g clip-path="url(#clip1)" clip-rule="nonzero"><g clip-path="url(#clip2)" clip-rule="nonzero"><path style=" stroke:none;fill-rule:nonzero;fill:rgb(0%,0%,0%);fill-opacity:1;" d="M 54.738281 0.351562 L 43.976562 0.351562 C 41.351562 0.351562 39.199219 2.5 39.199219 5.125 L 39.199219 59.863281 L 54.738281 59.863281 C 57.363281 59.863281 59.511719 57.710938 59.511719 55.085938 L 59.511719 5.125 C 59.511719 2.511719 57.351562 0.351562 54.738281 0.351562 Z M 54.738281 0.351562 "></path></g></g><g clip-path="url(#clip3)" clip-rule="nonzero"><g clip-path="url(#clip4)" clip-rule="nonzero"><path style=" stroke:none;fill-rule:nonzero;fill:rgb(11.764706%,11.764706%,11.764706%);fill-opacity:1;" d="M 18.789062 23.851562 L 18.789062 39.5 L 4.699219 39.5 C 2.113281 39.5 0 41.625 0 44.199219 L 0 55.164062 C 0 57.75 2.113281 59.863281 4.699219 59.863281 L 39.148438 59.863281 L 39.148438 19.148438 L 23.488281 19.148438 C 20.914062 19.148438 18.789062 21.261719 18.789062 23.851562 Z M 18.789062 23.851562 "></path></g></g></g></svg> 