<?xml version="1.0" encoding="UTF-8"?> <svg xmlns="http://www.w3.org/2000/svg" xmlns:xlink="http://www.w3.org/1999/xlink" width="60pt" height="60pt" viewBox="0 0 60 60" version="1.1"><g id="surface1"><path style=" stroke:none;fill-rule:nonzero;fill:rgb(0%,0%,0%);fill-opacity:1;" d="M 24.363281 10.6875 L 41.113281 10.6875 L 49.5625 25.324219 L 59.210938 25.324219 C 57 11.0625 44.6875 0.136719 29.8125 0.136719 C 26.050781 0.136719 22.449219 0.835938 19.136719 2.113281 L 24.363281 10.6875 "></path><path style=" stroke:none;fill-rule:nonzero;fill:rgb(11.764706%,11.764706%,11.764706%);fill-opacity:1;" d="M 50 34.136719 L 41.101562 49.550781 L 18.675781 49.550781 L 7.460938 30.113281 L 16.425781 14.585938 L 11.476562 6.460938 C 4.523438 11.925781 0.0625 20.375 0.0625 29.886719 C 0.0625 46.3125 13.375 59.636719 29.8125 59.636719 C 44.800781 59.636719 57.1875 48.550781 59.25 34.136719 L 50 34.136719 "></path><path style=" stroke:none;fill-rule:nonzero;fill:rgb(0%,0%,0%);fill-opacity:1;" d="M 40.351562 29.8125 C 40.351562 35.675781 35.601562 40.4375 29.726562 40.4375 C 23.851562 40.4375 19.101562 35.6875 19.101562 29.8125 C 19.101562 23.9375 23.851562 19.1875 29.726562 19.1875 C 35.601562 19.1875 40.351562 23.9375 40.351562 29.8125 "></path></g></svg> 