<?xml version="1.0" encoding="UTF-8"?> <!-- Generator: Adobe Illustrator 23.0.3, SVG Export Plug-In . SVG Version: 6.00 Build 0) --> <svg xmlns="http://www.w3.org/2000/svg" xmlns:xlink="http://www.w3.org/1999/xlink" version="1.1" id="Layer_1" x="0px" y="0px" viewBox="0 0 48 48" style="enable-background:new 0 0 48 48;" xml:space="preserve"> <g> <path d="M34.75,14.49l2.01,2.85l4.91-3.55c1.85,3.14,2.83,6.72,2.83,10.36c0,11.23-9.14,20.37-20.37,20.37S3.78,35.38,3.78,24.15 S12.92,3.78,24.15,3.78c3.97,0,7.87,1.17,10.66,3.14l3.15-2.23c-4.16-3.01-9.16-4.4-13.81-4.4C11,0.29,0.3,10.99,0.3,24.14 S10.99,48,24.15,48S48,37.3,48,24.15c0-5.58-1.95-10.97-5.51-15.25L34.75,14.49L34.75,14.49z"></path> <path d="M24.15,32.91c-4.83,0-8.77-3.93-8.77-8.77s3.93-8.77,8.77-8.77s8.77,3.93,8.77,8.77C32.91,28.98,28.98,32.91,24.15,32.91z M24.15,21.12c-1.67,0-3.03,1.36-3.03,3.03s1.36,3.03,3.03,3.03s3.03-1.36,3.03-3.03C27.18,22.48,25.82,21.12,24.15,21.12z"></path> </g> </svg> 