<?xml version="1.0" encoding="UTF-8"?> <!-- Generator: Adobe Illustrator 23.0.3, SVG Export Plug-In . SVG Version: 6.00 Build 0) --> <svg xmlns="http://www.w3.org/2000/svg" xmlns:xlink="http://www.w3.org/1999/xlink" version="1.1" id="Layer_1" x="0px" y="0px" viewBox="0 0 48 48" style="enable-background:new 0 0 48 48;" xml:space="preserve"> <g> <path d="M21.52,43c-1.09-0.15-1.77-0.88-2.36-1.72c-0.56-0.8-1.13-1.61-1.46-2.54c-0.08-0.21-0.14-0.44-0.16-0.66 c-0.08-0.67,0.15-1.19,0.83-1.53c-0.79-0.03-1.52-0.06-2.29-0.09c0.01,0.1,0,0.21,0.02,0.33c0.09,0.54,0,1.03-0.33,1.48 c-0.13,0.18-0.25,0.36-0.36,0.55c-0.24,0.41-0.47,0.82-0.39,1.34c0.04,0.26-0.03,0.55-0.08,0.82c-0.19,0.94-0.74,1.4-1.71,1.44 c-0.83,0.03-1.63-0.11-2.43-0.33c-0.85-0.24-1.7-0.47-2.53-0.76c-0.55-0.19-0.99-0.56-1.13-1.18c-0.08-0.38,0-0.74,0.14-1.09 c0.1-0.25,0.19-0.5,0.27-0.71c-2.1-0.28-3.59-1.37-4.49-3.25c-0.21-0.44-0.28-0.94-0.38-1.42c-0.08-0.39,0.08-0.71,0.36-0.98 c0.5-0.48,0.99-0.96,1.47-1.45c0.12-0.12,0.21-0.28,0.29-0.44c0.37-0.72,0.42-1.46,0.3-2.27c-0.17-1.11-0.14-2.25,0.05-3.37 c0.01-0.03,0-0.06,0-0.11c-0.15,0-0.3,0.02-0.45,0.02c-0.8,0.01-1.36-0.36-1.72-1.06c-0.05-0.1-0.09-0.21-0.13-0.32 c-0.15-0.5-0.31-0.99-0.61-1.44C1.9,21.73,2,21.14,2.28,20.58c0.39-0.77,1-1.34,1.7-1.8c0.43-0.28,0.91-0.49,1.38-0.7 c0.11-0.05,0.32-0.02,0.39,0.06c0.07,0.08,0.03,0.26,0.04,0.4c0,0.01-0.01,0.03-0.01,0.05c-0.19,0.36-0.25,0.66,0.07,1.03 c0.34,0.41,0.25,0.95,0.17,1.45c-0.02,0.1-0.04,0.22-0.07,0.32c-0.09,0.26-0.35,0.32-0.53,0.11c-0.08-0.09-0.15-0.2-0.28-0.37 c0,0.6-0.13,1.08-0.51,1.47c0.02,0.02,0.04,0.04,0.05,0.07c0.27-0.17,0.57-0.3,0.81-0.5c0.49-0.4,0.91-0.86,1.24-1.42 c1.4-2.43,3.52-4.01,6.09-5.01c1.39-0.54,2.84-0.83,4.31-1.07c0.22-0.04,0.38-0.12,0.54-0.27c0.56-0.54,1.13-1.07,1.73-1.57 c0.4-0.34,0.91-0.49,1.43-0.56c0.1-0.01,0.22-0.1,0.29-0.18c0.42-0.49,0.8-1,1.24-1.47c0.8-0.88,1.78-1.5,2.88-1.94 c1.25-0.49,2.51-0.92,3.85-1.09c1.9-0.23,3.64,0.2,5.19,1.28c0.87,0.6,1.66,1.32,2.49,1.98c0.63,0.5,1.24,1.03,1.92,1.45 c1.18,0.72,1.99,1.74,2.58,2.96c0.03,0.06,0.06,0.13,0.1,0.2c0.5-0.16,0.96-0.37,1.27-0.81c0.24-0.33,0.48-0.66,0.71-0.98 c0.4-0.55,0.93-0.67,1.55-0.49c0.76,0.22,1.33,0.65,1.65,1.42c0.54,1.3,0.83,2.66,1,4.04c0.06,0.49,0.1,0.98,0.15,1.47 c0,0.55,0,1.1,0,1.66c-0.01,0.08-0.04,0.16-0.04,0.24c-0.1,1.27-0.37,2.5-0.89,3.66c-0.81,1.79-2.07,3.11-3.94,3.77 c-1.28,0.45-2.6,0.51-3.94,0.38c-0.26-0.03-0.52-0.06-0.79-0.09c-0.08,0.26-0.16,0.49-0.22,0.72c-0.26,1-0.9,1.71-1.79,2.2 c-1.34,0.74-2.67,0.6-3.83-0.39c-0.34-0.29-0.66-0.6-0.97-0.92c-0.13-0.12-0.22-0.28-0.33-0.42c-0.03,0.03-0.07,0.06-0.1,0.08 c0.02,0.06,0.04,0.13,0.06,0.19c0.29,0.74,0.6,1.47,0.88,2.21c0.11,0.3,0.21,0.62,0.23,0.94c0.06,0.78,0.07,1.57,0.11,2.36 c0,0.1,0.01,0.22,0.06,0.3c0.24,0.42,0.26,0.88,0.22,1.35c-0.09,1.01-0.57,1.56-1.57,1.61c-1.12,0.05-2.25,0.01-3.38-0.03 c-0.4-0.01-0.8-0.14-1.28-0.23c-0.43,0.34-0.92,0.77-1.44,1.15c-0.29,0.21-0.51,0.47-0.67,0.78c-0.26,0.5-0.67,0.86-1.2,1.05 c-0.35,0.13-0.71,0.2-1.07,0.3C21.71,43,21.62,43,21.52,43z M15.86,16.41c-0.01-0.02-0.02-0.03-0.03-0.05 c-0.32,0.07-0.63,0.13-0.95,0.21c-3.31,0.78-5.83,2.61-7.41,5.64c-0.55,1.04-1.01,2.13-1.13,3.32c-0.2,1.84,0.01,3.64,0.6,5.4 c0.57,1.71,1.39,3.3,2.39,4.79c0.11,0.16,0.17,0.31,0.14,0.52c-0.15,1.09-0.38,2.15-0.77,3.18C8.61,39.66,8.65,39.87,8.85,40 c0.22,0.15,0.45,0.3,0.7,0.37c0.76,0.22,1.53,0.42,2.31,0.59c0.4,0.08,0.82,0.1,1.23,0.1c0.39,0,0.49-0.09,0.54-0.48 c0.04-0.3,0.02-0.6,0.04-0.9c0.01-0.14,0.02-0.3,0.08-0.42c0.21-0.39,0.41-0.8,0.66-1.16c0.38-0.54,0.53-1.12,0.51-1.78 c-0.03-0.9,0-1.8,0.01-2.7c0-0.19,0.08-0.34,0.29-0.35c0.19-0.01,0.28,0.12,0.32,0.3c0.09,0.45,0.2,0.89,0.27,1.33 c0.03,0.2,0.11,0.27,0.3,0.29c1.47,0.2,2.94,0.18,4.41-0.09c0.07-0.01,0.15-0.1,0.18-0.18c0.17-0.43,0.33-0.86,0.49-1.29 c0.06-0.16,0.18-0.25,0.36-0.21c0.16,0.04,0.23,0.16,0.23,0.33c0,0.02,0,0.05,0,0.07c-0.07,0.98-0.17,1.96,0.01,2.94 c0.02,0.09-0.1,0.27-0.19,0.31c-0.08,0.04-0.25-0.03-0.33-0.1c-0.12-0.1-0.2-0.25-0.29-0.38c-0.6,0.36-1.19,0.71-1.77,1.09 c-0.1,0.06-0.16,0.27-0.15,0.4c0.03,0.25,0.09,0.52,0.22,0.74c0.42,0.71,0.85,1.41,1.32,2.09c0.16,0.24,0.42,0.42,0.66,0.6 c0.26,0.19,0.56,0.19,0.86,0.09c0.34-0.11,0.56-0.35,0.76-0.62c0.17-0.23,0.3-0.5,0.52-0.67c0.9-0.73,1.82-1.44,2.73-2.16 c0.2-0.16,0.39-0.34,0.55-0.54c1.06-1.44,1.94-2.97,2.4-4.71c0.2-0.77,0.41-1.55,0.62-2.32c0.06-0.24,0.01-0.38-0.24-0.48 c-0.22-0.08-0.43-0.21-0.6-0.36c-0.49-0.44-0.96-0.89-1.43-1.35c-0.13-0.12-0.14-0.28-0.01-0.41c0.12-0.14,0.27-0.13,0.42-0.03 c0.06,0.04,0.12,0.08,0.18,0.13c0.83,0.6,1.74,1.05,2.72,1.39c0.21,0.07,0.42,0.2,0.6,0.35c0.45,0.37,0.88,0.77,1.32,1.15 c0.21,0.18,0.42,0.34,0.63,0.51c-0.06-0.26-0.13-0.5-0.16-0.74c-0.06-0.62,0.1-1.21,0.27-1.79c0.19-0.62,0.12-1.24-0.05-1.86 c-0.09,0.1-0.16,0.21-0.21,0.32c-0.14,0.33-0.28,0.67-0.42,1.01c-0.07,0.17-0.2,0.26-0.39,0.2c-0.17-0.06-0.23-0.19-0.2-0.37 c0.07-0.42,0.15-0.85,0.22-1.27c0.08-0.48,0.37-0.76,0.84-0.85c0.36-0.07,0.72-0.13,1.07-0.21c0.2-0.04,0.37-0.02,0.43,0.19 c0.06,0.2-0.06,0.32-0.23,0.4c-0.22,0.11-0.44,0.21-0.68,0.33c0.64,0.48,1.33,0.78,2.06,1.01c1.39,0.43,2.79,0.81,4.26,0.82 c2.02,0.01,3.69-0.71,4.85-2.42c0.89-1.3,1.37-2.74,1.45-4.3c0.05-1-0.01-2.01-0.1-3.01c-0.11-1.26-0.38-2.5-0.85-3.68 c-0.05-0.13-0.15-0.25-0.26-0.42c-0.05,0.14-0.08,0.21-0.11,0.28c-0.25,0.6-0.58,1.15-1.08,1.56c-0.75,0.62-1.57,0.94-2.54,0.57 c-0.03-0.01-0.06-0.02-0.11-0.03c-0.01,0.1-0.03,0.18-0.02,0.25c0.23,1.19,0.18,2.37-0.12,3.54c-0.16,0.6-0.27,1.22-0.61,1.76 c-0.11,0.17-0.24,0.31-0.45,0.22s-0.19-0.27-0.15-0.46c0.11-0.57,0.22-1.15,0.32-1.72s0.08-1.14-0.05-1.73 c-0.36,0.15-0.65,0.36-0.8,0.7c-0.14,0.33-0.23,0.69-0.35,1.03c-0.16,0.43-0.32,0.87-0.49,1.29c-0.07,0.17-0.22,0.27-0.42,0.17 c-0.18-0.09-0.19-0.24-0.14-0.42c0.06-0.22,0.14-0.43,0.17-0.66c0.1-0.67,0.18-1.34,0.27-2.05c-0.16,0.19-0.34,0.37-0.49,0.58 c-0.12,0.17-0.19,0.38-0.3,0.56c-0.15,0.26-0.32,0.51-0.49,0.75c-0.09,0.13-0.24,0.17-0.39,0.07c-0.14-0.09-0.18-0.22-0.11-0.38 c0.2-0.5,0.39-1.01,0.58-1.52c0.21-0.56,0.59-0.94,1.15-1.14c0.16-0.06,0.33-0.11,0.5-0.16c-0.16-0.02-0.32-0.01-0.48,0.01 c-0.21,0.02-0.44,0.09-0.54-0.18c-0.09-0.26,0.13-0.35,0.29-0.44c-0.04-0.25-0.08-0.48-0.13-0.72c-0.09-0.02-0.19-0.03-0.28-0.05 c-0.18-0.03-0.31-0.11-0.32-0.31c-0.01-0.2,0.13-0.27,0.3-0.32c0.29-0.09,0.59-0.18,0.87-0.29c0.37-0.14,0.72-0.33,1.2-0.21 c-0.22-0.37-0.39-0.69-0.6-0.99c-0.67-0.92-1.53-1.5-2.74-1.39c-0.02,0-0.06,0.01-0.07,0c-0.1-0.07-0.28-0.14-0.29-0.23 c-0.01-0.11,0.1-0.25,0.19-0.34c0.06-0.06,0.17-0.06,0.27-0.08c-0.01-0.03-0.01-0.05-0.02-0.06c-0.89-0.73-1.76-1.48-2.68-2.17 c-1.06-0.79-2.26-1.28-3.61-1.26c-2.23,0.04-4.23,0.82-6.1,1.96c-0.54,0.33-0.94,0.82-1.35,1.36c0.12,0,0.2,0,0.28,0 c0.67-0.03,1.34-0.08,2.02-0.09c0.11,0,0.26,0.09,0.32,0.18c0.04,0.07-0.02,0.22-0.08,0.32c-0.03,0.06-0.14,0.08-0.21,0.1 c-1.07,0.21-2.13,0.47-3.2,0.59c-1,0.12-1.8,0.5-2.46,1.25c-1.18,1.36-2.35,2.73-3.59,4.04c-1,1.06-1.73,2.27-2.33,3.59 c-0.29,0.64-0.25,1.18,0.17,1.75c0.45,0.61,0.86,1.26,1.29,1.89c0.01,0.01,0.03,0.01,0.05,0.02c0.05-0.07,0.1-0.14,0.16-0.21 c0.71-0.88,1.42-1.75,2.12-2.63c0.12-0.15,0.28-0.21,0.45-0.09c0.17,0.13,0.14,0.29,0.04,0.45c-0.04,0.06-0.08,0.12-0.12,0.19 c-0.71,1.25-1.43,2.48-2.11,3.75c-0.2,0.37-0.27,0.81-0.38,1.22c-0.06,0.22,0,0.41,0.18,0.57c0.18,0.15,0.32,0.34,0.49,0.5 c0.85,0.8,2,0.96,3.03,0.42c0.55-0.29,1.1-0.6,1.65-0.89c0.87-0.47,1.76-0.97,2.74-1.09c0.69-0.09,0.92-0.46,1.05-1.03 c0.03-0.14,0.07-0.28,0.1-0.43c0.25-1.26,0.15-2.51-0.08-3.75c-0.32-1.74-0.38-3.48,0.03-5.21c0.1-0.41,0.18-0.55,0.39-0.52 c0.2,0.02,0.26,0.16,0.29,0.59c0.05,0.73,0.08,1.46,0.18,2.18c0.17,1.24,0.41,2.48,0.57,3.72c0.24,1.8,0.05,3.56-0.64,5.25 c-0.07,0.18-0.18,0.27-0.38,0.28c-0.93,0.04-1.81,0.29-2.64,0.7c-0.94,0.46-1.85,0.97-2.78,1.44c-1.42,0.71-2.82,0.63-4.1-0.32 c-0.56-0.42-1.03-0.97-1.52-1.47c-0.07-0.07-0.11-0.23-0.08-0.33c0.11-0.55,0.24-1.09,0.36-1.63c0.02-0.11,0.05-0.25,0-0.34 c-0.24-0.47-0.49-0.95-0.78-1.4c-0.31-0.49-0.68-0.95-1.02-1.43c-0.5-0.72-0.56-1.49-0.21-2.29c0.63-1.44,1.34-2.83,2.4-4.01 C14.96,17.49,15.4,16.94,15.86,16.41z M5.86,31.91c-0.43,0.41-0.87,0.87-1.36,1.27c-0.41,0.34-0.42,0.7-0.24,1.14 c0.04,0.09,0.07,0.18,0.11,0.27c0.54,1.09,1.43,1.8,2.54,2.25c0.17,0.07,0.37,0.08,0.55,0.07c0.37-0.02,0.62-0.58,0.44-0.89 c-0.33-0.56-0.67-1.11-0.96-1.69C6.55,33.51,6.2,32.68,5.86,31.91z M27.48,38.66c0.06,0.03,0.09,0.05,0.12,0.05 c1.05,0.02,2.1,0.04,3.15,0.04c0.08,0,0.21-0.1,0.23-0.18c0.11-0.39,0.24-0.79-0.02-1.19c-0.07-0.1-0.1-0.24-0.1-0.36 c-0.03-0.66-0.04-1.31-0.05-1.97c-0.01-0.66-0.2-1.26-0.51-1.92C29.75,35.21,28.86,37.05,27.48,38.66z M3.5,22.35 c0.29-0.21,0.48-0.47,0.53-0.81c0.06-0.49,0.1-0.98,0.15-1.52c-0.45,0.43-0.84,0.86-0.97,1.46C3.15,21.81,3.24,22.1,3.5,22.35z M43.29,15.84c0.52-0.36,0.94-0.81,1.25-1.36c-0.02-0.02-0.05-0.04-0.07-0.06C44.07,14.89,43.68,15.36,43.29,15.84z M5.48,23.53 C5.01,23.76,4.55,24.01,4,23.65c0.18,0.3,0.42,0.38,0.82,0.29C5.38,23.83,5.45,23.78,5.48,23.53z"></path> <path d="M0,19.97c0.13-0.61,0.53-1.01,1.02-1.36c0.2-0.14,0.37-0.19,0.55,0c0.36-0.27,0.71-0.54,1.07-0.81 c0.15-0.12,0.32-0.19,0.48-0.02c0.17,0.18,0.06,0.33-0.07,0.49c-0.44,0.57-0.92,1.11-1.3,1.72c-0.46,0.73-0.54,1.58-0.63,2.42 c-0.01,0.06,0,0.11-0.01,0.17c-0.03,0.16-0.13,0.27-0.3,0.27s-0.28-0.1-0.29-0.27c-0.03-0.46-0.05-0.92-0.07-1.4 c-0.3,0.04-0.41-0.15-0.45-0.43C0,20.49,0,20.23,0,19.97z"></path> <path d="M20.72,9.54c-0.32-0.13-0.37-0.23-0.27-0.53c0.06-0.17,0.12-0.34,0.18-0.5c0.19-0.48,0.53-0.81,1.02-0.97 c0.18-0.06,0.35-0.11,0.53-0.16c0.28-0.07,0.33-0.05,0.52,0.18c0.43-0.12,0.87-0.24,1.3-0.36c0.19-0.05,0.38-0.06,0.48,0.15 c0.08,0.17-0.02,0.32-0.27,0.44C24.06,7.86,23.92,7.94,23.77,8c-1.27,0.59-2.21,1.51-2.81,2.78c-0.05,0.11-0.11,0.22-0.17,0.32 c-0.09,0.15-0.22,0.23-0.39,0.15c-0.17-0.07-0.22-0.21-0.16-0.38c0.13-0.38,0.26-0.77,0.39-1.15C20.66,9.67,20.69,9.61,20.72,9.54z "></path> <path d="M33.84,17.25c0.21,0.29,0.41,0.57,0.64,0.88c0.16-0.03,0.39-0.08,0.62-0.12c0.15-0.02,0.31-0.06,0.46-0.03 c0.11,0.03,0.26,0.14,0.28,0.23c0.02,0.1-0.08,0.26-0.17,0.33c-0.11,0.08-0.27,0.09-0.41,0.14c-1.32,0.47-2.46,1.2-3.38,2.25 c-0.13,0.15-0.28,0.25-0.46,0.13c-0.19-0.12-0.17-0.3-0.08-0.47c0.1-0.18,0.21-0.36,0.29-0.5c-0.22-0.3-0.42-0.58-0.63-0.87 c-0.18,0.11-0.42,0.26-0.66,0.41c-0.15,0.09-0.3,0.08-0.41-0.06c-0.12-0.16-0.06-0.3,0.06-0.44c0.32-0.37,0.67-0.73,0.96-1.13 c0.55-0.76,1.27-1.2,2.2-1.33c0.27-0.04,0.53-0.13,0.8-0.21c0.17-0.06,0.33-0.07,0.43,0.1c0.1,0.18,0.03,0.33-0.13,0.44 C34.08,17.09,33.95,17.17,33.84,17.25z"></path> <path d="M20.83,16.37c-0.31,0.63-0.63,1.26-0.92,1.89c-0.22,0.46-0.4,0.94-0.6,1.41c-0.07,0.17-0.19,0.3-0.39,0.24 c-0.17-0.05-0.25-0.19-0.21-0.36c0.35-1.38,0.73-2.76,1.4-4.03c0.1-0.19,0.23-0.37,0.36-0.54c0.39-0.49,0.89-0.76,1.54-0.81 c0.9-0.06,1.79-0.18,2.68-0.27c0.2-0.02,0.39-0.04,0.44,0.21c0.05,0.24-0.12,0.33-0.3,0.4c-0.61,0.2-1.23,0.39-1.84,0.61 c-0.13,0.05-0.27,0.14-0.36,0.25c-0.53,0.63-0.92,1.33-1.01,2.17c-0.02,0.16-0.14,0.29-0.3,0.25c-0.11-0.03-0.25-0.15-0.27-0.25 c-0.07-0.37-0.1-0.75-0.14-1.12C20.88,16.39,20.85,16.38,20.83,16.37z"></path> <path d="M28.59,16.26c-0.01-0.8,0.3-1.45,1-1.83c0.51-0.28,1.08-0.45,1.63-0.66c0.18-0.07,0.32,0,0.39,0.18s-0.02,0.3-0.17,0.38 c-0.22,0.13-0.46,0.24-0.68,0.38c-0.73,0.46-1.2,1.12-1.41,1.96c-0.03,0.11-0.03,0.24-0.1,0.32c-0.07,0.09-0.2,0.21-0.29,0.2 c-0.11-0.01-0.25-0.13-0.28-0.24C28.62,16.73,28.62,16.49,28.59,16.26z"></path> </g> </svg> 