<?xml version="1.0" encoding="UTF-8"?> <!-- Generator: Adobe Illustrator 25.1.0, SVG Export Plug-In . SVG Version: 6.00 Build 0) --> <svg xmlns="http://www.w3.org/2000/svg" xmlns:xlink="http://www.w3.org/1999/xlink" version="1.1" id="Layer_1" x="0px" y="0px" viewBox="0 0 48 48" style="enable-background:new 0 0 48 48;" xml:space="preserve"> <style type="text/css"> .st0{fill:#40C4FF;} </style> <g> <path class="st0" d="M39,30.7l-1.6-1.5c0.9-1,3.2-3.4,4.4-4.7c0.2-0.2,0.3-0.5,0.2-0.8l0,0c0-0.2-0.1-0.3-0.2-0.4 c-0.1-0.1-0.3-0.2-0.4-0.2l0.4-2.2c0.6,0.1,1.1,0.4,1.6,0.8c0.4,0.4,0.7,0.9,0.9,1.4l0,0c0.3,1,0,2.1-0.7,2.9 C42.3,27.2,40,29.7,39,30.7z"></path> <path class="st0" d="M40.8,37.7l-2.2-0.1l0.2-2.9c0.1-1,0.5-1.9,1.1-2.6l4-4.1c1.1-1.1,1.7-2.7,1.7-4.3v-4.5l0,0L44.9,13l0,0 c0-0.1-0.1-0.2-0.1-0.3c-0.1-0.1-0.2-0.1-0.3-0.1l0,0c-0.5,0-0.6,0.1-0.8,0.3c-0.1,0.1-0.1,0.2-0.2,0.2c-0.2,0.4-0.2,0.8-0.2,1.6 c0,0.1,0,0.1,0,0.2l0.2,3.1l0,0c0,0.2,0,0.4-0.1,0.7l-0.8,3.4c-0.1,0.6-0.7,0.9-1.3,0.8c-0.3,0-0.6,0-0.8,0.3l-2.9,3.1 c-0.5,0.5-1,0.9-1.5,1.3H36l-3.5,1.7c-1.4,0.7-2.5,2-2.8,3.5c-0.1,0.3-0.1,0.5-0.1,0.7c0,0,0,0,0,0.1l0.1,3.9l-2.2,0.1l-0.2-4l0,0 v-0.1l0,0c0-0.4,0.1-0.7,0.2-1.1c0.5-2.2,2-4,4-5l3.4-1.7c0.4-0.2,0.7-0.5,1-0.9l2.9-3.1c0.5-0.5,1.1-0.8,1.7-0.9l0.6-2.5 c0,0,0,0,0-0.1L41,15.1l0,0c0-0.1,0-0.1,0-0.2c0-0.9-0.1-1.8,0.5-2.8c0.1-0.2,0.3-0.4,0.5-0.6c0.8-0.9,1.6-1,2.4-1l0,0 c0.7,0,1.3,0.3,1.8,0.7s0.8,1.1,0.8,1.7l0.7,6.2l0,0c0,0.1,0,0.1,0,0.2v4.5c0,2.2-0.9,4.3-2.4,5.8l-4,4.1c-0.3,0.3-0.5,0.7-0.5,1.1 V37.7z"></path> <path class="st0" d="M27.2,45.3c-0.5,0-1-0.2-1.4-0.6c-0.4-0.4-0.6-0.9-0.6-1.4v-4.8c0-0.5,0.2-1,0.6-1.4s0.9-0.6,1.4-0.6h14.3l0,0 c1.1,0,1.9,0.9,1.9,1.9l0,0v4.8c0,1.1-0.9,2-1.9,2L27.2,45.3L27.2,45.3z M27.4,38.7V43h13.8v-4.3H27.4z"></path> <path class="st0" d="M38.8,42.3c-0.3,0-0.7-0.1-0.9-0.4c-0.3-0.2-0.4-0.6-0.4-1s0.1-0.7,0.4-1c0.3-0.3,0.6-0.4,1-0.4s0.7,0.1,1,0.4 c0.3,0.2,0.4,0.6,0.4,1s-0.1,0.7-0.4,1C39.6,42.2,39.2,42.3,38.8,42.3L38.8,42.3z M38.2,41.6c0.2,0.1,0.4,0.2,0.6,0.2 c0.2,0,0.4-0.1,0.6-0.3c0.1-0.2,0.2-0.4,0.2-0.6c0-0.2-0.1-0.4-0.3-0.6L39,40.8l0.4-0.4l0,0c-0.2-0.1-0.4-0.2-0.6-0.2 c-0.2,0-0.4,0.1-0.6,0.3C38,40.6,38,40.8,38,41S38.1,41.4,38.2,41.6z"></path> <path class="st0" d="M24.2,24.7c-0.3,0-0.6-0.1-0.8-0.3l-11-11.1c-3-3-3-7.9,0-11C13.9,0.8,15.8,0,17.9,0s4,0.8,5.5,2.3l0.9,0.9 l0.9-0.9c3-3,7.9-3,11,0c3,3,3,7.9,0,11L25,24.3C24.8,24.5,24.5,24.7,24.2,24.7z M17.9,2.3c-1.5,0-2.9,0.6-3.9,1.6 c-2.2,2.2-2.2,5.7,0,7.8L24.2,22l10.3-10.3c2.2-2.2,2.2-5.7,0-7.8c-2.2-2.2-5.7-2.2-7.8,0L25,5.6c-0.2,0.2-0.5,0.3-0.8,0.3 s-0.6-0.1-0.8-0.3l-1.7-1.7C20.7,2.8,19.3,2.3,17.9,2.3z"></path> <path class="st0" d="M23.5,16L23.5,16c-0.5,0-0.9-0.3-1-0.7l-1.8-4.7l-1.6,3.3c-0.2,0.4-0.6,0.6-1,0.6h-4v-2.2h3.4l2.4-4.9 c0.2-0.4,0.6-0.6,1-0.6s0.8,0.3,1,0.7l1.8,4.7l1.1-2.3c0.2-0.4,0.6-0.6,1-0.6l0,0c0.4,0,0.8,0.2,1,0.6l1.2,2.5h2.7v2.2h-3.4 c-0.4,0-0.8-0.2-1-0.6l-0.4-1l-1.2,2.5C24.3,15.8,24,16,23.5,16z"></path> <path class="st0" d="M9.4,30.7c-0.9-1-3.3-3.5-4.4-4.8C4.3,25.1,4,24,4.3,23l0,0c0.1-0.6,0.5-1,0.9-1.4s1-0.7,1.6-0.8L7.1,23 c-0.2,0-0.3,0.1-0.4,0.2s-0.2,0.2-0.2,0.4l0,0c-0.1,0.3,0,0.6,0.2,0.8c1.2,1.3,3.5,3.7,4.4,4.7L9.4,30.7z"></path> <path class="st0" d="M7.7,37.7l-0.2-2.9c0-0.4-0.2-0.8-0.5-1.1l-4-4.1c-1.5-1.5-2.4-3.7-2.4-5.8v-4.5c0-0.1,0-0.1,0-0.2l0,0 l0.7-6.2c0.1-0.7,0.4-1.3,0.8-1.7c0.5-0.5,1.1-0.7,1.8-0.7l0,0c0.8,0,1.6,0.1,2.4,1C6.7,11.6,6.8,11.8,7,12c0.6,1,0.5,1.9,0.5,2.8 c0,0.1,0,0.1,0,0.2l0,0l-0.2,3.1c0,0,0,0,0,0.1l0.6,2.5c0.6,0.1,1.2,0.4,1.7,0.9l2.9,3.1c0.3,0.3,0.7,0.6,1,0.9l3.4,1.7 c2,1,3.5,2.8,4,5c0.1,0.4,0.1,0.8,0.2,1.1l0,0v0.1l0,0l-0.2,4l-2.2-0.1l0.1-3.9c0,0,0,0,0-0.1c0-0.2,0-0.5-0.1-0.7 c-0.4-1.5-1.4-2.8-2.8-3.5l-3.5-1.7h-0.1c-0.6-0.3-1.1-0.8-1.5-1.3l-2.9-3.1C7.7,23,7.4,22.9,7.1,23c-0.6,0.1-1.1-0.3-1.3-0.8 L5,18.8c0-0.3,0-0.5,0-0.7l0,0L5.2,15c0-0.1,0-0.1,0-0.2c0-0.8,0-1.2-0.2-1.6c0-0.1-0.1-0.2-0.1-0.3c-0.2-0.2-0.3-0.3-0.8-0.3l0,0 c-0.1,0-0.2,0-0.3,0.1S3.7,12.9,3.7,13l0,0L3,19.1l0,0v4.5c0,1.6,0.6,3.1,1.7,4.3l4,4.1c0.7,0.7,1.1,1.6,1.1,2.6l0.2,2.9L7.7,37.7z "></path> <path class="st0" d="M21.3,45.3L21.3,45.3H7c-1.1,0-1.9-0.9-1.9-2v-4.8l0,0c0-1.1,0.9-1.9,1.9-1.9l0,0h14.3c1.1,0,1.9,0.9,1.9,2 v4.8C23.3,44.4,22.4,45.3,21.3,45.3z M7.3,43h13.8v-4.3H7.3V43z"></path> <path class="st0" d="M9.7,42.3c-0.4,0-0.7-0.1-1-0.4c-0.2-0.3-0.4-0.6-0.4-1s0.2-0.7,0.4-1c0.3-0.2,0.6-0.4,1-0.4s0.7,0.2,1,0.4 c0.5,0.6,0.5,1.4-0.1,1.9C10.3,42.2,10,42.3,9.7,42.3z M9.1,40.4c-0.3,0.3-0.4,0.8,0,1.2c0.1,0.2,0.4,0.3,0.6,0.3 c0.2,0,0.4-0.1,0.6-0.2l0,0c0.2-0.1,0.3-0.4,0.3-0.6c0-0.2-0.1-0.4-0.2-0.6C10,40.1,9.4,40.1,9.1,40.4l0.4,0.4L9.1,40.4z"></path> </g> </svg> 