<?xml version="1.0" encoding="UTF-8"?> <!-- Generator: Adobe Illustrator 25.3.0, SVG Export Plug-In . SVG Version: 6.00 Build 0) --> <svg xmlns="http://www.w3.org/2000/svg" xmlns:xlink="http://www.w3.org/1999/xlink" version="1.1" id="Layer_1" x="0px" y="0px" viewBox="0 0 48 48" style="enable-background:new 0 0 48 48;" xml:space="preserve"> <style type="text/css"> .st0{fill:#9105E3;} </style> <g> <path class="st0" d="M45.4,0H2.6C1.2,0,0,1.4,0,3v34c0,1.7,1.2,3,2.6,3h16h1.8h7.2h1.8h16c1.4,0,2.6-1.3,2.6-3V3 C48,1.4,46.8,0,45.4,0z M46.3,37c0,0.6-0.4,1-0.9,1H2.6c-0.5,0-0.9-0.4-0.9-1v-2h44.6V37z M46.3,33H1.7V3c0-0.6,0.4-1,0.9-1h42.9 c0.5,0,0.9,0.4,0.9,1V33z"></path> <path class="st0" d="M29.7,46H18.3l1.5-6c-0.7,0-1.4,0-2.1,0l-1.5,6H12c-1.3,0-1.3,2,0,2h24c1.3,0,1.3-2,0-2h-4.2l-1.5-6 c-0.7,0-1.4,0-2.1,0L29.7,46z"></path> </g> <g> <path class="st0" d="M24,27.7c3.3,0,6.8-2.4,6.8-6.8c0-4.2-5.8-8.3-5.1-12.7c0.1-0.8-0.9-1.3-1.5-0.7c-0.3,0.3-7.1,7.8-7.1,13.4 C17.2,25.1,19.7,27.7,24,27.7z M24.1,10.3c0.8,4.1,5.1,7.7,5.1,10.5c0,3.3-2.6,5.1-5.1,5.1c-1.9,0-5.1-0.7-5.1-5.1 C18.9,17.3,22.1,12.7,24.1,10.3L24.1,10.3z"></path> <path class="st0" d="M24,24.2c1.1,0,1.1-1.7,0-1.7c-1.6,0-1.7-0.4-1.7-1.7c0-1.1-1.7-1.1-1.7,0C20.6,22.5,21,24.2,24,24.2z"></path> </g> </svg> 