<?xml version="1.0" encoding="UTF-8"?> <svg xmlns="http://www.w3.org/2000/svg" xmlns:xlink="http://www.w3.org/1999/xlink" width="60pt" height="60pt" viewBox="0 0 60 60" version="1.1"><g id="surface1"><path style=" stroke:none;fill-rule:nonzero;fill:rgb(0%,0%,0%);fill-opacity:1;" d="M 50.960938 54.164062 L 29.636719 60 L 8.300781 54.164062 L 3.386719 0 L 55.886719 0 Z M 50.960938 54.164062 "></path><path style=" stroke:none;fill-rule:nonzero;fill:rgb(9.803922%,9.803922%,9.803922%);fill-opacity:1;" d="M 29.636719 3.75 L 29.636719 55.789062 L 46.9375 50.636719 L 51.550781 3.75 Z M 29.636719 3.75 "></path><path style=" stroke:none;fill-rule:nonzero;fill:rgb(100%,100%,100%);fill-opacity:1;" d="M 45.3125 11.25 L 13.898438 11.25 L 14.636719 18.75 L 15.789062 31.875 L 36.199219 31.875 L 35.539062 39.351562 L 29.636719 41.238281 L 23.738281 39.351562 L 23.351562 35.625 L 16.136719 35.625 L 17 44.976562 L 29.636719 48.738281 L 42.25 44.976562 L 44.101562 24.375 L 22.601562 24.375 L 22.136719 18.75 L 44.636719 18.75 Z M 45.3125 11.25 "></path></g></svg> 