<?xml version="1.0" encoding="UTF-8"?> <svg xmlns="http://www.w3.org/2000/svg" xmlns:xlink="http://www.w3.org/1999/xlink" width="60pt" height="60pt" viewBox="0 0 60 60" version="1.1"><g id="surface1"><path style=" stroke:none;fill-rule:nonzero;fill:rgb(0%,0%,0%);fill-opacity:1;" d="M 0.0859375 18.039062 L 0.0859375 19.675781 L 11.738281 19.675781 L 11.738281 18.039062 Z M 13.386719 18.039062 L 13.386719 19.675781 L 29.976562 19.675781 C 29.976562 19.675781 28.273438 18.039062 26.039062 18.039062 Z M 33.238281 18.039062 L 33.238281 19.675781 L 43.273438 19.675781 L 42.675781 18.039062 Z M 50.460938 18.039062 L 49.863281 19.675781 L 59.8125 19.675781 L 59.8125 18.039062 Z M 0.0859375 21.226562 L 0.0859375 22.863281 L 11.738281 22.863281 L 11.738281 21.226562 Z M 13.386719 21.226562 L 13.386719 22.863281 L 31.914062 22.863281 C 31.914062 22.863281 31.699219 21.601562 31.324219 21.226562 Z M 33.238281 21.226562 L 33.238281 22.863281 L 44.375 22.863281 L 43.824219 21.226562 Z M 49.273438 21.226562 L 48.726562 22.863281 L 59.824219 22.863281 L 59.824219 21.226562 Z M 3.4375 24.398438 L 3.4375 26.039062 L 8.476562 26.039062 L 8.476562 24.398438 Z M 16.726562 24.398438 L 16.726562 26.039062 L 21.761719 26.039062 L 21.761719 24.398438 Z M 26.675781 24.398438 L 26.675781 26.039062 L 31.710938 26.039062 C 31.710938 26.039062 32.039062 25.175781 32.039062 24.398438 Z M 36.574219 24.398438 L 36.574219 26.039062 L 45.511719 26.039062 L 44.914062 24.398438 Z M 48.175781 24.398438 L 47.574219 26.039062 L 56.5625 26.039062 L 56.5625 24.398438 Z M 3.4375 27.585938 L 3.4375 29.226562 L 8.476562 29.226562 L 8.476562 27.585938 Z M 16.726562 27.585938 L 16.726562 29.226562 L 29.601562 29.226562 C 29.601562 29.226562 30.675781 28.386719 31.023438 27.585938 Z M 36.574219 27.585938 L 36.574219 29.226562 L 41.613281 29.226562 L 41.613281 28.3125 L 41.9375 29.226562 L 51.175781 29.226562 L 51.511719 28.3125 L 51.511719 29.226562 L 56.550781 29.226562 L 56.550781 27.585938 L 47.085938 27.585938 L 46.585938 28.976562 L 46.085938 27.585938 Z M 3.4375 30.773438 L 3.4375 32.414062 L 8.476562 32.414062 L 8.476562 30.773438 Z M 16.726562 30.773438 L 16.726562 32.414062 L 31.023438 32.414062 C 30.6875 31.613281 29.601562 30.773438 29.601562 30.773438 Z M 36.574219 30.773438 L 36.574219 32.414062 L 41.613281 32.414062 L 41.613281 30.773438 Z M 42.539062 30.773438 L 43.148438 32.414062 L 50.074219 32.414062 L 50.648438 30.773438 Z M 51.523438 30.773438 L 51.523438 32.414062 L 56.5625 32.414062 L 56.5625 30.773438 Z M 3.4375 33.960938 L 3.4375 35.601562 L 8.476562 35.601562 L 8.476562 33.960938 Z M 16.726562 33.960938 L 16.726562 35.601562 L 21.761719 35.601562 L 21.761719 33.960938 Z M 26.675781 33.960938 L 26.675781 35.601562 L 32.039062 35.601562 C 32.039062 34.824219 31.710938 33.960938 31.710938 33.960938 Z M 36.574219 33.960938 L 36.574219 35.601562 L 41.613281 35.601562 L 41.613281 33.960938 Z M 43.6875 33.960938 L 44.273438 35.601562 L 48.914062 35.601562 L 49.511719 33.960938 Z M 51.523438 33.960938 L 51.523438 35.601562 L 56.5625 35.601562 L 56.5625 33.960938 Z M 0.175781 37.136719 L 0.175781 38.773438 L 11.824219 38.773438 L 11.824219 37.136719 Z M 13.386719 37.136719 L 13.386719 38.773438 L 31.3125 38.773438 C 31.6875 38.398438 31.898438 37.136719 31.898438 37.136719 Z M 33.324219 37.136719 L 33.324219 38.773438 L 41.625 38.773438 L 41.625 37.136719 Z M 44.824219 37.136719 L 45.4375 38.773438 L 47.800781 38.773438 L 48.375 37.136719 Z M 51.523438 37.136719 L 51.523438 38.773438 L 59.914062 38.773438 L 59.914062 37.136719 Z M 0.175781 40.324219 L 0.175781 41.960938 L 11.824219 41.960938 L 11.824219 40.324219 Z M 13.386719 40.324219 L 13.386719 41.960938 L 26.039062 41.960938 C 28.289062 41.960938 29.976562 40.324219 29.976562 40.324219 Z M 33.324219 40.324219 L 33.324219 41.960938 L 41.625 41.960938 L 41.625 40.324219 Z M 45.976562 40.324219 L 46.5625 41.960938 L 46.664062 41.960938 L 47.25 40.324219 Z M 51.523438 40.324219 L 51.523438 41.960938 L 59.914062 41.960938 L 59.914062 40.324219 Z M 51.523438 40.324219 "></path></g></svg> 