<?xml version="1.0" encoding="UTF-8"?> <!-- Generator: Adobe Illustrator 25.1.0, SVG Export Plug-In . SVG Version: 6.00 Build 0) --> <svg xmlns="http://www.w3.org/2000/svg" xmlns:xlink="http://www.w3.org/1999/xlink" version="1.1" id="Layer_1" x="0px" y="0px" viewBox="0 0 48 48" style="enable-background:new 0 0 48 48;" xml:space="preserve"> <style type="text/css"> .st0{fill:#2BA02B;} </style> <g transform="translate(0,-271.59998)"> <path class="st0" d="M1.1,281.5c-0.6,0-1.1,0.5-1.1,1.1v32.6c0,0.6,0.5,1.1,1.1,1.1h17l-1.1,1.1h-2.8v2.2h19.6v-2.2H31l-1.1-1.1h17 c0.6,0,1.1-0.5,1.1-1.1v-32.6c0-0.6-0.5-1.1-1.1-1.1H37v2.2h8.7v25H2.2v-25h8.7v-2.2H1.1z M2.2,310.8h43.5v3.3H2.2V310.8z M21.1,316.3h5.6l1.1,1.1H20L21.1,316.3z"></path> <path class="st0" d="M23.9,271.7c-3.3,0-6,2.7-6,6v0.5h-2.2c-0.5,0-1,0.4-1.1,0.9l-3.3,19.6c-0.1,0.6,0.3,1.2,0.9,1.3 c0.1,0,0.1,0,0.2,0h22.8c0.6,0,1.1-0.5,1.1-1.1c0-0.1,0-0.1,0-0.2L33,279.1c-0.1-0.5-0.5-0.9-1.1-0.9h-2.2v-0.5 C29.9,274.3,27.2,271.7,23.9,271.7z M23.9,273.8c2.1,0,3.8,1.7,3.8,3.8v0.5h-7.6v-0.5C20.1,275.5,21.8,273.8,23.9,273.8z M16.7,280.4h14.1l-2.2,13.1h-4.7v2.2h4.3l-0.4,2.2h-14L16.7,280.4z M32.1,285.9l2,11.9h-4L32.1,285.9z"></path> <path class="st0" d="M43,312.5c0,0.6-0.5,1.1-1.1,1.1l0,0c-0.6,0-1.1-0.5-1.1-1.1l0,0c0-0.6,0.5-1.1,1.1-1.1l0,0 C42.5,311.4,43,311.9,43,312.5L43,312.5z"></path> <path class="st0" d="M19.6,293.4v2.2h2.2v-2.2H19.6z"></path> </g> </svg> 