<?xml version="1.0" encoding="UTF-8"?> <svg xmlns="http://www.w3.org/2000/svg" xmlns:xlink="http://www.w3.org/1999/xlink" width="60pt" height="60pt" viewBox="0 0 60 60" version="1.1"><g id="surface1"><path style=" stroke:none;fill-rule:nonzero;fill:rgb(0%,0%,0%);fill-opacity:1;" d="M 54.5625 0 L 5.4375 0 C 2.4375 0 0 2.4375 0 5.4375 L 0 54.5625 C 0 57.5625 2.4375 60 5.4375 60 L 54.5625 60 C 57.5625 60 60 57.5625 60 54.5625 L 60 5.4375 C 60 2.4375 57.5625 0 54.5625 0 "></path><path style=" stroke:none;fill-rule:nonzero;fill:rgb(100%,100%,100%);fill-opacity:1;" d="M 20.050781 18.875 C 22.050781 18.875 23.710938 17.3125 23.710938 15.261719 C 23.710938 13.210938 22.039062 11.648438 20.050781 11.648438 C 18.0625 11.648438 16.386719 13.210938 16.386719 15.261719 C 16.386719 17.3125 18.0625 18.875 20.050781 18.875 M 12.449219 38.210938 C 12.238281 39.136719 12.125 40.125 12.125 40.9375 C 12.125 44.113281 13.851562 46.226562 17.511719 46.226562 C 20.550781 46.226562 23.011719 44.425781 24.789062 41.5 L 23.699219 45.851562 L 29.738281 45.851562 L 33.1875 32.011719 C 34.050781 28.511719 35.726562 26.6875 38.25 26.6875 C 40.25 26.6875 41.488281 27.925781 41.488281 29.976562 C 41.488281 30.5625 41.4375 31.210938 41.210938 31.914062 L 39.4375 38.273438 C 39.164062 39.1875 39.0625 40.113281 39.0625 40.976562 C 39.0625 44 40.835938 46.199219 44.5625 46.199219 C 47.738281 46.199219 50.273438 44.148438 51.675781 39.25 L 49.300781 38.335938 C 48.113281 41.625 47.085938 42.210938 46.273438 42.210938 C 45.460938 42.210938 45.039062 41.675781 45.039062 40.601562 C 45.039062 40.113281 45.148438 39.574219 45.3125 38.925781 L 47.039062 32.726562 C 47.460938 31.273438 47.625 29.976562 47.625 28.800781 C 47.625 24.164062 44.824219 21.75 41.425781 21.75 C 38.25 21.75 35.011719 24.613281 33.398438 27.636719 L 34.585938 22.210938 L 25.375 22.210938 L 24.085938 26.988281 L 28.398438 26.988281 L 25.75 37.625 C 23.664062 42.261719 19.835938 42.335938 19.351562 42.226562 C 18.5625 42.050781 18.050781 41.75 18.050781 40.726562 C 18.050781 40.136719 18.164062 39.289062 18.425781 38.261719 L 22.460938 22.226562 L 12.238281 22.226562 L 10.949219 27 L 15.210938 27 L 12.449219 38.210938 "></path></g></svg> 