<?xml version="1.0" encoding="UTF-8"?> <svg xmlns="http://www.w3.org/2000/svg" xmlns:xlink="http://www.w3.org/1999/xlink" width="60pt" height="60pt" viewBox="0 0 60 60" version="1.1"><g id="surface1"><path style=" stroke:none;fill-rule:nonzero;fill:rgb(0%,0%,0%);fill-opacity:1;" d="M 23.734375 12.90625 C 21.324219 12.90625 19.273438 13.402344 17.289062 14.398438 C 12.121094 16.945312 9.140625 22.40625 9.140625 29.199219 C 9.140625 35.996094 12.046875 41.3125 17.214844 43.71875 C 18.632812 44.355469 20.046875 44.710938 22.171875 44.996094 C 23.238281 45.070312 24.222656 45.136719 25.289062 44.996094 C 27.414062 44.710938 28.828125 44.363281 30.246094 43.71875 C 35.414062 41.238281 38.320312 35.996094 38.320312 29.199219 C 38.320312 22.40625 35.339844 16.945312 30.171875 14.398438 C 28.121094 13.402344 26.070312 12.90625 23.734375 12.90625 Z M 25.785156 17.726562 C 28.902344 18.570312 31.097656 21.339844 32.019531 25.449219 C 32.652344 28.28125 32.441406 31.609375 31.597656 34.230469 C 30.253906 38.265625 27.347656 40.601562 23.734375 40.535156 C 20.195312 40.609375 17.214844 38.265625 15.871094 34.230469 C 15.023438 31.609375 14.804688 28.355469 15.449219 25.449219 C 16.296875 21.339844 18.566406 18.578125 21.683594 17.726562 C 23.027344 17.441406 24.441406 17.441406 25.785156 17.726562 Z M 25.785156 17.726562 "></path><path style=" stroke:none;fill-rule:nonzero;fill:rgb(0%,0%,0%);fill-opacity:1;" d="M 3.121094 12.90625 C 1.417969 12.90625 0.00390625 14.324219 0.00390625 16.023438 C 0.00390625 17.726562 1.417969 19.140625 3.121094 19.140625 C 4.820312 19.140625 6.238281 17.726562 6.238281 16.023438 C 6.238281 14.324219 4.820312 12.90625 3.121094 12.90625 Z M 0.214844 22.324219 L 0.214844 45.0625 L 6.023438 45.0625 L 6.023438 22.324219 Z M 0.214844 22.324219 "></path><path style=" stroke:none;fill-rule:nonzero;fill:rgb(0%,0%,0%);fill-opacity:1;" d="M 46.683594 45.0625 C 44.203125 44.640625 41.792969 44.28125 39.816406 43.148438 C 39.816406 43.148438 41.019531 38.542969 41.09375 38.480469 C 44.347656 39.609375 48.953125 41.097656 52 39.683594 C 53.699219 38.835938 54.480469 37.273438 54.269531 35.5 C 53.984375 33.449219 52.566406 32.308594 48.742188 30.894531 C 44.496094 29.265625 41.941406 27.355469 40.953125 24.800781 C 40.457031 23.519531 40.320312 21.964844 40.53125 20.550781 C 41.164062 16.652344 44.21875 13.957031 48.816406 13.113281 C 50.160156 12.898438 53.0625 12.898438 54.480469 13.113281 C 56.53125 13.46875 58.875 14.242188 58.875 14.527344 C 58.875 14.667969 57.671875 18.847656 57.597656 18.988281 C 55.546875 18.207031 53.347656 17.644531 51.363281 17.570312 C 48.667969 17.5 45.699219 19.128906 46.195312 21.964844 C 46.554688 23.742188 47.683594 24.585938 51.859375 26.289062 C 54.976562 27.566406 56.394531 28.414062 57.671875 29.691406 C 59.445312 31.464844 60.007812 33.515625 60.007812 35.566406 C 60.007812 37.265625 59.867188 38.046875 59.226562 39.390625 C 57.734375 42.582031 54.765625 44.421875 50.230469 44.917969 C 49.371094 45.0625 47.390625 45.136719 46.683594 45.0625 Z M 46.683594 45.0625 "></path></g></svg> 