<?xml version="1.0" encoding="UTF-8"?> <!-- Generator: Adobe Illustrator 25.1.0, SVG Export Plug-In . SVG Version: 6.00 Build 0) --> <svg xmlns="http://www.w3.org/2000/svg" xmlns:xlink="http://www.w3.org/1999/xlink" version="1.1" id="Layer_1" x="0px" y="0px" viewBox="0 0 48 48" style="enable-background:new 0 0 48 48;" xml:space="preserve"> <style type="text/css"> .st0{fill:#007BD6;} </style> <g> <path class="st0" d="M42.4,32.3c-2.4,0-4.4,1.7-5,3.9h-2.1c-0.8,0-1.5-0.7-1.5-1.5v-7.3h2.4c5.8,0,10.4-4.6,10.4-10.4 c0-6.2-5.4-11.2-11.7-10.3C32.4,2.5,28,0,23.1,0c-6,0-11.1,3.8-13,9.3c-4.9-0.1-9,4-9,9s4,9,9,9h3.7v7.3c0,0.8-0.7,1.5-1.5,1.5 h-2.1c-0.6-2.3-2.6-3.9-5-3.9c-2.9,0-5.2,2.3-5.2,5.2s2.4,5.2,5.2,5.2c2.4,0,4.4-1.7,5-3.9h2.1c2.3,0,4.1-1.9,4.1-4.1v-7.3h6.1 v10.3c-2.3,0.6-3.9,2.6-3.9,5c0,2.9,2.3,5.2,5.2,5.2s5.2-2.3,5.2-5.2c0-2.4-1.7-4.4-3.9-5V27.4h6.1v7.3c0,2.3,1.9,4.1,4.1,4.1h2.1 c0.6,2.3,2.6,3.9,5,3.9c2.9,0,5.2-2.3,5.2-5.2C47.6,34.6,45.3,32.3,42.4,32.3z M5.2,40.1c-1.4,0-2.6-1.2-2.6-2.6s1.2-2.6,2.6-2.6 s2.6,1.2,2.6,2.6S6.7,40.1,5.2,40.1z M26.4,42.7c0,1.5-1.2,2.6-2.6,2.6c-1.5,0-2.6-1.2-2.6-2.6c0-1.5,1.2-2.6,2.6-2.6 C25.3,40.1,26.4,41.3,26.4,42.7z M3.7,18.4c0-3.5,2.9-6.4,6.4-6.4c0.2,0,0.4,0.1,0.8,0.1c0.7,0.1,1.3-0.4,1.4-1 c1.2-4.9,5.7-8.4,10.8-8.4c4.2,0,8,2.3,9.9,6.1c0.3,0.6,0.9,0.8,1.5,0.7c0.6-0.2,1.2-0.2,1.7-0.2c4.3,0,7.8,3.5,7.8,7.8 s-3.5,7.8-7.8,7.8h-26C6.6,24.8,3.7,21.9,3.7,18.4z M42.4,40.1c-1.5,0-2.6-1.2-2.6-2.6s1.2-2.6,2.6-2.6c1.5,0,2.6,1.2,2.6,2.6 S43.9,40.1,42.4,40.1z"></path> <path class="st0" d="M23.8,8.9c-2.9,0-5.7,1.1-7.7,3.2c-0.5,0.5-0.5,1.4,0,1.9s1.4,0.5,1.9,0c3.1-3.1,8.6-3.1,11.7,0 c0.3,0.3,0.6,0.4,0.9,0.4c0.4,0,0.7-0.1,0.9-0.4c0.5-0.5,0.5-1.3,0-1.9C29.5,10,26.7,8.9,23.8,8.9z"></path> <path class="st0" d="M19.3,15.2c-0.5,0.5-0.5,1.4,0,1.9s1.4,0.5,1.9,0c1.5-1.5,3.9-1.5,5.4,0c0.3,0.3,0.6,0.4,0.9,0.4 s0.7-0.2,0.9-0.4c0.5-0.5,0.5-1.4,0-1.9C25.9,12.8,21.7,12.8,19.3,15.2z"></path> <circle class="st0" cx="23.8" cy="19.8" r="2"></circle> </g> </svg> 