<?xml version="1.0" encoding="UTF-8"?> <!-- Generator: Adobe Illustrator 25.3.0, SVG Export Plug-In . SVG Version: 6.00 Build 0) --> <svg xmlns="http://www.w3.org/2000/svg" xmlns:xlink="http://www.w3.org/1999/xlink" version="1.1" id="Layer_1" x="0px" y="0px" viewBox="0 0 60 60" style="enable-background:new 0 0 60 60;" xml:space="preserve"> <style type="text/css"> .st0{opacity:0.986;fill:#EBEBEB;fill-opacity:0;enable-background:new ;} .st1{opacity:0.986;fill:#EBEBEB;fill-opacity:0.9216;enable-background:new ;} </style> <g id="g5193" transform="translate(4.988 -113.385)"> <path id="path5113" d="M4,166.8l-4.8-52.7h51.5L46,166.7l-21,6L4,166.8z M42.2,163.9l4-45.1H25.1l0.2,49.7L42.2,163.9z M23.1,125.4 H18l-0.1,27L8,149.7v6.2l15.1,4.1V125.4L23.1,125.4z"></path> <path id="path5159" class="st0" d="M21.4,159.4c-0.7-0.2-3.9-1.1-7.3-2l-6-1.6v-3c0-3,0-3,0.3-2.9c0.2,0.1,2.4,0.7,4.9,1.4l4.6,1.3 v-13.5v-13.5h5v17.1c0,13.6,0,17.1-0.2,17.1C22.7,159.8,22.1,159.6,21.4,159.4L21.4,159.4z"></path> <path id="path5157" class="st1" d="M8,155.8v-6.2c0,0,6.4,1.8,9.9,2.7l0.1-27h5.1v34.5L8,155.8L8,155.8z"></path> <polygon points="25,118.8 46.7,118.8 42.5,164.3 25,169 "></polygon> <polygon class="st1" points="41.1,156.3 42.5,139.4 32.2,140.6 32.2,131.6 43.1,131.5 43.6,125.4 27.1,125.5 27.3,147.9 37.3,146.2 37.1,151.1 27.1,153.8 27.2,159.9 "></polygon> </g> </svg> 