<?xml version="1.0" encoding="UTF-8"?> <svg xmlns="http://www.w3.org/2000/svg" xmlns:xlink="http://www.w3.org/1999/xlink" width="60pt" height="60pt" viewBox="0 0 60 60" version="1.1"><g id="surface1"><path style=" stroke:none;fill-rule:nonzero;fill:rgb(0%,0%,0%);fill-opacity:1;" d="M 37.011719 36.6875 C 38.164062 35.898438 39.75 35.226562 39.75 35.226562 C 39.75 35.226562 35.210938 36.050781 30.699219 36.425781 C 25.175781 36.886719 19.25 36.976562 16.261719 36.574219 C 9.210938 35.636719 20.125 33.050781 20.125 33.050781 C 20.125 33.050781 15.886719 32.773438 10.675781 35.273438 C 4.539062 38.238281 25.9375 39.601562 37.011719 36.6875 Z M 37.011719 36.6875 "></path><path style=" stroke:none;fill-rule:nonzero;fill:rgb(0%,0%,0%);fill-opacity:1;" d="M 27 32.925781 C 24.773438 27.925781 17.261719 23.523438 27 15.835938 C 39.164062 6.238281 32.925781 0 32.925781 0 C 35.449219 9.898438 24.0625 12.914062 19.949219 19.0625 C 17.136719 23.273438 21.3125 27.789062 27 32.925781 Z M 27 32.925781 "></path><path style=" stroke:none;fill-rule:nonzero;fill:rgb(0%,0%,0%);fill-opacity:1;" d="M 40.4375 12.261719 C 40.449219 12.261719 19.898438 17.398438 29.710938 28.699219 C 32.613281 32.023438 28.949219 35.023438 28.949219 35.023438 C 28.949219 35.023438 36.300781 31.226562 32.925781 26.476562 C 29.761719 22.050781 27.351562 19.851562 40.4375 12.261719 Z M 40.4375 12.261719 "></path><path style=" stroke:none;fill-rule:nonzero;fill:rgb(0%,0%,0%);fill-opacity:1;" d="M 39.726562 43.976562 C 39.664062 44.113281 39.488281 44.261719 39.488281 44.273438 C 54.523438 40.324219 49 30.335938 41.8125 32.863281 C 41.175781 33.085938 40.851562 33.601562 40.851562 33.601562 C 40.851562 33.601562 41.25 33.4375 42.136719 33.25 C 45.761719 32.5 50.988281 38.125 39.726562 43.976562 Z M 39.726562 43.976562 "></path><path style=" stroke:none;fill-rule:nonzero;fill:rgb(0%,0%,0%);fill-opacity:1;" d="M 45.25 51.273438 C 45.25 51.273438 46.949219 52.675781 43.386719 53.761719 C 36.601562 55.8125 15.164062 56.4375 9.199219 53.851562 C 7.050781 52.925781 11.074219 51.625 12.335938 51.351562 C 13.648438 51.0625 14.414062 51.113281 14.414062 51.113281 C 12.039062 49.4375 -0.976562 54.414062 7.800781 55.824219 C 31.75 59.710938 51.460938 54.074219 45.25 51.273438 Z M 45.25 51.273438 "></path><path style=" stroke:none;fill-rule:nonzero;fill:rgb(0%,0%,0%);fill-opacity:1;" d="M 19.039062 46.425781 C 9.8125 49 24.648438 54.324219 36.398438 49.300781 C 34.476562 48.550781 33.101562 47.6875 33.101562 47.6875 C 27.863281 48.6875 25.4375 48.75 20.675781 48.210938 C 16.738281 47.761719 19.039062 46.425781 19.039062 46.425781 Z M 19.039062 46.425781 "></path><path style=" stroke:none;fill-rule:nonzero;fill:rgb(0%,0%,0%);fill-opacity:1;" d="M 40.113281 57.824219 C 30.886719 59.5625 19.5 59.363281 12.761719 58.25 C 12.761719 58.238281 14.148438 59.386719 21.25 59.851562 C 32.0625 60.539062 48.664062 59.460938 49.050781 54.351562 C 49.050781 54.335938 48.300781 56.273438 40.113281 57.824219 Z M 40.113281 57.824219 "></path><path style=" stroke:none;fill-rule:nonzero;fill:rgb(0%,0%,0%);fill-opacity:1;" d="M 35 41.386719 C 28.0625 42.726562 24.039062 42.6875 18.960938 42.164062 C 15.039062 41.75 17.601562 39.851562 17.601562 39.851562 C 7.425781 43.226562 23.25 47.050781 37.476562 42.886719 C 35.960938 42.363281 35 41.386719 35 41.386719 Z M 35 41.386719 "></path></g></svg> 