<?xml version="1.0" encoding="UTF-8"?> <svg xmlns="http://www.w3.org/2000/svg" xmlns:xlink="http://www.w3.org/1999/xlink" width="60pt" height="60pt" viewBox="0 0 60 60" version="1.1"><g id="surface1"><path style=" stroke:none;fill-rule:nonzero;fill:rgb(1.176471%,0.392157%,1.568627%);fill-opacity:1;" d="M 56.164062 0 L 3.835938 0 C 1.710938 0 0 1.710938 0 3.835938 L 0 56.175781 C 0 58.273438 1.710938 60 3.835938 60 L 56.175781 60 C 58.289062 60 60.011719 58.289062 60.011719 56.164062 L 60.011719 3.824219 C 60 1.710938 58.273438 0 56.164062 0 Z M 27.238281 33.8125 C 27.238281 35.476562 27.074219 36.898438 26.761719 38.074219 C 26.449219 39.25 25.960938 40.1875 25.324219 40.925781 C 24.6875 41.648438 23.886719 42.1875 22.925781 42.523438 C 21.976562 42.863281 20.863281 43.039062 19.585938 43.039062 C 18.476562 43.039062 17.460938 42.863281 16.5625 42.511719 C 14.789062 41.851562 13.398438 40.425781 12.800781 38.636719 C 12.4375 37.636719 12.273438 36.585938 12.289062 35.523438 L 12.289062 34.773438 L 15.875 34.773438 C 15.875 38.125 17.113281 39.800781 19.601562 39.800781 C 20.238281 39.800781 20.800781 39.726562 21.300781 39.574219 C 21.800781 39.414062 22.210938 39.136719 22.5625 38.710938 C 22.914062 38.289062 23.164062 37.710938 23.351562 36.960938 C 23.523438 36.210938 23.613281 35.226562 23.613281 34.011719 L 23.613281 15.289062 L 27.25 15.289062 Z M 47.300781 39.25 C 46.925781 40.011719 46.386719 40.6875 45.726562 41.238281 C 44.988281 41.824219 44.136719 42.289062 43.238281 42.5625 C 42.261719 42.875 41.164062 43.039062 39.949219 43.039062 C 34.585938 43.039062 31.75 40.925781 31.460938 36.675781 L 34.988281 36.675781 C 35 39.074219 36.648438 40.273438 39.914062 40.273438 C 40.636719 40.273438 41.289062 40.199219 41.835938 40.039062 C 42.398438 39.875 42.863281 39.664062 43.226562 39.375 C 43.949219 38.851562 44.375 38.023438 44.363281 37.136719 C 44.375 36.75 44.300781 36.363281 44.148438 36 C 44 35.710938 43.726562 35.460938 43.300781 35.238281 C 42.738281 34.960938 42.164062 34.75 41.5625 34.585938 C 40.601562 34.3125 39.625 34.039062 38.648438 33.789062 C 37.488281 33.5 36.476562 33.210938 35.625 32.914062 C 34.875 32.675781 34.175781 32.324219 33.539062 31.863281 C 33.011719 31.460938 32.585938 30.9375 32.324219 30.335938 C 32.0625 29.726562 31.9375 28.960938 31.9375 28.039062 C 31.9375 27.226562 32.113281 26.476562 32.449219 25.773438 C 32.800781 25.085938 33.289062 24.476562 33.925781 23.960938 C 34.5625 23.449219 35.335938 23.0625 36.238281 22.761719 C 37.226562 22.460938 38.25 22.3125 39.273438 22.324219 C 44.460938 22.324219 47.113281 24.164062 47.1875 27.863281 L 43.710938 27.863281 C 43.585938 26.023438 42.199219 25.085938 39.539062 25.085938 C 38.949219 25.085938 38.398438 25.148438 37.898438 25.261719 C 37.386719 25.375 36.960938 25.550781 36.585938 25.773438 C 36.210938 25.988281 35.925781 26.261719 35.710938 26.585938 C 35.5 26.925781 35.398438 27.3125 35.398438 27.710938 C 35.398438 28.101562 35.449219 28.414062 35.550781 28.664062 C 35.648438 28.914062 35.875 29.136719 36.238281 29.351562 C 36.601562 29.5625 37.136719 29.773438 37.863281 29.988281 C 38.574219 30.199219 39.550781 30.449219 40.800781 30.75 C 42 31.039062 43.039062 31.335938 43.925781 31.648438 C 44.800781 31.960938 45.539062 32.335938 46.125 32.773438 C 46.710938 33.210938 47.136719 33.75 47.425781 34.386719 C 47.699219 35.023438 47.851562 35.8125 47.851562 36.761719 C 47.863281 37.675781 47.675781 38.488281 47.300781 39.25 Z M 47.300781 39.25 "></path></g></svg> 