<?xml version="1.0" encoding="UTF-8"?> <svg xmlns="http://www.w3.org/2000/svg" xmlns:xlink="http://www.w3.org/1999/xlink" width="60pt" height="60pt" viewBox="0 0 60 60" version="1.1"><g id="surface1"><path style=" stroke:none;fill-rule:nonzero;fill:rgb(0%,0%,0%);fill-opacity:1;" d="M 56.363281 49.5 C 56.199219 48.199219 54.148438 46.8125 53.074219 45.789062 C 52.476562 45.199219 49.699219 43.101562 49.539062 42.300781 C 49.375 41.539062 50.664062 39.800781 51.085938 38.9375 C 51.6875 37.6875 52.113281 36.175781 52.398438 35.136719 C 54.585938 27.4375 54.8125 16.863281 51.675781 10.539062 C 50.488281 8.136719 47.175781 4.824219 45.113281 3.261719 C 40.226562 -0.425781 31.1875 -0.851562 25.300781 1.324219 C 23.664062 1.925781 22.0625 2.460938 20.625 3.3125 C 16.773438 5.574219 12.675781 7.101562 11.523438 11.648438 C 8.710938 12.914062 7.863281 16.511719 8 20.710938 C 8.023438 21.523438 8.476562 22.550781 8.3125 23.324219 C 8.226562 23.710938 7.710938 24.210938 7.601562 24.460938 C 6.25 27.6875 7.335938 31.914062 8.886719 34.210938 C 9.824219 35.601562 11.386719 36.824219 13.449219 37.148438 C 13.539062 38.386719 13.835938 39.449219 14.398438 40.6875 C 14.761719 41.476562 16.113281 42.898438 15.613281 43.914062 C 15.363281 44.425781 13.164062 45.523438 12.4375 45.960938 C 9.976562 47.414062 8.199219 48.324219 5.925781 49.960938 C 4.460938 51.011719 2.164062 51.148438 2.523438 53.585938 C 2.773438 55.226562 3.699219 57.261719 4.238281 58.925781 C 4.324219 59.164062 4.398438 59.398438 4.488281 59.625 L 53.636719 59.625 C 54.210938 57.835938 54.761719 56.023438 55.335938 54.125 C 55.738281 52.789062 56.539062 50.875 56.363281 49.5 Z M 23.613281 3.925781 C 23.824219 3.863281 24.011719 4.011719 24.1875 4.199219 C 24.164062 4.800781 23.5625 4.800781 23.148438 4.988281 C 22.523438 5.761719 21.585938 6.125 20.824219 6.988281 C 20.039062 7.863281 19.148438 10.210938 18.101562 10.488281 C 17.574219 10.613281 16.976562 10.398438 16.511719 10.425781 C 15.300781 10.511719 14.449219 11.125 13.210938 11.300781 C 14.789062 7.824219 19.738281 5.011719 23.613281 3.925781 Z M 11.398438 14.824219 C 12.976562 13.085938 15.136719 12.011719 17.789062 11.8125 C 19.148438 15.273438 16.8125 19.386719 17.6875 23.175781 C 17.949219 24.324219 18.875 26.136719 17.414062 26.164062 C 17.449219 22.863281 13.363281 20.773438 10.273438 22.710938 C 10.050781 20.210938 9.6875 16.699219 11.398438 14.824219 Z M 15.675781 38.136719 C 15.5625 37.664062 15.363281 36.636719 15.414062 36.375 C 15.601562 35.363281 17.398438 34.925781 16.6875 33.5 C 15.375 33.488281 15.074219 34.6875 13.875 34.8125 C 10.761719 35.113281 8.5625 30.6875 8.699219 28.011719 C 8.8125 25.738281 10.75 23.5625 13.375 23.835938 C 15.238281 24.050781 15.863281 26.074219 16.226562 27.875 C 17.300781 27.9375 18.851562 27.824219 19.363281 26.988281 C 19.289062 24.949219 18.335938 23.3125 18.414062 21.4375 C 18.523438 17.914062 20.449219 14.726562 18.976562 11.261719 C 20.5625 7.664062 25.199219 4.824219 28.648438 3.113281 C 32.914062 0.976562 39.699219 2.6875 43.710938 4.949219 C 46.011719 6.238281 47.726562 8.761719 49.335938 10.851562 C 47.0625 10.175781 45.136719 11.335938 45.488281 13.210938 C 47.386719 11.476562 50.636719 13.1875 51.601562 15.125 C 52.523438 16.960938 52.511719 19.699219 52.648438 22.4375 C 52.988281 29.074219 51.4375 35.9375 48.101562 40.738281 C 47.199219 42.011719 46.460938 43.414062 45.199219 44.300781 C 42.175781 46.425781 37.585938 48.335938 33.648438 47.023438 C 28.449219 45.273438 26.074219 41.8125 23.226562 37.851562 C 23.3125 40.023438 24.835938 41.824219 26.351562 43.488281 C 27.664062 44.9375 29.261719 46.585938 30.976562 47.261719 C 29.539062 46.925781 27.351562 46.824219 26.761719 48.101562 C 23.4375 47.875 20.351562 47.539062 18.761719 45.289062 C 17.5 43.5 16.25 40.460938 15.675781 38.136719 Z M 41.523438 52.585938 C 42 52.238281 42.8125 52.25 43.550781 52.164062 C 42.925781 51.851562 42.039062 51.738281 41.300781 51.914062 C 41.289062 51.425781 41.0625 51.125 40.925781 50.726562 C 42.164062 50.289062 45.0625 47.398438 46.699219 48.363281 C 47.476562 48.8125 47.8125 51.414062 47.875 52.675781 C 47.925781 53.726562 47.789062 54.773438 47.351562 55.324219 C 45.164062 55.25 43.175781 55 41.449219 54.511719 C 41.5625 53.800781 41.351562 53.101562 41.523438 52.585938 Z M 39.523438 50.261719 C 37.5625 50.351562 36.5 50.125 35.0625 49 C 35.085938 48.914062 35.226562 48.9375 35.238281 48.835938 C 37.335938 49.773438 39.988281 48.449219 42.113281 48.261719 C 41.1875 48.863281 40.414062 49.625 39.523438 50.261719 Z M 38.113281 54.125 C 37.925781 53.023438 37.699219 52.726562 37.789062 51.773438 C 40.699219 49.835938 41.25 55.113281 38.113281 54.125 Z M 25.949219 51.074219 C 24.601562 50.988281 20.351562 49.449219 21.460938 48.3125 C 22.5625 49.074219 24.664062 48.886719 26.273438 49.164062 C 26.363281 49.675781 25.949219 50.351562 25.949219 51.074219 Z M 6.351562 57.886719 C 5.851562 56.414062 5.273438 54.960938 4.625 53.585938 C 8.210938 50.8125 12.226562 47.886719 16.523438 46.1875 C 16.851562 46.0625 19.226562 49.148438 19.574219 49.398438 C 21.5 50.761719 23.886719 51.851562 26.125 52.914062 C 26.261719 53.9375 26.574219 55.261719 27.136719 57.050781 C 27.226562 57.3125 27.300781 57.601562 27.386719 57.886719 Z M 34.363281 58.550781 L 34.273438 58.550781 C 34.3125 58.523438 34.335938 58.5 34.363281 58.488281 Z M 35.238281 57.886719 C 35.488281 57.726562 35.738281 57.5625 35.988281 57.386719 C 36.113281 57.550781 36.238281 57.710938 36.363281 57.886719 Z M 37 55.011719 C 35.738281 55.863281 34.601562 57.148438 33.125 57.949219 C 32.425781 58.335938 29.976562 59.3125 29.238281 59.136719 C 28.8125 59.050781 28.789062 58.523438 28.613281 58.023438 C 28.25 56.976562 27.4375 55.300781 27.351562 53.710938 C 27.261719 51.710938 27.0625 48.351562 29.210938 48.773438 C 30.949219 49.113281 32.976562 49.898438 34.324219 50.648438 C 35.148438 51.101562 35.613281 51.648438 36.875 51.761719 C 36.863281 51.925781 36.863281 52.085938 36.851562 52.261719 C 36.164062 52.710938 35.0625 52.699219 34.3125 53.085938 C 35.425781 53.136719 36.289062 53.398438 37.050781 53.773438 C 37.039062 54.175781 37.011719 54.601562 37 55.011719 Z M 43.226562 57.886719 L 41.601562 57.886719 C 41.585938 57.511719 41.273438 57.210938 40.886719 57.210938 C 40.5 57.210938 40.199219 57.511719 40.175781 57.886719 L 38.148438 57.886719 C 37.824219 57.375 37.488281 56.886719 37.113281 56.4375 C 37.363281 56.1875 37.574219 55.886719 37.8125 55.636719 C 38.863281 56.0625 39.539062 55.0625 40.335938 55.148438 C 41.261719 55.238281 41.988281 56.511719 43.300781 56.425781 Z M 44.238281 57.886719 C 44.261719 57.425781 44.289062 56.976562 44.3125 56.550781 C 46.125 55.699219 47.6875 56.699219 48.476562 57.886719 Z M 53.949219 53.585938 C 53.6875 54.886719 53.273438 56.386719 52.800781 57.914062 C 52.773438 57.898438 52.75 57.898438 52.726562 57.898438 L 49.476562 57.898438 C 49.550781 57.773438 49.613281 57.648438 49.699219 57.511719 C 49.398438 56.800781 48.648438 56.5 48.425781 55.710938 C 49.835938 53.0625 49.1875 44.835938 45.613281 46.574219 C 46.113281 45.835938 47.425781 45.238281 48.039062 44.324219 C 49.550781 45.539062 50.460938 46.6875 51.898438 47.988281 C 52.6875 48.6875 54.226562 49.539062 54.386719 50.675781 C 54.488281 51.300781 54.085938 52.863281 53.949219 53.585938 Z M 25.5 15.199219 C 26.125 13.460938 28.664062 11.164062 30.738281 11.476562 C 31.636719 11.613281 32.835938 12.425781 32.164062 13.539062 C 28.648438 12.726562 26.898438 15 25.824219 17.386719 C 24.886719 17.148438 25.261719 15.863281 25.5 15.199219 Z M 46.949219 22.550781 C 47.898438 22.125 49.5625 22.460938 50.398438 21.9375 C 49.914062 20.601562 49.199219 19.449219 49.3125 17.550781 C 49.375 17.550781 49.425781 17.550781 49.476562 17.5625 C 50.261719 19.210938 50.949219 20.960938 51.960938 22.425781 C 51.300781 23.976562 46.886719 25.363281 46.949219 22.550781 Z M 35.675781 22.863281 C 34.886719 21.585938 33.460938 19.074219 33.988281 17.585938 C 34.75 18.976562 34.988281 20.425781 36.0625 21.460938 C 36.539062 21.925781 37.488281 22.511719 37.011719 23.8125 C 36.914062 24.125 36.101562 24.8125 35.648438 24.9375 C 33.976562 25.4375 30.074219 25.039062 31.386719 22.949219 C 32.773438 23.039062 34.636719 23.863281 35.675781 22.863281 Z M 38.851562 31.011719 C 39.289062 31.773438 39.011719 33.1875 40.261719 33.414062 C 42.613281 33.8125 45.335938 31.976562 47.023438 31.335938 C 48.074219 29.5625 46.9375 28.925781 45.988281 27.789062 C 44.050781 25.460938 41.460938 22.574219 41.5625 19.085938 C 42.335938 18.511719 42.414062 19.949219 42.511719 20.210938 C 43.523438 22.574219 46.050781 25.585938 47.898438 27.613281 C 48.351562 28.113281 49.101562 28.585938 49.175781 28.914062 C 49.425781 29.863281 48.550781 31.011719 48.648438 31.648438 C 46.125 33.273438 43.3125 35.039062 39.175781 34.636719 C 38.324219 33.851562 37.988281 32.136719 38.851562 31.011719 Z M 15.414062 29.9375 C 14.625 29.488281 14.4375 27.488281 13.5 27.449219 C 12.175781 27.363281 12.414062 30.039062 12.414062 31.585938 C 11.5 30.761719 11.335938 28.199219 12 26.898438 C 11.238281 26.523438 10.886719 27.324219 10.476562 27.585938 C 11.023438 23.601562 16.273438 25.738281 15.414062 29.9375 Z M 50.300781 33.289062 C 49.125 35.523438 47.460938 37.988281 44.011719 38.0625 C 43.9375 37.335938 43.886719 36.25 44.011719 35.800781 C 46.648438 35.550781 48.273438 34.210938 50.300781 33.289062 Z M 33.773438 34.738281 C 35.976562 35.886719 40.011719 36.011719 43.011719 35.925781 C 43.175781 36.574219 43.164062 37.386719 43.175781 38.1875 C 39.324219 38.398438 34.789062 37.4375 33.773438 34.738281 Z M 44.511719 40.175781 C 44.3125 40.675781 43.898438 41.261719 43.375 41.460938 C 41.960938 42.039062 38.0625 42.476562 36.113281 41.425781 C 34.863281 40.761719 34.074219 39.273438 33.386719 38.398438 C 33.0625 37.976562 31.425781 36.898438 33.363281 36.898438 C 34.875 40.710938 40.113281 40.289062 44.511719 40.175781 Z M 44.511719 40.175781 "></path></g></svg> 