<?xml version="1.0" encoding="UTF-8"?> <!-- Generator: Adobe Illustrator 23.0.3, SVG Export Plug-In . SVG Version: 6.00 Build 0) --> <svg xmlns="http://www.w3.org/2000/svg" xmlns:xlink="http://www.w3.org/1999/xlink" version="1.1" id="Layer_1" x="0px" y="0px" viewBox="0 0 48 48" style="enable-background:new 0 0 48 48;" xml:space="preserve"> <path d="M45.67,0.57H22.83c0,5.69,4.62,10.31,10.31,10.31h4.21v4.06c0,5.69,4.61,10.3,10.3,10.3V2.55 C47.65,1.46,46.76,0.57,45.67,0.57z"></path> <path d="M34.37,11.95H11.53c0,5.69,4.61,10.3,10.3,10.3h4.21v4.08c0.01,5.69,4.62,10.3,10.31,10.3v-22.7 C36.35,12.84,35.46,11.95,34.37,11.95L34.37,11.95z"></path> <path d="M23.06,23.32H0.22c0,5.69,4.62,10.31,10.31,10.31h4.22v4.06c0,5.68,4.61,10.29,10.29,10.3V25.31 C25.04,24.21,24.15,23.32,23.06,23.32L23.06,23.32z"></path> </svg> 