<?xml version="1.0" encoding="UTF-8"?> <svg xmlns="http://www.w3.org/2000/svg" xmlns:xlink="http://www.w3.org/1999/xlink" width="60pt" height="60pt" viewBox="0 0 60 60" version="1.1"><defs><filter id="alpha" x="0%" y="0%" width="100%" height="100%"><feColorMatrix type="matrix" in="SourceGraphic" values="0 0 0 0 1 0 0 0 0 1 0 0 0 0 1 0 0 0 1 0"></feColorMatrix></filter><mask id="mask0"><g filter="url(#alpha)"><rect x="0" y="0" width="60" height="60" style="fill:rgb(0%,0%,0%);fill-opacity:0.34902;stroke:none;"></rect></g></mask><clipPath id="clip1"><rect x="0" y="0" width="60" height="60"></rect></clipPath><g id="surface5" clip-path="url(#clip1)"><path style=" stroke:none;fill-rule:nonzero;fill:rgb(74.509804%,12.54902%,18.039216%);fill-opacity:1;" d="M 34.75 28.3125 C 34.5 28.324219 34.261719 28.324219 34.011719 28.324219 C 34.125 28.324219 34.273438 28.324219 34.386719 28.324219 C 34.523438 28.335938 34.636719 28.324219 34.75 28.3125 Z M 34.75 28.3125 "></path></g><mask id="mask1"><g filter="url(#alpha)"><rect x="0" y="0" width="60" height="60" style="fill:rgb(0%,0%,0%);fill-opacity:0.34902;stroke:none;"></rect></g></mask><clipPath id="clip2"><rect x="0" y="0" width="60" height="60"></rect></clipPath><g id="surface8" clip-path="url(#clip2)"><path style=" stroke:none;fill-rule:nonzero;fill:rgb(74.509804%,12.54902%,18.039216%);fill-opacity:1;" d="M 35.824219 25.375 C 35.863281 25.375 35.898438 25.375 35.9375 25.375 C 36.085938 25.375 36.261719 25.375 36.398438 25.363281 C 36.210938 25.363281 36.023438 25.363281 35.824219 25.375 Z M 35.824219 25.375 "></path></g><mask id="mask2"><g filter="url(#alpha)"><rect x="0" y="0" width="60" height="60" style="fill:rgb(0%,0%,0%);fill-opacity:0.34902;stroke:none;"></rect></g></mask><clipPath id="clip3"><rect x="0" y="0" width="60" height="60"></rect></clipPath><g id="surface11" clip-path="url(#clip3)"><path style=" stroke:none;fill-rule:nonzero;fill:rgb(74.509804%,12.54902%,18.039216%);fill-opacity:1;" d="M 34.398438 28.335938 C 34.273438 28.335938 34.148438 28.335938 34.023438 28.335938 C 34.148438 28.324219 34.273438 28.324219 34.398438 28.335938 Z M 34.398438 28.335938 "></path></g><linearGradient id="linear0" gradientUnits="userSpaceOnUse" x1="-8636.334" y1="1943.282" x2="-8246.7393" y2="1943.282" gradientTransform="matrix(0.0925,-0.14,-0.14,-0.0925,1082.41875,-966.6075)"><stop offset="0.323" style="stop-color:rgb(61.960784%,12.54902%,39.215686%);stop-opacity:1;"></stop><stop offset="0.63" style="stop-color:rgb(78.823529%,12.54902%,21.568627%);stop-opacity:1;"></stop><stop offset="0.751" style="stop-color:rgb(80.392157%,13.72549%,20.784314%);stop-opacity:1;"></stop><stop offset="1" style="stop-color:rgb(91.372549%,47.058824%,14.901961%);stop-opacity:1;"></stop></linearGradient></defs><g id="surface1"><path style=" stroke:none;fill-rule:nonzero;fill:rgb(0%,0%,0%);fill-opacity:1;" d="M 45.1875 0.175781 C 43.226562 1.25 41.425781 2.601562 39.835938 4.1875 L 41.164062 7.925781 C 42.601562 6.363281 44.148438 4.925781 45.800781 3.585938 C 45.914062 3.5 45.976562 3.449219 45.976562 3.449219 C 45.925781 3.5 45.851562 3.539062 45.800781 3.585938 C 44.210938 4.949219 42.738281 6.4375 41.386719 8.023438 C 43.8125 8.199219 46.226562 8.261719 48.648438 8.175781 C 49.476562 6.335938 49.523438 4.238281 48.800781 2.351562 C 48.800781 2.363281 47.449219 -0.75 45.1875 0.175781 Z M 45.1875 0.175781 "></path><path style=" stroke:none;fill-rule:nonzero;fill:rgb(74.509804%,12.54902%,18.039216%);fill-opacity:1;" d="M 34.75 28.3125 C 34.5 28.324219 34.261719 28.324219 34.011719 28.324219 C 34.125 28.324219 34.273438 28.324219 34.386719 28.324219 C 34.523438 28.335938 34.636719 28.324219 34.75 28.3125 Z M 34.75 28.3125 "></path><use xlink:href="#surface5" mask="url(#mask0)"></use><path style=" stroke:none;fill-rule:nonzero;fill:rgb(74.509804%,12.54902%,18.039216%);fill-opacity:1;" d="M 35.824219 25.375 C 35.863281 25.375 35.898438 25.375 35.9375 25.375 C 36.085938 25.375 36.261719 25.375 36.398438 25.363281 C 36.210938 25.363281 36.023438 25.363281 35.824219 25.375 Z M 35.824219 25.375 "></path><use xlink:href="#surface8" mask="url(#mask1)"></use><path style=" stroke:none;fill-rule:nonzero;fill:rgb(0%,0%,0%);fill-opacity:1;" d="M 34.425781 16.0625 C 35.148438 15.101562 35.851562 14.175781 36.5625 13.25 C 37.300781 12.3125 38.039062 11.398438 38.800781 10.523438 C 38.835938 10.476562 38.886719 10.425781 38.925781 10.375 C 39.664062 9.511719 40.386719 8.699219 41.125 7.914062 L 39.800781 4.1875 C 39.648438 4.324219 39.476562 4.488281 39.3125 4.636719 C 38.6875 5.210938 38.039062 5.851562 37.351562 6.511719 C 36.585938 7.273438 35.800781 8.074219 35.011719 8.925781 C 34.273438 9.710938 33.523438 10.539062 32.761719 11.398438 C 32.125 12.136719 31.460938 12.875 30.8125 13.664062 L 30.75 13.75 L 32.4375 18.800781 C 33.101562 17.886719 33.773438 16.960938 34.425781 16.0625 Z M 34.425781 16.0625 "></path><path style=" stroke:none;fill-rule:nonzero;fill:rgb(0%,0%,0%);fill-opacity:1;" d="M 19.664062 41.023438 C 19.226562 41.835938 18.773438 42.6875 18.324219 43.550781 C 18.324219 43.5625 18.3125 43.574219 18.3125 43.585938 C 18.25 43.710938 18.1875 43.835938 18.125 43.949219 C 17.8125 44.523438 17.5625 45.0625 16.9375 46.238281 C 17.664062 46.863281 18.175781 47.6875 18.414062 48.625 C 18.511719 47.613281 18.210938 46.585938 17.550781 45.789062 C 20.988281 46.449219 24.113281 46.011719 26.023438 43.699219 C 26.1875 43.5 26.363281 43.273438 26.511719 43.039062 C 25.601562 43.875 24.300781 44.148438 23.125 43.75 C 25.175781 43.3125 27.023438 42.199219 28.363281 40.601562 C 28.675781 40.226562 28.988281 39.824219 29.3125 39.363281 C 27.226562 41.074219 24.386719 41.5625 21.851562 40.625 L 19.886719 40.5625 C 19.824219 40.710938 19.75 40.851562 19.664062 41.023438 Z M 19.664062 41.023438 "></path><path style=" stroke:none;fill-rule:nonzero;fill:rgb(0%,0%,0%);fill-opacity:1;" d="M 21.210938 36.824219 C 21.789062 35.8125 22.386719 34.773438 22.976562 33.738281 C 23.550781 32.75 24.136719 31.75 24.738281 30.75 C 25.335938 29.761719 25.949219 28.75 26.5625 27.75 C 27.175781 26.75 27.824219 25.710938 28.476562 24.710938 C 29.113281 23.710938 29.773438 22.726562 30.425781 21.738281 C 30.664062 21.375 30.898438 21.023438 31.148438 20.6875 C 31.5625 20.085938 31.976562 19.488281 32.398438 18.886719 C 32.414062 18.851562 32.449219 18.824219 32.460938 18.789062 L 30.789062 13.738281 C 30.738281 13.800781 30.699219 13.851562 30.648438 13.914062 C 29.960938 14.738281 29.273438 15.585938 28.585938 16.449219 C 27.898438 17.3125 27.210938 18.210938 26.539062 19.136719 C 25.976562 19.914062 25.414062 20.6875 24.863281 21.460938 C 24.761719 21.613281 24.636719 21.789062 24.539062 21.9375 C 23.875 22.925781 23.238281 23.898438 22.675781 24.835938 C 22.039062 25.886719 21.449219 26.914062 20.9375 27.875 C 20.601562 28.5 20.273438 29.125 19.988281 29.710938 C 19.738281 30.210938 19.511719 30.726562 19.273438 31.238281 C 18.738281 32.4375 18.25 33.636719 17.824219 34.835938 L 19.523438 39.914062 C 19.960938 39.101562 20.425781 38.300781 20.875 37.476562 C 20.9375 37.289062 21.074219 37.074219 21.210938 36.824219 Z M 21.210938 36.824219 "></path><path style=" stroke:none;fill-rule:nonzero;fill:rgb(0%,0%,0%);fill-opacity:1;" d="M 17.6875 35.023438 C 17.175781 36.476562 16.738281 37.960938 16.398438 39.460938 C 16.398438 39.511719 16.375 39.5625 16.363281 39.613281 C 15.75 38.550781 14.9375 37.613281 13.960938 36.863281 C 15.113281 38.863281 15.726562 41.125 15.738281 43.425781 C 14.6875 43.363281 13.664062 43.023438 12.773438 42.460938 C 13.375 43.300781 14.1875 43.976562 15.125 44.414062 C 13.75 44.476562 12.414062 44.914062 11.273438 45.6875 C 12.6875 45.210938 14.210938 45.164062 15.648438 45.539062 C 13.335938 49.925781 10.960938 54.8125 8.511719 60 C 8.988281 59.9375 9.398438 59.625 9.625 59.199219 C 10.0625 58.261719 12.960938 52.074219 17.25 44.039062 C 17.363281 43.8125 17.5 43.585938 17.625 43.335938 C 17.664062 43.273438 17.6875 43.210938 17.726562 43.148438 C 18.175781 42.3125 18.648438 41.449219 19.125 40.5625 C 19.238281 40.363281 19.351562 40.164062 19.460938 39.960938 L 19.460938 39.949219 L 17.761719 34.875 C 17.726562 34.925781 17.710938 34.976562 17.6875 35.023438 Z M 17.6875 35.023438 "></path><path style=" stroke:none;fill-rule:nonzero;fill:rgb(0%,0%,0%);fill-opacity:1;" d="M 32.75 19.375 C 32.664062 19.5 32.585938 19.636719 32.476562 19.761719 C 32.199219 20.164062 31.9375 20.5625 31.664062 20.976562 C 31.386719 21.386719 31.074219 21.875 30.75 22.335938 C 30.601562 22.574219 30.4375 22.800781 30.273438 23.050781 C 29.800781 23.773438 29.324219 24.523438 28.835938 25.300781 C 28.238281 26.25 27.625 27.25 27 28.273438 C 26.414062 29.25 25.789062 30.273438 25.175781 31.324219 C 24.585938 32.324219 23.988281 33.363281 23.375 34.414062 C 22.835938 35.363281 22.273438 36.335938 21.710938 37.351562 C 21.6875 37.386719 21.664062 37.449219 21.636719 37.488281 C 21.085938 38.476562 20.511719 39.511719 19.949219 40.574219 C 19.9375 40.601562 19.925781 40.613281 19.914062 40.636719 L 21.875 40.699219 C 21.835938 40.6875 21.8125 40.675781 21.761719 40.664062 C 24.675781 40.511719 27.449219 39.425781 29.726562 37.601562 C 30.851562 36.6875 31.863281 35.636719 32.75 34.488281 C 33.523438 33.5 34.210938 32.4375 34.863281 31.363281 C 35.460938 30.351562 36.074219 29.238281 36.664062 28.023438 C 36.050781 28.226562 35.414062 28.351562 34.761719 28.386719 L 34.386719 28.414062 C 34.261719 28.414062 34.136719 28.414062 34.011719 28.414062 C 36.148438 27.886719 37.988281 26.550781 39.148438 24.6875 C 38.289062 25.101562 37.351562 25.363281 36.398438 25.449219 C 36.25 25.460938 36.085938 25.460938 35.9375 25.460938 C 35.898438 25.460938 35.863281 25.460938 35.824219 25.460938 C 36.550781 25.289062 37.25 25.023438 37.914062 24.664062 C 38.039062 24.601562 38.175781 24.523438 38.289062 24.4375 C 38.476562 24.324219 38.648438 24.175781 38.824219 24.050781 C 38.9375 23.960938 39.050781 23.875 39.164062 23.773438 C 39.425781 23.539062 39.664062 23.300781 39.886719 23.039062 C 39.960938 22.949219 40.023438 22.875 40.085938 22.773438 C 40.175781 22.648438 40.261719 22.511719 40.351562 22.398438 C 40.738281 21.851562 41.0625 21.351562 41.3125 20.886719 C 41.4375 20.664062 41.5625 20.460938 41.664062 20.273438 C 41.699219 20.199219 41.738281 20.136719 41.773438 20.050781 C 41.875 19.824219 41.976562 19.636719 42.0625 19.476562 C 42.148438 19.273438 42.226562 19.074219 42.300781 18.863281 C 42.210938 18.914062 42.125 18.960938 42.023438 18.988281 C 41.125 19.300781 40.1875 19.476562 39.226562 19.5 L 41.023438 19.5625 L 39.226562 19.5 C 39.210938 19.5 39.199219 19.5 39.1875 19.5 C 39.101562 19.5 39 19.5 38.898438 19.5 C 38.914062 19.5 38.9375 19.5 38.949219 19.488281 L 32.800781 19.261719 C 32.773438 19.351562 32.761719 19.375 32.75 19.375 Z M 32.75 19.375 "></path><path style=" stroke:none;fill-rule:nonzero;fill:rgb(0%,0%,0%);fill-opacity:1;" d="M 41.375 8.023438 C 40.710938 8.773438 39.988281 9.636719 39.199219 10.601562 C 39.164062 10.648438 39.113281 10.699219 39.085938 10.75 C 38.398438 11.585938 37.6875 12.511719 36.898438 13.550781 C 36.238281 14.4375 35.539062 15.363281 34.789062 16.398438 C 34.148438 17.289062 33.488281 18.226562 32.800781 19.238281 L 38.949219 19.460938 C 40.363281 19.125 41.648438 18.398438 42.648438 17.335938 C 42.898438 17.074219 43.136719 16.800781 43.398438 16.5 C 44.1875 15.601562 44.9375 14.648438 45.625 13.664062 C 46.25 12.773438 46.851562 11.851562 47.386719 10.914062 C 47.675781 10.425781 47.925781 9.914062 48.164062 9.386719 C 48.324219 8.988281 48.476562 8.601562 48.601562 8.226562 C 46.199219 8.273438 43.789062 8.199219 41.375 8.023438 Z M 41.375 8.023438 "></path><path style=" stroke:none;fill-rule:nonzero;fill:rgb(74.509804%,12.54902%,18.039216%);fill-opacity:1;" d="M 34.398438 28.335938 C 34.273438 28.335938 34.148438 28.335938 34.023438 28.335938 C 34.148438 28.324219 34.273438 28.324219 34.398438 28.335938 Z M 34.398438 28.335938 "></path><use xlink:href="#surface11" mask="url(#mask2)"></use><path style=" stroke:none;fill-rule:nonzero;fill:url(#linear0);" d="M 34.398438 28.335938 C 34.273438 28.335938 34.148438 28.335938 34.023438 28.335938 C 34.148438 28.324219 34.273438 28.324219 34.398438 28.335938 Z M 34.398438 28.335938 "></path></g></svg> 