<?xml version="1.0" encoding="UTF-8"?> <svg xmlns="http://www.w3.org/2000/svg" xmlns:xlink="http://www.w3.org/1999/xlink" width="60pt" height="60pt" viewBox="0 0 60 60" version="1.1"><g id="surface1"><path style=" stroke:none;fill-rule:nonzero;fill:rgb(0%,0%,0%);fill-opacity:1;" d="M 59.574219 8.136719 C 59.574219 3.789062 56.050781 0.261719 51.699219 0.261719 C 47.726562 0.261719 44.449219 3.199219 43.914062 7.023438 L 43.835938 6.988281 C 37.398438 4.085938 31.976562 9.226562 31.976562 9.226562 L 17.636719 23.636719 L 23.300781 29.101562 L 34.851562 17.761719 C 40.238281 12.375 43.175781 16.023438 43.175781 16.023438 C 47.238281 19.449219 43.3125 23.511719 43.3125 23.511719 L 49.125 29.113281 C 53.863281 23.988281 54.136719 19.523438 52.699219 15.960938 C 56.574219 15.449219 59.574219 12.148438 59.574219 8.136719 "></path><path style=" stroke:none;fill-rule:nonzero;fill:rgb(0%,0%,0%);fill-opacity:1;" d="M 52.761719 44.335938 C 52.789062 44.289062 52.800781 44.261719 52.800781 44.261719 C 55.699219 37.824219 50.5625 32.398438 50.5625 32.398438 L 36.164062 18.050781 L 30.699219 23.710938 L 42.039062 35.261719 C 47.425781 40.648438 43.773438 43.585938 43.773438 43.585938 C 40.351562 47.648438 36.289062 43.726562 36.289062 43.726562 L 30.6875 49.539062 C 35.8125 54.273438 40.273438 54.550781 43.835938 53.113281 C 44.335938 57 47.636719 60 51.648438 60 C 56 60 59.523438 56.476562 59.523438 52.125 C 59.523438 48.164062 56.585938 44.875 52.761719 44.335938 "></path><path style=" stroke:none;fill-rule:nonzero;fill:rgb(0%,0%,0%);fill-opacity:1;" d="M 36.273438 30.914062 L 24.726562 42.25 C 19.335938 47.636719 16.398438 43.988281 16.398438 43.988281 C 12.335938 40.5625 16.261719 36.5 16.261719 36.5 L 10.449219 30.898438 C 5.710938 36.023438 5.4375 40.488281 6.875 44.050781 C 3 44.550781 0 47.851562 0 51.863281 C 0 56.210938 3.523438 59.738281 7.875 59.738281 C 11.851562 59.738281 15.125 56.800781 15.664062 52.976562 C 15.710938 53 15.738281 53.011719 15.738281 53.011719 C 22.175781 55.914062 27.601562 50.773438 27.601562 50.773438 L 41.949219 36.363281 L 36.273438 30.914062 "></path><path style=" stroke:none;fill-rule:nonzero;fill:rgb(0%,0%,0%);fill-opacity:1;" d="M 17.539062 24.738281 C 12.148438 19.351562 15.800781 16.414062 15.800781 16.414062 C 19.226562 12.351562 23.289062 16.273438 23.289062 16.273438 L 28.886719 10.460938 C 23.761719 5.726562 19.300781 5.449219 15.738281 6.886719 C 15.25 3 11.9375 0 7.925781 0 C 3.574219 0 0.0507812 3.523438 0.0507812 7.875 C 0.0507812 11.851562 2.988281 15.125 6.8125 15.664062 C 6.789062 15.710938 6.773438 15.738281 6.773438 15.738281 C 3.875 22.175781 9.011719 27.601562 9.011719 27.601562 L 23.425781 41.949219 L 28.886719 36.289062 L 17.539062 24.738281 "></path></g></svg> 