<?xml version="1.0" encoding="UTF-8"?> <!-- Generator: Adobe Illustrator 23.0.3, SVG Export Plug-In . SVG Version: 6.00 Build 0) --> <svg xmlns="http://www.w3.org/2000/svg" xmlns:xlink="http://www.w3.org/1999/xlink" version="1.1" id="Layer_1" x="0px" y="0px" viewBox="0 0 48 48" style="enable-background:new 0 0 48 48;" xml:space="preserve"> <path d="M31.73,26.59c-1.87,0-3.54,0.83-4.69,2.13l-2.94-2.08c0.31-0.86,0.49-1.78,0.49-2.75c0-0.95-0.17-1.86-0.47-2.7l2.93-2.06 c1.15,1.3,2.82,2.12,4.68,2.12c3.45,0,6.26-2.81,6.26-6.26s-2.81-6.26-6.26-6.26s-6.26,2.81-6.26,6.26c0,0.62,0.09,1.21,0.26,1.78 l-2.94,2.06c-1.23-1.52-2.99-2.58-5-2.91v-3.54c2.83-0.6,4.97-3.11,4.97-6.12C22.76,2.81,19.95,0,16.5,0s-6.26,2.81-6.26,6.26 c0,2.97,2.08,5.46,4.86,6.09v3.58c-3.79,0.67-6.68,3.97-6.68,7.95c0,4,2.92,7.32,6.74,7.96v3.78c-2.81,0.62-4.91,3.12-4.91,6.11 c0,3.45,2.81,6.26,6.26,6.26s6.26-2.81,6.26-6.26c0-2.99-2.11-5.49-4.91-6.11v-3.78c1.93-0.33,3.68-1.34,4.92-2.86l2.96,2.1 c-0.16,0.56-0.26,1.15-0.26,1.76c0,3.45,2.81,6.26,6.26,6.26S38,36.29,38,32.84S35.18,26.59,31.73,26.59L31.73,26.59z M31.73,11.95 c1.67,0,3.03,1.36,3.03,3.03s-1.36,3.03-3.03,3.03s-3.03-1.36-3.03-3.03S30.06,11.95,31.73,11.95L31.73,11.95z M13.47,6.26 c0-1.67,1.36-3.03,3.03-3.03s3.03,1.36,3.03,3.03s-1.36,3.03-3.03,3.03S13.47,7.93,13.47,6.26L13.47,6.26z M19.54,41.74 c0,1.67-1.36,3.03-3.03,3.03s-3.03-1.36-3.03-3.03s1.36-3.03,3.03-3.03S19.54,40.07,19.54,41.74z M16.51,28.12 c-2.33,0-4.23-1.9-4.23-4.23s1.9-4.23,4.23-4.23s4.23,1.9,4.23,4.23S18.84,28.12,16.51,28.12z M31.73,35.88 c-1.67,0-3.03-1.36-3.03-3.03c0-1.67,1.36-3.03,3.03-3.03c1.67,0,3.03,1.36,3.03,3.03C34.77,34.52,33.4,35.88,31.73,35.88z"></path> </svg> 