<?xml version="1.0" encoding="UTF-8"?> <svg xmlns="http://www.w3.org/2000/svg" xmlns:xlink="http://www.w3.org/1999/xlink" width="60pt" height="60pt" viewBox="0 0 60 60" version="1.1"><g id="surface1"><path style=" stroke:none;fill-rule:nonzero;fill:rgb(0%,0%,0%);fill-opacity:1;" d="M 18.789062 58.414062 C 17.351562 58.414062 15.988281 57.773438 15.0625 56.613281 L 1.0625 39.199219 C 0.136719 38.039062 -0.210938 36.5625 0.136719 35.113281 L 5.136719 13.375 C 5.460938 11.9375 6.414062 10.773438 7.738281 10.136719 L 27.988281 0.449219 C 28.625 0.125 29.351562 -0.0234375 30.074219 -0.0234375 C 30.800781 -0.0234375 31.511719 0.136719 32.164062 0.449219 L 52.414062 10.101562 C 53.738281 10.738281 54.699219 11.898438 55.011719 13.335938 L 60.011719 35.074219 C 60.335938 36.511719 60.011719 38 59.085938 39.164062 L 45.085938 56.574219 C 44.164062 57.699219 42.800781 58.375 41.363281 58.375 Z M 18.789062 58.414062 "></path><path style=" stroke:none;fill-rule:nonzero;fill:rgb(100%,100%,100%);fill-opacity:1;" d="M 50.324219 33.601562 C 50.289062 33.601562 50.289062 33.601562 50.324219 33.601562 L 50.289062 33.601562 C 50.25 33.601562 50.210938 33.601562 50.210938 33.5625 C 50.136719 33.5625 50.050781 33.523438 49.976562 33.523438 C 49.699219 33.488281 49.449219 33.449219 49.210938 33.449219 C 49.085938 33.449219 48.976562 33.449219 48.8125 33.414062 L 48.773438 33.414062 C 47.9375 33.335938 47.25 33.25 46.613281 33.050781 C 46.335938 32.925781 46.25 32.773438 46.175781 32.613281 C 46.175781 32.574219 46.136719 32.574219 46.136719 32.539062 L 45.613281 32.375 C 45.863281 30.488281 45.761719 28.574219 45.335938 26.726562 C 44.898438 24.863281 44.136719 23.085938 43.101562 21.488281 L 43.5 21.125 L 43.5 21.050781 C 43.5 20.851562 43.539062 20.648438 43.699219 20.449219 C 44.175781 20.011719 44.773438 19.648438 45.5 19.210938 C 45.625 19.136719 45.738281 19.085938 45.863281 19.011719 C 46.101562 18.886719 46.300781 18.773438 46.539062 18.613281 C 46.574219 18.574219 46.664062 18.539062 46.738281 18.449219 C 46.773438 18.414062 46.8125 18.414062 46.8125 18.375 C 47.375 17.898438 47.488281 17.101562 47.085938 16.574219 C 46.886719 16.300781 46.523438 16.136719 46.164062 16.136719 C 45.835938 16.136719 45.5625 16.261719 45.289062 16.460938 L 45.210938 16.539062 C 45.136719 16.574219 45.085938 16.664062 45.011719 16.699219 C 44.8125 16.898438 44.648438 17.0625 44.488281 17.261719 C 44.414062 17.335938 44.324219 17.460938 44.210938 17.539062 C 43.648438 18.136719 43.136719 18.613281 42.613281 18.976562 C 42.488281 19.050781 42.375 19.101562 42.25 19.101562 C 42.175781 19.101562 42.085938 19.101562 42.011719 19.0625 L 41.9375 19.0625 L 41.460938 19.386719 C 40.9375 18.824219 40.386719 18.351562 39.824219 17.863281 C 37.414062 15.976562 34.511719 14.824219 31.460938 14.539062 L 31.425781 14.011719 L 31.351562 13.9375 C 31.226562 13.8125 31.074219 13.699219 31.023438 13.414062 C 30.988281 12.773438 31.0625 12.050781 31.148438 11.25 L 31.148438 11.1875 C 31.148438 11.0625 31.1875 10.914062 31.226562 10.789062 C 31.261719 10.550781 31.300781 10.3125 31.351562 10.023438 L 31.351562 9.664062 C 31.351562 8.9375 30.789062 8.335938 30.113281 8.335938 C 29.789062 8.335938 29.476562 8.5 29.238281 8.738281 C 29 8.976562 28.875 9.300781 28.875 9.664062 L 28.875 9.988281 C 28.875 10.261719 28.914062 10.511719 29 10.75 C 29.039062 10.875 29.039062 10.988281 29.074219 11.148438 L 29.074219 11.1875 C 29.148438 11.988281 29.273438 12.710938 29.199219 13.351562 C 29.164062 13.625 29 13.75 28.875 13.875 L 28.800781 13.949219 L 28.761719 14.476562 C 28.039062 14.550781 27.324219 14.636719 26.601562 14.800781 C 23.511719 15.476562 20.800781 17.039062 18.675781 19.289062 L 18.273438 19.011719 L 18.199219 19.011719 C 18.125 19.011719 18.039062 19.050781 17.960938 19.050781 C 17.835938 19.050781 17.726562 19.011719 17.601562 18.925781 C 17.074219 18.5625 16.5625 18.050781 16 17.449219 C 15.925781 17.375 15.835938 17.25 15.726562 17.175781 C 15.5625 16.976562 15.398438 16.8125 15.199219 16.613281 C 15.164062 16.574219 15.074219 16.539062 15 16.449219 C 14.960938 16.414062 14.925781 16.414062 14.925781 16.375 C 14.675781 16.175781 14.363281 16.0625 14.050781 16.050781 C 13.6875 16.050781 13.324219 16.210938 13.125 16.488281 C 12.726562 17.011719 12.851562 17.8125 13.398438 18.289062 C 13.4375 18.289062 13.4375 18.324219 13.476562 18.324219 C 13.550781 18.363281 13.601562 18.449219 13.675781 18.488281 C 13.914062 18.648438 14.113281 18.761719 14.351562 18.886719 C 14.476562 18.925781 14.585938 19.011719 14.710938 19.085938 C 15.4375 19.523438 16.039062 19.886719 16.511719 20.324219 C 16.710938 20.523438 16.710938 20.726562 16.710938 20.925781 L 16.710938 21 L 17.113281 21.363281 C 17.039062 21.488281 16.949219 21.5625 16.914062 21.6875 C 14.914062 24.851562 14.148438 28.574219 14.675781 32.25 L 14.148438 32.414062 C 14.148438 32.449219 14.113281 32.449219 14.113281 32.488281 C 14.039062 32.648438 13.914062 32.8125 13.675781 32.925781 C 13.074219 33.125 12.351562 33.199219 11.511719 33.289062 L 11.425781 33.289062 C 11.300781 33.289062 11.148438 33.289062 11.023438 33.324219 C 10.789062 33.324219 10.550781 33.363281 10.261719 33.398438 C 10.1875 33.398438 10.101562 33.4375 10.023438 33.4375 C 9.988281 33.4375 9.949219 33.4375 9.898438 33.476562 C 9.175781 33.636719 8.738281 34.3125 8.863281 34.949219 C 8.988281 35.511719 9.5 35.875 10.136719 35.875 C 10.261719 35.875 10.335938 35.875 10.460938 35.835938 C 10.5 35.835938 10.539062 35.835938 10.539062 35.800781 C 10.613281 35.800781 10.699219 35.761719 10.773438 35.761719 C 11.050781 35.6875 11.25 35.601562 11.5 35.488281 C 11.625 35.449219 11.738281 35.363281 11.863281 35.324219 L 11.898438 35.324219 C 12.664062 35.050781 13.335938 34.800781 13.988281 34.726562 L 14.0625 34.726562 C 14.300781 34.726562 14.460938 34.851562 14.585938 34.925781 C 14.625 34.925781 14.625 34.960938 14.664062 34.960938 L 15.226562 34.886719 C 16.1875 37.851562 18.023438 40.488281 20.460938 42.414062 C 21.023438 42.851562 21.585938 43.210938 22.1875 43.574219 L 21.949219 44.101562 C 21.949219 44.136719 21.988281 44.136719 21.988281 44.175781 C 22.0625 44.335938 22.148438 44.539062 22.0625 44.8125 C 21.824219 45.414062 21.460938 46.011719 21.023438 46.699219 L 21.023438 46.738281 C 20.949219 46.863281 20.863281 46.9375 20.789062 47.0625 C 20.625 47.261719 20.511719 47.460938 20.351562 47.699219 C 20.3125 47.738281 20.273438 47.824219 20.226562 47.898438 C 20.226562 47.9375 20.1875 47.976562 20.1875 47.976562 C 19.863281 48.648438 20.113281 49.414062 20.710938 49.699219 C 20.875 49.773438 21.039062 49.824219 21.1875 49.824219 C 21.664062 49.824219 22.148438 49.5 22.386719 49.0625 C 22.386719 49.023438 22.425781 48.988281 22.425781 48.988281 C 22.460938 48.914062 22.5 48.824219 22.550781 48.789062 C 22.675781 48.511719 22.710938 48.3125 22.789062 48.0625 L 22.914062 47.699219 C 23.1875 46.898438 23.386719 46.261719 23.75 45.699219 C 23.914062 45.460938 24.113281 45.425781 24.273438 45.335938 C 24.3125 45.335938 24.3125 45.335938 24.351562 45.300781 L 24.625 44.773438 C 26.386719 45.449219 28.3125 45.8125 30.226562 45.8125 C 31.386719 45.8125 32.585938 45.6875 33.710938 45.414062 C 34.414062 45.25 35.113281 45.050781 35.800781 44.8125 L 36.039062 45.25 C 36.074219 45.25 36.074219 45.25 36.113281 45.289062 C 36.3125 45.324219 36.476562 45.414062 36.636719 45.648438 C 36.960938 46.210938 37.199219 46.886719 37.476562 47.648438 L 37.476562 47.6875 L 37.601562 48.050781 C 37.675781 48.289062 37.726562 48.523438 37.835938 48.773438 C 37.875 48.851562 37.914062 48.898438 37.960938 48.976562 C 37.960938 49.011719 38 49.050781 38 49.050781 C 38.238281 49.523438 38.726562 49.8125 39.199219 49.8125 C 39.363281 49.8125 39.523438 49.773438 39.675781 49.6875 C 39.949219 49.523438 40.199219 49.289062 40.273438 48.960938 C 40.351562 48.636719 40.351562 48.289062 40.199219 47.960938 C 40.199219 47.925781 40.164062 47.925781 40.164062 47.886719 C 40.125 47.8125 40.085938 47.726562 40.039062 47.6875 C 39.914062 47.449219 39.761719 47.25 39.601562 47.050781 C 39.523438 46.925781 39.4375 46.851562 39.363281 46.726562 L 39.363281 46.6875 C 38.925781 46.011719 38.523438 45.414062 38.324219 44.800781 C 38.25 44.523438 38.324219 44.363281 38.363281 44.164062 C 38.363281 44.125 38.398438 44.125 38.398438 44.085938 L 38.199219 43.613281 C 40.324219 42.375 42.125 40.613281 43.488281 38.449219 C 44.210938 37.324219 44.761719 36.085938 45.164062 34.851562 L 45.636719 34.925781 C 45.675781 34.925781 45.675781 34.886719 45.710938 34.886719 C 45.875 34.8125 45.988281 34.6875 46.238281 34.6875 L 46.3125 34.6875 C 46.949219 34.761719 47.636719 35.011719 48.398438 35.289062 L 48.4375 35.289062 C 48.5625 35.324219 48.675781 35.414062 48.800781 35.449219 C 49.039062 35.574219 49.238281 35.648438 49.523438 35.726562 C 49.601562 35.726562 49.6875 35.761719 49.761719 35.761719 C 49.800781 35.761719 49.835938 35.761719 49.886719 35.800781 C 50.011719 35.835938 50.085938 35.835938 50.210938 35.835938 C 50.8125 35.835938 51.335938 35.4375 51.488281 34.914062 C 51.488281 34.4375 51.050781 33.800781 50.324219 33.601562 Z M 31.800781 31.636719 L 30.039062 32.476562 L 28.273438 31.636719 L 27.835938 29.761719 L 29.039062 28.238281 L 31 28.238281 L 32.199219 29.761719 Z M 42.25 27.476562 C 42.5625 28.800781 42.648438 30.164062 42.523438 31.511719 L 36.398438 29.75 C 35.835938 29.585938 35.523438 29.023438 35.636719 28.476562 C 35.675781 28.3125 35.761719 28.148438 35.875 28.039062 L 40.710938 23.675781 C 41.398438 24.789062 41.925781 26.074219 42.25 27.476562 Z M 38.800781 21.261719 L 33.5625 24.988281 C 33.125 25.261719 32.523438 25.1875 32.164062 24.75 C 32.039062 24.625 32 24.476562 31.960938 24.3125 L 31.601562 17.789062 C 34.324219 18.101562 36.863281 19.324219 38.800781 21.261719 Z M 27.199219 17.988281 C 27.636719 17.914062 28.039062 17.824219 28.476562 17.75 L 28.113281 24.148438 C 28.074219 24.710938 27.636719 25.1875 27.039062 25.1875 C 26.875 25.1875 26.675781 25.148438 26.5625 25.0625 L 21.238281 21.261719 C 22.875 19.625 24.914062 18.511719 27.199219 17.988281 Z M 19.3125 23.675781 L 24.074219 27.914062 C 24.511719 28.273438 24.550781 28.949219 24.199219 29.386719 C 24.074219 29.550781 23.925781 29.664062 23.726562 29.710938 L 17.523438 31.511719 C 17.261719 28.789062 17.875 26.039062 19.3125 23.675781 Z M 18.226562 34.511719 L 24.585938 33.4375 C 25.113281 33.398438 25.585938 33.761719 25.710938 34.273438 C 25.75 34.511719 25.75 34.710938 25.675781 34.914062 L 23.238281 40.800781 C 20.988281 39.363281 19.1875 37.164062 18.226562 34.511719 Z M 32.835938 42.488281 C 31.914062 42.6875 31 42.8125 30.039062 42.8125 C 28.636719 42.8125 27.273438 42.574219 26 42.175781 L 29.164062 36.449219 C 29.488281 36.085938 30 35.925781 30.4375 36.175781 C 30.625 36.289062 30.789062 36.4375 30.914062 36.613281 L 34 42.175781 C 33.636719 42.289062 33.238281 42.363281 32.835938 42.488281 Z M 40.648438 36.914062 C 39.648438 38.511719 38.324219 39.800781 36.8125 40.800781 L 34.289062 34.75 C 34.164062 34.273438 34.363281 33.75 34.851562 33.511719 C 35.011719 33.4375 35.210938 33.386719 35.414062 33.386719 L 41.8125 34.460938 C 41.5625 35.363281 41.164062 36.164062 40.648438 36.914062 Z M 40.648438 36.914062 "></path></g></svg> 