<?xml version="1.0" encoding="UTF-8"?> <!-- Generator: Adobe Illustrator 23.0.3, SVG Export Plug-In . SVG Version: 6.00 Build 0) --> <svg xmlns="http://www.w3.org/2000/svg" xmlns:xlink="http://www.w3.org/1999/xlink" version="1.1" id="Layer_1" x="0px" y="0px" viewBox="0 0 48 48" style="enable-background:new 0 0 48 48;" xml:space="preserve"> <style type="text/css"> .st0{fill:#FFFFFF;} </style> <g> <circle id="ellipse" cx="24" cy="24" r="24"></circle> <path id="logo" class="st0" d="M27.2,35.2c-0.3-0.1-0.5-0.3-0.7-0.6c-0.2-0.4-0.5-0.8-0.7-1.2c-0.9-1.5-1.7-3-2.6-4.6 c0,0,0-0.1-0.1-0.1c-0.1,0-0.3,0.1-0.4,0.1c-1.9,0.5-3.8,1-5.6,1.5c-0.2,0.1-0.4,0.1-0.7,0.1c-0.5,0-0.8-0.2-1-0.6 c-0.1-0.1-0.1-0.2-0.1-0.3c-1.7-3.7-3.5-7.5-5.2-11.2c-0.3-0.7-0.6-1.3-0.9-2C9.1,16.2,9.1,16,9,15.8c0,0,0-0.1,0-0.1 c0-0.1,0-0.1,0-0.2c0,0,0-0.1,0.1-0.1c0-0.1,0.1-0.2,0.2-0.2c0.1,0,0.2-0.1,0.3-0.1c0.4-0.1,0.9-0.1,1.4-0.1 c0.6-0.1,1.3-0.1,1.9-0.1c0.8-0.1,1.6-0.1,2.4-0.2c0.1,0,0.3,0,0.4-0.1c0.1,0,0.3,0,0.4,0c0,0,0.1,0,0.1,0c0.2,0,0.3,0.1,0.4,0.3 c0.1,0.1,0.2,0.3,0.3,0.4c2.3,3.9,4.7,7.9,7,11.8c0,0,0,0.1,0.1,0.1c3-0.7,6-1.4,9.1-2.2c0,0,0-0.1-0.1-0.1c-1-1.4-1.9-2.7-2.9-4.1 c0,0-0.1-0.1-0.1-0.2c-0.1-0.1,0-0.3,0.1-0.3c0.1,0,0.2-0.1,0.3-0.1c0.5-0.1,1.1-0.2,1.7-0.3c0.7-0.1,1.5-0.3,2.2-0.4 c0.2,0,0.4-0.1,0.5-0.1c0.2,0,0.3,0,0.5,0.1c0.1,0.1,0.3,0.2,0.4,0.4c0.8,0.9,1.5,1.9,2.2,2.8c0.4,0.5,0.8,1,1.2,1.5 c0,0,0.1,0.1,0.1,0.1c0,0.1,0,0.1,0,0.2c-0.1,0.1-0.2,0.1-0.3,0.2c-1.3,0.4-2.6,0.7-3.9,1c0,0-0.1,0-0.1,0c0,0,0,0.1,0.1,0.1 c0.6,0.8,1.2,1.6,1.8,2.4c0.6,0.8,1.2,1.6,1.8,2.4c0,0.1,0.1,0.1,0.1,0.2c0.1,0.1,0,0.3-0.1,0.4c-0.1,0.1-0.2,0.1-0.3,0.1 c-0.3,0.1-0.6,0.2-0.9,0.3c-2.4,0.9-4.9,1.8-7.3,2.6c-0.6,0.2-1.2,0.4-1.8,0.6c-0.1,0-0.3,0.1-0.5,0.1 C27.5,35.2,27.3,35.2,27.2,35.2z M15.4,15.5c-0.4,0-0.8,0.1-1.1,0.1c-0.4,0-0.8,0.1-1.2,0.1c-0.5,0.1-1,0.1-1.5,0.1 c-0.3,0-0.7,0.1-1,0.1c-0.1,0-0.1,0-0.1,0.1c0,0,0,0.1,0.1,0.1c0,0.1,0.1,0.1,0.1,0.2c1.5,3.1,3.1,6.3,4.6,9.4c0.5,1,1,2,1.5,3.1 c0,0.1,0.1,0.1,0.1,0.1c0.1,0,0.2,0,0.2,0c1.6-0.4,3.3-0.8,4.9-1.2c0.2,0,0.4-0.1,0.5-0.1c0.1,0,0.1-0.1,0.1-0.2 c0-0.1,0-0.1-0.1-0.1c-2.2-3.9-4.5-7.7-6.7-11.6C15.6,15.5,15.6,15.5,15.4,15.5z M24.4,28.4C24.5,28.5,24.5,28.5,24.4,28.4 c0.7,1.2,1.4,2.4,2.1,3.6c0.3,0.5,0.5,0.9,0.8,1.3c0.1,0.1,0.1,0.2,0.2,0.3c0.1,0.1,0.2,0.1,0.3,0.1c0,0,0.1,0,0.1,0 c2-0.7,4-1.3,5.9-2c0.9-0.3,1.8-0.6,2.7-0.9c0,0,0.1,0,0.2-0.1c0.1,0,0.1-0.1,0-0.2c0-0.1-0.1-0.1-0.1-0.2c-0.4-0.5-0.7-1-1.1-1.5 c-0.6-0.8-1.2-1.6-1.8-2.4c0-0.1-0.1-0.1-0.2-0.2c-0.1-0.1-0.1-0.1-0.2-0.1c-0.1,0-0.1,0-0.2,0.1c-1,0.3-1.9,0.5-2.9,0.8 c-1.9,0.5-3.9,1-5.8,1.5C24.5,28.4,24.5,28.4,24.4,28.4z M33.8,24.9C33.9,24.9,33.9,24.9,33.8,24.9c1.2-0.3,2.4-0.6,3.5-0.9 c0,0,0.1,0,0.1,0c0.1,0,0.1-0.1,0-0.2c0,0,0,0,0,0c-0.8-1.1-1.7-2.1-2.5-3.2c0,0,0,0,0-0.1c-0.1-0.1-0.2-0.1-0.3-0.1 c-1,0.2-2,0.4-3.1,0.5c-0.1,0-0.3,0-0.4,0.1c-0.1,0-0.1,0.1-0.1,0.1c0,0,0,0.1,0.1,0.1c0.9,1.2,1.7,2.3,2.5,3.5 C33.8,24.8,33.8,24.9,33.8,24.9z"></path> </g> </svg> 