<?xml version="1.0" encoding="UTF-8"?> <!-- Generator: Adobe Illustrator 23.0.3, SVG Export Plug-In . SVG Version: 6.00 Build 0) --> <svg xmlns="http://www.w3.org/2000/svg" xmlns:xlink="http://www.w3.org/1999/xlink" version="1.1" id="Layer_1" x="0px" y="0px" viewBox="0 0 48 48" style="enable-background:new 0 0 48 48;" xml:space="preserve"> <style type="text/css"> .st0{fill:#232323;} .st1{fill:#FFFFFF;} .st2{display:none;} .st3{display:inline;} .st4{display:inline;fill:#FFFFFF;} </style> <g> <path class="st0" d="M20.69,7.76C9.26,7.76,0,16.07,0,26.31c0,3.78,1.26,7.29,3.42,10.21C3.14,39.91,2.32,44.68,0,47 c0,0,7.01-0.99,11.81-3.85l0.01-0.01c1.48-0.92,3.15-1.98,3.56-2.3c0.25-0.35,0.73-0.45,1.1-0.22c0.25,0.15,0.4,0.42,0.4,0.71 c0,0.48-0.01,0.62-3.02,2.5c2.14,0.67,4.43,1.04,6.82,1.04c11.43,0,20.69-8.3,20.69-18.55S32.12,7.76,20.69,7.76z"></path> <path d="M48,19.2C48,8.96,38.74,0.66,27.31,0.66c-8.25,0-15.37,4.33-18.69,10.6c3.4-2.19,7.57-3.49,12.07-3.49 c11.43,0,20.69,8.3,20.69,18.55c0,3.92-1.36,7.55-3.67,10.55C42.34,39.09,48,39.89,48,39.89c-2.32-2.32-3.14-7.09-3.42-10.47 C46.74,26.49,48,22.98,48,19.2z"></path> <path class="st1" d="M26.9,21.34H15.31c-0.46,0-0.83-0.37-0.83-0.83s0.37-0.83,0.83-0.83H26.9c0.46,0,0.83,0.37,0.83,0.83 C27.72,20.97,27.35,21.34,26.9,21.34z"></path> <path class="st1" d="M31.45,27.14H10.76c-0.46,0-0.83-0.37-0.83-0.83s0.37-0.83,0.83-0.83h20.69c0.46,0,0.83,0.37,0.83,0.83 C32.28,26.77,31.91,27.14,31.45,27.14z"></path> <path class="st1" d="M31.45,32.93H10.76c-0.46,0-0.83-0.37-0.83-0.83c0-0.46,0.37-0.83,0.83-0.83h20.69c0.46,0,0.83,0.37,0.83,0.83 C32.28,32.56,31.91,32.93,31.45,32.93z"></path> </g> <g class="st2"> <path class="st3" d="M23.92,0h18.03c3.32-0.03,6.03,2.64,6.05,5.95c0,0.03,0,0.07,0,0.1v18.03C48,37.29,37.29,48,24.08,48h-0.14 c-6.35,0.01-12.44-2.51-16.93-6.99C2.52,36.52,0,30.43,0,24.09C0,10.83,10.69,0.14,23.92,0L23.92,0z"></path> <path class="st4" d="M23.92,10.69c-6.07,0-10.99,4.92-10.99,10.99l0,0v7.47c0.05,2,1.66,3.61,3.66,3.66h3.11v-8.58h-4.2v-2.4 c0.26-4.52,4-8.05,8.52-8.05s8.28,3.55,8.52,8.05v2.4h-4.25v8.58h2.81v0.14c-0.03,1.86-1.53,3.35-3.38,3.38h-3.36 c-0.27,0-0.57,0.14-0.57,0.41c0.01,0.3,0.26,0.56,0.57,0.57h3.38c2.4-0.02,4.35-1.96,4.36-4.36v-0.27 c1.65-0.38,2.82-1.85,2.81-3.55v-7.31C35.06,15.63,30.15,10.69,23.92,10.69z"></path> </g> </svg> 