<?xml version="1.0" encoding="UTF-8"?> <svg xmlns="http://www.w3.org/2000/svg" xmlns:xlink="http://www.w3.org/1999/xlink" width="60pt" height="60pt" viewBox="0 0 60 60" version="1.1"><g id="surface1"><path style=" stroke:none;fill-rule:nonzero;fill:rgb(0%,0%,0%);fill-opacity:1;" d="M 0.0742188 17.761719 L 60 17.761719 L 60 41.738281 L 0.0742188 41.738281 Z M 0.0742188 17.761719 "></path><path style=" stroke:none;fill-rule:nonzero;fill:rgb(100%,100%,100%);fill-opacity:1;" d="M 50.789062 23.351562 L 50.789062 19.675781 L 40.511719 19.675781 L 38.824219 31.9375 L 37.148438 19.675781 L 33.449219 19.675781 L 33.863281 22.949219 C 33.4375 22.113281 31.925781 19.675781 28.585938 19.675781 C 28.5625 19.675781 24.875 19.675781 24.875 19.675781 L 24.863281 37.539062 L 22.164062 19.675781 L 17.3125 19.675781 L 14.523438 38.1875 L 14.523438 19.675781 L 9.863281 19.675781 L 8.1875 30.074219 L 6.5625 19.675781 L 1.925781 19.675781 L 1.925781 39.800781 L 5.585938 39.800781 L 5.585938 30.101562 L 7.25 39.800781 L 9.199219 39.800781 L 10.835938 30.101562 L 10.835938 39.800781 L 17.886719 39.800781 L 18.3125 36.699219 L 21.148438 36.699219 L 21.574219 39.800781 L 28.511719 39.800781 L 28.511719 33.261719 L 29.363281 33.136719 L 31.125 39.800781 L 34.726562 39.800781 L 32.425781 32 C 33.585938 31.136719 34.914062 28.960938 34.5625 26.875 C 34.5625 26.898438 36.738281 39.824219 36.738281 39.824219 L 41 39.8125 L 43.914062 21.574219 L 43.914062 39.8125 L 50.8125 39.8125 L 50.8125 36.1875 L 47.539062 36.1875 L 47.539062 31.574219 L 50.8125 31.574219 L 50.8125 27.898438 L 47.539062 27.898438 L 47.539062 23.351562 Z M 18.738281 33.523438 L 19.738281 24.925781 L 20.773438 33.523438 Z M 29.363281 29.550781 C 29.085938 29.6875 28.789062 29.75 28.5 29.75 L 28.5 23.273438 C 28.5 23.273438 28.511719 23.273438 28.511719 23.273438 C 28.800781 23.273438 30.9375 23.363281 30.9375 26.476562 C 30.949219 28.113281 30.226562 29.136719 29.363281 29.550781 Z M 58.148438 36.1875 L 58.148438 39.800781 L 51.414062 39.800781 L 51.414062 19.675781 L 55.039062 19.675781 L 55.039062 36.1875 Z M 58.148438 36.1875 "></path></g></svg> 