<?xml version="1.0" encoding="UTF-8"?> <svg xmlns="http://www.w3.org/2000/svg" xmlns:xlink="http://www.w3.org/1999/xlink" width="60pt" height="60pt" viewBox="0 0 60 60" version="1.1"><defs><filter id="alpha" x="0%" y="0%" width="100%" height="100%"><feColorMatrix type="matrix" in="SourceGraphic" values="0 0 0 0 1 0 0 0 0 1 0 0 0 0 1 0 0 0 1 0"></feColorMatrix></filter><mask id="mask0"><g filter="url(#alpha)"><rect x="0" y="0" width="60" height="60" style="fill:rgb(0%,0%,0%);fill-opacity:0.34902;stroke:none;"></rect></g></mask><clipPath id="clip1"><rect x="0" y="0" width="60" height="60"></rect></clipPath><g id="surface5" clip-path="url(#clip1)"><path style=" stroke:none;fill-rule:nonzero;fill:rgb(74.509804%,12.54902%,18.039216%);fill-opacity:1;" d="M 19.761719 24.636719 C 19.625 24.800781 19.476562 24.9375 19.324219 25.085938 C 19.398438 25.011719 19.488281 24.9375 19.550781 24.851562 C 19.625 24.789062 19.6875 24.710938 19.761719 24.636719 Z M 19.761719 24.636719 "></path></g><mask id="mask1"><g filter="url(#alpha)"><rect x="0" y="0" width="60" height="60" style="fill:rgb(0%,0%,0%);fill-opacity:0.34902;stroke:none;"></rect></g></mask><clipPath id="clip2"><rect x="0" y="0" width="60" height="60"></rect></clipPath><g id="surface8" clip-path="url(#clip2)"><path style=" stroke:none;fill-rule:nonzero;fill:rgb(74.509804%,12.54902%,18.039216%);fill-opacity:1;" d="M 18.636719 22.1875 C 18.664062 22.164062 18.6875 22.136719 18.699219 22.125 C 18.800781 22.023438 18.886719 21.9375 18.976562 21.835938 C 18.875 21.949219 18.75 22.0625 18.636719 22.1875 Z M 18.636719 22.1875 "></path></g><mask id="mask2"><g filter="url(#alpha)"><rect x="0" y="0" width="60" height="60" style="fill:rgb(0%,0%,0%);fill-opacity:0.34902;stroke:none;"></rect></g></mask><clipPath id="clip3"><rect x="0" y="0" width="60" height="60"></rect></clipPath><g id="surface11" clip-path="url(#clip3)"><path style=" stroke:none;fill-rule:nonzero;fill:rgb(74.509804%,12.54902%,18.039216%);fill-opacity:1;" d="M 19.550781 24.863281 C 19.476562 24.9375 19.398438 25.011719 19.324219 25.101562 C 19.386719 25.011719 19.476562 24.925781 19.550781 24.863281 Z M 19.550781 24.863281 "></path></g><linearGradient id="linear0" gradientUnits="userSpaceOnUse" x1="-7621.7046" y1="-1985.3109" x2="-7243.4434" y2="-1985.3109" gradientTransform="matrix(-0.02875,-0.145,0.145,-0.02875,93.77375,-1109.05125)"><stop offset="0.323" style="stop-color:rgb(61.960784%,12.54902%,39.215686%);stop-opacity:1;"></stop><stop offset="0.63" style="stop-color:rgb(78.823529%,12.54902%,21.568627%);stop-opacity:1;"></stop><stop offset="0.751" style="stop-color:rgb(80.392157%,13.72549%,20.784314%);stop-opacity:1;"></stop><stop offset="1" style="stop-color:rgb(91.372549%,47.058824%,14.901961%);stop-opacity:1;"></stop></linearGradient><mask id="mask3"><g filter="url(#alpha)"><rect x="0" y="0" width="60" height="60" style="fill:rgb(0%,0%,0%);fill-opacity:0.34902;stroke:none;"></rect></g></mask><clipPath id="clip4"><rect x="0" y="0" width="60" height="60"></rect></clipPath><g id="surface14" clip-path="url(#clip4)"><path style=" stroke:none;fill-rule:nonzero;fill:rgb(74.509804%,12.54902%,18.039216%);fill-opacity:1;" d="M 18.636719 22.199219 C 18.664062 22.175781 18.6875 22.148438 18.710938 22.125 C 18.6875 22.148438 18.664062 22.175781 18.636719 22.199219 Z M 18.636719 22.199219 "></path></g><linearGradient id="linear1" gradientUnits="userSpaceOnUse" x1="-7621.7046" y1="-1986.6682" x2="-7243.4434" y2="-1986.6682" gradientTransform="matrix(-0.02875,-0.145,0.145,-0.02875,93.77375,-1109.05125)"><stop offset="0.323" style="stop-color:rgb(61.960784%,12.54902%,39.215686%);stop-opacity:1;"></stop><stop offset="0.63" style="stop-color:rgb(78.823529%,12.54902%,21.568627%);stop-opacity:1;"></stop><stop offset="0.751" style="stop-color:rgb(80.392157%,13.72549%,20.784314%);stop-opacity:1;"></stop><stop offset="1" style="stop-color:rgb(91.372549%,47.058824%,14.901961%);stop-opacity:1;"></stop></linearGradient><mask id="mask4"><g filter="url(#alpha)"><rect x="0" y="0" width="60" height="60" style="fill:rgb(0%,0%,0%);fill-opacity:0.34902;stroke:none;"></rect></g></mask><clipPath id="clip5"><rect x="0" y="0" width="60" height="60"></rect></clipPath><g id="surface17" clip-path="url(#clip5)"><path style=" stroke:none;fill-rule:nonzero;fill:rgb(74.509804%,12.54902%,18.039216%);fill-opacity:1;" d="M 38.988281 29.238281 C 38.75 29.25 38.511719 29.25 38.273438 29.25 C 38.386719 29.25 38.523438 29.25 38.636719 29.25 C 38.761719 29.261719 38.875 29.25 38.988281 29.238281 Z M 38.988281 29.238281 "></path></g><mask id="mask5"><g filter="url(#alpha)"><rect x="0" y="0" width="60" height="60" style="fill:rgb(0%,0%,0%);fill-opacity:0.34902;stroke:none;"></rect></g></mask><clipPath id="clip6"><rect x="0" y="0" width="60" height="60"></rect></clipPath><g id="surface20" clip-path="url(#clip6)"><path style=" stroke:none;fill-rule:nonzero;fill:rgb(74.509804%,12.54902%,18.039216%);fill-opacity:1;" d="M 40.023438 26.386719 C 40.0625 26.386719 40.101562 26.386719 40.136719 26.386719 C 40.289062 26.386719 40.449219 26.386719 40.585938 26.375 C 40.414062 26.375 40.226562 26.375 40.023438 26.386719 Z M 40.023438 26.386719 "></path></g><mask id="mask6"><g filter="url(#alpha)"><rect x="0" y="0" width="60" height="60" style="fill:rgb(0%,0%,0%);fill-opacity:0.34902;stroke:none;"></rect></g></mask><clipPath id="clip7"><rect x="0" y="0" width="60" height="60"></rect></clipPath><g id="surface23" clip-path="url(#clip7)"><path style=" stroke:none;fill-rule:nonzero;fill:rgb(74.509804%,12.54902%,18.039216%);fill-opacity:1;" d="M 38.648438 29.261719 C 38.523438 29.261719 38.414062 29.261719 38.289062 29.261719 C 38.398438 29.25 38.523438 29.25 38.648438 29.261719 Z M 38.648438 29.261719 "></path></g><linearGradient id="linear2" gradientUnits="userSpaceOnUse" x1="-8622.9072" y1="-1859.8328" x2="-8244.6455" y2="-1859.8328" gradientTransform="matrix(0.0925,-0.14,0.14,0.0925,1074.40125,-972.53)"><stop offset="0.323" style="stop-color:rgb(61.960784%,12.54902%,39.215686%);stop-opacity:1;"></stop><stop offset="0.63" style="stop-color:rgb(78.823529%,12.54902%,21.568627%);stop-opacity:1;"></stop><stop offset="0.751" style="stop-color:rgb(80.392157%,13.72549%,20.784314%);stop-opacity:1;"></stop><stop offset="1" style="stop-color:rgb(91.372549%,47.058824%,14.901961%);stop-opacity:1;"></stop></linearGradient></defs><g id="surface1"><path style=" stroke:none;fill-rule:nonzero;fill:rgb(0%,0%,0%);fill-opacity:1;" d="M 9.148438 1.136719 C 8.601562 2.988281 8.3125 4.898438 8.300781 6.835938 L 11.363281 8.3125 C 11.300781 6.5 11.375 4.675781 11.574219 2.863281 C 11.585938 2.738281 11.601562 2.664062 11.601562 2.664062 C 11.601562 2.726562 11.574219 2.789062 11.574219 2.863281 C 11.4375 4.648438 11.425781 6.449219 11.5625 8.238281 C 13.148438 6.886719 14.664062 5.460938 16.085938 3.949219 C 15.476562 2.324219 14.25 1.011719 12.675781 0.300781 C 12.675781 0.3125 9.976562 -0.789062 9.148438 1.136719 Z M 9.148438 1.136719 "></path><path style=" stroke:none;fill-rule:nonzero;fill:rgb(74.509804%,12.54902%,18.039216%);fill-opacity:1;" d="M 19.761719 24.636719 C 19.625 24.800781 19.476562 24.9375 19.324219 25.085938 C 19.398438 25.011719 19.488281 24.9375 19.550781 24.851562 C 19.625 24.789062 19.6875 24.710938 19.761719 24.636719 Z M 19.761719 24.636719 "></path><use xlink:href="#surface5" mask="url(#mask0)"></use><path style=" stroke:none;fill-rule:nonzero;fill:rgb(74.509804%,12.54902%,18.039216%);fill-opacity:1;" d="M 18.636719 22.1875 C 18.664062 22.164062 18.6875 22.136719 18.699219 22.125 C 18.800781 22.023438 18.886719 21.9375 18.976562 21.835938 C 18.875 21.949219 18.75 22.0625 18.636719 22.1875 Z M 18.636719 22.1875 "></path><use xlink:href="#surface8" mask="url(#mask1)"></use><path style=" stroke:none;fill-rule:nonzero;fill:rgb(0%,0%,0%);fill-opacity:1;" d="M 12.164062 17.335938 C 12.023438 16.324219 11.886719 15.324219 11.773438 14.335938 C 11.664062 13.3125 11.5625 12.3125 11.5 11.324219 C 11.5 11.261719 11.488281 11.199219 11.5 11.148438 C 11.414062 10.175781 11.375 9.238281 11.351562 8.3125 L 8.300781 6.835938 C 8.300781 7.023438 8.273438 7.210938 8.273438 7.414062 C 8.25 8.136719 8.226562 8.914062 8.210938 9.738281 C 8.210938 10.664062 8.210938 11.625 8.226562 12.625 C 8.25 13.550781 8.289062 14.511719 8.335938 15.5 C 8.386719 16.335938 8.4375 17.1875 8.511719 18.050781 C 8.511719 18.085938 8.511719 18.113281 8.511719 18.148438 L 12.601562 20.210938 C 12.460938 19.25 12.3125 18.289062 12.164062 17.335938 Z M 12.164062 17.335938 "></path><path style=" stroke:none;fill-rule:nonzero;fill:rgb(0%,0%,0%);fill-opacity:1;" d="M 18.210938 41.488281 C 18.425781 42.25 18.664062 43.039062 18.914062 43.835938 C 18.914062 43.835938 18.914062 43.863281 18.914062 43.875 C 18.949219 43.988281 18.976562 44.101562 19.011719 44.210938 C 19.175781 44.75 19.335938 45.226562 19.675781 46.324219 C 20.5 46.273438 21.3125 46.476562 22.023438 46.886719 C 21.476562 46.199219 20.664062 45.773438 19.800781 45.675781 C 22.199219 44.449219 23.710938 41.988281 23.710938 39.300781 C 23.6875 39.074219 23.664062 38.835938 23.613281 38.601562 C 23.5625 39.664062 22.9375 40.613281 21.976562 41.0625 C 22.960938 39.5625 23.425781 37.773438 23.289062 35.976562 C 23.25 35.5625 23.199219 35.113281 23.125 34.648438 C 22.886719 36.960938 21.4375 38.960938 19.324219 39.925781 L 18.085938 41.0625 C 18.113281 41.199219 18.148438 41.335938 18.210938 41.488281 Z M 18.210938 41.488281 "></path><path style=" stroke:none;fill-rule:nonzero;fill:rgb(0%,0%,0%);fill-opacity:1;" d="M 16.613281 38 C 16.351562 37.039062 16.101562 36.050781 15.824219 35.050781 C 15.574219 34.101562 15.335938 33.136719 15.101562 32.164062 C 14.863281 31.1875 14.636719 30.210938 14.398438 29.226562 C 14.175781 28.25 13.949219 27.226562 13.738281 26.226562 C 13.523438 25.226562 13.324219 24.226562 13.136719 23.238281 C 13.0625 22.875 13 22.523438 12.9375 22.164062 C 12.824219 21.550781 12.726562 20.9375 12.613281 20.3125 C 12.613281 20.273438 12.601562 20.25 12.585938 20.210938 L 8.523438 18.136719 C 8.539062 18.199219 8.539062 18.261719 8.539062 18.335938 C 8.625 19.261719 8.699219 20.1875 8.8125 21.125 C 8.925781 22.0625 9.039062 23.039062 9.175781 24 C 9.300781 24.8125 9.425781 25.625 9.5625 26.4375 C 9.585938 26.601562 9.625 26.761719 9.648438 26.925781 C 9.835938 27.9375 10.039062 28.914062 10.25 29.824219 C 10.488281 30.863281 10.75 31.824219 11.011719 32.726562 C 11.1875 33.3125 11.363281 33.886719 11.539062 34.425781 C 11.6875 34.875 11.863281 35.335938 12.023438 35.789062 C 12.414062 36.851562 12.835938 37.863281 13.3125 38.875 L 17.414062 40.949219 C 17.199219 40.199219 16.988281 39.425781 16.773438 38.648438 C 16.726562 38.449219 16.664062 38.226562 16.613281 38 Z M 16.613281 38 "></path><path style=" stroke:none;fill-rule:nonzero;fill:rgb(0%,0%,0%);fill-opacity:1;" d="M 13.375 39.011719 C 13.9375 40.210938 14.5625 41.375 15.261719 42.5 C 15.289062 42.539062 15.3125 42.585938 15.335938 42.613281 C 14.324219 42.335938 13.261719 42.25 12.210938 42.375 C 14.113281 42.898438 15.851562 43.914062 17.25 45.3125 C 16.574219 45.914062 15.75 46.324219 14.863281 46.511719 C 15.738281 46.664062 16.636719 46.574219 17.476562 46.273438 C 16.675781 47.136719 16.125 48.210938 15.886719 49.375 C 16.460938 48.238281 17.363281 47.289062 18.476562 46.636719 C 19.710938 50.726562 21.1875 55.148438 22.835938 59.800781 C 23.085938 59.476562 23.164062 59.039062 23.023438 58.636719 C 22.726562 57.800781 20.761719 52.273438 18.539062 44.773438 C 18.476562 44.5625 18.414062 44.351562 18.351562 44.136719 C 18.324219 44.074219 18.3125 44.023438 18.300781 43.960938 C 18.074219 43.175781 17.835938 42.363281 17.601562 41.539062 C 17.550781 41.351562 17.488281 41.164062 17.4375 40.976562 L 13.335938 38.898438 C 13.351562 38.9375 13.363281 38.976562 13.375 39.011719 Z M 13.375 39.011719 "></path><path style=" stroke:none;fill-rule:nonzero;fill:rgb(0%,0%,0%);fill-opacity:1;" d="M 13.074219 20.300781 C 13.101562 20.4375 13.125 20.5625 13.148438 20.699219 C 13.226562 21.113281 13.300781 21.511719 13.386719 21.9375 C 13.476562 22.386719 13.5625 22.851562 13.664062 23.324219 C 13.710938 23.5625 13.75 23.800781 13.800781 24.050781 C 13.949219 24.773438 14.113281 25.523438 14.273438 26.289062 C 14.488281 27.238281 14.699219 28.199219 14.9375 29.210938 C 15.148438 30.164062 15.398438 31.164062 15.664062 32.175781 C 15.914062 33.136719 16.164062 34.136719 16.4375 35.148438 C 16.675781 36.0625 16.9375 36.988281 17.199219 37.9375 C 17.199219 37.988281 17.226562 38.039062 17.238281 38.074219 C 17.5 39.011719 17.773438 39.988281 18.0625 40.976562 C 18.0625 41 18.074219 41.011719 18.085938 41.039062 L 19.324219 39.898438 C 19.289062 39.898438 19.273438 39.925781 19.226562 39.949219 C 20.914062 38.101562 21.960938 35.761719 22.238281 33.273438 C 22.375 32.039062 22.363281 30.789062 22.199219 29.550781 C 22.074219 28.476562 21.875 27.414062 21.601562 26.363281 C 21.351562 25.375 21.050781 24.335938 20.6875 23.238281 C 20.4375 23.738281 20.113281 24.1875 19.738281 24.601562 L 19.523438 24.835938 C 19.449219 24.914062 19.375 24.988281 19.300781 25.074219 C 20.289062 23.460938 20.601562 21.539062 20.1875 19.699219 C 19.914062 20.476562 19.5 21.199219 18.960938 21.824219 C 18.875 21.925781 18.789062 22.023438 18.6875 22.113281 C 18.664062 22.136719 18.636719 22.164062 18.613281 22.1875 C 18.949219 21.636719 19.210938 21.050781 19.414062 20.4375 C 19.449219 20.3125 19.476562 20.199219 19.5 20.074219 C 19.539062 19.886719 19.574219 19.699219 19.601562 19.511719 C 19.613281 19.386719 19.625 19.273438 19.636719 19.148438 C 19.664062 18.851562 19.664062 18.5625 19.636719 18.261719 C 19.636719 18.164062 19.636719 18.074219 19.613281 17.988281 C 19.585938 17.851562 19.574219 17.726562 19.550781 17.601562 C 19.449219 17.023438 19.335938 16.523438 19.226562 16.101562 C 19.175781 15.886719 19.113281 15.6875 19.0625 15.511719 C 19.039062 15.4375 19.023438 15.375 19 15.300781 C 18.9375 15.101562 18.875 14.925781 18.824219 14.773438 C 18.761719 14.601562 18.6875 14.425781 18.601562 14.261719 C 18.574219 14.351562 18.550781 14.425781 18.511719 14.511719 C 18.148438 15.25 17.6875 15.925781 17.125 16.511719 L 18.261719 15.476562 L 17.113281 16.511719 C 17.101562 16.511719 17.101562 16.523438 17.085938 16.539062 C 17.023438 16.601562 16.976562 16.664062 16.925781 16.726562 C 16.925781 16.710938 16.949219 16.699219 16.949219 16.6875 L 13.050781 20.25 C 13.074219 20.273438 13.074219 20.289062 13.074219 20.300781 Z M 13.074219 20.300781 "></path><path style=" stroke:none;fill-rule:nonzero;fill:rgb(0%,0%,0%);fill-opacity:1;" d="M 11.5625 8.238281 C 11.613281 9.101562 11.6875 10.050781 11.773438 11.113281 C 11.773438 11.164062 11.789062 11.226562 11.800781 11.273438 C 11.886719 12.199219 12 13.199219 12.148438 14.300781 C 12.273438 15.238281 12.414062 16.226562 12.574219 17.300781 C 12.710938 18.226562 12.886719 19.199219 13.0625 20.226562 L 16.960938 16.648438 C 17.625 15.601562 17.960938 14.363281 17.9375 13.125 C 17.9375 12.8125 17.914062 12.5 17.886719 12.164062 C 17.824219 11.136719 17.710938 10.113281 17.550781 9.101562 C 17.398438 8.175781 17.210938 7.25 16.976562 6.335938 C 16.851562 5.863281 16.699219 5.398438 16.523438 4.9375 C 16.386719 4.585938 16.238281 4.273438 16.101562 3.960938 C 14.664062 5.476562 13.148438 6.898438 11.5625 8.238281 Z M 11.5625 8.238281 "></path><path style=" stroke:none;fill-rule:nonzero;fill:rgb(74.509804%,12.54902%,18.039216%);fill-opacity:1;" d="M 19.550781 24.863281 C 19.476562 24.9375 19.398438 25.011719 19.324219 25.101562 C 19.386719 25.011719 19.476562 24.925781 19.550781 24.863281 Z M 19.550781 24.863281 "></path><use xlink:href="#surface11" mask="url(#mask2)"></use><path style=" stroke:none;fill-rule:nonzero;fill:url(#linear0);" d="M 19.550781 24.863281 C 19.476562 24.9375 19.398438 25.011719 19.324219 25.101562 C 19.386719 25.011719 19.476562 24.925781 19.550781 24.863281 Z M 19.550781 24.863281 "></path><path style=" stroke:none;fill-rule:nonzero;fill:rgb(74.509804%,12.54902%,18.039216%);fill-opacity:1;" d="M 18.636719 22.199219 C 18.664062 22.175781 18.6875 22.148438 18.710938 22.125 C 18.6875 22.148438 18.664062 22.175781 18.636719 22.199219 Z M 18.636719 22.199219 "></path><use xlink:href="#surface14" mask="url(#mask3)"></use><path style=" stroke:none;fill-rule:nonzero;fill:url(#linear1);" d="M 18.636719 22.199219 C 18.664062 22.175781 18.6875 22.148438 18.710938 22.125 C 18.6875 22.148438 18.664062 22.175781 18.636719 22.199219 Z M 18.636719 22.199219 "></path><path style=" stroke:none;fill-rule:nonzero;fill:rgb(0%,0%,0%);fill-opacity:1;" d="M 49.125 1.914062 C 47.210938 2.960938 45.460938 4.273438 43.925781 5.8125 L 45.210938 9.4375 C 46.613281 7.925781 48.113281 6.523438 49.710938 5.226562 C 49.824219 5.136719 49.886719 5.085938 49.886719 5.085938 C 49.835938 5.136719 49.761719 5.175781 49.710938 5.226562 C 48.175781 6.550781 46.738281 7.988281 45.425781 9.539062 C 47.773438 9.710938 50.125 9.761719 52.476562 9.6875 C 53.273438 7.898438 53.324219 5.863281 52.625 4.039062 C 52.625 4.039062 51.3125 1.011719 49.125 1.914062 Z M 49.125 1.914062 "></path><path style=" stroke:none;fill-rule:nonzero;fill:rgb(74.509804%,12.54902%,18.039216%);fill-opacity:1;" d="M 38.988281 29.238281 C 38.75 29.25 38.511719 29.25 38.273438 29.25 C 38.386719 29.25 38.523438 29.25 38.636719 29.25 C 38.761719 29.261719 38.875 29.25 38.988281 29.238281 Z M 38.988281 29.238281 "></path><use xlink:href="#surface17" mask="url(#mask4)"></use><path style=" stroke:none;fill-rule:nonzero;fill:rgb(74.509804%,12.54902%,18.039216%);fill-opacity:1;" d="M 40.023438 26.386719 C 40.0625 26.386719 40.101562 26.386719 40.136719 26.386719 C 40.289062 26.386719 40.449219 26.386719 40.585938 26.375 C 40.414062 26.375 40.226562 26.375 40.023438 26.386719 Z M 40.023438 26.386719 "></path><use xlink:href="#surface20" mask="url(#mask5)"></use><path style=" stroke:none;fill-rule:nonzero;fill:rgb(0%,0%,0%);fill-opacity:1;" d="M 38.675781 17.335938 C 39.375 16.398438 40.0625 15.5 40.75 14.613281 C 41.460938 13.699219 42.1875 12.8125 42.925781 11.960938 C 42.960938 11.914062 43.011719 11.863281 43.050781 11.8125 C 43.761719 10.976562 44.476562 10.1875 45.1875 9.425781 L 43.898438 5.8125 C 43.75 5.949219 43.585938 6.101562 43.425781 6.25 C 42.8125 6.8125 42.1875 7.425781 41.523438 8.074219 C 40.789062 8.8125 40.023438 9.585938 39.25 10.414062 C 38.539062 11.175781 37.800781 11.976562 37.0625 12.8125 C 36.4375 13.523438 35.800781 14.25 35.175781 15.011719 L 35.101562 15.101562 L 36.738281 20 C 37.386719 19.113281 38.039062 18.210938 38.675781 17.335938 Z M 38.675781 17.335938 "></path><path style=" stroke:none;fill-rule:nonzero;fill:rgb(0%,0%,0%);fill-opacity:1;" d="M 24.335938 41.574219 C 23.914062 42.363281 23.476562 43.1875 23.039062 44.023438 C 23.039062 44.039062 23.023438 44.050781 23.023438 44.0625 C 22.960938 44.1875 22.898438 44.300781 22.835938 44.414062 C 22.539062 44.976562 22.289062 45.488281 21.6875 46.636719 C 22.386719 47.25 22.886719 48.050781 23.125 48.949219 C 23.226562 47.960938 22.925781 46.976562 22.289062 46.199219 C 25.625 46.835938 28.664062 46.414062 30.511719 44.175781 C 30.675781 43.976562 30.835938 43.761719 30.988281 43.539062 C 30.101562 44.351562 28.835938 44.613281 27.699219 44.226562 C 29.6875 43.800781 31.488281 42.726562 32.789062 41.164062 C 33.085938 40.800781 33.398438 40.414062 33.710938 39.960938 C 31.6875 41.625 28.925781 42.101562 26.460938 41.1875 L 24.5625 41.125 C 24.5 41.273438 24.425781 41.414062 24.335938 41.574219 Z M 24.335938 41.574219 "></path><path style=" stroke:none;fill-rule:nonzero;fill:rgb(0%,0%,0%);fill-opacity:1;" d="M 25.835938 37.5 C 26.398438 36.511719 26.976562 35.511719 27.550781 34.5 C 28.113281 33.539062 28.675781 32.574219 29.261719 31.601562 C 29.851562 30.636719 30.4375 29.664062 31.039062 28.6875 C 31.636719 27.710938 32.261719 26.710938 32.898438 25.738281 C 33.523438 24.761719 34.164062 23.8125 34.789062 22.851562 C 35.011719 22.5 35.25 22.164062 35.488281 21.824219 C 35.886719 21.238281 36.289062 20.664062 36.699219 20.074219 C 36.710938 20.039062 36.75 20.011719 36.761719 19.976562 L 35.136719 15.074219 C 35.085938 15.136719 35.050781 15.1875 35 15.25 C 34.335938 16.050781 33.664062 16.875 33 17.710938 C 32.335938 18.550781 31.664062 19.425781 31.011719 20.324219 C 30.460938 21.074219 29.925781 21.824219 29.386719 22.585938 C 29.289062 22.738281 29.175781 22.898438 29.074219 23.050781 C 28.4375 24.011719 27.8125 24.949219 27.261719 25.863281 C 26.636719 26.886719 26.074219 27.875 25.574219 28.8125 C 25.25 29.425781 24.9375 30.023438 24.648438 30.601562 C 24.414062 31.085938 24.1875 31.585938 23.960938 32.074219 C 23.4375 33.238281 22.960938 34.398438 22.550781 35.574219 L 24.199219 40.5 C 24.625 39.710938 25.074219 38.9375 25.511719 38.136719 C 25.574219 37.949219 25.710938 37.738281 25.835938 37.5 Z M 25.835938 37.5 "></path><path style=" stroke:none;fill-rule:nonzero;fill:rgb(0%,0%,0%);fill-opacity:1;" d="M 22.425781 35.75 C 21.925781 37.164062 21.5 38.601562 21.175781 40.0625 C 21.175781 40.113281 21.148438 40.164062 21.136719 40.210938 C 20.539062 39.175781 19.75 38.273438 18.8125 37.539062 C 19.925781 39.476562 20.523438 41.675781 20.539062 43.914062 C 19.511719 43.851562 18.523438 43.523438 17.664062 42.976562 C 18.25 43.789062 19.039062 44.4375 19.949219 44.863281 C 18.613281 44.925781 17.3125 45.351562 16.210938 46.101562 C 17.585938 45.636719 19.0625 45.585938 20.460938 45.949219 C 18.199219 50.210938 15.886719 54.960938 13.511719 60 C 13.976562 59.9375 14.375 59.636719 14.585938 59.226562 C 15.011719 58.3125 17.824219 52.3125 21.988281 44.5 C 22.101562 44.289062 22.226562 44.0625 22.351562 43.824219 C 22.386719 43.761719 22.414062 43.699219 22.449219 43.636719 C 22.886719 42.824219 23.351562 41.988281 23.8125 41.125 C 23.925781 40.925781 24.023438 40.738281 24.136719 40.539062 L 24.136719 40.523438 L 22.488281 35.601562 C 22.460938 35.648438 22.449219 35.699219 22.425781 35.75 Z M 22.425781 35.75 "></path><path style=" stroke:none;fill-rule:nonzero;fill:rgb(0%,0%,0%);fill-opacity:1;" d="M 37.050781 20.5625 C 36.960938 20.6875 36.886719 20.8125 36.789062 20.9375 C 36.523438 21.324219 36.261719 21.710938 36 22.113281 C 35.738281 22.511719 35.425781 22.988281 35.113281 23.4375 C 34.960938 23.664062 34.8125 23.886719 34.648438 24.125 C 34.1875 24.824219 33.726562 25.5625 33.25 26.3125 C 32.664062 27.238281 32.074219 28.199219 31.460938 29.199219 C 30.886719 30.148438 30.289062 31.136719 29.6875 32.164062 C 29.113281 33.136719 28.539062 34.136719 27.9375 35.164062 C 27.414062 36.085938 26.875 37.039062 26.324219 38.011719 C 26.300781 38.050781 26.273438 38.113281 26.25 38.148438 C 25.710938 39.113281 25.164062 40.113281 24.613281 41.148438 C 24.601562 41.175781 24.585938 41.1875 24.574219 41.210938 L 26.476562 41.273438 C 26.4375 41.261719 26.414062 41.25 26.363281 41.238281 C 29.1875 41.085938 31.886719 40.039062 34.085938 38.261719 C 35.175781 37.375 36.164062 36.363281 37.023438 35.238281 C 37.773438 34.273438 38.449219 33.25 39.074219 32.199219 C 39.664062 31.210938 40.25 30.136719 40.824219 28.960938 C 40.226562 29.164062 39.613281 29.273438 38.976562 29.3125 L 38.613281 29.335938 C 38.488281 29.335938 38.375 29.335938 38.25 29.335938 C 40.324219 28.824219 42.113281 27.523438 43.238281 25.726562 C 42.398438 26.125 41.488281 26.375 40.5625 26.460938 C 40.414062 26.476562 40.261719 26.476562 40.113281 26.476562 C 40.074219 26.476562 40.039062 26.476562 40 26.476562 C 40.699219 26.300781 41.386719 26.050781 42.023438 25.699219 C 42.148438 25.636719 42.273438 25.5625 42.386719 25.488281 C 42.574219 25.375 42.738281 25.238281 42.914062 25.113281 C 43.023438 25.023438 43.125 24.9375 43.238281 24.851562 C 43.488281 24.625 43.726562 24.386719 43.9375 24.136719 C 44.011719 24.050781 44.074219 23.976562 44.136719 23.886719 C 44.226562 23.761719 44.3125 23.636719 44.386719 23.523438 C 44.761719 22.988281 45.074219 22.5 45.324219 22.0625 C 45.449219 21.851562 45.5625 21.648438 45.664062 21.460938 C 45.699219 21.386719 45.738281 21.324219 45.773438 21.25 C 45.875 21.039062 45.976562 20.851562 46.050781 20.6875 C 46.136719 20.488281 46.210938 20.300781 46.273438 20.085938 C 46.1875 20.136719 46.101562 20.1875 46.011719 20.210938 C 45.136719 20.511719 44.226562 20.6875 43.300781 20.710938 L 45.050781 20.773438 L 43.300781 20.710938 C 43.289062 20.710938 43.273438 20.710938 43.261719 20.710938 C 43.175781 20.710938 43.074219 20.710938 42.988281 20.710938 C 43 20.710938 43.023438 20.710938 43.039062 20.699219 L 37.0625 20.488281 C 37.074219 20.539062 37.0625 20.5625 37.050781 20.5625 Z M 37.050781 20.5625 "></path><path style=" stroke:none;fill-rule:nonzero;fill:rgb(0%,0%,0%);fill-opacity:1;" d="M 45.425781 9.539062 C 44.789062 10.261719 44.074219 11.101562 43.3125 12.039062 C 43.273438 12.085938 43.226562 12.136719 43.199219 12.1875 C 42.539062 13 41.835938 13.898438 41.074219 14.898438 C 40.4375 15.761719 39.75 16.664062 39.023438 17.664062 C 38.398438 18.523438 37.761719 19.4375 37.101562 20.414062 L 43.074219 20.625 C 44.449219 20.300781 45.699219 19.585938 46.664062 18.5625 C 46.898438 18.3125 47.136719 18.039062 47.386719 17.75 C 48.148438 16.875 48.875 15.949219 49.550781 15 C 50.164062 14.136719 50.738281 13.238281 51.261719 12.324219 C 51.539062 11.851562 51.789062 11.351562 52.011719 10.851562 C 52.175781 10.460938 52.3125 10.085938 52.4375 9.726562 C 50.101562 9.773438 47.761719 9.710938 45.425781 9.539062 Z M 45.425781 9.539062 "></path><path style=" stroke:none;fill-rule:nonzero;fill:rgb(74.509804%,12.54902%,18.039216%);fill-opacity:1;" d="M 38.648438 29.261719 C 38.523438 29.261719 38.414062 29.261719 38.289062 29.261719 C 38.398438 29.25 38.523438 29.25 38.648438 29.261719 Z M 38.648438 29.261719 "></path><use xlink:href="#surface23" mask="url(#mask6)"></use><path style=" stroke:none;fill-rule:nonzero;fill:url(#linear2);" d="M 38.648438 29.261719 C 38.523438 29.261719 38.414062 29.261719 38.289062 29.261719 C 38.398438 29.25 38.523438 29.25 38.648438 29.261719 Z M 38.648438 29.261719 "></path></g></svg> 