<?xml version="1.0" encoding="UTF-8"?> <svg xmlns="http://www.w3.org/2000/svg" xmlns:xlink="http://www.w3.org/1999/xlink" width="87pt" height="60pt" viewBox="0 0 87 60" version="1.1"><g id="surface1"><path style=" stroke:none;fill-rule:nonzero;fill:rgb(0%,0%,0%);fill-opacity:1;" d="M 46.507812 24.371094 C 42.609375 20.429688 37.421875 18.257812 31.914062 18.257812 C 27.339844 18.257812 22.988281 19.757812 19.40625 22.519531 C 19.355469 22.5625 19.304688 22.59375 19.253906 22.644531 C 18.578125 23.171875 17.921875 23.75 17.308594 24.371094 C 13.410156 28.3125 11.257812 33.558594 11.257812 39.132812 C 11.257812 44.710938 13.410156 49.945312 17.308594 53.886719 C 21.207031 57.828125 26.386719 60 31.902344 60 C 36.488281 60 40.839844 58.5 44.421875 55.726562 C 44.472656 55.6875 44.523438 55.65625 44.574219 55.601562 C 45.25 55.074219 45.894531 54.507812 46.507812 53.886719 C 49.304688 51.0625 51.195312 47.566406 52.046875 43.757812 C 52.109375 43.601562 52.136719 43.4375 52.148438 43.273438 C 52.414062 41.917969 52.558594 40.53125 52.558594 39.125 C 52.558594 33.558594 50.410156 28.3125 46.507812 24.371094 Z M 31.554688 21.457031 C 31.566406 21.546875 31.566406 21.652344 31.566406 21.746094 C 31.566406 24.539062 29.3125 26.8125 26.550781 26.8125 C 24.769531 26.8125 23.164062 25.871094 22.273438 24.382812 C 24.945312 22.59375 28.136719 21.527344 31.554688 21.457031 Z M 43.460938 52.398438 C 42.457031 51.457031 41.882812 50.132812 41.882812 48.703125 C 41.882812 45.910156 44.132812 43.632812 46.898438 43.632812 C 47.53125 43.632812 48.15625 43.757812 48.730469 43.984375 C 47.789062 47.277344 45.9375 50.183594 43.460938 52.398438 Z M 49.324219 40.820312 C 48.546875 40.574219 47.726562 40.449219 46.898438 40.449219 C 42.394531 40.449219 38.730469 44.152344 38.730469 48.703125 C 38.730469 50.792969 39.527344 52.789062 40.898438 54.300781 C 38.269531 55.902344 35.199219 56.824219 31.914062 56.824219 C 22.261719 56.824219 14.421875 48.890625 14.421875 39.144531 C 14.421875 34.136719 16.488281 29.617188 19.816406 26.398438 C 21.308594 28.625 23.808594 30.019531 26.570312 30.019531 C 31.074219 30.019531 34.738281 26.316406 34.738281 21.765625 C 34.738281 21.746094 34.738281 21.722656 34.738281 21.703125 C 43.050781 23.070312 49.425781 30.371094 49.425781 39.15625 C 49.40625 39.703125 49.375 40.261719 49.324219 40.820312 Z M 49.324219 40.820312 "></path><path style=" stroke:none;fill-rule:nonzero;fill:rgb(0%,0%,0%);fill-opacity:1;" d="M 69.046875 17.285156 C 69.445312 17.285156 69.855469 17.441406 70.164062 17.75 C 70.777344 18.371094 70.777344 19.386719 70.164062 20.007812 L 57.859375 32.441406 C 57.246094 33.0625 56.242188 33.0625 55.628906 32.441406 C 55.015625 31.820312 55.015625 30.808594 55.628906 30.1875 L 67.933594 17.75 C 68.238281 17.441406 68.648438 17.285156 69.046875 17.285156 Z M 69.046875 17.285156 "></path><path style=" stroke:none;fill-rule:nonzero;fill:rgb(0%,0%,0%);fill-opacity:1;" d="M 69.046875 0 C 69.445312 0 69.855469 0.15625 70.164062 0.464844 C 70.777344 1.085938 70.777344 2.101562 70.164062 2.71875 L 52.21875 20.84375 C 51.605469 21.464844 50.601562 21.464844 49.988281 20.84375 C 49.375 20.222656 49.375 19.210938 49.988281 18.589844 L 67.933594 0.464844 C 68.238281 0.15625 68.648438 0 69.046875 0 Z M 69.046875 0 "></path><path style=" stroke:none;fill-rule:nonzero;fill:rgb(0%,0%,0%);fill-opacity:1;" d="M 51.945312 0 C 52.34375 0 52.753906 0.15625 53.058594 0.464844 C 53.675781 1.085938 53.675781 2.101562 53.058594 2.71875 L 40.757812 15.15625 C 40.144531 15.777344 39.140625 15.777344 38.527344 15.15625 C 37.910156 14.535156 37.910156 13.519531 38.527344 12.898438 L 50.828125 0.464844 C 51.136719 0.15625 51.535156 0 51.945312 0 Z M 51.945312 0 "></path><path style=" stroke:none;fill-rule:nonzero;fill:rgb(0%,0%,0%);fill-opacity:1;" d="M 26.550781 37.457031 C 23.089844 37.457031 20.277344 40.304688 20.277344 43.800781 C 20.277344 47.296875 23.089844 50.140625 26.550781 50.140625 C 30.011719 50.140625 32.824219 47.296875 32.824219 43.800781 C 32.824219 40.304688 30.011719 37.457031 26.550781 37.457031 Z M 26.550781 46.957031 C 24.832031 46.957031 23.429688 45.539062 23.429688 43.800781 C 23.429688 42.0625 24.832031 40.644531 26.550781 40.644531 C 28.269531 40.644531 29.671875 42.0625 29.671875 43.800781 C 29.671875 45.539062 28.28125 46.957031 26.550781 46.957031 Z M 26.550781 46.957031 "></path></g></svg> 