<?xml version="1.0" encoding="UTF-8"?> <svg xmlns="http://www.w3.org/2000/svg" xmlns:xlink="http://www.w3.org/1999/xlink" width="60pt" height="60pt" viewBox="0 0 60 60" version="1.1"><g id="surface1"><path style=" stroke:none;fill-rule:nonzero;fill:rgb(0%,0%,0%);fill-opacity:1;" d="M 35.636719 31.773438 C 34.136719 31.773438 32.824219 32.710938 32.074219 34.023438 L 9.9375 34.023438 C 6.1875 34.023438 3.1875 30.835938 3.1875 27.085938 C 3.1875 23.335938 6.1875 20.148438 9.9375 20.148438 L 13.125 20.148438 C 13.125 19.398438 13.5 18.648438 13.6875 17.898438 C 13.875 17.710938 13.875 17.335938 14.0625 17.148438 C 15.5625 14.335938 18.5625 12.460938 21.9375 12.460938 C 24.9375 12.460938 27.5625 13.960938 29.25 16.210938 C 30.1875 15.835938 31.125 15.460938 32.25 15.273438 C 30.1875 11.710938 26.4375 9.460938 21.9375 9.460938 C 16.875 9.460938 12.5625 12.648438 10.6875 17.148438 L 9.9375 17.148438 C 4.5 17.148438 0 21.648438 0 27.273438 C 0 32.898438 4.5 37.210938 9.9375 37.210938 L 32.261719 37.210938 C 32.824219 38.523438 34.136719 39.460938 35.824219 39.460938 C 37.886719 39.460938 39.574219 37.773438 39.574219 35.523438 C 39.574219 33.273438 37.898438 31.773438 35.636719 31.773438 Z M 48.023438 24.085938 C 45.773438 19.585938 41.085938 16.398438 35.835938 16.398438 C 29.273438 16.398438 23.835938 21.085938 22.511719 27.273438 C 19.324219 27.648438 16.511719 29.335938 14.824219 31.773438 L 31.148438 31.773438 C 32.273438 30.273438 33.960938 29.523438 35.835938 29.523438 C 39.210938 29.523438 41.835938 32.335938 41.835938 35.710938 C 41.835938 39.085938 39.023438 41.898438 35.835938 41.898438 C 33.960938 41.898438 32.273438 40.960938 31.148438 39.648438 L 12.949219 39.648438 C 13.699219 44.898438 18.199219 49.023438 23.449219 49.023438 L 47.835938 49.023438 C 54.585938 49.023438 60.023438 43.585938 60.023438 36.636719 C 60.023438 29.6875 54.585938 24.273438 48.023438 24.085938 Z M 48.023438 24.085938 "></path></g></svg> 