<?xml version="1.0" encoding="UTF-8"?> <svg xmlns="http://www.w3.org/2000/svg" xmlns:xlink="http://www.w3.org/1999/xlink" width="60pt" height="60pt" viewBox="0 0 60 60" version="1.1"><g id="surface1"><path style=" stroke:none;fill-rule:nonzero;fill:rgb(0%,0%,0%);fill-opacity:1;" d="M 56.539062 24.074219 C 56.386719 24.148438 56.238281 24.261719 56.074219 24.300781 C 53.5625 24.800781 51.039062 25.238281 48.539062 25.789062 C 43.800781 26.835938 39.125 28.136719 34.5 29.585938 C 34.398438 29.625 34.289062 29.664062 34.175781 29.699219 C 34.300781 30.1875 34.4375 30.664062 34.550781 31.136719 C 35.175781 33.789062 35.363281 36.488281 35.226562 39.199219 C 34.875 46.25 32.585938 52.699219 29.125 58.800781 C 28.800781 59.375 28.425781 59.585938 27.8125 59.539062 C 26.175781 59.386719 24.523438 59.300781 22.898438 59.085938 C 19.636719 58.664062 16.414062 57.988281 13.261719 57.039062 C 10.925781 56.335938 8.636719 55.488281 6.511719 54.25 C 5.324219 53.5625 4.226562 52.773438 3.335938 51.699219 C 1.835938 49.898438 1.625 47.9375 2.636719 45.824219 C 3.386719 44.273438 4.511719 43.011719 5.789062 41.898438 C 7.0625 40.789062 8.425781 39.761719 9.726562 38.675781 C 12.648438 36.210938 15.210938 33.425781 17.136719 30.101562 C 18.386719 27.925781 19.300781 25.625 19.625 23.125 C 20.261719 18.25 18.75 14.125 15.136719 10.789062 C 14.488281 10.226562 13.75 9.738281 13.074219 9.1875 C 12.738281 8.914062 12.386719 8.648438 12.101562 8.335938 C 11.5625 7.726562 11.488281 6.988281 11.925781 6.300781 C 12.1875 5.875 12.539062 5.488281 12.914062 5.164062 C 14.011719 4.199219 15.3125 3.539062 16.636719 2.925781 C 18.976562 1.835938 21.414062 1.011719 23.875 0.261719 C 23.976562 0.238281 24.074219 0.175781 24.175781 0.136719 C 24.210938 0.136719 24.25 0.136719 24.300781 0.136719 C 24.976562 2.636719 25.800781 5.074219 26.925781 7.414062 C 27.335938 8.261719 27.800781 9.101562 28.476562 9.789062 C 28.789062 10.113281 29.136719 10.375 29.601562 10.449219 C 31 10.6875 32.414062 10.898438 33.800781 11.1875 C 38.375 12.125 42.789062 13.5625 46.9375 15.726562 C 49.675781 17.148438 52.238281 18.824219 54.414062 21.023438 C 55.289062 21.898438 56.148438 22.8125 56.539062 24.039062 C 56.539062 24.039062 56.539062 24.050781 56.539062 24.074219 Z M 55.386719 23.914062 C 55.414062 23.886719 55.4375 23.851562 55.460938 23.824219 C 55.0625 23.363281 54.6875 22.875 54.25 22.449219 C 52.238281 20.5 49.9375 18.886719 47.636719 17.3125 C 47.613281 17.300781 47.585938 17.300781 47.574219 17.300781 C 45.976562 20.488281 43.648438 23.148438 41.449219 25.875 C 46.023438 24.726562 50.726562 24.425781 55.386719 23.914062 Z M 21.699219 49.800781 C 21.824219 49.914062 21.925781 50.011719 22.039062 50.074219 C 22.476562 50.300781 22.898438 50.550781 23.363281 50.726562 C 25.636719 51.585938 28.011719 52.0625 30.386719 52.539062 C 30.476562 52.550781 30.625 52.476562 30.664062 52.398438 C 30.875 52 31.085938 51.601562 31.238281 51.175781 C 31.761719 49.761719 32.0625 48.289062 32.324219 46.8125 C 32.4375 46.175781 32.539062 45.523438 32.648438 44.875 C 29.136719 46.8125 25.398438 48.210938 21.699219 49.800781 Z M 39.523438 26.289062 C 41.335938 24.761719 45.710938 18.988281 46.375 17.226562 C 42.5 18.398438 38.789062 19.875 34.988281 21.261719 C 36.925781 22.585938 38.238281 24.414062 39.523438 26.289062 Z M 3.8125 46.625 C 4.6875 46.636719 11.648438 44.75 12.699219 44.25 C 11.960938 42.476562 11.386719 40.636719 11.335938 38.648438 C 11.210938 38.710938 11.113281 38.738281 11.039062 38.789062 C 10.425781 39.136719 9.789062 39.460938 9.199219 39.835938 C 7.25 41.113281 5.625 42.699219 4.5625 44.800781 C 4.273438 45.375 4.074219 45.988281 3.8125 46.625 Z M 16.289062 57.226562 C 17.761719 57.273438 28.425781 53.960938 30.136719 52.925781 C 27 52.800781 24.039062 52.039062 21.1875 50.898438 C 19.6875 53.113281 17.960938 55.125 16.289062 57.226562 Z M 36.835938 13.375 C 36.4375 15.75 35.648438 17.976562 35.011719 20.1875 C 36.761719 19.523438 38.488281 18.824219 40.261719 18.210938 C 42.039062 17.601562 43.835938 17.0625 45.738281 16.460938 C 42.851562 15.074219 39.835938 14.289062 36.835938 13.375 Z M 15.0625 44.75 C 15.085938 44.8125 15.101562 44.824219 15.113281 44.835938 C 15.175781 44.914062 15.238281 45 15.300781 45.074219 C 16.699219 46.773438 18.414062 48.085938 20.386719 49.0625 C 20.636719 49.1875 20.75 49.164062 20.898438 48.914062 C 21.949219 47.210938 22.726562 45.386719 23.324219 43.488281 C 23.523438 42.851562 23.699219 42.199219 23.898438 41.511719 C 20.976562 42.773438 18.011719 43.710938 15.0625 44.75 Z M 18.761719 49.789062 C 16.8125 48.6875 15.136719 47.351562 13.523438 45.914062 C 11.613281 48.375 9.710938 50.8125 7.824219 53.238281 C 8.101562 53.675781 8.101562 53.675781 8.539062 53.511719 C 10.9375 52.636719 13.351562 51.761719 15.75 50.875 C 16.726562 50.523438 17.710938 50.175781 18.761719 49.789062 Z M 32.550781 44.25 C 31.425781 43.773438 30.273438 43.3125 29.148438 42.800781 C 28.011719 42.289062 26.898438 41.710938 25.761719 41.164062 C 24.636719 43.550781 23.511719 45.925781 22.386719 48.3125 C 23.351562 48.574219 30.25 45.425781 32.550781 44.25 Z M 27.074219 30.324219 C 30.863281 29.113281 34.601562 27.914062 38.386719 26.699219 C 37.039062 24.960938 35.210938 23.925781 33.386719 22.925781 C 31.398438 25.5 29.210938 27.863281 27.074219 30.324219 Z M 12.335938 45.5625 C 9.523438 46.238281 6.761719 47.039062 3.886719 47.289062 C 3.625 49 5.539062 52.136719 7.300781 52.875 C 9.050781 50.5 10.914062 48.1875 12.335938 45.5625 Z M 18.511719 57.25 C 18.5 57.273438 18.5 57.3125 18.488281 57.335938 C 18.949219 57.5 19.414062 57.699219 19.886719 57.835938 C 22.398438 58.539062 24.988281 58.851562 27.574219 59.113281 C 28.273438 59.1875 28.3125 59.1875 28.574219 58.539062 C 29.226562 56.988281 29.835938 55.425781 30.460938 53.863281 C 30.476562 53.824219 30.488281 53.773438 30.5 53.6875 C 26.613281 55.289062 22.601562 56.375 18.511719 57.25 Z M 19.539062 50.949219 C 19.523438 50.9375 19.511719 50.914062 19.5 50.898438 C 15.9375 51.863281 12.386719 52.824219 8.789062 53.800781 C 8.875 53.875 8.898438 53.914062 8.9375 53.949219 C 9.074219 54.0625 9.199219 54.175781 9.335938 54.273438 C 11.1875 55.613281 13.289062 56.289062 15.5 56.699219 C 15.6875 56.738281 15.773438 56.636719 15.863281 56.511719 C 16.449219 55.625 17.039062 54.726562 17.636719 53.835938 C 18.261719 52.863281 18.898438 51.914062 19.539062 50.949219 Z M 20.273438 34.789062 C 19.0625 37.800781 17.335938 40.550781 15.726562 43.449219 C 18.699219 42.5 21.550781 41.476562 24.226562 39.925781 C 22.613281 38.414062 21.136719 36.835938 20.273438 34.789062 Z M 33.824219 36.386719 C 31.4375 37.738281 29.164062 39.136719 26.664062 40.210938 C 28.636719 41.613281 30.648438 42.824219 33 43.460938 C 33.738281 41.148438 34.074219 38.835938 33.824219 36.386719 Z M 26.675781 39.023438 C 28.949219 37.886719 31.238281 36.886719 33.363281 35.449219 C 31.300781 34.226562 29.3125 33.039062 27.289062 31.835938 C 27.300781 34.261719 27.363281 36.648438 26.675781 39.023438 Z M 16.851562 4.136719 C 16.863281 4.1875 16.863281 4.238281 16.875 4.289062 C 17.125 4.363281 17.363281 4.449219 17.625 4.5 C 20.085938 4.875 22.550781 5.25 25.011719 5.601562 C 25.425781 5.664062 25.5 5.574219 25.398438 5.164062 C 25.273438 4.585938 25.125 4 24.949219 3.4375 C 24.675781 2.574219 24.351562 1.738281 24.023438 0.835938 C 21.601562 1.949219 19.226562 3.039062 16.851562 4.136719 Z M 33.363281 20.273438 C 34.5625 18.125 35.636719 15.925781 35.949219 13.363281 C 33.539062 14.925781 31.175781 16.449219 28.863281 17.9375 C 30.351562 18.710938 31.835938 19.488281 33.363281 20.273438 Z M 26.636719 11.476562 C 27.175781 12.363281 27.476562 13.25 27.601562 14.1875 C 27.738281 15.136719 27.636719 16.074219 27.351562 17.050781 C 29.738281 15.726562 32.074219 14.425781 34.449219 13.113281 C 31.835938 12.550781 29.273438 12.023438 26.636719 11.476562 Z M 24.960938 39.039062 C 25.851562 36.835938 26.125 34.625 25.789062 32.289062 C 24.210938 32.9375 22.6875 33.5625 21.136719 34.199219 C 22 36.148438 23.175781 37.800781 24.960938 39.039062 Z M 25.351562 6.550781 C 22.164062 6.136719 19.101562 5.398438 15.960938 4.738281 C 16.085938 4.898438 16.175781 5.023438 16.261719 5.125 C 17.425781 6.363281 18.585938 7.601562 19.738281 8.835938 C 19.949219 9.0625 20.164062 9.210938 20.488281 9.164062 C 20.773438 9.125 21.074219 9.210938 21.363281 9.023438 C 22.023438 8.585938 22.710938 8.1875 23.386719 7.761719 C 24.039062 7.363281 24.675781 6.960938 25.351562 6.550781 Z M 17.988281 35.460938 C 17.914062 35.488281 17.875 35.488281 17.835938 35.5 C 16.300781 36.261719 14.75 37.023438 13.210938 37.800781 C 13.136719 37.835938 13.0625 37.988281 13.074219 38.085938 C 13.1875 39.164062 13.300781 40.25 13.460938 41.324219 C 13.550781 41.898438 13.738281 42.449219 14.0625 42.949219 C 15.324219 41.851562 17.175781 37.863281 17.988281 35.460938 Z M 21.1875 15.375 C 23.011719 16 24.789062 16.613281 26.601562 17.226562 C 26.664062 15.25 26.710938 13.300781 25.738281 11.449219 C 24.199219 12.773438 22.6875 14.074219 21.1875 15.375 Z M 25.4375 30.9375 C 27.488281 28.300781 29.511719 25.699219 31.539062 23.074219 C 29.113281 24.386719 26.6875 25.699219 24.289062 27 C 25 28.210938 25.125 29.585938 25.4375 30.9375 Z M 23.101562 28.511719 C 20.386719 31.125 17.488281 33.449219 14.675781 35.875 C 14.875 35.789062 15.0625 35.6875 15.261719 35.585938 C 18.125 34.226562 20.976562 32.863281 23.851562 31.523438 C 24.148438 31.386719 24.25 31.238281 24.226562 30.914062 C 24.164062 29.960938 23.863281 29.125 23.101562 28.511719 Z M 18.488281 10.1875 C 19.050781 11.726562 19.601562 13.226562 20.164062 14.738281 C 21.710938 13.574219 23.3125 12.375 24.960938 11.136719 C 22.75 10.8125 20.613281 10.5 18.488281 10.1875 Z M 28.226562 31.550781 C 30.085938 32.625 31.863281 33.710938 33.800781 34.613281 C 33.824219 32.949219 33.835938 31.363281 33.460938 29.761719 C 31.710938 30.363281 30 30.949219 28.226562 31.550781 Z M 21.148438 22.914062 C 22.601562 21.523438 24 20.1875 25.398438 18.851562 C 24.773438 18.324219 21.460938 17.101562 20.789062 17.136719 C 21.101562 19.011719 21.074219 20.925781 21.148438 22.914062 Z M 31.625 21.613281 C 30.175781 20.835938 28.773438 20.074219 27.425781 19.351562 C 27.175781 20.289062 26.949219 21.1875 26.6875 22.085938 C 26.425781 22.976562 26.113281 23.863281 25.800781 24.800781 C 27.761719 23.726562 29.664062 22.6875 31.625 21.613281 Z M 23.550781 25.949219 C 24.851562 24.175781 25.523438 22.148438 26.050781 19.976562 C 24.375 21.363281 22.773438 22.699219 21.164062 24.039062 C 21.960938 24.675781 22.738281 25.300781 23.550781 25.949219 Z M 15.136719 5.175781 C 14.550781 5.675781 13.949219 6.136719 13.398438 6.664062 C 12.925781 7.113281 12.960938 7.273438 13.585938 7.476562 C 14.398438 7.738281 15.226562 7.976562 16.050781 8.199219 C 16.710938 8.386719 17.398438 8.539062 18.0625 8.699219 C 18.074219 8.6875 18.085938 8.664062 18.101562 8.648438 C 17.125 7.5 16.148438 6.363281 15.136719 5.175781 Z M 22.664062 9.375 C 22.675781 9.398438 22.675781 9.425781 22.6875 9.4375 C 24.226562 9.675781 25.761719 9.914062 27.351562 10.164062 C 26.925781 9.164062 26.523438 8.210938 26.125 7.25 C 24.9375 7.988281 23.800781 8.6875 22.664062 9.375 Z M 21.550781 29.085938 C 21.539062 29.074219 21.539062 29.0625 21.523438 29.039062 C 21.375 29.101562 21.238281 29.164062 21.085938 29.226562 C 19.886719 29.8125 18.761719 30.511719 17.699219 31.335938 C 17.148438 31.761719 16.574219 32.175781 16.125 32.699219 C 15.324219 33.636719 14.613281 34.648438 13.875 35.625 C 13.824219 35.6875 13.789062 35.761719 13.738281 35.835938 C 13.75 35.851562 13.761719 35.863281 13.773438 35.863281 C 16.375 33.613281 18.960938 31.351562 21.550781 29.085938 Z M 18.5 29.710938 C 19.789062 28.863281 20.925781 27.949219 22.023438 26.988281 C 21.636719 26.523438 20.863281 26.074219 20.414062 26.011719 C 19.773438 27.238281 19.164062 28.4375 18.5 29.710938 Z M 14.949219 9.25 C 16.175781 10.664062 17.4375 12.136719 18.726562 13.625 C 18.476562 12.773438 18.175781 11.960938 17.988281 11.113281 C 17.824219 10.386719 17.488281 9.949219 16.738281 9.851562 C 16.601562 9.824219 16.476562 9.761719 16.335938 9.710938 C 15.835938 9.550781 15.351562 9.375 14.949219 9.25 Z M 14.949219 9.25 "></path></g></svg> 