<?xml version="1.0" encoding="UTF-8"?> <!-- Generator: Adobe Illustrator 25.1.0, SVG Export Plug-In . SVG Version: 6.00 Build 0) --> <svg xmlns="http://www.w3.org/2000/svg" xmlns:xlink="http://www.w3.org/1999/xlink" version="1.1" id="Layer_1" x="0px" y="0px" viewBox="0 0 710.9 685.5" style="enable-background:new 0 0 710.9 685.5;" xml:space="preserve"> <style type="text/css"> .st0{opacity:0.59;fill:#E7E7E7;enable-background:new ;} .st1{opacity:0.53;fill-rule:evenodd;clip-rule:evenodd;fill:#E7E7E7;enable-background:new ;} .st2{opacity:0.68;fill-rule:evenodd;clip-rule:evenodd;fill:#F2F2F2;enable-background:new ;} .st3{fill-rule:evenodd;clip-rule:evenodd;fill:#E6E6E6;} .st4{opacity:0.53;fill-rule:evenodd;clip-rule:evenodd;fill:#E6E6E6;enable-background:new ;} .st5{fill:#F05A2A;} .st6{fill:#F8EC3A;} .st7{fill:#FFFFFF;} .st8{fill:#FF4081;} .st9{fill:#FFD740;} .st10{fill:#40C4FF;} .st11{fill:#399439;} .st12{fill:#FE912A;} .st13{fill:#EF4335;} .st14{fill:#DD3A78;} .st15{fill:#E0B83B;} .st16{fill:#39AED8;} .st17{fill:#317C31;} .st18{fill:#FA7903;} .st19{fill:#D33C35;} .st20{fill:url(#SVGID_1_);} .st21{fill:url(#SVGID_2_);} .st22{fill:none;stroke:#403F41;stroke-width:3.8983;stroke-linecap:round;stroke-miterlimit:10;} .st23{fill:#A6A8AB;} .st24{fill:#221F1F;} .st25{fill:none;stroke:#403F41;stroke-width:3.2521;stroke-linecap:round;stroke-miterlimit:10;} .st26{opacity:0.34;fill:#FFFFFF;enable-background:new ;} .st27{fill:#403F41;} .st28{enable-background:new ;} .st29{font-family:'Raleway-ExtraBold';} .st30{font-size:20px;} </style> <path class="st0" d="M600.9,41.9c-1.9,0-3.7,0.3-5.5,0.8c0-0.3,0-0.5,0-0.8c0-16.8-13.6-30.4-30.4-30.4c-15.3,0-28,11.4-30.1,26.2 c-2.6-0.9-5.4-1.4-8.4-1.4c-14,0-25.3,11.3-25.3,25.3c0,12.7,9.3,23.2,21.4,25c2.6,10.9,12.4,19,24.1,19c9.5,0,17.8-5.4,21.9-13.2 c3.2,4.6,8.5,7.7,14.6,7.7c9.8,0,17.7-7.9,17.7-17.7c0-0.9-0.1-1.7-0.2-2.5c0.1,0,0.1,0,0.2,0c10.5,0,19-8.5,19-19 S611.3,41.9,600.9,41.9z"></path> <path class="st0" d="M278.3,284.6c-1.5,0-3,0.2-4.4,0.6c0-0.2,0-0.4,0-0.6c0-8.5-6.9-15.3-15.3-15.3c-4.9,0-9.3,2.3-12.1,5.9 c-2.4-2.2-5.6-3.6-9.1-3.6c-5.4,0-10.1,3.2-12.2,7.8c-1.5-0.6-3-0.9-4.7-0.9c-7.2,0-13,5.8-13,13s5.8,13,13,13c1,0,2-0.1,3-0.4 c-0.1,0.6-0.1,1.1-0.1,1.7c0,8.2,6.7,14.9,14.9,14.9c4.5,0,8.6-2,11.3-5.2c2.4,3.6,6.5,6,11.1,6c5.6,0,10.4-3.5,12.4-8.4 c1.6,0.6,3.4,1,5.2,1c8.1,0,14.7-6.6,14.7-14.7C293,291.2,286.4,284.6,278.3,284.6z M251.3,298.8c-0.2-0.4-0.4-0.8-0.7-1.1 c0.4,0.2,0.8,0.5,1.2,0.6C251.7,298.5,251.5,298.6,251.3,298.8z"></path> <path class="st0" d="M161.3,102.3c-4.1-11.8-16.9-19.8-31.4-18.7c-11.8,0.9-21.6,7.5-26.1,16.6c-4.3-4.8-11.2-7.7-18.7-7.1 C73,94,63.8,103.4,64.6,114.2c0.1,0.9,0.2,1.9,0.5,2.8c-0.1,0-0.2,0-0.2,0c-13,1-22.9,11.1-22.1,22.7c0.9,11.6,12.1,20.2,25.1,19.2 c2.4-0.2,4.6-0.7,6.7-1.4c0,0.3,0,0.6,0,0.9c1.4,18.5,19.4,32.2,40.2,30.7c19.1-1.4,33.9-15.1,35.3-31.6c3.3,0.8,6.9,1.1,10.5,0.8 c17.4-1.3,30.6-14.8,29.4-30.2C188.9,113.9,176.5,103.2,161.3,102.3z"></path> <path class="st1" d="M0.7,685.5h331.2c0.8-0.4,1.6-0.8,2.3-1.2c0.4,0.4,0.8,0.8,1.2,1.2h6.2h27.8h6.2c0.4-0.4,0.8-0.8,1.2-1.2 c0.8,0.4,1.5,0.8,2.3,1.2h331.2c0.4-1.7,0.6-3.4,0.6-5.2c0-14.9-13.6-27.6-32.8-32.8c1.8-2.8,2.8-5.8,2.8-9 c0-12.3-14.7-22.4-32.9-22.4c-15.6,0-28.7,7.4-32,17.3c-1.3-13.7-18.1-24.6-38.6-24.6c-6.9,0-13.4,1.2-19,3.4 c-4.9-6-14.2-10-24.9-10c-4.8,0-9.3,0.8-13.3,2.2c-2.8-7.2-12.5-12.6-24-12.6c-0.3,0-0.6,0-0.9,0c-1.1-12.6-16.4-22.6-35.2-22.6 c-16.1,0-29.7,7.3-33.9,17.4c-4.2-1.3-8.9-2-13.8-2c-3.7,0-7.3,0.4-10.7,1.2c-3.6-1.6-7.8-2.5-12.4-2.5c-12.4,0-22.5,6.7-23.1,15 c-3.8-2.2-8.2-3.8-13-4.9c-3.6-6.8-13.2-11.7-24.5-11.7c-6.1,0-11.7,1.4-16.1,3.8c-5.2-3-12-4.8-19.5-4.8c-3.8,0-7.5,0.5-10.8,1.4 c-5.9-7.7-17.7-12.9-31.3-12.9c-19.2,0-34.7,10.4-35.3,23.3c-1.1-0.1-2.2-0.1-3.4-0.1c-12.5,0-23.7,3.8-31.3,9.8 c-1.2-0.1-2.3-0.2-3.5-0.2c-4.8,0-9.3,0.8-13.3,2.2c-4.3-2.9-10.3-4.8-16.9-4.8c-9.8,0-18.1,4-21.9,9.7c-16.7,2.4-29.4,12.1-30.5,24 c-3.4-9.9-16.4-17.3-32-17.3c-18.2,0-32.9,10-32.9,22.4c0,3.2,1,6.3,2.8,9C13.6,652.4,0,665.1,0,680C0.1,682,0.3,683.8,0.7,685.5 L0.7,685.5z M577.4,669.4L577.4,669.4L577.4,669.4L577.4,669.4L577.4,669.4z M134,669.4L134,669.4L134,669.4L134,669.4z"></path> <g> <path class="st2" d="M453.5,686.4H258.6c40.9-44.1,75.1-117.8,78.2-239c0.2-7.6,0.1-15.5,0-23.5c0,0-0.4-3.3-0.6-5.9h19.9H376 c-0.2,2.6-0.6,5.9-0.6,5.9c0,8-0.2,15.9,0,23.5C378.5,568.6,412.6,642.4,453.5,686.4z"></path> <path class="st3" d="M334.5,415.2c-0.2,10.5-1.8,99.9-9.3,145.1s-24.4,101.2-24.4,101.2c17-52.8,39.9-132.3,40.6-183.5 c0.7,39.2-11.3,145.7-10.2,144.1c15.5-47.4,20.5-118.9,20.8-148.5l4.1,85.4l4.1-85.4c0.3,29.5,5.3,101.1,20.8,148.4 c1.1,1.6-11-104.9-10.2-144.1c0.8,51.2,23.6,130.7,40.6,183.5c0,0-16.8-56-24.4-101.2c-7.5-45.2-9.6-134.6-9.9-145.1L334.5,415.2 L334.5,415.2z"></path> <path class="st4" d="M280.3,670.9c2.8-0.4,24.4-40.4,29.7-53.8c5.3-13.4,8.7-29.8,8.6-27.8c-1.6,25.8-14.5,59.4-14.4,59.3 c1.2-1.2,15.3-31.1,21.8-49.9c6.5-18.8,11.1-39.7,11.1-36.2c0,24.8-5.8,54.2-17.6,92.2c1.9-2.4,16.7-32.7,20.4-44.9 s5.1-15.7,5.1-15.7c-1.1,32.7-11.7,65-11.1,64.3c13.4-15.2,21.3-87.9,22.6-90.7c1.3,2.8,9.2,75.5,22.6,90.7 c0.6,0.6-10-31.6-11.1-64.3c0,0,1.4,3.5,5.1,15.7c3.7,12.2,18.6,42.4,20.4,44.9c-11.8-38-17.6-67.4-17.6-92.2 c0-3.5,4.6,17.4,11.1,36.2s20.6,48.7,21.8,49.9c0.1,0.1-12.8-33.5-14.4-59.3c-0.1-1.9,3.2,14.4,8.6,27.8s26.9,53.4,29.7,53.8 l-76.2,6.8L280.3,670.9z"></path> </g> <g> <path class="st5" d="M359.3,392.5c-13.3,0.3-24.6,15.3-24.3,25.9s26.3,50.8,26.3,50.8c7.3-18.4,23.9-41.7,23.7-52.1 C384.6,406.7,372.5,392.1,359.3,392.5z"></path> <path class="st6" d="M359.3,393.2c-10.8,0.3-20.1,12.5-19.9,21.2c0.2,8.7,21.5,41.5,21.5,41.5c6-15,19.6-34,19.3-42.6 C380,404.9,370.1,393,359.3,393.2z"></path> <path class="st7" d="M359.3,393.2c-8.4,0.2-15.5,9.6-15.3,16.3s16.5,32,16.5,32c4.6-11.6,15.1-26.2,14.9-32.8 C375.3,402.1,367.7,393,359.3,393.2z"></path> </g> <g> <path class="st5" d="M349.2,398c-8.7-1.7-18.2,6.3-19.6,13.3c-1.4,6.9,9.7,36.8,9.7,36.8c7.5-10.9,21.6-23.5,23-30.4 C363.6,410.9,357.9,399.7,349.2,398z"></path> <path class="st6" d="M349.1,398.5c-7.1-1.4-14.9,5.2-16,10.8c-1.1,5.7,7.9,30.1,7.9,30.1c6.1-8.9,17.7-19.2,18.8-24.8 C360.9,409,356.2,399.9,349.1,398.5z"></path> <path class="st7" d="M349.1,398.4c-5.5-1.1-11.5,4-12.3,8.4c-0.9,4.4,6.1,23.2,6.1,23.2c4.7-6.9,13.6-14.8,14.5-19.1 C358.2,406.6,354.6,399.5,349.1,398.4z"></path> </g> <g> <path class="st5" d="M353.2,395.9c-5.1,2.2-7.2,9.9-5.4,14s18.3,15.8,18.3,15.8c0-8.4,2.8-20.1,1-24.2 C365.4,397.4,358.3,393.7,353.2,395.9z"></path> <path class="st6" d="M353.3,396.2c-4.2,1.8-5.9,8.1-4.4,11.4c1.5,3.4,15,12.9,15,12.9c0-6.8,2.3-16.4,0.8-19.7 C363.3,397.5,357.5,394.4,353.3,396.2z"></path> <path class="st7" d="M353.3,396.2c-3.2,1.4-4.5,6.2-3.4,8.8c1.1,2.6,11.5,9.9,11.5,9.9c0-5.3,1.8-12.7,0.6-15.2 C361,397.1,356.5,394.8,353.3,396.2z"></path> </g> <path class="st8" d="M98.8,262c1.2,67,28.2,127.7,71.4,172.6l73.4-73.4c-24.5-26.1-39.9-60.9-41-99.2H98.8z"></path> <path class="st9" d="M98.8,252.8h103.8c1.2-38.3,16.6-73.1,41.1-99.2l-73.4-73.3C127.1,125.1,100,185.8,98.8,252.8z"></path> <path class="st10" d="M250.3,147.1c26.1-24.5,60.8-39.9,99.2-41.1V2.3c-67,1.2-127.7,28.2-172.5,71.4L250.3,147.1z"></path> <path class="st11" d="M358.6,106.1c38.3,1.2,73.1,16.5,99.2,41.1l73.4-73.4C486.3,30.5,425.6,3.5,358.6,2.3V106.1z"></path> <path class="st12" d="M464.3,361.2l73.4,73.4C581,389.7,608,329,609.1,262H505.4C504.3,300.4,488.9,335.1,464.3,361.2z"></path> <path class="st13" d="M464.3,153.6c24.5,26.1,40,60.8,41.1,99.2h103.8c-1.2-67-28.2-127.7-71.5-172.5L464.3,153.6z"></path> <path class="st14" d="M202.6,262c1.1,38.4,16.5,73.1,41,99.2l15.1-15.1C238,323.9,225,294.5,223.9,262H202.6z"></path> <path class="st15" d="M202.6,252.8H224c1.1-32.4,14.2-61.8,34.8-84l-15.1-15.1C219.2,179.7,203.8,214.5,202.6,252.8z"></path> <path class="st16" d="M265.4,162.3c22.2-20.7,51.6-33.7,84-34.8v-21.4c-38.3,1.2-73.1,16.5-99.1,41.1L265.4,162.3z"></path> <path class="st17" d="M358.6,127.5c32.4,1.1,61.8,14.1,84,34.8l15.1-15.1c-26.1-24.5-60.8-39.9-99.2-41.1v21.4H358.6z"></path> <path class="st18" d="M449.2,346.1l15.1,15.1c24.5-26.1,39.9-60.9,41.1-99.2H484C482.9,294.5,469.9,323.9,449.2,346.1z"></path> <path class="st19" d="M449.1,168.8c20.7,22.2,33.7,51.6,34.8,84h21.4c-1.2-38.3-16.6-73.1-41.1-99.1L449.1,168.8z"></path> <polygon class="st19" points="459.9,212.2 487.8,215.6 476.8,189.7 "></polygon> <polygon class="st17" points="396.7,150.2 418.9,132.8 392.8,122.3 "></polygon> <polygon class="st16" points="308.1,151 311.6,123 285.6,134.1 "></polygon> <polygon class="st15" points="218.2,218.1 246.1,214.2 228.8,192 "></polygon> <polygon class="st14" points="230,325.2 246.9,302.7 219,299.3 "></polygon> <polygon class="st18" points="478.1,323 488.6,296.8 460.7,300.8 "></polygon> <linearGradient id="SVGID_1_" gradientUnits="userSpaceOnUse" x1="282.8" y1="54.0501" x2="425.1" y2="54.0501" gradientTransform="matrix(1 0 0 1 0 170)"> <stop offset="0" style="stop-color:#1CBBE9"></stop> <stop offset="1" style="stop-color:#2176FF"></stop> </linearGradient> <path class="st20" d="M354,176.2c-39.3,0-71.2,31.9-71.2,71.1c52.6,51,60.4,6.9,71.2,6.8c20.5-0.1,34.1,42.2,71.1-6.8 C425.1,208,393.3,176.2,354,176.2z"></path> <linearGradient id="SVGID_2_" gradientUnits="userSpaceOnUse" x1="282.8" y1="115.4733" x2="425.0237" y2="115.4733" gradientTransform="matrix(1 0 0 1 0 170)"> <stop offset="0" style="stop-color:#1CBBE9"></stop> <stop offset="1" style="stop-color:#2176FF"></stop> </linearGradient> <path class="st21" d="M282.8,247.3c7.8,44.4,29.2,49.8,40.9,96.2c25.4,16.9,23.4,13,64.3,3.3c5.8-42.7,37-68.5,37-99.5 C427.1,200.9,288.7,210,282.8,247.3z"></path> <g> <path class="st22" d="M321.8,260.8c0,0,13.5,31,17.6,42.4c4.1,11.5,4.2,38.9,4.2,38.9"></path> <path class="st22" d="M391.1,260.8c0,0-13.5,31-17.6,42.4s-4.2,38.9-4.2,38.9"></path> </g> <path class="st23" d="M331.5,387c0,6.8,4.4,12.2,9.8,12.2h29.3c5.4,0,9.8-5.5,9.8-12.2v-22h-48.9L331.5,387L331.5,387z"></path> <path class="st24" d="M319.3,373.7c0,6.8,5.5,12.2,12.2,12.2h48.8c6.8,0,12.2-5.5,12.2-12.2v-35.6h-73.2V373.7L319.3,373.7z"></path> <g> <path class="st25" d="M335.2,262.9c-3.9,0-7.1,4.2-7.1,9.3c0,5.1,3.2,9.3,7.1,9.3c3.9,0,7.1-4.2,7.1-9.3 C342.3,267,339.1,262.9,335.2,262.9z"></path> <path class="st25" d="M349.3,262.9c-3.9,0-7.1,4.2-7.1,9.3c0,5.1,3.2,9.3,7.1,9.3s7.1-4.2,7.1-9.3 C356.5,267,353.3,262.9,349.3,262.9z"></path> <path class="st25" d="M363.5,262.9c-3.9,0-7.1,4.2-7.1,9.3c0,5.1,3.2,9.3,7.1,9.3s7.1-4.2,7.1-9.3 C370.6,267,367.5,262.9,363.5,262.9z"></path> <path class="st25" d="M377.8,262.9c-3.9,0-7.1,4.2-7.1,9.3c0,5.1,3.2,9.3,7.1,9.3s7.1-4.2,7.1-9.3 C384.8,267,381.7,262.9,377.8,262.9z"></path> </g> <path class="st26" d="M392,195.7c-11.6-8.4-42.9-19.4-60.5-6.5c-17.5,12.9-0.5,23,12.1,24.5c18,2.1,45.1,7.8,54.5,30.4 c12.6,30.2,2.2,52.6,4.6,47.1c6.6-15.6,13.7-24.4,15.5-41.1S408.1,207.5,392,195.7z"></path> <path class="st27" d="M393.4,344h-75.3c-0.9,0-1.7,0.8-1.7,1.8v3c0,1,0.8,1.8,1.7,1.8h75.3c0.9,0,1.7-0.8,1.7-1.8v-3 C395.1,344.8,394.3,344,393.4,344z"></path> <path class="st27" d="M393.4,354.5h-75.3c-0.9,0-1.7,0.8-1.7,1.8v3c0,1,0.8,1.8,1.7,1.8h75.3c0.9,0,1.7-0.8,1.7-1.8v-3 C395.1,355.3,394.3,354.5,393.4,354.5z"></path> <path class="st27" d="M393.6,365h-75.3c-0.9,0-1.7,0.8-1.7,1.8v3c0,1,0.8,1.8,1.7,1.8h75.2c0.9,0,1.7-0.8,1.7-1.8v-3 C395.3,365.8,394.5,365,393.6,365z"></path> <g> <g class="st28"> <path class="st7" d="M141.3,352.4c-0.6,0-1.1-0.1-1.7-0.2c-0.5-0.1-1.1-0.4-1.5-0.6c-0.5-0.3-0.8-0.6-1.1-1.1 c-0.3-0.4-0.5-0.9-0.5-1.5h2.4c0.1,0.4,0.2,0.6,0.5,0.9s0.5,0.4,0.8,0.6s0.7,0.2,1.1,0.2s0.8-0.1,1.2-0.2c0.4-0.1,0.6-0.3,0.8-0.5 c0.2-0.2,0.3-0.5,0.3-0.8s-0.1-0.5-0.3-0.7c-0.2-0.2-0.4-0.3-0.7-0.5c-0.3-0.1-0.6-0.2-1-0.3l-2-0.4c-0.9-0.2-1.6-0.5-2.1-1 s-0.8-1.2-0.8-2.1c0-0.7,0.2-1.4,0.6-1.9s0.9-0.9,1.6-1.2s1.4-0.4,2.3-0.4c1,0,1.8,0.2,2.5,0.5s1.2,0.7,1.6,1.3 c0.4,0.5,0.5,1.1,0.5,1.8h-2.3c0-0.4-0.2-0.7-0.4-1c-0.2-0.2-0.5-0.4-0.8-0.5s-0.7-0.2-1.1-0.2c-0.3,0-0.6,0-0.8,0.1 c-0.3,0.1-0.5,0.2-0.6,0.3c-0.2,0.1-0.3,0.3-0.4,0.4c-0.1,0.2-0.1,0.4-0.1,0.6c0,0.3,0.1,0.6,0.3,0.8s0.6,0.4,1.3,0.5l2,0.4 c0.7,0.1,1.3,0.3,1.7,0.6c0.4,0.3,0.7,0.6,0.9,0.9c0.2,0.3,0.3,0.7,0.4,1s0.1,0.7,0.1,1c0,0.6-0.2,1.2-0.6,1.7s-0.9,0.9-1.6,1.2 C143.1,352.2,142.3,352.4,141.3,352.4z"></path> <path class="st7" d="M152.8,345.5H151v4.4c0,0.2,0,0.4,0.1,0.5s0.1,0.2,0.2,0.2s0.2,0,0.4,0h1.1v1.4c-0.1,0-0.3,0.1-0.5,0.1 s-0.5,0.1-0.9,0.1c-0.7,0-1.3-0.1-1.7-0.3c-0.4-0.2-0.7-0.4-0.8-0.8s-0.2-0.7-0.2-1.2v-4.5h-1.4v-1.6h1.4l0.6-2.5h1.7v2.5h1.8 V345.5z"></path> <path class="st7" d="M154.5,352.2v-8.3h2.2v2c0.1-0.4,0.3-0.8,0.6-1.1s0.5-0.6,0.9-0.7s0.7-0.3,1.2-0.3c0.1,0,0.1,0,0.2,0 s0.1,0,0.1,0v2.2c0,0-0.1,0-0.2,0s-0.1,0-0.2,0c-0.5,0-0.9,0-1.2,0c-0.3,0.1-0.6,0.2-0.8,0.3c-0.2,0.2-0.3,0.3-0.4,0.6 c-0.1,0.2-0.1,0.5-0.1,0.8v4.5H154.5z"></path> <path class="st7" d="M163.5,352.4c-0.5,0-1-0.1-1.4-0.3s-0.8-0.5-1-0.9s-0.4-0.8-0.4-1.4c0-0.9,0.3-1.6,1-2.1s1.7-0.7,3.2-0.7h1 v-0.5c0-0.4-0.1-0.7-0.3-0.9c-0.2-0.2-0.6-0.3-1-0.3c-0.3,0-0.7,0.1-1,0.2c-0.3,0.2-0.5,0.4-0.6,0.8h-1.9c0-0.6,0.2-1.1,0.5-1.5 s0.7-0.7,1.3-0.9c0.5-0.2,1.2-0.3,1.8-0.3c0.8,0,1.5,0.1,2,0.3c0.5,0.2,0.9,0.5,1.1,0.9s0.3,0.9,0.3,1.4v5.8h-2l-0.2-1.4 c-0.3,0.6-0.6,1-1.1,1.2C164.5,352.2,164,352.4,163.5,352.4z M164.2,350.8c0.2,0,0.4,0,0.6-0.1s0.4-0.2,0.5-0.3s0.3-0.3,0.4-0.4 c0.1-0.2,0.1-0.3,0.1-0.5v-1.2H165c-0.4,0-0.8,0.1-1.1,0.1s-0.6,0.2-0.8,0.4c-0.2,0.2-0.3,0.5-0.3,0.8c0,0.4,0.1,0.7,0.4,0.9 S163.9,350.8,164.2,350.8z"></path> <path class="st7" d="M175.3,345.5h-1.8v4.4c0,0.2,0,0.4,0.1,0.5s0.1,0.2,0.2,0.2s0.2,0,0.4,0h1.1v1.4c-0.1,0-0.3,0.1-0.5,0.1 s-0.5,0.1-0.9,0.1c-0.7,0-1.3-0.1-1.7-0.3c-0.4-0.2-0.7-0.4-0.8-0.8s-0.2-0.7-0.2-1.2v-4.5h-1.3v-1.6h1.4l0.6-2.5h1.7v2.5h1.8v1.7 H175.3z"></path> <path class="st7" d="M178.9,348.6c0,0.4,0.1,0.8,0.2,1.1s0.3,0.6,0.6,0.7c0.3,0.2,0.6,0.3,1,0.3s0.8-0.1,1.1-0.3s0.5-0.5,0.6-0.8 h2.1c-0.1,0.6-0.3,1.1-0.7,1.5s-0.8,0.7-1.4,1s-1.1,0.3-1.7,0.3c-0.8,0-1.5-0.2-2.2-0.5c-0.6-0.3-1.1-0.8-1.5-1.5 c-0.3-0.6-0.5-1.4-0.5-2.2c0-0.8,0.2-1.6,0.5-2.2c0.3-0.7,0.8-1.2,1.4-1.6s1.3-0.6,2.2-0.6c0.8,0,1.6,0.2,2.1,0.5 c0.6,0.4,1,0.8,1.3,1.5c0.3,0.6,0.4,1.4,0.4,2.2v0.6H178.9z M178.9,347.2h3.4c0-0.3-0.1-0.6-0.2-0.9s-0.3-0.5-0.6-0.7 c-0.2-0.2-0.6-0.2-0.9-0.2c-0.4,0-0.7,0.1-0.9,0.3c-0.3,0.2-0.4,0.4-0.6,0.7S178.9,346.9,178.9,347.2z"></path> <path class="st7" d="M189.9,354.9c-1.5,0-2.6-0.2-3.4-0.6s-1.1-0.9-1.1-1.5c0-0.3,0.1-0.5,0.2-0.7s0.3-0.3,0.5-0.5 c0.2-0.1,0.4-0.2,0.6-0.3c0.2-0.1,0.3-0.1,0.3-0.1c-0.1,0-0.2-0.1-0.4-0.2c-0.2-0.1-0.3-0.2-0.4-0.4c-0.1-0.2-0.2-0.4-0.2-0.6 c0-0.3,0.1-0.6,0.4-0.8c0.3-0.2,0.7-0.4,1.3-0.5c-0.5-0.3-1-0.6-1.2-1s-0.4-0.9-0.4-1.3c0-0.5,0.2-1,0.5-1.4s0.8-0.7,1.4-0.9 c0.6-0.2,1.3-0.3,2-0.3c0.6,0,1,0.1,1.4,0.2s0.7,0.3,1,0.5c0.1,0,0.3-0.1,0.5-0.2s0.4-0.2,0.7-0.3c0.2-0.1,0.5-0.2,0.7-0.3 c0.2-0.1,0.4-0.2,0.6-0.3v1.8l-1.4,0.2c0.1,0.1,0.1,0.3,0.1,0.5s0,0.3,0,0.4c0,0.5-0.1,0.9-0.4,1.3s-0.7,0.8-1.3,1 s-1.2,0.4-2.1,0.4c-0.1,0-0.2,0-0.4,0c-0.2,0-0.3,0-0.4,0c-0.3,0-0.5,0.1-0.6,0.1c-0.1,0.1-0.2,0.1-0.2,0.2s0.1,0.2,0.4,0.3 c0.2,0,0.6,0.1,1.1,0.1c0.2,0,0.4,0,0.7,0c0.3,0,0.6,0,1,0.1c1,0.1,1.8,0.3,2.3,0.7c0.5,0.4,0.7,1,0.7,1.6c0,0.8-0.4,1.4-1.1,1.9 C192.5,354.7,191.4,354.9,189.9,354.9z M190.3,353.6c0.7,0,1.1-0.1,1.4-0.2c0.3-0.2,0.4-0.4,0.4-0.7c0-0.3-0.1-0.5-0.3-0.6 s-0.5-0.2-0.9-0.3l-1.9-0.1c-0.2,0-0.5,0-0.7,0.1s-0.3,0.2-0.4,0.4s-0.2,0.3-0.2,0.5c0,0.3,0.2,0.6,0.6,0.8 C188.8,353.5,189.4,353.6,190.3,353.6z M189.9,347.8c0.4,0,0.8-0.1,1.1-0.4c0.3-0.2,0.4-0.6,0.4-1s-0.1-0.8-0.4-1 c-0.3-0.3-0.6-0.4-1.1-0.4c-0.4,0-0.8,0.1-1.1,0.4c-0.3,0.3-0.4,0.6-0.4,1s0.1,0.7,0.4,1S189.4,347.8,189.9,347.8z"></path> <path class="st7" d="M198.5,340.6v2.1h-2.3v-2.1H198.5z M198.5,343.9v8.3h-2.2v-8.3H198.5z"></path> <path class="st7" d="M200.1,352.2v-1.3l4.1-5.3h-3.9V344h6.7v1.3l-4.1,5.3h4.1v1.6H200.1z"></path> <path class="st7" d="M210.4,348.6c0,0.4,0.1,0.8,0.2,1.1s0.3,0.6,0.6,0.7c0.3,0.2,0.6,0.3,1,0.3s0.8-0.1,1.1-0.3s0.5-0.5,0.6-0.8 h2.1c-0.1,0.6-0.3,1.1-0.7,1.5s-0.8,0.7-1.4,1s-1.1,0.3-1.7,0.3c-0.8,0-1.5-0.2-2.2-0.5c-0.6-0.3-1.1-0.8-1.5-1.5 c-0.3-0.6-0.5-1.4-0.5-2.2c0-0.8,0.2-1.6,0.5-2.2c0.3-0.7,0.8-1.2,1.4-1.6s1.3-0.6,2.2-0.6c0.8,0,1.6,0.2,2.1,0.5 c0.6,0.4,1,0.8,1.3,1.5c0.3,0.6,0.4,1.4,0.4,2.2v0.6H210.4z M210.4,347.2h3.4c0-0.3-0.1-0.6-0.2-0.9s-0.3-0.5-0.6-0.7 c-0.2-0.2-0.6-0.2-0.9-0.2c-0.4,0-0.7,0.1-0.9,0.3c-0.3,0.2-0.4,0.4-0.6,0.7S210.4,346.9,210.4,347.2z"></path> </g> </g> <text transform="matrix(1 0 0 1 255.4415 300.44)" class="st29 st30">1</text> <text transform="matrix(1 0 0 1 441.9609 300.4396)" class="st29 st30">6</text> <text transform="matrix(1 0 0 1 255.2413 226.6323)" class="st29 st30">2</text> <text transform="matrix(1 0 0 1 439.5459 226.6327)" class="st29 st30">5</text> <text transform="matrix(1 0 0 1 304.8164 170.1505)" class="st29 st30">3</text> <text transform="matrix(1 0 0 1 388.2832 168.9459)" class="st29 st30">4</text> <g> <g class="st28"> <path class="st7" d="M511,341.2c0-1.2,0.2-2.3,0.7-3.2c0.4-0.9,1.1-1.6,1.9-2.1c0.8-0.5,1.7-0.7,2.8-0.7s2,0.2,2.8,0.7 s1.4,1.2,1.8,2.1c0.4,0.9,0.7,2,0.7,3.2c0,1.1-0.2,2-0.5,2.8s-0.8,1.5-1.5,2c0.1,0.3,0.4,0.6,0.7,0.8c0.3,0.2,0.7,0.3,1.2,0.3v1.9 c-0.5,0-1,0-1.4-0.1s-0.9-0.3-1.3-0.5s-0.8-0.7-1.2-1.3c-0.3,0-0.5,0.1-0.7,0.1s-0.4,0-0.6,0c-1.1,0-2-0.2-2.8-0.7s-1.4-1.1-1.9-2 S511,342.5,511,341.2z M513.6,341.3c0,1.4,0.2,2.4,0.7,3s1.2,0.9,2,0.9c0.9,0,1.6-0.3,2-0.9c0.5-0.6,0.7-1.6,0.7-3.1 c0-1.4-0.2-2.5-0.7-3.1s-1.2-1-2-1c-0.9,0-1.5,0.3-2,1S513.6,339.8,513.6,341.3z"></path> <path class="st7" d="M523,347l4.1-11.6h2.5l4.1,11.6h-2.3l-0.9-2.7h-4.2l-1,2.7H523z M526.9,342.3h3.1l-1.5-4.6L526.9,342.3z"></path> <path class="st7" d="M541,347.2c-0.5,0-1-0.1-1.4-0.3s-0.8-0.5-1-0.9s-0.4-0.8-0.4-1.4c0-0.9,0.3-1.6,1-2.1s1.7-0.7,3.2-0.7h1 v-0.5c0-0.4-0.1-0.7-0.3-0.9c-0.2-0.2-0.6-0.3-1-0.3c-0.3,0-0.7,0.1-1,0.2c-0.3,0.2-0.5,0.4-0.6,0.8h-1.9c0-0.6,0.2-1.1,0.5-1.5 s0.7-0.7,1.3-0.9c0.5-0.2,1.2-0.3,1.8-0.3c0.8,0,1.5,0.1,2,0.3c0.5,0.2,0.9,0.5,1.1,0.9c0.2,0.4,0.3,0.9,0.3,1.4v5.8h-2l-0.2-1.4 c-0.3,0.6-0.6,1-1.1,1.2C542.1,347,541.6,347.2,541,347.2z M541.8,345.6c0.2,0,0.4,0,0.6-0.1c0.2-0.1,0.4-0.2,0.5-0.3 s0.3-0.3,0.4-0.4c0.1-0.2,0.1-0.3,0.1-0.5V343h-0.8c-0.4,0-0.8,0.1-1.1,0.1s-0.6,0.2-0.8,0.4c-0.2,0.2-0.3,0.5-0.3,0.8 c0,0.4,0.1,0.7,0.4,0.9S541.4,345.6,541.8,345.6z"></path> <path class="st7" d="M547.8,347v-8.3h2.3v1.2c0.1-0.2,0.3-0.4,0.5-0.6s0.5-0.3,0.8-0.5c0.3-0.1,0.7-0.2,1.1-0.2 c0.5,0,1,0.1,1.4,0.3c0.4,0.2,0.8,0.5,1.1,0.9s0.4,1,0.4,1.7v5.5h-2.3v-5.2c0-0.4-0.1-0.8-0.4-1c-0.3-0.2-0.6-0.3-1-0.3 c-0.3,0-0.5,0-0.7,0.1s-0.4,0.2-0.6,0.4c-0.1,0.2-0.2,0.4-0.2,0.7v5.3H547.8z"></path> <path class="st7" d="M560.3,347.2c-1.1,0-2-0.4-2.6-1.1c-0.6-0.8-0.9-1.8-0.9-3.2c0-0.9,0.1-1.6,0.4-2.2c0.3-0.6,0.6-1.1,1.1-1.5 c0.5-0.3,1.1-0.5,1.8-0.5c0.3,0,0.6,0,0.8,0.1c0.3,0.1,0.5,0.2,0.7,0.3s0.4,0.3,0.6,0.4c0.2,0.2,0.3,0.3,0.4,0.5v-4.7h2.3V347 h-1.6l-0.3-1.7c-0.1,0.2-0.2,0.5-0.3,0.7s-0.3,0.4-0.5,0.6s-0.5,0.3-0.8,0.4S560.8,347.2,560.3,347.2z M560.9,345.5 c0.6,0,1-0.2,1.3-0.6s0.4-1.1,0.4-2.1c0-0.6-0.1-1-0.2-1.4c-0.1-0.4-0.3-0.7-0.6-0.8s-0.6-0.3-1-0.3c-0.5,0-0.9,0.2-1.3,0.6 s-0.5,1-0.5,1.9s0.2,1.6,0.5,2C559.9,345.3,560.3,345.5,560.9,345.5z"></path> </g> </g> <g> <g class="st28"> <path class="st7" d="M509.2,357.5v-2.1h9.3v2.1h-3.4v9.5h-2.3v-9.5H509.2z"></path> <path class="st7" d="M521.7,363.4c0,0.4,0.1,0.8,0.2,1.1s0.3,0.6,0.6,0.7c0.3,0.2,0.6,0.3,1,0.3s0.8-0.1,1.1-0.3s0.5-0.5,0.6-0.8 h2.1c-0.1,0.6-0.3,1.1-0.7,1.5s-0.8,0.7-1.4,1s-1.1,0.3-1.7,0.3c-0.8,0-1.5-0.2-2.2-0.5c-0.6-0.3-1.1-0.8-1.5-1.5 c-0.3-0.6-0.5-1.4-0.5-2.2c0-0.8,0.2-1.6,0.5-2.2c0.3-0.7,0.8-1.2,1.4-1.6c0.6-0.4,1.3-0.6,2.2-0.6c0.8,0,1.6,0.2,2.1,0.5 c0.6,0.4,1,0.8,1.3,1.5c0.3,0.6,0.4,1.4,0.4,2.2v0.6H521.7z M521.7,362h3.4c0-0.3-0.1-0.6-0.2-0.9c-0.1-0.3-0.3-0.5-0.6-0.7 c-0.2-0.2-0.6-0.2-0.9-0.2c-0.4,0-0.7,0.1-0.9,0.3c-0.3,0.2-0.4,0.4-0.6,0.7S521.7,361.7,521.7,362z"></path> <path class="st7" d="M532.1,367.2c-0.6,0-1.1-0.1-1.7-0.3s-1-0.5-1.4-0.9s-0.6-0.9-0.7-1.6h2c0.1,0.3,0.2,0.5,0.4,0.7 s0.4,0.3,0.6,0.4s0.5,0.1,0.7,0.1c0.4,0,0.8-0.1,1.1-0.2s0.4-0.4,0.4-0.7c0-0.2-0.1-0.4-0.2-0.5c-0.2-0.1-0.4-0.2-0.8-0.3 l-1.5-0.3c-0.7-0.2-1.3-0.4-1.8-0.8c-0.4-0.4-0.7-0.9-0.7-1.6c0-0.5,0.1-0.9,0.4-1.3c0.3-0.4,0.7-0.7,1.2-0.9 c0.5-0.2,1.2-0.3,1.9-0.3c1,0,1.8,0.2,2.4,0.7c0.6,0.4,0.9,1.1,0.9,1.9h-2c-0.1-0.3-0.2-0.6-0.5-0.7c-0.3-0.2-0.6-0.3-1-0.3 s-0.7,0.1-1,0.2s-0.4,0.4-0.4,0.7c0,0.2,0.1,0.4,0.3,0.5s0.5,0.2,1,0.3l1.3,0.3c0.5,0.1,0.8,0.3,1.1,0.5s0.5,0.4,0.7,0.6 s0.3,0.5,0.3,0.7c0.1,0.2,0.1,0.4,0.1,0.6c0,0.5-0.1,1-0.4,1.4s-0.7,0.7-1.2,0.9C533.4,367.1,532.8,367.2,532.1,367.2z"></path> <path class="st7" d="M542.3,360.3h-1.8v4.4c0,0.2,0,0.4,0.1,0.5s0.1,0.2,0.2,0.2c0.1,0,0.2,0,0.4,0h1.1v1.4 c-0.1,0-0.3,0.1-0.5,0.1s-0.5,0.1-0.9,0.1c-0.7,0-1.3-0.1-1.7-0.3c-0.4-0.2-0.7-0.4-0.8-0.8s-0.2-0.7-0.2-1.2v-4.5h-1.3v-1.6h1.4 l0.6-2.5h1.7v2.5h1.8L542.3,360.3L542.3,360.3z"></path> <path class="st7" d="M546.4,355.4v2.1h-2.3v-2.1H546.4z M546.4,358.7v8.3h-2.2v-8.3H546.4z"></path> <path class="st7" d="M548.5,367v-8.3h2.3v1.2c0.1-0.2,0.3-0.4,0.5-0.6s0.5-0.3,0.8-0.5c0.3-0.1,0.7-0.2,1.1-0.2 c0.5,0,1,0.1,1.4,0.3c0.4,0.2,0.8,0.5,1.1,0.9s0.4,1,0.4,1.7v5.5h-2.3v-5.2c0-0.4-0.1-0.8-0.4-1c-0.3-0.2-0.6-0.3-1-0.3 c-0.3,0-0.5,0-0.7,0.1s-0.4,0.2-0.6,0.4c-0.1,0.2-0.2,0.4-0.2,0.7v5.3H548.5z"></path> <path class="st7" d="M561.8,369.7c-1.5,0-2.6-0.2-3.4-0.6c-0.8-0.4-1.1-0.9-1.1-1.5c0-0.3,0.1-0.5,0.2-0.7 c0.1-0.2,0.3-0.3,0.5-0.5c0.2-0.1,0.4-0.2,0.6-0.3c0.2-0.1,0.3-0.1,0.3-0.1c-0.1,0-0.2-0.1-0.4-0.2s-0.3-0.2-0.4-0.4 c-0.1-0.2-0.2-0.4-0.2-0.6c0-0.3,0.1-0.6,0.4-0.8c0.3-0.2,0.7-0.4,1.3-0.5c-0.5-0.3-1-0.6-1.2-1s-0.4-0.9-0.4-1.3 c0-0.5,0.2-1,0.5-1.4s0.8-0.7,1.4-0.9c0.6-0.2,1.3-0.3,2-0.3c0.6,0,1,0.1,1.4,0.2s0.7,0.3,1,0.5c0.1,0,0.3-0.1,0.5-0.2 s0.4-0.2,0.7-0.3c0.2-0.1,0.5-0.2,0.7-0.3c0.2-0.1,0.4-0.2,0.6-0.3v1.8l-1.4,0.2c0.1,0.1,0.1,0.3,0.1,0.5s0,0.3,0,0.4 c0,0.5-0.1,0.9-0.4,1.3c-0.3,0.4-0.7,0.8-1.3,1s-1.2,0.4-2.1,0.4c-0.1,0-0.2,0-0.4,0s-0.3,0-0.4,0c-0.3,0-0.5,0.1-0.6,0.1 c-0.1,0.1-0.2,0.1-0.2,0.2s0.1,0.2,0.4,0.3c0.2,0,0.6,0.1,1.1,0.1c0.2,0,0.4,0,0.7,0s0.6,0,1,0.1c1,0.1,1.8,0.3,2.3,0.7 c0.5,0.4,0.7,1,0.7,1.6c0,0.8-0.4,1.4-1.1,1.9C564.4,369.5,563.3,369.7,561.8,369.7z M562.2,368.4c0.7,0,1.1-0.1,1.4-0.2 c0.3-0.2,0.4-0.4,0.4-0.7c0-0.3-0.1-0.5-0.3-0.6s-0.5-0.2-0.9-0.3l-1.9-0.1c-0.2,0-0.5,0-0.7,0.1s-0.3,0.2-0.4,0.4 s-0.2,0.3-0.2,0.5c0,0.3,0.2,0.6,0.6,0.8C560.6,368.3,561.3,368.4,562.2,368.4z M561.7,362.6c0.4,0,0.8-0.1,1.1-0.4 c0.3-0.2,0.4-0.6,0.4-1s-0.1-0.8-0.4-1c-0.3-0.3-0.6-0.4-1.1-0.4c-0.4,0-0.8,0.1-1.1,0.4s-0.4,0.6-0.4,1s0.1,0.7,0.4,1 S561.3,362.6,561.7,362.6z"></path> </g> </g> <g> <g class="st28"> <path class="st7" d="M156,204.3c0,0.9-0.2,1.7-0.5,2.4s-0.8,1.2-1.5,1.6c-0.7,0.4-1.6,0.6-2.7,0.6s-2-0.2-2.7-0.6 s-1.2-0.9-1.5-1.6s-0.5-1.5-0.5-2.5v-7.1h2.4v7.3c0,0.9,0.2,1.5,0.6,1.9s1,0.6,1.6,0.6c0.4,0,0.8-0.1,1.2-0.3 c0.3-0.2,0.6-0.4,0.8-0.8s0.3-0.8,0.3-1.4v-7.3h2.4v7.2H156z"></path> <path class="st7" d="M158.3,197.2h2.3v11.6h-2.3V197.2z"></path> <path class="st7" d="M162.1,209.1l4-11.9h1.6l-4,11.9H162.1z"></path> <path class="st7" d="M178.6,204.3c0,0.9-0.2,1.7-0.5,2.4s-0.8,1.2-1.5,1.6c-0.7,0.4-1.6,0.6-2.7,0.6s-2-0.2-2.7-0.6 s-1.2-0.9-1.5-1.6s-0.5-1.5-0.5-2.5v-7.1h2.4v7.3c0,0.9,0.2,1.5,0.6,1.9s1,0.6,1.6,0.6c0.4,0,0.8-0.1,1.2-0.3 c0.3-0.2,0.6-0.4,0.8-0.8s0.3-0.8,0.3-1.4v-7.3h2.4v7.2H178.6z"></path> <path class="st7" d="M190.7,208.8h-2.9l-2.6-4.2l-2.6,4.2h-2.5l3.8-5.9l-3.7-5.7h2.9l2.3,3.7l2.3-3.7h2.5l-3.6,5.4L190.7,208.8z"></path> </g> </g> <g> <g class="st28"> <path class="st7" d="M519.8,198c0.1,0,0.2,0,0.5,0s0.6,0,1,0s0.7,0,1.1,0c0.4,0,0.7,0,0.9,0c1.4,0,2.5,0.3,3.4,0.8s1.5,1.1,1.9,2 c0.4,0.8,0.6,1.8,0.6,3s-0.2,2.2-0.7,3.1c-0.4,0.9-1.1,1.5-2,2s-2,0.7-3.4,0.7h-3.4V198H519.8z M522.1,199.9v7.8h1.1 c0.7,0,1.3-0.1,1.8-0.4c0.5-0.3,1-0.7,1.3-1.3s0.5-1.4,0.5-2.3c0-0.9-0.1-1.6-0.4-2.2s-0.7-1-1.2-1.2c-0.5-0.3-1.2-0.4-1.9-0.4 L522.1,199.9L522.1,199.9z"></path> <path class="st7" d="M532.9,206c0,0.4,0.1,0.8,0.2,1.1s0.3,0.6,0.6,0.7c0.3,0.2,0.6,0.3,1,0.3s0.8-0.1,1.1-0.3s0.5-0.5,0.6-0.8 h2.1c-0.1,0.6-0.3,1.1-0.7,1.5s-0.8,0.7-1.4,1s-1.1,0.3-1.7,0.3c-0.8,0-1.5-0.2-2.2-0.5c-0.6-0.3-1.1-0.8-1.5-1.5 c-0.3-0.6-0.5-1.4-0.5-2.2s0.2-1.6,0.5-2.2c0.3-0.7,0.8-1.2,1.4-1.6c0.6-0.4,1.3-0.6,2.2-0.6c0.8,0,1.6,0.2,2.1,0.5 c0.6,0.4,1,0.8,1.3,1.5c0.3,0.6,0.4,1.4,0.4,2.2v0.6H532.9z M532.9,204.6h3.4c0-0.3-0.1-0.6-0.2-0.9c-0.1-0.3-0.3-0.5-0.6-0.7 c-0.2-0.2-0.6-0.2-0.9-0.2c-0.4,0-0.7,0.1-0.9,0.3c-0.3,0.2-0.4,0.4-0.6,0.7S532.9,204.3,532.9,204.6z"></path> <path class="st7" d="M547.2,201.3l-3.1,8.3h-1.7l-3.1-8.3h2.1l1.8,5.3h0.1l1.8-5.3H547.2z"></path> <path class="st7" d="M553.5,209.7c-1.1,0-2-0.2-2.8-0.7s-1.4-1.2-1.8-2s-0.7-1.9-0.7-3.2c0-1.2,0.2-2.3,0.7-3.2 c0.4-0.9,1.1-1.6,1.9-2.1c0.8-0.5,1.7-0.7,2.8-0.7s2,0.2,2.8,0.7s1.4,1.2,1.8,2.1s0.7,2,0.7,3.2s-0.2,2.3-0.6,3.2 c-0.4,0.9-1,1.6-1.8,2C555.5,209.5,554.6,209.7,553.5,209.7z M553.5,207.8c0.6,0,1.1-0.1,1.5-0.4c0.4-0.3,0.7-0.7,1-1.3 c0.2-0.6,0.3-1.3,0.3-2.3s-0.1-1.7-0.3-2.3s-0.5-1-1-1.3c-0.4-0.3-0.9-0.4-1.5-0.4s-1,0.1-1.5,0.4c-0.4,0.3-0.7,0.7-1,1.3 c-0.2,0.6-0.3,1.4-0.3,2.3c0,0.9,0.1,1.7,0.3,2.3s0.6,1,1,1.3S553,207.8,553.5,207.8z"></path> <path class="st7" d="M560.6,212.1v-10.8h2.3v1.2c0.1-0.2,0.3-0.4,0.5-0.5c0.2-0.2,0.4-0.3,0.6-0.4s0.5-0.2,0.7-0.3 c0.3-0.1,0.5-0.1,0.8-0.1c0.6,0,1.2,0.2,1.6,0.5c0.5,0.3,0.9,0.8,1.1,1.4c0.3,0.6,0.4,1.4,0.4,2.4s-0.1,1.8-0.4,2.5 c-0.3,0.6-0.7,1.1-1.2,1.4c-0.5,0.3-1.1,0.5-1.8,0.5c-0.3,0-0.5,0-0.8-0.1c-0.2-0.1-0.5-0.2-0.7-0.3s-0.4-0.3-0.5-0.4 s-0.3-0.4-0.4-0.5v3.8h-2.2V212.1z M564.7,208c0.5,0,0.9-0.2,1.3-0.6c0.3-0.4,0.5-1.1,0.5-2c0-0.8-0.2-1.4-0.5-1.9 s-0.8-0.7-1.3-0.7c-0.6,0-1.1,0.2-1.3,0.7c-0.3,0.5-0.4,1.1-0.4,1.8c0,0.5,0.1,0.9,0.2,1.3c0.1,0.4,0.3,0.7,0.6,1 S564.3,208,564.7,208z"></path> <path class="st7" d="M573.5,209.7c-0.6,0-1.1-0.1-1.7-0.3s-1-0.5-1.4-0.9s-0.6-0.9-0.7-1.6h2c0.1,0.3,0.2,0.5,0.4,0.7 s0.4,0.3,0.6,0.4s0.5,0.1,0.7,0.1c0.4,0,0.8-0.1,1.1-0.2c0.3-0.1,0.4-0.4,0.4-0.7c0-0.2-0.1-0.4-0.2-0.5c-0.2-0.1-0.4-0.2-0.8-0.3 l-1.5-0.3c-0.7-0.2-1.3-0.4-1.8-0.8c-0.4-0.4-0.7-0.9-0.7-1.6c0-0.5,0.1-0.9,0.4-1.3c0.3-0.4,0.7-0.7,1.2-0.9s1.2-0.3,1.9-0.3 c1,0,1.8,0.2,2.4,0.7c0.6,0.4,0.9,1.1,0.9,1.9h-2c-0.1-0.3-0.2-0.6-0.5-0.7c-0.3-0.2-0.6-0.3-1-0.3s-0.7,0.1-1,0.2 c-0.3,0.1-0.4,0.4-0.4,0.7c0,0.2,0.1,0.4,0.3,0.5s0.5,0.2,1,0.3l1.3,0.3c0.5,0.1,0.8,0.3,1.1,0.5s0.5,0.4,0.7,0.6 c0.2,0.2,0.3,0.5,0.3,0.7c0.1,0.2,0.1,0.4,0.1,0.6c0,0.5-0.1,1-0.4,1.4s-0.7,0.7-1.2,0.9C574.8,209.6,574.2,209.7,573.5,209.7z"></path> </g> </g> <g> <g class="st28"> <path class="st7" d="M223.3,80.8c0.1,0,0.2,0,0.5,0s0.6,0,1,0s0.7,0,1.1,0s0.7,0,0.9,0c1.4,0,2.5,0.3,3.4,0.8s1.5,1.1,1.9,2 c0.4,0.8,0.6,1.8,0.6,3s-0.2,2.2-0.7,3.1c-0.4,0.9-1.1,1.5-2,2s-2,0.7-3.4,0.7h-3.3V80.8z M225.7,82.7v7.8h1.1 c0.7,0,1.3-0.1,1.8-0.4s1-0.7,1.3-1.3c0.3-0.6,0.5-1.4,0.5-2.3s-0.1-1.6-0.4-2.2s-0.7-1-1.2-1.2c-0.5-0.3-1.2-0.4-1.9-0.4H225.7z"></path> <path class="st7" d="M236.4,88.7c0,0.4,0.1,0.8,0.2,1.1s0.3,0.6,0.6,0.7c0.3,0.2,0.6,0.3,1,0.3s0.8-0.1,1.1-0.3s0.5-0.5,0.6-0.8 h2.1c-0.1,0.6-0.3,1.1-0.7,1.5s-0.8,0.7-1.4,1s-1.1,0.3-1.7,0.3c-0.8,0-1.5-0.2-2.2-0.5c-0.6-0.3-1.1-0.8-1.5-1.5 c-0.3-0.6-0.5-1.4-0.5-2.2c0-0.8,0.2-1.6,0.5-2.2c0.3-0.7,0.8-1.2,1.4-1.6s1.3-0.6,2.2-0.6c0.8,0,1.6,0.2,2.1,0.5 c0.6,0.4,1,0.8,1.3,1.5c0.3,0.6,0.4,1.4,0.4,2.2v0.6H236.4z M236.4,87.3h3.4c0-0.3-0.1-0.6-0.2-0.9s-0.3-0.5-0.6-0.7 c-0.2-0.2-0.6-0.2-0.9-0.2c-0.4,0-0.7,0.1-0.9,0.3c-0.3,0.2-0.4,0.4-0.6,0.7S236.4,87,236.4,87.3z"></path> <path class="st7" d="M250.7,84.1l-3.1,8.3h-1.7l-3.1-8.3h2.1l1.8,5.3h0.1l1.8-5.3H250.7z"></path> <path class="st7" d="M253.9,88.7c0,0.4,0.1,0.8,0.2,1.1s0.3,0.6,0.6,0.7c0.3,0.2,0.6,0.3,1,0.3s0.8-0.1,1.1-0.3s0.5-0.5,0.6-0.8 h2.1c-0.1,0.6-0.3,1.1-0.7,1.5s-0.8,0.7-1.4,1s-1.1,0.3-1.7,0.3c-0.8,0-1.5-0.2-2.2-0.5c-0.6-0.3-1.1-0.8-1.5-1.5 c-0.3-0.6-0.5-1.4-0.5-2.2c0-0.8,0.2-1.6,0.5-2.2c0.3-0.7,0.8-1.2,1.4-1.6s1.3-0.6,2.2-0.6c0.8,0,1.6,0.2,2.1,0.5 c0.6,0.4,1,0.8,1.3,1.5c0.3,0.6,0.4,1.4,0.4,2.2v0.6H253.9z M253.9,87.3h3.4c0-0.3-0.1-0.6-0.2-0.9s-0.3-0.5-0.6-0.7 c-0.2-0.2-0.6-0.2-0.9-0.2c-0.4,0-0.7,0.1-0.9,0.3c-0.3,0.2-0.4,0.4-0.6,0.7S253.9,87,253.9,87.3z"></path> <path class="st7" d="M263.7,92.5c-0.6,0-1.1-0.1-1.4-0.2c-0.4-0.1-0.6-0.3-0.8-0.6c-0.2-0.2-0.3-0.5-0.3-0.8s-0.1-0.6-0.1-0.9 v-9.6h2.3v9.3c0,0.3,0.1,0.6,0.2,0.7s0.4,0.3,0.7,0.3h0.4v1.4c-0.2,0.1-0.3,0.1-0.5,0.1S263.8,92.5,263.7,92.5z"></path> <path class="st7" d="M269.8,92.5c-0.8,0-1.5-0.2-2.1-0.5s-1.1-0.8-1.4-1.5s-0.5-1.4-0.5-2.3s0.2-1.6,0.5-2.3 c0.3-0.7,0.8-1.2,1.4-1.5c0.6-0.4,1.3-0.5,2.1-0.5s1.5,0.2,2.1,0.5c0.6,0.4,1.1,0.9,1.4,1.5s0.5,1.4,0.5,2.3 c0,0.8-0.2,1.6-0.5,2.2s-0.8,1.1-1.4,1.5C271.4,92.3,270.6,92.5,269.8,92.5z M269.8,90.8c0.4,0,0.7-0.1,1-0.4 c0.3-0.2,0.4-0.6,0.5-0.9c0.1-0.4,0.2-0.8,0.2-1.3c0-0.4-0.1-0.9-0.2-1.2c-0.1-0.4-0.3-0.7-0.5-0.9c-0.3-0.2-0.6-0.4-1-0.4 s-0.7,0.1-1,0.3s-0.4,0.5-0.6,0.9c-0.1,0.4-0.2,0.8-0.2,1.3c0,0.4,0.1,0.8,0.2,1.2c0.1,0.4,0.3,0.7,0.5,1 C269,90.6,269.4,90.8,269.8,90.8z"></path> <path class="st7" d="M275.3,94.9V84.1h2.3v1.2c0.1-0.2,0.3-0.4,0.5-0.5c0.2-0.2,0.4-0.3,0.6-0.4s0.5-0.2,0.7-0.3 c0.3-0.1,0.5-0.1,0.8-0.1c0.6,0,1.2,0.2,1.6,0.5c0.5,0.3,0.9,0.8,1.1,1.4c0.3,0.6,0.4,1.4,0.4,2.4s-0.1,1.8-0.4,2.5 c-0.3,0.6-0.7,1.1-1.2,1.4s-1.1,0.5-1.8,0.5c-0.3,0-0.5,0-0.8-0.1c-0.2-0.1-0.5-0.2-0.7-0.3c-0.2-0.1-0.4-0.3-0.5-0.4 s-0.3-0.4-0.4-0.5v3.8h-2.2V94.9z M279.5,90.8c0.5,0,0.9-0.2,1.3-0.6c0.3-0.4,0.5-1.1,0.5-2c0-0.8-0.2-1.4-0.5-1.9 s-0.8-0.7-1.3-0.7c-0.6,0-1.1,0.2-1.3,0.7c-0.3,0.5-0.4,1.1-0.4,1.8c0,0.5,0.1,0.9,0.2,1.3c0.1,0.4,0.3,0.7,0.6,1 S279.1,90.8,279.5,90.8z"></path> <path class="st7" d="M285,92.3V84h2.3v1.2c0.3-0.4,0.6-0.7,1-0.9c0.4-0.3,1-0.4,1.6-0.4c0.3,0,0.6,0.1,0.9,0.2 c0.3,0.1,0.6,0.2,0.8,0.4c0.3,0.2,0.5,0.4,0.6,0.7c0.3-0.4,0.6-0.7,1.1-0.9c0.4-0.3,0.9-0.4,1.5-0.4c0.3,0,0.6,0.1,0.9,0.2 c0.3,0.1,0.6,0.3,0.9,0.5s0.5,0.5,0.6,0.9c0.2,0.4,0.2,0.9,0.2,1.4v5.5h-2.3v-5.2c0-0.3-0.1-0.6-0.2-0.8s-0.3-0.3-0.5-0.4 s-0.4-0.1-0.6-0.1c-0.2,0-0.4,0-0.6,0.1c-0.2,0.1-0.4,0.2-0.5,0.4s-0.2,0.4-0.2,0.7v5.3h-2.3V87c0-0.3-0.1-0.5-0.2-0.6 s-0.3-0.3-0.5-0.4s-0.4-0.1-0.6-0.1c-0.2,0-0.4,0-0.6,0.1c-0.2,0.1-0.4,0.2-0.5,0.4c-0.1,0.2-0.2,0.4-0.2,0.7v5.3L285,92.3 L285,92.3z"></path> <path class="st7" d="M301.2,88.7c0,0.4,0.1,0.8,0.2,1.1s0.3,0.6,0.6,0.7c0.3,0.2,0.6,0.3,1,0.3s0.8-0.1,1.1-0.3s0.5-0.5,0.6-0.8 h2.1c-0.1,0.6-0.3,1.1-0.7,1.5s-0.8,0.7-1.4,1s-1.1,0.3-1.7,0.3c-0.8,0-1.5-0.2-2.2-0.5c-0.6-0.3-1.1-0.8-1.5-1.5 c-0.3-0.6-0.5-1.4-0.5-2.2c0-0.8,0.2-1.6,0.5-2.2c0.3-0.7,0.8-1.2,1.4-1.6c0.6-0.4,1.3-0.6,2.2-0.6c0.8,0,1.6,0.2,2.1,0.5 c0.6,0.4,1,0.8,1.3,1.5c0.3,0.6,0.4,1.4,0.4,2.2v0.6H301.2z M301.2,87.3h3.4c0-0.3-0.1-0.6-0.2-0.9c-0.1-0.3-0.3-0.5-0.6-0.7 c-0.2-0.2-0.6-0.2-0.9-0.2c-0.4,0-0.7,0.1-0.9,0.3c-0.3,0.2-0.4,0.4-0.6,0.7S301.2,87,301.2,87.3z"></path> <path class="st7" d="M308.4,92.3V84h2.3v1.2c0.1-0.2,0.3-0.4,0.5-0.6s0.5-0.3,0.8-0.5c0.3-0.1,0.7-0.2,1.1-0.2 c0.5,0,1,0.1,1.4,0.3c0.4,0.2,0.8,0.5,1.1,0.9s0.4,1,0.4,1.7v5.5h-2.3v-5.2c0-0.4-0.1-0.8-0.4-1c-0.3-0.2-0.6-0.3-1-0.3 c-0.3,0-0.5,0-0.7,0.1s-0.4,0.2-0.6,0.4c-0.1,0.2-0.2,0.4-0.2,0.7v5.3H308.4z"></path> <path class="st7" d="M323,85.7h-1.8v4.4c0,0.2,0,0.4,0.1,0.5s0.1,0.2,0.2,0.2c0.1,0,0.2,0,0.4,0h1.1v1.4c-0.1,0-0.3,0.1-0.5,0.1 s-0.5,0.1-0.9,0.1c-0.7,0-1.3-0.1-1.7-0.3c-0.4-0.2-0.7-0.4-0.8-0.8s-0.2-0.7-0.2-1.2v-4.5h-1.3V84h1.4l0.6-2.5h1.7V84h1.8 L323,85.7L323,85.7z"></path> </g> </g> <g> <g class="st28"> <path class="st7" d="M394,93.1V81.6h4.3c0.8,0,1.6,0.1,2.3,0.4s1.2,0.7,1.6,1.3s0.6,1.3,0.6,2.1c0,0.8-0.2,1.4-0.5,2 c-0.3,0.5-0.8,1-1.4,1.3c-0.6,0.3-1.3,0.4-2.2,0.4h-2.2v4.1H394V93.1z M396.3,87.2h2.2c0.6,0,1.1-0.2,1.4-0.6 c0.4-0.4,0.6-0.8,0.6-1.4s-0.2-1-0.6-1.4c-0.4-0.3-0.9-0.5-1.4-0.5h-2.2V87.2z"></path> <path class="st7" d="M404.2,93.1v-8.3h2.2v2c0.1-0.4,0.3-0.8,0.6-1.1c0.2-0.3,0.5-0.6,0.9-0.7s0.7-0.3,1.2-0.3c0.1,0,0.1,0,0.2,0 c0.1,0,0.1,0,0.1,0V87c0,0-0.1,0-0.2,0c-0.1,0-0.1,0-0.2,0c-0.5,0-0.9,0-1.2,0c-0.3,0.1-0.6,0.2-0.8,0.3c-0.2,0.2-0.3,0.3-0.4,0.6 c-0.1,0.2-0.1,0.5-0.1,0.8v4.5h-2.3V93.1z"></path> <path class="st7" d="M414.2,93.3c-0.8,0-1.5-0.2-2.1-0.5s-1.1-0.8-1.4-1.5s-0.5-1.4-0.5-2.3s0.2-1.6,0.5-2.3 c0.3-0.7,0.8-1.2,1.4-1.5c0.6-0.4,1.3-0.5,2.1-0.5s1.5,0.2,2.1,0.5c0.6,0.4,1.1,0.9,1.4,1.5c0.3,0.6,0.5,1.4,0.5,2.3 c0,0.8-0.2,1.6-0.5,2.2s-0.8,1.1-1.4,1.5C415.8,93.1,415.1,93.3,414.2,93.3z M414.2,91.6c0.4,0,0.7-0.1,1-0.4 c0.3-0.2,0.4-0.6,0.5-0.9c0.1-0.4,0.2-0.8,0.2-1.3c0-0.4-0.1-0.9-0.2-1.2c-0.1-0.4-0.3-0.7-0.5-0.9c-0.3-0.2-0.6-0.4-1-0.4 s-0.7,0.1-1,0.3c-0.3,0.2-0.4,0.5-0.6,0.9s-0.2,0.8-0.2,1.3c0,0.4,0.1,0.8,0.2,1.2c0.1,0.4,0.3,0.7,0.5,1 C413.4,91.4,413.8,91.6,414.2,91.6z"></path> <path class="st7" d="M424.8,86.5H423v4.4c0,0.2,0,0.4,0.1,0.5s0.1,0.2,0.2,0.2s0.2,0,0.4,0h1.1V93c-0.1,0-0.3,0.1-0.5,0.1 s-0.5,0.1-0.9,0.1c-0.7,0-1.3-0.1-1.7-0.3c-0.4-0.2-0.7-0.4-0.8-0.8c-0.2-0.3-0.2-0.7-0.2-1.2v-4.5h-1.4v-1.6h1.4l0.6-2.5h1.7v2.5 h1.8V86.5z"></path> <path class="st7" d="M430.1,93.3c-0.8,0-1.5-0.2-2.1-0.5s-1.1-0.8-1.4-1.5s-0.5-1.4-0.5-2.3s0.2-1.6,0.5-2.3 c0.3-0.7,0.8-1.2,1.4-1.5c0.6-0.4,1.3-0.5,2.1-0.5s1.5,0.2,2.1,0.5c0.6,0.4,1.1,0.9,1.4,1.5c0.3,0.6,0.5,1.4,0.5,2.3 c0,0.8-0.2,1.6-0.5,2.2s-0.8,1.1-1.4,1.5C431.6,93.1,430.9,93.3,430.1,93.3z M430.1,91.6c0.4,0,0.7-0.1,1-0.4 c0.3-0.2,0.4-0.6,0.5-0.9c0.1-0.4,0.2-0.8,0.2-1.3c0-0.4-0.1-0.9-0.2-1.2c-0.1-0.4-0.3-0.7-0.5-0.9c-0.3-0.2-0.6-0.4-1-0.4 s-0.7,0.1-1,0.3c-0.3,0.2-0.4,0.5-0.6,0.9c-0.1,0.4-0.2,0.8-0.2,1.3c0,0.4,0.1,0.8,0.2,1.2s0.3,0.7,0.5,1 C429.3,91.4,429.6,91.6,430.1,91.6z"></path> <path class="st7" d="M440.7,86.5h-1.8v4.4c0,0.2,0,0.4,0.1,0.5s0.1,0.2,0.2,0.2s0.2,0,0.4,0h1.1V93c-0.1,0-0.3,0.1-0.5,0.1 s-0.5,0.1-0.9,0.1c-0.7,0-1.3-0.1-1.7-0.3c-0.4-0.2-0.7-0.4-0.8-0.8c-0.2-0.3-0.2-0.7-0.2-1.2v-4.5h-1.3v-1.6h1.4l0.6-2.5h1.7v2.5 h1.8L440.7,86.5L440.7,86.5z"></path> <path class="st7" d="M443.7,95.8c-0.6,0-1.1-0.1-1.5-0.3V94h0.8c0.4,0,0.6,0,0.9-0.1c0.2-0.1,0.4-0.1,0.5-0.2s0.2-0.2,0.2-0.3 s0.1-0.2,0.1-0.2l0.2-0.5l-3.2-7.9h2.3l2,5.4l2-5.4h2.3l-3.4,8.3c-0.3,0.7-0.6,1.2-0.9,1.6s-0.7,0.6-1,0.8S444.1,95.8,443.7,95.8z "></path> <path class="st7" d="M451.4,95.7V84.9h2.3v1.2c0.1-0.2,0.3-0.4,0.5-0.5c0.2-0.2,0.4-0.3,0.6-0.4s0.5-0.2,0.7-0.3s0.5-0.1,0.8-0.1 c0.6,0,1.2,0.2,1.6,0.5c0.5,0.3,0.9,0.8,1.1,1.4s0.4,1.4,0.4,2.4s-0.1,1.8-0.4,2.5c-0.3,0.6-0.7,1.1-1.2,1.4s-1.1,0.5-1.8,0.5 c-0.3,0-0.5,0-0.8-0.1c-0.2-0.1-0.5-0.2-0.7-0.3s-0.4-0.3-0.5-0.4s-0.3-0.4-0.4-0.5V96h-2.2V95.7z M455.5,91.6 c0.5,0,0.9-0.2,1.3-0.6c0.3-0.4,0.5-1.1,0.5-2c0-0.8-0.2-1.4-0.5-1.9s-0.8-0.7-1.3-0.7c-0.6,0-1.1,0.2-1.3,0.7s-0.4,1.1-0.4,1.8 c0,0.5,0.1,0.9,0.2,1.3c0.1,0.4,0.3,0.7,0.6,1C454.8,91.5,455.1,91.6,455.5,91.6z"></path> <path class="st7" d="M463,89.5c0,0.4,0.1,0.8,0.2,1.1s0.3,0.6,0.6,0.7s0.6,0.3,1,0.3s0.8-0.1,1.1-0.3c0.3-0.2,0.5-0.5,0.6-0.8h2.1 c-0.1,0.6-0.3,1.1-0.7,1.5s-0.8,0.7-1.4,1s-1.1,0.3-1.7,0.3c-0.8,0-1.5-0.2-2.2-0.5c-0.6-0.3-1.1-0.8-1.5-1.5 c-0.3-0.6-0.5-1.4-0.5-2.2c0-0.8,0.2-1.6,0.5-2.2c0.3-0.7,0.8-1.2,1.4-1.6c0.6-0.4,1.3-0.6,2.2-0.6c0.8,0,1.5,0.2,2.1,0.5 c0.6,0.4,1,0.8,1.3,1.5c0.3,0.6,0.4,1.4,0.4,2.2v0.6H463z M463,88.1h3.4c0-0.3-0.1-0.6-0.2-0.9c-0.1-0.3-0.3-0.5-0.6-0.7 c-0.2-0.2-0.6-0.2-0.9-0.2c-0.4,0-0.7,0.1-0.9,0.3c-0.3,0.2-0.4,0.4-0.6,0.7C463,87.6,463,87.8,463,88.1z"></path> </g> </g> <g> <path class="st7" d="M178.4,297.5h-8.9c-0.3,0-0.6,0.3-0.6,0.6v1.1h-3.3c-1.3,0-2.3,1-2.3,2.3v22.2c0,1.3,1,2.3,2.3,2.3h16.7 c1.3,0,2.3-1,2.3-2.3v-22.2c0-1.3-1-2.3-2.3-2.3h-3.2v-1.1C178.9,297.8,178.7,297.5,178.4,297.5z M170,298.7h7.7v2.5H170V298.7z M182.2,300.4c0.6,0,1.1,0.5,1.1,1.1v22.2c0,0.6-0.5,1.1-1.1,1.1h-16.7c-0.6,0-1.1-0.5-1.1-1.1v-22.2c0-0.6,0.5-1.1,1.1-1.1h3.3 v0.8H168c-0.3,0-0.6,0.3-0.6,0.6c0,0.3,0.3,0.6,0.6,0.6h1.4h8.9h1.4c0.3,0,0.6-0.3,0.6-0.6c0-0.3-0.3-0.6-0.6-0.6h-0.8v-0.8H182.2z "></path> <path class="st7" d="M167.1,313.2c0.1,0.1,0.3,0.2,0.4,0.2s0.3-0.1,0.4-0.2l1-1l1,1c0.1,0.1,0.3,0.2,0.4,0.2s0.3-0.1,0.4-0.2 c0.2-0.2,0.2-0.6,0-0.8l-1-1l1-1c0.2-0.2,0.2-0.6,0-0.8s-0.6-0.2-0.8,0l-1,1l-1-1c-0.2-0.2-0.6-0.2-0.8,0s-0.2,0.6,0,0.8l1,1l-1,1 C166.8,312.6,166.8,313,167.1,313.2z"></path> <path class="st7" d="M179.8,315.6l-1,1l-1-1c-0.2-0.2-0.6-0.2-0.8,0s-0.2,0.6,0,0.8l1,1l-1,1c-0.2,0.2-0.2,0.6,0,0.8 c0.1,0.1,0.3,0.2,0.4,0.2s0.3-0.1,0.4-0.2l1-1l1,1c0.1,0.1,0.3,0.2,0.4,0.2s0.3-0.1,0.4-0.2c0.2-0.2,0.2-0.6,0-0.8l-1-1l1-1 c0.2-0.2,0.2-0.6,0-0.8C180.4,315.4,180.1,315.4,179.8,315.6z"></path> <path class="st7" d="M177.6,309.6l1.2,1.2c0.1,0.1,0.3,0.2,0.4,0.2s0.3-0.1,0.4-0.2c0.2-0.2,0.2-0.6,0-0.8l-2.1-2.1c0,0,0,0-0.1,0 c0,0-0.1,0-0.1-0.1h-0.1c0,0,0,0-0.1,0l0,0l0,0H177h-0.1c0,0-0.1,0-0.1,0.1c0,0,0,0-0.1,0l0,0l-2.1,2.1c-0.2,0.2-0.2,0.6,0,0.8 s0.6,0.2,0.8,0l0.9-0.9l-0.1,0.7c-0.2,2-1.7,3.6-3.6,4l-1.3,0.3c-2.3,0.5-4,2.2-4.5,4.5c-0.1,0.3,0.1,0.6,0.5,0.7h0.1 c0.3,0,0.5-0.2,0.6-0.5c0.3-1.8,1.7-3.2,3.5-3.6l1.3-0.3c2.4-0.5,4.3-2.5,4.5-5L177.6,309.6z"></path> <path class="st7" d="M172.3,317.5c-1.2,0-2.2,1-2.2,2.2s1,2.2,2.2,2.2s2.2-1,2.2-2.2S173.5,317.5,172.3,317.5z M172.3,320.7 c-0.5,0-1-0.5-1-1s0.5-1,1-1s1,0.5,1,1S172.9,320.7,172.3,320.7z"></path> </g> <g> <g> <g> <path class="st7" d="M152.2,179h26.4l0,0c0.4,0,0.6-0.3,0.6-0.6c0-0.2-0.1-0.4-0.3-0.5l-26.3-26.3c-0.2-0.2-0.5-0.2-0.7-0.1 c-0.2,0.1-0.4,0.3-0.4,0.6v26.4C151.6,178.7,151.8,179,152.2,179z M177,177.7h-4.5v-1.4c0-0.4-0.3-0.6-0.6-0.6s-0.6,0.3-0.6,0.6 v1.4h-3.4v-2.2c0-0.4-0.3-0.6-0.6-0.6c-0.4,0-0.6,0.3-0.6,0.6v2.2h-3.4v-1.4c0-0.4-0.3-0.6-0.6-0.6s-0.6,0.3-0.6,0.6v1.4h-3.4 v-2.2c0-0.4-0.3-0.6-0.6-0.6s-0.6,0.3-0.6,0.6v2.2h-4.2v-4.6h2.2c0.4,0,0.6-0.3,0.6-0.6s-0.3-0.6-0.6-0.6h-2.2v-3.4h1.4 c0.4,0,0.6-0.3,0.6-0.6s-0.3-0.6-0.6-0.6h-1.4v-3.4h2.2c0.4,0,0.6-0.3,0.6-0.6c0-0.4-0.3-0.6-0.6-0.6h-2.2V159h1.4 c0.4,0,0.6-0.3,0.6-0.6c0-0.4-0.3-0.6-0.6-0.6h-1.4v-4.1L177,177.7z"></path> <path class="st7" d="M159.2,172.8h6.7l0,0c0.4,0,0.6-0.3,0.6-0.6c0-0.2-0.1-0.4-0.3-0.5l-6.7-6.7c-0.2-0.2-0.5-0.2-0.7-0.1 c-0.2,0.1-0.4,0.3-0.4,0.6v6.7C158.5,172.6,158.8,172.8,159.2,172.8z M159.8,167l4.5,4.6h-4.5V167z"></path> <path class="st7" d="M178.1,165.1L178.1,165.1c0-0.1,0-0.1-0.1-0.1l0,0c0,0,0-0.1-0.1-0.1l0,0l0,0l-11.2-11.7l-0.1-0.1l-0.1-0.1 l-0.9-1c-0.5-0.5-1.2-0.8-1.9-0.8c-0.7,0-1.4,0.3-1.9,0.8l-0.9,0.8c-1.1,1.1-1.1,2.8,0,3.8l12.4,12.8l0,0l0,0l0.1,0.1l0,0h0.1 l0,0l5,1.3c0,0,0.1,0,0.2,0l0,0c0.4,0,0.6-0.3,0.6-0.6c0-0.1,0-0.2,0-0.2L178.1,165.1z M173.7,168.1l-10.4-10.8l2.9-2.8 l10.4,10.8l-1.4,1.4L173.7,168.1z M161.8,153.7l0.9-0.8c0.3-0.3,0.6-0.4,1-0.4s0.8,0.1,1,0.4l0.6,0.6l-2.9,2.8l-0.6-0.6 C161.2,155.2,161.2,154.3,161.8,153.7z M174.9,168.7l0.4-0.4l1.8-1.7l0.7,2.9L174.9,168.7z"></path> <path class="st7" d="M173.7,164.4l-7.1-7.5c-0.2-0.3-0.6-0.3-0.9,0s-0.3,0.6,0,0.9l7.1,7.5c0.1,0.1,0.3,0.2,0.5,0.2 s0.3-0.1,0.4-0.2C173.9,165,173.9,164.6,173.7,164.4z"></path> </g> </g> </g> <g> <path class="st7" d="M290.6,55v-4.3l-2.4-0.2c-0.2-0.7-0.5-1.5-0.9-2.1l1.5-1.8l-3-3l-1.8,1.5c-0.7-0.4-1.4-0.7-2.2-0.9l-0.2-2.4 h-2.5v-0.7c0-1.5-1.2-2.7-2.7-2.7l0,0h-11.9c-1.5,0-2.7,1.2-2.7,2.7v23.5c0,1.5,1.2,2.7,2.7,2.7h11.9c1.5,0,2.7-1.2,2.7-2.7V64h2.5 l0.2-2.4c0.8-0.2,1.5-0.5,2.2-0.9l1.8,1.5l3-3l-1.5-1.8c0.4-0.7,0.7-1.4,0.9-2.1L290.6,55z M279.1,48.5h0.3c2.5,0,4.4,2,4.4,4.4 s-2,4.4-4.4,4.4h-0.3V48.5z M277.8,60.4h-14.7V43.7h14.7V60.4z M264.5,39.7h11.9c0.8,0,1.4,0.6,1.4,1.4v1.3h-14.7v-1.3 C263.1,40.3,263.8,39.7,264.5,39.7z M276.4,66h-11.9c-0.8,0-1.4-0.6-1.4-1.4v-2.9h14.7v2.9C277.8,65.4,277.2,66,276.4,66z M287.1,54l-0.1,0.5c-0.2,0.9-0.6,1.8-1.1,2.6l-0.3,0.4l1.4,1.7l-1.3,1.3l-1.6-1.4l-0.4,0.3c-0.8,0.5-1.7,0.9-2.6,1.1l-0.5,0.1 l-0.2,2.2h-1.2v-4h0.3c3.2,0,5.8-2.6,5.8-5.8s-2.6-5.8-5.8-5.8l0,0h-0.3v-4h1.2l0.2,2.2l0.5,0.1c0.9,0.2,1.8,0.6,2.6,1.1l0.4,0.3 l1.6-1.4l1.3,1.3l-1.4,1.7l0.3,0.4c0.5,0.8,0.9,1.7,1.1,2.6l0.1,0.5l2.2,0.2V54L287.1,54z"></path> </g> <g> <path class="st7" d="M444.2,41.7h-11.8c-0.2-1-0.8-1.8-1.6-2.3v-2.2c0-0.6-0.5-1.1-1.1-1.1h-1.2c-0.6,0-1.1,0.5-1.1,1.1v2.2 c-0.9,0.5-1.5,1.4-1.6,2.3h-8.4v-2.2c0-0.6-0.5-1.1-1.1-1.1h-1.1c-1.2,0-2.2,1-2.2,2.2v24.6l0,0l0,0c0.1,1.2,1.1,2.2,2.3,2.2h29 c0.6,0,1.1-0.5,1.1-1.1V42.8C445.4,42.2,444.9,41.7,444.2,41.7z M433.3,50.2C433.3,50.3,433.3,50.3,433.3,50.2l1.2,3.2 c-0.1,0-0.1,0-0.2,0c-0.1,0-0.1,0-0.2,0c-0.1,0-0.2,0.1-0.3,0.1s-0.1,0-0.2,0.1l0,0l-3.2-8.4c0.3-0.1,0.5-0.3,0.7-0.4L433.3,50.2z M433.9,55c0.1-0.1,0.2-0.2,0.3-0.2l0,0c0.2-0.1,0.4-0.2,0.7-0.2l0,0c0.1,0,0.2,0,0.3,0.1l0,0c0.6,0.2,0.8,0.9,0.6,1.4l0,0 c-0.2,0.4-0.6,0.7-1,0.7h-0.1l0,0c-0.6-0.1-1-0.6-1-1.2C433.6,55.3,433.7,55.1,433.9,55L433.9,55z M435.4,57.8 c0.1,0,0.3-0.1,0.4-0.2c0,0,0,0,0.1,0s0.2-0.1,0.3-0.2l0,0l0.2,0.6l-0.2,1.8L435.4,57.8L435.4,57.8z M422.1,59.6l-0.2-1.7l3-7.7 l0,0l2.1-5.4c0.2,0.2,0.5,0.3,0.8,0.4l-1.8,4.5l0,0L422.1,59.6z M428.9,45.6c0.2,0,0.3,0,0.4,0l1.5,3.9h-3.5L428.9,45.6z M429.7,37.2v1.7c0,0,0,0-0.1,0c-0.2,0-0.3,0-0.5,0l0,0c-0.2,0-0.3,0-0.5,0c0,0,0,0-0.1,0v-1.7H429.7z M428.3,40.2 c0.6-0.2,1.2-0.2,1.8,0c0.8,0.4,1.3,1.2,1.3,2c0,1.1-0.7,2-1.8,2.2c-1.2,0.3-2.4-0.5-2.7-1.7c0-0.2,0-0.3,0-0.5 C426.9,41.3,427.4,40.5,428.3,40.2z M415.2,39.4h1.1v2.8l0,0v20.7h-1.1c-0.1,0-0.3,0-0.4,0c-0.1,0-0.1,0-0.2,0h-0.1 c-0.2,0-0.3,0.1-0.5,0.2V40.5C414.1,39.9,414.5,39.4,415.2,39.4z M444.2,66.3h-29c-0.6,0-1.2-0.5-1.2-1.1s0.5-1.1,1.1-1.1h1.1 c0.6,0,1.1-0.5,1.1-1.1V42.8h8.4c0.1,0.4,0.2,0.8,0.4,1.1l-2.2,5.6h-1.6c0-0.6-0.5-1.1-1.1-1.1h-1.1c-0.6,0-1.1,0.5-1.1,1.1v1.1 c0,0.6,0.5,1.1,1.1,1.1h1.1c0.6,0,1.1-0.5,1.1-1.1h1.2l-2.8,7.1c0,0.1,0,0.2,0,0.3l0.6,3.9l0,0l0,0c0,0,0,0.1,0.1,0.1l0,0l0.1,0.1 l0,0c0.7,0.4,1.4,0.7,2.1,0.9c0.1,0,0.1,0,0.2,0c0.3,0,0.6-0.2,0.6-0.6c0-0.2-0.2-0.5-0.4-0.5c-0.5-0.2-1-0.4-1.5-0.6l4.3-10.9h4.4 l1.5,3.9c-0.6,1.1-0.2,2.4,0.8,3c0.2,0.1,0.3,0.2,0.5,0.2l1.6,3.8c-0.5,0.2-1,0.4-1.5,0.6c-0.3,0.1-0.5,0.4-0.4,0.7 c0.1,0.2,0.3,0.4,0.5,0.4c0.1,0,0.1,0,0.2,0c0.7-0.2,1.4-0.5,2.1-0.9l0,0l0.1-0.1l0,0c0,0,0.1-0.1,0.1-0.2l0,0c0,0,0,0,0-0.1 l0.6-3.9c0-0.1,0-0.2,0-0.3l-0.6-1.4c0.1-0.2,0.1-0.4,0.1-0.6c0-0.8-0.4-1.6-1.2-2l-1.2-3.1h1.2c0,0.6,0.5,1.1,1.1,1.1h1.1 c0.6,0,1.1-0.5,1.1-1.1v-1.1c0-0.6-0.5-1.1-1.1-1.1h-1.1c-0.6,0-1.1,0.5-1.1,1.1h-1.7l-2.2-5.6c0.2-0.3,0.3-0.7,0.4-1.1h11.8 L444.2,66.3L444.2,66.3z M421.3,50.6h-1.1v-1.1h1.1V50.6z M437,49.5h1.1v1.1H437V49.5z"></path> <path class="st7" d="M420.3,60.2l-1-0.6c-0.3-0.2-0.6-0.1-0.8,0.2s-0.1,0.6,0.2,0.8l0,0l1,0.6c0.3,0.2,0.6,0.1,0.8-0.2 S420.6,60.4,420.3,60.2z"></path> <path class="st7" d="M428.1,62.9c-0.7,0-1.4-0.1-2.1-0.2c-0.3-0.1-0.6,0.1-0.7,0.5c-0.1,0.3,0.1,0.6,0.5,0.7l0,0 c0.7,0.1,1.5,0.2,2.2,0.3l0,0c0.3,0,0.6-0.2,0.6-0.5S428.4,62.9,428.1,62.9L428.1,62.9z"></path> <path class="st7" d="M432.3,62.6c-0.7,0.1-1.4,0.2-2.1,0.2c-0.3,0-0.5,0.3-0.5,0.6s0.3,0.5,0.6,0.5l0,0c0.7,0,1.5-0.1,2.2-0.3 c0.3-0.1,0.5-0.3,0.5-0.7C432.8,62.8,432.5,62.6,432.3,62.6L432.3,62.6z"></path> <path class="st7" d="M438.9,59.6l-1,0.6c-0.3,0.2-0.3,0.5-0.2,0.8s0.5,0.3,0.8,0.2l1-0.6c0.3-0.2,0.3-0.5,0.2-0.8 C439.5,59.6,439.2,59.5,438.9,59.6z"></path> </g> <g> <g> <path class="st7" d="M554.8,181.6h-25.4c-0.8,0-1.5-0.7-1.5-1.5v-21.7c0-0.8,0.7-1.5,1.5-1.5h3.5c0.4,0,0.8,0.4,0.8,0.8 s-0.4,0.8-0.8,0.8h-3.4v21.6h25.2v-3.4c0-0.4,0.4-0.8,0.8-0.8s0.8,0.4,0.8,0.8v3.5C556.3,180.9,555.6,181.6,554.8,181.6z"></path> <g> <path class="st7" d="M532.8,163.2h-3.6c-0.4,0-0.8-0.4-0.8-0.8s0.4-0.8,0.8-0.8h3.6c0.4,0,0.8,0.4,0.8,0.8 S533.3,163.2,532.8,163.2z"></path> </g> </g> <g> <g> <path class="st7" d="M558.6,177.3H534c-1.1,0-1.9-0.9-1.9-1.9v-20.9c0-1.1,0.9-1.9,1.9-1.9h24.6c1.1,0,1.9,0.9,1.9,1.9v20.9 C560.5,176.5,559.7,177.3,558.6,177.3z M534,154.2c-0.2,0-0.3,0.1-0.3,0.3v20.9c0,0.2,0.1,0.3,0.3,0.3h24.6 c0.2,0,0.3-0.1,0.3-0.3v-20.9c0-0.2-0.1-0.3-0.3-0.3H534L534,154.2z"></path> <g> <path class="st7" d="M559.7,159h-26.3c-0.4,0-0.8-0.4-0.8-0.8s0.4-0.8,0.8-0.8h26.3c0.4,0,0.8,0.4,0.8,0.8S560.2,159,559.7,159z "></path> </g> <g> <path class="st7" d="M537.8,156.5h-1.9c-0.4,0-0.8-0.4-0.8-0.8s0.4-0.8,0.8-0.8h1.9c0.4,0,0.8,0.4,0.8,0.8 S538.3,156.5,537.8,156.5z"></path> </g> <g> <path class="st7" d="M542.3,156.5h-2c-0.4,0-0.8-0.4-0.8-0.8s0.4-0.8,0.8-0.8h1.9c0.4,0,0.8,0.4,0.8,0.8 S542.7,156.5,542.3,156.5z"></path> </g> </g> <g> <path class="st7" d="M539.2,167.1l4.2,1.7l-0.3,0.9l-5.1-2.2v-0.9l5.1-2.2l0.3,0.9L539.2,167.1z"></path> <path class="st7" d="M544.9,172.9h-1.1l4-11.4h1.1L544.9,172.9z"></path> <path class="st7" d="M549.2,165.4l0.3-0.9l5.1,2.2v0.9l-5.1,2.2l-0.3-0.9l4.2-1.7L549.2,165.4z"></path> </g> </g> </g> <g> <path class="st7" d="M539.7,293.4h-14.4l0,0h-0.1c0,0,0,0-0.1,0c0,0-0.1,0-0.1,0.1l0,0l-2.6,2.6l-2.2,2.2c0,0-0.1,0.1-0.1,0.2l0,0 c0,0.1,0,0.1,0,0.2l0,0v22.6c0,0.3,0.3,0.6,0.6,0.6h19.2h0.1c0.2,0,0.4,0,0.6,0c3.5,0,6.4-2.9,6.4-6.4s-2.8-6.4-6.4-6.4h-0.1V294 C540.3,293.6,540.1,293.4,539.7,293.4z M524.7,295.4v2.7H522l1.8-1.8L524.7,295.4z M521.1,320.8v-21.4h4.2c0.3,0,0.6-0.3,0.6-0.6 v-4.2h13.3v14.8c-2.9,0.6-5,3.2-5,6.2c0,2.1,1,4,2.7,5.2H521.1z M545.6,315.6c0,2.9-2.3,5.2-5.2,5.2s-5.2-2.3-5.2-5.2 s2.3-5.2,5.2-5.2S545.6,312.7,545.6,315.6z"></path> <path class="st7" d="M528.2,298.1h9c0.3,0,0.6-0.3,0.6-0.6s-0.3-0.6-0.6-0.6h-9c-0.3,0-0.6,0.3-0.6,0.6S527.8,298.1,528.2,298.1z"></path> <path class="st7" d="M528.2,301h9c0.3,0,0.6-0.3,0.6-0.6s-0.3-0.6-0.6-0.6h-9c-0.3,0-0.6,0.3-0.6,0.6S527.8,301,528.2,301z"></path> <path class="st7" d="M523,304h14.2c0.3,0,0.6-0.3,0.6-0.6s-0.3-0.6-0.6-0.6H523c-0.3,0-0.6,0.3-0.6,0.6S522.7,304,523,304z"></path> <path class="st7" d="M523,307h14.2c0.3,0,0.6-0.3,0.6-0.6s-0.3-0.6-0.6-0.6H523c-0.3,0-0.6,0.3-0.6,0.6S522.7,307,523,307z"></path> <path class="st7" d="M538.9,317.7c0.1,0.1,0.3,0.2,0.4,0.2s0.3-0.1,0.4-0.2l3.4-3.4c0.2-0.2,0.2-0.6,0-0.8s-0.6-0.2-0.8,0l-3,3 l-0.8-0.8c-0.2-0.2-0.6-0.2-0.8,0s-0.2,0.6,0,0.8L538.9,317.7z"></path> <path class="st7" d="M532.5,312.7c-0.1,0-0.2,0-0.2,0h-2.4c-0.3,0-0.6,0.3-0.6,0.6s0.3,0.6,0.6,0.6h0.9l-3.1,3.1l-1.8-1.8 c-0.2-0.2-0.6-0.2-0.8,0l-2.7,2.6c-0.2,0.2-0.2,0.6,0,0.8c0.1,0.1,0.3,0.2,0.4,0.2c0.2,0,0.3-0.1,0.4-0.2l2.2-2.2l1.8,1.8 c0.2,0.2,0.6,0.2,0.8,0l3.5-3.5v0.9c0,0.3,0.3,0.6,0.6,0.6s0.6-0.3,0.6-0.6v-2.4c0-0.1,0-0.1,0-0.2S532.6,312.7,532.5,312.7z"></path> </g> </svg> 