<?xml version="1.0" encoding="UTF-8"?> <!-- Generator: Adobe Illustrator 25.1.0, SVG Export Plug-In . SVG Version: 6.00 Build 0) --> <svg xmlns="http://www.w3.org/2000/svg" xmlns:xlink="http://www.w3.org/1999/xlink" version="1.1" id="Layer_1" x="0px" y="0px" viewBox="0 0 48 48" style="enable-background:new 0 0 48 48;" xml:space="preserve"> <style type="text/css"> .st0{fill:#9E0A51;} </style> <g transform="translate(0,-952.36218)"> <path class="st0" d="M6.3,952.2c-1.8,0-3.3,1.5-3.3,3.3v38.2c0,1.8,1.5,3.3,3.3,3.3h17.9v0.5c0,1.6,1.3,2.9,2.9,2.9h14.6 c1.6,0,2.9-1.3,2.9-2.9V966c0-1.6-1.3-2.9-2.9-2.9H34v-7.5c0-1.8-1.5-3.3-3.3-3.3L6.3,952.2L6.3,952.2z M6.3,954.4h24.4 c0.6,0,1.1,0.5,1.1,1.1v2H5.2v-2C5.2,954.9,5.7,954.4,6.3,954.4z M5.2,959.7h26.6v3.3h-4.7c-1.6,0-2.9,1.3-2.9,2.9v21.3h-19 C5.2,987.2,5.2,959.7,5.2,959.7z M27.1,965.2h14.6c0.4,0,0.7,0.3,0.7,0.7v1.5h-16v-1.5C26.4,965.5,26.7,965.2,27.1,965.2z M26.4,969.5h16v22.4h-16C26.4,991.9,26.4,969.5,26.4,969.5z M5.2,989.4h19v5.4H6.3c-0.6,0-1.1-0.5-1.1-1.1 C5.2,993.7,5.2,989.4,5.2,989.4z M18.5,990.6c-0.8,0-1.5,0.6-1.5,1.4c0,0.8,0.7,1.4,1.5,1.4s1.5-0.6,1.5-1.4 C20,991.3,19.3,990.6,18.5,990.6z M26.4,994.1h16v3.3c0,0.4-0.3,0.7-0.7,0.7H27.1c-0.4,0-0.7-0.3-0.7-0.7V994.1z M34.4,994.9 c-0.7,0-1.2,0.5-1.2,1.2s0.5,1.2,1.2,1.2s1.2-0.5,1.2-1.2S35,994.9,34.4,994.9z"></path> </g> </svg> 