<?xml version="1.0" encoding="UTF-8"?> <svg xmlns="http://www.w3.org/2000/svg" xmlns:xlink="http://www.w3.org/1999/xlink" width="60pt" height="60pt" viewBox="0 0 60 60" version="1.1"><g id="surface1"><path style=" stroke:none;fill-rule:nonzero;fill:rgb(0%,0%,0%);fill-opacity:1;" d="M 29.613281 0.164062 L 31.210938 3.175781 C 31.574219 3.726562 31.960938 4.226562 32.425781 4.675781 C 33.773438 6 35.023438 7.425781 36.1875 8.925781 C 38.898438 12.488281 40.726562 16.4375 42.039062 20.726562 C 42.824219 23.335938 43.25 26.023438 43.273438 28.726562 C 43.398438 36.824219 40.625 43.789062 35.023438 49.574219 C 34.113281 50.488281 33.125 51.335938 32.085938 52.085938 C 31.539062 52.085938 31.273438 51.664062 31.039062 51.273438 C 30.625 50.550781 30.335938 49.75 30.226562 48.925781 C 30.023438 47.949219 29.898438 46.960938 29.960938 45.949219 L 29.960938 45.488281 C 29.898438 45.386719 29.414062 0.398438 29.613281 0.164062 Z M 29.613281 0.164062 "></path><path style=" stroke:none;fill-rule:nonzero;fill:rgb(20%,20%,20%);fill-opacity:1;" d="M 29.613281 0.0625 C 29.550781 -0.0625 29.488281 0.0234375 29.414062 0.101562 C 29.449219 0.75 29.210938 1.335938 28.863281 1.898438 C 28.476562 2.449219 27.949219 2.875 27.425781 3.335938 C 24.523438 5.851562 22.238281 8.886719 20.398438 12.289062 C 17.960938 16.863281 16.710938 21.761719 16.351562 26.925781 C 16.1875 28.789062 16.9375 35.351562 17.523438 37.25 C 19.125 42.289062 22 46.5 25.726562 50.164062 C 26.636719 51.039062 27.613281 51.863281 28.625 52.648438 C 28.925781 52.648438 28.949219 52.386719 29.011719 52.1875 C 29.136719 51.773438 29.238281 51.351562 29.3125 50.914062 L 29.960938 46.011719 Z M 29.613281 0.0625 "></path><path style=" stroke:none;fill-rule:nonzero;fill:rgb(13.72549%,13.72549%,13.72549%);fill-opacity:1;" d="M 31.210938 54.074219 C 31.273438 53.324219 31.636719 52.699219 32.023438 52.085938 C 31.636719 51.925781 31.335938 51.601562 31.113281 51.238281 C 30.914062 50.898438 30.75 50.539062 30.625 50.164062 C 30.164062 48.789062 30.074219 47.351562 29.9375 45.949219 L 29.9375 45.101562 C 29.773438 45.226562 29.738281 46.335938 29.738281 46.5 C 29.636719 47.988281 29.449219 49.449219 29.148438 50.914062 C 29.050781 51.5 28.988281 52.085938 28.625 52.613281 C 28.625 52.675781 28.625 52.738281 28.664062 52.835938 C 29.25 54.574219 29.414062 56.335938 29.511719 58.136719 L 29.511719 58.789062 C 29.511719 59.574219 29.476562 59.398438 30.125 59.664062 C 30.386719 59.761719 30.675781 59.789062 30.9375 59.988281 C 31.136719 59.988281 31.164062 59.824219 31.164062 59.6875 L 31.0625 58.613281 L 31.0625 55.625 C 31.039062 55.101562 31.136719 54.574219 31.210938 54.074219 Z M 31.210938 54.074219 "></path></g></svg> 