<?xml version="1.0" encoding="UTF-8"?> <svg xmlns="http://www.w3.org/2000/svg" xmlns:xlink="http://www.w3.org/1999/xlink" width="60pt" height="60pt" viewBox="0 0 60 60" version="1.1"><g id="surface1"><path style=" stroke:none;fill-rule:nonzero;fill:rgb(0%,0%,0%);fill-opacity:1;" d="M -0.0390625 42.375 L 1.9375 42.375 L 1.9375 34.550781 L 5.039062 41.363281 C 5.375 42.175781 5.886719 42.488281 6.875 42.488281 C 7.863281 42.488281 8.300781 42.175781 8.675781 41.363281 L 11.738281 34.550781 L 11.738281 42.375 L 13.710938 42.375 L 13.710938 34.550781 C 13.710938 33.800781 13.398438 33.425781 12.761719 33.226562 C 11.261719 32.789062 10.25 33.164062 9.800781 34.175781 L 6.800781 40.914062 L 3.875 34.175781 C 3.4375 33.148438 2.414062 32.773438 0.914062 33.226562 C 0.261719 33.425781 -0.0390625 33.773438 -0.0390625 34.550781 Z M -0.0390625 42.375 "></path><path style=" stroke:none;fill-rule:nonzero;fill:rgb(0%,0%,0%);fill-opacity:1;" d="M 15.335938 36.011719 L 17.3125 36.011719 L 17.3125 40.300781 C 17.3125 40.539062 17.375 41.085938 18.476562 41.113281 C 19.050781 41.113281 22.761719 41.113281 22.800781 41.113281 L 22.800781 35.976562 L 24.773438 35.976562 C 24.773438 35.976562 24.773438 42.988281 24.773438 43.023438 C 24.773438 44.761719 22.625 45.136719 21.648438 45.136719 L 15.425781 45.136719 L 15.425781 43.8125 L 21.6875 43.8125 C 22.949219 43.675781 22.8125 43.023438 22.8125 42.824219 L 22.8125 42.3125 L 18.585938 42.3125 C 16.613281 42.3125 15.351562 41.425781 15.351562 40.4375 C 15.335938 40.335938 15.414062 36.050781 15.335938 36.011719 Z M 15.335938 36.011719 "></path><path style=" stroke:none;fill-rule:nonzero;fill:rgb(0%,0%,0%);fill-opacity:1;" d="M 58.023438 31.011719 C 56.800781 30.976562 55.875 31.113281 55.0625 31.425781 C 54.824219 31.523438 54.488281 31.523438 54.449219 31.800781 C 54.585938 31.9375 54.585938 32.113281 54.6875 32.273438 C 54.863281 32.585938 55.199219 32.988281 55.476562 33.199219 C 55.789062 33.4375 56.125 33.675781 56.460938 33.914062 C 57.039062 34.289062 57.726562 34.488281 58.300781 34.863281 C 58.636719 35.0625 58.976562 35.335938 59.289062 35.574219 C 59.460938 35.710938 59.5625 35.886719 59.761719 35.988281 L 59.761719 35.949219 C 59.664062 35.8125 59.625 35.613281 59.523438 35.476562 C 59.386719 35.335938 59.210938 35.199219 59.085938 35.039062 C 58.648438 34.460938 58.101562 33.914062 57.523438 33.5 C 57.050781 33.164062 55.960938 32.710938 55.789062 32.136719 C 55.789062 32.136719 55.789062 32.136719 55.75 32.101562 C 56.085938 32.0625 56.460938 31.960938 56.800781 31.863281 C 57.3125 31.726562 57.789062 31.761719 58.335938 31.625 C 58.574219 31.5625 58.8125 31.488281 59.050781 31.425781 C 59.050781 31.386719 59.050781 31.324219 59.050781 31.289062 C 58.773438 31.011719 58.574219 30.636719 58.300781 30.398438 C 57.511719 29.726562 56.664062 29.074219 55.789062 28.523438 C 55.3125 28.210938 54.699219 28.011719 54.226562 27.773438 C 54.050781 27.675781 53.75 27.636719 53.648438 27.5 C 53.375 27.164062 53.210938 26.710938 53.039062 26.335938 C 52.601562 25.488281 52.1875 24.5625 51.773438 23.6875 C 51.5 23.113281 51.335938 22.5 50.988281 21.949219 C 49.425781 19.363281 47.726562 17.800781 45.101562 16.261719 C 44.523438 15.949219 43.875 15.824219 43.164062 15.648438 C 42.789062 15.648438 42.414062 15.613281 42.039062 15.585938 C 41.800781 15.488281 41.5625 15.175781 41.324219 15.039062 C 40.476562 14.488281 38.226562 13.300781 37.585938 14.863281 C 37.175781 15.851562 38.199219 16.835938 38.539062 17.3125 C 38.8125 17.648438 39.113281 18.0625 39.324219 18.4375 C 39.425781 18.710938 39.460938 18.988281 39.5625 19.25 C 39.800781 19.925781 40.039062 20.648438 40.351562 21.289062 C 40.523438 21.601562 40.6875 21.9375 40.925781 22.238281 C 41.0625 22.414062 41.261719 22.476562 41.300781 22.75 C 41.101562 23.0625 41.0625 23.5 40.960938 23.875 C 40.414062 25.574219 40.625 27.726562 41.398438 28.976562 C 41.636719 29.351562 42.210938 30.199219 43 29.863281 C 43.675781 29.585938 43.550781 28.738281 43.710938 27.960938 C 43.75 27.789062 43.710938 27.648438 43.8125 27.550781 L 43.8125 27.585938 C 44.011719 28 44.226562 28.4375 44.425781 28.851562 C 44.898438 29.601562 45.710938 30.386719 46.398438 30.886719 C 46.773438 31.164062 47.050781 31.636719 47.523438 31.8125 L 47.523438 31.773438 C 47.523438 31.773438 47.523438 31.773438 47.488281 31.773438 C 47.386719 31.636719 47.25 31.574219 47.148438 31.460938 C 46.875 31.1875 46.574219 30.851562 46.363281 30.539062 C 45.710938 29.6875 45.175781 28.738281 44.664062 27.773438 C 44.425781 27.300781 44.226562 26.789062 44.011719 26.3125 C 43.914062 26.136719 43.914062 25.875 43.773438 25.761719 C 43.539062 26.101562 43.199219 26.375 43.0625 26.789062 C 42.789062 27.4375 42.75 28.25 42.648438 29.0625 C 42.585938 29.0625 42.613281 29.0625 42.585938 29.101562 C 42.113281 28.960938 41.9375 28.488281 41.738281 28.050781 C 41.300781 26.960938 41.1875 25.226562 41.601562 24 C 41.699219 23.6875 42.175781 22.675781 41.976562 22.363281 C 41.875 22.085938 41.5625 21.925781 41.398438 21.6875 C 41.199219 21.414062 40.988281 21.039062 40.851562 20.699219 C 40.476562 19.851562 40.300781 18.898438 39.898438 18.050781 C 39.726562 17.636719 39.386719 17.238281 39.148438 16.886719 C 38.875 16.476562 38.539062 16.175781 38.300781 15.699219 C 38.238281 15.523438 38.125 15.261719 38.238281 15.085938 C 38.273438 14.949219 38.335938 14.914062 38.4375 14.886719 C 38.636719 14.710938 39.1875 14.925781 39.386719 15.023438 C 39.960938 15.261719 40.414062 15.460938 40.886719 15.773438 C 41.085938 15.914062 41.324219 16.210938 41.601562 16.289062 C 41.699219 16.289062 41.800781 16.289062 41.914062 16.289062 C 42.386719 16.386719 42.9375 16.324219 43.414062 16.460938 C 44.226562 16.738281 44.949219 17.113281 45.585938 17.511719 C 47.5625 18.773438 49.226562 20.574219 50.3125 22.726562 C 50.488281 23.0625 50.585938 23.398438 50.726562 23.75 C 51.039062 24.5 51.4375 25.25 51.75 26 C 52.0625 26.710938 52.363281 27.425781 52.835938 28.039062 C 53.074219 28.351562 53.960938 28.511719 54.398438 28.6875 C 54.710938 28.824219 55.1875 28.960938 55.449219 29.101562 C 55.960938 29.414062 56.476562 29.773438 56.988281 30.125 C 57.199219 30.324219 57.988281 30.699219 58.023438 31.011719 Z M 58.023438 31.011719 "></path><path style=" stroke:none;fill-rule:nonzero;fill:rgb(0%,0%,0%);fill-opacity:1;" d="M 42.539062 17.835938 C 42.261719 17.835938 42.101562 17.875 41.925781 17.898438 C 41.925781 17.898438 41.925781 17.898438 41.925781 17.9375 C 41.925781 17.9375 41.925781 17.9375 41.960938 17.9375 C 42.101562 18.175781 42.300781 18.351562 42.4375 18.550781 C 42.574219 18.789062 42.675781 19.023438 42.773438 19.261719 L 42.8125 19.226562 C 43.011719 19.085938 43.125 18.8125 43.125 18.476562 C 43.023438 18.375 43.023438 18.273438 42.949219 18.164062 C 42.835938 18.011719 42.636719 17.9375 42.539062 17.835938 Z M 42.539062 17.835938 "></path><path style=" stroke:none;fill-rule:nonzero;fill:rgb(0%,0%,0%);fill-opacity:1;" d="M 26.300781 42.375 L 32.011719 42.375 C 32.6875 42.375 33.300781 42.238281 33.851562 42 C 34.699219 41.585938 35.113281 41.074219 35.113281 40.363281 L 35.113281 38.898438 C 35.113281 38.324219 34.636719 37.8125 33.710938 37.4375 C 33.238281 37.261719 32.625 37.164062 32.011719 37.164062 L 29.625 37.164062 C 28.8125 37.164062 28.4375 36.925781 28.335938 36.375 C 28.335938 36.3125 28.335938 36.238281 28.335938 36.199219 L 28.335938 35.3125 C 28.335938 35.273438 28.335938 35.210938 28.335938 35.136719 C 28.4375 34.726562 28.648438 34.625 29.363281 34.5625 C 29.425781 34.5625 29.5 34.5625 29.539062 34.5625 L 35.1875 34.5625 L 35.1875 33.238281 L 29.636719 33.238281 C 28.824219 33.238281 28.414062 33.273438 28.039062 33.414062 C 26.875 33.789062 26.335938 34.363281 26.335938 35.386719 L 26.335938 36.476562 C 26.335938 37.363281 27.324219 38.136719 29.023438 38.3125 C 29.199219 38.3125 29.398438 38.3125 29.601562 38.3125 L 31.636719 38.3125 C 31.699219 38.3125 31.773438 38.3125 31.835938 38.3125 C 32.449219 38.375 32.726562 38.488281 32.925781 38.726562 C 33.0625 38.863281 33.0625 38.960938 33.0625 39.101562 L 33.0625 40.261719 C 33.0625 40.398438 32.960938 40.574219 32.789062 40.738281 C 32.613281 40.914062 32.3125 41.011719 31.9375 41.011719 C 31.875 41.011719 31.800781 41.011719 31.738281 41.011719 L 26.289062 41.011719 L 26.289062 42.375 Z M 26.300781 42.375 "></path><path style=" stroke:none;fill-rule:nonzero;fill:rgb(0%,0%,0%);fill-opacity:1;" d="M 47.476562 40.0625 C 47.476562 41.425781 48.5 42.175781 50.539062 42.3125 C 50.738281 42.3125 50.914062 42.351562 51.113281 42.351562 L 56.289062 42.351562 L 56.289062 41.023438 L 51.074219 41.023438 C 49.914062 41.023438 49.476562 40.75 49.476562 40.039062 L 49.476562 33.226562 L 47.5 33.226562 Z M 47.476562 40.0625 "></path><path style=" stroke:none;fill-rule:nonzero;fill:rgb(0%,0%,0%);fill-opacity:1;" d="M 36.375 40.136719 L 36.375 35.4375 C 36.375 34.25 37.226562 33.5 38.886719 33.289062 C 39.0625 33.289062 39.261719 33.25 39.4375 33.25 L 43.210938 33.25 C 43.414062 33.25 43.585938 33.25 43.789062 33.289062 C 45.449219 33.523438 46.273438 34.238281 46.273438 35.4375 L 46.273438 40.136719 C 46.273438 41.125 45.9375 41.636719 45.113281 41.976562 L 47.050781 43.75 L 44.773438 43.75 L 43.210938 42.324219 L 41.613281 42.425781 L 39.5 42.425781 C 39.164062 42.425781 38.75 42.386719 38.335938 42.289062 C 36.988281 41.898438 36.375 41.226562 36.375 40.136719 Z M 38.511719 40.023438 C 38.511719 40.085938 38.550781 40.164062 38.550781 40.226562 C 38.648438 40.773438 39.164062 41.074219 39.949219 41.074219 L 41.75 41.074219 L 40.113281 39.574219 L 42.386719 39.574219 L 43.8125 40.863281 C 44.085938 40.726562 44.25 40.488281 44.324219 40.210938 C 44.324219 40.148438 44.324219 40.074219 44.324219 40.011719 L 44.324219 35.523438 C 44.324219 35.460938 44.324219 35.386719 44.324219 35.351562 C 44.226562 34.835938 43.710938 34.539062 42.925781 34.539062 L 39.925781 34.539062 C 39.039062 34.539062 38.460938 34.914062 38.460938 35.523438 Z M 38.511719 40.023438 "></path><path style=" stroke:none;fill-rule:nonzero;fill:rgb(0%,0%,0%);fill-opacity:1;" d="M 57.164062 42.375 L 57.4375 42.375 L 57.4375 41.25 L 57.8125 41.25 L 57.8125 41.011719 L 56.761719 41.011719 L 56.761719 41.25 L 57.175781 41.25 L 57.175781 42.375 Z M 59.375 42.375 L 59.648438 42.375 L 59.648438 41.050781 L 59.25 41.050781 L 58.914062 41.976562 L 58.539062 41.050781 L 58.125 41.050781 L 58.125 42.375 L 58.398438 42.375 L 58.398438 41.351562 L 58.773438 42.375 L 58.976562 42.375 L 59.351562 41.351562 Z M 59.375 42.375 "></path></g></svg> 