<?xml version="1.0" encoding="UTF-8"?> <svg xmlns="http://www.w3.org/2000/svg" xmlns:xlink="http://www.w3.org/1999/xlink" width="60pt" height="60pt" viewBox="0 0 60 60" version="1.1"><g id="surface1"><path style=" stroke:none;fill-rule:nonzero;fill:rgb(0%,0%,0%);fill-opacity:1;" d="M 28.226562 0.25 C 29.199219 0.25 30.175781 0.25 31.136719 0.25 C 31.375 0.300781 31.601562 0.363281 31.835938 0.375 C 34.4375 0.523438 36.949219 1.050781 39.398438 1.898438 C 45.476562 4.023438 50.351562 7.761719 54.050781 13.011719 C 56.949219 17.113281 58.648438 21.675781 59.199219 26.664062 C 59.273438 27.375 59.363281 28.101562 59.449219 28.8125 C 59.449219 29.585938 59.449219 30.351562 59.449219 31.125 C 59.363281 31.886719 59.273438 32.636719 59.199219 33.398438 C 58.773438 37.449219 57.523438 41.238281 55.488281 44.761719 C 52.800781 49.425781 49.113281 53.125 44.4375 55.800781 C 38.210938 59.363281 31.523438 60.460938 24.488281 59.25 C 17.976562 58.125 12.460938 55.050781 7.9375 50.226562 C 5.5625 47.675781 3.6875 44.8125 2.324219 41.601562 C 0.1875 36.550781 -0.4375 31.300781 0.273438 25.875 C 0.773438 22.050781 2.023438 18.476562 3.960938 15.136719 C 5.949219 11.710938 8.539062 8.789062 11.6875 6.386719 C 15.710938 3.3125 20.226562 1.386719 25.238281 0.636719 C 26.238281 0.488281 27.226562 0.375 28.226562 0.25 Z M 44.300781 20.5 C 44.175781 18.699219 44.125 16.898438 43.914062 15.125 C 43.699219 13.4375 42.664062 12.449219 40.960938 12.238281 C 40.023438 12.113281 39.0625 12.148438 38.113281 12.136719 C 37.050781 12.125 36.324219 12.625 36.164062 13.675781 C 35.949219 15.0625 35.789062 16.476562 35.773438 17.886719 C 35.761719 19.949219 35.914062 22.011719 35.949219 24.0625 C 35.960938 24.574219 35.875 25.113281 35.75 25.613281 C 35.585938 26.3125 35.238281 26.414062 34.75 25.886719 C 34.164062 25.25 33.601562 24.585938 33.101562 23.875 C 31.550781 21.648438 30.050781 19.386719 28.488281 17.1875 C 28.148438 16.710938 27.648438 16.289062 27.136719 16.050781 C 26.386719 15.699219 25.863281 15.238281 25.5625 14.476562 C 25.414062 14.085938 25.25 13.6875 25.101562 13.300781 C 24.523438 11.886719 23.488281 11.375 22.050781 11.835938 C 20.738281 12.25 19.449219 12.675781 18.023438 12.488281 C 17.261719 12.386719 16.824219 12.789062 16.648438 13.550781 C 16.574219 13.875 16.523438 14.226562 16.523438 14.5625 C 16.550781 15.851562 16.636719 17.148438 16.613281 18.4375 C 16.585938 19.773438 16.386719 21.125 16.414062 22.460938 C 16.449219 24.148438 16.976562 25.710938 18.0625 27.050781 C 18.726562 27.875 18.75 28.425781 18.0625 29.523438 C 17.925781 29.75 17.726562 29.9375 17.539062 30.113281 C 16.710938 30.863281 16.324219 31.789062 16.386719 32.925781 C 16.488281 34.636719 16.601562 36.351562 16.613281 38.0625 C 16.625 38.9375 16.988281 39.539062 17.6875 39.960938 C 19.488281 41.050781 21.414062 40.851562 23.300781 40.300781 C 24.25 40.023438 24.5625 39.210938 24.125 38.3125 C 23.738281 37.511719 23.8125 36.789062 24.164062 36.050781 C 24.511719 35.3125 24.5 34.574219 24.414062 33.800781 C 24.363281 33.398438 24.335938 32.988281 24.363281 32.585938 C 24.425781 31.011719 24.511719 29.4375 24.601562 27.863281 C 24.613281 27.699219 24.601562 27.539062 24.625 27.375 C 24.738281 26.851562 24.824219 26.261719 25.488281 26.210938 C 26.085938 26.164062 26.375 26.664062 26.550781 27.136719 C 27 28.3125 27.738281 29.300781 28.601562 30.1875 C 30.0625 31.699219 31.175781 33.4375 32.164062 35.273438 C 32.699219 36.289062 33.335938 37.261719 34.011719 38.175781 C 34.851562 39.289062 35.976562 40.023438 37.375 40.261719 C 38.335938 40.4375 39.3125 40.601562 40.289062 40.710938 C 42.039062 40.925781 43.613281 40.449219 44.101562 38.5 C 44.210938 38.050781 44.300781 37.585938 44.273438 37.125 C 44.1875 35.664062 43.949219 34.1875 43.949219 32.726562 C 43.949219 31.113281 44.238281 29.511719 44.273438 27.898438 C 44.335938 25.4375 44.300781 22.960938 44.300781 20.5 Z M 25.414062 48.363281 C 26.710938 48.261719 27.988281 48.238281 29.25 48.0625 C 31.199219 47.789062 33.148438 47.726562 35.113281 47.863281 C 37.351562 48.023438 39.585938 48.113281 41.835938 48.210938 C 42.5625 48.25 43.175781 47.976562 43.6875 47.460938 C 44.613281 46.539062 44.300781 45.199219 43.039062 44.851562 C 42.398438 44.675781 41.726562 44.625 41.074219 44.585938 C 39.664062 44.488281 38.25 44.449219 36.851562 44.335938 C 35.886719 44.261719 34.9375 43.988281 33.976562 44 C 32.550781 44.023438 31.125 44.261719 29.699219 44.324219 C 27.636719 44.414062 25.574219 44.476562 23.511719 44.449219 C 21.738281 44.4375 19.960938 44.273438 18.1875 44.210938 C 17.324219 44.175781 16.5625 44.523438 15.914062 45.050781 C 15.289062 45.5625 15.050781 46.289062 15.210938 47.074219 C 15.351562 47.75 15.976562 47.851562 16.523438 47.960938 C 16.800781 48.011719 17.085938 48.039062 17.363281 48.039062 C 18.449219 48.039062 19.550781 47.976562 20.636719 48.023438 C 22.25 48.113281 23.835938 48.25 25.414062 48.363281 Z M 25.414062 48.363281 "></path></g></svg> 