<?xml version="1.0" encoding="UTF-8"?> <svg xmlns="http://www.w3.org/2000/svg" xmlns:xlink="http://www.w3.org/1999/xlink" width="60pt" height="60pt" viewBox="0 0 60 60" version="1.1"><g id="surface1"><path style=" stroke:none;fill-rule:nonzero;fill:rgb(0%,0%,0%);fill-opacity:1;" d="M 0.261719 21.3125 C 0.261719 17.800781 0.261719 14.273438 0.261719 10.761719 C 0.398438 10.164062 0.636719 9.601562 1.023438 9.101562 C 1.574219 8.398438 2.25 7.835938 2.988281 7.363281 C 4.851562 6.164062 6.898438 5.386719 9 4.761719 C 12.175781 3.800781 15.414062 3.210938 18.699219 2.800781 C 21.539062 2.4375 24.386719 2.238281 27.25 2.164062 C 32.851562 2.023438 38.425781 2.289062 43.960938 3.175781 C 46.960938 3.664062 49.925781 4.3125 52.800781 5.351562 C 54.574219 6 56.3125 6.75 57.8125 7.9375 C 59.050781 8.914062 59.789062 10.101562 59.75 11.773438 C 59.675781 14.863281 59.726562 17.960938 59.726562 21.050781 C 59.726562 21.164062 59.648438 21.324219 59.550781 21.386719 C 58.9375 21.824219 58.324219 22.273438 57.675781 22.675781 C 54.8125 24.425781 51.710938 25.574219 48.488281 26.449219 C 45.710938 27.210938 42.875 27.738281 40.023438 28.113281 C 37.601562 28.425781 35.164062 28.664062 32.710938 28.699219 C 28.460938 28.761719 24.226562 28.5625 20 28.113281 C 17.550781 27.851562 15.113281 27.476562 12.699219 26.949219 C 10.085938 26.375 7.539062 25.636719 5.101562 24.539062 C 3.3125 23.726562 1.601562 22.789062 0.261719 21.3125 Z M 0.261719 21.3125 "></path><path style=" stroke:none;fill-rule:nonzero;fill:rgb(0%,0%,0%);fill-opacity:1;" d="M 0.261719 26.289062 C 1.148438 28.289062 2.875 29.386719 4.710938 30.335938 C 6.988281 31.511719 9.4375 32.210938 11.914062 32.773438 C 14.4375 33.351562 16.988281 33.726562 19.5625 34 C 23.300781 34.398438 27.0625 34.574219 30.824219 34.613281 C 33.710938 34.636719 36.585938 34.488281 39.449219 34.175781 C 42.914062 33.800781 46.324219 33.210938 49.648438 32.164062 C 52.199219 31.363281 54.648438 30.324219 56.851562 28.761719 C 57.886719 28.023438 58.824219 27.1875 59.699219 26.148438 C 59.699219 26.324219 59.699219 26.4375 59.699219 26.539062 C 59.699219 28.675781 59.675781 30.824219 59.710938 32.960938 C 59.726562 34.023438 59.414062 34.949219 58.835938 35.800781 C 58.0625 36.949219 57.011719 37.8125 55.835938 38.550781 C 53.773438 39.835938 51.5 40.636719 49.164062 41.261719 C 46.726562 41.914062 44.25 42.3125 41.75 42.613281 C 37.863281 43.074219 33.949219 43.25 30.039062 43.238281 C 27.324219 43.238281 24.625 43.1875 21.914062 43.074219 C 19.136719 42.960938 16.375 42.625 13.636719 42.148438 C 11.386719 41.75 9.175781 41.238281 7.023438 40.425781 C 5.324219 39.789062 3.699219 38.988281 2.351562 37.75 C 1.238281 36.738281 0.476562 35.539062 0.300781 34.011719 C 0.300781 33.988281 0.273438 33.960938 0.261719 33.9375 C 0.261719 31.386719 0.261719 28.835938 0.261719 26.289062 Z M 0.261719 26.289062 "></path><path style=" stroke:none;fill-rule:nonzero;fill:rgb(0%,0%,0%);fill-opacity:1;" d="M 0.261719 40.851562 C 0.824219 42.261719 1.914062 43.199219 3.125 44.011719 C 4.9375 45.226562 6.949219 46 9.039062 46.613281 C 12.0625 47.523438 15.164062 48.0625 18.300781 48.4375 C 23.039062 49 27.800781 49.261719 32.574219 49.1875 C 36.949219 49.125 41.289062 48.710938 45.574219 47.8125 C 48.851562 47.125 52.023438 46.164062 54.976562 44.539062 C 56.710938 43.574219 58.289062 42.414062 59.585938 40.886719 C 59.613281 40.863281 59.636719 40.835938 59.710938 40.773438 C 59.710938 40.925781 59.710938 41.039062 59.710938 41.136719 C 59.710938 43.226562 59.675781 45.300781 59.726562 47.386719 C 59.761719 48.789062 59.261719 49.949219 58.386719 50.988281 C 57.300781 52.289062 55.898438 53.199219 54.398438 53.949219 C 51.949219 55.164062 49.335938 55.886719 46.664062 56.4375 C 43.601562 57.0625 40.5 57.398438 37.375 57.601562 C 32.761719 57.886719 28.136719 57.9375 23.523438 57.761719 C 19.210938 57.601562 14.925781 57.148438 10.710938 56.136719 C 8.5 55.601562 6.335938 54.914062 4.351562 53.773438 C 3.039062 53.023438 1.863281 52.113281 1.0625 50.789062 C 0.664062 50.136719 0.414062 49.449219 0.3125 48.6875 C 0.300781 48.625 0.273438 48.550781 0.261719 48.488281 C 0.261719 45.949219 0.261719 43.398438 0.261719 40.851562 Z M 0.261719 40.851562 "></path></g></svg> 