<?xml version="1.0" encoding="UTF-8"?> <svg xmlns="http://www.w3.org/2000/svg" xmlns:xlink="http://www.w3.org/1999/xlink" width="60pt" height="60pt" viewBox="0 0 60 60" version="1.1"><g id="surface1"><path style=" stroke:none;fill-rule:nonzero;fill:rgb(0%,0%,0%);fill-opacity:1;" d="M 55.925781 17.636719 C 55.925781 16.625 55.710938 15.738281 55.273438 14.976562 C 54.851562 14.226562 54.199219 13.585938 53.351562 13.085938 C 46.25 9 39.136719 4.914062 32.039062 0.8125 C 30.125 -0.289062 28.261719 -0.25 26.375 0.875 C 23.550781 2.539062 9.398438 10.648438 5.175781 13.085938 C 3.4375 14.101562 2.585938 15.636719 2.585938 17.636719 C 2.585938 25.875 2.585938 34.125 2.585938 42.363281 C 2.585938 43.351562 2.800781 44.226562 3.210938 44.976562 C 3.636719 45.75 4.289062 46.398438 5.175781 46.914062 C 9.386719 49.363281 23.539062 57.476562 26.363281 59.136719 C 28.261719 60.261719 30.113281 60.300781 32.039062 59.1875 C 39.136719 55.085938 46.238281 51 53.351562 46.898438 C 54.226562 46.386719 54.875 45.738281 55.3125 44.960938 C 55.726562 44.210938 55.9375 43.335938 55.9375 42.351562 C 55.925781 42.363281 55.925781 25.886719 55.925781 17.636719 "></path><path style=" stroke:none;fill-rule:nonzero;fill:rgb(100%,100%,100%);fill-opacity:1;" d="M 34.773438 26.238281 L 43.074219 26.300781 C 43.074219 22.835938 39.574219 14.375 29.539062 14.375 C 23.136719 14.375 14.550781 18.4375 14.550781 30.125 C 14.550781 41.8125 22.976562 45.625 29.539062 45.625 C 40.164062 45.625 42.710938 38.273438 42.710938 34.113281 L 34.800781 33.664062 C 34.800781 33.664062 35.011719 38.476562 29.511719 38.476562 C 24.425781 38.476562 23.585938 32.25 23.585938 30.136719 C 23.585938 26.925781 24.738281 21.75 29.511719 21.75 C 34.289062 21.738281 34.773438 26.238281 34.773438 26.238281 "></path></g></svg> 