<?xml version="1.0" encoding="UTF-8"?> <!-- Generator: Adobe Illustrator 25.1.0, SVG Export Plug-In . SVG Version: 6.00 Build 0) --> <svg xmlns="http://www.w3.org/2000/svg" xmlns:xlink="http://www.w3.org/1999/xlink" version="1.1" id="Layer_1" x="0px" y="0px" viewBox="0 0 48 48" style="enable-background:new 0 0 48 48;" xml:space="preserve"> <style type="text/css"> .st0{fill:#00C185;} </style> <g> <g> <path class="st0" d="M46.9,0H1C0.4,0,0,0.4,0,1v37.9c0,0.6,0.4,1,1,1h17v6h-3c-0.6,0-1,0.4-1,1s0.4,1,1,1h18c0.6,0,1-0.4,1-1 s-0.4-1-1-1h-3v-6h17c0.6,0,1-0.4,1-1V1C47.9,0.4,47.5,0,46.9,0z M28,45.9h-8v-6h8V45.9z M45.9,37.9H2v-4h30.9c0.6,0,1-0.4,1-1 s-0.4-1-1-1H2V2h43.9V37.9L45.9,37.9z"></path> <path class="st0" d="M6,29h12c0.6,0,1-0.4,1-1v-4c0-2.7-1.5-5-3.7-6.2c1.1-0.9,1.8-2.3,1.8-3.8c0-2.8-2.2-5-5-5s-5,2.2-5,5 c0,1.5,0.7,2.9,1.8,3.8C6.5,18.9,5,21.3,5,24v4C5,28.5,5.4,29,6,29z M9,14c0-1.7,1.3-3,3-3s3,1.3,3,3s-1.3,3-3,3S9,15.6,9,14z M7,24c0-2.8,2.2-5,5-5s5,2.2,5,5v3H7V24z"></path> <path class="st0" d="M26,21h3.8L29,23.7c-0.2,0.6,0.3,1.3,1,1.3c0.2,0,0.3,0,0.5-0.1l6.8-3.9H42c0.6,0,1-0.4,1-1V6 c0-0.6-0.4-1-1-1H26c-0.6,0-1,0.4-1,1v14C25,20.5,25.4,21,26,21z M27,7h14v12h-4c-0.2,0-0.3,0-0.5,0.1l-4.9,2.8l0.5-1.6 c0.2-0.6-0.3-1.3-1-1.3H27V7L27,7z"></path> <rect x="29" y="11" class="st0" width="2" height="2"></rect> <rect x="32.9" y="11" class="st0" width="2" height="2"></rect> <rect x="23" y="34.9" class="st0" width="2" height="2"></rect> <rect x="36.9" y="11" class="st0" width="2" height="2"></rect> </g> </g> </svg> 