<?xml version="1.0" encoding="UTF-8"?> <svg xmlns="http://www.w3.org/2000/svg" xmlns:xlink="http://www.w3.org/1999/xlink" width="60pt" height="60pt" viewBox="0 0 60 60" version="1.1"><g id="surface1"><path style=" stroke:none;fill-rule:nonzero;fill:rgb(0%,0%,0%);fill-opacity:1;" d="M 0 40 L 60 40 L 60 18.050781 L 0 18.050781 Z M 0 40 "></path><path style=" stroke:none;fill-rule:nonzero;fill:rgb(99.607843%,99.607843%,99.607843%);fill-opacity:1;" d="M 52.273438 26.835938 C 52.324219 26.835938 52.363281 26.835938 52.386719 26.789062 C 52.398438 26.761719 52.398438 26.75 52.398438 26.726562 C 52.398438 26.6875 52.375 26.648438 52.351562 26.636719 C 52.3125 26.625 52.289062 26.625 52.210938 26.625 L 52.175781 26.625 L 52.175781 26.824219 Z M 52.210938 26.523438 C 52.3125 26.523438 52.351562 26.523438 52.386719 26.550781 C 52.511719 26.585938 52.523438 26.699219 52.523438 26.738281 C 52.523438 26.75 52.523438 26.773438 52.511719 26.800781 C 52.5 26.824219 52.488281 26.875 52.425781 26.925781 C 52.414062 26.9375 52.414062 26.9375 52.386719 26.9375 L 52.550781 27.226562 L 52.398438 27.226562 L 52.261719 26.960938 L 52.175781 26.960938 L 52.175781 27.226562 L 52.039062 27.226562 L 52.039062 26.539062 L 52.210938 26.539062 Z M 52.273438 27.5 C 52.613281 27.5 52.886719 27.226562 52.886719 26.886719 C 52.886719 26.550781 52.613281 26.273438 52.273438 26.273438 C 51.9375 26.273438 51.664062 26.550781 51.664062 26.886719 C 51.664062 27.226562 51.9375 27.5 52.273438 27.5 Z M 51.789062 26.886719 C 51.789062 26.625 52 26.398438 52.273438 26.398438 C 52.550781 26.398438 52.761719 26.625 52.761719 26.886719 C 52.761719 27.148438 52.539062 27.375 52.273438 27.375 C 52.011719 27.363281 51.789062 27.148438 51.789062 26.886719 Z M 47.5 30.8125 C 46.6875 30.8125 46 30.261719 45.800781 29.523438 L 50.300781 29.523438 L 50.925781 28.5625 L 45.789062 28.5625 C 46 27.800781 46.699219 27.261719 47.488281 27.261719 L 50.585938 27.261719 L 51.199219 26.300781 L 47.414062 26.300781 C 45.886719 26.300781 44.664062 27.523438 44.664062 29.039062 C 44.664062 30.550781 45.886719 31.773438 47.414062 31.773438 L 50.675781 31.773438 L 51.289062 30.8125 Z M 34.585938 31.773438 C 33.074219 31.773438 31.851562 30.550781 31.851562 29.039062 C 31.851562 27.523438 33.074219 26.300781 34.585938 26.300781 L 38.375 26.300781 L 37.75 27.261719 L 34.648438 27.261719 C 33.675781 27.289062 32.898438 28.101562 32.925781 29.085938 C 32.949219 30.023438 33.710938 30.789062 34.648438 30.8125 L 38.449219 30.8125 L 37.824219 31.773438 L 34.5625 31.773438 Z M 14.550781 30.8125 C 15.523438 30.8125 16.324219 30.011719 16.324219 29.039062 C 16.324219 28.0625 15.523438 27.261719 14.550781 27.261719 L 11.511719 27.261719 C 10.539062 27.289062 9.761719 28.101562 9.789062 29.085938 C 9.8125 30.023438 10.574219 30.789062 11.511719 30.8125 Z M 11.4375 31.773438 C 9.914062 31.773438 8.6875 30.550781 8.6875 29.039062 C 8.6875 27.523438 9.914062 26.300781 11.4375 26.300781 L 14.625 26.300781 C 16.136719 26.300781 17.363281 27.523438 17.363281 29.039062 C 17.363281 30.550781 16.136719 31.773438 14.625 31.773438 Z M 22.550781 30 C 23.574219 30 24.414062 29.164062 24.414062 28.136719 C 24.414062 27.113281 23.585938 26.273438 22.550781 26.273438 L 17.9375 26.273438 L 17.9375 31.761719 L 18.988281 31.761719 L 18.988281 27.25 L 22.476562 27.25 C 22.960938 27.25 23.363281 27.648438 23.363281 28.136719 C 23.363281 28.625 22.960938 29.023438 22.476562 29.023438 L 19.5 29.023438 L 22.636719 31.773438 L 24.175781 31.773438 L 22.050781 30 Z M 40 30.8125 L 40 26.300781 L 38.949219 26.300781 L 38.949219 31.25 C 38.949219 31.386719 39 31.511719 39.101562 31.625 C 39.199219 31.726562 39.335938 31.789062 39.488281 31.789062 L 44.300781 31.789062 L 44.925781 30.824219 Z M 27.085938 29.835938 L 29.898438 29.835938 L 28.414062 27.4375 L 25.675781 31.773438 L 24.4375 31.773438 L 27.761719 26.574219 C 27.914062 26.363281 28.148438 26.238281 28.414062 26.238281 C 28.664062 26.238281 28.914062 26.363281 29.050781 26.5625 L 32.386719 31.773438 L 31.136719 31.773438 L 30.550781 30.8125 L 27.699219 30.8125 Z M 27.085938 29.835938 "></path></g></svg> 