<?xml version="1.0" encoding="UTF-8"?> <!-- Generator: Adobe Illustrator 23.0.3, SVG Export Plug-In . SVG Version: 6.00 Build 0) --> <svg xmlns="http://www.w3.org/2000/svg" xmlns:xlink="http://www.w3.org/1999/xlink" version="1.1" id="Layer_1" x="0px" y="0px" viewBox="0 0 48 48" style="enable-background:new 0 0 48 48;" xml:space="preserve"> <g id="comp_x5F_254-phoenix-framework"> <g> <path d="M16,29c0.3,0,1.7-0.1,1.9-0.2c-0.2-0.2-3.3-0.1-5.1-3.7c-0.3-0.6-0.6-1.3-0.5-2.1c0.2-1.9,2.5-2.3,3.9-1.4 c2.7,1.6,4.8,6.9,8.5,7.3c2.8,0.3,6.3-1.3,8.1-3.4c0,0-0.1,0-0.1,0c0,0-0.1,0-0.1,0c-2.5,0.9-7.1,0.7-10.1-1.1 c-2.8-1.7-4-4.4-3.9-5.6c0.1-1.6,1.7-1.7,2.7-1.5c1.1,0.3,1.8,1.3,2.9,2.1c1.2,0.8,2.5,1,3.9,0.8c1.1-0.2,2.6-0.9,2.7-1.1 c-0.1,0-0.1,0-0.2,0c-0.5,0-0.9-0.1-1.4-0.1C21,17.8,19.7,6.7,10.4,6C7.1,5.8,2.9,6.7,0.2,8.7C0.1,8.7,0.1,8.8,0,8.8c0,0,0,0,0,0 c0.1,0,0.1,0,0.2,0c0.5-0.1,0.9-0.1,1.4,0c1.8,0.3,3.6,1.7,4.2,5.7c0.4,2.6-0.1,3.8,0.6,6.5C7.8,26.8,13.2,29.1,16,29L16,29z M5.7,8C5.6,8,5.6,7.9,5.6,7.9c0.9-0.2,1.8-0.3,2.7-0.3C8.2,8.6,6.6,9.1,5.7,8z M20.4,34.3c-3.2,0.1-6.9-2-9.3-4.6 c-0.3-0.4-1.3-1.5-1.4-1.8l0,0c0.5,0.3,1.9,1.4,4.1,2c1.8,0.5,3.6,0.5,5.4-0.3c1.7-0.7,3.1,0,3.2,0.2c-1.4,0.3-1.5,0.3-1.8,0.6 c-0.4,0.3-0.3,0.9,0.5,1.3c2,0.9,4.7-0.2,7.3,1.9c0.2,0.2,0.6,0.6,0.8,0.8c0,0,0,0,0,0c-0.4-0.1-1.2-0.6-3-0.7 C24.4,33.7,22.8,34.3,20.4,34.3L20.4,34.3z M33.5,15.4c1.2-0.4,3.1-1,5-0.3c1.2,0.5,2,1.4,2.4,2.6c0.3,0.7,0.4,1.5,0.4,2.1 c0,0,0,0,0,0c0,0,0-0.1,0-0.1c-0.4-1.6-2.2-3.3-5.1-2.2c-3.8,1.4-9.8,0.7-13.3-3.6c0-0.1-0.2-0.1-0.1-0.2c0,0,0.2,0,0.2,0.1 c1.4,1,2.9,1.6,4.5,2C29.8,16.3,31.6,16,33.5,15.4L33.5,15.4z M41.2,24.2c-2.4,0-2.5,3.8-7.8,4.8c-1.4,0.3-2.9,0.3-3.4,0.3v0 c0.2-0.1,1.1-0.2,2.2-1.2c0.6-0.5,1.2-1.1,1.7-1.7c1.5-1.5,3.1-3.2,6.2-2.9c1.7,0.1,2.2,0.6,2.7,1c0,0,0,0,0,0.1c0,0,0,0-0.1,0 C42.3,24.3,41.8,24.2,41.2,24.2L41.2,24.2z M40.3,22.4C40.3,22.5,40.3,22.5,40.3,22.4c-2.2-0.3-3.6-0.5-5.1,0.3 c-1.3,0.7-2.4,1.5-4.6,1.8c-2,0.3-3.4,0.2-5-0.6c0,0,0,0-0.1,0c0,0,0,0,0,0c1.9,0.3,2.7,0.4,4.2-0.4c1.7-1,3-2,5.3-2.3 C37.2,20.9,38.8,21.4,40.3,22.4z M20.1,10.5c0,0-0.1-0.1-0.2-0.2c0.6,0,2.2-0.1,4,0.6c1.5,0.6,2.4,1.6,3.8,2.5 c0.8,0.5,1.8,0.7,2.7,0.6c0.3,0,0.6-0.1,1-0.1c0,0,0.1,0,0.1,0c0,0-0.1,0.1-0.1,0.1c-0.6,0.3-1.3,0.5-1.9,0.5 c-2,0.2-3.8-0.3-5.5-1.2C22.5,12.6,21.3,11.6,20.1,10.5z M48,28.4c-0.3,0.2-1.7,0.9-3.2,0.4c-0.9-0.3-1.5-1.1-2.4-1.8 c-0.8-0.6-1.6-0.6-2.1-0.6c0-0.1,0.1-0.1,0.1-0.1c1.1-0.7,2.3-0.9,3.5-0.5c0.9,0.3,1.4,1,2.3,1.8C47.1,28.3,47.8,28.3,48,28.4 C48,28.3,48,28.3,48,28.4L48,28.4z M32.1,38.6c0.2,0.1,0.1,0.1,0.1,0.2c-1.4-0.1-2.5-0.6-3.5-1.7C27,35.2,25.5,35,25,34.9 c0,0,0.1,0,0.1,0c1,0,2,0,2.9,0.3c1.9,0.5,2.6,1.9,3.1,2.7C31.4,38.2,31.7,38.4,32.1,38.6z"></path> </g> </g> </svg> 