<?xml version="1.0" encoding="UTF-8"?> <svg xmlns="http://www.w3.org/2000/svg" xmlns:xlink="http://www.w3.org/1999/xlink" width="60pt" height="60pt" viewBox="0 0 60 60" version="1.1"><g id="surface1"><path style=" stroke:none;fill-rule:nonzero;fill:rgb(0%,0%,0%);fill-opacity:1;" d="M 60 29.886719 C 60 46.394531 46.617188 59.773438 30.113281 59.773438 C 13.605469 59.773438 0.226562 46.394531 0.226562 29.886719 C 0.226562 13.382812 13.605469 0 30.113281 0 C 46.617188 0 60 13.382812 60 29.886719 Z M 60 29.886719 "></path><path style=" stroke:none;fill-rule:nonzero;fill:rgb(100%,100%,100%);fill-opacity:1;" d="M 16.789062 25.523438 C 18.164062 25.523438 19.0625 25.761719 19.539062 26.300781 C 20.011719 26.773438 20.074219 27.675781 19.835938 28.875 C 19.601562 30.125 19.125 31.085938 18.398438 31.625 C 17.6875 32.164062 16.613281 32.460938 15.175781 32.460938 L 12.960938 32.460938 L 14.273438 25.523438 Z M 8 39.449219 L 11.585938 39.449219 L 12.425781 35.023438 L 15.539062 35.023438 C 16.914062 35.023438 17.988281 34.898438 18.886719 34.613281 C 19.789062 34.324219 20.5625 33.835938 21.273438 33.175781 C 21.875 32.636719 22.351562 31.976562 22.773438 31.324219 C 23.136719 30.664062 23.4375 29.886719 23.550781 29.113281 C 23.914062 27.136719 23.675781 25.648438 22.710938 24.511719 C 21.75 23.4375 20.261719 22.898438 18.175781 22.898438 L 11.226562 22.898438 Z M 8 39.449219 "></path><path style=" stroke:none;fill-rule:nonzero;fill:rgb(100%,100%,100%);fill-opacity:1;" d="M 27.1875 18.523438 L 30.773438 18.523438 L 29.9375 22.949219 L 33.101562 22.949219 C 35.074219 22.949219 36.511719 23.3125 37.226562 24.023438 C 38 24.738281 38.238281 25.875 37.886719 27.4375 L 36.386719 35.148438 L 32.75 35.148438 L 34.1875 27.863281 C 34.363281 27.023438 34.3125 26.488281 34.011719 26.1875 C 33.710938 25.886719 33.113281 25.710938 32.226562 25.710938 L 29.351562 25.710938 L 27.5 35.148438 L 23.914062 35.148438 Z M 27.1875 18.523438 "></path><path style=" stroke:none;fill-rule:nonzero;fill:rgb(100%,100%,100%);fill-opacity:1;" d="M 45.898438 25.523438 C 47.273438 25.523438 48.175781 25.761719 48.648438 26.300781 C 49.125 26.773438 49.1875 27.675781 48.949219 28.875 C 48.710938 30.125 48.238281 31.085938 47.511719 31.625 C 46.800781 32.164062 45.726562 32.460938 44.289062 32.460938 L 42.074219 32.460938 L 43.386719 25.523438 Z M 37.113281 39.449219 L 40.699219 39.449219 L 41.539062 35.023438 L 44.648438 35.023438 C 46.023438 35.023438 47.101562 34.898438 48 34.613281 C 48.898438 34.3125 49.675781 33.835938 50.386719 33.175781 C 50.988281 32.636719 51.460938 31.976562 51.886719 31.324219 C 52.25 30.664062 52.550781 29.886719 52.664062 29.113281 C 53.023438 27.136719 52.789062 25.648438 51.824219 24.511719 C 50.875 23.4375 49.375 22.898438 47.289062 22.898438 L 40.351562 22.898438 Z M 37.113281 39.449219 "></path></g></svg> 