<?xml version="1.0" encoding="UTF-8"?> <!-- Generator: Adobe Illustrator 23.0.3, SVG Export Plug-In . SVG Version: 6.00 Build 0) --> <svg xmlns="http://www.w3.org/2000/svg" xmlns:xlink="http://www.w3.org/1999/xlink" version="1.1" id="Layer_1" x="0px" y="0px" viewBox="0 0 48 48" style="enable-background:new 0 0 48 48;" xml:space="preserve"> <path d="M38.89,5.98c-7.94-7.94-20.84-7.97-28.82-0.09l-0.1,0.09c-7.97,7.97-7.96,20.94,0,28.91L22.28,47.2 c0.52,0.51,1.22,0.8,1.95,0.8c0.7,0,1.41-0.27,1.95-0.81c1.07-1.07,1.07-2.82,0-3.89L13.87,30.99c-5.81-5.81-5.82-15.24-0.05-21.07 l0.06-0.06c5.83-5.82,15.3-5.82,21.12,0c4.78,4.78,5.47,12.96,1.59,19.03c-0.82,1.28-0.44,2.98,0.84,3.8s2.98,0.44,3.8-0.84 C46.54,23.53,45.56,12.65,38.89,5.98 M33.96,35.52c1.07,1.07,1.08,2.82,0,3.89c-0.51,0.52-1.21,0.81-1.94,0.81s-1.43-0.29-1.95-0.81 L17.76,27.1c-3.68-3.68-3.68-9.66,0-13.34c1.78-1.78,4.15-2.76,6.67-2.76l0,0c2.52,0,4.89,0.98,6.67,2.77 c2.45,2.45,3.36,6.05,2.37,9.38c-0.44,1.46-1.97,2.29-3.42,1.85c-1.46-0.43-2.29-1.97-1.85-3.42c0.42-1.38,0.04-2.89-0.98-3.91 c-0.74-0.74-1.73-1.15-2.78-1.15l0,0c-1.05,0-2.04,0.41-2.78,1.15c-1.53,1.53-1.53,4.03,0,5.56L33.96,35.52"></path> </svg> 