<?xml version="1.0" encoding="UTF-8"?> <!-- Generator: Adobe Illustrator 25.3.0, SVG Export Plug-In . SVG Version: 6.00 Build 0) --> <svg xmlns="http://www.w3.org/2000/svg" xmlns:xlink="http://www.w3.org/1999/xlink" version="1.1" id="Layer_1" x="0px" y="0px" viewBox="0 0 48 48" style="enable-background:new 0 0 48 48;" xml:space="preserve"> <style type="text/css"> .st0{fill:url(#SVGID_1_);} </style> <g> <linearGradient id="SVGID_1_" gradientUnits="userSpaceOnUse" x1="1.8592" y1="26" x2="46.2521" y2="26" gradientTransform="matrix(1 0 0 -1 0 50)"> <stop offset="0" style="stop-color:#2176FF"></stop> <stop offset="1" style="stop-color:#2731F9"></stop> </linearGradient> <path class="st0" d="M46.2,14.3c0-1.6-1.3-2.9-2.9-2.9h-8.8V8.9c0-3.5-2.8-6.3-6.3-6.3H20c-3.5,0-6.3,2.8-6.3,6.3v2.5H4.7 c-1.6,0-2.9,1.3-2.9,2.9v5.2v21.3c0,2.6,2.1,4.7,4.7,4.7h34.9c2.6,0,4.7-2.1,4.7-4.7V19.5V14.3z M15.2,8.9c0-2.6,2.1-4.7,4.7-4.7 h8.1c2.6,0,4.7,2.1,4.7,4.7v2.5h-1.7V8.9c0-1.7-1.3-3-3-3H20c-1.7,0-3,1.3-3,3v2.5h-1.7C15.2,11.3,15.2,8.9,15.2,8.9z M18.6,11.3 V8.9c0-0.8,0.7-1.4,1.4-1.4h8.1c0.8,0,1.4,0.7,1.4,1.4v2.5H18.6z M3.5,14.3c0-0.7,0.6-1.2,1.2-1.2h38.5c0.7,0,1.2,0.6,1.2,1.2v5.2 c0,3.8-3.1,6.9-6.9,6.9H27.1v-0.9c0-1.4-1.1-2.6-2.6-2.6h-1.1c-1.4,0-2.6,1.1-2.6,2.6v0.9H10.4c-3.8,0-6.9-3.1-6.9-6.9L3.5,14.3z M22.6,27.2v-1.7c0-0.5,0.4-0.9,0.9-0.9h1.1c0.5,0,0.9,0.4,0.9,0.9v1.7v1.7c0,0.5-0.4,0.9-0.9,0.9h-1.1c-0.5,0-0.9-0.4-0.9-0.9 V27.2z M44.6,40.8c0,1.7-1.3,3-3,3h-35c-1.7,0-3-1.3-3-3V24.6c1.6,2.2,4.2,3.5,6.9,3.5h10.5v0.9c0,1.4,1.1,2.6,2.6,2.6h1.1 c1.4,0,2.6-1.1,2.6-2.6v-0.9h10.5c2.7,0,5.3-1.3,6.9-3.5V40.8z"></path> </g> </svg> 