<?xml version="1.0" encoding="UTF-8"?> <svg xmlns="http://www.w3.org/2000/svg" xmlns:xlink="http://www.w3.org/1999/xlink" width="60pt" height="60pt" viewBox="0 0 60 60" version="1.1"><g id="surface1"><path style=" stroke:none;fill-rule:nonzero;fill:rgb(0%,0%,0%);fill-opacity:1;" d="M 53.746094 11.664062 C 43.621094 -1.453125 24.777344 -3.871094 11.660156 6.253906 C 5.363281 11.117188 1.253906 18.28125 0.242188 26.175781 C -1.304688 38.210938 4.554688 49.996094 15.082031 56.023438 C 25.613281 62.054688 38.738281 61.152344 48.335938 53.738281 C 61.453125 43.613281 63.871094 24.777344 53.746094 11.664062 Z M 53.746094 11.664062 "></path><path style=" stroke:none;fill-rule:nonzero;fill:rgb(100%,100%,100%);fill-opacity:1;" d="M 40.113281 19.117188 L 27.46875 31.867188 L 23.894531 28.191406 C 36.347656 15.742188 37.59375 16.867188 40.113281 19.117188 Z M 40.113281 19.117188 "></path><path style=" stroke:none;fill-rule:nonzero;fill:rgb(0%,0%,0%);fill-opacity:1;" d="M 27.46875 32.210938 C 27.355469 32.210938 27.253906 32.164062 27.167969 32.089844 L 23.566406 28.492188 C 23.398438 28.3125 23.398438 28.039062 23.566406 27.863281 C 35.839844 15.589844 37.519531 16.164062 40.414062 18.789062 C 40.507812 18.863281 40.566406 18.984375 40.566406 19.117188 C 40.582031 19.238281 40.535156 19.359375 40.441406 19.445312 L 27.796875 32.089844 C 27.703125 32.175781 27.589844 32.210938 27.46875 32.210938 Z M 24.515625 28.191406 L 27.46875 31.144531 L 39.46875 19.144531 C 38.605469 18.066406 37.078125 17.8125 35.914062 18.542969 C 33.738281 19.519531 30.242188 22.492188 24.515625 28.191406 Z M 24.515625 28.191406 "></path><path style=" stroke:none;fill-rule:nonzero;fill:rgb(100%,100%,100%);fill-opacity:1;" d="M 31.097656 35.390625 L 27.644531 31.867188 L 40.292969 19.367188 C 43.695312 22.6875 38.644531 28.238281 31.097656 35.390625 Z M 31.097656 35.390625 "></path><path style=" stroke:none;fill-rule:nonzero;fill:rgb(0%,0%,0%);fill-opacity:1;" d="M 31.097656 35.839844 C 30.984375 35.832031 30.878906 35.785156 30.796875 35.71875 L 27.269531 32.269531 C 27.214844 32.136719 27.214844 31.996094 27.269531 31.867188 C 27.234375 31.761719 27.234375 31.640625 27.269531 31.539062 L 39.917969 18.890625 C 40.097656 18.722656 40.386719 18.722656 40.566406 18.890625 C 41.390625 19.648438 41.847656 20.738281 41.8125 21.863281 C 41.8125 25.238281 37.957031 29.484375 31.414062 35.691406 C 31.332031 35.773438 31.21875 35.832031 31.097656 35.839844 Z M 28.292969 31.867188 L 31.113281 34.6875 C 36.121094 29.960938 40.894531 25.085938 40.921875 21.789062 C 40.949219 21.085938 40.714844 20.398438 40.273438 19.867188 Z M 28.292969 31.867188 "></path><path style=" stroke:none;fill-rule:nonzero;fill:rgb(100%,100%,100%);fill-opacity:1;" d="M 23.988281 28.265625 L 26.492188 30.769531 C 26.558594 30.824219 26.558594 30.917969 26.503906 30.984375 C 26.503906 30.992188 26.492188 30.992188 26.492188 30.992188 L 21.214844 32.117188 C 21 32.164062 20.773438 32.0625 20.671875 31.867188 C 20.566406 31.667969 20.605469 31.425781 20.765625 31.273438 L 23.839844 28.226562 C 23.839844 28.21875 23.941406 28.21875 23.988281 28.265625 Z M 23.988281 28.265625 "></path><path style=" stroke:none;fill-rule:nonzero;fill:rgb(0%,0%,0%);fill-opacity:1;" d="M 21.09375 32.617188 C 20.753906 32.617188 20.445312 32.429688 20.269531 32.136719 C 20.070312 31.761719 20.136719 31.304688 20.445312 31.011719 L 23.492188 27.9375 C 23.71875 27.730469 24.066406 27.730469 24.289062 27.9375 L 26.792969 30.441406 C 26.941406 30.582031 27 30.796875 26.941406 30.992188 C 26.886719 31.191406 26.71875 31.339844 26.519531 31.386719 L 21.242188 32.511719 Z M 23.894531 28.820312 L 21.074219 31.640625 L 25.753906 30.636719 Z M 23.894531 28.820312 "></path><path style=" stroke:none;fill-rule:nonzero;fill:rgb(100%,100%,100%);fill-opacity:1;" d="M 46.847656 12.09375 C 45.035156 10.351562 42.195312 10.273438 40.292969 11.925781 C 38.398438 13.574219 38.070312 16.398438 39.550781 18.429688 C 41.035156 20.464844 43.816406 21.039062 45.972656 19.742188 L 42.570312 16.339844 Z M 46.847656 12.09375 "></path><path style=" stroke:none;fill-rule:nonzero;fill:rgb(0%,0%,0%);fill-opacity:1;" d="M 43.472656 20.886719 C 41.34375 20.859375 39.441406 19.566406 38.632812 17.597656 C 37.828125 15.628906 38.277344 13.367188 39.757812 11.859375 C 41.839844 9.816406 45.175781 9.816406 47.257812 11.859375 C 47.351562 11.945312 47.410156 12.054688 47.410156 12.1875 C 47.410156 12.308594 47.351562 12.429688 47.257812 12.515625 L 43.207031 16.339844 L 46.285156 19.367188 C 46.386719 19.460938 46.433594 19.601562 46.40625 19.742188 C 46.386719 19.875 46.320312 19.996094 46.207031 20.070312 C 45.382812 20.585938 44.4375 20.867188 43.472656 20.886719 Z M 43.472656 11.195312 C 41.691406 11.203125 40.097656 12.273438 39.429688 13.914062 C 38.765625 15.554688 39.121094 17.4375 40.378906 18.695312 C 41.652344 19.96875 43.566406 20.335938 45.222656 19.621094 L 42.269531 16.667969 C 42.175781 16.59375 42.121094 16.472656 42.121094 16.339844 C 42.121094 16.21875 42.175781 16.117188 42.269531 16.039062 L 46.171875 12.113281 C 45.394531 11.523438 44.445312 11.195312 43.472656 11.195312 Z M 43.472656 11.195312 "></path><path style=" stroke:none;fill-rule:nonzero;fill:rgb(100%,100%,100%);fill-opacity:1;" d="M 46.921875 12.167969 L 42.644531 16.414062 L 46.050781 19.820312 C 46.394531 19.621094 46.714844 19.386719 46.996094 19.117188 C 48.84375 17.148438 48.816406 14.082031 46.921875 12.167969 Z M 46.921875 12.167969 "></path><path style=" stroke:none;fill-rule:nonzero;fill:rgb(0%,0%,0%);fill-opacity:1;" d="M 45.964844 20.195312 C 45.851562 20.203125 45.738281 20.15625 45.664062 20.070312 L 42.261719 16.667969 C 42.167969 16.59375 42.113281 16.472656 42.113281 16.339844 C 42.113281 16.21875 42.167969 16.117188 42.261719 16.039062 L 46.507812 11.867188 C 46.648438 11.664062 46.921875 11.605469 47.136719 11.746094 C 47.183594 11.785156 47.230469 11.820312 47.257812 11.867188 C 49.332031 13.894531 49.367188 17.222656 47.332031 19.292969 C 47.304688 19.320312 47.285156 19.339844 47.257812 19.367188 C 46.96875 19.679688 46.628906 19.949219 46.253906 20.164062 C 46.171875 20.210938 46.066406 20.222656 45.964844 20.195312 Z M 43.21875 16.339844 L 46.039062 19.164062 C 46.238281 19.023438 46.414062 18.871094 46.59375 18.710938 C 47.425781 17.886719 47.886719 16.761719 47.894531 15.589844 C 47.894531 14.539062 47.511719 13.527344 46.816406 12.742188 Z M 43.21875 16.339844 "></path><path style=" stroke:none;fill-rule:nonzero;fill:rgb(100%,100%,100%);fill-opacity:1;" d="M 40.640625 19.640625 C 39.9375 18.984375 38.839844 18.984375 38.136719 19.640625 L 26.820312 30.9375 L 28.695312 32.839844 L 40.667969 22.339844 C 41.035156 21.984375 41.25 21.496094 41.238281 20.980469 C 41.230469 20.476562 41.015625 19.988281 40.640625 19.640625 Z M 40.640625 19.640625 "></path><path style=" stroke:none;fill-rule:nonzero;fill:rgb(0%,0%,0%);fill-opacity:1;" d="M 28.59375 33.289062 C 28.480469 33.289062 28.378906 33.242188 28.292969 33.167969 L 26.390625 31.265625 C 26.222656 31.085938 26.222656 30.816406 26.390625 30.636719 L 37.714844 19.367188 C 38.613281 18.46875 40.066406 18.46875 40.96875 19.367188 C 41.417969 19.820312 41.660156 20.4375 41.644531 21.066406 C 41.613281 21.695312 41.332031 22.292969 40.863281 22.714844 L 28.894531 33.214844 C 28.808594 33.28125 28.695312 33.300781 28.59375 33.289062 Z M 27.269531 30.9375 L 28.519531 32.210938 L 40.265625 21.992188 C 40.554688 21.742188 40.722656 21.375 40.742188 20.992188 C 40.753906 20.605469 40.601562 20.230469 40.320312 19.96875 C 39.777344 19.425781 38.894531 19.425781 38.34375 19.96875 Z M 27.269531 30.9375 "></path><path style=" stroke:none;fill-rule:nonzero;fill:rgb(100%,100%,100%);fill-opacity:1;" d="M 18.046875 43.820312 C 17.980469 43.914062 17.980469 44.023438 18.046875 44.117188 L 18.542969 46.292969 C 18.589844 46.554688 18.457031 46.808594 18.234375 46.949219 C 18.007812 47.082031 17.71875 47.054688 17.519531 46.875 L 14.097656 43.574219 L 24.769531 32.8125 L 28.472656 32.8125 L 30.972656 35.316406 C 27.066406 38.726562 22.722656 41.585938 18.046875 43.820312 Z M 18.046875 43.820312 "></path><path style=" stroke:none;fill-rule:nonzero;fill:rgb(0%,0%,0%);fill-opacity:1;" d="M 17.820312 47.492188 C 17.539062 47.484375 17.257812 47.371094 17.070312 47.164062 L 13.800781 43.894531 C 13.707031 43.820312 13.648438 43.695312 13.648438 43.566406 C 13.648438 43.445312 13.707031 43.339844 13.800781 43.265625 L 24.542969 32.492188 C 24.597656 32.429688 24.683594 32.390625 24.769531 32.371094 L 28.488281 32.371094 C 28.582031 32.335938 28.695312 32.335938 28.789062 32.371094 L 31.292969 34.875 C 31.386719 34.96875 31.433594 35.101562 31.414062 35.222656 C 31.414062 35.34375 31.359375 35.464844 31.265625 35.550781 L 31.066406 35.71875 C 27.148438 38.980469 22.847656 41.746094 18.242188 43.941406 L 18.722656 45.964844 C 18.863281 46.546875 18.496094 47.128906 17.914062 47.257812 C 17.839844 47.277344 17.765625 47.289062 17.691406 47.289062 Z M 14.765625 43.566406 L 17.71875 46.539062 C 17.773438 46.585938 17.859375 46.585938 17.914062 46.539062 C 17.953125 46.480469 17.953125 46.414062 17.914062 46.359375 L 17.417969 44.183594 C 17.332031 43.867188 17.492188 43.527344 17.792969 43.386719 C 22.265625 41.222656 26.464844 38.511719 30.289062 35.335938 L 28.238281 33.28125 L 24.890625 33.28125 Z M 14.765625 43.566406 "></path><path style=" stroke:none;fill-rule:nonzero;fill:rgb(100%,100%,100%);fill-opacity:1;" d="M 11.519531 46.144531 L 14.023438 43.640625 L 17.878906 47.492188 L 11.753906 47.070312 C 11.539062 47.054688 11.351562 46.902344 11.304688 46.6875 C 11.238281 46.472656 11.332031 46.257812 11.519531 46.144531 Z M 11.519531 46.144531 "></path><path style=" stroke:none;fill-rule:nonzero;fill:rgb(0%,0%,0%);fill-opacity:1;" d="M 17.941406 47.867188 L 11.839844 47.445312 C 11.484375 47.410156 11.175781 47.175781 11.042969 46.835938 C 10.921875 46.5 10.996094 46.117188 11.238281 45.851562 L 13.742188 43.351562 C 13.921875 43.179688 14.191406 43.179688 14.371094 43.351562 L 18.195312 47.175781 C 18.308594 47.324219 18.308594 47.523438 18.195312 47.671875 C 18.140625 47.757812 18.046875 47.832031 17.941406 47.867188 Z M 11.839844 46.460938 L 16.835938 46.789062 L 14.089844 44.210938 Z M 11.839844 46.460938 "></path><path style=" stroke:none;fill-rule:nonzero;fill:rgb(100%,100%,100%);fill-opacity:1;" d="M 28.816406 33.113281 L 23.765625 33.890625 L 26.691406 30.992188 Z M 28.816406 33.113281 "></path><path style=" stroke:none;fill-rule:nonzero;fill:rgb(0%,0%,0%);fill-opacity:1;" d="M 23.765625 34.367188 C 23.597656 34.367188 23.4375 34.273438 23.371094 34.117188 C 23.257812 33.964844 23.257812 33.769531 23.371094 33.617188 L 26.269531 30.695312 C 26.445312 30.523438 26.738281 30.523438 26.914062 30.695312 L 29.042969 32.8125 C 29.128906 32.953125 29.128906 33.121094 29.042969 33.261719 C 29.003906 33.429688 28.863281 33.5625 28.695312 33.589844 L 23.699219 34.367188 Z M 26.691406 31.640625 L 25.066406 33.261719 L 27.871094 32.839844 Z M 26.691406 31.640625 "></path><path style=" stroke:none;fill-rule:nonzero;fill:rgb(100%,100%,100%);fill-opacity:1;" d="M 28.816406 33.113281 L 25.292969 33.5625 C 25.050781 33.617188 24.804688 33.46875 24.757812 33.226562 C 24.722656 33.074219 24.769531 32.925781 24.871094 32.8125 L 26.699219 30.984375 Z M 28.816406 33.113281 "></path><path style=" stroke:none;fill-rule:nonzero;fill:rgb(0%,0%,0%);fill-opacity:1;" d="M 25.191406 34.039062 C 24.863281 34.039062 24.550781 33.851562 24.394531 33.5625 C 24.195312 33.207031 24.261719 32.773438 24.542969 32.484375 L 26.371094 30.65625 C 26.550781 30.488281 26.839844 30.488281 27.019531 30.65625 L 29.144531 32.785156 C 29.324219 32.953125 29.332031 33.242188 29.164062 33.421875 C 29.082031 33.507812 28.976562 33.554688 28.863281 33.5625 L 25.367188 34.011719 Z M 25.191406 33.113281 L 27.84375 32.785156 L 26.671875 31.613281 L 25.171875 33.113281 Z M 46.941406 15.039062 C 46.847656 14.878906 46.640625 14.8125 46.460938 14.886719 C 46.378906 14.933594 46.3125 15 46.285156 15.09375 C 46.253906 15.179688 46.265625 15.28125 46.3125 15.367188 C 46.488281 15.730469 46.433594 16.171875 46.191406 16.492188 C 46.125 16.554688 46.097656 16.640625 46.097656 16.726562 C 46.097656 16.808594 46.132812 16.894531 46.191406 16.960938 C 46.253906 16.988281 46.320312 16.988281 46.386719 16.960938 C 46.507812 16.988281 46.628906 16.949219 46.714844 16.855469 C 47.136719 16.351562 47.230469 15.636719 46.941406 15.039062 Z M 46.941406 15.039062 "></path></g></svg> 