<?xml version="1.0" encoding="UTF-8"?> <svg xmlns="http://www.w3.org/2000/svg" xmlns:xlink="http://www.w3.org/1999/xlink" width="60pt" height="60pt" viewBox="0 0 60 60" version="1.1"><g id="surface1"><path style=" stroke:none;fill-rule:nonzero;fill:rgb(0%,0%,0%);fill-opacity:1;" d="M 30 0 C 13.425781 0 0 13.4375 0 30 C 0 46.5625 13.425781 60 30 60 C 46.5625 60 60 46.5625 60 30 C 60 13.425781 46.5625 0 30 0 M 30 55 C 16.1875 55 5 43.8125 5 30 C 5 16.1875 16.1875 5 30 5 C 43.8125 5 55 16.199219 55 30 C 55 43.800781 43.800781 55 30 55 "></path><path style=" stroke:none;fill-rule:nonzero;fill:rgb(0%,0%,0%);fill-opacity:1;" d="M 37.289062 30 C 37.289062 22.925781 34.511719 16.5 30 11.75 C 25.488281 16.5 22.699219 22.9375 22.699219 30 C 22.699219 33.238281 23.300781 36.335938 24.363281 39.199219 C 22.8125 41.449219 21.675781 44.613281 21.175781 48.238281 C 22.773438 46.351562 24.726562 44.960938 26.898438 44.289062 C 27.8125 45.6875 28.835938 47.023438 30 48.238281 C 31.148438 47.023438 32.1875 45.699219 33.101562 44.289062 C 35.273438 44.949219 37.238281 46.351562 38.835938 48.25 C 38.335938 44.613281 37.199219 41.460938 35.648438 39.210938 C 36.699219 36.335938 37.300781 33.238281 37.289062 30 M 30 30.0625 C 28.1875 30.0625 26.710938 28.585938 26.710938 26.773438 C 26.710938 24.960938 28.1875 23.488281 30 23.488281 C 31.8125 23.488281 33.300781 24.949219 33.300781 26.789062 C 33.289062 28.5625 31.835938 30.0625 30 30.0625 "></path></g></svg> 