<?xml version="1.0" encoding="UTF-8"?> <svg xmlns="http://www.w3.org/2000/svg" xmlns:xlink="http://www.w3.org/1999/xlink" width="60pt" height="60pt" viewBox="0 0 60 60" version="1.1"><g id="surface1"><path style=" stroke:none;fill-rule:nonzero;fill:rgb(0%,0%,0%);fill-opacity:1;" d="M 52.476562 20.976562 C 52.476562 26.988281 52.476562 33 52.476562 39.023438 C 48.050781 39.011719 43.625 38.976562 39.210938 39.011719 C 38.835938 39.011719 38.386719 39.3125 38.085938 39.601562 C 36.3125 41.324219 34.648438 43.164062 32.800781 44.8125 C 31.664062 45.835938 31.273438 46.925781 31.3125 48.425781 C 31.386719 52.273438 31.289062 56.136719 31.261719 60 C 25.335938 60 19.425781 60 13.4375 60 C 13.4375 54.0625 13.4375 48.125 13.4375 42.175781 C 13.851562 42.148438 14.261719 42.101562 14.664062 42.101562 C 18.488281 42.101562 22.324219 42.125 26.148438 42.0625 C 26.710938 42.050781 27.386719 41.761719 27.800781 41.375 C 29.863281 39.414062 31.875 37.386719 33.851562 35.324219 C 34.1875 34.976562 34.4375 34.363281 34.4375 33.863281 C 34.5 31.273438 34.5 28.6875 34.4375 26.101562 C 34.425781 25.574219 34.136719 24.949219 33.761719 24.5625 C 32.0625 22.761719 30.210938 21.101562 28.550781 19.261719 C 27.585938 18.199219 26.550781 17.824219 25.125 17.851562 C 21.226562 17.925781 17.324219 17.824219 13.425781 17.800781 C 13.425781 11.875 13.425781 5.960938 13.425781 -0.0234375 C 19.363281 -0.0234375 25.300781 -0.0234375 31.25 -0.0234375 C 31.273438 0.386719 31.324219 0.789062 31.324219 1.199219 C 31.324219 5.023438 31.300781 8.851562 31.363281 12.675781 C 31.375 13.238281 31.648438 13.914062 32.039062 14.324219 C 34 16.386719 36.039062 18.386719 38.0625 20.375 C 38.363281 20.664062 38.800781 20.976562 39.175781 20.976562 C 43.625 21.023438 48.050781 20.988281 52.476562 20.976562 Z M 25.351562 11.914062 C 25.351562 9.898438 25.351562 8 25.351562 6.039062 C 23.375 6.039062 21.449219 6.039062 19.511719 6.039062 C 19.511719 8.039062 19.511719 9.960938 19.511719 11.914062 C 21.488281 11.914062 23.363281 11.914062 25.351562 11.914062 Z M 25.363281 48.101562 C 23.351562 48.101562 21.449219 48.101562 19.5 48.101562 C 19.5 50.074219 19.5 52 19.5 53.925781 C 21.511719 53.925781 23.425781 53.925781 25.363281 53.925781 C 25.363281 51.949219 25.363281 50.085938 25.363281 48.101562 Z M 25.363281 48.101562 "></path></g></svg> 