<?xml version="1.0" encoding="UTF-8"?> <svg xmlns="http://www.w3.org/2000/svg" xmlns:xlink="http://www.w3.org/1999/xlink" width="60pt" height="60pt" viewBox="0 0 60 60" version="1.1"><g id="surface1"><path style=" stroke:none;fill-rule:nonzero;fill:rgb(0%,0%,0%);fill-opacity:1;" d="M 21.75 27.976562 L 35.511719 27.976562 C 39.335938 27.976562 42.398438 24.8125 42.398438 20.976562 L 42.398438 7.835938 C 42.398438 4.101562 39.25 1.300781 35.511719 0.675781 C 30.898438 -0.0859375 25.886719 -0.0507812 21.75 0.6875 C 15.925781 1.726562 14.863281 3.875 14.863281 7.851562 L 14.863281 10.664062 L 28.636719 10.664062 L 28.636719 14.851562 L 9.699219 14.851562 C 5.6875 14.851562 2.1875 17.261719 1.085938 21.835938 C -0.175781 27.085938 -0.226562 30.363281 1.085938 35.835938 C 2.0625 39.914062 4.398438 42.824219 8.414062 42.824219 L 13.136719 42.824219 L 13.136719 36.539062 C 13.136719 31.976562 17.074219 27.976562 21.75 27.976562 Z M 21.75 27.976562 "></path><path style=" stroke:none;fill-rule:nonzero;fill:rgb(0%,0%,0%);fill-opacity:1;" d="M 58.574219 23.925781 C 57.585938 19.9375 55.699219 16.9375 51.6875 16.9375 L 46.511719 16.9375 L 46.511719 23.050781 C 46.511719 27.800781 42.488281 31.789062 37.898438 31.789062 L 24.136719 31.789062 C 20.375 31.789062 17.25 35.011719 17.25 38.789062 L 17.25 51.914062 C 17.25 55.648438 20.5 57.835938 24.136719 58.914062 C 28.5 60.1875 32.6875 60.425781 37.898438 58.914062 C 41.363281 57.914062 44.789062 55.886719 44.789062 51.914062 L 44.789062 49.164062 L 31.039062 49.164062 L 31.039062 44.914062 L 51.6875 44.914062 C 55.699219 44.914062 57.175781 42.113281 58.574219 37.925781 C 60.011719 33.601562 59.949219 29.449219 58.574219 23.925781 Z M 58.574219 23.925781 "></path><path style=" stroke:none;fill-rule:nonzero;fill:rgb(100%,100%,100%);fill-opacity:1;" d="M 20.886719 8.226562 C 19.511719 8.226562 18.398438 7.101562 18.398438 5.710938 C 18.414062 4.3125 19.511719 3.1875 20.886719 3.1875 C 22.25 3.1875 23.375 4.324219 23.375 5.710938 C 23.375 7.101562 22.261719 8.226562 20.886719 8.226562 Z M 20.886719 8.226562 "></path><path style=" stroke:none;fill-rule:nonzero;fill:rgb(100%,100%,100%);fill-opacity:1;" d="M 37.601562 56.773438 C 36.226562 56.773438 35.113281 55.648438 35.113281 54.261719 C 35.125 52.863281 36.226562 51.738281 37.601562 51.738281 C 38.960938 51.738281 40.085938 52.875 40.085938 54.261719 C 40.085938 55.648438 38.976562 56.773438 37.601562 56.773438 Z M 37.601562 56.773438 "></path></g></svg> 