<?xml version="1.0" encoding="UTF-8"?> <svg xmlns="http://www.w3.org/2000/svg" xmlns:xlink="http://www.w3.org/1999/xlink" width="60pt" height="60pt" viewBox="0 0 60 60" version="1.1"><g id="surface1"><path style=" stroke:none;fill-rule:nonzero;fill:rgb(0%,0%,0%);fill-opacity:1;" d="M 30 24.773438 C 27.011719 24.773438 24.761719 27.261719 24.761719 30.011719 C 24.761719 32.761719 27.25 35.25 30 35.25 C 32.75 35.25 35.238281 32.761719 35.238281 30.011719 C 35.238281 27.261719 32.988281 24.773438 30 24.773438 Z M 15.050781 40.726562 L 13.800781 40.476562 C 5.074219 37.988281 0.0859375 34.25 0.0859375 30.011719 C 0.0859375 25.773438 5.074219 21.789062 13.800781 19.789062 L 15.050781 19.289062 L 15.300781 20.539062 C 16.300781 23.523438 17.300781 26.523438 18.789062 29.511719 L 19.039062 30.011719 L 18.789062 30.511719 C 17.289062 33.5 16.300781 36.25 15.300781 39.488281 C 15.300781 39.476562 15.050781 40.726562 15.050781 40.726562 Z M 13.300781 22.273438 C 6.574219 24.273438 2.585938 27.011719 2.585938 30 C 2.585938 32.738281 6.574219 35.738281 13.300781 37.476562 C 14.050781 34.988281 15.050781 32.488281 16.289062 30 C 15.050781 27.511719 14.050781 25.023438 13.300781 22.273438 Z M 44.949219 40.726562 L 44.699219 39.476562 C 43.699219 36.488281 42.699219 33.488281 41.210938 30.5 L 40.960938 30 L 41.210938 29.5 C 42.710938 26.511719 43.699219 23.511719 44.699219 20.523438 L 44.949219 19.273438 L 46.199219 19.523438 C 54.925781 21.761719 59.914062 25.75 59.914062 29.988281 C 59.914062 34.226562 54.925781 38.210938 46.199219 40.210938 Z M 43.710938 30.011719 C 44.960938 32.5 45.949219 35.25 46.699219 37.488281 C 53.425781 35.488281 57.414062 32.75 57.414062 30.011719 C 57.414062 27.273438 53.425781 24.273438 46.699219 22.539062 C 45.949219 25.023438 44.949219 27.511719 43.710938 30.011719 Z M 13.300781 22.273438 L 13.050781 21.273438 C 10.5625 12.550781 11.300781 6.324219 15.050781 4.074219 C 18.800781 1.824219 24.773438 4.574219 31 10.800781 L 31.75 11.550781 L 31 12.550781 C 28.761719 15.039062 26.761719 17.289062 24.773438 20.023438 L 24.523438 20.523438 L 24.023438 20.523438 C 20.789062 20.773438 17.550781 21.273438 14.550781 22.023438 Z M 18.039062 5.824219 C 17.289062 5.824219 16.789062 6.074219 16.289062 6.324219 C 13.800781 7.824219 13.300781 12.800781 15.039062 19.289062 C 17.773438 18.789062 20.273438 18.289062 23.011719 18.039062 C 24.511719 15.800781 26.25 13.800781 28.25 11.8125 C 24.261719 8.074219 20.773438 5.824219 18.039062 5.824219 Z M 41.960938 56.675781 C 38.476562 56.675781 33.738281 53.9375 29 49.199219 L 28.25 48.449219 L 29 47.699219 C 31.238281 45.460938 33.238281 42.960938 34.988281 40.226562 L 35.238281 39.726562 L 35.738281 39.726562 C 38.976562 39.476562 41.960938 38.976562 45.210938 38.226562 L 46.460938 37.976562 L 46.710938 39.226562 C 49.199219 47.949219 48.460938 54.175781 44.710938 56.425781 C 43.960938 56.425781 42.960938 56.675781 41.960938 56.675781 Z M 31.75 48.199219 C 35.738281 51.9375 39.226562 54.1875 41.976562 54.1875 C 42.726562 54.1875 43.226562 53.9375 43.726562 53.6875 C 46.210938 52.1875 46.710938 47.210938 44.976562 40.476562 C 42.238281 40.976562 39.738281 41.476562 37 41.726562 C 35.238281 43.960938 33.488281 46.210938 31.75 48.199219 Z M 46.699219 22.273438 L 45.449219 22.023438 C 42.460938 21.273438 39.226562 20.773438 35.976562 20.523438 L 35.476562 20.523438 L 35.226562 20.023438 C 33.476562 17.289062 31.488281 15.039062 29.238281 12.550781 L 28.488281 11.800781 L 29.238281 11.050781 C 35.460938 4.574219 41.449219 2.074219 45.1875 4.324219 C 48.925781 6.574219 49.675781 12.800781 47.1875 21.523438 C 46.949219 21.289062 46.699219 22.273438 46.699219 22.273438 Z M 36.976562 18.039062 C 39.710938 18.289062 42.460938 18.789062 44.949219 19.289062 C 46.699219 12.5625 46.199219 7.574219 43.699219 6.074219 C 41.199219 4.574219 36.726562 6.824219 31.738281 11.5625 C 33.488281 13.800781 35.238281 15.800781 36.976562 18.039062 Z M 18.039062 56.675781 C 17.039062 56.675781 16.039062 56.425781 15.050781 55.925781 C 11.3125 53.6875 10.5625 47.449219 13.050781 38.726562 L 13.300781 37.476562 L 14.550781 37.726562 C 17.539062 38.476562 20.539062 38.976562 24.023438 39.226562 L 24.523438 39.226562 L 24.773438 39.976562 C 26.523438 42.710938 28.511719 44.960938 30.761719 47.449219 L 31.511719 48.199219 L 30.761719 48.949219 C 26.261719 53.9375 21.523438 56.675781 18.039062 56.675781 Z M 15.050781 40.726562 C 13.300781 47.449219 13.800781 52.4375 16.300781 53.9375 C 18.789062 55.4375 23.273438 53.1875 28.261719 48.449219 C 26.511719 46.449219 24.773438 44.210938 23.023438 42.226562 C 20.523438 41.726562 17.789062 41.226562 15.050781 40.726562 Z M 30 42.226562 C 28 42.226562 25.761719 42.226562 23.773438 41.976562 L 23.273438 41.976562 L 23.023438 41.476562 C 21.773438 39.726562 20.789062 37.988281 19.789062 36.238281 C 18.289062 34.238281 17.550781 32.5 16.550781 30.5 L 16.300781 30 L 16.550781 29.5 C 17.550781 27.5 18.300781 25.761719 19.539062 24.011719 C 20.539062 22.261719 21.773438 20.523438 22.773438 18.773438 L 23.023438 18.273438 L 23.523438 18.273438 C 27.761719 18.023438 32 18.023438 35.988281 18.273438 L 36.488281 18.273438 L 36.738281 18.773438 C 39.226562 22.261719 41.226562 25.75 42.960938 29.738281 L 43.210938 30.238281 L 42.960938 30.738281 C 41.210938 34.476562 38.976562 38.210938 36.738281 41.699219 L 36.488281 42.199219 L 35.988281 42.199219 C 34.238281 41.976562 32 42.226562 30 42.226562 Z M 24.511719 39.476562 C 28.25 39.726562 31.738281 39.726562 35.476562 39.476562 C 37.476562 36.488281 39.460938 33.25 40.960938 30 C 39.460938 26.761719 37.476562 23.523438 35.476562 20.523438 C 31.738281 20.273438 28.25 20.273438 24.511719 20.523438 C 22.511719 23.511719 20.523438 26.75 19.023438 30 C 20.523438 33.25 22.523438 36.488281 24.511719 39.476562 Z M 24.511719 39.476562 "></path></g></svg> 