<?xml version="1.0" encoding="UTF-8"?> <!-- Generator: Adobe Illustrator 23.0.3, SVG Export Plug-In . SVG Version: 6.00 Build 0) --> <svg xmlns="http://www.w3.org/2000/svg" xmlns:xlink="http://www.w3.org/1999/xlink" version="1.1" id="Layer_1" x="0px" y="0px" viewBox="0 0 48 48" style="enable-background:new 0 0 48 48;" xml:space="preserve"> <path d="M33.1,32.9c1.8-0.2,3-1.6,3-3.6c0-1.8-1.6-3.2-3.4-3.2h-0.2c-1.8,0-3.4,1.6-3.2,3.6c0,1,0.4,1.8,1,2.4c-2,4-5.2,7-10,9.6 c-3.2,1.6-6.6,2.4-9.8,1.8c-2.8-0.4-5-1.6-6.2-3.6c-2-3-2.2-6.2-0.6-9.4c1.2-2.4,3-4,4.2-4.8c-0.4-0.8-0.6-2-0.8-3 c-8.8,6.4-8,15.1-5.2,19.3c2,3,6.2,5,10.6,5c1.2,0,2.4,0,3.6-0.4C23.9,44.5,29.7,39.9,33.1,32.9L33.1,32.9z M43.9,25.5 C39.3,20.1,32.5,17,24.6,17h-1c-0.6-1.2-1.8-2-3.2-2l0,0c-1.8,0-3.4,1.6-3.2,3.6c0,1.8,1.6,3.2,3.4,3.2h0.2c1.4,0,2.6-0.8,3-2h1.2 c4.6,0,9,1.4,13,4c3,2,5.2,4.6,6.4,7.8c1,2.6,1,5,0,7.2c-2,3.2-4.8,5-8.6,5c-2.4,0-4.8-0.8-6-1.2c-0.8,0.6-2,1.6-2.8,2.2 c2.6,1.2,5.4,1.8,7.8,1.8c5.8,0,10.2-3.2,11.8-6.4C48.7,36.5,48.5,30.5,43.9,25.5C43.9,25.3,43.9,25.5,43.9,25.5z M12.8,33.9 c0,1.8,1.6,3.2,3.4,3.2h0.2c2,0,3.4-1.6,3.2-3.6c0-1.8-1.6-3.2-3.4-3.2l0,0c-0.2,0-0.2,0-0.4,0c-2.6-4-3.6-8.4-3.2-13.4 c0.2-3.6,1.4-6.8,3.6-9.4C18,5.2,21.4,4,23.6,4c6.4-0.2,9.2,8,9.4,11.2l3,0.8C35.5,6.2,29.3,1,23.5,1C18,1,12.8,5,10.8,10.8 c-2.8,7.8-1,15.4,2.4,21.5C13,32.7,12.8,33.3,12.8,33.9z"></path> </svg> 