<?xml version="1.0" encoding="UTF-8"?> <svg xmlns="http://www.w3.org/2000/svg" xmlns:xlink="http://www.w3.org/1999/xlink" width="60pt" height="60pt" viewBox="0 0 60 60" version="1.1"><g id="surface1"><path style=" stroke:none;fill-rule:nonzero;fill:rgb(0%,0%,0%);fill-opacity:1;" d="M 59.585938 29.238281 L 57.074219 27.675781 C 57.050781 27.425781 57.023438 27.1875 57 26.9375 L 59.164062 24.925781 C 59.386719 24.726562 59.476562 24.414062 59.425781 24.125 C 59.363281 23.824219 59.164062 23.585938 58.875 23.488281 L 56.113281 22.449219 C 56.039062 22.210938 55.976562 21.976562 55.898438 21.738281 L 57.625 19.335938 C 57.898438 18.949219 57.8125 18.414062 57.425781 18.125 C 57.3125 18.050781 57.1875 18 57.0625 17.976562 L 54.136719 17.5 C 54.023438 17.273438 53.898438 17.0625 53.789062 16.851562 L 55.011719 14.164062 C 55.136719 13.886719 55.113281 13.574219 54.949219 13.324219 C 54.789062 13.074219 54.5 12.925781 54.199219 12.9375 L 51.238281 13.039062 C 51.085938 12.851562 50.925781 12.664062 50.773438 12.476562 L 51.449219 9.585938 C 51.523438 9.300781 51.4375 8.988281 51.226562 8.773438 C 51.011719 8.5625 50.699219 8.476562 50.414062 8.550781 L 47.539062 9.226562 C 47.351562 9.0625 47.164062 8.914062 46.976562 8.761719 L 47.074219 5.800781 C 47.085938 5.5 46.9375 5.210938 46.6875 5.050781 C 46.4375 4.886719 46.125 4.863281 45.851562 4.988281 L 43.164062 6.210938 C 42.949219 6.085938 42.726562 5.976562 42.511719 5.863281 L 42.039062 2.949219 C 41.960938 2.476562 41.511719 2.164062 41.039062 2.238281 C 40.898438 2.261719 40.773438 2.3125 40.675781 2.386719 L 38.273438 4.113281 C 38.039062 4.039062 37.800781 3.960938 37.5625 3.898438 L 36.523438 1.125 C 36.425781 0.835938 36.175781 0.636719 35.886719 0.574219 C 35.585938 0.511719 35.289062 0.613281 35.085938 0.835938 L 33.0625 3 C 32.8125 2.976562 32.574219 2.949219 32.324219 2.925781 L 30.761719 0.414062 C 30.523438 0 29.988281 -0.125 29.574219 0.125 C 29.460938 0.199219 29.363281 0.289062 29.300781 0.398438 L 27.738281 2.914062 C 27.5 2.949219 27.25 2.976562 27.011719 3 L 25 0.835938 C 24.675781 0.488281 24.125 0.460938 23.773438 0.789062 C 23.675781 0.875 23.601562 0.988281 23.550781 1.125 L 22.511719 3.886719 C 22.273438 3.949219 22.039062 4.023438 21.800781 4.101562 L 19.398438 2.375 C 19.164062 2.199219 18.835938 2.164062 18.5625 2.273438 C 18.289062 2.386719 18.085938 2.636719 18.039062 2.9375 L 17.5625 5.851562 C 17.335938 5.960938 17.125 6.085938 16.914062 6.199219 L 14.226562 4.976562 C 13.949219 4.851562 13.636719 4.875 13.386719 5.039062 C 13.136719 5.199219 12.988281 5.488281 13 5.789062 L 13.101562 8.75 C 12.914062 8.898438 12.726562 9.0625 12.539062 9.210938 L 9.664062 8.539062 C 9.363281 8.476562 9.050781 8.5625 8.835938 8.773438 C 8.625 8.988281 8.539062 9.300781 8.613281 9.585938 L 9.289062 12.476562 C 9.125 12.664062 8.976562 12.851562 8.824219 13.039062 L 5.863281 12.9375 C 5.5625 12.925781 5.273438 13.074219 5.113281 13.324219 C 4.949219 13.574219 4.925781 13.886719 5.050781 14.164062 L 6.273438 16.851562 C 6.148438 17.0625 6.039062 17.289062 5.925781 17.5 L 3.011719 17.976562 C 2.539062 18.050781 2.226562 18.5 2.300781 18.976562 C 2.324219 19.113281 2.375 19.238281 2.449219 19.335938 L 4.175781 21.738281 C 4.101562 21.976562 4.023438 22.210938 3.960938 22.449219 L 1.199219 23.488281 C 0.75 23.648438 0.523438 24.148438 0.6875 24.601562 C 0.738281 24.726562 0.8125 24.835938 0.914062 24.925781 L 3.074219 26.9375 C 3.050781 27.175781 3.023438 27.425781 3 27.675781 L 0.488281 29.238281 C 0.238281 29.398438 0.0742188 29.675781 0.0742188 29.976562 C 0.0742188 30.273438 0.226562 30.550781 0.488281 30.710938 L 3 32.273438 C 3.023438 32.523438 3.050781 32.761719 3.074219 33.011719 L 0.914062 35.023438 C 0.5625 35.351562 0.539062 35.898438 0.875 36.25 C 0.960938 36.351562 1.074219 36.425781 1.199219 36.476562 L 3.960938 37.511719 C 4.039062 37.75 4.101562 37.988281 4.175781 38.226562 L 2.449219 40.625 C 2.175781 41.011719 2.261719 41.550781 2.648438 41.835938 C 2.761719 41.914062 2.886719 41.960938 3.023438 41.988281 L 5.9375 42.460938 C 6.050781 42.6875 6.164062 42.898438 6.289062 43.113281 L 5.0625 45.800781 C 4.9375 46.074219 4.960938 46.386719 5.125 46.636719 C 5.289062 46.886719 5.574219 47.039062 5.875 47.023438 L 8.835938 46.925781 C 8.988281 47.113281 9.148438 47.300781 9.300781 47.488281 L 8.625 50.375 C 8.550781 50.664062 8.636719 50.976562 8.851562 51.1875 C 9.0625 51.398438 9.375 51.488281 9.664062 51.414062 L 12.539062 50.738281 C 12.726562 50.898438 12.914062 51.050781 13.101562 51.199219 L 13 54.164062 C 12.988281 54.636719 13.351562 55.039062 13.835938 55.0625 C 13.976562 55.0625 14.101562 55.039062 14.226562 54.988281 L 16.914062 53.761719 C 17.125 53.886719 17.351562 54 17.5625 54.113281 L 18.039062 57.023438 C 18.085938 57.324219 18.289062 57.574219 18.5625 57.6875 C 18.835938 57.800781 19.164062 57.761719 19.398438 57.585938 L 21.800781 55.863281 C 22.039062 55.9375 22.273438 56.011719 22.511719 56.074219 L 23.550781 58.835938 C 23.648438 59.125 23.898438 59.324219 24.1875 59.386719 C 24.488281 59.449219 24.789062 59.351562 24.988281 59.125 L 27 56.960938 C 27.238281 56.988281 27.488281 57.011719 27.738281 57.039062 L 29.300781 59.550781 C 29.460938 59.800781 29.738281 59.960938 30.039062 59.960938 C 30.335938 59.960938 30.613281 59.8125 30.773438 59.550781 L 32.335938 57.039062 C 32.585938 57.011719 32.824219 56.988281 33.074219 56.960938 L 35.085938 59.125 C 35.289062 59.351562 35.601562 59.4375 35.886719 59.386719 C 36.1875 59.324219 36.425781 59.125 36.523438 58.835938 L 37.5625 56.074219 C 37.800781 56 38.039062 55.9375 38.273438 55.863281 L 40.675781 57.585938 C 41.0625 57.863281 41.601562 57.773438 41.886719 57.386719 C 41.960938 57.273438 42.011719 57.148438 42.039062 57.023438 L 42.5 54.074219 C 42.726562 53.960938 42.9375 53.835938 43.148438 53.726562 L 45.835938 54.949219 C 46.273438 55.148438 46.789062 54.960938 46.988281 54.523438 C 47.050781 54.398438 47.074219 54.261719 47.0625 54.136719 L 46.960938 51.175781 C 47.148438 51.023438 47.335938 50.863281 47.523438 50.710938 L 50.398438 51.386719 C 50.6875 51.460938 51 51.375 51.210938 51.164062 C 51.425781 50.949219 51.511719 50.648438 51.4375 50.351562 L 50.761719 47.460938 C 50.925781 47.273438 51.074219 47.085938 51.226562 46.898438 L 54.1875 47 C 54.488281 47.011719 54.773438 46.863281 54.9375 46.613281 C 55.101562 46.363281 55.125 46.050781 55 45.773438 L 53.773438 43.085938 C 53.898438 42.875 54.011719 42.648438 54.125 42.4375 L 57.039062 41.960938 C 57.335938 41.914062 57.585938 41.710938 57.699219 41.4375 C 57.8125 41.164062 57.773438 40.835938 57.601562 40.601562 L 55.875 38.199219 C 55.949219 37.960938 56.023438 37.726562 56.085938 37.488281 L 58.851562 36.449219 C 59.136719 36.351562 59.335938 36.101562 59.398438 35.8125 C 59.460938 35.511719 59.363281 35.210938 59.136719 35.011719 L 57 33 C 57.023438 32.761719 57.050781 32.511719 57.074219 32.261719 L 59.585938 30.699219 C 59.835938 30.539062 60 30.261719 60 29.960938 C 60 29.675781 59.851562 29.386719 59.585938 29.238281 Z M 42.75 50.101562 C 41.789062 49.886719 41.175781 48.949219 41.386719 47.988281 C 41.585938 47.023438 42.539062 46.414062 43.5 46.625 C 44.460938 46.824219 45.074219 47.773438 44.863281 48.738281 C 44.664062 49.699219 43.710938 50.3125 42.75 50.101562 Z M 41.898438 44.324219 C 41.023438 44.136719 40.164062 44.699219 39.976562 45.574219 L 39.085938 49.75 C 36.324219 51 33.273438 51.699219 30.050781 51.699219 C 26.75 51.699219 23.625 50.976562 20.824219 49.664062 L 19.9375 45.5 C 19.75 44.625 18.886719 44.0625 18.011719 44.25 L 14.335938 45.039062 C 13.648438 44.335938 13.011719 43.585938 12.4375 42.800781 L 30.351562 42.800781 C 30.550781 42.800781 30.6875 42.761719 30.6875 42.574219 L 30.6875 36.238281 C 30.6875 36.050781 30.550781 36.011719 30.351562 36.011719 L 25.113281 36.011719 L 25.113281 32 L 30.773438 32 C 31.289062 32 33.539062 32.148438 34.261719 35.023438 C 34.488281 35.914062 34.988281 38.789062 35.324219 39.699219 C 35.664062 40.738281 37.039062 42.789062 38.488281 42.789062 L 47.414062 42.789062 C 47.511719 42.789062 47.625 42.773438 47.738281 42.75 C 47.113281 43.585938 46.4375 44.386719 45.710938 45.125 Z M 17.125 50.011719 C 16.164062 50.226562 15.210938 49.613281 15.011719 48.648438 C 14.8125 47.6875 15.414062 46.738281 16.375 46.539062 C 17.335938 46.335938 18.289062 46.949219 18.488281 47.914062 C 18.699219 48.863281 18.085938 49.8125 17.125 50.011719 Z M 10.335938 22.476562 C 10.738281 23.375 10.324219 24.425781 9.4375 24.824219 C 8.539062 25.226562 7.488281 24.8125 7.085938 23.914062 C 6.6875 23.011719 7.101562 21.960938 7.988281 21.5625 C 8.886719 21.164062 9.9375 21.574219 10.335938 22.476562 Z M 8.25 27.425781 L 12.085938 25.726562 C 12.914062 25.363281 13.273438 24.398438 12.914062 23.574219 L 12.125 21.789062 L 15.226562 21.789062 L 15.226562 35.789062 L 8.960938 35.789062 C 8.414062 33.835938 8.125 31.8125 8.125 29.773438 C 8.125 28.976562 8.164062 28.1875 8.25 27.425781 Z M 25.074219 26.0625 L 25.074219 21.9375 L 32.476562 21.9375 C 32.863281 21.9375 35.175781 22.375 35.175781 24.113281 C 35.175781 25.550781 33.398438 26.0625 31.9375 26.0625 Z M 51.949219 29.773438 C 51.949219 30.324219 51.925781 30.863281 51.886719 31.398438 L 49.636719 31.398438 C 49.414062 31.398438 49.324219 31.550781 49.324219 31.761719 L 49.324219 32.800781 C 49.324219 35.226562 47.949219 35.761719 46.75 35.886719 C 45.613281 36.011719 44.335938 35.414062 44.1875 34.710938 C 43.511719 30.914062 42.386719 30.113281 40.613281 28.710938 C 42.8125 27.3125 45.113281 25.25 45.113281 22.488281 C 45.113281 19.5 43.0625 17.625 41.675781 16.699219 C 39.726562 15.414062 37.550781 15.148438 36.976562 15.148438 L 13.726562 15.148438 C 16.875 11.625 21.148438 9.136719 25.988281 8.238281 L 28.726562 11.113281 C 29.335938 11.761719 30.363281 11.789062 31.011719 11.164062 L 34.074219 8.226562 C 40.5 9.425781 45.9375 13.425781 49.074219 18.914062 L 46.976562 23.648438 C 46.613281 24.476562 46.988281 25.425781 47.800781 25.800781 L 51.835938 27.601562 C 51.914062 28.3125 51.949219 29.039062 51.949219 29.773438 Z M 28.710938 5.789062 C 29.425781 5.113281 30.550781 5.136719 31.226562 5.851562 C 31.898438 6.5625 31.875 7.6875 31.164062 8.375 C 30.449219 9.050781 29.324219 9.023438 28.648438 8.3125 C 27.976562 7.601562 28 6.476562 28.710938 5.789062 Z M 49.539062 22.5625 C 49.9375 21.664062 50.988281 21.261719 51.886719 21.648438 C 52.789062 22.050781 53.1875 23.101562 52.789062 24 C 52.386719 24.898438 51.335938 25.300781 50.4375 24.914062 C 49.550781 24.511719 49.148438 23.460938 49.539062 22.5625 Z M 49.539062 22.5625 "></path></g></svg> 