<?xml version="1.0" encoding="UTF-8"?> <svg xmlns="http://www.w3.org/2000/svg" xmlns:xlink="http://www.w3.org/1999/xlink" width="60pt" height="60pt" viewBox="0 0 60 60" version="1.1"><g id="surface1"><path style=" stroke:none;fill-rule:nonzero;fill:rgb(0%,0%,0%);fill-opacity:1;" d="M 24.960938 12.324219 C 26.898438 10.3125 29.585938 9.0625 32.574219 9.0625 C 36.539062 9.0625 39.988281 11.273438 41.835938 14.550781 C 43.4375 13.835938 45.210938 13.4375 47.074219 13.4375 C 54.210938 13.4375 60.011719 19.273438 60.011719 26.488281 C 60.011719 33.699219 54.226562 39.539062 47.074219 39.539062 C 46.226562 39.539062 45.363281 39.449219 44.523438 39.289062 C 42.898438 42.175781 39.8125 44.125 36.273438 44.125 C 34.789062 44.125 33.386719 43.789062 32.136719 43.175781 C 30.5 47.039062 26.664062 49.75 22.210938 49.75 C 17.5625 49.75 13.613281 46.8125 12.085938 42.6875 C 11.425781 42.824219 10.738281 42.898438 10.023438 42.898438 C 4.488281 42.898438 0 38.375 0 32.773438 C 0 29.023438 2.011719 25.761719 5.011719 24.011719 C 4.398438 22.601562 4.050781 21.023438 4.050781 19.386719 C 4.050781 12.960938 9.261719 7.75 15.699219 7.75 C 19.476562 7.75 22.835938 9.550781 24.960938 12.324219 "></path><path style=" stroke:none;fill-rule:nonzero;fill:rgb(100%,100%,100%);fill-opacity:1;" d="M 8.6875 29.523438 C 8.648438 29.625 8.699219 29.648438 8.710938 29.664062 C 8.824219 29.75 8.9375 29.800781 9.050781 29.875 C 9.664062 30.199219 10.238281 30.300781 10.851562 30.300781 C 12.074219 30.300781 12.851562 29.648438 12.851562 28.585938 L 12.851562 28.5625 C 12.851562 27.585938 11.988281 27.238281 11.175781 26.976562 L 11.074219 26.9375 C 10.460938 26.738281 9.9375 26.5625 9.9375 26.164062 L 9.9375 26.136719 C 9.9375 25.800781 10.25 25.539062 10.726562 25.539062 C 11.25 25.539062 11.886719 25.710938 12.289062 25.9375 C 12.289062 25.9375 12.414062 26.011719 12.449219 25.898438 C 12.476562 25.835938 12.675781 25.289062 12.699219 25.226562 C 12.726562 25.164062 12.6875 25.113281 12.636719 25.085938 C 12.175781 24.824219 11.539062 24.625 10.875 24.625 L 10.75 24.625 C 9.625 24.625 8.835938 25.300781 8.835938 26.273438 L 8.835938 26.300781 C 8.835938 27.324219 9.699219 27.664062 10.511719 27.898438 L 10.636719 27.9375 C 11.226562 28.125 11.738281 28.273438 11.738281 28.6875 L 11.738281 28.710938 C 11.738281 29.085938 11.398438 29.375 10.875 29.375 C 10.664062 29.375 10 29.375 9.289062 28.914062 C 9.199219 28.863281 9.148438 28.824219 9.085938 28.789062 C 9.050781 28.761719 8.960938 28.726562 8.925781 28.835938 Z M 26.710938 29.523438 C 26.675781 29.625 26.726562 29.648438 26.738281 29.664062 C 26.851562 29.75 26.960938 29.800781 27.074219 29.875 C 27.6875 30.199219 28.261719 30.300781 28.875 30.300781 C 30.101562 30.300781 30.875 29.648438 30.875 28.585938 L 30.875 28.5625 C 30.875 27.585938 30.011719 27.238281 29.199219 26.976562 L 29.101562 26.9375 C 28.488281 26.738281 27.960938 26.5625 27.960938 26.164062 L 27.960938 26.136719 C 27.960938 25.800781 28.273438 25.539062 28.75 25.539062 C 29.273438 25.539062 29.914062 25.710938 30.3125 25.9375 C 30.3125 25.9375 30.4375 26.011719 30.476562 25.898438 C 30.5 25.835938 30.699219 25.289062 30.726562 25.226562 C 30.75 25.164062 30.710938 25.113281 30.664062 25.085938 C 30.199219 24.8125 29.5625 24.613281 28.898438 24.613281 L 28.773438 24.613281 C 27.648438 24.613281 26.863281 25.289062 26.863281 26.261719 L 26.863281 26.289062 C 26.863281 27.3125 27.726562 27.648438 28.539062 27.886719 L 28.664062 27.925781 C 29.25 28.113281 29.761719 28.261719 29.761719 28.675781 L 29.761719 28.699219 C 29.761719 29.074219 29.425781 29.363281 28.898438 29.363281 C 28.6875 29.363281 28.023438 29.363281 27.3125 28.898438 C 27.226562 28.851562 27.175781 28.8125 27.113281 28.773438 C 27.085938 28.761719 26.988281 28.726562 26.949219 28.824219 Z M 39.011719 27.460938 C 39.011719 28.0625 38.898438 28.523438 38.6875 28.863281 C 38.476562 29.1875 38.148438 29.351562 37.6875 29.351562 C 37.226562 29.351562 36.898438 29.1875 36.6875 28.863281 C 36.476562 28.539062 36.363281 28.0625 36.363281 27.460938 C 36.363281 26.863281 36.476562 26.398438 36.6875 26.074219 C 36.898438 25.75 37.226562 25.585938 37.6875 25.585938 C 38.148438 25.585938 38.476562 25.75 38.6875 26.074219 C 38.898438 26.398438 39.011719 26.875 39.011719 27.460938 M 40.039062 26.363281 C 39.9375 26.023438 39.773438 25.726562 39.574219 25.476562 C 39.363281 25.226562 39.101562 25.023438 38.789062 24.875 C 38.476562 24.726562 38.101562 24.648438 37.6875 24.648438 C 37.273438 24.648438 36.898438 24.726562 36.585938 24.875 C 36.273438 25.023438 36.011719 25.226562 35.800781 25.476562 C 35.585938 25.726562 35.4375 26.023438 35.335938 26.363281 C 35.238281 26.699219 35.1875 27.074219 35.1875 27.460938 C 35.1875 27.851562 35.238281 28.226562 35.335938 28.5625 C 35.4375 28.898438 35.601562 29.199219 35.800781 29.449219 C 36.011719 29.699219 36.273438 29.898438 36.585938 30.050781 C 36.898438 30.1875 37.273438 30.261719 37.6875 30.261719 C 38.101562 30.261719 38.476562 30.1875 38.789062 30.050781 C 39.101562 29.914062 39.363281 29.710938 39.574219 29.449219 C 39.789062 29.199219 39.9375 28.898438 40.039062 28.5625 C 40.136719 28.226562 40.1875 27.851562 40.1875 27.460938 C 40.1875 27.074219 40.136719 26.699219 40.039062 26.363281 M 48.476562 29.1875 C 48.4375 29.085938 48.351562 29.125 48.351562 29.125 C 48.199219 29.1875 48.039062 29.238281 47.875 29.261719 C 47.699219 29.289062 47.511719 29.300781 47.3125 29.300781 C 46.8125 29.300781 46.425781 29.148438 46.136719 28.863281 C 45.851562 28.574219 45.699219 28.101562 45.699219 27.460938 C 45.699219 26.875 45.835938 26.4375 46.101562 26.113281 C 46.351562 25.773438 46.738281 25.613281 47.238281 25.613281 C 47.664062 25.613281 47.988281 25.664062 48.324219 25.761719 C 48.324219 25.761719 48.398438 25.800781 48.449219 25.6875 C 48.539062 25.4375 48.613281 25.261719 48.699219 24.988281 C 48.726562 24.914062 48.664062 24.875 48.636719 24.863281 C 48.5 24.8125 48.1875 24.726562 47.949219 24.6875 C 47.726562 24.648438 47.460938 24.636719 47.175781 24.636719 C 46.738281 24.636719 46.363281 24.710938 46.023438 24.863281 C 45.699219 25.011719 45.414062 25.210938 45.199219 25.460938 C 44.976562 25.710938 44.8125 26.011719 44.699219 26.351562 C 44.585938 26.6875 44.539062 27.0625 44.539062 27.449219 C 44.539062 28.300781 44.761719 28.988281 45.226562 29.5 C 45.675781 30 46.363281 30.261719 47.25 30.261719 C 47.773438 30.261719 48.3125 30.148438 48.699219 30 C 48.699219 30 48.773438 29.960938 48.738281 29.875 Z M 50.273438 26.886719 C 50.324219 26.5625 50.414062 26.289062 50.550781 26.0625 C 50.761719 25.738281 51.085938 25.5625 51.550781 25.5625 C 52.011719 25.5625 52.3125 25.738281 52.523438 26.0625 C 52.664062 26.273438 52.726562 26.5625 52.75 26.886719 Z M 53.726562 26.164062 C 53.636719 25.835938 53.425781 25.5 53.273438 25.351562 C 53.050781 25.113281 52.835938 24.9375 52.613281 24.851562 C 52.324219 24.726562 51.988281 24.648438 51.613281 24.648438 C 51.175781 24.648438 50.789062 24.726562 50.460938 24.875 C 50.136719 25.023438 49.875 25.226562 49.664062 25.488281 C 49.449219 25.738281 49.289062 26.050781 49.1875 26.386719 C 49.085938 26.726562 49.039062 27.101562 49.039062 27.5 C 49.039062 27.898438 49.085938 28.273438 49.199219 28.613281 C 49.300781 28.949219 49.476562 29.25 49.699219 29.5 C 49.925781 29.75 50.226562 29.9375 50.574219 30.074219 C 50.925781 30.210938 51.351562 30.273438 51.835938 30.273438 C 52.835938 30.273438 53.375 30.050781 53.585938 29.925781 C 53.625 29.898438 53.664062 29.863281 53.613281 29.761719 L 53.386719 29.125 C 53.351562 29.023438 53.261719 29.0625 53.261719 29.0625 C 53.011719 29.148438 52.664062 29.324219 51.835938 29.324219 C 51.300781 29.324219 50.898438 29.164062 50.648438 28.914062 C 50.386719 28.664062 50.261719 28.289062 50.25 27.75 L 53.726562 27.75 C 53.726562 27.75 53.8125 27.75 53.824219 27.664062 C 53.835938 27.625 53.949219 26.949219 53.726562 26.164062 M 22.414062 26.886719 C 22.460938 26.5625 22.550781 26.289062 22.6875 26.0625 C 22.898438 25.738281 23.226562 25.5625 23.6875 25.5625 C 24.148438 25.5625 24.449219 25.738281 24.664062 26.0625 C 24.800781 26.273438 24.863281 26.5625 24.886719 26.886719 Z M 25.875 26.164062 C 25.789062 25.835938 25.574219 25.5 25.425781 25.351562 C 25.199219 25.113281 24.988281 24.9375 24.761719 24.851562 C 24.476562 24.726562 24.136719 24.648438 23.761719 24.648438 C 23.324219 24.648438 22.9375 24.726562 22.613281 24.875 C 22.289062 25.023438 22.023438 25.226562 21.8125 25.488281 C 21.601562 25.738281 21.4375 26.050781 21.335938 26.386719 C 21.25 26.726562 21.199219 27.101562 21.199219 27.5 C 21.199219 27.898438 21.25 28.273438 21.363281 28.613281 C 21.460938 28.949219 21.636719 29.25 21.863281 29.5 C 22.085938 29.75 22.386719 29.9375 22.738281 30.074219 C 23.085938 30.210938 23.511719 30.273438 24 30.273438 C 25 30.273438 25.539062 30.050781 25.75 29.925781 C 25.789062 29.898438 25.824219 29.863281 25.773438 29.761719 L 25.550781 29.125 C 25.511719 29.023438 25.414062 29.0625 25.414062 29.0625 C 25.164062 29.148438 24.8125 29.324219 23.988281 29.324219 C 23.449219 29.324219 23.050781 29.164062 22.800781 28.914062 C 22.539062 28.664062 22.414062 28.289062 22.398438 27.75 L 25.875 27.75 C 25.875 27.75 25.960938 27.75 25.976562 27.664062 C 25.988281 27.625 26.101562 26.949219 25.875 26.164062 M 14.898438 29.175781 C 14.761719 29.0625 14.75 29.039062 14.699219 28.976562 C 14.636719 28.863281 14.601562 28.710938 14.601562 28.523438 C 14.601562 28.226562 14.699219 28 14.914062 27.851562 C 14.914062 27.851562 15.210938 27.585938 15.925781 27.601562 C 16.425781 27.613281 16.863281 27.675781 16.863281 27.675781 L 16.863281 29.25 C 16.863281 29.25 16.425781 29.351562 15.925781 29.375 C 15.210938 29.414062 14.898438 29.175781 14.898438 29.175781 M 16.289062 26.726562 C 16.148438 26.710938 15.960938 26.710938 15.75 26.710938 C 15.449219 26.710938 15.164062 26.75 14.886719 26.824219 C 14.613281 26.898438 14.375 27.011719 14.164062 27.164062 C 13.949219 27.3125 13.773438 27.511719 13.664062 27.738281 C 13.539062 27.960938 13.476562 28.238281 13.476562 28.539062 C 13.476562 28.851562 13.523438 29.113281 13.636719 29.335938 C 13.738281 29.5625 13.898438 29.738281 14.085938 29.875 C 14.273438 30.011719 14.523438 30.125 14.800781 30.1875 C 15.074219 30.25 15.386719 30.289062 15.726562 30.289062 C 16.085938 30.289062 16.4375 30.261719 16.789062 30.199219 C 17.125 30.136719 17.550781 30.0625 17.664062 30.023438 C 17.75 30 17.824219 29.988281 17.898438 29.960938 C 17.988281 29.9375 17.976562 29.851562 17.976562 29.851562 L 17.976562 26.675781 C 17.976562 25.976562 17.789062 25.460938 17.425781 25.136719 C 17.0625 24.8125 16.523438 24.648438 15.824219 24.648438 C 15.5625 24.648438 15.148438 24.6875 14.886719 24.738281 C 14.886719 24.738281 14.125 24.886719 13.8125 25.125 C 13.8125 25.125 13.75 25.164062 13.789062 25.261719 L 14.039062 25.925781 C 14.0625 26.011719 14.148438 25.988281 14.148438 25.988281 C 14.148438 25.988281 14.175781 25.976562 14.210938 25.960938 C 14.886719 25.601562 15.726562 25.613281 15.726562 25.613281 C 16.101562 25.613281 16.386719 25.6875 16.585938 25.835938 C 16.773438 25.988281 16.875 26.199219 16.875 26.664062 L 16.875 26.8125 C 16.5625 26.75 16.289062 26.726562 16.289062 26.726562 M 44.335938 24.9375 C 44.363281 24.863281 44.3125 24.824219 44.289062 24.8125 C 44.226562 24.789062 43.9375 24.726562 43.699219 24.710938 C 43.261719 24.6875 43.023438 24.761719 42.800781 24.863281 C 42.585938 24.960938 42.351562 25.113281 42.210938 25.300781 L 42.210938 24.875 C 42.210938 24.8125 42.175781 24.773438 42.113281 24.773438 L 41.226562 24.773438 C 41.164062 24.773438 41.125 24.824219 41.125 24.875 L 41.125 30.0625 C 41.125 30.125 41.175781 30.164062 41.226562 30.164062 L 42.136719 30.164062 C 42.199219 30.164062 42.238281 30.113281 42.238281 30.0625 L 42.238281 27.476562 C 42.238281 27.125 42.273438 26.773438 42.351562 26.5625 C 42.425781 26.351562 42.523438 26.175781 42.648438 26.050781 C 42.773438 25.925781 42.925781 25.835938 43.074219 25.789062 C 43.238281 25.738281 43.414062 25.726562 43.539062 25.726562 C 43.726562 25.726562 43.925781 25.773438 43.925781 25.773438 C 43.988281 25.789062 44.023438 25.738281 44.050781 25.675781 C 44.136719 25.5 44.300781 25.023438 44.335938 24.9375 "></path><path style=" stroke:none;fill-rule:nonzero;fill:rgb(100%,100%,100%);fill-opacity:1;" d="M 35.761719 22.523438 C 35.648438 22.488281 35.550781 22.460938 35.425781 22.4375 C 35.289062 22.414062 35.136719 22.398438 34.949219 22.398438 C 34.324219 22.398438 33.824219 22.574219 33.476562 22.925781 C 33.125 23.273438 32.886719 23.800781 32.773438 24.5 L 32.738281 24.738281 L 31.949219 24.738281 C 31.949219 24.738281 31.851562 24.738281 31.835938 24.835938 L 31.710938 25.5625 C 31.699219 25.625 31.738281 25.675781 31.824219 25.675781 L 32.585938 25.675781 L 31.8125 30.023438 C 31.75 30.375 31.6875 30.664062 31.601562 30.886719 C 31.523438 31.101562 31.449219 31.261719 31.363281 31.386719 C 31.273438 31.5 31.1875 31.585938 31.050781 31.636719 C 30.925781 31.675781 30.789062 31.699219 30.636719 31.699219 C 30.550781 31.699219 30.4375 31.6875 30.363281 31.675781 C 30.273438 31.664062 30.238281 31.636719 30.175781 31.613281 C 30.175781 31.613281 30.085938 31.574219 30.050781 31.664062 C 30.023438 31.738281 29.8125 32.300781 29.789062 32.375 C 29.761719 32.449219 29.800781 32.5 29.835938 32.511719 C 29.9375 32.550781 30.011719 32.574219 30.148438 32.601562 C 30.335938 32.648438 30.511719 32.648438 30.664062 32.648438 C 30.988281 32.648438 31.273438 32.601562 31.511719 32.511719 C 31.75 32.425781 31.960938 32.273438 32.148438 32.0625 C 32.351562 31.835938 32.476562 31.601562 32.601562 31.289062 C 32.726562 30.976562 32.824219 30.574219 32.898438 30.125 L 33.6875 25.6875 L 34.835938 25.6875 C 34.835938 25.6875 34.9375 25.6875 34.949219 25.585938 L 35.074219 24.863281 C 35.085938 24.789062 35.050781 24.75 34.960938 24.75 L 33.851562 24.75 C 33.851562 24.726562 33.914062 24.335938 34.039062 23.960938 C 34.085938 23.800781 34.199219 23.675781 34.273438 23.585938 C 34.363281 23.5 34.460938 23.4375 34.5625 23.414062 C 34.675781 23.375 34.800781 23.363281 34.9375 23.363281 C 35.039062 23.363281 35.148438 23.375 35.226562 23.386719 C 35.335938 23.414062 35.375 23.425781 35.398438 23.425781 C 35.511719 23.460938 35.523438 23.425781 35.550781 23.375 L 35.8125 22.648438 C 35.851562 22.574219 35.789062 22.539062 35.761719 22.523438 M 20.226562 30.050781 C 20.226562 30.113281 20.1875 30.148438 20.125 30.148438 L 19.199219 30.148438 C 19.136719 30.148438 19.101562 30.101562 19.101562 30.050781 L 19.101562 22.625 C 19.101562 22.5625 19.136719 22.523438 19.199219 22.523438 L 20.125 22.523438 C 20.1875 22.523438 20.226562 22.574219 20.226562 22.625 Z M 20.226562 30.050781 "></path></g></svg> 