<?xml version="1.0" encoding="UTF-8"?> <svg xmlns="http://www.w3.org/2000/svg" xmlns:xlink="http://www.w3.org/1999/xlink" width="60pt" height="60pt" viewBox="0 0 60 60" version="1.1"><g id="surface1"><path style=" stroke:none;fill-rule:evenodd;fill:rgb(0%,0%,0%);fill-opacity:1;" d="M 57.988281 19.136719 C 59.039062 19.136719 59.960938 18.210938 59.960938 17.039062 C 59.960938 15.9375 59.023438 15.0625 57.988281 15.0625 C 56.886719 15.0625 55.886719 15.9375 55.886719 17.039062 C 55.886719 18.199219 56.875 19.136719 57.988281 19.136719 Z M 57.988281 18.835938 C 56.9375 18.835938 56.1875 18.074219 56.1875 17.039062 C 56.1875 16.113281 56.949219 15.351562 57.988281 15.351562 C 58.925781 15.351562 59.675781 16.101562 59.675781 17.039062 C 59.675781 18.085938 58.914062 18.835938 57.988281 18.835938 Z M 57.988281 18.835938 "></path><path style=" stroke:none;fill-rule:evenodd;fill:rgb(0%,0%,0%);fill-opacity:1;" d="M 57.460938 17.273438 L 58.164062 17.273438 C 58.449219 17.273438 58.511719 17.449219 58.511719 17.625 C 58.511719 17.6875 58.511719 18.039062 58.574219 18.210938 L 58.925781 18.210938 L 58.925781 18.101562 C 58.863281 18.039062 58.8125 18.039062 58.8125 17.925781 L 58.8125 17.574219 C 58.8125 17.289062 58.699219 17.226562 58.574219 17.164062 C 58.75 17.050781 58.863281 16.925781 58.863281 16.574219 C 58.863281 16.164062 58.511719 15.988281 58.164062 15.988281 L 57.175781 15.988281 L 57.175781 18.199219 L 57.460938 18.199219 Z M 57.460938 16.273438 L 58.164062 16.273438 C 58.335938 16.273438 58.574219 16.273438 58.574219 16.625 C 58.574219 16.914062 58.335938 16.976562 58.113281 16.976562 L 57.476562 16.976562 L 57.476562 16.273438 Z M 0.375 15 L 27.148438 15 L 27.148438 41.824219 L 0.375 41.824219 Z M 55.136719 15 L 28.3125 15 L 28.3125 41.824219 Z M 55.136719 15 "></path><path style=" stroke:none;fill-rule:evenodd;fill:rgb(100%,100%,100%);fill-opacity:1;" d="M 21.5 39.085938 L 23.601562 39.085938 C 26.6875 39.085938 27.261719 36.460938 27.148438 35.710938 C 26.976562 33.851562 25.574219 32.6875 23.664062 32.6875 L 18.539062 32.6875 L 18.539062 42.0625 L 21.5 42.0625 Z M 21.5 36.875 L 21.5 34.835938 L 22.773438 34.835938 C 23.824219 34.835938 24.226562 35.074219 24.226562 35.824219 C 24.226562 36.175781 24.226562 36.875 23.0625 36.875 Z M 21.5 36.875 "></path><path style=" stroke:none;fill-rule:evenodd;fill:rgb(100%,100%,100%);fill-opacity:1;" d="M 12.074219 40.085938 L 15.039062 40.085938 L 15.800781 42.0625 L 18.9375 42.0625 L 15.386719 32.6875 L 11.835938 32.6875 L 8.226562 42.0625 L 11.25 42.0625 Z M 13.636719 35.3125 L 14.6875 38.101562 L 12.648438 38.101562 Z M 13.636719 35.3125 "></path><path style=" stroke:none;fill-rule:evenodd;fill:rgb(100%,100%,100%);fill-opacity:1;" d="M 0.199219 39.085938 L 0.199219 39.613281 C 0.199219 41.476562 2.476562 42.175781 4.625 42.175781 C 7.539062 42.175781 9.273438 41.125 9.273438 39.085938 C 9.273438 35.824219 3.449219 36.8125 3.449219 34.898438 C 3.449219 34.199219 3.976562 33.976562 4.789062 33.976562 C 5.3125 33.976562 5.488281 34.085938 5.664062 34.210938 C 6.011719 34.449219 6.011719 34.738281 6.011719 35.261719 L 9.101562 35.261719 L 9.101562 35.023438 C 9.101562 33.625 7.875 32.460938 4.789062 32.460938 C 1.414062 32.460938 0.363281 33.738281 0.363281 35.25 C 0.363281 38.5625 6.1875 37.523438 6.1875 39.5625 C 6.1875 39.976562 5.835938 40.550781 4.613281 40.550781 C 3.625 40.550781 3.273438 40.085938 3.273438 39.386719 L 3.273438 39.101562 L 0.199219 39.101562 Z M 0.199219 39.085938 "></path></g></svg> 