<?xml version="1.0" encoding="UTF-8"?> <svg xmlns="http://www.w3.org/2000/svg" xmlns:xlink="http://www.w3.org/1999/xlink" width="60pt" height="60pt" viewBox="0 0 60 60" version="1.1"><g id="surface1"><path style=" stroke:none;fill-rule:nonzero;fill:rgb(0%,0%,0%);fill-opacity:1;" d="M 51.613281 32.0625 C 49.511719 32.074219 47.699219 32.574219 46.175781 33.324219 C 45.613281 32.210938 45.050781 31.238281 44.960938 30.511719 C 44.863281 29.675781 44.726562 29.148438 44.863281 28.148438 C 44.988281 27.136719 45.574219 25.710938 45.574219 25.601562 C 45.5625 25.5 45.449219 24.976562 44.238281 24.960938 C 43.039062 24.949219 41.988281 25.199219 41.875 25.511719 C 41.761719 25.824219 41.523438 26.550781 41.375 27.300781 C 41.164062 28.398438 38.960938 32.300781 37.710938 34.351562 C 37.300781 33.550781 36.949219 32.851562 36.875 32.289062 C 36.773438 31.449219 36.636719 30.925781 36.773438 29.925781 C 36.898438 28.914062 37.488281 27.488281 37.488281 27.375 C 37.476562 27.273438 37.363281 26.75 36.148438 26.738281 C 34.9375 26.726562 33.898438 26.976562 33.789062 27.289062 C 33.675781 27.601562 33.539062 28.351562 33.289062 29.074219 C 33.039062 29.800781 30.113281 36.3125 29.351562 38.011719 C 28.960938 38.875 28.625 39.574219 28.375 40.039062 C 28.125 40.5 28.363281 40.074219 28.335938 40.125 C 28.125 40.523438 28.011719 40.75 28.011719 40.75 L 28.011719 40.761719 C 27.851562 41.050781 27.675781 41.335938 27.585938 41.335938 C 27.523438 41.335938 27.414062 40.550781 27.613281 39.476562 C 28.050781 37.210938 29.101562 33.6875 29.085938 33.5625 C 29.085938 33.5 29.289062 32.886719 28.414062 32.5625 C 27.5625 32.25 27.25 32.773438 27.1875 32.773438 C 27.113281 32.773438 27.0625 32.960938 27.0625 32.960938 C 27.0625 32.960938 28.011719 28.988281 25.25 28.988281 C 23.511719 28.988281 21.125 30.875 19.949219 32.601562 C 19.199219 33.011719 17.613281 33.875 15.925781 34.800781 C 15.273438 35.148438 14.613281 35.523438 13.976562 35.863281 L 13.851562 35.726562 C 10.5 32.148438 4.300781 29.625 4.5625 24.824219 C 4.648438 23.074219 5.261719 18.476562 16.460938 12.898438 C 25.636719 8.335938 32.976562 9.585938 34.25 12.375 C 36.0625 16.363281 30.324219 23.761719 20.789062 24.824219 C 17.164062 25.238281 15.25 23.824219 14.761719 23.300781 C 14.261719 22.75 14.1875 22.726562 14 22.835938 C 13.699219 23 13.886719 23.488281 14 23.789062 C 14.273438 24.523438 15.449219 25.835938 17.4375 26.488281 C 19.1875 27.0625 23.449219 27.375 28.601562 25.386719 C 34.375 23.148438 38.886719 16.9375 37.5625 11.75 C 36.210938 6.460938 27.449219 4.738281 19.175781 7.675781 C 14.25 9.4375 8.898438 12.175781 5.0625 15.761719 C 0.488281 20.023438 -0.25 23.75 0.0625 25.300781 C 1.125 30.8125 8.726562 34.414062 11.773438 37.074219 C 11.625 37.164062 11.488281 37.238281 11.351562 37.3125 C 9.824219 38.0625 4.023438 41.101562 2.574219 44.300781 C 0.9375 47.925781 2.835938 50.539062 4.101562 50.886719 C 8.011719 51.976562 12.011719 50.023438 14.1875 46.800781 C 16.335938 43.574219 16.085938 39.398438 15.085938 37.488281 L 15.050781 37.414062 L 16.25 36.710938 C 17.023438 36.25 17.789062 35.835938 18.449219 35.476562 C 18.074219 36.5 17.800781 37.699219 17.664062 39.460938 C 17.5 41.523438 18.335938 44.199219 19.449219 45.25 C 19.9375 45.710938 20.523438 45.710938 20.886719 45.710938 C 22.175781 45.710938 22.761719 44.648438 23.398438 43.375 C 24.199219 41.8125 24.898438 40.011719 24.898438 40.011719 C 24.898438 40.011719 24.023438 44.898438 26.425781 44.898438 C 27.300781 44.898438 28.1875 43.761719 28.574219 43.175781 L 28.574219 43.1875 C 28.574219 43.1875 28.601562 43.148438 28.648438 43.074219 C 28.699219 43 28.75 42.925781 28.789062 42.851562 L 28.789062 42.824219 C 29.136719 42.210938 29.925781 40.824219 31.101562 38.511719 C 32.613281 35.539062 34.0625 31.8125 34.0625 31.8125 C 34.0625 31.8125 34.199219 32.726562 34.636719 34.226562 C 34.898438 35.113281 35.460938 36.085938 35.886719 37.039062 C 35.539062 37.523438 35.324219 37.8125 35.324219 37.8125 L 35.335938 37.824219 C 35.0625 38.199219 34.738281 38.601562 34.414062 39 C 33.210938 40.425781 31.789062 42.0625 31.601562 42.523438 C 31.375 43.074219 31.425781 43.488281 31.863281 43.8125 C 32.175781 44.050781 32.738281 44.085938 33.335938 44.050781 C 34.414062 43.976562 35.164062 43.710938 35.539062 43.550781 C 36.125 43.335938 36.789062 43.023438 37.4375 42.550781 C 38.613281 41.6875 39.324219 40.449219 39.25 38.8125 C 39.210938 37.914062 38.925781 37.023438 38.5625 36.175781 C 38.664062 36.023438 38.773438 35.875 38.875 35.710938 C 40.726562 33.011719 42.148438 30.039062 42.148438 30.039062 C 42.148438 30.039062 42.289062 30.949219 42.726562 32.449219 C 42.949219 33.210938 43.386719 34.039062 43.789062 34.863281 C 42.050781 36.273438 40.960938 37.925781 40.585938 39 C 39.898438 40.988281 40.4375 41.886719 41.449219 42.101562 C 41.914062 42.1875 42.5625 41.988281 43.050781 41.773438 C 43.664062 41.574219 44.398438 41.238281 45.074219 40.738281 C 46.25 39.875 47.375 38.664062 47.3125 37.039062 C 47.273438 36.289062 47.074219 35.550781 46.8125 34.851562 C 48.289062 34.238281 50.199219 33.886719 52.625 34.1875 C 57.835938 34.800781 58.863281 38.050781 58.664062 39.414062 C 58.460938 40.773438 57.375 41.523438 57.011719 41.75 C 56.648438 41.976562 56.539062 42.050781 56.5625 42.210938 C 56.613281 42.460938 56.773438 42.449219 57.085938 42.398438 C 57.523438 42.324219 59.824219 41.289062 59.925781 38.789062 C 60.085938 35.539062 57.039062 32.023438 51.613281 32.0625 Z M 11.425781 45.613281 C 9.699219 47.488281 7.273438 48.210938 6.25 47.601562 C 5.136719 46.949219 5.574219 44.175781 7.6875 42.175781 C 8.976562 40.960938 10.648438 39.835938 11.75 39.136719 C 12 38.988281 12.375 38.761719 12.8125 38.488281 C 12.886719 38.4375 12.925781 38.414062 12.925781 38.414062 C 13.011719 38.363281 13.101562 38.3125 13.199219 38.25 C 13.988281 41.125 13.238281 43.625 11.425781 45.613281 Z M 24.011719 37.050781 C 23.414062 38.511719 22.148438 42.273438 21.386719 42.0625 C 20.738281 41.886719 20.335938 39.039062 21.261719 36.226562 C 21.726562 34.8125 22.726562 33.125 23.3125 32.460938 C 24.261719 31.414062 25.289062 31.0625 25.550781 31.488281 C 25.851562 32.0625 24.386719 36.136719 24.011719 37.050781 Z M 34.398438 42.011719 C 34.136719 42.136719 33.914062 42.238281 33.800781 42.164062 C 33.710938 42.113281 33.898438 41.9375 33.898438 41.9375 C 33.898438 41.9375 35.199219 40.550781 35.710938 39.898438 C 36 39.523438 36.363281 39.085938 36.738281 38.601562 L 36.738281 38.75 C 36.738281 40.425781 35.125 41.550781 34.398438 42.011719 Z M 42.414062 40.1875 C 42.226562 40.050781 42.25 39.613281 42.875 38.25 C 43.125 37.710938 43.6875 36.8125 44.648438 35.949219 C 44.761719 36.300781 44.835938 36.636719 44.824219 36.960938 C 44.824219 39.074219 43.324219 39.863281 42.414062 40.1875 Z M 42.414062 40.1875 "></path></g></svg> 