<?xml version="1.0" encoding="UTF-8"?> <svg xmlns="http://www.w3.org/2000/svg" xmlns:xlink="http://www.w3.org/1999/xlink" width="60pt" height="60pt" viewBox="0 0 60 60" version="1.1"><defs><linearGradient id="linear0" gradientUnits="userSpaceOnUse" x1="1.0053" y1="45.7193" x2="1.0245" y2="45.7193" gradientTransform="matrix(1922.5,0,0,720.9375,-1921.25,-32921.5625)"><stop offset="0" style="stop-color:rgb(30.980392%,30.980392%,30.980392%);stop-opacity:1;"></stop><stop offset="1" style="stop-color:rgb(0%,0%,0%);stop-opacity:1;"></stop></linearGradient><linearGradient id="linear1" gradientUnits="userSpaceOnUse" x1="1.0053" y1="47.0271" x2="1.0245" y2="47.0271" gradientTransform="matrix(1922.5,0,0,720.9375,-1921.25,-33882.8125)"><stop offset="0" style="stop-color:rgb(30.980392%,30.980392%,30.980392%);stop-opacity:1;"></stop><stop offset="1" style="stop-color:rgb(0%,0%,0%);stop-opacity:1;"></stop></linearGradient></defs><g id="surface1"><path style=" stroke:none;fill-rule:nonzero;fill:url(#linear0);" d="M 11.363281 36.925781 L 11.363281 41.539062 C 11.363281 42.3125 28.148438 43.613281 39.085938 46.148438 C 44.375 44.925781 48.289062 43.414062 48.289062 41.539062 L 48.289062 36.925781 C 48.289062 35.050781 44.363281 33.539062 39.085938 32.3125 C 28.148438 34.835938 11.363281 36.148438 11.363281 36.925781 "></path><path style=" stroke:none;fill-rule:nonzero;fill:url(#linear1);" d="M 11.363281 18.460938 L 11.363281 23.074219 C 11.363281 23.851562 28.148438 25.148438 39.085938 27.6875 C 44.375 26.460938 48.289062 24.949219 48.289062 23.074219 L 48.289062 18.460938 C 48.289062 16.585938 44.363281 15.074219 39.085938 13.851562 C 28.148438 16.375 11.363281 17.6875 11.363281 18.460938 "></path><path style=" stroke:none;fill-rule:nonzero;fill:rgb(0%,0%,0%);fill-opacity:1;" d="M 11.363281 27.6875 L 11.363281 41.539062 C 11.363281 40.386719 48.289062 38.074219 48.289062 32.3125 L 48.289062 18.460938 C 48.289062 24.226562 11.363281 26.539062 11.363281 27.6875 "></path><path style=" stroke:none;fill-rule:nonzero;fill:rgb(0%,0%,0%);fill-opacity:1;" d="M 11.363281 9.226562 L 11.363281 23.074219 C 11.363281 21.925781 48.289062 19.613281 48.289062 13.851562 L 48.289062 0 C 48.289062 5.773438 11.363281 8.074219 11.363281 9.226562 "></path><path style=" stroke:none;fill-rule:nonzero;fill:rgb(0%,0%,0%);fill-opacity:1;" d="M 11.363281 46.148438 L 11.363281 60 C 11.363281 58.851562 48.289062 56.539062 48.289062 50.773438 L 48.289062 36.925781 C 48.289062 42.6875 11.363281 45 11.363281 46.148438 "></path></g></svg> 