<?xml version="1.0" encoding="UTF-8"?> <svg xmlns="http://www.w3.org/2000/svg" xmlns:xlink="http://www.w3.org/1999/xlink" width="29pt" height="29pt" viewBox="0 0 29 29" version="1.1"><g id="surface1"><path style=" stroke:none;fill-rule:nonzero;fill:rgb(93.72549%,26.27451%,20.784314%);fill-opacity:1;" d="M 10.269531 13.226562 L 17.40625 13.226562 C 17.734375 13.226562 18.003906 12.960938 18.003906 12.632812 L 18.003906 10.253906 C 18.003906 9.925781 17.734375 9.660156 17.40625 9.660156 L 10.269531 9.660156 C 9.941406 9.660156 9.675781 9.925781 9.675781 10.253906 L 9.675781 12.632812 C 9.675781 12.960938 9.941406 13.226562 10.269531 13.226562 Z M 16.820312 12.03125 L 15.628906 12.03125 L 15.628906 10.839844 L 16.820312 10.839844 Z M 14.433594 12.03125 L 13.242188 12.03125 L 13.242188 10.839844 L 14.433594 10.839844 Z M 10.863281 10.839844 L 12.054688 10.839844 L 12.054688 12.03125 L 10.863281 12.03125 Z M 9.851562 7.6875 C 9.734375 7.570312 9.675781 7.421875 9.675781 7.273438 C 9.675781 7.242188 9.675781 7.183594 9.675781 7.152344 C 9.675781 7.125 9.703125 7.0625 9.703125 7.035156 C 9.703125 7.003906 9.734375 6.976562 9.761719 6.945312 C 9.792969 6.914062 9.792969 6.886719 9.824219 6.855469 C 10.03125 6.617188 10.449219 6.617188 10.65625 6.855469 C 10.804688 6.976562 10.863281 7.125 10.863281 7.273438 C 10.863281 7.300781 10.863281 7.363281 10.863281 7.390625 C 10.863281 7.421875 10.835938 7.449219 10.835938 7.511719 C 10.835938 7.539062 10.804688 7.570312 10.773438 7.628906 C 10.746094 7.660156 10.746094 7.6875 10.714844 7.71875 C 10.566406 7.808594 10.417969 7.867188 10.269531 7.867188 C 10.121094 7.867188 9.972656 7.808594 9.851562 7.6875 Z M 17 7.6875 C 16.878906 7.570312 16.820312 7.421875 16.820312 7.273438 C 16.820312 7.242188 16.820312 7.183594 16.820312 7.152344 C 16.820312 7.125 16.851562 7.09375 16.851562 7.035156 C 16.878906 7.003906 16.878906 6.976562 16.910156 6.945312 C 16.9375 6.914062 16.96875 6.886719 16.96875 6.855469 C 17 6.824219 17.027344 6.796875 17.058594 6.796875 C 17.085938 6.765625 17.117188 6.765625 17.148438 6.738281 C 17.175781 6.707031 17.207031 6.707031 17.265625 6.707031 C 17.355469 6.675781 17.414062 6.675781 17.503906 6.707031 C 17.535156 6.707031 17.5625 6.738281 17.625 6.738281 C 17.652344 6.738281 17.683594 6.765625 17.710938 6.796875 C 17.742188 6.824219 17.773438 6.824219 17.800781 6.855469 C 17.832031 6.886719 17.859375 6.914062 17.859375 6.945312 C 17.890625 6.976562 17.890625 7.003906 17.921875 7.035156 C 17.921875 7.0625 17.949219 7.09375 17.949219 7.152344 C 17.949219 7.183594 17.949219 7.242188 17.949219 7.273438 C 17.949219 7.421875 17.890625 7.570312 17.773438 7.6875 C 17.742188 7.71875 17.710938 7.75 17.683594 7.75 C 17.652344 7.777344 17.625 7.777344 17.59375 7.808594 C 17.5625 7.835938 17.535156 7.835938 17.472656 7.835938 C 17.445312 7.835938 17.386719 7.835938 17.355469 7.835938 C 17.324219 7.835938 17.265625 7.835938 17.238281 7.835938 C 17.207031 7.835938 17.175781 7.808594 17.117188 7.808594 C 17.085938 7.808594 17.058594 7.777344 17.027344 7.75 C 17.058594 7.75 17.027344 7.71875 17 7.6875 Z M 5.503906 13.226562 L 6.691406 13.226562 L 6.691406 14.417969 C 6.691406 15.398438 7.496094 16.203125 8.476562 16.203125 L 19.191406 16.203125 C 20.171875 16.203125 20.976562 15.398438 20.976562 14.417969 L 20.976562 13.226562 L 22.167969 13.226562 C 23.148438 13.226562 23.949219 12.425781 23.949219 11.445312 L 23.949219 8.46875 C 23.949219 7.488281 23.148438 6.683594 22.167969 6.683594 L 20.976562 6.683594 L 20.976562 5.496094 C 20.976562 4.511719 20.171875 3.710938 19.191406 3.710938 L 18.328125 3.710938 L 17.050781 1.597656 C 16.722656 1.0625 16.160156 0.734375 15.535156 0.734375 L 12.144531 0.734375 C 11.519531 0.734375 10.921875 1.0625 10.625 1.597656 L 9.347656 3.710938 L 8.484375 3.710938 C 7.503906 3.710938 6.699219 4.511719 6.699219 5.496094 L 6.699219 6.683594 L 5.503906 6.683594 C 4.519531 6.683594 3.71875 7.488281 3.71875 8.46875 L 3.71875 11.445312 C 3.71875 12.417969 4.519531 13.226562 5.503906 13.226562 Z M 22.175781 7.867188 C 22.5 7.867188 22.769531 8.136719 22.769531 8.460938 L 22.769531 11.4375 C 22.769531 11.761719 22.5 12.03125 22.175781 12.03125 L 20.984375 12.03125 L 20.984375 7.867188 Z M 11.609375 2.207031 C 11.726562 2.03125 11.90625 1.910156 12.113281 1.910156 L 15.535156 1.910156 C 15.742188 1.910156 15.949219 2.03125 16.039062 2.207031 L 16.929688 3.695312 L 10.707031 3.695312 Z M 7.890625 5.488281 C 7.890625 5.160156 8.15625 4.894531 8.484375 4.894531 L 19.199219 4.894531 C 19.527344 4.894531 19.792969 5.160156 19.792969 5.488281 L 19.792969 14.417969 C 19.792969 14.746094 19.527344 15.011719 19.199219 15.011719 L 8.484375 15.011719 C 8.15625 15.011719 7.890625 14.746094 7.890625 14.417969 Z M 4.90625 8.460938 C 4.90625 8.136719 5.175781 7.867188 5.503906 7.867188 L 6.691406 7.867188 L 6.691406 12.03125 L 5.503906 12.03125 C 5.175781 12.03125 4.90625 11.761719 4.90625 11.4375 Z M 20.6875 17.988281 L 6.996094 17.988281 C 4.371094 17.988281 2.230469 20.128906 2.230469 22.753906 L 2.230469 26.917969 C 2.230469 27.246094 2.5 27.511719 2.824219 27.511719 L 24.859375 27.511719 C 25.183594 27.511719 25.453125 27.246094 25.453125 26.917969 L 25.453125 22.753906 C 25.453125 20.128906 23.304688 17.988281 20.6875 17.988281 Z M 16.96875 26.324219 L 15.957031 22.753906 L 16.96875 19.183594 L 18.902344 19.183594 L 18.902344 26.332031 L 16.96875 26.332031 Z M 15.71875 19.175781 L 14.855469 22.152344 L 12.773438 22.152344 L 11.914062 19.175781 Z M 8.78125 26.324219 L 8.78125 19.175781 L 10.714844 19.175781 L 11.726562 22.746094 L 10.714844 26.316406 L 8.78125 26.316406 Z M 3.421875 22.753906 C 3.421875 20.789062 5.027344 19.183594 6.988281 19.183594 L 7.585938 19.183594 L 7.585938 26.332031 L 3.421875 26.332031 Z M 11.964844 26.324219 L 12.828125 23.347656 L 14.910156 23.347656 L 15.773438 26.324219 Z M 24.261719 26.324219 L 20.097656 26.324219 L 20.097656 19.175781 L 20.695312 19.175781 C 22.65625 19.175781 24.261719 20.785156 24.261719 22.746094 Z M 24.261719 26.324219 "></path></g></svg> 