<?xml version="1.0" encoding="UTF-8"?> <svg xmlns="http://www.w3.org/2000/svg" xmlns:xlink="http://www.w3.org/1999/xlink" width="29pt" height="29pt" viewBox="0 0 29 29" version="1.1"><g id="surface1"><path style="fill:none;stroke-width:2;stroke-linecap:butt;stroke-linejoin:miter;stroke:rgb(99.607843%,85.098039%,29.411765%);stroke-opacity:1;stroke-miterlimit:10;" d="M 37.691945 21.280846 C 37.691945 19.263605 36.05819 17.629849 34.051455 17.629849 C 32.039467 17.629849 30.410964 19.263605 30.410964 21.280846 C 30.410964 23.298087 32.039467 24.931843 34.051455 24.931843 C 36.05819 24.931843 37.691945 23.298087 37.691945 21.280846 Z M 37.691945 21.280846 " transform="matrix(0.74359,0,0,0.74359,0,0)"></path><path style="fill:none;stroke-width:2;stroke-linecap:butt;stroke-linejoin:miter;stroke:rgb(99.607843%,85.098039%,29.411765%);stroke-opacity:1;stroke-miterlimit:10;" d="M 25.467672 11.520339 C 25.467672 9.503098 23.83917 7.869343 21.832435 7.869343 C 19.820447 7.869343 18.191945 9.503098 18.191945 11.520339 C 18.191945 13.537581 19.820447 15.171336 21.832435 15.171336 C 23.83917 15.171336 25.467672 13.537581 25.467672 11.520339 Z M 25.467672 11.520339 " transform="matrix(0.74359,0,0,0.74359,0,0)"></path><path style="fill:none;stroke-width:2;stroke-linecap:butt;stroke-linejoin:miter;stroke:rgb(99.607843%,85.098039%,29.411765%);stroke-opacity:1;stroke-miterlimit:10;" d="M 17.309402 34.061961 C 17.309402 32.04472 15.6809 30.410964 13.668912 30.410964 C 11.662177 30.410964 10.028421 32.04472 10.028421 34.061961 C 10.028421 36.073949 11.662177 37.707705 13.668912 37.707705 C 15.6809 37.707705 17.309402 36.073949 17.309402 34.061961 Z M 17.309402 34.061961 " transform="matrix(0.74359,0,0,0.74359,0,0)"></path><path style="fill:none;stroke-width:2;stroke-linecap:butt;stroke-linejoin:miter;stroke:rgb(99.607843%,85.098039%,29.411765%);stroke-opacity:1;stroke-miterlimit:10;" d="M 8.589036 4.980065 C 8.589036 2.962823 6.960533 1.329068 4.948545 1.329068 C 2.94181 1.329068 1.308055 2.962823 1.308055 4.980065 C 1.308055 6.997306 2.94181 8.631061 4.948545 8.631061 C 6.960533 8.631061 8.589036 6.997306 8.589036 4.980065 Z M 8.589036 4.980065 " transform="matrix(0.74359,0,0,0.74359,0,0)"></path><path style="fill:none;stroke-width:2;stroke-linecap:butt;stroke-linejoin:miter;stroke:rgb(99.607843%,85.098039%,29.411765%);stroke-opacity:1;stroke-miterlimit:10;" d="M 24.348734 14.152209 L 31.388066 18.790814 " transform="matrix(0.74359,0,0,0.74359,0,0)"></path><path style="fill:none;stroke-width:2;stroke-linecap:butt;stroke-linejoin:miter;stroke:rgb(99.607843%,85.098039%,29.411765%);stroke-opacity:1;stroke-miterlimit:10;" d="M 15.318427 30.741918 L 20.461342 15.16083 " transform="matrix(0.74359,0,0,0.74359,0,0)"></path><path style="fill:none;stroke-width:2;stroke-linecap:butt;stroke-linejoin:miter;stroke:rgb(99.607843%,85.098039%,29.411765%);stroke-opacity:1;stroke-miterlimit:10;" d="M 5.878367 8.820178 C 5.878367 8.820178 11.8618 30.269127 11.8618 30.621094 " transform="matrix(0.74359,0,0,0.74359,0,0)"></path></g></svg> 