<?xml version="1.0" encoding="UTF-8"?> <svg xmlns="http://www.w3.org/2000/svg" xmlns:xlink="http://www.w3.org/1999/xlink" width="60pt" height="60pt" viewBox="0 0 60 60" version="1.1"><g id="surface1"><path style=" stroke:none;fill-rule:nonzero;fill:rgb(0%,0%,0%);fill-opacity:1;" d="M 60 27.601562 C 60 29.199219 60 30.800781 60 32.398438 C 59.9375 32.6875 59.851562 32.976562 59.8125 33.261719 C 58.523438 45.75 49.136719 56.386719 36.886719 59.175781 C 35.398438 59.511719 33.886719 59.726562 32.386719 59.988281 C 30.789062 59.988281 29.1875 59.988281 27.585938 59.988281 C 27.335938 59.925781 27.074219 59.835938 26.824219 59.8125 C 14.050781 58.476562 3.601562 49.175781 0.75 36.601562 C 0.4375 35.210938 0.25 33.800781 0 32.398438 C 0 30.800781 0 29.199219 0 27.601562 C 0.0625 27.3125 0.148438 27.023438 0.175781 26.738281 C 1.425781 14.9375 9.710938 4.824219 21.085938 1.386719 C 23.199219 0.75 25.425781 0.449219 27.601562 0 C 29.199219 0 30.800781 0 32.398438 0 C 32.648438 0.0625 32.914062 0.148438 33.164062 0.175781 C 45.773438 1.449219 56.425781 10.851562 59.199219 23.199219 C 59.539062 24.648438 59.738281 26.136719 60 27.601562 Z M 30.074219 3.574219 C 15.4375 3.550781 3.585938 15.324219 3.574219 29.9375 C 3.550781 44.523438 15.324219 56.375 29.863281 56.425781 C 44.511719 56.460938 56.375 44.710938 56.414062 30.101562 C 56.460938 15.460938 44.6875 3.601562 30.074219 3.574219 Z M 30.074219 3.574219 "></path><path style=" stroke:none;fill-rule:nonzero;fill:rgb(0%,0%,0%);fill-opacity:1;" d="M 20.085938 44.210938 C 17.3125 40.023438 14.585938 35.925781 11.75 31.648438 C 13.023438 30.949219 14.199219 30.199219 15.449219 29.625 C 20.085938 27.5 25.023438 26.398438 30.039062 25.613281 C 31.164062 25.4375 32.101562 25.085938 32.988281 24.351562 C 35.523438 22.238281 38.074219 20.148438 40.726562 18.1875 C 41.960938 17.273438 43.375 16.523438 44.800781 15.949219 C 46.0625 15.4375 47.1875 15.960938 47.761719 16.9375 C 48.425781 18.0625 48.375 19.449219 47.449219 20.363281 C 46.675781 21.125 45.800781 21.835938 44.863281 22.375 C 41.539062 24.273438 38.175781 26.101562 34.824219 27.960938 C 34.476562 28.148438 34.0625 28.460938 33.960938 28.8125 C 33.238281 31.300781 31.898438 33.425781 30.261719 35.386719 C 27.398438 38.863281 23.925781 41.648438 20.085938 44.210938 Z M 20.085938 44.210938 "></path><path style=" stroke:none;fill-rule:nonzero;fill:rgb(0%,0%,0%);fill-opacity:1;" d="M 46.273438 40.636719 C 46.675781 39.738281 46.988281 38.835938 47.460938 38.023438 C 47.960938 37.164062 48.789062 37.300781 49.574219 37.636719 C 50.726562 38.136719 51.238281 39 50.9375 39.960938 C 50.851562 40.273438 50.6875 40.5625 50.4375 41.113281 C 51.085938 41.050781 51.585938 41 52.261719 40.9375 C 51.875 41.726562 51.539062 42.386719 51.1875 43.113281 C 49.886719 41.550781 48.289062 40.738281 46.273438 40.636719 Z M 48.75 38.210938 C 48.335938 38.6875 48.113281 38.9375 47.886719 39.1875 C 48.425781 39.601562 48.960938 40.023438 49.539062 40.386719 C 49.574219 40.414062 50.113281 39.835938 50.074219 39.773438 C 49.726562 39.289062 49.3125 38.851562 48.75 38.210938 Z M 48.75 38.210938 "></path><path style=" stroke:none;fill-rule:nonzero;fill:rgb(0%,0%,0%);fill-opacity:1;" d="M 36.261719 47.074219 C 36.414062 47.636719 36.511719 48 36.675781 48.613281 C 36.25 48.476562 36.023438 48.375 35.789062 48.335938 C 35.460938 48.273438 35.113281 48.199219 34.789062 48.261719 C 34.636719 48.289062 34.414062 48.601562 34.4375 48.761719 C 34.449219 48.914062 34.710938 49.125 34.886719 49.175781 C 35.300781 49.289062 35.75 49.289062 36.164062 49.375 C 37.351562 49.636719 37.886719 51.050781 36.949219 51.789062 C 36.3125 52.289062 35.335938 52.386719 34.5 52.585938 C 34.398438 52.613281 34.125 52.136719 34.023438 51.863281 C 33.960938 51.6875 34.074219 51.449219 34.113281 51.238281 C 34.335938 51.324219 34.550781 51.449219 34.773438 51.476562 C 35.136719 51.511719 35.523438 51.5625 35.863281 51.460938 C 36.023438 51.414062 36.101562 51.0625 36.210938 50.835938 C 35.898438 50.699219 35.585938 50.523438 35.261719 50.425781 C 35.011719 50.351562 34.664062 50.449219 34.488281 50.3125 C 34.039062 49.9375 33.386719 49.511719 33.324219 49.039062 C 33.261719 48.574219 33.726562 47.835938 34.164062 47.5625 C 34.75 47.238281 35.539062 47.238281 36.261719 47.074219 Z M 36.261719 47.074219 "></path><path style=" stroke:none;fill-rule:nonzero;fill:rgb(0%,0%,0%);fill-opacity:1;" d="M 51.050781 34.9375 C 50.375 34.6875 49.699219 34.4375 48.863281 34.125 C 48.9375 33.75 49.074219 33.148438 49.210938 32.511719 C 50.648438 33.574219 52.023438 34.511719 53.3125 35.550781 C 54.023438 36.125 54.050781 36.664062 53.574219 38.011719 C 53.324219 37.648438 53.074219 37.449219 53.039062 37.199219 C 52.875 36.136719 52.648438 35.9375 51.625 36.113281 C 50.539062 36.289062 49.449219 36.476562 48.238281 36.6875 C 48.375 36.0625 48.511719 35.449219 48.601562 35.074219 C 49.488281 35.175781 50.226562 35.25 50.976562 35.324219 C 50.988281 35.199219 51.011719 35.074219 51.050781 34.9375 Z M 51.050781 34.9375 "></path><path style=" stroke:none;fill-rule:nonzero;fill:rgb(0%,0%,0%);fill-opacity:1;" d="M 43.773438 43.824219 C 44.011719 43.386719 44.175781 43.023438 44.386719 42.699219 C 45.175781 41.539062 45.789062 41.476562 46.914062 42.351562 C 47.386719 42.710938 47.738281 43.460938 48.550781 43.085938 C 48.585938 43.300781 48.738281 43.585938 48.648438 43.699219 C 48.164062 44.375 47.460938 44.875 47.074219 45.664062 C 46.976562 45.875 46.148438 45.960938 45.886719 45.773438 C 45.5625 45.550781 45.300781 44.960938 45.351562 44.574219 C 45.414062 44.101562 45.824219 43.664062 46.148438 43.074219 C 45.863281 42.988281 45.550781 42.800781 45.375 42.875 C 45.148438 42.976562 44.976562 43.289062 44.863281 43.550781 C 44.761719 43.773438 44.773438 44.0625 44.726562 44.3125 C 44.4375 44.164062 44.125 44.011719 43.773438 43.824219 Z M 43.773438 43.824219 "></path><path style=" stroke:none;fill-rule:nonzero;fill:rgb(0%,0%,0%);fill-opacity:1;" d="M 40.914062 47.523438 C 40.164062 47.976562 38.914062 47.113281 39.011719 48.460938 C 39.050781 48.914062 39.449219 49.601562 39.8125 49.6875 C 40.261719 49.800781 40.835938 49.414062 41.5625 49.175781 C 41.5625 49.289062 41.699219 49.625 41.574219 49.824219 C 41.125 50.613281 40.011719 51.011719 39.25 50.726562 C 38.386719 50.398438 37.738281 49.125 37.949219 48.164062 C 38.125 47.386719 39.125 46.511719 39.925781 46.625 C 40.261719 46.6875 40.523438 47.164062 40.914062 47.523438 Z M 40.914062 47.523438 "></path><path style=" stroke:none;fill-rule:nonzero;fill:rgb(0%,0%,0%);fill-opacity:1;" d="M 43 49.238281 C 42.9375 47.601562 42.199219 46.625 40.625 46.199219 C 41.550781 45.449219 42.351562 44.800781 43.289062 44.050781 C 43.523438 44.511719 43.726562 44.925781 43.9375 45.324219 C 43.625 45.363281 43.324219 45.414062 42.976562 45.460938 C 42.648438 46.335938 42.75 46.449219 44.976562 47.675781 C 44.335938 48.1875 43.738281 48.664062 43 49.238281 Z M 43 49.238281 "></path></g></svg> 