<?xml version="1.0" encoding="UTF-8"?> <svg xmlns="http://www.w3.org/2000/svg" xmlns:xlink="http://www.w3.org/1999/xlink" width="29pt" height="29pt" viewBox="0 0 29 29" version="1.1"><g id="surface1"><path style=" stroke:none;fill-rule:nonzero;fill:rgb(25.098039%,76.862745%,100%);fill-opacity:1;" d="M 24.671875 7.59375 L 22.558594 7.59375 L 22.558594 8.566406 L 24.671875 8.566406 C 24.875 8.566406 25.035156 8.730469 25.035156 8.929688 L 25.035156 20.136719 L 3.441406 20.136719 L 3.441406 8.9375 C 3.441406 8.738281 3.605469 8.574219 3.808594 8.574219 L 5.917969 8.574219 L 5.917969 7.597656 L 3.816406 7.597656 C 3.070312 7.597656 2.476562 8.203125 2.476562 8.9375 L 2.476562 23.28125 C 2.476562 24.023438 3.078125 24.621094 3.816406 24.621094 L 11.273438 24.621094 L 10.367188 27.78125 L 8.609375 27.78125 L 8.609375 28.753906 L 19.875 28.753906 L 19.875 27.78125 L 18.121094 27.78125 L 17.214844 24.621094 L 24.671875 24.621094 C 25.414062 24.621094 26.011719 24.019531 26.011719 23.28125 L 26.011719 8.9375 C 26.011719 8.195312 25.410156 7.59375 24.671875 7.59375 Z M 17.101562 27.789062 L 11.375 27.789062 L 12.285156 24.628906 L 16.195312 24.628906 Z M 25.035156 23.28125 C 25.035156 23.484375 24.875 23.644531 24.671875 23.644531 L 3.816406 23.644531 C 3.613281 23.644531 3.449219 23.484375 3.449219 23.28125 L 3.449219 21.117188 L 25.042969 21.117188 L 25.042969 23.28125 Z M 25.035156 23.28125 "></path><path style=" stroke:none;fill-rule:nonzero;fill:rgb(25.098039%,76.862745%,100%);fill-opacity:1;" d="M 5.742188 15.703125 L 6.878906 15.703125 L 6.878906 16.679688 L 5.742188 16.679688 Z M 5.742188 15.703125 "></path><path style=" stroke:none;fill-rule:nonzero;fill:rgb(25.098039%,76.862745%,100%);fill-opacity:1;" d="M 8.1875 15.703125 L 9.324219 15.703125 L 9.324219 16.679688 L 8.1875 16.679688 Z M 8.1875 15.703125 "></path><path style=" stroke:none;fill-rule:nonzero;fill:rgb(25.098039%,76.862745%,100%);fill-opacity:1;" d="M 19.164062 15.703125 L 20.300781 15.703125 L 20.300781 16.679688 L 19.164062 16.679688 Z M 19.164062 15.703125 "></path><path style=" stroke:none;fill-rule:nonzero;fill:rgb(25.098039%,76.862745%,100%);fill-opacity:1;" d="M 21.601562 15.703125 L 22.738281 15.703125 L 22.738281 16.679688 L 21.601562 16.679688 Z M 21.601562 15.703125 "></path><path style=" stroke:none;fill-rule:nonzero;fill:rgb(25.098039%,76.862745%,100%);fill-opacity:1;" d="M 18.902344 2.066406 C 17.691406 0.871094 16.03125 0.214844 14.238281 0.214844 C 12.449219 0.214844 10.796875 0.871094 9.578125 2.066406 C 8.367188 3.257812 7.695312 4.886719 7.695312 6.632812 C 7.695312 8.5 8.523438 10.285156 9.957031 11.527344 C 10.679688 12.144531 11.132812 12.996094 11.296875 14.007812 C 10.914062 14.253906 10.664062 14.679688 10.664062 15.160156 L 10.664062 15.546875 C 10.664062 16.144531 11.042969 16.648438 11.578125 16.84375 C 11.519531 16.992188 11.488281 17.15625 11.488281 17.324219 L 11.488281 17.710938 C 11.488281 18.472656 12.105469 19.089844 12.863281 19.089844 L 15.601562 19.089844 C 16.359375 19.089844 16.976562 18.472656 16.976562 17.710938 L 16.976562 17.324219 C 16.976562 17.15625 16.945312 17 16.886719 16.84375 C 17.414062 16.648438 17.800781 16.144531 17.800781 15.546875 L 17.800781 15.167969 C 17.800781 14.6875 17.546875 14.261719 17.167969 14.015625 C 17.332031 13.003906 17.785156 12.148438 18.507812 11.53125 C 19.941406 10.292969 20.769531 8.507812 20.769531 6.640625 C 20.785156 4.886719 20.113281 3.265625 18.902344 2.066406 Z M 16.015625 17.71875 C 16.015625 17.941406 15.839844 18.121094 15.617188 18.121094 L 12.878906 18.121094 C 12.65625 18.121094 12.476562 17.941406 12.476562 17.71875 L 12.476562 17.332031 C 12.476562 17.109375 12.65625 16.929688 12.878906 16.929688 L 15.617188 16.929688 C 15.839844 16.929688 16.015625 17.109375 16.015625 17.332031 Z M 16.84375 15.5625 C 16.84375 15.785156 16.664062 15.964844 16.441406 15.964844 L 12.046875 15.964844 C 11.824219 15.964844 11.644531 15.785156 11.644531 15.5625 L 11.644531 15.167969 C 11.644531 14.976562 11.785156 14.8125 11.964844 14.773438 C 12.046875 14.761719 11.988281 14.769531 16.433594 14.769531 C 16.664062 14.769531 16.835938 14.953125 16.835938 15.175781 C 16.84375 15.308594 16.84375 15.4375 16.84375 15.5625 Z M 12.902344 8.65625 L 12.171875 8.65625 C 11.933594 8.65625 11.71875 8.476562 11.667969 8.238281 C 11.621094 8 11.761719 7.753906 11.988281 7.675781 C 12.121094 7.621094 12.335938 7.621094 12.476562 7.652344 C 12.714844 7.695312 12.894531 7.90625 12.894531 8.148438 L 12.894531 8.65625 Z M 14.640625 13.792969 L 13.875 13.792969 L 13.875 9.628906 L 14.640625 9.628906 Z M 17.882812 10.789062 C 17 11.546875 16.433594 12.582031 16.234375 13.792969 L 15.617188 13.792969 L 15.617188 9.628906 L 16.351562 9.628906 C 17.167969 9.628906 17.839844 8.96875 17.839844 8.148438 C 17.839844 7.332031 17.167969 6.671875 16.351562 6.671875 L 16.121094 6.671875 C 15.304688 6.671875 14.632812 7.332031 14.632812 8.148438 L 14.632812 8.65625 L 13.867188 8.65625 L 13.867188 8.148438 C 13.867188 7.332031 13.199219 6.671875 12.378906 6.671875 L 12.164062 6.671875 C 11.347656 6.671875 10.679688 7.332031 10.679688 8.148438 C 10.679688 8.96875 11.347656 9.628906 12.164062 9.628906 L 12.894531 9.628906 L 12.894531 13.792969 L 12.246094 13.792969 C 12.039062 12.582031 11.472656 11.546875 10.597656 10.789062 C 9.371094 9.734375 8.671875 8.214844 8.671875 6.632812 C 8.671875 3.53125 11.066406 1.191406 14.238281 1.191406 C 17.414062 1.191406 19.808594 3.53125 19.808594 6.632812 C 19.808594 8.222656 19.109375 9.734375 17.882812 10.789062 Z M 15.617188 8.65625 L 15.617188 8.148438 C 15.617188 7.867188 15.847656 7.644531 16.128906 7.644531 L 16.359375 7.644531 C 16.640625 7.644531 16.871094 7.875 16.871094 8.148438 C 16.871094 8.433594 16.640625 8.65625 16.359375 8.65625 Z M 15.617188 8.65625 "></path></g></svg> 