<?xml version="1.0" encoding="UTF-8"?> <svg xmlns="http://www.w3.org/2000/svg" xmlns:xlink="http://www.w3.org/1999/xlink" width="29pt" height="29pt" viewBox="0 0 29 29" version="1.1"><g id="surface1"><path style=" stroke:none;fill-rule:nonzero;fill:rgb(100%,25.098039%,50.588235%);fill-opacity:1;" d="M 11.636719 21.652344 L 11.636719 28.191406 C 11.644531 28.40625 11.761719 28.597656 11.941406 28.710938 C 12.03125 28.769531 12.144531 28.800781 12.246094 28.800781 L 12.523438 28.738281 L 16.820312 26.589844 C 17.035156 26.492188 17.167969 26.269531 17.15625 26.039062 L 17.15625 21.652344 L 24.582031 15.265625 C 24.738281 15.160156 24.828125 14.992188 24.828125 14.804688 L 24.828125 12.195312 C 24.820312 11.808594 24.53125 11.488281 24.152344 11.429688 L 4.640625 11.429688 C 4.261719 11.488281 3.976562 11.808594 3.964844 12.195312 L 3.964844 14.804688 C 3.964844 14.992188 4.050781 15.160156 4.207031 15.265625 Z M 5.191406 12.65625 L 23.609375 12.65625 L 23.609375 14.53125 L 16.179688 20.886719 C 16.039062 21 15.949219 21.171875 15.933594 21.347656 L 15.933594 25.675781 L 12.863281 27.207031 L 12.863281 21.339844 C 12.847656 21.164062 12.761719 20.992188 12.617188 20.878906 L 5.191406 14.523438 Z M 5.191406 12.65625 "></path><path style=" stroke:none;fill-rule:nonzero;fill:rgb(100%,25.098039%,50.588235%);fill-opacity:1;" d="M 7.4375 10.878906 C 8.894531 10.878906 10.074219 9.695312 10.074219 8.238281 C 10.074219 6.78125 8.894531 5.597656 7.4375 5.597656 C 5.976562 5.597656 4.796875 6.78125 4.796875 8.238281 C 4.789062 9.695312 5.972656 10.878906 7.4375 10.878906 Z M 7.4375 6.824219 C 8.214844 6.824219 8.847656 7.457031 8.847656 8.238281 C 8.847656 9.019531 8.214844 9.652344 7.4375 9.652344 C 6.65625 9.652344 6.023438 9.019531 6.023438 8.238281 C 6.023438 7.457031 6.65625 6.824219 7.4375 6.824219 Z M 7.4375 6.824219 "></path><path style=" stroke:none;fill-rule:nonzero;fill:rgb(100%,25.098039%,50.588235%);fill-opacity:1;" d="M 16.550781 8.023438 C 16.539062 9.71875 17.898438 11.109375 19.59375 11.125 C 21.289062 11.140625 22.679688 9.777344 22.695312 8.082031 C 22.710938 6.386719 21.347656 4.996094 19.652344 4.980469 C 19.644531 4.980469 19.628906 4.980469 19.625 4.980469 C 17.933594 4.980469 16.566406 6.335938 16.550781 8.023438 Z M 19.625 6.207031 C 20.628906 6.195312 21.445312 6.988281 21.46875 7.984375 C 21.46875 7.992188 21.46875 8.007812 21.46875 8.015625 C 21.46875 9.035156 20.640625 9.859375 19.625 9.859375 C 18.605469 9.859375 17.777344 9.035156 17.777344 8.015625 C 17.777344 7.011719 18.589844 6.203125 19.59375 6.203125 C 19.601562 6.207031 19.609375 6.207031 19.625 6.207031 Z M 19.625 6.207031 "></path><path style=" stroke:none;fill-rule:nonzero;fill:rgb(100%,25.098039%,50.588235%);fill-opacity:1;" d="M 13.453125 7.621094 C 14.566406 7.621094 15.472656 6.714844 15.472656 5.597656 C 15.472656 4.484375 14.566406 3.570312 13.453125 3.570312 C 12.335938 3.570312 11.429688 4.476562 11.429688 5.589844 C 11.429688 6.707031 12.328125 7.621094 13.453125 7.621094 Z M 13.453125 4.796875 C 13.890625 4.796875 14.246094 5.152344 14.246094 5.589844 C 14.246094 6.03125 13.890625 6.394531 13.453125 6.394531 C 13.011719 6.394531 12.65625 6.039062 12.65625 5.597656 C 12.65625 5.160156 13.003906 4.796875 13.453125 4.796875 Z M 13.453125 4.796875 "></path><path style=" stroke:none;fill-rule:nonzero;fill:rgb(100%,25.098039%,50.588235%);fill-opacity:1;" d="M 17.132812 4.246094 C 18.246094 4.246094 19.15625 3.339844 19.15625 2.222656 C 19.15625 1.109375 18.246094 0.199219 17.132812 0.199219 C 16.015625 0.199219 15.109375 1.109375 15.109375 2.222656 C 15.109375 3.339844 16.015625 4.246094 17.132812 4.246094 Z M 17.132812 1.421875 C 17.570312 1.421875 17.929688 1.777344 17.929688 2.214844 C 17.929688 2.65625 17.570312 3.011719 17.132812 3.011719 C 16.695312 3.011719 16.335938 2.65625 16.335938 2.214844 C 16.335938 1.777344 16.695312 1.421875 17.132812 1.421875 Z M 17.132812 1.421875 "></path></g></svg> 