<?xml version="1.0" encoding="UTF-8"?> <svg xmlns="http://www.w3.org/2000/svg" xmlns:xlink="http://www.w3.org/1999/xlink" width="29pt" height="29pt" viewBox="0 0 29 29" version="1.1"><g id="surface1"><path style=" stroke:none;fill-rule:nonzero;fill:rgb(22.352941%,58.039216%,22.352941%);fill-opacity:1;" d="M 20.730469 27.125 L 8.082031 27.125 C 7.910156 27.125 7.75 27.042969 7.644531 26.910156 C 7.539062 26.777344 7.503906 26.597656 7.554688 26.425781 L 8.023438 24.738281 C 8.082031 24.53125 8.253906 24.375 8.460938 24.34375 L 11.390625 23.855469 L 11.457031 22.703125 L 1.910156 22.703125 C 0.839844 22.703125 0.617188 22.039062 0.617188 21.480469 L 0.617188 2.886719 C 0.617188 2.074219 1.078125 1.613281 1.890625 1.613281 L 26.941406 1.613281 C 27.808594 1.613281 28.332031 2.089844 28.332031 2.886719 L 28.332031 21.488281 C 28.332031 21.773438 28.21875 22.710938 26.804688 22.710938 L 17.480469 22.710938 L 17.554688 23.898438 L 20.34375 24.300781 C 20.558594 24.332031 20.738281 24.492188 20.796875 24.703125 L 21.265625 26.433594 C 21.3125 26.597656 21.273438 26.777344 21.171875 26.910156 C 21.066406 27.042969 20.902344 27.125 20.730469 27.125 Z M 8.804688 26.027344 L 20.011719 26.027344 L 19.824219 25.335938 L 16.945312 24.917969 C 16.6875 24.878906 16.492188 24.664062 16.476562 24.40625 L 16.375 22.703125 L 12.558594 22.703125 L 12.460938 24.359375 C 12.449219 24.613281 12.253906 24.828125 12 24.875 L 8.984375 25.378906 Z M 16.929688 21.601562 L 26.804688 21.601562 C 27.109375 21.601562 27.207031 21.542969 27.222656 21.527344 C 27.222656 21.527344 27.222656 21.511719 27.222656 21.480469 L 27.222656 2.886719 C 27.222656 2.796875 27.207031 2.757812 27.207031 2.757812 C 27.207031 2.757812 27.148438 2.714844 26.941406 2.714844 L 1.890625 2.714844 C 1.808594 2.714844 1.761719 2.722656 1.738281 2.730469 C 1.726562 2.75 1.71875 2.804688 1.71875 2.886719 L 1.71875 21.488281 C 1.71875 21.535156 1.71875 21.570312 1.726562 21.59375 C 1.761719 21.601562 1.8125 21.609375 1.910156 21.609375 Z M 20.226562 20.558594 C 20.128906 20.558594 20.03125 20.539062 19.949219 20.484375 L 17.40625 19.011719 C 17.238281 18.917969 17.132812 18.730469 17.132812 18.539062 L 17.132812 15.875 L 15.785156 15.09375 C 15.445312 15.421875 14.984375 15.621094 14.476562 15.621094 C 13.980469 15.621094 13.527344 15.429688 13.183594 15.109375 L 11.832031 15.890625 C 11.832031 15.890625 11.824219 15.890625 11.824219 15.898438 L 11.824219 18.53125 C 11.824219 18.722656 11.71875 18.910156 11.546875 19.007812 L 9.003906 20.476562 C 8.832031 20.574219 8.625 20.574219 8.453125 20.476562 L 5.910156 19.007812 C 5.742188 18.910156 5.636719 18.722656 5.636719 18.53125 L 5.636719 15.925781 L 4.804688 15.445312 C 4.542969 15.296875 4.445312 14.953125 4.601562 14.691406 C 4.75 14.433594 5.09375 14.335938 5.355469 14.492188 L 6.171875 14.960938 L 8.460938 13.636719 C 8.632812 13.539062 8.839844 13.539062 9.011719 13.636719 L 11.273438 14.9375 C 11.28125 14.929688 11.289062 14.929688 11.296875 14.925781 L 12.648438 14.144531 C 12.617188 14 12.597656 13.859375 12.597656 13.710938 C 12.597656 12.855469 13.160156 12.136719 13.941406 11.898438 L 13.941406 10.65625 L 11.675781 9.347656 C 11.503906 9.25 11.398438 9.0625 11.398438 8.871094 L 11.398438 5.949219 C 11.398438 5.753906 11.503906 5.570312 11.675781 5.472656 L 14.21875 4 C 14.386719 3.902344 14.597656 3.902344 14.769531 4 L 17.066406 5.324219 L 17.949219 4.8125 C 18.21875 4.664062 18.550781 4.75 18.703125 5.011719 C 18.851562 5.273438 18.761719 5.613281 18.5 5.761719 L 17.59375 6.289062 L 17.59375 8.886719 C 17.59375 9.078125 17.488281 9.265625 17.316406 9.363281 L 15.050781 10.671875 L 15.050781 11.914062 C 15.824219 12.148438 16.394531 12.871094 16.394531 13.726562 C 16.394531 13.867188 16.382812 14 16.351562 14.136719 L 17.742188 14.9375 L 19.980469 13.644531 C 20.152344 13.546875 20.359375 13.546875 20.53125 13.644531 L 23.050781 15.117188 C 23.222656 15.214844 23.328125 15.398438 23.328125 15.59375 L 23.328125 18.21875 L 24.203125 18.722656 C 24.464844 18.871094 24.5625 19.214844 24.40625 19.476562 C 24.257812 19.742188 23.914062 19.832031 23.652344 19.675781 L 22.777344 19.167969 L 20.507812 20.476562 C 20.417969 20.53125 20.324219 20.558594 20.226562 20.558594 Z M 18.234375 18.21875 L 20.226562 19.371094 L 22.21875 18.21875 L 22.21875 15.914062 L 20.226562 14.761719 L 18.234375 15.914062 Z M 6.722656 18.21875 L 8.714844 19.371094 L 10.707031 18.21875 L 10.707031 15.914062 L 8.714844 14.761719 L 6.722656 15.914062 Z M 13.832031 14.195312 C 13.972656 14.394531 14.210938 14.523438 14.46875 14.523438 C 14.746094 14.523438 14.984375 14.382812 15.125 14.171875 C 15.132812 14.152344 15.148438 14.128906 15.160156 14.105469 C 15.167969 14.089844 15.183594 14.070312 15.191406 14.054688 C 15.234375 13.957031 15.257812 13.84375 15.257812 13.734375 C 15.257812 13.296875 14.902344 12.945312 14.460938 12.945312 C 14.023438 12.945312 13.667969 13.304688 13.667969 13.734375 C 13.667969 13.851562 13.691406 13.957031 13.734375 14.0625 C 13.75 14.082031 13.765625 14.105469 13.777344 14.128906 C 13.808594 14.144531 13.824219 14.164062 13.832031 14.195312 Z M 12.476562 8.566406 L 14.46875 9.71875 L 16.464844 8.566406 L 16.464844 6.261719 L 14.46875 5.109375 L 12.476562 6.261719 Z M 12.476562 8.566406 "></path></g></svg> 