<?xml version="1.0" encoding="utf-8"?>
<!-- Generator: Adobe Illustrator 25.3.0, SVG Export Plug-In . SVG Version: 6.00 Build 0)  -->
<svg version="1.1" id="Layer_1" xmlns="http://www.w3.org/2000/svg" xmlns:xlink="http://www.w3.org/1999/xlink" x="0px" y="0px"
	 viewBox="0 0 1010.3 787.6" style="enable-background:new 0 0 1010.3 787.6;" xml:space="preserve">
<style type="text/css">
	.st0{opacity:0.59;fill:#E7E7E7;enable-background:new    ;}
	.st1{opacity:0.3;fill-rule:evenodd;clip-rule:evenodd;fill:#F2F2F2;enable-background:new    ;}
	.st2{opacity:0.32;fill-rule:evenodd;clip-rule:evenodd;fill:#E7E7E7;enable-background:new    ;}
	.st3{opacity:0.68;fill-rule:evenodd;clip-rule:evenodd;fill:#F2F2F2;enable-background:new    ;}
	.st4{fill-rule:evenodd;clip-rule:evenodd;fill:#E6E6E6;}
	.st5{opacity:0.53;fill-rule:evenodd;clip-rule:evenodd;fill:#E6E6E6;enable-background:new    ;}
	.st6{fill:#F05A2A;}
	.st7{fill:#F8EC3A;}
	.st8{fill:#FFFFFF;}
	.st9{fill:#FF4081;}
	.st10{fill:#FFD740;}
	.st11{fill:#40C4FF;}
	.st12{fill:#399439;}
	.st13{fill:#FE912A;}
	.st14{fill:#EF4335;}
	.st15{fill:#DD3A78;}
	.st16{fill:#E0B83B;}
	.st17{fill:#39AED8;}
	.st18{fill:#317C31;}
	.st19{fill:#FA7903;}
	.st20{fill:#D33C35;}
	.st21{fill:url(#SVGID_1_);}
	.st22{fill:url(#SVGID_2_);}
	.st23{fill:none;stroke:#403F41;stroke-width:3.8983;stroke-linecap:round;stroke-miterlimit:10;}
	.st24{fill:#A6A8AB;}
	.st25{fill:#221F1F;}
	.st26{fill:none;stroke:#403F41;stroke-width:3.2521;stroke-linecap:round;stroke-miterlimit:10;}
	.st27{opacity:0.34;fill:#FFFFFF;enable-background:new    ;}
	.st28{fill:#403F41;}
	.st29{enable-background:new    ;}
	.st30{font-family:'Raleway-ExtraBold';}
	.st31{font-size:20px;}
</style>
<path class="st0" d="M718.9,88.9c-1.9,0-3.7,0.3-5.5,0.8c0-0.3,0-0.5,0-0.8c0-16.8-13.6-30.4-30.4-30.4c-15.4,0-28,11.4-30.1,26.2
	c-2.6-0.9-5.4-1.4-8.4-1.4c-14,0-25.3,11.3-25.3,25.3c0,12.7,9.3,23.2,21.4,25c2.6,10.9,12.4,19,24.1,19c9.5,0,17.8-5.4,21.9-13.2
	c3.2,4.6,8.5,7.7,14.6,7.7c9.8,0,17.7-7.9,17.7-17.7c0-0.9-0.1-1.7-0.2-2.5c0.1,0,0.1,0,0.2,0c10.5,0,19-8.5,19-19
	S729.4,88.9,718.9,88.9z"/>
<path class="st0" d="M396.3,331.7c-1.5,0-3,0.2-4.3,0.7c0-0.2,0-0.4,0-0.7c0-8.5-6.9-15.3-15.3-15.3c-4.9,0-9.3,2.3-12.1,5.9
	c-2.4-2.2-5.6-3.6-9.1-3.6c-5.4,0-10.1,3.2-12.2,7.8c-1.5-0.6-3-0.9-4.7-0.9c-7.2,0-13,5.8-13,13s5.8,13,13,13c1,0,2-0.1,3-0.3
	c-0.1,0.6-0.1,1.1-0.1,1.7c0,8.2,6.7,14.9,14.9,14.9c4.5,0,8.6-2,11.3-5.2c2.4,3.6,6.5,6,11.1,6c5.6,0,10.4-3.5,12.4-8.4
	c1.6,0.6,3.4,1,5.2,1c8.1,0,14.7-6.6,14.7-14.7C411.1,338.2,404.5,331.7,396.3,331.7z M369.4,345.8c-0.2-0.4-0.4-0.8-0.7-1.1
	c0.4,0.2,0.8,0.4,1.2,0.6C369.7,345.5,369.6,345.7,369.4,345.8z"/>
<path class="st0" d="M279.3,149.3c-4.1-11.8-16.9-19.8-31.4-18.7c-11.8,0.9-21.6,7.5-26.1,16.6c-4.3-4.8-11.2-7.7-18.7-7.1
	c-12.1,0.9-21.3,10.3-20.5,21.1c0.1,0.9,0.2,1.9,0.5,2.8c-0.1,0-0.2,0-0.3,0c-13,1-22.9,11.1-22.1,22.7
	c0.8,11.6,12.1,20.2,25.1,19.2c2.4-0.2,4.6-0.7,6.7-1.4c0,0.3,0,0.6,0,0.9c1.4,18.5,19.4,32.2,40.2,30.7
	c19.1-1.4,33.9-15.1,35.3-31.6c3.3,0.8,6.9,1.1,10.5,0.8c17.4-1.3,30.6-14.8,29.4-30.2C307,161,294.6,150.3,279.3,149.3z"/>
<path class="st1" d="M280.8,790.6c-0.7-3.4-1.1-6.8-1.1-10.3c0-29.4,26.9-54.6,64.8-64.8C341,710,339,704,339,697.7
	c0-24.4,29.1-44.2,65-44.2c12.1,0,23.4,2.2,33.1,6.1c7.5-3.4,16.5-5.4,26.2-5.4c7.8,0,15.2,1.3,21.7,3.6c6.1-5,13.7-9.2,22.1-12.3
	c1-16.5,20.9-29.7,45.4-29.7c19,0,35.3,7.9,42.1,19.2c7.2-4.1,15.8-6.9,25.4-8.2c7-10.7,22.8-18.3,41.2-18.3c6.4,0,12.5,0.9,18,2.5
	c4-12.1,17.7-21.6,35.2-24.8c11.7-15,34.9-25.2,61.7-25.2c31.4,0,57.9,14.1,66.7,33.5c2-0.2,4.1-0.3,6.2-0.3c22.6,0,41.6,10.1,48,24
	c8.8-6.4,21.3-10.4,35.2-10.4c22.9,0,42,10.8,47,25.3c18.9,9.3,31.2,24.5,31.2,41.6c0,4.9-1,9.6-2.8,14c0.9-0.1,1.9-0.1,2.8-0.2
	v101.8H943c-0.9-0.8-1.7-1.6-2.5-2.4c-1.5,0.8-3,1.6-4.6,2.4H280.8V790.6z M544.3,758.7l-0.1,0.2h0.1V758.7z"/>
<path class="st2" d="M717.9,783.9c0.4-1.7,0.6-3.4,0.6-5.2c0-14.9-13.6-27.6-32.8-32.8c1.8-2.8,2.8-5.8,2.8-9
	c0-12.4-14.7-22.4-32.9-22.4c-15.6,0-28.7,7.4-32,17.3c-1.1-11.9-13.8-21.6-30.5-24c-3.7-5.7-12.1-9.7-21.9-9.7
	c-6.6,0-12.6,1.8-16.9,4.8c-4-1.4-8.5-2.2-13.3-2.2c-1.2,0-2.4,0.1-3.5,0.2c-7.5-6-18.8-9.8-31.3-9.8c-1.1,0-2.3,0-3.4,0.1
	c-0.5-12.9-16.1-23.3-35.3-23.3c-13.6,0-25.4,5.2-31.3,12.9c-3.4-0.9-7-1.4-10.8-1.4c-7.4,0-14.2,1.8-19.5,4.9
	c-4.4-2.4-10-3.8-16.1-3.8c-11.3,0-20.9,4.9-24.5,11.7c-4.8,1-9.3,2.7-13,4.9c-0.5-8.4-10.7-15-23.1-15c-4.6,0-8.8,0.9-12.4,2.5
	c-3.4-0.8-7-1.2-10.7-1.2c-4.9,0-9.6,0.7-13.8,2c-4.2-10-17.8-17.4-33.9-17.4c-18.8,0-34.1,10-35.2,22.6c-0.3,0-0.6,0-0.9,0
	c-11.5,0-21.2,5.3-24,12.6c-4-1.4-8.5-2.2-13.3-2.2c-10.7,0-20.1,4-24.9,10c-5.6-2.2-12.1-3.4-19-3.4c-20.5,0-37.3,10.9-38.6,24.6
	c-3.4-9.9-16.4-17.3-32-17.3c-18.2,0-32.9,10-32.9,22.4c0,3.2,1,6.3,2.8,9c-19.2,5.1-32.8,17.9-32.8,32.8c0,1.8,0.2,3.5,0.6,5.2
	h331.2c0.8-0.4,1.6-0.8,2.3-1.2c0.4,0.4,0.8,0.8,1.3,1.2h6.3h27.8h6.3c0.4-0.4,0.8-0.8,1.3-1.2c0.8,0.4,1.5,0.8,2.3,1.2h330.9
	L717.9,783.9L717.9,783.9z M141.2,767.9L141.2,767.9L141.2,767.9L141.2,767.9L141.2,767.9z M584.6,767.8L584.6,767.8L584.6,767.8
	L584.6,767.8z"/>
<g>
	<g>
		<path class="st3" d="M571.6,733.5H376.7c40.9-44.1,75.1-117.8,78.2-239c0.2-7.6,0.1-15.5,0-23.5c0,0-0.4-3.3-0.6-5.9h19.9h19.9
			c-0.2,2.6-0.6,5.9-0.6,5.9c-0.1,8-0.2,15.9,0,23.5C496.6,615.7,530.7,689.4,571.6,733.5z"/>
		<path class="st4" d="M452.6,462.3c-0.3,10.5-1.8,99.9-9.3,145.1s-24.4,101.2-24.4,101.2c17-52.8,39.9-132.3,40.6-183.5
			c0.7,39.1-11.3,145.7-10.2,144.1c15.5-47.4,20.5-118.9,20.8-148.5l4.1,85.4l4.1-85.4c0.3,29.5,5.3,101.1,20.8,148.5
			c1.1,1.6-11-104.9-10.2-144.1c0.8,51.2,23.6,130.7,40.6,183.5c0,0-16.8-56-24.4-101.2c-7.5-45.2-9.6-134.6-9.9-145.1L452.6,462.3
			L452.6,462.3z"/>
		<path class="st5" d="M398.3,718c2.8-0.4,24.4-40.4,29.7-53.8s8.7-29.7,8.6-27.8c-1.6,25.9-14.4,59.4-14.4,59.3
			c1.2-1.2,15.3-31.1,21.8-49.9c6.5-18.8,11.1-39.7,11.1-36.2c0,24.8-5.8,54.2-17.6,92.2c1.9-2.4,16.7-32.7,20.4-44.9
			c3.7-12.2,5.1-15.7,5.1-15.7c-1.1,32.7-11.7,65-11.1,64.3c13.4-15.2,21.3-87.9,22.6-90.7c1.3,2.8,9.2,75.5,22.6,90.7
			c0.6,0.6-10-31.6-11.1-64.3c0,0,1.4,3.5,5.1,15.7s18.6,42.4,20.4,44.9c-11.8-38-17.6-67.4-17.6-92.2c0-3.5,4.6,17.4,11.1,36.2
			s20.6,48.7,21.8,49.9c0.1,0.1-12.8-33.5-14.4-59.3c-0.1-1.9,3.2,14.4,8.6,27.8s26.9,53.4,29.7,53.8l-76.2,6.8L398.3,718z"/>
	</g>
	<g>
		<g>
			<path class="st6" d="M477.4,439.5c-13.3,0.3-24.6,15.3-24.3,25.9c0.3,10.6,26.3,50.8,26.3,50.8c7.3-18.4,23.9-41.7,23.7-52.1
				C502.7,453.7,490.6,439.2,477.4,439.5z"/>
			<path class="st7" d="M477.4,440.3c-10.8,0.3-20.1,12.5-19.9,21.2s21.5,41.6,21.5,41.6c6-15,19.6-34,19.3-42.6
				C498.1,451.9,488.2,440,477.4,440.3z"/>
			<path class="st8" d="M477.4,440.2c-8.4,0.2-15.5,9.6-15.3,16.3c0.2,6.7,16.5,32,16.5,32c4.6-11.6,15.1-26.2,14.9-32.8
				C493.3,449.2,485.7,440,477.4,440.2z"/>
		</g>
		<g>
			<path class="st6" d="M467.3,445.1c-8.7-1.7-18.2,6.3-19.6,13.3c-1.4,6.9,9.6,36.8,9.6,36.8c7.4-10.9,21.6-23.5,22.9-30.4
				C481.7,458,476,446.8,467.3,445.1z"/>
			<path class="st7" d="M467.2,445.6c-7.1-1.4-14.9,5.2-16,10.8c-1.1,5.7,7.9,30.1,7.9,30.1c6.1-8.9,17.7-19.2,18.8-24.8
				C479,456.1,474.3,447,467.2,445.6z"/>
			<path class="st8" d="M467.2,445.5c-5.5-1.1-11.5,4-12.3,8.4c-0.9,4.4,6.1,23.2,6.1,23.2c4.7-6.9,13.6-14.8,14.5-19.1
				C476.3,453.6,472.7,446.6,467.2,445.5z"/>
		</g>
		<g>
			<path class="st6" d="M471.3,443c-5.1,2.2-7.2,9.9-5.4,14c1.8,4.1,18.3,15.7,18.3,15.7c0-8.4,2.8-20.1,1-24.2
				C483.4,444.5,476.4,440.7,471.3,443z"/>
			<path class="st7" d="M471.4,443.3c-4.2,1.8-5.9,8.1-4.4,11.4c1.5,3.4,15,12.9,15,12.9c0-6.8,2.3-16.4,0.8-19.7
				C481.4,444.5,475.6,441.4,471.4,443.3z"/>
			<path class="st8" d="M471.4,443.2c-3.2,1.4-4.5,6.2-3.4,8.8c1.1,2.6,11.6,9.9,11.6,9.9c0-5.3,1.7-12.7,0.6-15.2
				C479.1,444.2,474.6,441.8,471.4,443.2z"/>
		</g>
		<g>
			<path class="st9" d="M216.9,309.1c1.2,67,28.2,127.7,71.4,172.6l73.4-73.4c-24.5-26.1-39.9-60.9-41.1-99.2L216.9,309.1
				L216.9,309.1z"/>
			<path class="st10" d="M216.9,299.9h103.8c1.2-38.3,16.6-73.1,41.1-99.1l-73.4-73.4C245.1,172.2,218.1,232.9,216.9,299.9z"/>
			<path class="st11" d="M368.3,194.2c26.1-24.5,60.8-39.9,99.1-41.1V49.4c-67,1.2-127.7,28.2-172.5,71.4L368.3,194.2z"/>
			<path class="st12" d="M476.7,153.1c38.3,1.1,73.1,16.5,99.1,41.1l73.4-73.4c-44.9-43.3-105.5-70.3-172.5-71.4V153.1z"/>
			<path class="st13" d="M582.4,408.3l73.4,73.4c43.3-44.9,70.3-105.6,71.4-172.6H623.4C622.3,347.4,606.9,382.2,582.4,408.3z"/>
			<path class="st14" d="M582.3,200.7c24.5,26.1,39.9,60.8,41.1,99.1h103.8c-1.2-67-28.2-127.7-71.5-172.5L582.3,200.7z"/>
			<path class="st15" d="M320.7,309.1c1.1,38.4,16.5,73.1,41.1,99.2l15.1-15.1c-20.7-22.2-33.7-51.6-34.8-84.1L320.7,309.1
				L320.7,309.1z"/>
			<path class="st16" d="M320.7,299.9h21.4c1.1-32.4,14.2-61.8,34.8-84l-15.1-15.1C337.3,226.8,321.9,261.5,320.7,299.9z"/>
			<path class="st17" d="M383.4,209.3c22.2-20.7,51.6-33.7,84-34.8v-21.4c-38.3,1.1-73.1,16.5-99.1,41.1L383.4,209.3z"/>
			<path class="st18" d="M476.7,174.5c32.4,1.1,61.8,14.1,84,34.8l15.1-15.1c-26.1-24.5-60.8-39.9-99.1-41.1L476.7,174.5
				L476.7,174.5z"/>
			<path class="st19" d="M567.3,393.2l15.1,15.1c24.5-26.1,39.9-60.9,41.1-99.2h-21.4C601,341.5,588,371,567.3,393.2z"/>
			<path class="st20" d="M567.2,215.8c20.7,22.2,33.7,51.6,34.8,84h21.4c-1.2-38.3-16.6-73.1-41.1-99.1L567.2,215.8z"/>
			<polygon class="st20" points="577.9,259.3 605.9,262.7 594.9,236.8 			"/>
			<polygon class="st18" points="514.8,197.3 537,179.9 510.8,169.3 			"/>
			<polygon class="st17" points="426.2,198.1 429.6,170.1 403.7,181.1 			"/>
			<polygon class="st16" points="336.3,265.2 364.2,261.3 346.8,239 			"/>
			<polygon class="st15" points="348.1,372.3 365,349.8 337,346.4 			"/>
			<polygon class="st19" points="596.1,370 606.7,343.9 578.8,347.8 			"/>
			
				<linearGradient id="SVGID_1_" gradientUnits="userSpaceOnUse" x1="401" y1="-420.95" x2="543.2" y2="-420.95" gradientTransform="matrix(1 0 0 1 0 692)">
				<stop  offset="0" style="stop-color:#1CBBE9"/>
				<stop  offset="1" style="stop-color:#2176FF"/>
			</linearGradient>
			<path class="st21" d="M472.1,223.2c-39.3,0-71.1,31.9-71.1,71.1c52.6,51,60.4,6.9,71.1,6.8c20.5-0.2,34.1,42.2,71.1-6.8
				C543.2,255.1,511.4,223.2,472.1,223.2z"/>
			
				<linearGradient id="SVGID_2_" gradientUnits="userSpaceOnUse" x1="400.9" y1="-359.4641" x2="543.1237" y2="-359.4641" gradientTransform="matrix(1 0 0 1 0 692)">
				<stop  offset="0" style="stop-color:#1CBBE9"/>
				<stop  offset="1" style="stop-color:#2176FF"/>
			</linearGradient>
			<path class="st22" d="M400.9,294.4c7.8,44.4,29.2,49.8,40.9,96.2c25.4,16.9,23.4,13,64.3,3.3c5.8-42.7,37-68.5,37-99.5
				C545.2,247.9,406.8,257,400.9,294.4z"/>
			<g>
				<path class="st23" d="M439.9,307.9c0,0,13.5,31,17.6,42.4c4.1,11.5,4.2,38.9,4.2,38.9"/>
				<path class="st23" d="M509.1,307.9c0,0-13.5,31-17.6,42.4c-4.1,11.5-4.2,38.9-4.2,38.9"/>
			</g>
			<path class="st24" d="M449.6,434c0,6.7,4.4,12.2,9.8,12.2h29.4c5.4,0,9.8-5.5,9.8-12.2v-22h-48.9L449.6,434L449.6,434z"/>
			<path class="st25" d="M437.4,420.7c0,6.8,5.5,12.2,12.2,12.2h48.8c6.7,0,12.2-5.5,12.2-12.2v-35.6h-73.3v35.6H437.4z"/>
			<g>
				<path class="st26" d="M453.2,309.9c-3.9,0-7.1,4.2-7.1,9.3c0,5.1,3.2,9.3,7.1,9.3s7.1-4.2,7.1-9.3S457.1,309.9,453.2,309.9z"/>
				<path class="st26" d="M467.4,309.9c-3.9,0-7.1,4.2-7.1,9.3c0,5.1,3.2,9.3,7.1,9.3s7.1-4.2,7.1-9.3S471.3,309.9,467.4,309.9z"/>
				<path class="st26" d="M481.6,309.9c-3.9,0-7.1,4.2-7.1,9.3c0,5.1,3.2,9.3,7.1,9.3s7.1-4.2,7.1-9.3S485.5,309.9,481.6,309.9z"/>
				<path class="st26" d="M495.8,309.9c-3.9,0-7.1,4.2-7.1,9.3c0,5.1,3.2,9.3,7.1,9.3s7.1-4.2,7.1-9.3S499.7,309.9,495.8,309.9z"/>
			</g>
			<path class="st27" d="M510,242.8c-11.6-8.4-42.9-19.4-60.5-6.5c-17.5,12.9-0.5,23,12.1,24.5c18,2.1,45.1,7.8,54.5,30.4
				c12.6,30.2,2.2,52.6,4.6,47.1c6.6-15.6,13.7-24.4,15.5-41.1C538.1,280.4,526.2,254.5,510,242.8z"/>
			<path class="st28" d="M511.5,391.1h-75.3c-0.9,0-1.7,0.8-1.7,1.8v3.1c0,1,0.7,1.8,1.7,1.8h75.3c0.9,0,1.7-0.8,1.7-1.8v-3.1
				C513.2,391.9,512.4,391.1,511.5,391.1z"/>
			<path class="st28" d="M511.5,401.6h-75.3c-0.9,0-1.7,0.8-1.7,1.8v3.1c0,1,0.7,1.8,1.7,1.8h75.3c0.9,0,1.7-0.8,1.7-1.8v-3.1
				C513.2,402.4,512.4,401.6,511.5,401.6z"/>
			<path class="st28" d="M511.7,412.1h-75.3c-0.9,0-1.7,0.8-1.7,1.8v3.1c0,1,0.7,1.8,1.7,1.8h75.3c0.9,0,1.7-0.8,1.7-1.8v-3.1
				C513.3,412.9,512.6,412.1,511.7,412.1z"/>
			<g class="st29">
				<path class="st8" d="M262.3,390.2c0,0-0.2-0.1-0.4-0.3c-0.2-0.1-0.5-0.3-0.8-0.4c-0.3-0.1-0.7-0.3-1.1-0.4
					c-0.4-0.1-0.8-0.2-1.2-0.2c-0.5,0-0.9,0.1-1.2,0.3c-0.3,0.2-0.4,0.4-0.4,0.8c0,0.2,0.1,0.4,0.2,0.5c0.1,0.1,0.3,0.3,0.5,0.4
					c0.2,0.1,0.5,0.2,0.8,0.3c0.3,0.1,0.7,0.2,1.1,0.3c0.6,0.2,1.2,0.4,1.7,0.5c0.5,0.2,0.9,0.4,1.3,0.7s0.6,0.7,0.8,1.1
					c0.2,0.4,0.3,0.9,0.3,1.5c0,0.7-0.1,1.3-0.4,1.8s-0.6,0.9-1.1,1.2c-0.4,0.3-1,0.5-1.5,0.7c-0.6,0.1-1.2,0.2-1.8,0.2
					c-0.5,0-0.9,0-1.4-0.1c-0.5-0.1-1-0.2-1.4-0.3c-0.5-0.1-0.9-0.3-1.4-0.5c-0.4-0.2-0.9-0.4-1.2-0.7l1.3-2.6
					c0.1,0.1,0.2,0.2,0.5,0.3c0.3,0.2,0.6,0.3,1,0.5c0.4,0.2,0.8,0.3,1.3,0.5s1,0.2,1.5,0.2c1,0,1.6-0.3,1.6-1
					c0-0.2-0.1-0.4-0.2-0.6c-0.2-0.2-0.4-0.3-0.6-0.4c-0.3-0.1-0.6-0.2-1-0.4c-0.4-0.1-0.8-0.2-1.2-0.4c-0.6-0.2-1.1-0.4-1.5-0.6
					s-0.8-0.5-1.1-0.7c-0.3-0.3-0.5-0.6-0.6-1c-0.1-0.4-0.2-0.8-0.2-1.3c0-0.7,0.1-1.3,0.4-1.8s0.6-1,1-1.3c0.4-0.4,0.9-0.6,1.5-0.8
					c0.6-0.2,1.2-0.3,1.8-0.3c0.5,0,0.9,0,1.3,0.1s0.8,0.2,1.2,0.3c0.4,0.1,0.8,0.3,1.1,0.5c0.3,0.2,0.7,0.3,0.9,0.5L262.3,390.2z"
					/>
				<path class="st8" d="M264.9,394.5c0-0.6,0.1-1.3,0.3-1.9c0.2-0.6,0.6-1.1,1-1.6c0.4-0.5,1-0.8,1.6-1.1c0.6-0.3,1.3-0.4,2.2-0.4
					c1.1,0,2,0.2,2.8,0.7c0.7,0.5,1.3,1.1,1.7,1.8l-2.8,0.8c-0.4-0.6-0.9-0.9-1.6-0.9c-0.6,0-1.1,0.2-1.5,0.7
					c-0.4,0.4-0.6,1-0.6,1.8c0,0.4,0.1,0.7,0.2,1c0.1,0.3,0.3,0.6,0.5,0.8c0.2,0.2,0.4,0.4,0.7,0.5c0.3,0.1,0.5,0.2,0.8,0.2
					c0.4,0,0.7-0.1,1-0.3c0.3-0.2,0.5-0.4,0.7-0.7l2.8,0.9c-0.3,0.7-0.9,1.3-1.7,1.8c-0.8,0.5-1.7,0.7-2.8,0.7
					c-0.8,0-1.5-0.1-2.1-0.4c-0.6-0.3-1.2-0.6-1.6-1.1c-0.4-0.5-0.8-1-1-1.6S264.9,395.2,264.9,394.5z"/>
				<path class="st8" d="M280.2,399.4c-0.8,0-1.5-0.1-2.2-0.4c-0.6-0.3-1.2-0.6-1.6-1.1s-0.8-1-1-1.6c-0.2-0.6-0.3-1.2-0.3-1.9
					c0-0.6,0.1-1.3,0.3-1.9c0.2-0.6,0.5-1.1,1-1.6c0.4-0.5,1-0.8,1.6-1.1c0.6-0.3,1.3-0.4,2.2-0.4c0.8,0,1.5,0.1,2.1,0.4
					c0.6,0.3,1.2,0.6,1.6,1.1c0.4,0.4,0.8,1,1,1.6c0.2,0.6,0.3,1.2,0.3,1.9c0,0.6-0.1,1.3-0.3,1.9c-0.2,0.6-0.5,1.1-1,1.6
					s-1,0.8-1.6,1.1S281,399.4,280.2,399.4z M278.1,394.5c0,0.7,0.2,1.3,0.6,1.8s0.9,0.7,1.5,0.7c0.3,0,0.6-0.1,0.8-0.2
					s0.5-0.3,0.7-0.5c0.2-0.2,0.3-0.5,0.4-0.8c0.1-0.3,0.2-0.6,0.2-1c0-0.7-0.2-1.3-0.6-1.8s-0.9-0.7-1.5-0.7
					c-0.3,0-0.6,0.1-0.8,0.2c-0.3,0.1-0.5,0.3-0.7,0.5s-0.3,0.5-0.4,0.8C278.1,393.9,278.1,394.2,278.1,394.5z"/>
				<path class="st8" d="M292.6,399.4c-0.7,0-1.3-0.1-1.9-0.4c-0.5-0.3-0.9-0.7-1.2-1.3v5.4h-2.9v-13.3h2.5v1.5
					c0.3-0.5,0.8-1,1.3-1.3c0.5-0.3,1.1-0.5,1.9-0.5c0.6,0,1.2,0.1,1.8,0.4c0.5,0.3,1,0.6,1.4,1c0.4,0.4,0.7,1,0.9,1.5
					c0.2,0.6,0.3,1.2,0.3,1.9c0,0.7-0.1,1.4-0.3,2c-0.2,0.6-0.5,1.1-0.9,1.6c-0.4,0.4-0.8,0.8-1.3,1
					C293.7,399.3,293.2,399.4,292.6,399.4z M291.6,397c0.3,0,0.6-0.1,0.9-0.2c0.3-0.1,0.5-0.3,0.7-0.5s0.3-0.5,0.4-0.8
					c0.1-0.3,0.2-0.6,0.2-1c0-0.3-0.1-0.7-0.2-1c-0.1-0.3-0.3-0.5-0.5-0.8c-0.2-0.2-0.4-0.4-0.7-0.5c-0.3-0.1-0.6-0.2-0.9-0.2
					c-0.4,0-0.8,0.1-1.1,0.4c-0.4,0.2-0.6,0.5-0.8,0.9v1.9c0.2,0.5,0.5,0.9,0.9,1.2C290.8,396.8,291.2,397,291.6,397z"/>
				<path class="st8" d="M302.6,399.4c-0.8,0-1.5-0.1-2.1-0.4s-1.2-0.6-1.6-1.1s-0.8-1-1-1.5s-0.3-1.2-0.3-1.8
					c0-0.7,0.1-1.3,0.3-1.9c0.2-0.6,0.6-1.1,1-1.6c0.4-0.5,1-0.8,1.6-1.1c0.6-0.3,1.3-0.4,2.2-0.4c0.8,0,1.5,0.1,2.1,0.4
					c0.6,0.3,1.2,0.6,1.6,1.1s0.8,1,1,1.6c0.2,0.6,0.3,1.2,0.3,1.9c0,0.2,0,0.3,0,0.5c0,0.2,0,0.3-0.1,0.4h-7c0,0.6,0.3,1.1,0.7,1.4
					s0.9,0.5,1.4,0.5c0.4,0,0.8-0.1,1.2-0.3c0.4-0.2,0.7-0.5,0.8-0.8l2.4,0.7c-0.4,0.7-0.9,1.3-1.7,1.8
					C304.7,399.2,303.7,399.4,302.6,399.4z M304.6,393.6c-0.1-0.6-0.3-1.1-0.6-1.4c-0.4-0.3-0.8-0.5-1.4-0.5c-0.6,0-1,0.2-1.4,0.5
					c-0.4,0.4-0.6,0.8-0.6,1.4H304.6z"/>
				<path class="st8" d="M317.7,399.4c-0.8,0-1.5-0.1-2.2-0.4s-1.2-0.6-1.6-1.1s-0.8-1-1-1.6c-0.2-0.6-0.3-1.2-0.3-1.9
					c0-0.6,0.1-1.3,0.3-1.9c0.2-0.6,0.5-1.1,1-1.6c0.4-0.5,1-0.8,1.6-1.1c0.6-0.3,1.3-0.4,2.2-0.4c0.8,0,1.5,0.1,2.1,0.4
					c0.6,0.3,1.2,0.6,1.6,1.1c0.4,0.4,0.8,1,1,1.6c0.2,0.6,0.3,1.2,0.3,1.9c0,0.6-0.1,1.3-0.3,1.9c-0.2,0.6-0.5,1.1-1,1.6
					c-0.4,0.5-1,0.8-1.6,1.1C319.2,399.3,318.5,399.4,317.7,399.4z M315.6,394.5c0,0.7,0.2,1.3,0.6,1.8c0.4,0.5,0.9,0.7,1.5,0.7
					c0.3,0,0.6-0.1,0.8-0.2s0.5-0.3,0.7-0.5c0.2-0.2,0.3-0.5,0.4-0.8c0.1-0.3,0.2-0.6,0.2-1c0-0.7-0.2-1.3-0.6-1.8
					c-0.4-0.5-0.9-0.7-1.5-0.7c-0.3,0-0.6,0.1-0.8,0.2c-0.3,0.1-0.5,0.3-0.7,0.5c-0.2,0.2-0.3,0.5-0.4,0.8
					C315.6,393.9,315.6,394.2,315.6,394.5z"/>
				<path class="st8" d="M324.7,399.3v-6.2h-1.2v-2.2h1.2v-1.1c0-0.6,0.1-1.1,0.2-1.6c0.2-0.5,0.4-0.9,0.7-1.2
					c0.3-0.3,0.6-0.6,1-0.8c0.4-0.2,0.9-0.3,1.4-0.3c0.8,0,1.6,0.2,2.4,0.6l-0.5,2.2c-0.2-0.1-0.4-0.2-0.6-0.2
					c-0.2-0.1-0.5-0.1-0.7-0.1c-0.7,0-1.1,0.4-1.1,1.3v1.2h2.2v2.2h-2.2v6.2H324.7z"/>
			</g>
			<g class="st29">
				<path class="st8" d="M261.9,421.3v-12.8h5.5c0.6,0,1.2,0.1,1.7,0.4s0.9,0.6,1.3,1c0.4,0.4,0.7,0.9,0.9,1.4
					c0.2,0.5,0.3,1,0.3,1.6c0,0.6-0.1,1.1-0.3,1.6c-0.2,0.5-0.5,1-0.8,1.4c-0.4,0.4-0.8,0.7-1.3,1c-0.5,0.2-1.1,0.4-1.7,0.4h-2.6
					v4.1H261.9z M264.8,414.6h2.4c0.3,0,0.6-0.1,0.9-0.5c0.3-0.3,0.4-0.7,0.4-1.3c0-0.3,0-0.6-0.1-0.8c-0.1-0.2-0.2-0.4-0.3-0.5
					c-0.1-0.1-0.3-0.2-0.5-0.3s-0.3-0.1-0.5-0.1h-2.3V414.6z"/>
				<path class="st8" d="M278.8,414.3c-0.7,0-1.3,0.1-1.9,0.3c-0.6,0.2-1,0.5-1.2,1v5.7h-2.9v-9.5h2.6v1.9c0.3-0.6,0.8-1.1,1.3-1.5
					c0.5-0.4,1.1-0.5,1.6-0.6c0.2,0,0.4,0,0.4,0V414.3z"/>
				<path class="st8" d="M284.3,421.4c-0.8,0-1.5-0.1-2.2-0.4c-0.6-0.3-1.2-0.6-1.6-1.1s-0.8-1-1-1.6c-0.2-0.6-0.3-1.2-0.3-1.9
					c0-0.6,0.1-1.3,0.3-1.9c0.2-0.6,0.5-1.1,1-1.6c0.4-0.5,1-0.8,1.6-1.1c0.6-0.3,1.3-0.4,2.2-0.4c0.8,0,1.5,0.1,2.1,0.4
					c0.6,0.3,1.2,0.6,1.6,1.1c0.4,0.4,0.8,1,1,1.6c0.2,0.6,0.3,1.2,0.3,1.9c0,0.6-0.1,1.3-0.3,1.9c-0.2,0.6-0.5,1.1-1,1.6
					s-1,0.8-1.6,1.1S285.1,421.4,284.3,421.4z M282.2,416.5c0,0.7,0.2,1.3,0.6,1.8s0.9,0.7,1.5,0.7c0.3,0,0.6-0.1,0.8-0.2
					s0.5-0.3,0.7-0.5c0.2-0.2,0.3-0.5,0.4-0.8c0.1-0.3,0.2-0.6,0.2-1c0-0.7-0.2-1.3-0.6-1.8s-0.9-0.7-1.5-0.7
					c-0.3,0-0.6,0.1-0.8,0.2c-0.3,0.1-0.5,0.3-0.7,0.5s-0.3,0.5-0.4,0.8C282.3,415.9,282.2,416.2,282.2,416.5z"/>
				<path class="st8" d="M290.2,424.9c-0.5,0-0.9-0.1-1.4-0.2c-0.4-0.2-0.8-0.4-1.2-0.7l1.2-2c0.1,0.1,0.3,0.2,0.4,0.3
					c0.2,0.1,0.3,0.1,0.5,0.1c0.3,0,0.5-0.1,0.7-0.3c0.2-0.2,0.3-0.4,0.3-0.7v-9.6h2.9v9.4c0,0.5-0.1,1-0.3,1.5
					c-0.2,0.5-0.4,0.8-0.7,1.2c-0.3,0.3-0.7,0.6-1.1,0.8C291.1,424.8,290.7,424.9,290.2,424.9z M290.8,410.7v-2.6h2.9v2.6H290.8z"/>
				<path class="st8" d="M300.1,421.4c-0.8,0-1.5-0.1-2.1-0.4s-1.2-0.6-1.6-1.1s-0.8-1-1-1.5s-0.3-1.2-0.3-1.8
					c0-0.7,0.1-1.3,0.3-1.9c0.2-0.6,0.6-1.1,1-1.6c0.4-0.5,1-0.8,1.6-1.1c0.6-0.3,1.3-0.4,2.2-0.4c0.8,0,1.5,0.1,2.1,0.4
					c0.6,0.3,1.2,0.6,1.6,1.1s0.8,1,1,1.6c0.2,0.6,0.3,1.2,0.3,1.9c0,0.2,0,0.3,0,0.5c0,0.2,0,0.3-0.1,0.4h-7c0,0.6,0.3,1.1,0.7,1.4
					s0.9,0.5,1.4,0.5c0.4,0,0.8-0.1,1.2-0.3c0.4-0.2,0.7-0.5,0.8-0.8l2.4,0.7c-0.4,0.7-0.9,1.3-1.7,1.8
					C302.1,421.2,301.2,421.4,300.1,421.4z M302.1,415.6c-0.1-0.6-0.3-1.1-0.6-1.4c-0.4-0.3-0.8-0.5-1.4-0.5c-0.6,0-1,0.2-1.4,0.5
					c-0.4,0.4-0.6,0.8-0.6,1.4H302.1z"/>
				<path class="st8" d="M305.9,416.5c0-0.6,0.1-1.3,0.3-1.9c0.2-0.6,0.6-1.1,1-1.6c0.4-0.5,1-0.8,1.6-1.1c0.6-0.3,1.3-0.4,2.2-0.4
					c1.1,0,2,0.2,2.8,0.7s1.3,1.1,1.7,1.8l-2.8,0.8c-0.4-0.6-0.9-0.9-1.6-0.9c-0.6,0-1.1,0.2-1.5,0.7c-0.4,0.4-0.6,1-0.6,1.8
					c0,0.4,0.1,0.7,0.2,1c0.1,0.3,0.3,0.6,0.5,0.8c0.2,0.2,0.4,0.4,0.7,0.5s0.5,0.2,0.8,0.2c0.4,0,0.7-0.1,1-0.3
					c0.3-0.2,0.5-0.4,0.7-0.7l2.8,0.9c-0.3,0.7-0.9,1.3-1.7,1.8c-0.8,0.5-1.7,0.7-2.8,0.7c-0.8,0-1.5-0.1-2.1-0.4
					c-0.6-0.3-1.2-0.6-1.6-1.1c-0.4-0.5-0.8-1-1-1.6S305.9,417.2,305.9,416.5z"/>
				<path class="st8" d="M322.8,420.8c-0.4,0.2-0.8,0.3-1.3,0.5c-0.5,0.1-1,0.2-1.5,0.2c-0.4,0-0.7,0-1-0.1
					c-0.3-0.1-0.6-0.2-0.8-0.4c-0.2-0.2-0.4-0.5-0.6-0.8c-0.1-0.3-0.2-0.7-0.2-1.2V414h-1.2v-2.2h1.2v-3h2.9v3h1.9v2.2h-1.9v3.9
					c0,0.3,0.1,0.5,0.2,0.7c0.2,0.1,0.4,0.2,0.6,0.2c0.2,0,0.4,0,0.6-0.1c0.2-0.1,0.4-0.2,0.6-0.2L322.8,420.8z"/>
			</g>
			<text transform="matrix(1 0 0 1 373.474 347.5069)" class="st30 st31">1</text>
			<text transform="matrix(1 0 0 1 560.0031 347.5065)" class="st30 st31">6</text>
			<text transform="matrix(1 0 0 1 373.2337 273.6992)" class="st30 st31">2</text>
			<text transform="matrix(1 0 0 1 557.5989 273.6996)" class="st30 st31">5</text>
			<text transform="matrix(1 0 0 1 422.8586 217.2174)" class="st30 st31">3</text>
			<text transform="matrix(1 0 0 1 506.3558 216.0128)" class="st30 st31">4</text>
			<g class="st29">
				<path class="st8" d="M608.5,394.1v-12.8h3v10.2h6.2v2.6H608.5z"/>
				<path class="st8" d="M621.5,394.2c-0.5,0-0.9-0.1-1.3-0.2c-0.4-0.2-0.7-0.4-1-0.6c-0.3-0.3-0.5-0.6-0.7-1s-0.3-0.8-0.3-1.2
					c0-0.5,0.1-0.9,0.3-1.3c0.2-0.4,0.5-0.7,0.8-1c0.4-0.3,0.8-0.5,1.3-0.6c0.5-0.2,1-0.2,1.6-0.2c0.4,0,0.8,0,1.2,0.1
					c0.4,0.1,0.7,0.2,1,0.3v-0.4c0-1.1-0.6-1.6-1.9-1.6c-0.5,0-1,0.1-1.5,0.3c-0.5,0.2-1,0.4-1.5,0.8l-0.8-1.8
					c0.6-0.4,1.3-0.7,1.9-0.9c0.7-0.2,1.4-0.3,2.1-0.3c1.4,0,2.5,0.3,3.3,1c0.8,0.7,1.2,1.7,1.2,3v2.4c0,0.3,0.1,0.5,0.2,0.6
					c0.1,0.1,0.3,0.2,0.6,0.2v2.4c-0.3,0.1-0.5,0.1-0.8,0.1c-0.2,0-0.4,0-0.6,0c-0.5,0-0.9-0.1-1.2-0.3c-0.3-0.2-0.5-0.5-0.5-0.9
					l-0.1-0.4c-0.4,0.5-0.9,1-1.5,1.2C622.8,394.1,622.2,394.2,621.5,394.2z M622.3,392.2c0.3,0,0.6-0.1,0.9-0.2
					c0.3-0.1,0.5-0.3,0.7-0.4c0.3-0.2,0.4-0.4,0.4-0.7V390c-0.3-0.1-0.5-0.2-0.8-0.2s-0.6-0.1-0.8-0.1c-0.5,0-1,0.1-1.3,0.4
					s-0.5,0.6-0.5,0.9c0,0.3,0.1,0.6,0.4,0.9C621.6,392.1,621.9,392.2,622.3,392.2z"/>
				<path class="st8" d="M632.3,394.2c-1,0-1.7-0.3-2.2-0.9c-0.5-0.6-0.8-1.5-0.8-2.7v-6h2.9v5.4c0,0.6,0.1,1,0.3,1.3
					c0.2,0.3,0.6,0.5,1,0.5c0.4,0,0.8-0.1,1.1-0.3c0.4-0.2,0.7-0.6,1-1.1v-5.8h2.9v6.2c0,0.3,0.1,0.5,0.2,0.6
					c0.1,0.1,0.3,0.2,0.6,0.2v2.4c-0.3,0.1-0.6,0.1-0.8,0.1c-0.2,0-0.4,0-0.6,0c-1,0-1.6-0.4-1.7-1.2l-0.1-0.6
					c-0.4,0.6-1,1.1-1.6,1.4C633.8,394.1,633.1,394.2,632.3,394.2z"/>
				<path class="st8" d="M649.9,394.1h-2.9v-5.3c0-0.6-0.1-1.1-0.4-1.4s-0.5-0.4-0.9-0.4c-0.2,0-0.4,0-0.6,0.1s-0.4,0.2-0.6,0.4
					c-0.2,0.2-0.4,0.3-0.5,0.5s-0.3,0.4-0.4,0.7v5.4h-2.9v-9.5h2.6v1.6c0.3-0.6,0.8-1,1.5-1.3s1.4-0.5,2.2-0.5
					c0.6,0,1.1,0.1,1.5,0.3c0.4,0.2,0.7,0.5,0.9,0.9c0.2,0.4,0.3,0.7,0.4,1.2c0.1,0.4,0.1,0.8,0.1,1.2V394.1z"/>
				<path class="st8" d="M651.3,389.3c0-0.6,0.1-1.3,0.3-1.9c0.2-0.6,0.6-1.1,1-1.6s1-0.8,1.6-1.1c0.6-0.3,1.3-0.4,2.2-0.4
					c1.1,0,2,0.2,2.8,0.7s1.3,1.1,1.7,1.8l-2.8,0.8c-0.4-0.6-0.9-0.9-1.6-0.9c-0.6,0-1.1,0.2-1.5,0.7c-0.4,0.4-0.6,1-0.6,1.8
					c0,0.4,0.1,0.7,0.2,1c0.1,0.3,0.3,0.6,0.5,0.8c0.2,0.2,0.4,0.4,0.7,0.5c0.3,0.1,0.5,0.2,0.8,0.2c0.4,0,0.7-0.1,1-0.3
					c0.3-0.2,0.5-0.4,0.7-0.7l2.8,0.9c-0.3,0.7-0.9,1.3-1.7,1.8c-0.8,0.5-1.7,0.7-2.8,0.7c-0.8,0-1.5-0.1-2.1-0.4
					c-0.6-0.3-1.2-0.6-1.6-1.1c-0.4-0.5-0.8-1-1-1.6C651.4,390.6,651.3,390,651.3,389.3z"/>
				<path class="st8" d="M671.2,394.1h-2.9v-5.3c0-0.6-0.1-1.1-0.4-1.4s-0.6-0.4-1-0.4c-0.2,0-0.4,0-0.5,0.1s-0.4,0.2-0.6,0.3
					c-0.2,0.2-0.4,0.3-0.5,0.5s-0.3,0.4-0.4,0.7v5.4h-2.9v-13.1h2.9v5.3c0.3-0.6,0.8-1,1.4-1.3c0.6-0.3,1.2-0.5,1.9-0.5
					c0.6,0,1.1,0.1,1.5,0.3s0.7,0.5,0.9,0.8c0.2,0.3,0.4,0.7,0.4,1.2c0.1,0.4,0.1,0.8,0.1,1.3V394.1z"/>
				<path class="st8" d="M673.1,383.5v-2.6h2.9v2.6H673.1z M673.1,394.1v-9.5h2.9v9.5H673.1z"/>
				<path class="st8" d="M687,394.1h-2.9v-5.3c0-0.6-0.1-1.1-0.4-1.4c-0.2-0.3-0.5-0.4-0.9-0.4c-0.2,0-0.4,0-0.6,0.1
					s-0.4,0.2-0.6,0.4c-0.2,0.2-0.4,0.3-0.5,0.5s-0.3,0.4-0.4,0.7v5.4h-2.9v-9.5h2.6v1.6c0.3-0.6,0.8-1,1.5-1.3s1.4-0.5,2.2-0.5
					c0.6,0,1.1,0.1,1.5,0.3s0.7,0.5,0.9,0.9c0.2,0.4,0.3,0.7,0.4,1.2c0.1,0.4,0.1,0.8,0.1,1.2V394.1z"/>
				<path class="st8" d="M692.6,394.1c-0.6,0-1.2-0.1-1.7-0.4c-0.5-0.3-0.9-0.6-1.3-1c-0.4-0.4-0.7-0.9-0.9-1.5
					c-0.2-0.6-0.3-1.2-0.3-1.9c0-0.7,0.1-1.3,0.3-1.9s0.5-1.1,0.9-1.5c0.4-0.4,0.8-0.8,1.4-1s1.1-0.4,1.8-0.4c0.7,0,1.3,0.2,1.9,0.5
					s1,0.7,1.3,1.3v-1.5h2.5v8.8c0,0.7-0.1,1.4-0.4,1.9s-0.6,1.1-1.1,1.5c-0.5,0.4-1.1,0.7-1.7,0.9c-0.7,0.2-1.4,0.3-2.2,0.3
					c-1,0-1.9-0.2-2.6-0.5c-0.7-0.3-1.4-0.8-1.9-1.4l1.5-1.6c0.3,0.4,0.8,0.7,1.3,0.9c0.5,0.2,1.1,0.4,1.7,0.4c0.3,0,0.7,0,1-0.1
					s0.6-0.2,0.8-0.4c0.2-0.2,0.4-0.5,0.6-0.8c0.1-0.3,0.2-0.7,0.2-1.1v-0.9c-0.3,0.5-0.7,0.9-1.3,1.2
					C693.8,394,693.2,394.1,692.6,394.1z M693.6,391.8c0.4,0,0.8-0.1,1.2-0.4s0.6-0.6,0.8-0.9v-2c-0.2-0.5-0.5-0.9-0.9-1.2
					c-0.4-0.3-0.8-0.4-1.3-0.4c-0.3,0-0.6,0.1-0.9,0.2c-0.3,0.1-0.5,0.3-0.7,0.6c-0.2,0.2-0.3,0.5-0.4,0.8c-0.1,0.3-0.2,0.6-0.2,0.9
					c0,0.3,0.1,0.7,0.2,1c0.1,0.3,0.3,0.5,0.5,0.8c0.2,0.2,0.4,0.4,0.7,0.5S693.3,391.8,693.6,391.8z"/>
			</g>
			<g class="st29">
				<path class="st8" d="M619.6,416.1v-12.8h5.5c0.6,0,1.2,0.1,1.7,0.4c0.5,0.3,0.9,0.6,1.3,1c0.4,0.4,0.7,0.9,0.9,1.4
					c0.2,0.5,0.3,1,0.3,1.6c0,0.6-0.1,1.1-0.3,1.6c-0.2,0.5-0.5,1-0.8,1.4c-0.4,0.4-0.8,0.7-1.3,1c-0.5,0.2-1.1,0.4-1.7,0.4h-2.6
					v4.1H619.6z M622.5,409.4h2.4c0.3,0,0.6-0.1,0.9-0.5c0.3-0.3,0.4-0.7,0.4-1.3c0-0.3,0-0.6-0.1-0.8c-0.1-0.2-0.2-0.4-0.3-0.5
					c-0.1-0.1-0.3-0.2-0.4-0.3s-0.3-0.1-0.5-0.1h-2.3V409.4z"/>
				<path class="st8" d="M636.5,409.1c-0.7,0-1.3,0.1-1.9,0.3c-0.6,0.2-1,0.5-1.2,1v5.7h-2.9v-9.5h2.6v1.9c0.3-0.6,0.8-1.1,1.3-1.5
					c0.5-0.4,1.1-0.5,1.6-0.6c0.2,0,0.4,0,0.5,0V409.1z"/>
				<path class="st8" d="M642,416.2c-0.8,0-1.5-0.1-2.2-0.4c-0.6-0.3-1.2-0.6-1.6-1.1c-0.4-0.5-0.8-1-1-1.6
					c-0.2-0.6-0.3-1.2-0.3-1.9c0-0.6,0.1-1.3,0.3-1.9c0.2-0.6,0.5-1.1,1-1.6c0.4-0.5,1-0.8,1.6-1.1c0.6-0.3,1.3-0.4,2.2-0.4
					c0.8,0,1.5,0.1,2.1,0.4c0.6,0.3,1.2,0.6,1.6,1.1c0.4,0.4,0.8,1,1,1.6c0.2,0.6,0.3,1.2,0.3,1.9c0,0.6-0.1,1.3-0.3,1.9
					c-0.2,0.6-0.5,1.1-1,1.6s-1,0.8-1.6,1.1S642.8,416.2,642,416.2z M639.9,411.3c0,0.7,0.2,1.3,0.6,1.8s0.9,0.7,1.5,0.7
					c0.3,0,0.6-0.1,0.8-0.2s0.5-0.3,0.7-0.5c0.2-0.2,0.3-0.5,0.4-0.8c0.1-0.3,0.2-0.6,0.2-1c0-0.7-0.2-1.3-0.6-1.8s-0.9-0.7-1.5-0.7
					c-0.3,0-0.6,0.1-0.8,0.2c-0.3,0.1-0.5,0.3-0.7,0.5s-0.3,0.5-0.4,0.8C640,410.7,639.9,411,639.9,411.3z"/>
				<path class="st8" d="M652.4,416.2c-0.6,0-1.2-0.1-1.8-0.4c-0.5-0.2-1-0.6-1.4-1c-0.4-0.4-0.7-1-0.9-1.6c-0.2-0.6-0.3-1.2-0.3-2
					c0-0.7,0.1-1.3,0.3-1.9c0.2-0.6,0.5-1.1,0.9-1.6c0.4-0.4,0.8-0.8,1.3-1s1.1-0.4,1.7-0.4c0.6,0,1.2,0.2,1.8,0.5
					c0.5,0.3,1,0.7,1.2,1.3v-5.2h2.9v9.9c0,0.3,0.1,0.5,0.2,0.6s0.3,0.2,0.6,0.2v2.4c-0.3,0.1-0.6,0.1-0.8,0.1c-0.2,0-0.4,0-0.6,0
					c-1,0-1.6-0.4-1.7-1.2l-0.1-0.5c-0.3,0.6-0.8,1-1.4,1.3S653.1,416.2,652.4,416.2z M653.2,413.8c0.4,0,0.8-0.1,1.1-0.4
					c0.4-0.2,0.6-0.6,0.8-1v-2c-0.2-0.5-0.5-0.9-0.9-1.2c-0.4-0.3-0.8-0.5-1.3-0.5c-0.3,0-0.6,0.1-0.9,0.2c-0.3,0.1-0.5,0.3-0.7,0.5
					c-0.2,0.2-0.3,0.5-0.4,0.8s-0.2,0.6-0.2,1c0,0.7,0.2,1.3,0.6,1.7S652.5,413.8,653.2,413.8z"/>
				<path class="st8" d="M663.2,416.2c-1,0-1.7-0.3-2.2-0.9c-0.5-0.6-0.8-1.5-0.8-2.7v-6h2.9v5.4c0,0.6,0.1,1,0.3,1.3
					c0.2,0.3,0.6,0.5,1,0.5c0.4,0,0.8-0.1,1.1-0.3c0.4-0.2,0.7-0.6,1-1.1v-5.8h2.9v6.2c0,0.3,0.1,0.5,0.2,0.6
					c0.1,0.1,0.3,0.2,0.6,0.2v2.4c-0.3,0.1-0.6,0.1-0.8,0.1c-0.2,0-0.4,0-0.6,0c-1,0-1.6-0.4-1.7-1.2l-0.1-0.6
					c-0.4,0.6-1,1.1-1.6,1.4C664.7,416.1,664,416.2,663.2,416.2z"/>
				<path class="st8" d="M671.2,411.3c0-0.6,0.1-1.3,0.3-1.9c0.2-0.6,0.6-1.1,1-1.6c0.4-0.5,1-0.8,1.6-1.1c0.6-0.3,1.3-0.4,2.2-0.4
					c1.1,0,2,0.2,2.8,0.7s1.3,1.1,1.7,1.8l-2.8,0.8c-0.4-0.6-0.9-0.9-1.6-0.9c-0.6,0-1.1,0.2-1.5,0.7c-0.4,0.4-0.6,1-0.6,1.8
					c0,0.4,0.1,0.7,0.2,1c0.1,0.3,0.3,0.6,0.5,0.8c0.2,0.2,0.4,0.4,0.7,0.5s0.5,0.2,0.8,0.2c0.4,0,0.7-0.1,1-0.3
					c0.3-0.2,0.5-0.4,0.7-0.7l2.8,0.9c-0.3,0.7-0.9,1.3-1.7,1.8c-0.8,0.5-1.7,0.7-2.8,0.7c-0.8,0-1.5-0.1-2.1-0.4
					c-0.6-0.3-1.2-0.6-1.6-1.1c-0.4-0.5-0.8-1-1-1.6C671.3,412.6,671.2,412,671.2,411.3z"/>
				<path class="st8" d="M688.1,415.6c-0.4,0.2-0.8,0.3-1.3,0.5c-0.5,0.1-1,0.2-1.5,0.2c-0.4,0-0.7,0-1-0.1
					c-0.3-0.1-0.6-0.2-0.8-0.4c-0.2-0.2-0.4-0.5-0.6-0.8c-0.1-0.3-0.2-0.7-0.2-1.2v-4.9h-1.2v-2.2h1.2v-3h2.9v3h1.9v2.2h-1.9v3.9
					c0,0.3,0.1,0.5,0.2,0.7c0.2,0.1,0.4,0.2,0.6,0.2c0.2,0,0.4,0,0.6-0.1c0.2-0.1,0.4-0.2,0.6-0.2L688.1,415.6z"/>
			</g>
			<g class="st29">
				<path class="st8" d="M249.3,255.8V243h5.8c0.6,0,1.2,0.1,1.7,0.4c0.5,0.3,1,0.6,1.3,1c0.4,0.4,0.7,0.9,0.9,1.4
					c0.2,0.5,0.3,1,0.3,1.6c0,0.4,0,0.8-0.1,1.1c-0.1,0.4-0.2,0.7-0.4,1s-0.4,0.6-0.7,0.9c-0.3,0.3-0.5,0.5-0.9,0.7l2.9,4.8h-3.3
					l-2.6-4.1h-1.9v4.1H249.3z M252.3,249.1h2.7c0.3,0,0.6-0.2,0.9-0.5c0.3-0.3,0.4-0.8,0.4-1.3c0-0.5-0.1-0.9-0.4-1.3
					c-0.3-0.3-0.6-0.5-0.9-0.5h-2.6V249.1z"/>
				<path class="st8" d="M265.4,256c-0.8,0-1.5-0.1-2.2-0.4c-0.6-0.3-1.2-0.6-1.6-1.1s-0.8-1-1-1.6c-0.2-0.6-0.3-1.2-0.3-1.9
					c0-0.6,0.1-1.3,0.3-1.9c0.2-0.6,0.5-1.1,1-1.6c0.4-0.5,1-0.8,1.6-1.1c0.6-0.3,1.3-0.4,2.2-0.4c0.8,0,1.5,0.1,2.1,0.4
					c0.6,0.3,1.2,0.6,1.6,1.1c0.4,0.4,0.8,1,1,1.6c0.2,0.6,0.3,1.2,0.3,1.9c0,0.6-0.1,1.3-0.3,1.9c-0.2,0.6-0.5,1.1-1,1.6
					s-1,0.8-1.6,1.1S266.2,256,265.4,256z M263.3,251.1c0,0.7,0.2,1.3,0.6,1.8s0.9,0.7,1.5,0.7c0.3,0,0.6-0.1,0.8-0.2
					s0.5-0.3,0.7-0.5c0.2-0.2,0.3-0.5,0.4-0.8c0.1-0.3,0.2-0.6,0.2-1c0-0.7-0.2-1.3-0.6-1.8s-0.9-0.7-1.5-0.7
					c-0.3,0-0.6,0.1-0.8,0.2c-0.3,0.1-0.5,0.3-0.7,0.5s-0.3,0.5-0.4,0.8C263.3,250.4,263.3,250.7,263.3,251.1z"/>
				<path class="st8" d="M277.5,256c-0.7,0-1.3-0.2-1.9-0.5c-0.5-0.3-1-0.7-1.3-1.3v1.6h-2.5v-13.1h2.9v5.2c0.3-0.5,0.7-1,1.3-1.3
					s1.1-0.5,1.9-0.5c0.6,0,1.1,0.1,1.6,0.4c0.5,0.3,0.9,0.6,1.3,1.1c0.4,0.4,0.6,1,0.8,1.6c0.2,0.6,0.3,1.3,0.3,1.9
					c0,0.7-0.1,1.3-0.3,1.9c-0.2,0.6-0.5,1.1-0.9,1.5s-0.9,0.8-1.4,1C278.7,255.9,278.1,256,277.5,256z M276.7,253.6
					c0.3,0,0.6-0.1,0.9-0.2c0.3-0.1,0.5-0.3,0.7-0.5c0.2-0.2,0.4-0.5,0.5-0.8s0.2-0.6,0.2-1c0-0.3-0.1-0.7-0.2-1
					c-0.1-0.3-0.2-0.6-0.4-0.8c-0.2-0.2-0.4-0.4-0.7-0.5c-0.3-0.1-0.5-0.2-0.9-0.2c-0.5,0-0.9,0.2-1.3,0.5s-0.7,0.7-0.9,1.2v2
					c0.2,0.4,0.5,0.7,0.8,1C275.9,253.5,276.3,253.6,276.7,253.6z"/>
				<path class="st8" d="M286.2,256c-1,0-1.7-0.3-2.2-0.9c-0.5-0.6-0.8-1.5-0.8-2.7v-6h2.9v5.4c0,0.6,0.1,1,0.3,1.3
					c0.2,0.3,0.6,0.5,1,0.5c0.4,0,0.8-0.1,1.1-0.3s0.7-0.6,1-1.1v-5.8h2.9v6.2c0,0.3,0.1,0.5,0.2,0.6s0.3,0.2,0.6,0.2v2.4
					c-0.3,0.1-0.6,0.1-0.8,0.1c-0.2,0-0.4,0-0.6,0c-1,0-1.6-0.4-1.7-1.2l-0.1-0.6c-0.4,0.6-1,1.1-1.6,1.4S287,256,286.2,256z"/>
				<path class="st8" d="M298.7,256c-0.4,0-0.8,0-1.2-0.1c-0.4-0.1-0.8-0.1-1.3-0.2c-0.4-0.1-0.8-0.2-1.2-0.4
					c-0.4-0.1-0.7-0.3-1-0.5l1.1-1.9c0.6,0.4,1.2,0.6,1.8,0.8c0.6,0.2,1.2,0.3,1.7,0.3c0.4,0,0.7-0.1,1-0.2c0.2-0.1,0.3-0.3,0.3-0.6
					s-0.2-0.4-0.5-0.6s-0.8-0.3-1.5-0.5c-0.6-0.2-1.2-0.3-1.6-0.5s-0.8-0.4-1.1-0.6s-0.5-0.4-0.6-0.7c-0.1-0.3-0.2-0.6-0.2-0.9
					c0-0.5,0.1-0.9,0.3-1.3c0.2-0.4,0.5-0.7,0.8-1c0.3-0.3,0.8-0.5,1.2-0.6c0.5-0.2,1-0.2,1.6-0.2c0.7,0,1.3,0.1,2,0.3
					s1.4,0.5,2,0.8l-1.1,1.8c-0.6-0.3-1.1-0.6-1.6-0.7c-0.5-0.1-0.9-0.2-1.3-0.2c-0.4,0-0.7,0.1-0.9,0.2c-0.2,0.1-0.4,0.3-0.4,0.6
					c0,0.1,0,0.2,0.1,0.3c0.1,0.1,0.2,0.2,0.3,0.3s0.3,0.2,0.5,0.2c0.2,0.1,0.5,0.1,0.8,0.2c0.7,0.2,1.3,0.4,1.8,0.5
					c0.5,0.2,0.9,0.4,1.2,0.6s0.5,0.5,0.6,0.8c0.1,0.3,0.2,0.6,0.2,1c0,0.5-0.1,0.9-0.3,1.3c-0.2,0.4-0.5,0.7-0.8,1
					c-0.3,0.3-0.8,0.5-1.3,0.6C299.9,255.9,299.3,256,298.7,256z"/>
				<path class="st8" d="M310.1,255.3c-0.4,0.2-0.8,0.3-1.3,0.5c-0.5,0.1-1,0.2-1.5,0.2c-0.4,0-0.7,0-1-0.1
					c-0.3-0.1-0.6-0.2-0.8-0.4c-0.2-0.2-0.4-0.5-0.6-0.8c-0.1-0.3-0.2-0.7-0.2-1.2v-4.9h-1.2v-2.2h1.2v-3h2.9v3h1.9v2.2h-1.9v3.9
					c0,0.3,0.1,0.5,0.2,0.7c0.2,0.1,0.4,0.2,0.6,0.2c0.2,0,0.4,0,0.6-0.1c0.2-0.1,0.4-0.2,0.6-0.2L310.1,255.3z"/>
			</g>
			<g class="st29">
				<path class="st8" d="M246.9,268.8c0,0-0.2-0.1-0.4-0.3c-0.2-0.1-0.5-0.3-0.8-0.4c-0.3-0.1-0.7-0.3-1.1-0.4
					c-0.4-0.1-0.8-0.2-1.2-0.2c-0.5,0-0.9,0.1-1.2,0.3c-0.3,0.2-0.4,0.4-0.4,0.8c0,0.2,0.1,0.4,0.2,0.5c0.1,0.1,0.3,0.3,0.5,0.4
					c0.2,0.1,0.5,0.2,0.8,0.3c0.3,0.1,0.7,0.2,1.1,0.3c0.6,0.2,1.2,0.4,1.7,0.5c0.5,0.2,0.9,0.4,1.3,0.7s0.6,0.7,0.8,1.1
					c0.2,0.4,0.3,0.9,0.3,1.5c0,0.7-0.1,1.3-0.4,1.8s-0.6,0.9-1.1,1.2c-0.4,0.3-1,0.5-1.5,0.7c-0.6,0.1-1.2,0.2-1.8,0.2
					c-0.5,0-0.9,0-1.4-0.1c-0.5-0.1-1-0.2-1.4-0.3c-0.5-0.1-0.9-0.3-1.4-0.5c-0.4-0.2-0.9-0.4-1.2-0.7l1.3-2.6
					c0.1,0.1,0.2,0.2,0.5,0.3c0.3,0.2,0.6,0.3,1,0.5c0.4,0.2,0.8,0.3,1.3,0.5s1,0.2,1.5,0.2c1,0,1.6-0.3,1.6-1
					c0-0.2-0.1-0.4-0.2-0.6c-0.2-0.2-0.4-0.3-0.6-0.4c-0.3-0.1-0.6-0.2-1-0.4c-0.4-0.1-0.8-0.2-1.2-0.4c-0.6-0.2-1.1-0.4-1.5-0.6
					s-0.8-0.5-1.1-0.7c-0.3-0.3-0.5-0.6-0.6-1c-0.1-0.4-0.2-0.8-0.2-1.3c0-0.7,0.1-1.3,0.4-1.8s0.6-1,1-1.3c0.4-0.4,0.9-0.6,1.5-0.8
					c0.6-0.2,1.2-0.3,1.8-0.3c0.5,0,0.9,0,1.3,0.1s0.8,0.2,1.2,0.3c0.4,0.1,0.8,0.3,1.1,0.5c0.3,0.2,0.7,0.3,0.9,0.5L246.9,268.8z"
					/>
				<path class="st8" d="M254.6,278c-0.8,0-1.5-0.1-2.2-0.4c-0.6-0.3-1.2-0.6-1.6-1.1s-0.8-1-1-1.6c-0.2-0.6-0.3-1.2-0.3-1.9
					c0-0.6,0.1-1.3,0.3-1.9c0.2-0.6,0.5-1.1,1-1.6c0.4-0.5,1-0.8,1.6-1.1c0.6-0.3,1.3-0.4,2.2-0.4c0.8,0,1.5,0.1,2.1,0.4
					c0.6,0.3,1.2,0.6,1.6,1.1c0.4,0.4,0.8,1,1,1.6c0.2,0.6,0.3,1.2,0.3,1.9c0,0.6-0.1,1.3-0.3,1.9c-0.2,0.6-0.5,1.1-1,1.6
					s-1,0.8-1.6,1.1S255.4,278,254.6,278z M252.4,273.1c0,0.7,0.2,1.3,0.6,1.8s0.9,0.7,1.5,0.7c0.3,0,0.6-0.1,0.8-0.2
					s0.5-0.3,0.7-0.5c0.2-0.2,0.3-0.5,0.4-0.8c0.1-0.3,0.2-0.6,0.2-1c0-0.7-0.2-1.3-0.6-1.8s-0.9-0.7-1.5-0.7
					c-0.3,0-0.6,0.1-0.8,0.2c-0.3,0.1-0.5,0.3-0.7,0.5s-0.3,0.5-0.4,0.8C252.5,272.4,252.4,272.7,252.4,273.1z"/>
				<path class="st8" d="M261,264.7h2.9v9.6c0,0.7,0.3,1.1,0.9,1.1c0.1,0,0.3,0,0.5-0.1c0.2,0,0.3-0.1,0.5-0.2l0.4,2.3
					c-0.4,0.2-0.8,0.3-1.2,0.4c-0.5,0.1-0.9,0.1-1.3,0.1c-0.8,0-1.5-0.2-1.9-0.6c-0.4-0.4-0.7-1.1-0.7-1.9V264.7z"/>
				<path class="st8" d="M270,278c-1,0-1.7-0.3-2.2-0.9c-0.5-0.6-0.8-1.5-0.8-2.7v-6h2.9v5.4c0,0.6,0.1,1,0.3,1.3
					c0.2,0.3,0.6,0.5,1,0.5c0.4,0,0.8-0.1,1.1-0.3s0.7-0.6,1-1.1v-5.8h2.9v6.2c0,0.3,0.1,0.5,0.2,0.6s0.3,0.2,0.6,0.2v2.4
					c-0.3,0.1-0.6,0.1-0.8,0.1c-0.2,0-0.4,0-0.6,0c-1,0-1.6-0.4-1.7-1.2l-0.1-0.6c-0.4,0.6-1,1.1-1.6,1.4S270.8,278,270,278z"/>
				<path class="st8" d="M284.5,277.3c-0.4,0.2-0.8,0.3-1.3,0.5c-0.5,0.1-1,0.2-1.5,0.2c-0.4,0-0.7,0-1-0.1s-0.6-0.2-0.8-0.4
					c-0.2-0.2-0.4-0.5-0.6-0.8c-0.1-0.3-0.2-0.7-0.2-1.2v-4.9h-1.2v-2.2h1.2v-3h2.9v3h1.9v2.2h-1.9v3.9c0,0.3,0.1,0.5,0.2,0.7
					c0.2,0.1,0.4,0.2,0.6,0.2c0.2,0,0.4,0,0.6-0.1c0.2-0.1,0.4-0.2,0.6-0.2L284.5,277.3z"/>
				<path class="st8" d="M285.6,267.3v-2.6h2.9v2.6H285.6z M285.6,277.8v-9.5h2.9v9.5H285.6z"/>
				<path class="st8" d="M295,278c-0.8,0-1.5-0.1-2.2-0.4s-1.2-0.6-1.6-1.1s-0.8-1-1-1.6c-0.2-0.6-0.3-1.2-0.3-1.9
					c0-0.6,0.1-1.3,0.3-1.9c0.2-0.6,0.5-1.1,1-1.6c0.4-0.5,1-0.8,1.6-1.1c0.6-0.3,1.3-0.4,2.2-0.4c0.8,0,1.5,0.1,2.1,0.4
					c0.6,0.3,1.2,0.6,1.6,1.1c0.4,0.4,0.8,1,1,1.6c0.2,0.6,0.3,1.2,0.3,1.9c0,0.6-0.1,1.3-0.3,1.9c-0.2,0.6-0.5,1.1-1,1.6
					c-0.4,0.5-1,0.8-1.6,1.1C296.5,277.9,295.8,278,295,278z M292.9,273.1c0,0.7,0.2,1.3,0.6,1.8c0.4,0.5,0.9,0.7,1.5,0.7
					c0.3,0,0.6-0.1,0.8-0.2s0.5-0.3,0.7-0.5c0.2-0.2,0.3-0.5,0.4-0.8c0.1-0.3,0.2-0.6,0.2-1c0-0.7-0.2-1.3-0.6-1.8
					c-0.4-0.5-0.9-0.7-1.5-0.7c-0.3,0-0.6,0.1-0.8,0.2c-0.3,0.1-0.5,0.3-0.7,0.5c-0.2,0.2-0.3,0.5-0.4,0.8
					C292.9,272.4,292.9,272.7,292.9,273.1z"/>
				<path class="st8" d="M310.5,277.8h-2.9v-5.3c0-0.6-0.1-1.1-0.4-1.4c-0.2-0.3-0.5-0.4-0.9-0.4c-0.2,0-0.4,0-0.6,0.1
					s-0.4,0.2-0.6,0.4c-0.2,0.2-0.4,0.3-0.5,0.5s-0.3,0.4-0.4,0.7v5.4h-2.9v-9.5h2.6v1.6c0.3-0.6,0.8-1,1.5-1.3s1.4-0.5,2.2-0.5
					c0.6,0,1.1,0.1,1.5,0.3s0.7,0.5,0.9,0.9c0.2,0.4,0.3,0.7,0.4,1.2c0.1,0.4,0.1,0.8,0.1,1.2V277.8z"/>
				<path class="st8" d="M316.4,278c-0.4,0-0.8,0-1.2-0.1c-0.4-0.1-0.8-0.1-1.3-0.2c-0.4-0.1-0.8-0.2-1.2-0.4
					c-0.4-0.1-0.7-0.3-1-0.5l1.1-1.9c0.6,0.4,1.2,0.6,1.8,0.8c0.6,0.2,1.2,0.3,1.7,0.3c0.4,0,0.7-0.1,1-0.2c0.2-0.1,0.3-0.3,0.3-0.6
					s-0.2-0.4-0.5-0.6s-0.8-0.3-1.5-0.5c-0.6-0.2-1.2-0.3-1.6-0.5c-0.4-0.2-0.8-0.4-1.1-0.6c-0.3-0.2-0.5-0.4-0.6-0.7
					c-0.1-0.3-0.2-0.6-0.2-0.9c0-0.5,0.1-0.9,0.3-1.3c0.2-0.4,0.5-0.7,0.8-1c0.3-0.3,0.8-0.5,1.2-0.6c0.5-0.2,1-0.2,1.6-0.2
					c0.7,0,1.3,0.1,2,0.3s1.4,0.5,2,0.8l-1.1,1.8c-0.6-0.3-1.1-0.6-1.6-0.7c-0.5-0.1-0.9-0.2-1.3-0.2c-0.4,0-0.7,0.1-0.9,0.2
					c-0.2,0.1-0.4,0.3-0.4,0.6c0,0.1,0,0.2,0.1,0.3c0.1,0.1,0.2,0.2,0.3,0.3s0.3,0.2,0.5,0.2c0.2,0.1,0.5,0.1,0.8,0.2
					c0.7,0.2,1.3,0.4,1.8,0.5c0.5,0.2,0.9,0.4,1.2,0.6s0.5,0.5,0.6,0.8c0.1,0.3,0.2,0.6,0.2,1c0,0.5-0.1,0.9-0.3,1.3
					c-0.2,0.4-0.5,0.7-0.8,1c-0.3,0.3-0.8,0.5-1.3,0.6C317.5,277.9,317,278,316.4,278z"/>
			</g>
			<g class="st29">
				<path class="st8" d="M644.2,255.9c-0.5,0.3-0.9,0.5-1.4,0.6c-0.5,0.1-1.1,0.2-1.6,0.2c-0.9,0-1.7-0.2-2.5-0.5s-1.4-0.9-1.9-1.5
					c-0.5-0.6-0.9-1.3-1.2-2.1s-0.4-1.6-0.4-2.4c0-0.8,0.2-1.6,0.5-2.4s0.7-1.5,1.3-2.1c0.5-0.6,1.2-1.1,1.9-1.4s1.6-0.5,2.5-0.5
					c0.9,0,1.7,0.2,2.5,0.6s1.4,0.9,1.9,1.5c0.5,0.6,0.9,1.3,1.2,2.1c0.3,0.8,0.4,1.6,0.4,2.4c0,0.8-0.1,1.5-0.4,2.3s-0.6,1.4-1.1,2
					l1.9,2.1h-2.8L644.2,255.9z M641.2,254.1c0.5,0,0.9-0.1,1.2-0.3l-2-2.2h2.8l0.7,0.7c0.3-0.7,0.5-1.4,0.5-2.1
					c0-0.5-0.1-1-0.2-1.4c-0.1-0.5-0.3-0.9-0.6-1.2c-0.3-0.4-0.6-0.6-1-0.9c-0.4-0.2-0.8-0.3-1.3-0.3c-0.5,0-1,0.1-1.3,0.3
					c-0.4,0.2-0.7,0.5-1,0.9c-0.3,0.4-0.5,0.8-0.6,1.2c-0.1,0.5-0.2,0.9-0.2,1.4c0,0.5,0.1,1,0.2,1.4c0.1,0.5,0.3,0.9,0.6,1.2
					c0.3,0.4,0.6,0.6,1,0.9C640.2,254,640.7,254.1,641.2,254.1z"/>
				<path class="st8" d="M651.6,256.8c-1,0-1.7-0.3-2.2-0.9c-0.5-0.6-0.8-1.5-0.8-2.7v-6h2.9v5.4c0,0.6,0.1,1,0.3,1.3
					c0.2,0.3,0.6,0.5,1,0.5c0.4,0,0.8-0.1,1.1-0.3c0.4-0.2,0.7-0.6,1-1.1v-5.8h2.9v6.2c0,0.3,0.1,0.5,0.2,0.6
					c0.1,0.1,0.3,0.2,0.6,0.2v2.4c-0.3,0.1-0.6,0.1-0.8,0.1c-0.2,0-0.4,0-0.6,0c-1,0-1.6-0.4-1.7-1.2l-0.1-0.6
					c-0.4,0.6-1,1.1-1.6,1.4C653.2,256.7,652.4,256.8,651.6,256.8z"/>
				<path class="st8" d="M662.9,256.8c-0.5,0-0.9-0.1-1.3-0.2c-0.4-0.2-0.7-0.4-1-0.6c-0.3-0.3-0.5-0.6-0.7-1s-0.3-0.8-0.3-1.2
					c0-0.5,0.1-0.9,0.3-1.3c0.2-0.4,0.5-0.7,0.8-1c0.4-0.3,0.8-0.5,1.3-0.6c0.5-0.2,1-0.2,1.6-0.2c0.4,0,0.8,0,1.2,0.1
					c0.4,0.1,0.7,0.2,1,0.3v-0.4c0-1.1-0.6-1.6-1.9-1.6c-0.5,0-1,0.1-1.5,0.3c-0.5,0.2-1,0.4-1.5,0.8l-0.8-1.8
					c0.6-0.4,1.3-0.7,1.9-0.9c0.7-0.2,1.4-0.3,2.1-0.3c1.4,0,2.5,0.3,3.3,1c0.8,0.7,1.2,1.7,1.2,3v2.4c0,0.3,0.1,0.5,0.2,0.6
					c0.1,0.1,0.3,0.2,0.6,0.2v2.4c-0.3,0.1-0.5,0.1-0.8,0.1c-0.2,0-0.4,0-0.6,0c-0.5,0-0.9-0.1-1.2-0.3c-0.3-0.2-0.5-0.5-0.5-0.9
					l-0.1-0.4c-0.4,0.5-0.9,1-1.5,1.2S663.5,256.8,662.9,256.8z M663.7,254.7c0.3,0,0.6-0.1,0.9-0.2c0.3-0.1,0.5-0.3,0.7-0.4
					c0.3-0.2,0.4-0.4,0.4-0.7v-0.9c-0.3-0.1-0.5-0.2-0.8-0.2s-0.6-0.1-0.8-0.1c-0.5,0-1,0.1-1.3,0.4s-0.5,0.6-0.5,0.9
					c0,0.3,0.1,0.6,0.4,0.9C663,254.6,663.3,254.7,663.7,254.7z"/>
				<path class="st8" d="M670.8,243.5h2.9v9.6c0,0.7,0.3,1.1,0.9,1.1c0.1,0,0.3,0,0.5-0.1s0.3-0.1,0.5-0.2l0.4,2.3
					c-0.4,0.2-0.8,0.3-1.2,0.4c-0.5,0.1-0.9,0.1-1.3,0.1c-0.8,0-1.5-0.2-1.9-0.6c-0.5-0.4-0.7-1.1-0.7-1.9V243.5z"/>
				<path class="st8" d="M676.9,246.1v-2.6h2.9v2.6H676.9z M676.9,256.6v-9.5h2.9v9.5H676.9z"/>
				<path class="st8" d="M687.8,256.1c-0.4,0.2-0.8,0.3-1.3,0.5c-0.5,0.1-1,0.2-1.5,0.2c-0.4,0-0.7,0-1-0.1
					c-0.3-0.1-0.6-0.2-0.8-0.4c-0.2-0.2-0.4-0.5-0.6-0.8s-0.2-0.7-0.2-1.2v-4.9h-1.2v-2.2h1.2v-3h2.9v3h1.9v2.2h-1.9v3.9
					c0,0.3,0.1,0.5,0.2,0.7c0.2,0.1,0.4,0.2,0.6,0.2c0.2,0,0.4,0,0.6-0.1c0.2-0.1,0.4-0.2,0.6-0.2L687.8,256.1z"/>
				<path class="st8" d="M688.8,258c0.3,0.1,0.5,0.1,0.7,0.2c0.2,0,0.4,0.1,0.6,0.1c0.3,0,0.6-0.1,0.8-0.4c0.2-0.2,0.4-0.7,0.5-1.3
					l-3.6-9.5h3l2.2,7l1.9-7h2.7l-3.6,11c-0.3,0.8-0.7,1.4-1.3,1.9c-0.6,0.5-1.4,0.7-2.2,0.7c-0.3,0-0.5,0-0.8-0.1
					c-0.3,0-0.5-0.1-0.8-0.2V258z"/>
			</g>
			<g class="st29">
				<path class="st8" d="M622.2,278.6l4.9-12.8h2.4l4.9,12.8h-3.1l-1-2.9h-4l-1,2.9H622.2z M628.3,269l-1.5,4.8h3L628.3,269z"/>
				<path class="st8" d="M639.3,278.8c-0.4,0-0.8,0-1.2-0.1c-0.4-0.1-0.8-0.1-1.3-0.2c-0.4-0.1-0.8-0.2-1.2-0.4
					c-0.4-0.1-0.7-0.3-1-0.5l1.1-1.9c0.6,0.4,1.2,0.6,1.8,0.8c0.6,0.2,1.2,0.3,1.7,0.3c0.4,0,0.7-0.1,1-0.2c0.2-0.1,0.3-0.3,0.3-0.6
					s-0.2-0.4-0.5-0.6s-0.8-0.3-1.5-0.5c-0.6-0.2-1.2-0.3-1.6-0.5s-0.8-0.4-1.1-0.6c-0.3-0.2-0.5-0.4-0.6-0.7
					c-0.1-0.3-0.2-0.6-0.2-0.9c0-0.5,0.1-0.9,0.3-1.3c0.2-0.4,0.5-0.7,0.8-1c0.3-0.3,0.8-0.5,1.2-0.6c0.5-0.2,1-0.2,1.6-0.2
					c0.7,0,1.3,0.1,2,0.3c0.7,0.2,1.4,0.5,2,0.8l-1.1,1.8c-0.6-0.3-1.1-0.6-1.6-0.7c-0.5-0.1-0.9-0.2-1.3-0.2
					c-0.4,0-0.7,0.1-0.9,0.2c-0.2,0.1-0.4,0.3-0.4,0.6c0,0.1,0,0.2,0.1,0.3c0.1,0.1,0.2,0.2,0.3,0.3s0.3,0.2,0.5,0.2
					c0.2,0.1,0.5,0.1,0.8,0.2c0.7,0.2,1.3,0.4,1.8,0.5c0.5,0.2,0.9,0.4,1.2,0.6s0.5,0.5,0.6,0.8c0.1,0.3,0.2,0.6,0.2,1
					c0,0.5-0.1,0.9-0.3,1.3c-0.2,0.4-0.5,0.7-0.8,1c-0.3,0.3-0.8,0.5-1.3,0.6C640.4,278.7,639.9,278.8,639.3,278.8z"/>
				<path class="st8" d="M648.6,278.8c-0.4,0-0.8,0-1.2-0.1c-0.4-0.1-0.8-0.1-1.3-0.2c-0.4-0.1-0.8-0.2-1.2-0.4
					c-0.4-0.1-0.7-0.3-1-0.5l1.1-1.9c0.6,0.4,1.2,0.6,1.8,0.8c0.6,0.2,1.2,0.3,1.7,0.3c0.4,0,0.7-0.1,1-0.2c0.2-0.1,0.3-0.3,0.3-0.6
					s-0.1-0.4-0.4-0.6c-0.3-0.1-0.8-0.3-1.5-0.5c-0.6-0.2-1.2-0.3-1.6-0.5c-0.4-0.2-0.8-0.4-1.1-0.6c-0.3-0.2-0.5-0.4-0.6-0.7
					c-0.1-0.3-0.2-0.6-0.2-0.9c0-0.5,0.1-0.9,0.3-1.3c0.2-0.4,0.5-0.7,0.8-1c0.3-0.3,0.8-0.5,1.2-0.6c0.5-0.2,1-0.2,1.6-0.2
					c0.7,0,1.3,0.1,2,0.3c0.7,0.2,1.4,0.5,2,0.8l-1.1,1.8c-0.6-0.3-1.1-0.6-1.6-0.7c-0.5-0.1-0.9-0.2-1.3-0.2
					c-0.4,0-0.7,0.1-0.9,0.2s-0.4,0.3-0.4,0.6c0,0.1,0,0.2,0.1,0.3c0.1,0.1,0.2,0.2,0.3,0.3c0.1,0.1,0.3,0.2,0.5,0.2
					c0.2,0.1,0.5,0.1,0.8,0.2c0.7,0.2,1.3,0.4,1.8,0.5c0.5,0.2,0.9,0.4,1.2,0.6c0.3,0.2,0.5,0.5,0.6,0.8s0.2,0.6,0.2,1
					c0,0.5-0.1,0.9-0.3,1.3c-0.2,0.4-0.5,0.7-0.8,1c-0.3,0.3-0.8,0.5-1.3,0.6C649.7,278.7,649.2,278.8,648.6,278.8z"/>
				<path class="st8" d="M656.8,278.8c-1,0-1.7-0.3-2.2-0.9c-0.5-0.6-0.8-1.5-0.8-2.7v-6h2.9v5.4c0,0.6,0.1,1,0.3,1.3s0.6,0.5,1,0.5
					c0.4,0,0.8-0.1,1.1-0.3c0.4-0.2,0.7-0.6,1-1.1v-5.8h2.9v6.2c0,0.3,0.1,0.5,0.2,0.6c0.1,0.1,0.3,0.2,0.6,0.2v2.4
					c-0.3,0.1-0.6,0.1-0.8,0.1c-0.2,0-0.4,0-0.6,0c-1,0-1.6-0.4-1.7-1.2l-0.1-0.6c-0.4,0.6-1,1.1-1.6,1.4
					C658.3,278.7,657.6,278.8,656.8,278.8z"/>
				<path class="st8" d="M671.3,271.6c-0.7,0-1.3,0.1-1.9,0.3c-0.6,0.2-1,0.5-1.2,1v5.7h-2.9v-9.5h2.6v1.9c0.3-0.6,0.8-1.1,1.3-1.5
					c0.5-0.4,1.1-0.5,1.6-0.6c0.2,0,0.4,0,0.5,0V271.6z"/>
				<path class="st8" d="M675.1,278.8c-0.5,0-0.9-0.1-1.3-0.2c-0.4-0.2-0.7-0.4-1-0.6c-0.3-0.3-0.5-0.6-0.7-1
					c-0.2-0.4-0.3-0.8-0.3-1.2c0-0.5,0.1-0.9,0.3-1.3c0.2-0.4,0.5-0.7,0.8-1c0.4-0.3,0.8-0.5,1.3-0.6c0.5-0.2,1-0.2,1.6-0.2
					c0.4,0,0.8,0,1.2,0.1c0.4,0.1,0.7,0.2,1,0.3v-0.4c0-1.1-0.6-1.6-1.9-1.6c-0.5,0-1,0.1-1.5,0.3s-1,0.4-1.5,0.8l-0.8-1.8
					c0.6-0.4,1.3-0.7,1.9-0.9s1.4-0.3,2.1-0.3c1.4,0,2.5,0.3,3.3,1c0.8,0.7,1.2,1.7,1.2,3v2.4c0,0.3,0.1,0.5,0.2,0.6
					c0.1,0.1,0.3,0.2,0.6,0.2v2.4c-0.3,0.1-0.5,0.1-0.8,0.1c-0.2,0-0.4,0-0.6,0c-0.5,0-0.9-0.1-1.2-0.3c-0.3-0.2-0.4-0.5-0.5-0.9
					l-0.1-0.4c-0.4,0.5-0.9,1-1.5,1.2S675.7,278.8,675.1,278.8z M675.9,276.7c0.3,0,0.6-0.1,0.9-0.2c0.3-0.1,0.5-0.3,0.7-0.4
					c0.3-0.2,0.4-0.4,0.4-0.7v-0.9c-0.3-0.1-0.5-0.2-0.8-0.2s-0.6-0.1-0.8-0.1c-0.5,0-1,0.1-1.3,0.4s-0.5,0.6-0.5,0.9
					c0,0.3,0.1,0.6,0.4,0.9C675.2,276.6,675.5,276.7,675.9,276.7z"/>
				<path class="st8" d="M692.1,278.6h-2.9v-5.3c0-0.6-0.1-1.1-0.4-1.4c-0.2-0.3-0.5-0.4-0.9-0.4c-0.2,0-0.4,0-0.6,0.1
					s-0.4,0.2-0.6,0.4c-0.2,0.2-0.4,0.3-0.5,0.5s-0.3,0.4-0.4,0.7v5.4H683v-9.5h2.6v1.6c0.3-0.6,0.8-1,1.5-1.3s1.4-0.5,2.2-0.5
					c0.6,0,1.1,0.1,1.5,0.3s0.7,0.5,0.9,0.9c0.2,0.4,0.3,0.7,0.4,1.2c0.1,0.4,0.1,0.8,0.1,1.2V278.6z"/>
				<path class="st8" d="M693.5,273.9c0-0.6,0.1-1.3,0.3-1.9c0.2-0.6,0.6-1.1,1-1.6c0.4-0.5,1-0.8,1.6-1.1c0.6-0.3,1.3-0.4,2.2-0.4
					c1.1,0,2,0.2,2.8,0.7s1.3,1.1,1.7,1.8l-2.8,0.8c-0.4-0.6-0.9-0.9-1.6-0.9c-0.6,0-1.1,0.2-1.5,0.7c-0.4,0.4-0.6,1-0.6,1.8
					c0,0.4,0.1,0.7,0.2,1c0.1,0.3,0.3,0.6,0.5,0.8c0.2,0.2,0.4,0.4,0.7,0.5s0.5,0.2,0.8,0.2c0.4,0,0.7-0.1,1-0.3
					c0.3-0.2,0.5-0.4,0.7-0.7l2.8,0.9c-0.3,0.7-0.9,1.3-1.7,1.8c-0.8,0.5-1.7,0.7-2.8,0.7c-0.8,0-1.5-0.1-2.1-0.4
					c-0.6-0.3-1.2-0.6-1.6-1.1c-0.4-0.5-0.8-1-1-1.6C693.6,275.2,693.5,274.5,693.5,273.9z"/>
				<path class="st8" d="M708.8,278.8c-0.8,0-1.5-0.1-2.1-0.4s-1.2-0.6-1.6-1.1c-0.4-0.4-0.8-1-1-1.5c-0.2-0.6-0.3-1.2-0.3-1.8
					c0-0.7,0.1-1.3,0.3-1.9c0.2-0.6,0.6-1.1,1-1.6c0.4-0.5,1-0.8,1.6-1.1c0.6-0.3,1.3-0.4,2.2-0.4s1.5,0.1,2.1,0.4
					c0.6,0.3,1.2,0.6,1.6,1.1c0.4,0.5,0.8,1,1,1.6c0.2,0.6,0.3,1.2,0.3,1.9c0,0.2,0,0.3,0,0.5c0,0.2,0,0.3-0.1,0.4h-7
					c0,0.6,0.3,1.1,0.7,1.4c0.4,0.3,0.9,0.5,1.4,0.5c0.4,0,0.8-0.1,1.2-0.3c0.4-0.2,0.7-0.5,0.8-0.8l2.4,0.7
					c-0.4,0.7-0.9,1.3-1.7,1.8C710.8,278.6,709.9,278.8,708.8,278.8z M710.8,273c-0.1-0.6-0.3-1.1-0.6-1.4c-0.4-0.3-0.8-0.5-1.4-0.5
					c-0.6,0-1,0.2-1.4,0.5c-0.4,0.4-0.6,0.8-0.6,1.4H710.8z"/>
			</g>
			<g class="st29">
				<path class="st8" d="M364.2,134.6v-12.8h5.5c0.6,0,1.2,0.1,1.7,0.4s0.9,0.6,1.3,1c0.4,0.4,0.7,0.9,0.9,1.4
					c0.2,0.5,0.3,1,0.3,1.6c0,0.6-0.1,1.1-0.3,1.6c-0.2,0.5-0.5,1-0.8,1.4c-0.4,0.4-0.8,0.7-1.3,1c-0.5,0.2-1.1,0.4-1.7,0.4h-2.6
					v4.1H364.2z M367.1,127.9h2.4c0.3,0,0.6-0.1,0.9-0.5c0.3-0.3,0.4-0.7,0.4-1.3c0-0.3,0-0.6-0.1-0.8c-0.1-0.2-0.2-0.4-0.3-0.5
					c-0.1-0.1-0.3-0.2-0.5-0.3s-0.3-0.1-0.5-0.1h-2.3V127.9z"/>
				<path class="st8" d="M381.1,127.6c-0.7,0-1.3,0.1-1.9,0.3c-0.6,0.2-1,0.5-1.2,1v5.7h-2.9v-9.5h2.6v1.9c0.3-0.6,0.8-1.1,1.3-1.5
					c0.5-0.4,1.1-0.5,1.6-0.6c0.2,0,0.4,0,0.4,0V127.6z"/>
				<path class="st8" d="M386.7,134.8c-0.8,0-1.5-0.1-2.2-0.4c-0.6-0.3-1.2-0.6-1.6-1.1s-0.8-1-1-1.6c-0.2-0.6-0.3-1.2-0.3-1.9
					c0-0.6,0.1-1.3,0.3-1.9c0.2-0.6,0.5-1.1,1-1.6c0.4-0.5,1-0.8,1.6-1.1c0.6-0.3,1.3-0.4,2.2-0.4c0.8,0,1.5,0.1,2.1,0.4
					c0.6,0.3,1.2,0.6,1.6,1.1c0.4,0.4,0.8,1,1,1.6c0.2,0.6,0.3,1.2,0.3,1.9c0,0.6-0.1,1.3-0.3,1.9c-0.2,0.6-0.5,1.1-1,1.6
					s-1,0.8-1.6,1.1S387.5,134.8,386.7,134.8z M384.5,129.9c0,0.7,0.2,1.3,0.6,1.8s0.9,0.7,1.5,0.7c0.3,0,0.6-0.1,0.8-0.2
					s0.5-0.3,0.7-0.5c0.2-0.2,0.3-0.5,0.4-0.8c0.1-0.3,0.2-0.6,0.2-1c0-0.7-0.2-1.3-0.6-1.8s-0.9-0.7-1.5-0.7
					c-0.3,0-0.6,0.1-0.8,0.2c-0.3,0.1-0.5,0.3-0.7,0.5s-0.3,0.5-0.4,0.8C384.6,129.2,384.5,129.5,384.5,129.9z"/>
				<path class="st8" d="M392.5,138.2c-0.5,0-0.9-0.1-1.4-0.2c-0.4-0.2-0.8-0.4-1.2-0.7l1.2-2c0.1,0.1,0.3,0.2,0.4,0.3
					c0.2,0.1,0.3,0.1,0.5,0.1c0.3,0,0.5-0.1,0.7-0.3c0.2-0.2,0.3-0.4,0.3-0.7v-9.6h2.9v9.4c0,0.5-0.1,1-0.3,1.5
					c-0.2,0.5-0.4,0.8-0.7,1.2c-0.3,0.3-0.7,0.6-1.1,0.8C393.5,138.1,393,138.2,392.5,138.2z M393.1,124v-2.6h2.9v2.6H393.1z"/>
				<path class="st8" d="M402.5,134.8c-0.8,0-1.5-0.1-2.1-0.4s-1.2-0.6-1.6-1.1s-0.8-1-1-1.5s-0.3-1.2-0.3-1.8
					c0-0.7,0.1-1.3,0.3-1.9c0.2-0.6,0.6-1.1,1-1.6c0.4-0.5,1-0.8,1.6-1.1c0.6-0.3,1.3-0.4,2.2-0.4c0.8,0,1.5,0.1,2.1,0.4
					c0.6,0.3,1.2,0.6,1.6,1.1s0.8,1,1,1.6c0.2,0.6,0.3,1.2,0.3,1.9c0,0.2,0,0.3,0,0.5c0,0.2,0,0.3-0.1,0.4h-7c0,0.6,0.3,1.1,0.7,1.4
					s0.9,0.5,1.4,0.5c0.4,0,0.8-0.1,1.2-0.3c0.4-0.2,0.7-0.5,0.8-0.8l2.4,0.7c-0.4,0.7-0.9,1.3-1.7,1.8
					C404.5,134.5,403.5,134.8,402.5,134.8z M404.5,129c-0.1-0.6-0.3-1.1-0.6-1.4c-0.4-0.3-0.8-0.5-1.4-0.5c-0.6,0-1,0.2-1.4,0.5
					c-0.4,0.4-0.6,0.8-0.6,1.4H404.5z"/>
				<path class="st8" d="M408.3,129.8c0-0.6,0.1-1.3,0.3-1.9c0.2-0.6,0.6-1.1,1-1.6c0.4-0.5,1-0.8,1.6-1.1c0.6-0.3,1.3-0.4,2.2-0.4
					c1.1,0,2,0.2,2.8,0.7s1.3,1.1,1.7,1.8l-2.8,0.8c-0.4-0.6-0.9-0.9-1.6-0.9c-0.6,0-1.1,0.2-1.5,0.7c-0.4,0.4-0.6,1-0.6,1.8
					c0,0.4,0.1,0.7,0.2,1c0.1,0.3,0.3,0.6,0.5,0.8c0.2,0.2,0.4,0.4,0.7,0.5s0.5,0.2,0.8,0.2c0.4,0,0.7-0.1,1-0.3
					c0.3-0.2,0.5-0.4,0.7-0.7l2.8,0.9c-0.3,0.7-0.9,1.3-1.7,1.8c-0.8,0.5-1.7,0.7-2.8,0.7c-0.8,0-1.5-0.1-2.1-0.4
					c-0.6-0.3-1.2-0.6-1.6-1.1c-0.4-0.5-0.8-1-1-1.6S408.3,130.5,408.3,129.8z"/>
				<path class="st8" d="M425.2,134.1c-0.4,0.2-0.8,0.3-1.3,0.5c-0.5,0.1-1,0.2-1.5,0.2c-0.4,0-0.7,0-1-0.1
					c-0.3-0.1-0.6-0.2-0.8-0.4c-0.2-0.2-0.4-0.5-0.6-0.8c-0.1-0.3-0.2-0.7-0.2-1.2v-4.9h-1.2v-2.2h1.2v-3h2.9v3h1.9v2.2h-1.9v3.9
					c0,0.3,0.1,0.5,0.2,0.7c0.2,0.1,0.4,0.2,0.6,0.2c0.2,0,0.4,0,0.6-0.1c0.2-0.1,0.4-0.2,0.6-0.2L425.2,134.1z"/>
			</g>
			<g class="st29">
				<path class="st8" d="M356.6,156.6v-12.8h5.5c0.6,0,1.2,0.1,1.7,0.4s0.9,0.6,1.3,1c0.4,0.4,0.7,0.9,0.9,1.4
					c0.2,0.5,0.3,1,0.3,1.6c0,0.6-0.1,1.1-0.3,1.6c-0.2,0.5-0.5,1-0.8,1.4c-0.4,0.4-0.8,0.7-1.3,1c-0.5,0.2-1.1,0.4-1.7,0.4h-2.6
					v4.1H356.6z M359.5,149.9h2.4c0.3,0,0.6-0.1,0.9-0.5c0.3-0.3,0.4-0.7,0.4-1.3c0-0.3,0-0.6-0.1-0.8c-0.1-0.2-0.2-0.4-0.3-0.5
					c-0.1-0.1-0.3-0.2-0.5-0.3s-0.3-0.1-0.5-0.1h-2.3V149.9z"/>
				<path class="st8" d="M373.5,149.6c-0.7,0-1.3,0.1-1.9,0.3c-0.6,0.2-1,0.5-1.2,1v5.7h-2.9v-9.5h2.6v1.9c0.3-0.6,0.8-1.1,1.3-1.5
					c0.5-0.4,1.1-0.5,1.6-0.6c0.2,0,0.4,0,0.4,0V149.6z"/>
				<path class="st8" d="M379.1,156.8c-0.8,0-1.5-0.1-2.2-0.4c-0.6-0.3-1.2-0.6-1.6-1.1s-0.8-1-1-1.6c-0.2-0.6-0.3-1.2-0.3-1.9
					c0-0.6,0.1-1.3,0.3-1.9c0.2-0.6,0.5-1.1,1-1.6c0.4-0.5,1-0.8,1.6-1.1c0.6-0.3,1.3-0.4,2.2-0.4c0.8,0,1.5,0.1,2.1,0.4
					c0.6,0.3,1.2,0.6,1.6,1.1c0.4,0.4,0.8,1,1,1.6c0.2,0.6,0.3,1.2,0.3,1.9c0,0.6-0.1,1.3-0.3,1.9c-0.2,0.6-0.5,1.1-1,1.6
					s-1,0.8-1.6,1.1S379.9,156.8,379.1,156.8z M376.9,151.9c0,0.7,0.2,1.3,0.6,1.8s0.9,0.7,1.5,0.7c0.3,0,0.6-0.1,0.8-0.2
					s0.5-0.3,0.7-0.5c0.2-0.2,0.3-0.5,0.4-0.8c0.1-0.3,0.2-0.6,0.2-1c0-0.7-0.2-1.3-0.6-1.8s-0.9-0.7-1.5-0.7
					c-0.3,0-0.6,0.1-0.8,0.2c-0.3,0.1-0.5,0.3-0.7,0.5s-0.3,0.5-0.4,0.8C377,151.2,376.9,151.5,376.9,151.9z"/>
				<path class="st8" d="M391.5,156.8c-0.7,0-1.3-0.1-1.9-0.4c-0.5-0.3-0.9-0.7-1.2-1.3v5.4h-2.9v-13.3h2.5v1.5
					c0.3-0.5,0.8-1,1.3-1.3c0.5-0.3,1.1-0.5,1.9-0.5c0.6,0,1.2,0.1,1.8,0.4c0.5,0.3,1,0.6,1.4,1c0.4,0.4,0.7,1,0.9,1.5
					c0.2,0.6,0.3,1.2,0.3,1.9c0,0.7-0.1,1.4-0.3,2c-0.2,0.6-0.5,1.1-0.9,1.6c-0.4,0.4-0.8,0.8-1.3,1
					C392.6,156.6,392.1,156.8,391.5,156.8z M390.5,154.3c0.3,0,0.6-0.1,0.9-0.2c0.3-0.1,0.5-0.3,0.7-0.5s0.3-0.5,0.4-0.8
					c0.1-0.3,0.2-0.6,0.2-1c0-0.3-0.1-0.7-0.2-1c-0.1-0.3-0.3-0.5-0.5-0.8c-0.2-0.2-0.4-0.4-0.7-0.5c-0.3-0.1-0.6-0.2-0.9-0.2
					c-0.4,0-0.8,0.1-1.1,0.4c-0.4,0.2-0.6,0.5-0.8,0.9v1.9c0.2,0.5,0.5,0.9,0.9,1.2C389.6,154.2,390.1,154.3,390.5,154.3z"/>
				<path class="st8" d="M401.5,156.8c-0.8,0-1.5-0.1-2.2-0.4c-0.6-0.3-1.2-0.6-1.6-1.1s-0.8-1-1-1.6c-0.2-0.6-0.3-1.2-0.3-1.9
					c0-0.6,0.1-1.3,0.3-1.9c0.2-0.6,0.5-1.1,1-1.6c0.4-0.5,1-0.8,1.6-1.1c0.6-0.3,1.3-0.4,2.2-0.4c0.8,0,1.5,0.1,2.1,0.4
					c0.6,0.3,1.2,0.6,1.6,1.1c0.4,0.4,0.8,1,1,1.6c0.2,0.6,0.3,1.2,0.3,1.9c0,0.6-0.1,1.3-0.3,1.9c-0.2,0.6-0.5,1.1-1,1.6
					c-0.4,0.5-1,0.8-1.6,1.1C403,156.6,402.3,156.8,401.5,156.8z M399.4,151.9c0,0.7,0.2,1.3,0.6,1.8s0.9,0.7,1.5,0.7
					c0.3,0,0.6-0.1,0.8-0.2s0.5-0.3,0.7-0.5c0.2-0.2,0.3-0.5,0.4-0.8c0.1-0.3,0.2-0.6,0.2-1c0-0.7-0.2-1.3-0.6-1.8s-0.9-0.7-1.5-0.7
					c-0.3,0-0.6,0.1-0.8,0.2c-0.3,0.1-0.5,0.3-0.7,0.5s-0.3,0.5-0.4,0.8C399.4,151.2,399.4,151.5,399.4,151.9z"/>
				<path class="st8" d="M411.8,156.8c-0.4,0-0.8,0-1.2-0.1c-0.4-0.1-0.8-0.1-1.3-0.2c-0.4-0.1-0.8-0.2-1.2-0.4
					c-0.4-0.1-0.7-0.3-1-0.5l1.1-1.9c0.6,0.4,1.2,0.6,1.8,0.8c0.6,0.2,1.2,0.3,1.7,0.3c0.4,0,0.7-0.1,1-0.2c0.2-0.1,0.3-0.3,0.3-0.6
					s-0.2-0.4-0.5-0.6s-0.8-0.3-1.5-0.5c-0.6-0.2-1.2-0.3-1.6-0.5c-0.4-0.2-0.8-0.4-1.1-0.6c-0.3-0.2-0.5-0.4-0.6-0.7
					c-0.1-0.3-0.2-0.6-0.2-0.9c0-0.5,0.1-0.9,0.3-1.3c0.2-0.4,0.5-0.7,0.8-1c0.3-0.3,0.8-0.5,1.2-0.6c0.5-0.2,1-0.2,1.6-0.2
					c0.7,0,1.3,0.1,2,0.3s1.4,0.5,2,0.8l-1.1,1.8c-0.6-0.3-1.1-0.6-1.6-0.7c-0.5-0.1-0.9-0.2-1.3-0.2c-0.4,0-0.7,0.1-0.9,0.2
					c-0.2,0.1-0.4,0.3-0.4,0.6c0,0.1,0,0.2,0.1,0.3c0.1,0.1,0.2,0.2,0.3,0.3s0.3,0.2,0.5,0.2c0.2,0.1,0.5,0.1,0.8,0.2
					c0.7,0.2,1.3,0.4,1.8,0.5c0.5,0.2,0.9,0.4,1.2,0.6s0.5,0.5,0.6,0.8c0.1,0.3,0.2,0.6,0.2,1c0,0.5-0.1,0.9-0.3,1.3
					c-0.2,0.4-0.5,0.7-0.8,1c-0.3,0.3-0.8,0.5-1.3,0.6C413,156.7,412.5,156.8,411.8,156.8z"/>
				<path class="st8" d="M419.9,156.8c-0.5,0-0.9-0.1-1.3-0.2c-0.4-0.2-0.7-0.4-1-0.6c-0.3-0.3-0.5-0.6-0.7-1
					c-0.2-0.4-0.3-0.8-0.3-1.2c0-0.5,0.1-0.9,0.3-1.3c0.2-0.4,0.5-0.7,0.8-1c0.4-0.3,0.8-0.5,1.3-0.6c0.5-0.2,1-0.2,1.6-0.2
					c0.4,0,0.8,0,1.2,0.1c0.4,0.1,0.7,0.2,1,0.3v-0.4c0-1.1-0.6-1.6-1.9-1.6c-0.5,0-1,0.1-1.5,0.3s-1,0.4-1.5,0.8l-0.8-1.8
					c0.6-0.4,1.3-0.7,1.9-0.9s1.4-0.3,2.1-0.3c1.4,0,2.5,0.3,3.3,1c0.8,0.7,1.2,1.7,1.2,3v2.4c0,0.3,0.1,0.5,0.2,0.6
					c0.1,0.1,0.3,0.2,0.6,0.2v2.4c-0.3,0.1-0.5,0.1-0.8,0.1c-0.2,0-0.4,0-0.6,0c-0.5,0-0.9-0.1-1.2-0.3c-0.3-0.2-0.4-0.5-0.5-0.9
					l-0.1-0.4c-0.4,0.5-0.9,1-1.5,1.2S420.5,156.8,419.9,156.8z M420.7,154.7c0.3,0,0.6-0.1,0.9-0.2c0.3-0.1,0.5-0.3,0.7-0.4
					c0.3-0.2,0.4-0.4,0.4-0.7v-0.9c-0.3-0.1-0.5-0.2-0.8-0.2s-0.6-0.1-0.8-0.1c-0.5,0-1,0.1-1.3,0.4s-0.5,0.6-0.5,0.9
					c0,0.3,0.1,0.6,0.4,0.9C420,154.6,420.3,154.7,420.7,154.7z"/>
				<path class="st8" d="M427.8,143.4h2.9v9.6c0,0.7,0.3,1.1,0.9,1.1c0.1,0,0.3,0,0.5-0.1s0.3-0.1,0.5-0.2l0.4,2.3
					c-0.4,0.2-0.8,0.3-1.2,0.4c-0.5,0.1-0.9,0.1-1.3,0.1c-0.8,0-1.5-0.2-1.9-0.6c-0.5-0.4-0.7-1.1-0.7-1.9V143.4z"/>
			</g>
			<g class="st29">
				<path class="st8" d="M507.4,128.2v-12.8h4.8c1.1,0,2,0.2,2.8,0.5c0.8,0.3,1.5,0.8,2,1.4c0.5,0.6,0.9,1.3,1.2,2
					c0.3,0.8,0.4,1.6,0.4,2.5c0,1-0.2,1.9-0.5,2.6c-0.3,0.8-0.7,1.5-1.3,2c-0.6,0.6-1.2,1-2,1.3c-0.8,0.3-1.7,0.5-2.6,0.5H507.4z
					 M515.5,121.8c0-0.6-0.1-1.1-0.2-1.5c-0.2-0.5-0.4-0.9-0.7-1.2s-0.6-0.6-1.1-0.8c-0.4-0.2-0.9-0.3-1.4-0.3h-1.8v7.6h1.8
					c0.5,0,1-0.1,1.4-0.3s0.8-0.5,1.1-0.8c0.3-0.3,0.5-0.7,0.6-1.2C515.5,122.9,515.5,122.3,515.5,121.8z"/>
				<path class="st8" d="M524.6,128.4c-0.8,0-1.5-0.1-2.1-0.4s-1.2-0.6-1.6-1.1c-0.4-0.4-0.8-1-1-1.5c-0.2-0.6-0.3-1.2-0.3-1.8
					c0-0.7,0.1-1.3,0.3-1.9c0.2-0.6,0.6-1.1,1-1.6c0.4-0.5,1-0.8,1.6-1.1c0.6-0.3,1.3-0.4,2.2-0.4c0.8,0,1.5,0.1,2.1,0.4
					c0.6,0.3,1.2,0.6,1.6,1.1c0.4,0.5,0.8,1,1,1.6c0.2,0.6,0.3,1.2,0.3,1.9c0,0.2,0,0.3,0,0.5s0,0.3-0.1,0.4h-7
					c0,0.6,0.3,1.1,0.7,1.4s0.9,0.5,1.4,0.5c0.4,0,0.8-0.1,1.2-0.3c0.4-0.2,0.7-0.5,0.8-0.8l2.4,0.7c-0.4,0.7-0.9,1.3-1.7,1.8
					C526.6,128.2,525.7,128.4,524.6,128.4z M526.6,122.6c-0.1-0.6-0.3-1.1-0.6-1.4c-0.4-0.3-0.8-0.5-1.4-0.5c-0.6,0-1,0.2-1.4,0.5
					c-0.4,0.4-0.6,0.8-0.6,1.4H526.6z"/>
				<path class="st8" d="M534.9,128.4c-0.4,0-0.8,0-1.2-0.1c-0.4-0.1-0.8-0.1-1.3-0.2c-0.4-0.1-0.8-0.2-1.2-0.4
					c-0.4-0.1-0.7-0.3-1-0.5l1.1-1.9c0.6,0.4,1.2,0.6,1.8,0.8c0.6,0.2,1.2,0.3,1.7,0.3c0.4,0,0.7-0.1,1-0.2c0.2-0.1,0.3-0.3,0.3-0.6
					s-0.2-0.4-0.5-0.6s-0.8-0.3-1.5-0.5c-0.6-0.2-1.2-0.3-1.6-0.5s-0.8-0.4-1.1-0.6c-0.3-0.2-0.5-0.4-0.6-0.7
					c-0.1-0.3-0.2-0.6-0.2-0.9c0-0.5,0.1-0.9,0.3-1.3c0.2-0.4,0.5-0.7,0.8-1c0.3-0.3,0.8-0.5,1.2-0.6c0.5-0.2,1-0.2,1.6-0.2
					c0.7,0,1.3,0.1,2,0.3c0.7,0.2,1.4,0.5,2,0.8l-1.1,1.8c-0.6-0.3-1.1-0.6-1.6-0.7c-0.5-0.1-0.9-0.2-1.3-0.2
					c-0.4,0-0.7,0.1-0.9,0.2c-0.2,0.1-0.4,0.3-0.4,0.6c0,0.1,0,0.2,0.1,0.3c0.1,0.1,0.2,0.2,0.3,0.3s0.3,0.2,0.5,0.2
					c0.2,0.1,0.5,0.1,0.8,0.2c0.7,0.2,1.3,0.4,1.8,0.5c0.5,0.2,0.9,0.4,1.2,0.6s0.5,0.5,0.6,0.8c0.1,0.3,0.2,0.6,0.2,1
					c0,0.5-0.1,0.9-0.3,1.3c-0.2,0.4-0.5,0.7-0.8,1c-0.3,0.3-0.8,0.5-1.3,0.6C536.1,128.3,535.5,128.4,534.9,128.4z"/>
				<path class="st8" d="M540.2,117.7v-2.6h2.9v2.6H540.2z M540.2,128.2v-9.5h2.9v9.5H540.2z"/>
				<path class="st8" d="M548.7,128.2c-0.6,0-1.2-0.1-1.7-0.4c-0.5-0.3-0.9-0.6-1.3-1c-0.4-0.4-0.7-0.9-0.9-1.5s-0.3-1.2-0.3-1.9
					c0-0.7,0.1-1.3,0.3-1.9s0.5-1.1,0.9-1.5c0.4-0.4,0.8-0.8,1.4-1s1.1-0.4,1.8-0.4c0.7,0,1.3,0.2,1.9,0.5s1,0.7,1.3,1.3v-1.5h2.5
					v8.8c0,0.7-0.1,1.4-0.4,1.9c-0.3,0.6-0.6,1.1-1.1,1.5c-0.5,0.4-1.1,0.7-1.7,0.9c-0.7,0.2-1.4,0.3-2.2,0.3c-1,0-1.9-0.2-2.6-0.5
					c-0.7-0.3-1.3-0.8-1.9-1.4l1.5-1.6c0.3,0.4,0.8,0.7,1.3,0.9c0.5,0.2,1.1,0.4,1.7,0.4c0.3,0,0.7,0,1-0.1c0.3-0.1,0.6-0.2,0.8-0.4
					c0.2-0.2,0.4-0.5,0.6-0.8c0.1-0.3,0.2-0.7,0.2-1.1v-0.9c-0.3,0.5-0.7,0.9-1.3,1.2C549.9,128.1,549.4,128.2,548.7,128.2z
					 M549.7,126c0.4,0,0.8-0.1,1.2-0.4s0.6-0.6,0.8-0.9v-2c-0.2-0.5-0.5-0.9-0.9-1.2c-0.4-0.3-0.8-0.4-1.3-0.4
					c-0.3,0-0.6,0.1-0.9,0.2c-0.3,0.1-0.5,0.3-0.7,0.6c-0.2,0.2-0.3,0.5-0.4,0.8c-0.1,0.3-0.2,0.6-0.2,0.9c0,0.3,0.1,0.7,0.2,1
					s0.3,0.5,0.5,0.8c0.2,0.2,0.4,0.4,0.7,0.5S549.4,126,549.7,126z"/>
				<path class="st8" d="M565.7,128.2h-2.9v-5.3c0-0.6-0.1-1.1-0.4-1.4c-0.2-0.3-0.5-0.4-0.9-0.4c-0.2,0-0.4,0-0.6,0.1
					s-0.4,0.2-0.6,0.4c-0.2,0.2-0.4,0.3-0.5,0.5s-0.3,0.4-0.4,0.7v5.4h-2.9v-9.5h2.6v1.6c0.3-0.6,0.8-1,1.5-1.3s1.4-0.5,2.2-0.5
					c0.6,0,1.1,0.1,1.5,0.3s0.7,0.5,0.9,0.9c0.2,0.4,0.3,0.7,0.4,1.2c0.1,0.4,0.1,0.8,0.1,1.2V128.2z"/>
				<path class="st8" d="M580.2,128.2l-0.8-0.9c-0.5,0.3-1.1,0.6-1.7,0.8s-1.2,0.3-1.8,0.3c-0.7,0-1.3-0.1-1.9-0.3
					c-0.5-0.2-1-0.5-1.4-0.9s-0.7-0.8-0.9-1.3c-0.2-0.5-0.3-1-0.3-1.5c0-0.4,0.1-0.7,0.2-1.1c0.1-0.3,0.3-0.6,0.4-0.9
					c0.2-0.3,0.4-0.5,0.6-0.8s0.5-0.5,0.8-0.7c-0.2-0.3-0.4-0.5-0.6-0.7c-0.2-0.2-0.3-0.4-0.4-0.6c-0.1-0.2-0.2-0.4-0.2-0.6
					s-0.1-0.4-0.1-0.6c0-0.5,0.1-0.9,0.3-1.3c0.2-0.4,0.4-0.7,0.8-1c0.3-0.3,0.7-0.5,1.2-0.6c0.4-0.1,0.9-0.2,1.4-0.2
					c0.4,0,0.9,0.1,1.3,0.2c0.4,0.1,0.8,0.3,1.1,0.5c0.3,0.2,0.6,0.6,0.8,0.9c0.2,0.4,0.3,0.8,0.3,1.3c0,0.7-0.2,1.3-0.5,1.8
					c-0.4,0.5-0.8,1-1.4,1.4l2,2.1c0.2-0.4,0.3-0.8,0.4-1.2c0.1-0.4,0.1-0.9,0.1-1.4h2.3c0,0.9-0.1,1.7-0.3,2.4
					c-0.2,0.7-0.5,1.4-0.8,1.9l2.8,2.9H580.2z M576.2,126.1c0.6,0,1.1-0.2,1.6-0.5l-2.5-2.7c-0.3,0.2-0.6,0.5-0.7,0.7
					c-0.2,0.2-0.3,0.5-0.3,0.8c0,0.2,0,0.4,0.1,0.6c0.1,0.2,0.2,0.4,0.4,0.5c0.2,0.2,0.4,0.3,0.6,0.4
					C575.6,126.1,575.9,126.1,576.2,126.1z M574.9,118.3c0,0.2,0.1,0.4,0.2,0.5c0.1,0.2,0.3,0.4,0.6,0.7c0.4-0.2,0.6-0.5,0.8-0.6
					c0.2-0.2,0.3-0.4,0.3-0.7s-0.1-0.5-0.3-0.6c-0.2-0.2-0.4-0.2-0.7-0.2c-0.3,0-0.6,0.1-0.7,0.3C575,117.8,574.9,118,574.9,118.3z"
					/>
			</g>
			<g class="st29">
				<path class="st8" d="M488.9,150.2v-12.8h4.8c1.1,0,2,0.2,2.8,0.5c0.8,0.3,1.5,0.8,2,1.4c0.5,0.6,0.9,1.3,1.2,2
					c0.3,0.8,0.4,1.6,0.4,2.5c0,1-0.2,1.9-0.5,2.6c-0.3,0.8-0.7,1.5-1.3,2c-0.6,0.6-1.2,1-2,1.3c-0.8,0.3-1.7,0.5-2.6,0.5H488.9z
					 M497,143.8c0-0.6-0.1-1.1-0.2-1.5c-0.2-0.5-0.4-0.9-0.7-1.2s-0.6-0.6-1.1-0.8c-0.4-0.2-0.9-0.3-1.4-0.3h-1.8v7.6h1.8
					c0.5,0,1-0.1,1.4-0.3s0.8-0.5,1.1-0.8c0.3-0.3,0.5-0.7,0.6-1.2C497,144.9,497,144.3,497,143.8z"/>
				<path class="st8" d="M506.1,150.4c-0.8,0-1.5-0.1-2.1-0.4s-1.2-0.6-1.6-1.1c-0.4-0.4-0.8-1-1-1.5c-0.2-0.6-0.3-1.2-0.3-1.8
					c0-0.7,0.1-1.3,0.3-1.9c0.2-0.6,0.6-1.1,1-1.6c0.4-0.5,1-0.8,1.6-1.1c0.6-0.3,1.3-0.4,2.2-0.4c0.8,0,1.5,0.1,2.1,0.4
					c0.6,0.3,1.2,0.6,1.6,1.1c0.4,0.5,0.8,1,1,1.6c0.2,0.6,0.3,1.2,0.3,1.9c0,0.2,0,0.3,0,0.5s0,0.3-0.1,0.4h-7
					c0,0.6,0.3,1.1,0.7,1.4s0.9,0.5,1.4,0.5c0.4,0,0.8-0.1,1.2-0.3c0.4-0.2,0.7-0.5,0.8-0.8l2.4,0.7c-0.4,0.7-0.9,1.3-1.7,1.8
					C508.1,150.2,507.2,150.4,506.1,150.4z M508.1,144.6c-0.1-0.6-0.3-1.1-0.6-1.4c-0.4-0.3-0.8-0.5-1.4-0.5c-0.6,0-1,0.2-1.4,0.5
					c-0.4,0.4-0.6,0.8-0.6,1.4H508.1z"/>
				<path class="st8" d="M514.6,150.2l-3.3-9.5h3l2.1,7.1l2.1-7.1h2.7l-3.3,9.5H514.6z"/>
				<path class="st8" d="M526.6,150.4c-0.8,0-1.5-0.1-2.1-0.4s-1.2-0.6-1.6-1.1c-0.4-0.4-0.8-1-1-1.5c-0.2-0.6-0.3-1.2-0.3-1.8
					c0-0.7,0.1-1.3,0.3-1.9c0.2-0.6,0.6-1.1,1-1.6s1-0.8,1.6-1.1c0.6-0.3,1.3-0.4,2.2-0.4s1.5,0.1,2.1,0.4c0.6,0.3,1.2,0.6,1.6,1.1
					c0.4,0.5,0.8,1,1,1.6c0.2,0.6,0.3,1.2,0.3,1.9c0,0.2,0,0.3,0,0.5c0,0.2,0,0.3-0.1,0.4h-7c0,0.6,0.3,1.1,0.7,1.4s0.9,0.5,1.4,0.5
					c0.4,0,0.8-0.1,1.2-0.3s0.7-0.5,0.8-0.8l2.4,0.7c-0.4,0.7-0.9,1.3-1.7,1.8C528.6,150.2,527.7,150.4,526.6,150.4z M528.6,144.6
					c-0.1-0.6-0.3-1.1-0.6-1.4c-0.4-0.3-0.8-0.5-1.4-0.5c-0.6,0-1,0.2-1.4,0.5c-0.4,0.4-0.6,0.8-0.6,1.4H528.6z"/>
				<path class="st8" d="M532.9,137.1h2.9v9.6c0,0.7,0.3,1.1,0.9,1.1c0.1,0,0.3,0,0.5-0.1s0.3-0.1,0.5-0.2l0.4,2.3
					c-0.4,0.2-0.8,0.3-1.2,0.4c-0.5,0.1-0.9,0.1-1.3,0.1c-0.8,0-1.5-0.2-1.9-0.6c-0.5-0.4-0.7-1.1-0.7-1.9V137.1z"/>
				<path class="st8" d="M543.5,150.4c-0.8,0-1.5-0.1-2.2-0.4s-1.2-0.6-1.6-1.1s-0.8-1-1-1.6c-0.2-0.6-0.3-1.2-0.3-1.9
					c0-0.6,0.1-1.3,0.3-1.9c0.2-0.6,0.5-1.1,1-1.6c0.4-0.5,1-0.8,1.6-1.1c0.6-0.3,1.3-0.4,2.2-0.4c0.8,0,1.5,0.1,2.1,0.4
					c0.6,0.3,1.2,0.6,1.6,1.1c0.4,0.4,0.8,1,1,1.6c0.2,0.6,0.3,1.2,0.3,1.9c0,0.6-0.1,1.3-0.3,1.9c-0.2,0.6-0.5,1.1-1,1.6
					c-0.4,0.5-1,0.8-1.6,1.1C545,150.3,544.3,150.4,543.5,150.4z M541.4,145.5c0,0.7,0.2,1.3,0.6,1.8c0.4,0.5,0.9,0.7,1.5,0.7
					c0.3,0,0.6-0.1,0.8-0.2s0.5-0.3,0.7-0.5c0.2-0.2,0.3-0.5,0.4-0.8c0.1-0.3,0.2-0.6,0.2-1c0-0.7-0.2-1.3-0.6-1.8
					c-0.4-0.5-0.9-0.7-1.5-0.7c-0.3,0-0.6,0.1-0.8,0.2c-0.3,0.1-0.5,0.3-0.7,0.5c-0.2,0.2-0.3,0.5-0.4,0.8
					C541.4,144.8,541.4,145.1,541.4,145.5z"/>
				<path class="st8" d="M555.9,150.4c-0.7,0-1.3-0.1-1.9-0.4s-0.9-0.7-1.2-1.3v5.4h-2.9v-13.3h2.5v1.5c0.3-0.5,0.8-1,1.3-1.3
					c0.5-0.3,1.1-0.5,1.9-0.5c0.6,0,1.2,0.1,1.8,0.4s1,0.6,1.4,1c0.4,0.4,0.7,1,0.9,1.5s0.3,1.2,0.3,1.9c0,0.7-0.1,1.4-0.3,2
					c-0.2,0.6-0.5,1.1-0.9,1.6c-0.4,0.4-0.8,0.8-1.3,1S556.5,150.4,555.9,150.4z M554.9,148c0.3,0,0.6-0.1,0.9-0.2s0.5-0.3,0.7-0.5
					s0.3-0.5,0.4-0.8c0.1-0.3,0.2-0.6,0.2-1c0-0.3-0.1-0.7-0.2-1c-0.1-0.3-0.3-0.5-0.5-0.8s-0.4-0.4-0.7-0.5s-0.6-0.2-0.9-0.2
					c-0.4,0-0.8,0.1-1.1,0.4c-0.4,0.2-0.6,0.5-0.8,0.9v1.9c0.2,0.5,0.5,0.9,0.9,1.2C554.1,147.8,554.5,148,554.9,148z"/>
				<path class="st8" d="M576.3,150.2h-2.9v-5.3c0-0.6-0.1-1.1-0.3-1.4c-0.2-0.3-0.5-0.4-0.9-0.4c-0.4,0-0.8,0.2-1.1,0.5
					c-0.4,0.3-0.6,0.7-0.8,1.2v5.4h-2.9v-5.3c0-0.6-0.1-1.1-0.3-1.4s-0.5-0.4-0.9-0.4c-0.4,0-0.8,0.2-1.1,0.5
					c-0.4,0.3-0.6,0.7-0.8,1.2v5.4h-2.9v-9.5h2.6v1.6c0.3-0.6,0.8-1,1.4-1.3c0.6-0.3,1.3-0.5,2.1-0.5c0.4,0,0.7,0,1,0.1
					c0.3,0.1,0.6,0.2,0.8,0.4s0.4,0.4,0.5,0.6s0.2,0.5,0.3,0.7c0.3-0.6,0.8-1,1.4-1.4c0.6-0.3,1.3-0.5,2-0.5c0.6,0,1.1,0.1,1.4,0.3
					s0.7,0.5,0.9,0.9c0.2,0.4,0.3,0.7,0.4,1.2c0.1,0.4,0.1,0.8,0.1,1.2V150.2z"/>
				<path class="st8" d="M582.8,150.4c-0.8,0-1.5-0.1-2.1-0.4s-1.2-0.6-1.6-1.1c-0.4-0.4-0.8-1-1-1.5c-0.2-0.6-0.3-1.2-0.3-1.8
					c0-0.7,0.1-1.3,0.3-1.9c0.2-0.6,0.6-1.1,1-1.6c0.4-0.5,1-0.8,1.6-1.1c0.6-0.3,1.3-0.4,2.2-0.4s1.5,0.1,2.1,0.4
					c0.6,0.3,1.2,0.6,1.6,1.1c0.4,0.5,0.8,1,1,1.6c0.2,0.6,0.3,1.2,0.3,1.9c0,0.2,0,0.3,0,0.5c0,0.2,0,0.3-0.1,0.4h-7
					c0,0.6,0.3,1.1,0.7,1.4c0.4,0.3,0.9,0.5,1.4,0.5c0.4,0,0.8-0.1,1.2-0.3c0.4-0.2,0.7-0.5,0.8-0.8l2.4,0.7
					c-0.4,0.7-0.9,1.3-1.7,1.8C584.8,150.2,583.8,150.4,582.8,150.4z M584.8,144.6c-0.1-0.6-0.3-1.1-0.6-1.4
					c-0.4-0.3-0.8-0.5-1.4-0.5c-0.6,0-1,0.2-1.4,0.5c-0.4,0.4-0.6,0.8-0.6,1.4H584.8z"/>
				<path class="st8" d="M598.2,150.2h-2.9v-5.3c0-0.6-0.1-1.1-0.4-1.4c-0.2-0.3-0.5-0.4-0.9-0.4c-0.2,0-0.4,0-0.6,0.1
					s-0.4,0.2-0.6,0.4c-0.2,0.2-0.4,0.3-0.5,0.5s-0.3,0.4-0.4,0.7v5.4h-2.9v-9.5h2.6v1.6c0.3-0.6,0.8-1,1.5-1.3s1.4-0.5,2.2-0.5
					c0.6,0,1.1,0.1,1.5,0.3s0.7,0.5,0.9,0.9c0.2,0.4,0.3,0.7,0.4,1.2c0.1,0.4,0.1,0.8,0.1,1.2V150.2z"/>
				<path class="st8" d="M606.2,149.7c-0.4,0.2-0.8,0.3-1.3,0.5c-0.5,0.1-1,0.2-1.5,0.2c-0.4,0-0.7,0-1-0.1
					c-0.3-0.1-0.6-0.2-0.8-0.4c-0.2-0.2-0.4-0.5-0.6-0.8c-0.1-0.3-0.2-0.7-0.2-1.2v-4.9h-1.2v-2.2h1.2v-3h2.9v3h1.9v2.2h-1.9v3.9
					c0,0.3,0.1,0.5,0.2,0.7c0.2,0.1,0.4,0.2,0.6,0.2c0.2,0,0.4,0,0.6-0.1c0.2-0.1,0.4-0.2,0.6-0.2L606.2,149.7z"/>
			</g>
			<path class="st8" d="M306.1,346.3h-23.3c-1.3,0-2.3,1-2.3,2.3v18.7c0,1.3,1,2.3,2.3,2.3h2.6c3.6,5,10.6,6.2,15.6,2.6
				c1-0.7,1.9-1.6,2.6-2.6h2.6c1.3,0,2.3-1,2.3-2.3v-18.7C308.4,347.3,307.4,346.3,306.1,346.3z M282.7,347.2H306
				c0.8,0,1.4,0.6,1.4,1.4v1.4h-26.1v-1.4C281.3,347.8,282,347.2,282.7,347.2z M294.4,373.3c-5.7,0-10.3-4.6-10.3-10.3
				c0-5.7,4.6-10.3,10.3-10.3c5.7,0,10.3,4.6,10.3,10.3C304.7,368.7,300.1,373.3,294.4,373.3z M306.1,368.7h-2
				c3.1-5.4,1.3-12.2-4.1-15.3c-5.4-3.1-12.2-1.3-15.3,4.1c-1,1.7-1.5,3.6-1.5,5.6s0.5,3.9,1.5,5.6h-2c-0.8,0-1.4-0.6-1.4-1.4V351
				h26.1v16.3C307.5,368,306.8,368.7,306.1,368.7z"/>
			<path class="st8" d="M283.2,349.1h0.5c0.3,0,0.5-0.2,0.5-0.5s-0.2-0.5-0.5-0.5h-0.5c-0.3,0-0.5,0.2-0.5,0.5
				S282.9,349.1,283.2,349.1z"/>
			<path class="st8" d="M285.5,349.1h0.5c0.3,0,0.5-0.2,0.5-0.5s-0.2-0.5-0.5-0.5h-0.5c-0.3,0-0.5,0.2-0.5,0.5
				S285.3,349.1,285.5,349.1z"/>
			<path class="st8" d="M287.9,349.1h0.5c0.3,0,0.5-0.2,0.5-0.5s-0.2-0.5-0.5-0.5h-0.5c-0.3,0-0.5,0.2-0.5,0.5
				S287.6,349.1,287.9,349.1z"/>
			<path class="st8" d="M305.1,349.1h0.5c0.3,0,0.5-0.2,0.5-0.5s-0.2-0.5-0.5-0.5h-0.5c-0.3,0-0.5,0.2-0.5,0.5
				S304.9,349.1,305.1,349.1z"/>
			<path class="st8" d="M292.5,349.1h3.7c0.3,0,0.5-0.2,0.5-0.5s-0.2-0.5-0.5-0.5h-3.7c-0.3,0-0.5,0.2-0.5,0.5
				S292.3,349.1,292.5,349.1z"/>
			<path class="st8" d="M294.4,361.7c-0.8,0-1.4,0.6-1.4,1.4s0.6,1.4,1.4,1.4s1.4-0.6,1.4-1.4S295.2,361.7,294.4,361.7z
				 M294.4,363.5c-0.3,0-0.5-0.2-0.5-0.5s0.2-0.5,0.5-0.5s0.5,0.2,0.5,0.5S294.7,363.5,294.4,363.5z"/>
			<path class="st8" d="M302.8,362.6h-1c-0.2-3.7-3.2-6.7-7-7v-1c0-0.3-0.2-0.5-0.5-0.5s-0.5,0.2-0.5,0.5v1c-3.7,0.2-6.7,3.2-7,7h-1
				c-0.3,0-0.5,0.2-0.5,0.5s0.2,0.5,0.5,0.5h1c0.2,3.7,3.2,6.7,7,7v1c0,0.3,0.2,0.5,0.5,0.5s0.5-0.2,0.5-0.5v-1c3.7-0.2,6.7-3.2,7-7
				h1c0.3,0,0.5-0.2,0.5-0.5C303.3,362.8,303.1,362.6,302.8,362.6z M300.9,362.6H299c-0.2-2.2-2-4-4.2-4.2v-1.9
				C298.1,356.8,300.7,359.4,300.9,362.6z M297.2,363.5h0.9c-0.2,1.7-1.5,3-3.2,3.2v-0.9c0-0.3-0.2-0.5-0.5-0.5s-0.5,0.2-0.5,0.5
				v0.9c-1.7-0.2-3-1.5-3.2-3.2h0.9c0.3,0,0.5-0.2,0.5-0.5s-0.2-0.5-0.5-0.5h-0.9c0.2-1.7,1.5-3,3.2-3.2v0.9c0,0.3,0.2,0.5,0.5,0.5
				s0.5-0.2,0.5-0.5v-0.9c1.7,0.2,3,1.5,3.2,3.2h-0.9c-0.3,0-0.5,0.2-0.5,0.5S296.9,363.5,297.2,363.5z M293.9,356.6v1.9
				c-2.2,0.2-4,2-4.2,4.2h-1.9C288.1,359.4,290.7,356.8,293.9,356.6z M287.9,363.5h1.9c0.2,2.2,2,4,4.2,4.2v1.9
				C290.7,369.4,288.1,366.8,287.9,363.5z M294.9,369.6v-1.9c2.2-0.2,4-2,4.2-4.2h1.9C300.7,366.8,298.1,369.4,294.9,369.6z"/>
			<g>
				<path class="st8" d="M287.2,226.7h-2.6c-0.6,0-1.1-0.4-1.3-0.9l-0.4-1.1c-0.1-0.3,0-0.5,0.3-0.6s0.5,0,0.6,0.3l0,0l0.4,1.1
					c0.1,0.2,0.2,0.3,0.4,0.3h2.6c0.2,0,0.3-0.1,0.4-0.3l0.4-1.1c0.1-0.3,0.4-0.4,0.6-0.3c0.2,0.1,0.4,0.4,0.3,0.6l-0.4,1.1
					C288.3,226.3,287.8,226.7,287.2,226.7L287.2,226.7z"/>
				<path class="st8" d="M288.2,224.9h-4.6c-2,0-3.6-1.6-3.6-3.6V218c0-0.3,0.2-0.5,0.5-0.5h10.8c0.3,0,0.5,0.2,0.5,0.5v3.4
					C291.7,223.3,290.1,224.9,288.2,224.9L288.2,224.9z M281,218.5v2.9c0,1.4,1.2,2.6,2.6,2.6h4.6c1.4,0,2.6-1.2,2.6-2.6v-2.9H281z"
					/>
				<path class="st8" d="M291.2,218.5h-10.8c-0.2,0-0.4-0.2-0.5-0.4c-0.5-1.9-1.4-3.6-2.7-5c-1.8-2.1-2.7-4.9-2.6-7.6
					c0.3-5.6,4.7-10.1,10.4-10.5c3.1-0.2,6.1,0.9,8.3,3c4.3,4,4.7,10.6,0.9,15.1c-1.2,1.5-2.1,3.2-2.6,5.1
					C291.6,218.3,291.4,218.5,291.2,218.5L291.2,218.5z M280.8,217.5h10c0.5-1.9,1.4-3.6,2.7-5.1c3.6-4.3,3-10.6-1.3-14.2
					s-10.6-3-14.2,1.3c-3.1,3.8-3.1,9.2,0,12.9C279.3,213.9,280.3,215.7,280.8,217.5L280.8,217.5z"/>
				<path class="st8" d="M280.5,220.3c-0.3,0-0.5-0.2-0.5-0.5s0.2-0.5,0.4-0.5l10.8-1.1c0.3,0,0.5,0.2,0.5,0.4
					c0,0.3-0.2,0.5-0.4,0.5L280.5,220.3L280.5,220.3L280.5,220.3z"/>
				<path class="st8" d="M280.5,222.3c-0.3,0-0.5-0.2-0.5-0.5s0.2-0.5,0.4-0.5l10.8-1.1c0.3,0,0.5,0.2,0.5,0.4s-0.2,0.5-0.4,0.5
					L280.5,222.3L280.5,222.3L280.5,222.3z"/>
				<path class="st8" d="M281.4,224.1c-0.3,0-0.5-0.2-0.5-0.5s0.2-0.5,0.5-0.5l9.5-1c0.3,0,0.5,0.2,0.5,0.4c0,0.3-0.2,0.5-0.4,0.5
					L281.4,224.1C281.5,224.1,281.5,224.1,281.4,224.1L281.4,224.1z"/>
				<path class="st8" d="M285.8,194.6c-0.3,0-0.5-0.2-0.5-0.5v-1.7c0-0.3,0.2-0.5,0.5-0.5s0.5,0.2,0.5,0.5v1.7
					C286.3,194.4,286,194.6,285.8,194.6z"/>
				<path class="st8" d="M279.9,196.2c-0.2,0-0.3-0.1-0.4-0.2l-0.8-1.4c-0.1-0.2-0.1-0.5,0.2-0.7c0.2-0.1,0.5-0.1,0.7,0.2l0,0
					l0.8,1.4c0.1,0.2,0.1,0.5-0.2,0.7C280,196.2,279.9,196.2,279.9,196.2z"/>
				<path class="st8" d="M275.5,200.6c-0.1,0-0.2,0-0.2-0.1l-1.4-0.8c-0.2-0.1-0.3-0.4-0.2-0.7c0.1-0.2,0.4-0.3,0.7-0.2l1.4,0.8
					c0.2,0.1,0.3,0.4,0.2,0.7C275.9,200.5,275.7,200.6,275.5,200.6L275.5,200.6z"/>
				<path class="st8" d="M273.9,206.5h-1.7c-0.3,0-0.5-0.2-0.5-0.5s0.2-0.5,0.5-0.5h1.7c0.3,0,0.5,0.2,0.5,0.5
					S274.2,206.5,273.9,206.5z"/>
				<path class="st8" d="M274.1,213.2c-0.3,0-0.5-0.2-0.5-0.5c0-0.2,0.1-0.3,0.2-0.4l1.4-0.8c0.2-0.1,0.5-0.1,0.7,0.2
					c0.1,0.2,0.1,0.5-0.2,0.7l0,0l-1.4,0.8C274.2,213.2,274.2,213.2,274.1,213.2L274.1,213.2z"/>
				<path class="st8" d="M291.7,196.2c-0.3,0-0.5-0.2-0.5-0.5c0-0.1,0-0.2,0.1-0.2l0.8-1.4c0.1-0.2,0.4-0.3,0.7-0.2
					c0.2,0.1,0.3,0.4,0.2,0.7l0,0l-0.8,1.4C292,196.1,291.9,196.2,291.7,196.2z"/>
				<path class="st8" d="M296,200.6c-0.3,0-0.5-0.2-0.5-0.5c0-0.2,0.1-0.3,0.2-0.4l1.4-0.8c0.2-0.1,0.5-0.1,0.7,0.2
					c0.1,0.2,0.1,0.5-0.2,0.7l-1.4,0.8C296.2,200.5,296.1,200.6,296,200.6L296,200.6z"/>
				<path class="st8" d="M299.3,206.5h-1.7c-0.3,0-0.5-0.2-0.5-0.5s0.2-0.5,0.5-0.5h1.7c0.3,0,0.5,0.2,0.5,0.5
					S299.6,206.5,299.3,206.5z"/>
				<path class="st8" d="M297.5,213.2c-0.1,0-0.2,0-0.2-0.1l-1.4-0.8c-0.2-0.1-0.3-0.4-0.2-0.7s0.4-0.3,0.7-0.2l0,0l1.4,0.8
					c0.2,0.1,0.3,0.4,0.2,0.7C297.8,213.1,297.6,213.2,297.5,213.2L297.5,213.2z"/>
				<path class="st8" d="M287,214.6L287,214.6h-2.5c-0.3,0-0.5-0.2-0.5-0.4l-0.2-1.9c-0.3-0.1-0.6-0.2-0.9-0.4l-1.5,1.2
					c-0.2,0.2-0.5,0.1-0.7,0l-1.7-1.8c-0.2-0.2-0.2-0.5,0-0.7l1.2-1.5c-0.1-0.3-0.3-0.6-0.4-0.9l-1.9-0.2c-0.2,0-0.4-0.2-0.4-0.5
					V205c0-0.3,0.2-0.5,0.4-0.5l1.9-0.2c0.1-0.3,0.2-0.6,0.4-0.9l-1.2-1.5c-0.2-0.2-0.1-0.5,0-0.7l1.8-1.7c0.2-0.2,0.5-0.2,0.7,0
					l1.5,1.2c0.3-0.1,0.6-0.3,0.9-0.4l0.2-1.9c0-0.2,0.2-0.4,0.5-0.4l0,0h2.5c0.3,0,0.5,0.2,0.5,0.4l0.2,1.9
					c0.3,0.1,0.6,0.2,0.9,0.4l1.5-1.2c0.2-0.2,0.5-0.1,0.7,0l1.7,1.8c0.2,0.2,0.2,0.5,0,0.7l-1.2,1.5c0.1,0.3,0.3,0.6,0.4,0.9
					l1.9,0.2c0.2,0,0.4,0.2,0.4,0.5v2.5c0,0.3-0.2,0.5-0.4,0.5l-1.9,0.2c-0.1,0.3-0.2,0.6-0.4,0.9l1.2,1.5c0.2,0.2,0.1,0.5,0,0.7
					l-1.8,1.7c-0.2,0.2-0.5,0.2-0.7,0l-1.5-1.2c-0.3,0.1-0.6,0.3-0.9,0.4l-0.2,1.9C287.4,214.4,287.2,214.6,287,214.6L287,214.6z
					 M284.9,213.6h1.6l0.2-1.7c0-0.2,0.2-0.4,0.4-0.4c0.4-0.1,0.9-0.3,1.3-0.5c0.2-0.1,0.4-0.1,0.6,0l1.4,1.1l1.1-1.1l-1.1-1.4
					c-0.1-0.2-0.1-0.4,0-0.6c0.2-0.4,0.4-0.8,0.5-1.3c0.1-0.2,0.2-0.3,0.4-0.4l1.8-0.2v-1.6l-1.8-0.2c-0.2,0-0.4-0.2-0.4-0.4
					c-0.1-0.4-0.3-0.9-0.5-1.3c-0.1-0.2-0.1-0.4,0-0.6l1.1-1.4l-1.1-1.1l-1.4,1.1c-0.2,0.1-0.4,0.1-0.6,0c-0.4-0.2-0.8-0.4-1.3-0.5
					c-0.2-0.1-0.3-0.2-0.4-0.4l-0.2-1.8h-1.6l-0.2,1.8c0,0.2-0.2,0.4-0.4,0.4c-0.4,0.1-0.9,0.3-1.3,0.5c-0.2,0.1-0.4,0.1-0.6,0
					l-1.4-1.1l-1.1,1.1l1.1,1.4c0.1,0.2,0.1,0.4,0,0.6c-0.2,0.4-0.4,0.8-0.5,1.3c-0.1,0.2-0.2,0.3-0.4,0.4l-1.8,0.2v1.6l1.8,0.2
					c0.2,0,0.4,0.2,0.4,0.4c0.1,0.4,0.3,0.9,0.5,1.3c0.1,0.2,0.1,0.4,0,0.6l-1.1,1.4l1.1,1.1l1.4-1.1c0.2-0.1,0.4-0.1,0.6,0
					c0.4,0.2,0.8,0.4,1.3,0.5c0.2,0.1,0.3,0.2,0.4,0.4L284.9,213.6z M285.8,210.5c-0.1,0-0.2,0-0.3,0c-2.2-0.1-3.8-2-3.8-4.1
					c0-2.3,1.9-4.1,4.1-4.1l0,0c2.3,0,4.1,1.9,4.1,4.1C289.9,208.7,288,210.5,285.8,210.5L285.8,210.5z M282.6,206.3
					c0,1.7,1.4,3.1,3.1,3.1l0,0c1.7,0,3.1-1.4,3.1-3.1c0-1.7-1.4-3.1-3.1-3.1C284.1,203.2,282.7,204.6,282.6,206.3L282.6,206.3z"/>
			</g>
			<g>
				<path class="st8" d="M386,98.6c1.7,0,3-1.3,3-3s-1.3-3-3-3s-3,1.3-3,3C383,97.2,384.4,98.6,386,98.6z M386,93.6c1.1,0,2,0.9,2,2
					s-0.9,2-2,2s-2-0.9-2-2S384.9,93.6,386,93.6z"/>
				<path class="st8" d="M402,98.6c1.7,0,3-1.3,3-3s-1.3-3-3-3s-3,1.3-3,3C399,97.2,400.4,98.6,402,98.6z M402,93.6c1.1,0,2,0.9,2,2
					s-0.9,2-2,2s-2-0.9-2-2S400.9,93.6,402,93.6z"/>
				<path class="st8" d="M407,99.6v6.5c0,0.8-0.7,1.5-1.5,1.5v-5.5c0-1.4-1.1-2.5-2.5-2.5h-2.5c-0.3,0-0.5,0.2-0.5,0.5v2v0.5v0.5h-4
					c-0.3,0-0.5,0.2-0.5,0.5v1.5h-3v-1.5c0-0.3-0.2-0.5-0.5-0.5h-4v-0.5v-0.5v-2c0-0.3-0.2-0.5-0.5-0.5H385c-1.4,0-2.5,1.1-2.5,2.5
					v5.5c-0.8,0-1.5-0.7-1.5-1.5v-6.5h-1v6.5c0,1,0.6,1.9,1.5,2.3v6.2h1v-6h0.5h0.5h4v5.5c0,0.3,0.2,0.5,0.5,0.5h1.5h0.5h0.5v-0.5
					v-7.5v-0.5h1.5h4h1.5v0.5v7.5v0.5h0.5h0.5h1.5c0.3,0,0.5-0.2,0.5-0.5v-5.5h4h0.5h0.5v6h1v-6.2c0.9-0.4,1.5-1.3,1.5-2.3v-6.5H407
					z M390,105.1h-1h-3v-3h-1v3.5c0,0.3,0.2,0.5,0.5,0.5h3.5c0.3,0,0.5,0.2,0.5,0.5v7h-1v-5.5c0-0.3-0.2-0.5-0.5-0.5h-4.5v-5.5
					c0-0.8,0.7-1.5,1.5-1.5h2v1.5v0.5v1c0,0.3,0.2,0.5,0.5,0.5h4v1H390z M400,107.6c-0.3,0-0.5,0.2-0.5,0.5v5.5h-1v-7
					c0-0.3,0.2-0.5,0.5-0.5h3.5c0.3,0,0.5-0.2,0.5-0.5v-3.5h-1v3h-3h-1h-1.5v-1h4c0.3,0,0.5-0.2,0.5-0.5v-1v-0.5v-1.5h2
					c0.8,0,1.5,0.7,1.5,1.5v5.5H400z"/>
				<path class="st8" d="M389.5,91.6v1.5c0,0.2,0.1,0.4,0.3,0.5c0.1,0,0.1,0,0.2,0c0.2,0,0.3-0.1,0.4-0.2l1.3-1.8h3.8
					c0.8,0,1.5-0.7,1.5-1.5v-2c0-0.8-0.7-1.5-1.5-1.5h-6c-0.8,0-1.5,0.7-1.5,1.5v2C388,90.9,388.7,91.6,389.5,91.6z M389,88.1
					c0-0.3,0.2-0.5,0.5-0.5h6c0.3,0,0.5,0.2,0.5,0.5v2c0,0.3-0.2,0.5-0.5,0.5h-4c-0.2,0-0.3,0.1-0.4,0.2l-0.6,0.8v-0.5
					c0-0.3-0.2-0.5-0.5-0.5h-0.5c-0.3,0-0.5-0.2-0.5-0.5V88.1z"/>
				<path class="st8" d="M390,88.6h5v1h-5V88.6z"/>
				<path class="st8" d="M393.5,99.1h3v1h-3V99.1z"/>
				<path class="st8" d="M393,97.1c-0.8,0-1.5,0.7-1.5,1.5v2c0,0.8,0.7,1.5,1.5,1.5h4c0.8,0,1.5-0.7,1.5-1.5v-0.3l0.9-1.4
					c0.1-0.2,0.1-0.4,0-0.5c-0.1-0.2-0.3-0.3-0.4-0.3h-0.6c-0.2-0.6-0.8-1-1.4-1C397,97.1,393,97.1,393,97.1z M397.5,98.6
					c0,0.3,0.2,0.5,0.5,0.5h0.1l-0.5,0.7c-0.1,0.1-0.1,0.2-0.1,0.3v0.5c0,0.3-0.2,0.5-0.5,0.5h-4c-0.3,0-0.5-0.2-0.5-0.5v-2
					c0-0.3,0.2-0.5,0.5-0.5h4C397.3,98.1,397.5,98.3,397.5,98.6z"/>
				<path class="st8" d="M391.5,94.6h1v1h-1V94.6z"/>
				<path class="st8" d="M393.5,94.6h1v1h-1V94.6z"/>
				<path class="st8" d="M395.5,94.6h1v1h-1V94.6z"/>
			</g>
			<g>
				<g id="Web_Design">
					<path class="st8" d="M561.3,102.9h-27c-0.3,0-0.5-0.2-0.5-0.6V77.8c0-0.3,0.2-0.6,0.5-0.6h27c0.3,0,0.5,0.2,0.5,0.6v24.5
						C561.8,102.7,561.6,102.9,561.3,102.9z M534.8,101.8h26V78.4h-26V101.8z"/>
					<ellipse class="st8" cx="536.3" cy="80.1" rx="0.5" ry="0.6"/>
					<ellipse class="st8" cx="538.3" cy="80.1" rx="0.5" ry="0.6"/>
					<ellipse class="st8" cx="540.3" cy="80.1" rx="0.5" ry="0.6"/>
					<path class="st8" d="M561.3,82.9h-27c-0.3,0-0.5-0.2-0.5-0.6s0.2-0.6,0.5-0.6h27c0.3,0,0.5,0.2,0.5,0.6S561.6,82.9,561.3,82.9z
						"/>
					<path class="st8" d="M559.3,80.6h-11c-0.3,0-0.5-0.2-0.5-0.6s0.2-0.6,0.5-0.6h11c0.3,0,0.5,0.2,0.5,0.6S559.6,80.6,559.3,80.6z
						"/>
					<path class="st8" d="M547.8,87.3c-0.8,0-1.5-0.7-1.5-1.7c0-0.9,0.7-1.7,1.5-1.7s1.5,0.7,1.5,1.7
						C549.3,86.6,548.6,87.3,547.8,87.3z M547.8,85.1c-0.3,0-0.5,0.2-0.5,0.6c0,0.3,0.2,0.6,0.5,0.6s0.5-0.2,0.5-0.6
						C548.3,85.3,548.1,85.1,547.8,85.1z"/>
					<path class="st8" d="M539.8,95.1c-0.8,0-1.5-0.7-1.5-1.7s0.7-1.7,1.5-1.7s1.5,0.7,1.5,1.7S540.6,95.1,539.8,95.1z M539.8,92.9
						c-0.3,0-0.5,0.2-0.5,0.6s0.2,0.6,0.5,0.6s0.5-0.2,0.5-0.6S540.1,92.9,539.8,92.9z"/>
					<path class="st8" d="M539.3,87.3c-0.8,0-1.5-0.7-1.5-1.7c0-0.9,0.7-1.7,1.5-1.7s1.5,0.7,1.5,1.7
						C540.8,86.6,540.1,87.3,539.3,87.3z M539.3,85.1c-0.3,0-0.5,0.2-0.5,0.6c0,0.3,0.2,0.6,0.5,0.6s0.5-0.2,0.5-0.6
						C539.8,85.3,539.6,85.1,539.3,85.1z"/>
					<path class="st8" d="M556.3,87.3c-0.8,0-1.5-0.7-1.5-1.7c0-0.9,0.7-1.7,1.5-1.7s1.5,0.7,1.5,1.7
						C557.8,86.6,557.1,87.3,556.3,87.3z M556.3,85.1c-0.3,0-0.5,0.2-0.5,0.6c0,0.3,0.2,0.6,0.5,0.6s0.5-0.2,0.5-0.6
						C556.8,85.3,556.6,85.1,556.3,85.1z"/>
					<path class="st8" d="M555.8,95.1c-0.8,0-1.5-0.7-1.5-1.7s0.7-1.7,1.5-1.7s1.5,0.7,1.5,1.7S556.6,95.1,555.8,95.1z M555.8,92.9
						c-0.3,0-0.5,0.2-0.5,0.6s0.2,0.6,0.5,0.6s0.5-0.2,0.5-0.6S556.1,92.9,555.8,92.9z"/>
					<path class="st8" d="M546.8,86.2h-6.5c-0.3,0-0.5-0.2-0.5-0.6c0-0.3,0.2-0.6,0.5-0.6h6.5c0.3,0,0.5,0.2,0.5,0.6
						C547.3,85.9,547.1,86.2,546.8,86.2z"/>
					<path class="st8" d="M555.3,86.2h-6.5c-0.3,0-0.5-0.2-0.5-0.6c0-0.3,0.2-0.6,0.5-0.6h6.5c0.3,0,0.5,0.2,0.5,0.6
						C555.8,85.9,555.6,86.2,555.3,86.2z"/>
					<path class="st8" d="M555.8,92.9c-0.3,0-0.5-0.2-0.5-0.6c0-3.1-2.8-5.7-6.5-6.1c-0.3,0-0.5-0.3-0.4-0.6c0-0.3,0.3-0.5,0.5-0.5
						c4.2,0.4,7.5,3.5,7.5,7.2C556.3,92.6,556.1,92.9,555.8,92.9z"/>
					<path class="st8" d="M539.8,92.9c-0.3,0-0.5-0.2-0.5-0.6c0-3.7,3.2-6.7,7.5-7.2c0.3,0,0.5,0.2,0.5,0.5s-0.2,0.6-0.4,0.6
						c-3.7,0.4-6.5,3-6.5,6.1C540.3,92.6,540.1,92.9,539.8,92.9z"/>
					<path class="st8" d="M550.3,100.7h-5c-0.3,0-0.5-0.2-0.5-0.6V98l-0.9-2.1c-0.1-0.2-0.1-0.3,0-0.5l3-6.7
						c0.1-0.2,0.3-0.3,0.4-0.3h1c0.2,0,0.4,0.1,0.4,0.3l3,6.7c0.1,0.2,0.1,0.3,0,0.5l-0.9,2.1v2.1
						C550.8,100.4,550.6,100.7,550.3,100.7z M545.8,99.6h4v-1.7c0-0.1,0-0.2,0.1-0.2l0.9-2l-2.8-6.1h-0.4l-2.8,6.1l0.9,2
						c0,0.1,0.1,0.2,0.1,0.2V99.6L545.8,99.6z"/>
					<path class="st8" d="M550.3,98.5h-5c-0.3,0-0.5-0.2-0.5-0.6s0.2-0.6,0.5-0.6h5c0.3,0,0.5,0.2,0.5,0.6S550.6,98.5,550.3,98.5z"
						/>
					<path class="st8" d="M547.8,94c-0.3,0-0.5-0.2-0.5-0.6V89c0-0.3,0.2-0.6,0.5-0.6s0.5,0.2,0.5,0.6v4.5
						C548.3,93.8,548.1,94,547.8,94z"/>
					<path class="st8" d="M547.8,96.2c-0.8,0-1.5-0.7-1.5-1.7c0-0.9,0.7-1.7,1.5-1.7s1.5,0.7,1.5,1.7S548.6,96.2,547.8,96.2z
						 M547.8,94c-0.3,0-0.5,0.2-0.5,0.6c0,0.3,0.2,0.6,0.5,0.6s0.5-0.2,0.5-0.6S548.1,94,547.8,94z"/>
				</g>
			</g>
			<g>
				<path class="st8" d="M675.3,204.1c0.3,0,0.5-0.2,0.5-0.5v-5.9c0-1.6-1.3-2.8-2.8-2.8h-3.9v-0.1c0-1.2-1-2.3-2.3-2.3h-10.1
					c-1.2,0-2.3,1-2.3,2.3v0.1h-3.9c-1.6,0-2.8,1.3-2.8,2.8v27.6c0,1.6,1.3,2.8,2.8,2.8h22.3c1.6,0,2.8-1.3,2.8-2.8v-20
					c0-0.3-0.2-0.5-0.5-0.5s-0.5,0.2-0.5,0.5v20c0,1-0.8,1.8-1.8,1.8h-22.3c-1,0-1.8-0.8-1.8-1.8v-27.6c0-1,0.8-1.8,1.8-1.8h3.9v1.8
					h-3.3c-0.3,0-0.5,0.2-0.5,0.5v17.5c0,0.3,0.2,0.5,0.5,0.5s0.5-0.2,0.5-0.5v-16.9h2.8l0,0c0,1.2,1,2.3,2.3,2.3h10.1
					c1.2,0,2.3-1,2.3-2.3l0,0h2.8V220h-3.8c-0.3,0-0.5,0.2-0.5,0.5v3.8h-15.9v-6.8c0-0.3-0.2-0.5-0.5-0.5s-0.5,0.2-0.5,0.5v7.4
					c0,0.3,0.2,0.5,0.5,0.5h17c0.1,0,0.3-0.1,0.4-0.2l4.3-4.3c0.1-0.1,0.2-0.2,0.2-0.4v-22.3c0-0.3-0.2-0.5-0.5-0.5h-3.3v-1.8h3.9
					c1,0,1.8,0.8,1.8,1.8v5.9C674.8,203.8,675,204.1,675.3,204.1z M671.2,221l-2.5,2.5V221H671.2z M655.6,194.7
					c0-0.7,0.5-1.2,1.2-1.2h10.1c0.7,0,1.2,0.5,1.2,1.2v0.1h-12.5V194.7L655.6,194.7z M668.1,198.7c0,0.7-0.5,1.2-1.2,1.2h-10.1
					c-0.7,0-1.2-0.5-1.2-1.2l0,0H668.1L668.1,198.7z M668.1,197.7h-12.5v-1.8h12.5V197.7z"/>
				<path class="st8" d="M655.8,208.1L655.8,208.1c0.2,0,0.4-0.1,0.5-0.3l1.9-4.3c0.1-0.3,0-0.6-0.3-0.7c-0.3-0.1-0.6,0-0.7,0.3
					l-1.5,3.3l-0.9-1.7c-0.1-0.3-0.5-0.4-0.7-0.2c-0.3,0.1-0.4,0.5-0.2,0.7l1.4,2.7C655.4,208,655.6,208.1,655.8,208.1z"/>
				<path class="st8" d="M660.3,204.9h9.5c0.3,0,0.5-0.2,0.5-0.5s-0.2-0.5-0.5-0.5h-9.5c-0.3,0-0.5,0.2-0.5,0.5
					C659.8,204.6,660,204.9,660.3,204.9z"/>
				<path class="st8" d="M660.3,207h5.9c0.3,0,0.5-0.2,0.5-0.5s-0.2-0.5-0.5-0.5h-5.9c-0.3,0-0.5,0.2-0.5,0.5S660,207,660.3,207z"/>
				<path class="st8" d="M653.9,211.3l1.4,2.7c0.1,0.2,0.3,0.3,0.5,0.3l0,0c0.2,0,0.4-0.1,0.5-0.3l1.9-4.3c0.1-0.3,0-0.6-0.3-0.7
					c-0.3-0.1-0.6,0-0.7,0.3l-1.5,3.3l-0.9-1.7c-0.1-0.3-0.5-0.4-0.7-0.2C653.9,210.7,653.8,211,653.9,211.3z"/>
				<path class="st8" d="M660.3,211h9.5c0.3,0,0.5-0.2,0.5-0.5s-0.2-0.5-0.5-0.5h-9.5c-0.3,0-0.5,0.2-0.5,0.5
					C659.8,210.7,660,211,660.3,211z"/>
				<path class="st8" d="M660.3,213.1h5.9c0.3,0,0.5-0.2,0.5-0.5s-0.2-0.5-0.5-0.5h-5.9c-0.3,0-0.5,0.2-0.5,0.5
					C659.8,212.9,660,213.1,660.3,213.1z"/>
				<path class="st8" d="M660.3,217.1h9.5c0.3,0,0.5-0.2,0.5-0.5s-0.2-0.5-0.5-0.5h-9.5c-0.3,0-0.5,0.2-0.5,0.5
					C659.8,216.9,660,217.1,660.3,217.1z"/>
				<path class="st8" d="M660.3,219.2h5.9c0.3,0,0.5-0.2,0.5-0.5s-0.2-0.5-0.5-0.5h-5.9c-0.3,0-0.5,0.2-0.5,0.5
					S660,219.2,660.3,219.2z"/>
			</g>
			<g>
				<g id="layer1" transform="translate(0 -280.067)">
					<path id="path13029-9" vector-effect="none" class="st8" d="M653.9,624.7L653.9,624.7c-0.1,0-0.2,0-0.3,0.1c0,0-3,2.5-3,6.4
						c0,0.2,0,0.5,0,0.7c-0.2,0.2-0.6,0.4-0.9,0.9c-0.5,0.8-1,2-1,4c0,0.5,0.7,0.6,0.9,0.2c0,0,0.5-1.1,1.9-1.5
						c0.3,0.7,0.6,1.1,0.6,1.1c0.1,0.1,0.2,0.2,0.4,0.2c0.9,0,1.9,0,2.8,0c0.1,0,0.3-0.1,0.4-0.2c0,0,0.3-0.4,0.6-1.1
						c1.3,0.4,1.9,1.5,1.9,1.5c0.2,0.4,0.9,0.3,0.9-0.2c0-1.9-0.5-3.2-1-4c-0.3-0.5-0.7-0.8-0.9-0.9c0-0.2,0-0.4,0-0.7
						c0-4-3-6.4-3-6.4C654.1,624.8,654,624.7,653.9,624.7L653.9,624.7L653.9,624.7z M653.9,625.9c0.2,0.2,0.6,0.6,1,1.2h-2
						C653.3,626.5,653.7,626,653.9,625.9L653.9,625.9L653.9,625.9z M645,642.5h-4.2V629c0-0.3,0.2-0.5,0.5-0.5h8.4
						c0.6,0,0.6-0.9,0-0.9h-8.4c-0.8,0-1.4,0.6-1.4,1.4v16.8c0,0.8,0.6,1.4,1.4,1.4h25.2c0.8,0,1.4-0.6,1.4-1.4V629
						c0-0.8-0.6-1.4-1.4-1.4h-8.4c-0.6,0-0.6,0.9,0,0.9h8.4c0.3,0,0.5,0.2,0.5,0.5v13.5h-4.2c-0.2-1.3-1.4-2.3-2.8-2.3
						c-0.4,0-0.8,0.1-1.2,0.3c-0.3-0.7-0.9-1.3-1.7-1.5c-0.1,0-0.1,0-0.2,0c-0.5,0-0.6,0.8-0.1,0.9c0.6,0.2,1.1,0.7,1.2,1.4
						c0.1,0.3,0.5,0.5,0.7,0.3c0.3-0.3,0.7-0.4,1.2-0.4c0.9,0,1.6,0.6,1.8,1.4H646c0.2-0.8,0.9-1.4,1.8-1.4c0.4,0,0.8,0.1,1.2,0.4
						c0.3,0.2,0.7,0.1,0.7-0.3c0.1-0.7,0.6-1.2,1.2-1.4c0.5-0.2,0.4-0.9-0.1-0.9c-0.1,0-0.1,0-0.2,0c-0.8,0.2-1.4,0.8-1.7,1.5
						c-0.4-0.2-0.7-0.3-1.2-0.3C646.4,640.1,645.3,641.2,645,642.5L645,642.5z M652.3,628h3.1c0.4,0.9,0.8,2,0.8,3.3
						c0,2.9-1,4.4-1.2,4.7c-0.8,0-1.5,0-2.2,0c-0.2-0.2-1.2-1.8-1.2-4.7C651.5,630,651.9,628.9,652.3,628L652.3,628z M653.9,629.9
						c-0.8,0-1.4,0.6-1.4,1.4c0,0.8,0.6,1.4,1.4,1.4s1.4-0.6,1.4-1.4S654.6,629.9,653.9,629.9z M653.9,630.8c0.3,0,0.5,0.2,0.5,0.5
						s-0.2,0.5-0.5,0.5s-0.5-0.2-0.5-0.5S653.6,630.8,653.9,630.8z M657,633.1c0.1,0.1,0.1,0.2,0.2,0.3c0.3,0.4,0.6,1,0.8,2.1
						c-0.4-0.3-0.8-0.6-1.4-0.7C656.7,634.3,656.9,633.7,657,633.1L657,633.1z M650.7,633.1c0.1,0.6,0.3,1.2,0.4,1.6
						c-0.6,0.2-1,0.5-1.4,0.7c0.2-1,0.5-1.7,0.8-2.1C650.6,633.3,650.7,633.2,650.7,633.1z M652.5,637.8c-0.2,0-0.5,0.2-0.5,0.5
						c0,2.1,1.6,3.2,1.6,3.2c0.1,0.1,0.2,0.1,0.3,0.1s0.2,0,0.3-0.1c0,0,1.6-1.1,1.6-3.2c0-0.3-0.2-0.5-0.5-0.5s-0.5,0.2-0.5,0.5
						c0,1.3-0.7,2-0.9,2.2c-0.2-0.2-0.9-0.9-0.9-2.2C652.9,638,652.7,637.8,652.5,637.8L652.5,637.8z M640.8,643.4h26.1v2.3
						c0,0.3-0.2,0.5-0.5,0.5h-25.1c-0.3,0-0.5-0.2-0.5-0.5V643.4z M654.8,644.3h-1.9c-0.6,0.1-0.6,0.9,0,0.9h1.9
						C655.4,645.3,655.5,644.4,654.8,644.3L654.8,644.3z M651.2,648c-0.2,0-0.4,0.1-0.4,0.3c-0.2,0.5-0.6,1-1.3,1.6h-0.8
						c-0.8,0-1.4,0.6-1.4,1.4v0.9c0,0.3,0.2,0.5,0.5,0.5h12.1c0.3,0,0.5-0.2,0.5-0.5v-0.9c0-0.8-0.6-1.4-1.4-1.4h-0.8
						c-0.7-0.6-1.1-1.1-1.3-1.6c-0.1-0.2-0.3-0.3-0.4-0.3c-0.3,0-0.5,0.4-0.4,0.7c0.2,0.4,0.5,0.8,0.8,1.2h-6.1
						c0.4-0.4,0.7-0.8,0.8-1.2C651.8,648.4,651.6,648.1,651.2,648L651.2,648z M648.7,650.9H659c0.3,0,0.5,0.2,0.5,0.5v0.5h-11.2
						v-0.5C648.3,651.1,648.5,650.9,648.7,650.9L648.7,650.9z"/>
				</g>
			</g>
		</g>
	</g>
</g>
</svg>
