<?xml version="1.0" encoding="UTF-8"?> <svg xmlns="http://www.w3.org/2000/svg" xmlns:xlink="http://www.w3.org/1999/xlink" width="60pt" height="60pt" viewBox="0 0 60 60" version="1.1"><g id="surface1"><path style=" stroke:none;fill-rule:nonzero;fill:rgb(0%,0%,0%);fill-opacity:1;" d="M 45.0625 58.300781 L 9.273438 57.273438 C 4.9375 57.085938 -0.0625 51.9375 0 47.636719 L 0.175781 11.664062 C 0.238281 7.351562 5.136719 3.261719 9.460938 3.300781 L 44.773438 4.601562 C 49.074219 4.664062 54.011719 8.636719 53.949219 12.9375 L 53.949219 49.664062 C 53.949219 54.363281 50.226562 58.300781 45.0625 58.300781 Z M 45.0625 58.300781 "></path><path style=" stroke:none;fill-rule:nonzero;fill:rgb(100%,100%,100%);fill-opacity:1;" d="M 3.074219 44.8125 L 8.773438 43.4375 C 9 44.113281 9.925781 45.800781 10.726562 46.488281 C 11.523438 47.164062 13.789062 47.539062 15.289062 47.398438 C 16.789062 47.261719 17.539062 45.949219 17.613281 44.976562 C 17.675781 44.011719 17.210938 43.335938 16.324219 42.886719 C 15.4375 42.4375 14.449219 42.175781 13.0625 41.761719 C 11.675781 41.363281 9.175781 40.800781 7.210938 39.476562 C 5.261719 38.148438 4.789062 35.101562 4.761719 34.011719 C 4.75 32.925781 5.011719 31.335938 5.699219 30.175781 C 6.398438 29 8.675781 26.460938 13.1875 26.460938 C 17.699219 26.460938 19.601562 27.898438 20.625 28.738281 C 21.664062 29.574219 23.3125 32.5625 23.3125 32.5625 L 18.113281 34.4375 C 17.226562 31.851562 15.585938 30.976562 13.351562 30.976562 C 11.113281 30.976562 10.574219 32.398438 10.574219 33.25 C 10.574219 34.101562 11.074219 35.125 13.199219 35.675781 C 15.324219 36.226562 18.863281 37.113281 20.550781 38.199219 C 22.238281 39.289062 23.789062 41.523438 23.789062 44.148438 C 23.789062 46.773438 22.761719 48.1875 21.886719 49.164062 C 21 50.125 18.875 52.351562 14.324219 52.351562 C 9.960938 52.3125 5.539062 50.375 3.074219 44.8125 Z M 42.648438 44.164062 C 42.648438 44.164062 43.5 33.574219 33.613281 33.574219 C 24.664062 33.574219 25.011719 42.75 25.011719 43.386719 C 25.011719 46.039062 26.5625 52.824219 34.113281 52.824219 C 41.664062 52.824219 42.648438 46.476562 42.648438 46.476562 L 37.5 45.886719 C 37.25 46.539062 36.738281 48.875 34.324219 48.875 C 31.914062 48.875 31.136719 46.925781 30.949219 46.289062 C 30.761719 45.648438 30.8125 44.164062 30.8125 44.164062 Z M 30.773438 41.101562 C 30.773438 41.101562 30.636719 37.085938 34.101562 37.085938 C 37.5625 37.085938 37.335938 41.101562 37.335938 41.101562 Z M 30.773438 41.101562 "></path><path style=" stroke:none;fill-rule:nonzero;fill:rgb(100%,100%,100%);fill-opacity:1;" d="M 24.824219 18.085938 L 35.210938 31.164062 L 59.675781 10.800781 L 56.300781 4.023438 L 35.988281 21.324219 L 28.75 13.136719 Z M 24.824219 18.085938 "></path></g></svg> 