<?xml version="1.0" encoding="UTF-8"?> <svg xmlns="http://www.w3.org/2000/svg" xmlns:xlink="http://www.w3.org/1999/xlink" width="60pt" height="60pt" viewBox="0 0 60 60" version="1.1"><g id="surface1"><path style=" stroke:none;fill-rule:evenodd;fill:rgb(0%,0%,0%);fill-opacity:1;" d="M 30.011719 4.039062 C 13.886719 4.039062 0.164062 17.175781 0.164062 33.585938 C 0.164062 42.25 3.75 50.011719 9.414062 55.675781 C 11.5 57.761719 14.789062 57.761719 17.175781 55.976562 C 20.460938 53.289062 24.9375 51.800781 30.011719 51.800781 C 35.085938 51.800781 39.261719 53.289062 42.851562 55.976562 C 45.238281 57.761719 48.523438 57.460938 50.613281 55.375 C 56.289062 50 59.863281 42.238281 59.863281 33.574219 C 59.5625 17.476562 46.425781 4.039062 30.011719 4.039062 M 29.710938 48.824219 C 21.050781 48.824219 14.789062 42.261719 14.789062 33.898438 C 14.789062 25.539062 20.761719 18.976562 29.710938 18.976562 C 38.664062 18.976562 44.636719 25.835938 44.636719 33.898438 C 44.636719 41.960938 38.664062 48.824219 29.710938 48.824219 "></path></g></svg> 