<?xml version="1.0" encoding="UTF-8"?> <svg xmlns="http://www.w3.org/2000/svg" xmlns:xlink="http://www.w3.org/1999/xlink" width="60pt" height="60pt" viewBox="0 0 60 60" version="1.1"><g id="surface1"><path style=" stroke:none;fill-rule:nonzero;fill:rgb(0%,0%,0%);fill-opacity:1;" d="M -0.0234375 7.289062 L 32.875 1.398438 C 32.886719 20.1875 32.875 38.976562 32.875 57.773438 C 21.914062 55.835938 10.949219 53.851562 -0.0234375 51.914062 Z M 10.9375 20.011719 C 9.585938 21.601562 9.175781 23.8125 9.425781 25.835938 C 9.625 27.601562 10.613281 29.210938 11.949219 30.335938 C 13.175781 31.375 14.726562 32.011719 15.824219 33.226562 C 16.648438 34.136719 16.851562 35.664062 16.023438 36.648438 C 15.375 37.4375 14.238281 37.5 13.3125 37.335938 C 11.75 37.113281 10.425781 36.148438 9.398438 34.988281 L 9.414062 39.863281 C 10.925781 41.011719 12.886719 41.425781 14.75 41.414062 C 16.074219 41.375 17.414062 41.074219 18.488281 40.273438 C 19.835938 39.289062 20.613281 37.6875 20.800781 36.0625 C 21.074219 34.164062 20.75 32.125 19.574219 30.5625 C 18.550781 29.261719 17.164062 28.3125 15.761719 27.476562 C 15 27.011719 14.25 26.511719 13.738281 25.773438 C 13.136719 24.761719 13.164062 23.3125 14.039062 22.476562 C 14.773438 21.761719 15.886719 21.710938 16.851562 21.824219 C 18.023438 21.949219 19.136719 22.476562 20.050781 23.199219 L 20.050781 18.363281 C 18.523438 17.738281 16.824219 17.675781 15.210938 17.800781 C 13.601562 17.988281 11.988281 18.738281 10.9375 20.011719 Z M 36.0625 10.851562 C 37.1875 9.738281 38.761719 9.0625 40.351562 9.210938 C 42.625 9.335938 44.625 11.113281 45.1875 13.289062 C 45.414062 14.113281 45.425781 14.976562 45.289062 15.8125 C 48.949219 17.324219 51.9375 20.414062 53.351562 24.113281 C 54.949219 23.8125 56.699219 24.273438 57.898438 25.375 C 59.8125 27.011719 60.324219 29.988281 59.164062 32.226562 C 58.125 34.324219 55.636719 35.574219 53.335938 35.113281 C 51.925781 38.8125 48.976562 41.886719 45.3125 43.398438 C 45.625 45.226562 45.074219 47.175781 43.75 48.488281 C 42.386719 49.898438 40.175781 50.425781 38.3125 49.789062 C 37.460938 49.488281 36.675781 49.023438 36.074219 48.335938 L 36.074219 40.574219 C 37.136719 39.460938 38.648438 38.789062 40.1875 38.875 C 41.648438 38.914062 43 39.636719 43.988281 40.675781 C 47.074219 39.449219 49.550781 36.863281 50.675781 33.75 C 49.761719 32.800781 49.101562 31.574219 48.976562 30.261719 C 48.75 28.511719 49.460938 26.738281 50.675781 25.5 C 49.550781 22.375 47.0625 19.761719 43.949219 18.539062 C 43.0625 19.550781 41.789062 20.226562 40.460938 20.363281 C 38.835938 20.539062 37.199219 19.835938 36.050781 18.6875 L 36.050781 10.851562 Z M 36.0625 10.851562 "></path></g></svg> 