<?xml version="1.0" encoding="UTF-8"?> <!-- Generator: Adobe Illustrator 23.0.3, SVG Export Plug-In . SVG Version: 6.00 Build 0) --> <svg xmlns="http://www.w3.org/2000/svg" xmlns:xlink="http://www.w3.org/1999/xlink" version="1.1" id="Layer_1" x="0px" y="0px" viewBox="0 0 48 48" style="enable-background:new 0 0 48 48;" xml:space="preserve"> <style type="text/css"> .st0{fill-rule:evenodd;clip-rule:evenodd;} </style> <g> <path class="st0" d="M17.56,0c-2.65,0-4.79,2.15-4.79,4.8s2.14,4.8,4.79,4.8h4.79V4.8C22.36,2.15,20.21,0,17.56,0 C17.57,0,17.57,0,17.56,0 M17.56,12.8H4.79C2.14,12.8,0,14.95,0,17.6s2.14,4.8,4.79,4.8h12.77c2.65,0,4.79-2.15,4.79-4.8 C22.36,14.95,20.21,12.8,17.56,12.8L17.56,12.8z"></path> <path class="st0" d="M47.9,17.6c0-2.65-2.14-4.8-4.79-4.8s-4.79,2.15-4.79,4.8v4.8h4.79C45.76,22.4,47.91,20.25,47.9,17.6z M35.13,17.6V4.8c0-2.65-2.14-4.8-4.79-4.8s-4.79,2.15-4.79,4.8v12.8c0,2.65,2.14,4.8,4.79,4.8C32.99,22.4,35.13,20.25,35.13,17.6z "></path> <path class="st0" d="M30.34,48c2.65,0,4.79-2.15,4.79-4.8c0-2.65-2.14-4.8-4.79-4.8h-4.79v4.8C25.55,45.85,27.69,48,30.34,48z M30.34,35.2h12.77c2.65,0,4.79-2.15,4.79-4.8s-2.14-4.8-4.79-4.8H30.34c-2.65,0-4.79,2.15-4.79,4.8S27.69,35.2,30.34,35.2 L30.34,35.2z"></path> <path class="st0" d="M0,30.4c0,2.65,2.14,4.8,4.79,4.8s4.79-2.15,4.79-4.8v-4.8H4.79C2.14,25.6,0,27.75,0,30.4z M12.77,30.4v12.8 c0,2.65,2.14,4.8,4.79,4.8s4.79-2.15,4.79-4.8V30.4c0-2.65-2.14-4.8-4.79-4.8C14.92,25.6,12.77,27.75,12.77,30.4L12.77,30.4"></path> </g> </svg> 