<?xml version="1.0" encoding="UTF-8"?> <svg xmlns="http://www.w3.org/2000/svg" xmlns:xlink="http://www.w3.org/1999/xlink" width="60pt" height="60pt" viewBox="0 0 60 60" version="1.1"><g id="surface1"><path style=" stroke:none;fill-rule:nonzero;fill:rgb(0%,0%,0%);fill-opacity:1;" d="M 0.289062 28.761719 C 1.039062 27.75 1.6875 26.625 2.5625 25.738281 C 6.398438 21.8125 10.3125 17.949219 14.175781 14.050781 C 14.398438 13.824219 14.523438 13.511719 14.6875 13.238281 C 14.789062 13.324219 14.875 13.398438 14.976562 13.488281 C 14.824219 13.898438 14.648438 14.300781 14.511719 14.710938 C 12.398438 20.710938 14.949219 27.164062 20.824219 30.261719 C 24.1875 32.039062 27.726562 33.5 31.148438 35.148438 C 32.113281 35.613281 33.085938 36.113281 33.898438 36.789062 C 36.175781 38.675781 35.976562 42 33.574219 43.699219 C 31.761719 44.976562 29.699219 45.164062 27.585938 45.023438 C 24.476562 44.835938 21.449219 44.1875 18.539062 43.074219 C 18.3125 42.988281 18.101562 42.898438 17.863281 42.824219 C 16.75 42.488281 16.164062 42.773438 15.789062 43.863281 C 15.523438 44.613281 15.273438 45.375 14.976562 46.289062 C 14.648438 45.976562 14.414062 45.761719 14.1875 45.539062 C 10.074219 41.414062 5.949219 37.3125 1.875 33.148438 C 1.210938 32.476562 0.800781 31.539062 0.273438 30.726562 C 0.289062 30.074219 0.289062 29.414062 0.289062 28.761719 Z M 0.289062 28.761719 "></path><path style=" stroke:none;fill-rule:nonzero;fill:rgb(0%,0%,0%);fill-opacity:1;" d="M 59.800781 30.375 C 59.449219 31.835938 58.488281 32.863281 57.460938 33.875 C 53.351562 37.960938 49.261719 42.074219 45.175781 46.175781 C 44.949219 46.398438 44.789062 46.675781 44.585938 46.925781 C 44.511719 46.863281 44.4375 46.800781 44.351562 46.738281 C 44.539062 46.3125 44.726562 45.886719 44.914062 45.476562 C 46.601562 41.6875 46.925781 37.824219 45.375 33.914062 C 44.175781 30.898438 41.875 28.863281 39.074219 27.460938 C 35.863281 25.851562 32.523438 24.449219 29.273438 22.898438 C 28.261719 22.414062 27.300781 21.800781 26.414062 21.113281 C 24.398438 19.5625 25.050781 16.351562 27.164062 15.238281 C 29 14.261719 30.960938 14.300781 32.9375 14.5 C 35.4375 14.75 37.851562 15.449219 40.164062 16.4375 C 41.9375 17.199219 42.375 17.011719 43.0625 15.25 C 43.398438 14.363281 43.761719 13.488281 44.175781 12.476562 C 44.460938 12.726562 44.6875 12.898438 44.886719 13.101562 C 49.335938 17.5625 53.8125 22 58.210938 26.511719 C 58.914062 27.226562 59.289062 28.238281 59.8125 29.113281 C 59.800781 29.539062 59.800781 29.949219 59.800781 30.375 Z M 59.800781 30.375 "></path><path style=" stroke:none;fill-rule:nonzero;fill:rgb(0%,0%,0%);fill-opacity:1;" d="M 29.511719 59.585938 C 27.710938 59.261719 26.613281 57.925781 25.425781 56.726562 C 24.523438 55.824219 23.636719 54.914062 22.75 53.898438 C 28.539062 54.738281 34.210938 54.8125 39.238281 51.761719 C 37.113281 53.976562 34.925781 56.324219 32.636719 58.585938 C 32.125 59.101562 31.289062 59.273438 30.585938 59.601562 C 30.226562 59.585938 29.863281 59.585938 29.511719 59.585938 Z M 29.511719 59.585938 "></path><path style=" stroke:none;fill-rule:nonzero;fill:rgb(0%,0%,0%);fill-opacity:1;" d="M 30.9375 0.0742188 C 31.898438 0.75 32.9375 1.335938 33.800781 2.113281 C 35.074219 3.261719 36.226562 4.539062 37.585938 5.925781 C 31.710938 4.824219 26.125 4.726562 20.835938 7.6875 C 20.800781 7.613281 20.773438 7.523438 20.738281 7.449219 C 21.6875 6.523438 22.625 5.585938 23.5625 4.664062 C 24.511719 3.726562 25.425781 2.726562 26.4375 1.851562 C 27.210938 1.1875 28.113281 0.675781 28.960938 0.0859375 C 29.625 0.0742188 30.289062 0.0742188 30.9375 0.0742188 Z M 30.9375 0.0742188 "></path></g></svg> 