<?xml version="1.0" encoding="UTF-8"?> <!-- Generator: Adobe Illustrator 25.1.0, SVG Export Plug-In . SVG Version: 6.00 Build 0) --> <svg xmlns="http://www.w3.org/2000/svg" xmlns:xlink="http://www.w3.org/1999/xlink" version="1.1" id="Layer_1" x="0px" y="0px" viewBox="0 0 48 48" style="enable-background:new 0 0 48 48;" xml:space="preserve"> <style type="text/css"> .st0{fill:#515151;} </style> <g transform="translate(0,-952.36218)"> <path class="st0" d="M4,952.4c-0.6,0.1-1,0.5-1,1.1v37c0,0.6,0.5,1.1,1.1,1.1h15.1c2,5.1,6.9,8.7,12.7,8.7 c7.5,0,13.6-6.1,13.6-13.6c0-6.9-5.2-12.7-12-13.5v-19.7c0-0.6-0.5-1.1-1.1-1.1H4L4,952.4z M5.2,954.5h26.1V973 c-1.7,0.1-3.3,0.4-4.8,1.1c0,0,0,0-0.1,0H9.5H9.4c-0.6,0-1.1,0.5-1,1.1s0.5,1.1,1.1,1H23c-2.9,2.5-4.8,6.2-4.8,10.3 c0,0.9,0.1,1.8,0.3,2.7H5.2V954.5z M9.4,957.8c-0.6,0-1.1,0.5-1,1.1c0,0.6,0.5,1.1,1.1,1l0,0h10.9c0.6,0,1.1-0.5,1.1-1.1 s-0.5-1.1-1.1-1.1l0,0H9.5C9.5,957.8,9.5,957.8,9.4,957.8z M9.4,963.2c-0.6,0-1.1,0.5-1,1.1c0,0.6,0.5,1.1,1.1,1l0,0h17.4 c0.6,0,1.1-0.5,1.1-1.1s-0.5-1.1-1.1-1.1l0,0H9.5C9.5,963.2,9.5,963.2,9.4,963.2z M9.4,968.7c-0.6,0-1.1,0.5-1,1.1 c0,0.6,0.5,1.1,1.1,1l0,0h10.9c0.6,0,1.1-0.5,1.1-1.1s-0.5-1.1-1.1-1.1l0,0H9.5C9.5,968.7,9.5,968.7,9.4,968.7z M31.8,975.2 c6.3,0,11.4,5.1,11.4,11.4c0,6.3-5.1,11.4-11.4,11.4s-11.4-5.1-11.4-11.4C20.4,980.3,25.5,975.2,31.8,975.2z M31.7,978.5 c-0.6,0.1-1,0.5-1,1.1v7.1c0,0.3,0.1,0.5,0.3,0.7l3.8,4.4c0.4,0.5,1.1,0.5,1.5,0.1c0.5-0.4,0.5-1.1,0.1-1.5l-3.5-4v-6.6 c0-0.6-0.5-1.1-1.1-1.1C31.8,978.5,31.8,978.5,31.7,978.5L31.7,978.5z"></path> </g> </svg> 