<?xml version="1.0" encoding="UTF-8"?> <!-- Generator: Adobe Illustrator 25.1.0, SVG Export Plug-In . SVG Version: 6.00 Build 0) --> <svg xmlns="http://www.w3.org/2000/svg" xmlns:xlink="http://www.w3.org/1999/xlink" version="1.1" id="Layer_1" x="0px" y="0px" viewBox="0 0 48 48" style="enable-background:new 0 0 48 48;" xml:space="preserve"> <style type="text/css"> .st0{fill:#439322;} </style> <g> <path class="st0" d="M8.8,28.2c-0.3-0.7-1-1.3-1.9-1.3H5c-2.8,0-5,2.2-5,5v10.6c0,2.8,2.2,5,5,5h1.9c0.8,0,1.5-0.5,1.8-1.2 c3.4,0.8,5.4,1.7,9,1.7h6.5c1.6,0,3-1.4,3-3.1c0-0.6-0.2-1.1-0.4-1.5c0.5-0.3,0.9-0.7,1.2-1.3h14.5l0,0c3,0,5.4-2.4,5.4-5.4v-5.9 c0-0.6-0.4-1-1-1h-7.8v-25c0-2.6-2.1-4.7-4.7-4.7h-29C2.4-0.1,0,2.3,0,5.3v5.9c0,0.6,0.4,1,1,1h7.8V28.2L8.8,28.2z M5,45.5 c-1.7,0-3-1.3-3-3V31.9c0-1.7,1.3-3,3-3h1.9c0,17.2,0,16,0,16.6H5z M24.4,46h-6.5c-3.2,0-5-0.8-8.8-1.8V30.3l2.6-1.3 c4-2,5.2-5.2,6.1-7.5c0.8-2,1.1-2.5,1.9-2.5c1.6,0,1.3,1.9,1.3,2.6c0.2,5.6-2.2,7.4-2.5,8c-0.5,0.7,0.1,1.6,0.8,1.6h8.2 c0.5,0,1,0.5,1,1.1s-0.4,1.1-1,1.1c-0.1,0-2.7,0-3.7,0c-0.6,0-1,0.4-1,1s0.4,1,1,1h2.8c0.5,0,1,0.5,1,1.1s-0.4,1.1-1,1.1 c-1.4,0-2.5,0-3.9,0c-0.6,0-1,0.4-1,1s0.4,1,1,1c0.1,0,2.9,0,2.8,0c0.5,0,1,0.5,1,1.1s-0.4,1.1-1,1.1c-0.2,0-4,0-3.9,0 c-0.6,0-1,0.4-1,1s0.4,1,1,1c0.1,0,2.9,0,2.8,0c0.5,0,1,0.5,1,1.1C25.4,45.5,24.9,46,24.4,46z M46.1,31.8v4.9 c0,1.9-1.5,3.4-3.4,3.4l0,0l0,0c-1.9,0-3.4-1.5-3.4-3.4c0-0.1,0-5.2,0-4.9C39.3,31.8,46.1,31.8,46.1,31.8z M37.3,4.6 c0,0.6,0,34.2,0,32c0,1.3,0.5,2.5,1.2,3.4H28.4c-0.1-0.3-0.2-0.6-0.3-0.9c0.9-0.5,1.5-1.5,1.5-2.7c0-0.6-0.2-1.1-0.5-1.6 c0.8-0.6,1.3-1.5,1.3-2.6c0-1.7-1.3-3.1-3-3.1H21c1.8-2.8,1.8-5.5,1.8-7.3H32c0.6,0,1-0.4,1-1s-0.4-1-1-1h-9.2 c-0.3-1.6-1.6-2.9-3.3-2.9c-2.3,0-3,2-3.8,3.8c-0.8,2.1-1.8,4.7-5,6.3c0-0.3,0-19.7,0-21.7c0-1.3-0.5-2.5-1.2-3.4h24.9 C36.1,1.9,37.3,3.1,37.3,4.6z M8.8,10.2H2V5.3c0-1.9,1.5-3.4,3.4-3.4s3.4,1.5,3.4,3.4V10.2z"></path> <path class="st0" d="M17.9,10H30c0.6,0,1-0.4,1-1s-0.4-1-1-1H17.9c-0.6,0-1,0.4-1,1S17.4,10,17.9,10z"></path> <path class="st0" d="M16.8,15.9h14.9c0.6,0,1-0.4,1-1s-0.4-1-1-1H16.8c-0.6,0-1,0.4-1,1C15.8,15.5,16.3,15.9,16.8,15.9z"></path> </g> </svg> 