<?xml version="1.0" encoding="UTF-8"?> <svg xmlns="http://www.w3.org/2000/svg" xmlns:xlink="http://www.w3.org/1999/xlink" width="60pt" height="60pt" viewBox="0 0 60 60" version="1.1"><g id="surface1"><path style=" stroke:none;fill-rule:nonzero;fill:rgb(0%,0%,0%);fill-opacity:1;" d="M 60 8.726562 C 60 22.898438 60 37.085938 60 51.261719 C 59.960938 51.414062 59.914062 51.5625 59.875 51.710938 C 59.8125 52.039062 59.789062 52.375 59.710938 52.6875 C 59.175781 54.863281 58.039062 56.664062 56.25 58.023438 C 54.886719 59.0625 53.363281 59.699219 51.648438 59.886719 C 51.523438 59.898438 51.386719 59.960938 51.261719 60 C 37.085938 60 22.898438 60 8.726562 60 C 8.460938 59.949219 8.199219 59.898438 7.9375 59.851562 C 5.960938 59.488281 4.238281 58.636719 2.824219 57.226562 C 1.476562 55.875 0.601562 54.261719 0.226562 52.375 C 0.148438 52 0.0742188 51.636719 0 51.261719 C 0 37.085938 0 22.914062 0 8.726562 C 0.0390625 8.574219 0.0859375 8.4375 0.125 8.289062 C 0.175781 7.960938 0.199219 7.625 0.273438 7.3125 C 0.863281 4.960938 2.136719 3.074219 4.125 1.699219 C 5.398438 0.824219 6.800781 0.273438 8.351562 0.113281 C 8.476562 0.101562 8.601562 0.0390625 8.726562 0 C 22.898438 0 37.085938 0 51.261719 0 C 51.386719 0.0390625 51.511719 0.0859375 51.648438 0.113281 C 52.148438 0.210938 52.648438 0.261719 53.136719 0.398438 C 55.136719 0.988281 56.789062 2.101562 58.039062 3.761719 C 59.0625 5.113281 59.699219 6.636719 59.875 8.335938 C 59.898438 8.476562 59.960938 8.601562 60 8.726562 Z M 37.761719 29.175781 C 37.601562 29.261719 37.5 29.324219 37.398438 29.375 C 30.574219 32.789062 23.738281 36.199219 16.898438 39.613281 C 16.625 39.75 16.550781 39.914062 16.550781 40.199219 C 16.5625 42.3125 16.550781 44.414062 16.550781 46.523438 C 16.550781 46.914062 16.574219 46.9375 16.914062 46.761719 C 21.875 44.289062 26.824219 41.800781 31.773438 39.324219 C 36.074219 37.175781 40.375 35.011719 44.6875 32.875 C 44.949219 32.75 45.011719 32.601562 45.011719 32.335938 C 45 30.25 45 28.164062 45.011719 26.0625 C 45.011719 25.738281 44.925781 25.574219 44.625 25.425781 C 41.238281 23.75 37.863281 22.050781 34.476562 20.363281 C 28.710938 17.488281 22.960938 14.601562 17.199219 11.726562 C 16.539062 11.398438 16.550781 11.386719 16.550781 12.125 C 16.550781 14.148438 16.550781 16.164062 16.550781 18.1875 C 16.550781 18.449219 16.625 18.613281 16.863281 18.710938 C 17.164062 18.835938 17.460938 19 17.75 19.148438 C 23.664062 22.113281 29.574219 25.0625 35.5 28.023438 C 36.238281 28.398438 36.960938 28.773438 37.761719 29.175781 Z M 37.761719 29.175781 "></path></g></svg> 