<?xml version="1.0" encoding="UTF-8"?> <!-- Generator: Adobe Illustrator 23.0.3, SVG Export Plug-In . SVG Version: 6.00 Build 0) --> <svg xmlns="http://www.w3.org/2000/svg" xmlns:xlink="http://www.w3.org/1999/xlink" version="1.1" id="Layer_1" x="0px" y="0px" viewBox="0 0 48 48" style="enable-background:new 0 0 48 48;" xml:space="preserve"> <style type="text/css"> .st0{fill:#282828;} .st1{fill:#333333;} </style> <path class="st0" d="M21.13,0.25C12.05,0.25,4.7,7.6,4.7,16.68v30.26c0,1,1.2,1.48,1.84,0.76l8.91-8.91h11.31 c9.07,0,16.43-7.36,16.43-16.43V0.25H21.13z"></path> <path d="M15.49,38.82H7.3l5.12,3.08L15.49,38.82z"></path> <path class="st0" d="M43.23,0.25h-22.1v22.11L43.23,0.25z"></path> <path d="M21.13,0.25C12.05,0.25,4.7,7.6,4.7,16.68v22.11l16.43-16.43C21.13,22.36,21.13,0.25,21.13,0.25z"></path> <path class="st1" d="M43.23,0.25l-22.1,22.1h22.11L43.23,0.25L43.23,0.25z"></path> </svg> 