<?xml version="1.0" encoding="UTF-8"?> <svg xmlns="http://www.w3.org/2000/svg" xmlns:xlink="http://www.w3.org/1999/xlink" width="60pt" height="60pt" viewBox="0 0 60 60" version="1.1"><g id="surface1"><path style=" stroke:none;fill-rule:nonzero;fill:rgb(0%,0%,0%);fill-opacity:1;" d="M 13.289062 0.0117188 L 46.511719 0.0117188 C 48.125 0.0117188 49.699219 0.273438 51.226562 0.8125 C 53.425781 1.613281 55.414062 3.011719 56.914062 4.835938 C 58.4375 6.664062 59.4375 8.914062 59.800781 11.261719 C 59.9375 12.125 59.960938 13 59.960938 13.863281 L 59.960938 46.261719 C 59.960938 47.289062 59.914062 48.351562 59.699219 49.351562 C 59.238281 51.675781 58.125 53.851562 56.539062 55.601562 C 54.960938 57.363281 52.898438 58.675781 50.675781 59.375 C 49.3125 59.800781 47.914062 59.988281 46.488281 59.988281 C 45.851562 59.988281 13.199219 59.988281 12.699219 59.960938 C 10.3125 59.851562 7.949219 59.074219 5.949219 57.738281 C 4 56.425781 2.414062 54.601562 1.386719 52.488281 C 0.5 50.6875 0.0507812 48.664062 0.0507812 46.648438 L 0.0507812 13.335938 C 0 11.351562 0.425781 9.386719 1.289062 7.601562 C 2.300781 5.5 3.863281 3.636719 5.8125 2.324219 C 7.800781 0.960938 10.148438 0.175781 12.539062 0.0507812 C 12.773438 0.0117188 13.023438 0.0117188 13.289062 0.0117188 Z M 13.289062 0.0117188 "></path><path style=" stroke:none;fill-rule:nonzero;fill:rgb(100%,100%,100%);fill-opacity:1;" d="M 33.851562 8.914062 C 53.625 22.363281 47.226562 37.1875 47.226562 37.1875 C 47.226562 37.1875 52.851562 43.539062 50.574219 49.085938 C 50.574219 49.085938 48.25 45.199219 44.363281 45.199219 C 40.613281 45.199219 38.414062 49.085938 30.863281 49.085938 C 14.0625 49.085938 6.125 35.050781 6.125 35.050781 C 21.261719 45.011719 31.585938 37.949219 31.585938 37.949219 C 24.789062 34 10.289062 15.074219 10.289062 15.074219 C 22.914062 25.824219 28.375 28.664062 28.375 28.664062 C 25.113281 25.960938 15.988281 12.800781 15.988281 12.800781 C 23.300781 20.199219 37.824219 30.539062 37.824219 30.539062 C 41.9375 19.101562 33.851562 8.914062 33.851562 8.914062 Z M 33.851562 8.914062 "></path></g></svg> 