<?xml version="1.0" encoding="UTF-8"?> <svg xmlns="http://www.w3.org/2000/svg" xmlns:xlink="http://www.w3.org/1999/xlink" width="60pt" height="60pt" viewBox="0 0 60 60" version="1.1"><g id="surface1"><path style=" stroke:none;fill-rule:nonzero;fill:rgb(0%,0%,0%);fill-opacity:1;" d="M 28.363281 40.460938 L 31.648438 40.460938 L 31.648438 31.5 L 39.914062 31.5 L 39.914062 28.3125 L 31.648438 28.3125 L 31.648438 19.351562 L 28.363281 19.351562 L 28.363281 28.3125 L 20.199219 28.3125 L 20.199219 31.5 L 28.363281 31.5 Z M 28.363281 40.460938 "></path><path style=" stroke:none;fill-rule:nonzero;fill:rgb(0%,0%,0%);fill-opacity:1;" d="M 13.125 53.398438 L 15.914062 53.398438 L 15.914062 45.4375 L 23.273438 45.4375 L 23.273438 42.949219 L 15.914062 42.949219 L 15.914062 34.886719 L 13.125 34.886719 L 13.125 42.949219 L 5.75 42.949219 L 5.75 45.4375 L 13.113281 45.4375 Z M 13.125 53.398438 "></path><path style=" stroke:none;fill-rule:nonzero;fill:rgb(0%,0%,0%);fill-opacity:1;" d="M 44.085938 24.625 L 46.875 24.625 L 46.875 16.664062 L 54.335938 16.664062 L 54.335938 14.273438 L 46.875 14.273438 L 46.875 6.210938 L 44.085938 6.210938 L 44.085938 14.273438 L 36.726562 14.273438 L 36.726562 16.664062 L 44.085938 16.664062 Z M 44.085938 24.625 "></path><path style=" stroke:none;fill-rule:nonzero;fill:rgb(0%,0%,0%);fill-opacity:1;" d="M 28.851562 59.675781 L 31.25 59.675781 L 31.25 54 L 36.324219 54 L 36.324219 51.914062 L 31.25 51.914062 L 31.25 46.238281 L 28.863281 46.238281 L 28.863281 51.914062 L 23.875 51.914062 L 23.875 54 L 28.851562 54 Z M 28.851562 59.675781 "></path><path style=" stroke:none;fill-rule:nonzero;fill:rgb(0%,0%,0%);fill-opacity:1;" d="M 13.226562 24.625 L 15.8125 24.625 L 15.8125 16.5625 L 23.273438 16.5625 L 23.273438 14.273438 L 15.8125 14.273438 L 15.8125 6.210938 L 13.226562 6.210938 L 13.226562 14.273438 L 5.75 14.273438 L 5.75 16.5625 L 13.210938 16.5625 L 13.210938 24.625 Z M 13.226562 24.625 "></path><path style=" stroke:none;fill-rule:nonzero;fill:rgb(0%,0%,0%);fill-opacity:1;" d="M 52.550781 36.574219 L 54.9375 36.574219 L 54.9375 31 L 60.011719 31 L 60.011719 28.8125 L 54.9375 28.8125 L 54.9375 23.238281 L 52.550781 23.238281 L 52.550781 28.8125 L 47.574219 28.8125 L 47.574219 31 L 52.550781 31 Z M 52.550781 36.574219 "></path><path style=" stroke:none;fill-rule:evenodd;fill:rgb(0%,0%,0%);fill-opacity:1;" d="M 44.085938 53.398438 L 46.875 53.398438 L 46.875 45.4375 L 54.335938 45.4375 L 54.335938 42.949219 L 46.875 42.949219 L 46.875 34.886719 L 44.085938 34.886719 L 44.085938 42.949219 L 36.726562 42.949219 L 36.726562 45.4375 L 44.085938 45.4375 Z M 44.085938 53.398438 "></path><path style=" stroke:none;fill-rule:nonzero;fill:rgb(0%,0%,0%);fill-opacity:1;" d="M 35.925781 7.601562 L 35.925781 5.914062 L 30.949219 5.914062 L 30.949219 0.4375 L 29.164062 0.4375 L 29.164062 5.914062 L 24.1875 5.914062 L 24.1875 7.601562 L 29.164062 7.601562 L 29.164062 13.074219 L 30.949219 13.074219 L 30.949219 7.601562 Z M 4.960938 36.175781 L 6.75 36.175781 L 6.75 30.699219 L 11.726562 30.699219 L 11.726562 29.011719 L 6.75 29.011719 L 6.75 23.636719 L 4.960938 23.636719 L 4.960938 29.011719 L -0.0117188 29.011719 L -0.0117188 30.800781 L 4.960938 30.699219 Z M 4.960938 36.175781 "></path></g></svg> 