<?xml version="1.0" encoding="UTF-8"?> <!-- Generator: Adobe Illustrator 23.0.3, SVG Export Plug-In . SVG Version: 6.00 Build 0) --> <svg xmlns="http://www.w3.org/2000/svg" xmlns:xlink="http://www.w3.org/1999/xlink" version="1.1" id="Layer_1" x="0px" y="0px" viewBox="0 0 48 48" style="enable-background:new 0 0 48 48;" xml:space="preserve"> <path d="M42.98,0H4.96C2.2,0.04-0.01,2.26,0,4.98v38.03c-0.01,2.73,2.22,4.96,4.99,4.98h38.03c2.77-0.02,5-2.25,4.99-4.98V4.98 c0.01-2.74-2.23-4.97-5-4.98C42.99,0,42.99,0,42.98,0z M23.98,43.85C12.96,43.76,4.08,34.88,4.16,24 C4.08,13.12,12.96,4.24,23.98,4.15C35.01,4.23,43.89,13.11,43.82,24C43.89,34.89,35.01,43.77,23.98,43.85L23.98,43.85z"></path> <path d="M42.38,24l-13.76-6.36l1.11,4.08H18.24l1.11-4.08L5.59,24l13.77,6.36l-1.11-4.08h11.49l-1.11,4.08L42.38,24"></path> </svg> 