<?xml version="1.0" encoding="UTF-8"?> <!-- Generator: Adobe Illustrator 25.1.0, SVG Export Plug-In . SVG Version: 6.00 Build 0) --> <svg xmlns="http://www.w3.org/2000/svg" xmlns:xlink="http://www.w3.org/1999/xlink" version="1.1" id="Layer_1" x="0px" y="0px" viewBox="0 0 48 48" style="enable-background:new 0 0 48 48;" xml:space="preserve"> <style type="text/css"> .st0{fill:#BA6FBC;} </style> <g> <path class="st0" d="M21.3,22.9H23l4.5,5l0.8-0.9c0,0,1.8-2.2,3.6-4.1h10.9c2.6,0,4.8-2.1,4.8-4.8V4.8c0-2.6-2.1-4.8-4.8-4.8H21.3 c-2.6,0-4.8,2.1-4.8,4.8v13.4C16.5,20.8,18.7,22.9,21.3,22.9z M18.7,4.8c0-1.4,1.2-2.6,2.6-2.6h21.6c1.4,0,2.6,1.2,2.6,2.6v13.4 c0,1.4-1.2,2.6-2.6,2.6H31.1l-0.3,0.3c-1.2,1.3-2.4,2.7-3.2,3.6L24,20.8h-2.7c-1.4,0-2.6-1.2-2.6-2.6C18.7,18.2,18.7,4.8,18.7,4.8z "></path> <path class="st0" d="M7.2,30.8h1c2.3,0,4.1-1.8,4.1-4.1v-2c0-2.3-1.8-4.1-4.1-4.1h-1c-2.3,0-4.1,1.8-4.1,4.1v2 C3.1,29,4.9,30.8,7.2,30.8z M5.2,24.7c0-1.1,0.9-2,2-2h1c1.1,0,2,0.9,2,2v2c0,1.1-0.9,2-2,2h-1c-1.1,0-2-0.9-2-2V24.7z"></path> <polygon class="st0" points="13.1,39.1 13.1,39.1 13.3,39.1 "></polygon> <path class="st0" d="M2.2,38.2c0-1.8,1.4-3.2,3.2-3.2h4.5c1.3,0,2.4,0.8,2.9,1.9H7.6V39H13h1.7l2.3-6.3h8.6l-3,7.9h-1.7H0.3v2.1 h25.3h4.6v-2.1h-4.6h-0.7l0.6-1.5l3.3-8.5H15.5L14,34.8c-1-1.1-2.4-1.9-4-1.9H5.4c-2.9,0-5.3,2.4-5.3,5.3v0.9h2.1 C2.2,39.1,2.2,38.2,2.2,38.2z"></path> <path class="st0" d="M39.4,26.1c-2.3,0-4.1,1.8-4.1,4.1v2c0,2.3,1.8,4.1,4.1,4.1h1c2.3,0,4.1-1.8,4.1-4.1v-2c0-2.3-1.8-4.1-4.1-4.1 H39.4z M42.4,30.2v2c0,1.1-0.9,2-2,2h-1c-1.1,0-2-0.9-2-2v-2c0-1.1,0.9-2,2-2h1C41.5,28.2,42.4,29.1,42.4,30.2z"></path> <path class="st0" d="M32.3,43.7v1V48h15.2v-4.2c0-0.3,0-0.5-0.1-0.8c-0.2-1.7-1.3-3.1-2.8-3.9c-0.7-0.4-1.6-0.6-2.5-0.6h-4.5 c-0.9,0-1.8,0.2-2.5,0.6C33.5,39.9,32.3,41.7,32.3,43.7z M34.5,43.7c0-1.8,1.4-3.2,3.2-3.2h4.5c1.8,0,3.2,1.4,3.2,3.2v2.1H34.5 V43.7z"></path> <circle class="st0" cx="26.5" cy="12.3" r="1.4"></circle> <circle class="st0" cx="32.1" cy="12.3" r="1.4"></circle> <circle class="st0" cx="37.7" cy="12.3" r="1.4"></circle> </g> </svg> 