<?xml version="1.0" encoding="UTF-8"?> <!-- Generator: Adobe Illustrator 25.1.0, SVG Export Plug-In . SVG Version: 6.00 Build 0) --> <svg xmlns="http://www.w3.org/2000/svg" xmlns:xlink="http://www.w3.org/1999/xlink" version="1.1" id="Layer_1" x="0px" y="0px" viewBox="0 0 48 48" style="enable-background:new 0 0 48 48;" xml:space="preserve"> <style type="text/css"> .st0{fill:#203D9B;} </style> <g> <path class="st0" d="M38.8,8.4h-11c-0.9,0-1.6,0.7-1.6,1.6v6.8c0,0.9,0.7,1.6,1.6,1.6h11c0.9,0,1.6-0.7,1.6-1.6v-6.7 C40.4,9.1,39.6,8.4,38.8,8.4z M37.2,15.1h-7.8v-3.5h7.8V15.1z M15.1,10c0-0.9,0.7-1.6,1.6-1.6h5.1c0.9,0,1.6,0.7,1.6,1.6 s-0.7,1.6-1.6,1.6h-5.1C15.9,11.6,15.1,10.8,15.1,10z M15.1,16.8c0-0.9,0.7-1.6,1.6-1.6h5.1c0.9,0,1.6,0.7,1.6,1.6 s-0.7,1.6-1.6,1.6h-5.1C15.9,18.4,15.1,17.7,15.1,16.8z M40.4,23.5c0,0.9-0.7,1.6-1.6,1.6h-22c-0.9,0-1.6-0.7-1.6-1.6 s0.7-1.6,1.6-1.6h21.9C39.6,21.9,40.4,22.6,40.4,23.5z M40.4,30.1c0,0.9-0.7,1.6-1.6,1.6h-22c-0.9,0-1.6-0.7-1.6-1.6 s0.7-1.6,1.6-1.6h21.9C39.6,28.5,40.4,29.3,40.4,30.1z M40.4,36.8c0,0.9-0.7,1.6-1.6,1.6h-22c-0.9,0-1.6-0.7-1.6-1.6 s0.7-1.6,1.6-1.6h21.9C39.6,35.2,40.4,35.9,40.4,36.8z M39.8,0.7H15.7c-3.8,0-6.8,3-6.8,6.8l0,0v1.6H8.2c-3.8,0-6.8,3-6.8,6.8v24.4 c0,3.8,3,6.8,6.8,6.8h31.8c3.8,0,6.8-3,6.8-6.8V7.5C46.7,3.7,43.6,0.7,39.8,0.7z M43.6,40.6c0,2-1.6,3.6-3.6,3.6H8 c-2,0-3.6-1.6-3.6-3.6V16.1c0-2,1.6-3.6,3.6-3.6l0,0h0.7v25.8c0,0.4-0.1,0.7-0.4,1c-0.3,0.3-0.7,0.4-1.2,0.4 c-0.9,0-1.6,0.6-1.7,1.6C5.4,42.2,6,42.9,7,43c1.3,0.1,2.6-0.4,3.5-1.3c0.9-0.9,1.5-2.2,1.5-3.3V7.5c0-2,1.6-3.6,3.6-3.6h24.2 c2,0,3.6,1.6,3.6,3.6L43.6,40.6z"></path> </g> </svg> 