<?xml version="1.0" encoding="UTF-8"?> <!-- Generator: Adobe Illustrator 23.0.3, SVG Export Plug-In . SVG Version: 6.00 Build 0) --> <svg xmlns="http://www.w3.org/2000/svg" xmlns:xlink="http://www.w3.org/1999/xlink" version="1.1" id="Layer_1" x="0px" y="0px" viewBox="0 0 48 48" style="enable-background:new 0 0 48 48;" xml:space="preserve"> <style type="text/css"> .st0{fill:#FFFFFF;} </style> <g> <path d="M4.69,0h38.63C45.9,0,48,2.1,48,4.69v38.63C48,45.9,45.9,48,43.31,48H4.69C2.1,48,0,45.9,0,43.31V4.69C0,2.1,2.1,0,4.69,0z "></path> <path class="st0" d="M29.37,6.24h10.14c1.24,0,2.25,1.01,2.25,2.25v16.5c0,1.24-1.01,2.25-2.25,2.25H29.37 c-1.24,0-2.25-1.01-2.25-2.25V8.49C27.12,7.25,28.13,6.24,29.37,6.24z"></path> <path class="st0" d="M8.49,6.24h10.14c1.24,0,2.25,1.01,2.25,2.25v28.5c0,1.24-1.01,2.25-2.25,2.25H8.49 c-1.24,0-2.25-1.01-2.25-2.25V8.49C6.24,7.25,7.25,6.24,8.49,6.24z"></path> </g> </svg> 