<?xml version="1.0" encoding="UTF-8"?> <!-- Generator: Adobe Illustrator 23.0.3, SVG Export Plug-In . SVG Version: 6.00 Build 0) --> <svg xmlns="http://www.w3.org/2000/svg" xmlns:xlink="http://www.w3.org/1999/xlink" version="1.1" id="Layer_1" x="0px" y="0px" viewBox="0 0 48 48" style="enable-background:new 0 0 48 48;" xml:space="preserve"> <g> <path d="M0.06,24.14c3.98,0,7.82,0,11.78,0c0.25,4.07,1.95,7.4,5.32,9.76c2.17,1.52,4.62,2.23,7.28,2.13 c6.21-0.24,10-4.07,11.79-11.92c0.33-0.02,0.69-0.06,1.04-0.06c3.49,0,6.98,0,10.63,0c-0.26,8.37-3.65,15.01-10.46,19.58 c-8.08,5.43-16.7,5.81-25.2,1.04C4.37,40.27,0.48,33.23,0.06,24.14z"></path> <path d="M37.99,19.88c-2.9,0-5.79-0.03-8.69,0.02c-0.89,0.01-1.28-0.16-1.27-1.18c0.05-5.83,0.05-11.67,0-17.5 c0-1,0.34-1.23,1.26-1.22c5.79,0.03,11.59,0.03,17.38,0c0.89,0,1.28,0.18,1.28,1.19c-0.05,5.83-0.05,11.67,0,17.5 c0.01,1-0.34,1.22-1.26,1.2C43.79,19.85,40.89,19.88,37.99,19.88z"></path> <path d="M19.92,9.97c-0.04,5.42-4.56,9.91-9.96,9.9c-5.41-0.01-9.92-4.55-9.89-9.96c0.03-5.45,4.56-9.95,9.95-9.89 C15.48,0.08,19.95,4.58,19.92,9.97z"></path> </g> </svg> 