<?xml version="1.0" encoding="UTF-8"?> <!-- Generator: Adobe Illustrator 25.1.0, SVG Export Plug-In . SVG Version: 6.00 Build 0) --> <svg xmlns="http://www.w3.org/2000/svg" xmlns:xlink="http://www.w3.org/1999/xlink" version="1.1" id="Layer_1" x="0px" y="0px" viewBox="0 0 48 48" style="enable-background:new 0 0 48 48;" xml:space="preserve"> <style type="text/css"> .st0{fill:#C134D1;} </style> <g> <g> <path class="st0" d="M1.1,48h45.5l0,0c0.6,0,1.1-0.5,1.1-1.1c0-0.4-0.2-0.7-0.5-0.9L1.9,0.6C1.6,0.3,1.1,0.2,0.7,0.3 C0.3,0.5,0,0.9,0,1.4v45.5C0,47.5,0.5,48,1.1,48z M44,45.8h-7.9v-2.4c0-0.6-0.5-1.1-1.1-1.1s-1.1,0.5-1.1,1.1v2.4H28V42 c0-0.6-0.5-1.1-1.1-1.1s-1.1,0.5-1.1,1.1v3.8h-5.9v-2.4c0-0.6-0.5-1.1-1.1-1.1s-1.1,0.5-1.1,1.1v2.4h-5.9V42 c0-0.6-0.5-1.1-1.1-1.1S9.6,41.4,9.6,42v3.8H2.2v-8H6c0.6,0,1.1-0.5,1.1-1.1S6.6,35.6,6,35.6H2.2v-5.9h2.4c0.6,0,1.1-0.5,1.1-1.1 s-0.5-1.1-1.1-1.1H2.2v-5.9H6c0.6,0,1.1-0.5,1.1-1.1S6.6,19.4,6,19.4H2.2v-5.9h2.4c0.6,0,1.1-0.5,1.1-1.1s-0.5-1.1-1.1-1.1H2.2V4 L44,45.8z"></path> <path class="st0" d="M13.1,37.4h11.6l0,0c0.6,0,1.1-0.5,1.1-1.1c0-0.4-0.2-0.7-0.5-0.9L13.9,23.9c-0.3-0.3-0.8-0.4-1.2-0.2 c-0.4,0.2-0.7,0.6-0.7,1v11.6C12,36.9,12.5,37.4,13.1,37.4z M14.2,27.3l7.9,7.9h-7.9C14.2,35.2,14.2,27.3,14.2,27.3z"></path> <path class="st0" d="M45.8,24.1L45.8,24.1c0-0.1-0.1-0.2-0.1-0.2s0,0,0-0.1s-0.1-0.1-0.1-0.2l0,0l0,0L26.1,3.4 c0-0.1-0.1-0.1-0.2-0.2c-0.1-0.1-0.1-0.1-0.2-0.2l-1.6-1.7c-0.8-0.8-2-1.3-3.3-1.3c-1.2,0-2.4,0.5-3.3,1.3L16,2.7 c-1.8,1.8-1.9,4.8-0.1,6.6l21.3,22.2l0,0l0,0c0.1,0,0.1,0.1,0.2,0.1c0,0,0,0,0.1,0s0.1,0.1,0.2,0.1l0,0l8.6,2.3c0.1,0,0.2,0,0.3,0 l0,0c0.6,0,1.1-0.5,1.1-1.1c0-0.2,0-0.3-0.1-0.4L45.8,24.1z M38.2,29.2l-18-18.7l5-4.9l18,18.7l-2.4,2.4L38.2,29.2z M17.6,4.4 L19.1,3c0.5-0.5,1.1-0.7,1.7-0.7c0.7,0,1.3,0.3,1.7,0.7l1,1.1l-5,4.9l-1-1.1C16.7,6.9,16.7,5.3,17.6,4.4z M40.3,30.2l0.7-0.7l3-3 l1.2,5L40.3,30.2z"></path> <path class="st0" d="M38.2,22.7L26,9.9c-0.4-0.4-1.1-0.5-1.6,0c-0.4,0.4-0.5,1.1,0,1.6l12.2,12.9c0.2,0.2,0.5,0.3,0.8,0.3 s0.5-0.1,0.8-0.3C38.6,23.9,38.7,23.2,38.2,22.7z"></path> </g> </g> </svg> 