<?xml version="1.0" encoding="UTF-8"?> <svg xmlns="http://www.w3.org/2000/svg" xmlns:xlink="http://www.w3.org/1999/xlink" width="60pt" height="60pt" viewBox="0 0 60 60" version="1.1"><g id="surface1"><path style=" stroke:none;fill-rule:nonzero;fill:rgb(0%,0%,0%);fill-opacity:1;" d="M 52.664062 4.238281 C 52.710938 4.289062 52.75 4.210938 52.773438 4.210938 C 53.976562 3.539062 55.125 2.851562 56.324219 2.148438 C 56.351562 2.125 56.375 2.101562 56.386719 2.101562 C 55.476562 1.574219 54.5625 1.039062 53.664062 0.523438 C 53.335938 0.335938 53.011719 0.1875 52.710938 -0.0507812 L 52.664062 -0.0507812 L 52.6875 -0.0234375 C 52.664062 1.398438 52.664062 2.824219 52.664062 4.238281 Z M 52.664062 4.238281 "></path><path style=" stroke:none;fill-rule:nonzero;fill:rgb(0%,0%,0%);fill-opacity:1;" d="M 59.851562 4.164062 C 59.789062 4.074219 59.699219 4.039062 59.613281 4.011719 C 58.988281 3.648438 58.363281 3.300781 57.761719 2.9375 C 57.210938 2.625 56.6875 2.3125 56.136719 2 C 56.113281 2.023438 56.085938 2.050781 56.074219 2.050781 C 54.875 2.738281 53.726562 3.414062 52.523438 4.113281 C 52.476562 4.136719 52.460938 4.175781 52.414062 4.136719 C 52.351562 4.164062 52.300781 4.113281 52.261719 4.085938 C 52.074219 3.976562 51.875 3.851562 51.664062 3.75 C 50.6875 3.1875 49.738281 2.625 48.761719 2.0625 C 48.699219 2.011719 48.675781 2.039062 48.636719 2.0625 C 48.039062 2.398438 47.4375 2.75 46.8125 3.101562 C 46.164062 3.460938 45.539062 3.863281 44.886719 4.199219 C 44.238281 4.539062 43.613281 4.9375 42.988281 5.300781 C 42.101562 5.824219 41.238281 6.3125 40.351562 6.835938 C 39.585938 7.273438 38.835938 7.699219 38.074219 8.148438 C 37.886719 8.261719 37.6875 8.335938 37.523438 8.488281 C 37.476562 8.539062 37.5 8.601562 37.5 8.664062 L 37.5 12.6875 C 37.5 12.773438 37.476562 12.863281 37.449219 12.949219 C 36.25 16.113281 35.023438 19.238281 33.824219 22.398438 C 33.773438 22.488281 33.773438 22.574219 33.773438 22.6875 L 33.773438 27.789062 C 33.773438 27.898438 33.75 27.960938 33.648438 28.023438 C 32.851562 28.476562 32.023438 28.960938 31.226562 29.4375 C 31.164062 29.488281 31.113281 29.5 31.074219 29.5625 C 30.738281 30.449219 30.398438 31.3125 30.0625 32.199219 C 29.976562 32.175781 30 32.085938 29.949219 32.050781 C 29.273438 30.363281 28.636719 28.664062 28.011719 26.976562 C 26.210938 22.324219 24.4375 17.6875 22.664062 13.039062 C 22.613281 12.914062 22.601562 12.773438 22.601562 12.648438 L 22.601562 8.539062 C 22.601562 8.511719 22.574219 8.488281 22.550781 8.476562 C 21.835938 8.085938 21.136719 7.675781 20.4375 7.273438 C 19.664062 6.824219 18.863281 6.363281 18.085938 5.914062 C 17.351562 5.476562 16.601562 5.050781 15.863281 4.636719 C 15 4.136719 14.113281 3.648438 13.273438 3.125 C 12.476562 2.648438 11.648438 2.1875 10.824219 1.738281 C 10.226562 1.398438 9.625 1.0625 9 0.675781 C 8.613281 0.4375 8.199219 0.199219 7.800781 -0.0117188 C 7.738281 -0.0625 7.648438 -0.0625 7.585938 -0.0117188 C 7.324219 0.148438 7.0625 0.300781 6.824219 0.425781 C 5.863281 0.976562 4.898438 1.574219 3.898438 2.074219 C 3.226562 2.414062 2.574219 2.824219 1.898438 3.226562 C 1.351562 3.523438 0.789062 3.851562 0.226562 4.175781 L 0.226562 8.539062 C 0.273438 8.585938 0.273438 8.625 0.289062 8.664062 C 1.800781 12.363281 3.335938 16.023438 4.851562 19.699219 C 4.898438 19.789062 4.914062 19.824219 5 19.886719 C 5.863281 20.363281 6.699219 20.875 7.5625 21.351562 C 7.675781 21.398438 7.6875 21.460938 7.6875 21.5625 L 7.6875 26.398438 C 7.6875 26.523438 7.710938 26.636719 7.75 26.738281 C 11.449219 35.6875 15.136719 44.625 18.8125 53.574219 C 18.863281 53.699219 18.9375 53.789062 19.074219 53.863281 C 22.699219 55.949219 26.363281 58.0625 29.988281 60.148438 C 30.039062 60.175781 30.050781 60.210938 30.113281 60.199219 C 30.164062 60.175781 30.175781 60.175781 30.226562 60.148438 C 30.898438 59.789062 31.539062 59.386719 32.210938 59.023438 C 32.761719 58.710938 33.3125 58.398438 33.851562 58.074219 C 33.789062 58.074219 33.726562 58.023438 33.675781 58.011719 C 33.414062 57.863281 33.125 57.699219 32.875 57.5625 L 30.289062 56.074219 C 30.238281 56.050781 30.199219 55.988281 30.164062 56.011719 C 30.136719 56.039062 30.113281 56.0625 30.113281 56.074219 C 30.113281 56.050781 30.113281 56.011719 30.164062 56.011719 C 30.210938 55.988281 30.273438 56.0625 30.289062 56.074219 L 32.875 57.5625 C 33.136719 57.710938 33.425781 57.875 33.675781 58.011719 C 33.726562 58.0625 33.789062 58.074219 33.851562 58.074219 C 33.898438 58.050781 33.960938 58.023438 34 58.011719 C 34.9375 57.488281 35.835938 56.949219 36.738281 56.4375 C 38.226562 55.601562 39.6875 54.738281 41.1875 53.886719 C 41.25 53.835938 41.300781 53.800781 41.335938 53.738281 C 42.414062 51.125 43.5 48.488281 44.574219 45.875 C 45.851562 42.761719 47.136719 39.664062 48.414062 36.539062 C 49.925781 32.863281 51.460938 29.175781 52.976562 25.5 C 54.101562 22.761719 55.25 19.988281 56.386719 17.226562 C 57.585938 14.351562 58.738281 11.5 59.9375 8.625 C 59.976562 8.574219 60 8.476562 60 8.398438 L 60 4.351562 C 59.875 4.273438 59.886719 4.210938 59.851562 4.164062 Z M 7.585938 12.75 C 7.5625 12.773438 7.539062 12.75 7.523438 12.75 C 7.5 12.726562 7.476562 12.726562 7.476562 12.726562 L 7.476562 12.875 C 7.449219 12.898438 7.425781 12.875 7.414062 12.875 C 6.210938 12.1875 4.988281 11.460938 3.789062 10.789062 C 3.761719 10.789062 3.761719 10.761719 3.761719 10.761719 C 3.789062 10.710938 3.824219 10.699219 3.886719 10.675781 C 3.914062 10.675781 3.914062 10.648438 3.9375 10.648438 C 3.914062 10.648438 3.914062 10.625 3.914062 10.625 C 3.898438 10.613281 3.898438 10.574219 3.898438 10.523438 L 3.898438 6.3125 L 3.898438 10.523438 C 3.898438 10.574219 3.875 10.585938 3.925781 10.636719 C 3.949219 10.585938 3.988281 10.574219 4.050781 10.550781 C 5.25 9.863281 6.425781 9.164062 7.625 8.476562 L 7.648438 8.476562 C 7.585938 9.898438 7.585938 11.3125 7.585938 12.75 Z M 17.648438 33.351562 C 16.835938 33.824219 15.988281 34.300781 15.164062 34.773438 C 15.101562 34.824219 15.039062 34.824219 14.976562 34.800781 C 14.949219 34.800781 14.949219 34.773438 14.949219 34.773438 L 14.925781 34.800781 C 14.863281 34.851562 14.800781 34.851562 14.738281 34.824219 C 13.539062 34.136719 12.363281 33.460938 11.164062 32.75 C 11.136719 32.726562 11.113281 32.699219 11.101562 32.699219 C 11.148438 32.675781 11.164062 32.648438 11.210938 32.648438 C 11.261719 32.625 11.324219 32.601562 11.335938 32.5625 L 11.335938 28.511719 L 11.335938 32.175781 C 11.386719 32.148438 11.398438 32.125 11.449219 32.125 C 12.074219 31.761719 12.675781 31.414062 13.300781 31.050781 C 13.738281 30.789062 14.1875 30.523438 14.613281 30.273438 C 14.738281 30.335938 14.898438 30.425781 15.023438 30.539062 C 15.199219 30.585938 15.351562 30.6875 15.5 30.800781 C 16.5625 31.398438 17.613281 32 18.675781 32.636719 C 18.726562 32.664062 18.738281 32.6875 18.789062 32.699219 C 18.414062 32.925781 18.050781 33.113281 17.648438 33.351562 Z M 18.800781 49.300781 L 18.800781 47.289062 Z M 18.800781 45.324219 L 18.800781 45.261719 Z M 22.414062 47.386719 C 21.476562 47.9375 20.539062 48.460938 19.601562 49.011719 C 19.386719 49.136719 19.164062 49.273438 18.949219 49.375 C 18.835938 49.4375 18.824219 49.4375 18.824219 49.398438 C 18.851562 49.460938 18.875 49.449219 18.949219 49.375 C 19.164062 49.25 19.386719 49.113281 19.601562 49.011719 C 20.523438 48.460938 21.476562 47.914062 22.414062 47.386719 C 22.460938 47.363281 22.476562 47.335938 22.5 47.324219 C 22.488281 47.335938 22.449219 47.363281 22.414062 47.386719 Z M 22.539062 17.1875 C 22.539062 17.101562 22.488281 17.0625 22.425781 17.011719 C 22.210938 16.886719 21.988281 16.75 21.75 16.648438 C 21.011719 16.210938 20.261719 15.789062 19.523438 15.375 C 19.261719 15.25 19.050781 15.0625 18.761719 14.960938 L 18.761719 19.238281 C 18.710938 19.210938 18.675781 19.1875 18.636719 19.175781 L 18.636719 19.363281 C 18.25 19.148438 17.835938 18.914062 17.4375 18.675781 C 16.636719 18.226562 15.835938 17.738281 15.039062 17.289062 C 14.988281 17.261719 14.976562 17.238281 14.925781 17.238281 C 14.925781 17.175781 14.988281 17.175781 15.039062 17.125 C 15.0625 17.101562 15.0625 17.101562 15.085938 17.101562 L 15.0625 17.101562 C 15.0625 17.039062 15.125 17.039062 15.175781 16.988281 C 16.375 16.300781 17.523438 15.625 18.726562 14.925781 C 18.75 14.898438 18.773438 14.875 18.789062 14.898438 C 19.074219 15.011719 19.3125 15.1875 19.550781 15.3125 C 20.3125 15.75 21.039062 16.175781 21.773438 16.585938 C 21.988281 16.710938 22.210938 16.851562 22.449219 16.949219 C 22.488281 17.0625 22.539062 17.113281 22.539062 17.1875 Z M 30.011719 56.113281 L 30.011719 60 C 29.988281 58.675781 29.988281 57.414062 30.011719 56.113281 Z M 29.988281 55.898438 C 29.9375 55.875 29.898438 55.851562 29.863281 55.835938 L 29.863281 56.023438 C 28.613281 55.3125 27.375 54.601562 26.125 53.863281 C 26.1875 53.8125 26.238281 53.800781 26.300781 53.75 C 26.273438 53.726562 26.273438 53.726562 26.25 53.726562 C 27.5 53.011719 28.738281 52.300781 29.988281 51.5625 Z M 33.710938 45.0625 C 33.664062 45.113281 33.601562 45.125 33.5625 45.175781 C 33.585938 45.175781 33.585938 45.199219 33.585938 45.199219 C 33.398438 45.351562 33.175781 45.460938 32.960938 45.5625 C 31.949219 46.136719 30.949219 46.738281 29.960938 47.3125 C 29.914062 47.335938 29.898438 47.375 29.835938 47.375 C 28.636719 46.6875 27.4375 45.988281 26.25 45.300781 C 26.199219 45.273438 26.136719 45.25 26.164062 45.1875 C 26.210938 45.164062 26.25 45.136719 26.289062 45.125 C 26.289062 45.101562 26.261719 45.101562 26.289062 45.074219 C 27.488281 44.386719 28.6875 43.6875 29.875 43 C 29.925781 42.976562 29.988281 42.949219 30.023438 42.9375 C 30.050781 43.050781 30.148438 43.0625 30.210938 43.085938 C 31.363281 43.761719 32.539062 44.414062 33.710938 45.0625 Z M 41.199219 10.636719 C 42.398438 9.949219 43.601562 9.25 44.800781 8.5625 C 44.851562 8.539062 44.886719 8.5 44.925781 8.511719 L 44.925781 12.710938 C 44.925781 12.773438 44.875 12.824219 44.8125 12.863281 C 43.863281 13.414062 42.886719 13.960938 41.9375 14.523438 C 41.851562 14.574219 41.761719 14.636719 41.675781 14.675781 C 41.585938 14.710938 41.523438 14.789062 41.414062 14.800781 C 41.324219 14.851562 41.238281 14.914062 41.148438 14.949219 C 41.199219 13.5 41.199219 12.050781 41.199219 10.636719 Z M 34.226562 49.175781 C 34.273438 49.148438 34.3125 49.148438 34.335938 49.085938 C 34.3125 49.136719 34.261719 49.148438 34.226562 49.175781 Z M 34.398438 49.039062 L 34.449219 49.039062 Z M 34.675781 48.898438 C 34.675781 48.898438 34.648438 48.898438 34.675781 48.898438 C 34.648438 48.914062 34.648438 48.914062 34.675781 48.898438 Z M 34.914062 48.773438 Z M 34.9375 48.726562 C 34.914062 48.726562 34.914062 48.75 34.914062 48.75 C 34.914062 48.75 34.9375 48.75 34.9375 48.726562 Z M 35.949219 39.585938 C 35.898438 39.613281 35.886719 39.648438 35.835938 39.636719 C 36.460938 38.074219 37.085938 36.523438 37.6875 34.949219 C 37.738281 34.863281 37.75 34.824219 37.8125 34.835938 L 37.8125 34.8125 C 37.863281 34.6875 37.925781 34.6875 38.023438 34.75 C 39.011719 35.324219 40.011719 35.898438 41 36.476562 C 41.050781 36.5 41.0625 36.523438 41.113281 36.539062 C 41.0625 36.585938 41 36.601562 40.960938 36.648438 C 40.988281 36.675781 40.988281 36.675781 41.011719 36.675781 C 40.539062 36.960938 40.039062 37.25 39.574219 37.511719 C 38.375 38.199219 37.164062 38.886719 35.949219 39.585938 Z M 41.050781 49.523438 C 41.023438 49.550781 41.023438 49.550781 41 49.550781 L 41.023438 49.550781 C 41.023438 49.613281 40.960938 49.613281 40.914062 49.664062 C 39.738281 50.335938 38.585938 51 37.414062 51.675781 C 37.386719 51.699219 37.363281 51.699219 37.363281 51.699219 C 37.3125 51.648438 37.335938 51.613281 37.335938 51.574219 L 37.335938 47.601562 C 37.335938 47.550781 37.3125 47.488281 37.363281 47.476562 C 37.414062 47.5 37.425781 47.523438 37.476562 47.539062 L 37.476562 47.488281 C 37.476562 47.4375 37.449219 47.375 37.5 47.363281 C 38.699219 48.074219 39.949219 48.773438 41.148438 49.476562 C 41.148438 49.476562 41.101562 49.5 41.050781 49.523438 Z M 44.050781 25.210938 C 43.449219 24.875 42.851562 24.523438 42.226562 24.175781 C 42.175781 24.148438 42.164062 24.148438 42.136719 24.148438 C 42.164062 24.148438 42.1875 24.148438 42.226562 24.175781 C 42.851562 24.5 43.449219 24.835938 44.050781 25.210938 C 44.335938 25.363281 44.625 25.550781 44.9375 25.738281 C 44.636719 25.539062 44.363281 25.363281 44.050781 25.210938 Z M 48.539062 32.101562 C 47.550781 31.523438 46.550781 30.949219 45.5625 30.375 C 45.375 30.261719 45.175781 30.164062 44.9375 30.039062 C 45.226562 29.886719 45.5 29.710938 45.773438 29.5625 C 45.488281 29.710938 45.226562 29.875 44.9375 30.039062 C 45.148438 30.164062 45.375 30.273438 45.5625 30.375 C 46.539062 30.960938 47.539062 31.550781 48.539062 32.101562 C 48.625 32.148438 48.648438 32.164062 48.664062 32.125 C 48.664062 32.175781 48.613281 32.175781 48.539062 32.101562 Z M 48.675781 19.226562 C 48.625 19.273438 48.5625 19.289062 48.523438 19.335938 C 48.550781 19.335938 48.550781 19.363281 48.574219 19.363281 C 48.289062 19.550781 47.976562 19.726562 47.6875 19.914062 C 46.738281 20.460938 45.789062 21.011719 44.863281 21.550781 C 43.613281 20.835938 42.375 20.125 41.125 19.386719 C 41.1875 19.335938 41.238281 19.324219 41.300781 19.273438 C 41.273438 19.25 41.273438 19.25 41.25 19.25 C 41.5625 19.0625 41.851562 18.914062 42.136719 18.726562 C 43.050781 18.199219 43.976562 17.664062 44.875 17.148438 C 44.960938 17.101562 45.023438 17.125 45.085938 17.175781 C 46.261719 17.863281 47.4375 18.539062 48.613281 19.238281 C 48.613281 19.199219 48.664062 19.226562 48.675781 19.226562 Z M 55.976562 10.539062 C 55.300781 10.148438 54.636719 9.761719 53.960938 9.363281 C 53.488281 9.074219 53.011719 8.8125 52.539062 8.523438 C 52.488281 8.5 52.425781 8.5 52.425781 8.4375 C 52.449219 8.5 52.488281 8.5 52.539062 8.523438 C 53.011719 8.8125 53.488281 9.074219 53.960938 9.363281 C 54.648438 9.773438 55.3125 10.164062 55.976562 10.539062 C 56.039062 10.585938 56.085938 10.585938 56.101562 10.601562 C 56.085938 10.585938 56.050781 10.5625 55.976562 10.539062 Z M 55.976562 10.539062 "></path></g></svg> 