<?xml version="1.0" encoding="UTF-8"?> <!-- Generator: Adobe Illustrator 25.1.0, SVG Export Plug-In . SVG Version: 6.00 Build 0) --> <svg xmlns="http://www.w3.org/2000/svg" xmlns:xlink="http://www.w3.org/1999/xlink" version="1.1" id="Layer_1" x="0px" y="0px" viewBox="0 0 48 48" style="enable-background:new 0 0 48 48;" xml:space="preserve"> <style type="text/css"> .st0{fill:#E52349;} </style> <g> <path class="st0" d="M44.6-0.1H3.1c-1.8,0-3.2,1.4-3.2,3.2v34.1c0,2.7,2.2,4.9,4.9,4.9h6.5l0.7,0.8c0.8,0.9,2.1,1.2,3.1,0.7 l1.2-0.6c1.2,0.8,2.5,1.4,3.8,1.8l0.3,1.2c0.3,1.2,1.3,2,2.6,2h1.6l0,0c1.2,0,2.2-0.8,2.5-2l0.3-1.3c1.3-0.3,2.5-0.9,3.7-1.6 l1.1,0.6c1.1,0.6,2.4,0.3,3.2-0.6l1-1.1h6.4c2.7,0,4.9-2.2,4.9-4.9v-34C47.7,1.3,46.3-0.1,44.6-0.1z M26.3,42.7 c-0.4,0.1-0.8,0.4-0.9,0.9l-0.5,1.9c0,0.1-0.1,0.2-0.3,0.2H23c-0.1,0-0.2-0.1-0.3-0.2l-0.4-1.9c-0.1-0.4-0.4-0.8-0.9-0.9 c-1.6-0.3-3-1-4.3-2c-0.2-0.2-0.4-0.2-0.7-0.2c-0.2,0-0.3,0-0.5,0.1l-1.8,0.9c-0.1,0.1-0.3,0-0.4-0.1l-1.1-1.3 c-0.1-0.1-0.1-0.2,0-0.4l0,0l1.1-1.5c0.3-0.4,0.3-0.9,0.1-1.3c-0.5-0.9-0.8-1.8-1-2.8c-0.1-0.4-0.4-0.8-0.8-0.9l-1.9-0.5 c-0.1,0-0.2-0.2-0.2-0.3V31c0-0.1,0.1-0.3,0.2-0.3l1.9-0.5c0.4-0.1,0.8-0.4,0.9-0.9c0.2-1,0.6-2,1.1-3c0.2-0.4,0.2-0.9-0.1-1.2 l-1.1-1.6c-0.1-0.1-0.1-0.3,0-0.4l1.1-1.2c0.1-0.1,0.2-0.1,0.4-0.1l1.8,0.9c0.4,0.2,0.9,0.2,1.2-0.1c1.2-0.9,2.6-1.5,4.1-1.8 c0.4-0.1,0.8-0.4,0.9-0.8l0.5-1.9c0-0.1,0.1-0.2,0.3-0.2h1.6c0.1,0,0.3,0.1,0.3,0.2l0.4,1.9c0.1,0.4,0.4,0.8,0.9,0.9 c1.5,0.3,3,1,4.3,2c0.4,0.3,0.8,0.3,1.2,0.1l1.8-0.9c0.1-0.1,0.3,0,0.4,0.1l1.1,1.3c0.1,0.1,0.1,0.2,0,0.4L34,25.5 c-0.3,0.4-0.3,0.8-0.1,1.2c0.5,0.9,0.8,1.8,1,2.8c0.1,0.4,0.4,0.8,0.9,0.9l1.9,0.5c0.1,0,0.2,0.1,0.2,0.3v1.7 c0,0.1-0.1,0.2-0.2,0.3l-1.9,0.5c-0.4,0.1-0.8,0.4-0.9,0.9c-0.2,1-0.6,2-1.1,2.9c-0.2,0.4-0.2,0.9,0.1,1.2l1,1.4l0.2,0.2 c0.1,0.1,0.1,0.3,0,0.4L34,41.9C33.9,42,33.8,42,33.6,42l-1.7-0.9c-0.4-0.2-0.9-0.2-1.2,0.1C29.1,41.7,27.8,42.4,26.3,42.7 L26.3,42.7z M45.4,37.2c0,1.5-1.2,2.6-2.6,2.6h-5.7c-0.1-0.4-0.2-0.7-0.4-1.1l-0.8-1.1c0.4-0.7,0.6-1.4,0.9-2.2l1.2-0.3 c1.2-0.3,2-1.3,2-2.5V31c0-1.2-0.8-2.2-2-2.5l-1.3-0.3c-0.2-0.7-0.4-1.3-0.7-2l0.8-1c0.7-1,0.7-2.3-0.1-3.2l-1.1-1.3 c-0.8-0.9-2.1-1.2-3.2-0.6l-1.2,0.6c-1.2-0.8-2.5-1.4-3.8-1.8l-0.3-1.2c-0.3-1.2-1.3-2-2.5-2H23c-1.2,0-2.2,0.8-2.5,2l-0.3,1.2 c-1.3,0.4-2.5,0.9-3.6,1.6l-1.2-0.6c-1.1-0.6-2.4-0.3-3.2,0.6l-1.1,1.2c-0.8,0.9-0.9,2.2-0.2,3.2l0.7,1.1c-0.3,0.7-0.6,1.5-0.8,2.2 l-1.2,0.3c-1.2,0.3-2,1.3-2,2.5v1.6c0,1.2,0.8,2.3,2,2.5l1.3,0.3c0.2,0.7,0.4,1.3,0.7,2l-0.8,1c-0.3,0.4-0.5,0.9-0.5,1.4H4.9 c-1.5,0-2.6-1.2-2.6-2.6v-27h43.2L45.4,37.2L45.4,37.2z M45.4,7.9H2.2V3.1c0-0.5,0.4-0.9,0.9-0.9h41.5c0.5,0,0.9,0.4,0.9,0.9 L45.4,7.9z"></path> <path class="st0" d="M33.7,3.9c-0.6,0-1.1,0.5-1.1,1.1s0.5,1.1,1.1,1.1s1.1-0.5,1.1-1.1l0,0C34.8,4.4,34.3,3.9,33.7,3.9z"></path> <path class="st0" d="M37.9,3.9c-0.6,0-1.1,0.5-1.1,1.1s0.5,1.1,1.1,1.1C38.5,6.2,39,5.7,39,5l0,0C39,4.4,38.5,3.9,37.9,3.9z"></path> <path class="st0" d="M42.1,3.9C41.5,3.9,41,4.4,41,5s0.5,1.1,1.1,1.1s1.1-0.5,1.1-1.1l0,0C43.2,4.4,42.7,3.9,42.1,3.9z"></path> <path class="st0" d="M23.9,3.9H6C5.4,3.9,4.8,4.4,4.8,5S5.4,6.2,6,6.2h17.9C24.5,6.2,25,5.7,25,5S24.5,3.9,23.9,3.9z"></path> <path class="st0" d="M24.6,26c-3.2,0-5.9,2.6-5.9,5.9s2.6,5.9,5.9,5.9s5.9-2.6,5.9-5.9l0,0C30.5,28.6,27.8,26,24.6,26z M24.6,35.4 c-2,0-3.6-1.6-3.6-3.6s1.6-3.6,3.6-3.6s3.6,1.6,3.6,3.6l0,0C28.1,33.8,26.6,35.4,24.6,35.4z"></path> </g> </svg> 