<?xml version="1.0" encoding="UTF-8"?> <svg xmlns="http://www.w3.org/2000/svg" xmlns:xlink="http://www.w3.org/1999/xlink" width="60pt" height="60pt" viewBox="0 0 60 60" version="1.1"><g id="surface1"><path style=" stroke:none;fill-rule:nonzero;fill:rgb(0%,0%,0%);fill-opacity:1;" d="M 31.0625 0 C 31.488281 0.0390625 31.914062 0.0742188 32.335938 0.113281 C 36.851562 0.460938 41.074219 1.75 44.960938 4.050781 C 52.375 8.449219 57.125 14.863281 59.164062 23.25 C 59.914062 26.351562 60.101562 29.511719 59.8125 32.699219 C 58.664062 45.5 49.398438 56.238281 36.949219 59.1875 C 33.875 59.914062 30.75 60.148438 27.585938 59.914062 C 15.675781 59.039062 5.210938 50.863281 1.476562 39.523438 C 0.601562 36.886719 0.0859375 34.1875 -0.0234375 31.414062 C -0.0234375 31.300781 -0.0625 31.1875 -0.0742188 31.074219 C -0.0742188 30.375 -0.0742188 29.664062 -0.0742188 28.960938 C -0.0625 28.851562 -0.0390625 28.738281 -0.0234375 28.625 C 0.0390625 27.898438 0.0742188 27.164062 0.164062 26.4375 C 0.476562 23.613281 1.210938 20.914062 2.324219 18.300781 C 6.625 8.164062 16.289062 0.988281 27.550781 0.113281 C 28 0.0742188 28.449219 0.0390625 28.886719 0 C 29.613281 0 30.335938 0 31.0625 0 Z M 29.9375 1.761719 C 14.351562 1.773438 1.699219 14.425781 1.699219 30 C 1.699219 45.585938 14.375 58.261719 29.949219 58.25 C 45.539062 58.238281 58.1875 45.585938 58.1875 30.011719 C 58.1875 14.425781 45.511719 1.75 29.9375 1.761719 Z M 29.9375 1.761719 "></path><path style=" stroke:none;fill-rule:nonzero;fill:rgb(0%,0%,0%);fill-opacity:1;" d="M 23.511719 45.886719 C 23.3125 45.3125 23.125 44.761719 22.949219 44.226562 C 20.050781 35.664062 17.136719 27.113281 14.238281 18.550781 C 14.226562 18.5 14.199219 18.460938 14.1875 18.414062 C 14.050781 17.976562 14.164062 17.824219 14.613281 17.824219 C 15.488281 17.824219 16.375 17.824219 17.25 17.824219 C 17.726562 17.824219 17.761719 17.789062 17.761719 17.300781 C 17.761719 16.925781 17.761719 16.539062 17.761719 16.164062 C 17.761719 15.800781 17.699219 15.738281 17.335938 15.75 C 14.476562 15.824219 11.613281 15.886719 8.75 15.949219 C 8.636719 15.949219 8.511719 15.949219 8.300781 15.949219 C 12.039062 10.425781 17.023438 6.726562 23.425781 5.0625 C 32.886719 2.585938 41.835938 5.8125 47.289062 10.960938 C 46.875 11.023438 46.460938 11.050781 46.0625 11.136719 C 44.25 11.550781 43.011719 13.011719 42.824219 14.875 C 42.648438 16.710938 43.210938 18.335938 44.113281 19.886719 C 44.773438 21.023438 45.460938 22.148438 46.0625 23.324219 C 47.175781 25.460938 47.476562 27.761719 47.25 30.148438 C 47.039062 32.414062 46.375 34.5625 45.664062 36.699219 C 44.710938 39.550781 43.789062 42.398438 42.851562 45.25 C 42.824219 45.335938 42.789062 45.414062 42.738281 45.574219 C 42.6875 45.4375 42.648438 45.351562 42.625 45.261719 C 39.613281 36.398438 36.613281 27.539062 33.601562 18.675781 C 33.375 18 33.488281 17.824219 34.199219 17.824219 C 34.976562 17.824219 35.738281 17.824219 36.511719 17.824219 C 36.835938 17.824219 36.925781 17.738281 36.925781 17.398438 C 36.925781 16.988281 36.925781 16.574219 36.925781 16.175781 C 36.925781 15.800781 36.863281 15.738281 36.476562 15.75 C 32.914062 15.789062 29.351562 15.835938 25.789062 15.863281 C 24.5625 15.875 23.351562 15.789062 22.125 15.75 C 21.738281 15.738281 21.675781 15.789062 21.675781 16.175781 C 21.675781 16.601562 21.675781 17.011719 21.675781 17.4375 C 21.675781 17.75 21.75 17.824219 22.074219 17.824219 C 22.898438 17.824219 23.710938 17.824219 24.539062 17.824219 C 25.101562 17.824219 25.261719 17.9375 25.449219 18.460938 C 26.675781 21.8125 27.898438 25.164062 29.125 28.511719 C 29.175781 28.648438 29.175781 28.824219 29.136719 28.960938 C 27.300781 34.550781 25.449219 40.125 23.601562 45.699219 C 23.574219 45.75 23.550781 45.800781 23.511719 45.886719 Z M 23.511719 45.886719 "></path><path style=" stroke:none;fill-rule:nonzero;fill:rgb(0%,0%,0%);fill-opacity:1;" d="M 30.386719 31.960938 C 33.125 39.449219 35.835938 46.863281 38.5625 54.324219 C 33.238281 56.148438 27.886719 56.273438 22.449219 54.699219 C 25.101562 47.125 27.726562 39.585938 30.386719 31.960938 Z M 30.386719 31.960938 "></path><path style=" stroke:none;fill-rule:nonzero;fill:rgb(0%,0%,0%);fill-opacity:1;" d="M 18.863281 53.289062 C 5.300781 46.789062 0.976562 31.039062 6.460938 19.386719 C 10.601562 30.6875 14.726562 41.960938 18.863281 53.289062 Z M 18.863281 53.289062 "></path><path style=" stroke:none;fill-rule:nonzero;fill:rgb(0%,0%,0%);fill-opacity:1;" d="M 52.738281 17.898438 C 55.886719 24.050781 56.625 30.488281 54.710938 37.148438 C 52.75 43.960938 48.550781 49.050781 42.460938 52.585938 C 42.4375 52.574219 42.414062 52.550781 42.386719 52.539062 C 42.664062 51.738281 42.949219 50.949219 43.226562 50.148438 C 45.6875 43.175781 48.148438 36.210938 50.585938 29.238281 C 51.460938 26.726562 52.101562 24.148438 52.425781 21.511719 C 52.5625 20.398438 52.574219 19.273438 52.636719 18.148438 C 52.636719 18.0625 52.636719 17.988281 52.636719 17.898438 C 52.6875 17.898438 52.710938 17.898438 52.738281 17.898438 Z M 52.738281 17.898438 "></path></g></svg> 