<?xml version="1.0" encoding="UTF-8"?> <svg xmlns="http://www.w3.org/2000/svg" xmlns:xlink="http://www.w3.org/1999/xlink" width="60pt" height="60pt" viewBox="0 0 60 60" version="1.1"><g id="surface1"><path style=" stroke:none;fill-rule:nonzero;fill:rgb(0%,0%,0%);fill-opacity:1;" d="M 30.1875 58.324219 C 26.511719 58.324219 22.824219 58.324219 18.773438 58.324219 C 16.199219 58.324219 13.988281 57.226562 12.886719 55.011719 C 8.835938 48.386719 5.164062 41.386719 1.113281 34.761719 C -0.363281 32.1875 -0.363281 29.976562 1.113281 27.398438 C 4.789062 20.398438 8.835938 13.773438 12.886719 6.789062 C 14.363281 4.574219 16.199219 3.476562 18.773438 3.476562 C 26.136719 3.476562 33.863281 3.476562 41.226562 3.476562 C 43.800781 3.476562 46.011719 4.574219 47.113281 6.789062 C 51.164062 13.414062 54.835938 20.414062 58.886719 27.039062 C 60.363281 29.613281 60.363281 32.1875 58.886719 34.398438 C 54.835938 41.023438 51.164062 47.648438 47.113281 54.648438 C 45.636719 56.863281 43.4375 58.324219 40.851562 58.324219 C 37.550781 58.324219 33.863281 58.324219 30.1875 58.324219 Z M 17.300781 44.699219 C 18.773438 44.699219 20.25 44.699219 21.351562 44.699219 C 22.449219 44.699219 23.1875 44.335938 23.5625 43.226562 C 25.773438 39.175781 27.976562 35.125 30.1875 31.074219 C 32.023438 34.386719 33.863281 37.699219 35.710938 41.011719 C 37.550781 44.6875 37.550781 44.6875 41.976562 44.6875 C 43.449219 44.6875 43.449219 44.324219 42.710938 43.210938 C 40.875 39.539062 38.664062 35.851562 36.824219 32.175781 C 36.460938 31.4375 36.460938 30.699219 36.824219 29.960938 C 39.039062 26.289062 40.875 22.601562 42.710938 18.925781 C 43.074219 17.824219 43.074219 17.449219 41.976562 17.449219 C 37.5625 17.085938 37.5625 17.085938 35.710938 21.125 C 35.710938 21.488281 35.351562 21.863281 35.351562 22.226562 C 33.875 25.175781 32.039062 28.113281 30.5625 31.0625 C 28.351562 26.648438 26.148438 22.601562 23.9375 18.550781 C 23.199219 17.8125 22.835938 17.074219 22.460938 17.074219 C 20.625 17.074219 19.148438 17.074219 16.9375 17.074219 C 17.300781 17.8125 17.300781 18.550781 17.675781 18.914062 C 19.511719 22.585938 21.351562 25.914062 23.5625 29.585938 C 23.925781 30.6875 23.925781 31.0625 23.5625 32.164062 C 21.726562 35.476562 19.886719 39.164062 18.039062 42.835938 C 17.664062 43.226562 17.664062 43.601562 17.300781 44.699219 Z M 17.300781 44.699219 "></path></g></svg> 