<?xml version="1.0" encoding="UTF-8"?> <!-- Generator: Adobe Illustrator 23.0.3, SVG Export Plug-In . SVG Version: 6.00 Build 0) --> <svg xmlns="http://www.w3.org/2000/svg" xmlns:xlink="http://www.w3.org/1999/xlink" version="1.1" id="Layer_1" x="0px" y="0px" viewBox="0 0 48 48" style="enable-background:new 0 0 48 48;" xml:space="preserve"> <style type="text/css"> .st0{fill:#303030;} .st1{fill:#232323;} .st2{fill:#FFFFFF;} </style> <g> <path d="M48,18.35v11.38l-1.57,1.54V20.13L48,18.35z"></path> <path class="st0" d="M37.68,18.36l-1.63,1.77l0.08,0.11l10.23-0.04l0.09-0.07L48,18.35L37.68,18.36L37.68,18.36z"></path> <path class="st1" d="M36.05,20.13h10.41v11.15H36.05V20.13z"></path> <path class="st2" d="M44.87,24.14c-0.21-0.52-0.52-0.98-0.92-1.39c-0.38-0.39-0.82-0.69-1.3-0.89c-0.48-0.2-0.99-0.3-1.56-0.3 c-0.56,0-1.09,0.1-1.57,0.3c-0.49,0.2-0.92,0.5-1.3,0.89c-0.4,0.4-0.7,0.87-0.91,1.39s-0.3,1.08-0.3,1.7c0,0.6,0.1,1.16,0.31,1.69 c0.21,0.52,0.51,0.99,0.91,1.41c0.37,0.38,0.81,0.67,1.28,0.87s1.01,0.3,1.58,0.3c0.55,0,1.07-0.1,1.55-0.3 c0.48-0.2,0.92-0.49,1.3-0.87c0.4-0.41,0.71-0.88,0.92-1.4s0.31-1.09,0.31-1.69C45.18,25.22,45.08,24.66,44.87,24.14L44.87,24.14z M42.72,27.82c-0.4,0.48-0.94,0.72-1.63,0.72c-0.69,0-1.24-0.24-1.64-0.72c-0.4-0.48-0.6-1.14-0.6-1.99c0-0.86,0.21-1.53,0.6-2.02 c0.4-0.49,0.94-0.72,1.64-0.72c0.69,0,1.23,0.24,1.63,0.72c0.39,0.49,0.6,1.15,0.6,2.02C43.32,26.67,43.13,27.34,42.72,27.82z"></path> <path d="M35.03,17.42v0.06l1.33,10.23l-0.78,2.16l-0.1-0.07l-1.37-9.81l0.03-0.13l0.85-2.37C34.99,17.48,35.03,17.42,35.03,17.42z"></path> <path class="st0" d="M24.78,18.85l10.25-1.42l-0.86,2.46l-0.12,0.13l-9.58,1.41l0.05-1.75L24.78,18.85L24.78,18.85z"></path> <path class="st1" d="M34.16,19.88l1.42,9.98l-10.1,1.42l-1.36-9.65l0.59-0.46L34.16,19.88z"></path> <path class="st2" d="M32.45,21.79c-0.05-0.31-0.15-0.54-0.32-0.7c-0.14-0.12-0.31-0.19-0.51-0.19c-0.05,0-0.1,0-0.16,0.01 c-0.26,0.04-0.46,0.16-0.58,0.36c-0.09,0.14-0.13,0.32-0.13,0.52c0,0.07,0.01,0.16,0.02,0.24l0.37,2.6l-2.91,0.43l-0.37-2.6 c-0.05-0.3-0.15-0.53-0.32-0.69c-0.14-0.13-0.31-0.2-0.5-0.2c-0.05,0-0.09,0-0.14,0.01c-0.27,0.04-0.48,0.16-0.61,0.36 c-0.09,0.14-0.13,0.32-0.13,0.52c0,0.07,0.01,0.16,0.02,0.25l0.99,6.76c0.05,0.31,0.15,0.54,0.34,0.7 c0.14,0.12,0.31,0.18,0.52,0.18c0.06,0,0.11,0,0.17-0.01c0.25-0.04,0.44-0.16,0.56-0.36c0.08-0.14,0.12-0.31,0.12-0.51 c0-0.07-0.01-0.16-0.02-0.24l-0.4-2.67l2.91-0.43l0.4,2.67c0.05,0.31,0.15,0.54,0.33,0.69c0.14,0.12,0.31,0.19,0.51,0.19 c0.05,0,0.1,0,0.16-0.01c0.26-0.04,0.46-0.16,0.58-0.36c0.08-0.14,0.13-0.31,0.13-0.52c0-0.07-0.01-0.16-0.02-0.24L32.45,21.79 L32.45,21.79z"></path> <path d="M15.19,14.82l-3.65,8.66l0.5,3.81l0.03-0.01l4.1-9.22l-0.02-0.2l-0.88-2.92L15.19,14.82z"></path> <path class="st0" d="M15.19,14.82L16.14,18l0.02,0.07l9.02,4.04l0.03-0.02l-0.77-3.04L15.19,14.82z"></path> <path class="st1" d="M16.14,17.99l9.07,4.09l-4.1,9.29l-9.07-4.09L16.14,17.99L16.14,17.99z"></path> <path class="st2" d="M22.45,22.83c-0.2-0.52-0.47-0.97-0.82-1.35c-0.36-0.37-0.79-0.67-1.29-0.89c-0.51-0.22-1.01-0.32-1.53-0.32 h-0.03c-0.52,0-1.04,0.12-1.55,0.35c-0.53,0.23-0.99,0.55-1.39,0.97c-0.39,0.41-0.71,0.92-0.96,1.5c-0.24,0.57-0.37,1.15-0.4,1.72 v0.2c0,0.51,0.08,1,0.26,1.49c0.19,0.52,0.46,0.96,0.82,1.33s0.8,0.67,1.32,0.89c0.5,0.22,1,0.32,1.52,0.32h0.01 c0.52,0,1.03-0.11,1.54-0.33c0.53-0.23,1-0.56,1.4-0.98c0.39-0.41,0.72-0.91,0.97-1.49s0.37-1.15,0.4-1.72v-0.17 C22.73,23.83,22.64,23.33,22.45,22.83L22.45,22.83z M20.65,25.53c-0.34,0.81-0.8,1.36-1.35,1.66c-0.3,0.16-0.61,0.24-0.92,0.24 c-0.27,0-0.56-0.07-0.85-0.19c-0.64-0.27-1.03-0.7-1.2-1.32c-0.06-0.21-0.08-0.42-0.08-0.65c0-0.45,0.11-0.95,0.34-1.48 c0.35-0.82,0.81-1.39,1.36-1.7c0.3-0.17,0.61-0.24,0.92-0.24c0.28,0,0.56,0.07,0.86,0.19c0.63,0.27,1.02,0.7,1.19,1.32 C20.98,23.56,21,23.77,21,24C20.99,24.47,20.88,24.98,20.65,25.53z"></path> <path d="M10.82,16.29l1.48,9.92l-0.67,3.49l-0.09-0.12L10.1,20v-0.2l0.64-3.35L10.82,16.29L10.82,16.29z"></path> <path class="st0" d="M0,21.42l0.7-3.51l10.12-1.62l-0.68,3.57v0.23L0.12,21.51L0,21.42z"></path> <path class="st1" d="M10.14,19.86l1.49,9.83L1.61,31.26L0,21.42L10.14,19.86L10.14,19.86z"></path> <path class="st2" d="M9.06,28.13c-0.07-0.09-0.19-0.16-0.32-0.21s-0.29-0.07-0.49-0.07c-0.18,0-0.38,0.02-0.61,0.06L5,28.36 c0.03-0.21,0.13-0.47,0.31-0.8c0.2-0.37,0.5-0.81,0.88-1.31c0.13-0.18,0.23-0.31,0.31-0.4c0.05-0.07,0.12-0.15,0.22-0.27 c0.61-0.8,0.97-1.44,1.12-1.95c0.08-0.29,0.13-0.58,0.15-0.87C8,22.67,8,22.6,8,22.52c0-0.21-0.02-0.41-0.06-0.62 c-0.03-0.19-0.07-0.34-0.14-0.46c-0.07-0.12-0.14-0.22-0.23-0.27c-0.1-0.07-0.26-0.09-0.46-0.09c-0.16,0-0.36,0.02-0.59,0.06 l-3.06,0.52C3.1,21.73,2.81,21.83,2.65,22c-0.14,0.13-0.21,0.3-0.21,0.49c0,0.05,0,0.1,0.01,0.16c0.05,0.26,0.18,0.45,0.39,0.54 c0.13,0.06,0.28,0.08,0.47,0.08c0.12,0,0.26-0.01,0.41-0.04l2.55-0.45c0,0.05,0.01,0.09,0.01,0.13c0,0.16-0.03,0.32-0.08,0.47 c-0.07,0.22-0.26,0.52-0.57,0.9c-0.08,0.1-0.22,0.27-0.39,0.49c-0.69,0.83-1.18,1.55-1.48,2.14c-0.22,0.41-0.36,0.81-0.44,1.21 c-0.05,0.23-0.07,0.45-0.07,0.67c0,0.15,0.01,0.3,0.04,0.44c0.04,0.21,0.08,0.37,0.15,0.51c0.07,0.13,0.16,0.23,0.26,0.29 s0.24,0.07,0.45,0.07c0.25,0,0.6-0.04,1.04-0.11l2.77-0.48c0.49-0.08,0.83-0.21,1.03-0.37c0.16-0.13,0.24-0.31,0.24-0.52 c0-0.06-0.01-0.11-0.02-0.17C9.19,28.33,9.14,28.22,9.06,28.13z"></path> </g> </svg> 